<svg xmlns="http://www.w3.org/2000/svg" xmlns:xlink="http://www.w3.org/1999/xlink" width="115.03" height="171.585" viewBox="0 0 115.03 171.585">
  <defs>
    <clipPath id="clip-path">
      <rect id="Rectángulo_1188" data-name="Rectángulo 1188" width="115.03" height="171.585" fill="none" stroke="rgba(0,0,0,0)" stroke-width="2"/>
    </clipPath>
  </defs>
  <g id="Grupo_66" data-name="Grupo 66" transform="translate(0 -0.005)">
    <g id="Grupo_44" data-name="Grupo 44" transform="translate(0 0.005)" clip-path="url(#clip-path)">
      <path id="Trazado_428" data-name="Trazado 428" d="M378.245,24.807c-4.639,2.317-11.476,10.96-10.585,21.012.413,4.661,8.151,4.952,10.719,6.239,2.5-4.666-2.82-21.78-.5-23.5.884-.654,3.262-1.654,3.518-2.505.345-1.149-.911-2.367-3.155-1.246" transform="translate(-315.862 -20.935)" fill-rule="evenodd"/>
      <path id="Trazado_428_-_Contorno" data-name="Trazado 428 - Contorno" d="M377.889,51.894l-.312-.156a16.6,16.6,0,0,0-2.9-.906,23.112,23.112,0,0,1-5.056-1.721,6.449,6.449,0,0,1-1.995-1.558,4.211,4.211,0,0,1-.961-2.342,21.476,21.476,0,0,1,.636-7.32,25.255,25.255,0,0,1,6.316-11.129,15.184,15.184,0,0,1,3.831-2.916,4.073,4.073,0,0,1,1.8-.482,1.946,1.946,0,0,1,1.62.727,1.6,1.6,0,0,1,.24,1.425c-.2.666-1.159,1.247-2.493,2a12.621,12.621,0,0,0-1.155.7c-.125.093-.294.337-.388.976a11.084,11.084,0,0,0-.037,2.157c.1,1.749.425,4,.767,6.373.387,2.685.787,5.461.931,7.921a22.38,22.38,0,0,1-.016,3.393,6.8,6.8,0,0,1-.658,2.561Zm1.354-27.814a3.373,3.373,0,0,0-1.479.407,14.47,14.47,0,0,0-3.641,2.779,24.538,24.538,0,0,0-6.131,10.8,20.76,20.76,0,0,0-.616,7.076,3.46,3.46,0,0,0,.8,1.95,5.754,5.754,0,0,0,1.779,1.381,22.587,22.587,0,0,0,4.9,1.659,21.758,21.758,0,0,1,2.714.808,12.877,12.877,0,0,0,.447-5.269c-.142-2.43-.54-5.191-.925-7.861-.345-2.394-.671-4.655-.773-6.434a11.753,11.753,0,0,1,.043-2.3,2.093,2.093,0,0,1,.671-1.449,12.961,12.961,0,0,1,1.231-.745c.5-.282,1.022-.573,1.442-.867.553-.387.685-.61.715-.708a.884.884,0,0,0-.129-.79A1.252,1.252,0,0,0,379.243,24.08Z" transform="translate(-315.221 -20.294)" fill="rgba(0,0,0,0)"/>
      <path id="Trazado_429" data-name="Trazado 429" d="M387.24,520c.835,1.114-1.335,4.963,3.024,24.575,1.918,8.631,5.372,12.107,6.552,14.018,6.684,10.825,20.882,32.07,21.944,33.632l9.841-5.531c-.7-1.36-14.425-29.35-16.878-33.7-2.419-4.287-3.054-30.915-3.033-31.067a3.507,3.507,0,0,0,.1-.394c.4-16.586-12.99.571-21.553-1.538" transform="translate(-332.755 -441.884)" fill-rule="evenodd"/>
      <path id="Trazado_429_-_Contorno" data-name="Trazado 429 - Contorno" d="M417.058,592.059l-.185-.273c-1-1.465-15.274-22.831-21.952-33.646-.2-.329-.485-.718-.81-1.168a32.4,32.4,0,0,1-2.878-4.6,31.571,31.571,0,0,1-1.553-3.621,39.557,39.557,0,0,1-1.357-4.742,127.992,127.992,0,0,1-2.6-15.466,54.206,54.206,0,0,1-.234-7.153,4.033,4.033,0,0,0-.128-1.819l-.6-.8.976.24a6.255,6.255,0,0,0,1.493.173,12.629,12.629,0,0,0,4.53-1.033c1.582-.622,3.186-1.442,4.737-2.235,2.693-1.378,5.237-2.679,7.211-2.679a3.134,3.134,0,0,1,2.337.919,5.062,5.062,0,0,1,1.2,2.476,17.567,17.567,0,0,1,.322,4.274,1.019,1.019,0,0,1-.073.33c-.012.034-.024.066-.029.091,0,.449.155,6.98.611,14.085.594,9.27,1.416,15.069,2.376,16.77,1.9,3.375,10.552,20.893,14.708,29.311,1.217,2.465,2.021,4.093,2.176,4.4l.158.307ZM386.19,519.83a10.833,10.833,0,0,1,.018,1.585,53.55,53.55,0,0,0,.231,7.066,127.281,127.281,0,0,0,2.585,15.376,31.127,31.127,0,0,0,5.668,12.7c.334.461.623.86.84,1.211,6.4,10.368,19.8,30.445,21.751,33.346l9.254-5.2c-.319-.639-1.036-2.092-2.026-4.1-4.153-8.413-12.795-25.918-14.69-29.276-1.033-1.831-1.866-7.63-2.477-17.238-.24-3.781-.392-7.349-.477-9.677-.075-2.062-.136-4.272-.121-4.379a1.234,1.234,0,0,1,.067-.246.609.609,0,0,0,.032-.105,17.126,17.126,0,0,0-.3-4.1,4.447,4.447,0,0,0-1.01-2.134,2.412,2.412,0,0,0-1.823-.7c-1.8,0-4.27,1.263-6.884,2.6-1.566.8-3.186,1.63-4.8,2.264a13.313,13.313,0,0,1-4.793,1.083A7.331,7.331,0,0,1,386.19,519.83Z" transform="translate(-331.165 -441.243)" fill="rgba(0,0,0,0)"/>
      <path id="Trazado_430" data-name="Trazado 430" d="M403.707,513.237h0a3.135,3.135,0,0,1,2.337.919,5.062,5.062,0,0,1,1.2,2.476,17.566,17.566,0,0,1,.322,4.274,1.018,1.018,0,0,1-.073.329c-.012.034-.024.066-.029.091,0,.449.155,6.98.611,14.085.594,9.27,1.416,15.069,2.376,16.77,1.9,3.375,10.552,20.893,14.708,29.311,1.217,2.465,2.021,4.093,2.176,4.4l.158.307-10.43,5.862-.185-.273c-1-1.465-15.274-22.831-21.952-33.646-.2-.329-.485-.718-.81-1.168a32.4,32.4,0,0,1-2.878-4.6,31.571,31.571,0,0,1-1.553-3.621,39.551,39.551,0,0,1-1.357-4.742,128,128,0,0,1-2.6-15.466,54.211,54.211,0,0,1-.234-7.153,4.032,4.032,0,0,0-.127-1.819l-.6-.8.976.24a6.254,6.254,0,0,0,1.493.173,12.627,12.627,0,0,0,4.53-1.033c1.582-.622,3.186-1.442,4.737-2.235C399.189,514.538,401.733,513.237,403.707,513.237Zm22.83,72.672c-.319-.639-1.036-2.092-2.026-4.1-4.153-8.413-12.795-25.918-14.69-29.276-1.033-1.831-1.866-7.63-2.477-17.238-.24-3.781-.392-7.349-.477-9.677-.075-2.062-.136-4.272-.121-4.379a1.236,1.236,0,0,1,.067-.246.61.61,0,0,0,.032-.105,17.127,17.127,0,0,0-.3-4.1,4.447,4.447,0,0,0-1.01-2.134,2.412,2.412,0,0,0-1.824-.7h0c-1.8,0-4.27,1.263-6.884,2.6-1.566.8-3.186,1.63-4.8,2.264a13.31,13.31,0,0,1-4.792,1.083,7.33,7.33,0,0,1-1.04-.072,10.838,10.838,0,0,1,.018,1.585,53.548,53.548,0,0,0,.231,7.066,127.289,127.289,0,0,0,2.585,15.376,31.127,31.127,0,0,0,5.668,12.7c.334.461.623.86.84,1.211,6.4,10.368,19.8,30.447,21.751,33.346Z" transform="translate(-331.165 -441.243)"/>
      <path id="Trazado_431" data-name="Trazado 431" d="M249.788,466.542c-.264,1.254-5.549,18.421-11.154,36.6a71.593,71.593,0,0,0-2.967,13.41c-.876,7.061-5.685,28.35-6.3,30.7l10.107,3.929c.6-1.472,13.706-32.128,14.578-34.531,3.329-9.177,34.735-25.376,23.4-50.64Z" transform="translate(-197.092 -400.445)" fill-rule="evenodd"/>
      <path id="Trazado_431_-_Contorno" data-name="Trazado 431 - Contorno" d="M276.914,465l.1.216a28.733,28.733,0,0,1,2.088,6.622,24.607,24.607,0,0,1,.331,6.207,25.751,25.751,0,0,1-1.124,5.782,31.689,31.689,0,0,1-2.268,5.357,50.659,50.659,0,0,1-6.733,9.476c-2.526,2.889-5.24,5.556-7.634,7.909-3.821,3.755-7.122,7-8.05,9.557-.613,1.69-7.058,16.839-11.323,26.863-1.788,4.2-3.081,7.241-3.26,7.681L238.9,551l-10.735-4.173.082-.31c.32-1.217,1.7-7.248,3.051-13.566,1.221-5.714,2.775-13.317,3.243-17.086a70.741,70.741,0,0,1,1.4-7.838c.51-2.132,1.038-3.881,1.578-5.634,4.587-14.882,10.87-35.263,11.146-36.572l.059-.28.286-.005Zm-38.405,85.073c.41-.975,1.584-3.736,3.128-7.365,4-9.409,10.7-25.156,11.309-26.827a15.069,15.069,0,0,1,3.029-4.508c1.434-1.622,3.26-3.416,5.193-5.316,2.385-2.344,5.089-5,7.6-7.869a49.959,49.959,0,0,0,6.639-9.341,30.971,30.971,0,0,0,2.217-5.235,25.03,25.03,0,0,0,1.093-5.621,23.888,23.888,0,0,0-.322-6.025,27.9,27.9,0,0,0-1.94-6.24l-27.148.52c-.669,2.512-5.426,17.972-11.093,36.356a71.079,71.079,0,0,0-2.954,13.349c-.47,3.794-2.029,11.419-3.253,17.147-1.261,5.9-2.551,11.56-2.98,13.287Z" transform="translate(-196.327 -399.796)" fill="rgba(0,0,0,0)"/>
      <path id="Trazado_432" data-name="Trazado 432" d="M276.914,465l.1.216a28.733,28.733,0,0,1,2.088,6.622,24.607,24.607,0,0,1,.331,6.207,25.751,25.751,0,0,1-1.124,5.782,31.689,31.689,0,0,1-2.268,5.357,50.659,50.659,0,0,1-6.733,9.476c-2.526,2.889-5.24,5.556-7.634,7.909-3.821,3.755-7.122,7-8.05,9.557-.613,1.69-7.058,16.838-11.323,26.863-1.789,4.2-3.081,7.241-3.26,7.681L238.9,551l-10.735-4.173.082-.31c.32-1.217,1.7-7.248,3.051-13.566,1.221-5.714,2.775-13.317,3.243-17.086a70.748,70.748,0,0,1,1.4-7.838c.51-2.132,1.038-3.881,1.578-5.634,4.587-14.881,10.87-35.262,11.146-36.572l.059-.28Zm-38.405,85.073c.41-.976,1.584-3.736,3.128-7.366,4-9.408,10.7-25.155,11.309-26.826a15.068,15.068,0,0,1,3.029-4.508c1.434-1.622,3.26-3.416,5.193-5.316,2.385-2.344,5.089-5,7.6-7.869a49.959,49.959,0,0,0,6.639-9.341,30.972,30.972,0,0,0,2.217-5.235,25.031,25.031,0,0,0,1.093-5.621,23.888,23.888,0,0,0-.322-6.025,27.9,27.9,0,0,0-1.94-6.24l-27.148.52c-.669,2.512-5.426,17.973-11.093,36.356a71.079,71.079,0,0,0-2.954,13.349c-.47,3.794-2.029,11.419-3.253,17.147-1.261,5.9-2.551,11.56-2.98,13.287Z" transform="translate(-196.327 -399.796)" fill="#fff"/>
      <path id="Trazado_433" data-name="Trazado 433" d="M29.614,188.218c-2.368,1.112.1,3.713.287,4.675.045.24,5.742,2.1,2.514-3.812a3.026,3.026,0,0,0-2.8-.863" transform="translate(-24.571 -161.651)" fill="#ffc9e4" fill-rule="evenodd"/>
      <path id="Trazado_433_-_Contorno" data-name="Trazado 433 - Contorno" d="M31.142,193.075h0a5.136,5.136,0,0,1-1.376-.21,3.779,3.779,0,0,1-.481-.172c-.118-.053-.337-.152-.379-.374a4.323,4.323,0,0,0-.431-.9c-.5-.893-1.114-2-.8-2.992a2,2,0,0,1,1.14-1.174,1.625,1.625,0,0,1,.691-.133,3.459,3.459,0,0,1,2.578,1.149c1.024,1.874,1.285,3.183.8,4A1.932,1.932,0,0,1,31.142,193.075Zm-1.569-1.038a4.386,4.386,0,0,0,1.569.32h0a1.213,1.213,0,0,0,1.127-.452,1.551,1.551,0,0,0,.085-1.067,8.071,8.071,0,0,0-.9-2.226,2.929,2.929,0,0,0-1.948-.775.915.915,0,0,0-.386.065,1.3,1.3,0,0,0-.762.745c-.223.691.311,1.651.74,2.423A5.85,5.85,0,0,1,29.573,192.037Z" transform="translate(-23.928 -161.01)" fill="rgba(0,0,0,0)"/>
      <path id="Trazado_434" data-name="Trazado 434" d="M29.51,187.119h0a3.46,3.46,0,0,1,2.578,1.149c1.024,1.874,1.285,3.183.8,4a1.932,1.932,0,0,1-1.745.8,5.134,5.134,0,0,1-1.376-.21,3.782,3.782,0,0,1-.481-.172c-.118-.053-.337-.152-.379-.374a4.323,4.323,0,0,0-.431-.9c-.5-.893-1.114-2-.8-2.992a2,2,0,0,1,1.14-1.174A1.625,1.625,0,0,1,29.51,187.119Zm1.632,5.238a1.213,1.213,0,0,0,1.127-.452,1.551,1.551,0,0,0,.085-1.067,8.071,8.071,0,0,0-.9-2.226,2.929,2.929,0,0,0-1.948-.775h0a.915.915,0,0,0-.386.065,1.3,1.3,0,0,0-.762.745c-.223.691.311,1.651.74,2.423a5.851,5.851,0,0,1,.471.967A4.384,4.384,0,0,0,31.142,192.357Z" transform="translate(-23.928 -161.01)"/>
      <path id="Trazado_435" data-name="Trazado 435" d="M437.568,147.432l-6.356-1.023c0,3.912-.666,7.095-.931,11.024,2.275,0,5.985.13,8.261.13-.156-3.572-.817-6.56-.974-10.131" transform="translate(-369.74 -125.81)" fill="#ffc9e4" fill-rule="evenodd"/>
      <path id="Trazado_435_-_Contorno" data-name="Trazado 435 - Contorno" d="M438.231,157.169h-.375c-1.141,0-2.665-.033-4.138-.065s-2.989-.065-4.123-.065h-.384l.026-.383c.1-1.557.273-3,.436-4.4a54.917,54.917,0,0,0,.494-6.6v-.421l.416.067,6.356,1.023.289.046.013.292c.078,1.771.284,3.431.484,5.037s.41,3.294.489,5.094Zm-8.25-.847c1.087.006,2.44.035,3.753.064s2.664.058,3.745.064c-.089-1.631-.28-3.17-.466-4.661-.191-1.531-.388-3.112-.475-4.8l-5.655-.91a58.223,58.223,0,0,1-.5,6.258C430.238,153.611,430.085,154.926,429.981,156.323Z" transform="translate(-369.055 -125.058)" fill="rgba(0,0,0,0)"/>
      <path id="Trazado_436" data-name="Trazado 436" d="M430.167,145.235l.416.067,6.356,1.023.289.046.013.292c.078,1.771.284,3.431.484,5.037s.41,3.294.489,5.094l.016.375h-.375c-1.141,0-2.665-.033-4.138-.065s-2.989-.065-4.123-.065h-.384l.026-.383c.1-1.557.273-3,.436-4.4a54.917,54.917,0,0,0,.494-6.6Zm6.371,1.752-5.655-.91a58.223,58.223,0,0,1-.5,6.258c-.148,1.276-.3,2.591-.406,3.987,1.087.006,2.44.035,3.753.064s2.664.058,3.745.064c-.089-1.631-.28-3.17-.466-4.661C436.822,150.258,436.625,148.677,436.538,146.987Z" transform="translate(-369.055 -125.058)"/>
      <path id="Trazado_437" data-name="Trazado 437" d="M358.546,463.649c11.235,2.522,17.965,4.755,29.2,7.276,1.224,1.995.418,6.484.13,8.431l-31.917-4.849c.309-1.455,2.366-6.8,2.588-10.858" transform="translate(-305.875 -398.414)" fill="#66f" fill-rule="evenodd"/>
      <path id="Trazado_437_-_Contorno" data-name="Trazado 437 - Contorno" d="M387.409,478.973l-32.649-4.96.079-.372c.087-.412.3-1.1.576-1.977a40.015,40.015,0,0,0,2.005-8.826l.023-.423.414.093c5.624,1.262,10.193,2.472,14.612,3.641s8.976,2.376,14.587,3.635l.148.033.079.129a7.475,7.475,0,0,1,.7,4.082,36.167,36.167,0,0,1-.451,4.129c-.025.165-.049.32-.07.46Zm-31.776-5.554,31.172,4.736.016-.107a35.027,35.027,0,0,0,.444-4.045,7.374,7.374,0,0,0-.521-3.554c-5.554-1.25-10.08-2.448-14.459-3.607-4.305-1.139-8.753-2.317-14.178-3.543a42.945,42.945,0,0,1-2.008,8.578C355.9,472.5,355.74,473.032,355.633,473.42Z" transform="translate(-305.107 -397.623)" fill="rgba(0,0,0,0)"/>
      <path id="Trazado_438" data-name="Trazado 438" d="M357.443,462.415l.414.093c5.624,1.262,10.193,2.472,14.612,3.641s8.976,2.376,14.587,3.635l.148.033.079.129a7.475,7.475,0,0,1,.7,4.082,36.165,36.165,0,0,1-.451,4.129c-.025.165-.049.32-.07.46l-.053.356-32.649-4.96.079-.372c.087-.412.3-1.1.576-1.977a40.014,40.014,0,0,0,2.005-8.826Zm29.3,8.035c-5.554-1.25-10.08-2.448-14.459-3.607-4.305-1.139-8.753-2.317-14.178-3.543a42.945,42.945,0,0,1-2.008,8.578c-.2.625-.36,1.155-.466,1.542l31.172,4.736.016-.107a35.019,35.019,0,0,0,.444-4.045A7.374,7.374,0,0,0,386.744,470.449Z" transform="translate(-305.107 -397.623)"/>
      <path id="Trazado_439" data-name="Trazado 439" d="M420.162,62.967c1.323.983,6.842,1.826,8.443-4.221,1.448-5.471-1.765-1.983-3.292-8-.335-1.319-1.533-3.964-4.175-2.926-4.118,4.195-6.438,11.724-.976,15.149" transform="translate(-358.29 -40.887)" fill="#ffc9e4" fill-rule="evenodd"/>
      <path id="Trazado_439_-_Contorno" data-name="Trazado 439 - Contorno" d="M422.218,63.377h0a6.515,6.515,0,0,1-1.711-.226,3.791,3.791,0,0,1-1.187-.528,7.16,7.16,0,0,1-2.33-2.312,7.053,7.053,0,0,1-.976-2.885,11.172,11.172,0,0,1,.948-5.578,16.2,16.2,0,0,1,3.281-4.922l.054-.055.071-.028a3.5,3.5,0,0,1,1.277-.261,2.963,2.963,0,0,1,2.39,1.308,6.288,6.288,0,0,1,.987,2.125,7.626,7.626,0,0,0,1.2,2.77,4.809,4.809,0,0,0,1.249,1.117,2.315,2.315,0,0,1,1.121,1.291,5.951,5.951,0,0,1-.283,3,7.051,7.051,0,0,1-2.606,4.1A5.992,5.992,0,0,1,422.218,63.377ZM420.7,47.484a15.475,15.475,0,0,0-3.077,4.643,10.459,10.459,0,0,0-.9,5.215,6.34,6.34,0,0,0,.875,2.594,6.453,6.453,0,0,0,2.111,2.086l.012.008.011.008a4.606,4.606,0,0,0,2.482.621h0a5.278,5.278,0,0,0,3.071-.942,6.359,6.359,0,0,0,2.328-3.7,5.589,5.589,0,0,0,.288-2.621c-.119-.411-.4-.6-.835-.9a5.492,5.492,0,0,1-1.416-1.276,8.309,8.309,0,0,1-1.329-3.028,5.544,5.544,0,0,0-.864-1.87,2.245,2.245,0,0,0-1.817-1.021A2.737,2.737,0,0,0,420.7,47.484Z" transform="translate(-357.649 -40.246)" fill="rgba(0,0,0,0)"/>
      <path id="Trazado_440" data-name="Trazado 440" d="M422.218,63.377h0a6.515,6.515,0,0,1-1.711-.226,3.791,3.791,0,0,1-1.187-.528,7.16,7.16,0,0,1-2.33-2.312,7.053,7.053,0,0,1-.976-2.885,11.172,11.172,0,0,1,.948-5.578,16.2,16.2,0,0,1,3.281-4.922l.054-.055.071-.028a3.5,3.5,0,0,1,1.277-.261,2.963,2.963,0,0,1,2.39,1.308,6.288,6.288,0,0,1,.987,2.125,7.626,7.626,0,0,0,1.2,2.77,4.809,4.809,0,0,0,1.249,1.117,2.315,2.315,0,0,1,1.121,1.291,5.951,5.951,0,0,1-.283,3,7.051,7.051,0,0,1-2.606,4.1A5.992,5.992,0,0,1,422.218,63.377ZM420.7,47.484a15.475,15.475,0,0,0-3.077,4.643,10.459,10.459,0,0,0-.9,5.215,6.34,6.34,0,0,0,.875,2.594,6.453,6.453,0,0,0,2.111,2.086l.012.008.011.008a4.606,4.606,0,0,0,2.482.621h0a5.278,5.278,0,0,0,3.071-.942,6.359,6.359,0,0,0,2.328-3.7,5.589,5.589,0,0,0,.288-2.621c-.119-.411-.4-.6-.835-.9a5.492,5.492,0,0,1-1.416-1.276,8.309,8.309,0,0,1-1.329-3.028,5.544,5.544,0,0,0-.864-1.87,2.245,2.245,0,0,0-1.817-1.021A2.737,2.737,0,0,0,420.7,47.484Z" transform="translate(-357.649 -40.246)"/>
      <path id="Trazado_441" data-name="Trazado 441" d="M185.068,203.465c3.719,2.051,20.346,9.627,32.9,8.665,18.179-1.393,3.712-32.612-2.479-44.489-5.442-10.439-12.553-8.689-14.183-4.477-3.887,6.993-6.875,4.965-8.876,1.266-2.326-4.3-8.558-1.846-10.359,1.413l-9.437,6.379c.3,1.741-23.817-16.342-17.649,1.027.8,2.259,27.43,12.569,27.8,15.569.721,5.811,2.283,14.647,2.283,14.647" transform="translate(-132.309 -137.368)" fill="#66f" fill-rule="evenodd"/>
      <path id="Trazado_441_-_Contorno" data-name="Trazado 441 - Contorno" d="M215.053,211.932h0a46.641,46.641,0,0,1-9.518-1.1,79.232,79.232,0,0,1-9.178-2.567,85.826,85.826,0,0,1-12.106-5.123l-.15-.083-.03-.169c-.016-.088-1.572-8.912-2.286-14.665-.013-.1-.148-.5-1.363-1.367a35.457,35.457,0,0,0-3.643-2.182c-2.989-1.61-6.856-3.442-10.6-5.213-3.058-1.449-5.947-2.817-8.149-3.966-3.29-1.717-3.882-2.344-4.032-2.765-1.206-3.4-1.354-5.67-.451-6.949a2.978,2.978,0,0,1,2.605-1.13c3.384,0,8.854,3.039,12.473,5.05.863.479,1.608.894,2.19,1.191a7.089,7.089,0,0,0,.929.421l9.408-6.359a7.667,7.667,0,0,1,2.777-2.671,7.961,7.961,0,0,1,3.931-1.153,4.9,4.9,0,0,1,2.388.578,4.646,4.646,0,0,1,1.85,1.912,9.118,9.118,0,0,0,1.68,2.318,2.8,2.8,0,0,0,1.893.876,3.241,3.241,0,0,0,2.095-.968,13.474,13.474,0,0,0,2.567-3.474,5.484,5.484,0,0,1,1.983-2.508,5.661,5.661,0,0,1,3.251-1,6.769,6.769,0,0,1,2.338.433,9.305,9.305,0,0,1,2.453,1.387,18.379,18.379,0,0,1,4.8,6.154c1.568,3.009,3.033,6.033,4.352,8.989a114.95,114.95,0,0,1,4.394,11.269c3.048,9.4,3.442,16.242,1.173,20.329a7.991,7.991,0,0,1-2.945,3.046,10.98,10.98,0,0,1-4.785,1.379C216.613,211.9,215.84,211.932,215.053,211.932Zm-30.307-9.34a86.382,86.382,0,0,0,11.841,4.99,78.522,78.522,0,0,0,9.095,2.544,45.928,45.928,0,0,0,9.37,1.088h0c.769,0,1.522-.028,2.241-.083a10.276,10.276,0,0,0,4.475-1.281,7.282,7.282,0,0,0,2.683-2.777c1.156-2.082,1.578-4.99,1.255-8.644a51.848,51.848,0,0,0-2.483-11.115,114.231,114.231,0,0,0-4.366-11.2c-1.314-2.943-2.772-5.954-4.333-8.95a17.682,17.682,0,0,0-4.6-5.918,8.59,8.59,0,0,0-2.262-1.281,6.055,6.055,0,0,0-2.091-.389,4.946,4.946,0,0,0-2.842.874,4.769,4.769,0,0,0-1.732,2.2l-.009.023-.012.022a14.2,14.2,0,0,1-2.729,3.682,3.921,3.921,0,0,1-2.572,1.15h0c-1.508,0-2.922-1.2-4.2-3.57a3.893,3.893,0,0,0-3.606-2.114,7.236,7.236,0,0,0-3.568,1.054,6.885,6.885,0,0,0-2.555,2.476l-.042.075-9.386,6.344a.432.432,0,0,1-.064.1.466.466,0,0,1-.373.161c-.457,0-1.432-.531-3.6-1.733-1.792-1-4.023-2.235-6.227-3.232a27.244,27.244,0,0,0-3.194-1.239,9.587,9.587,0,0,0-2.7-.487,2.282,2.282,0,0,0-2.019.826,3.424,3.424,0,0,0-.436,2.178,15.693,15.693,0,0,0,.977,4.116c.015.042.134.279,1.031.864.621.4,1.49.9,2.656,1.506,2.19,1.143,5.073,2.508,8.124,3.954,3.748,1.776,7.625,3.612,10.629,5.23a36.12,36.12,0,0,1,3.72,2.23c1.083.773,1.595,1.348,1.659,1.863C183.153,193.426,184.527,201.336,184.747,202.592Z" transform="translate(-131.664 -136.727)" fill="rgba(0,0,0,0)"/>
      <path id="Trazado_442" data-name="Trazado 442" d="M215.054,211.932h0a46.64,46.64,0,0,1-9.518-1.1,79.238,79.238,0,0,1-9.178-2.567,85.828,85.828,0,0,1-12.106-5.123l-.15-.083-.03-.169c-.016-.088-1.572-8.912-2.286-14.665-.013-.1-.148-.5-1.363-1.367a35.457,35.457,0,0,0-3.643-2.182c-2.989-1.61-6.856-3.442-10.6-5.213-3.058-1.449-5.947-2.817-8.149-3.966-3.29-1.717-3.882-2.344-4.032-2.765-1.206-3.4-1.354-5.67-.451-6.949a2.978,2.978,0,0,1,2.605-1.13c3.384,0,8.854,3.039,12.473,5.05.863.479,1.608.894,2.19,1.191a7.088,7.088,0,0,0,.929.421l.041-.028,9.367-6.332a7.667,7.667,0,0,1,2.777-2.671,7.961,7.961,0,0,1,3.931-1.153,4.9,4.9,0,0,1,2.388.578,4.646,4.646,0,0,1,1.85,1.912,9.117,9.117,0,0,0,1.68,2.318,2.8,2.8,0,0,0,1.893.876,3.24,3.24,0,0,0,2.095-.968,13.473,13.473,0,0,0,2.567-3.473,5.484,5.484,0,0,1,1.983-2.508,5.661,5.661,0,0,1,3.251-1,6.77,6.77,0,0,1,2.338.433,9.306,9.306,0,0,1,2.453,1.387,18.379,18.379,0,0,1,4.8,6.154c1.568,3.009,3.033,6.033,4.352,8.989a114.948,114.948,0,0,1,4.394,11.269c3.048,9.4,3.442,16.242,1.173,20.329a7.99,7.99,0,0,1-2.945,3.046,10.981,10.981,0,0,1-4.785,1.379C216.613,211.9,215.84,211.932,215.054,211.932Zm-30.307-9.34a86.382,86.382,0,0,0,11.841,4.99,78.522,78.522,0,0,0,9.095,2.544,45.929,45.929,0,0,0,9.37,1.088h0c.769,0,1.522-.028,2.241-.083a10.276,10.276,0,0,0,4.475-1.281,7.282,7.282,0,0,0,2.683-2.777c1.156-2.082,1.578-4.99,1.255-8.644a51.85,51.85,0,0,0-2.483-11.115,114.234,114.234,0,0,0-4.366-11.2c-1.314-2.943-2.772-5.954-4.333-8.95a17.682,17.682,0,0,0-4.6-5.918,8.59,8.59,0,0,0-2.262-1.281,6.054,6.054,0,0,0-2.091-.389,4.946,4.946,0,0,0-2.842.874,4.769,4.769,0,0,0-1.732,2.2l-.009.023-.012.022a14.2,14.2,0,0,1-2.729,3.682,3.921,3.921,0,0,1-2.572,1.15c-1.508,0-2.923-1.2-4.2-3.57a3.893,3.893,0,0,0-3.606-2.114,7.236,7.236,0,0,0-3.568,1.054,6.885,6.885,0,0,0-2.555,2.476l-.042.075-9.386,6.344a.433.433,0,0,1-.064.1.466.466,0,0,1-.373.161h0c-.457,0-1.432-.531-3.6-1.733-1.792-1-4.023-2.235-6.227-3.232a27.246,27.246,0,0,0-3.194-1.239,9.586,9.586,0,0,0-2.7-.487,2.282,2.282,0,0,0-2.019.826,3.424,3.424,0,0,0-.436,2.178,15.694,15.694,0,0,0,.977,4.116c.015.042.134.279,1.031.864.621.4,1.49.9,2.656,1.506,2.19,1.143,5.073,2.508,8.124,3.954,3.748,1.776,7.625,3.612,10.629,5.23a36.12,36.12,0,0,1,3.72,2.23c1.083.773,1.595,1.348,1.659,1.863C183.153,193.426,184.527,201.336,184.747,202.592Z" transform="translate(-131.664 -136.727)"/>
      <path id="Trazado_443" data-name="Trazado 443" d="M442.644,94.41c-.621-.562-.855-.853-.925-1.153a1.048,1.048,0,0,1,.37-.942A4.445,4.445,0,0,0,443.1,90.3l.7.172a5.154,5.154,0,0,1-1.16,2.3c-.1.122-.23.274-.22.315a2.761,2.761,0,0,0,.708.786Z" transform="translate(-379.769 -77.651)"/>
      <path id="Trazado_444" data-name="Trazado 444" d="M438.27,40.177c1.118-5.71-3.589-2.257-2.817-11.332.362-4.251-2.09-4.047-3.043-4.388-.123-.044-1.2.2-1.171.038.306-1.623.422-2.567,1.707-3.248,4.9-2.6,10.866.079,12.531,4.16,2.057,5.042,1.163,4.811,5.522,8.785,19.3,17.6-17.523,30.467-12.728,5.985" transform="translate(-370.562 -17.375)" fill-rule="evenodd"/>
      <path id="Trazado_444_-_Contorno" data-name="Trazado 444 - Contorno" d="M445.453,53.433a9.149,9.149,0,0,1-3.565-.686,7.568,7.568,0,0,1-2.944-2.182,9.329,9.329,0,0,1-1.915-4.441,18.716,18.716,0,0,1,.247-6.657,4.914,4.914,0,0,0,.006-2.539,3.466,3.466,0,0,0-.933-1.283c-1.038-1.049-2.331-2.356-1.9-7.471a6.4,6.4,0,0,0-.1-2.043,2.4,2.4,0,0,0-.543-1.079A2.873,2.873,0,0,0,432.2,24.3c-.18-.04-.351-.078-.5-.128-.07,0-.212.023-.329.038a5.215,5.215,0,0,1-.611.059.531.531,0,0,1-.428-.16.387.387,0,0,1-.082-.319l.044-.233a7.956,7.956,0,0,1,.505-1.906,2.883,2.883,0,0,1,1.343-1.359,9.137,9.137,0,0,1,4.323-1.069,9.884,9.884,0,0,1,2.8.408,10.154,10.154,0,0,1,2.511,1.129,8.481,8.481,0,0,1,3.4,3.874c.45,1.1.762,1.962,1.013,2.652a10.792,10.792,0,0,0,1.275,2.761,21.722,21.722,0,0,0,3.143,3.243,18.117,18.117,0,0,1,5.211,7.288,9.775,9.775,0,0,1,.542,3.3,8.5,8.5,0,0,1-.573,2.945,9.2,9.2,0,0,1-1.689,2.753A10.969,10.969,0,0,1,451.6,51.65,11.9,11.9,0,0,1,445.453,53.433ZM431.716,23.451a.5.5,0,0,1,.173.027,4.208,4.208,0,0,0,.462.119,3.548,3.548,0,0,1,1.987.969,4.662,4.662,0,0,1,.831,3.669,12.077,12.077,0,0,0,.342,4.918,4.984,4.984,0,0,0,1.348,1.987,4.074,4.074,0,0,1,1.1,1.548,5.559,5.559,0,0,1,.021,2.917,18.011,18.011,0,0,0-.243,6.4,8.623,8.623,0,0,0,1.761,4.1,6.857,6.857,0,0,0,2.668,1.976,8.436,8.436,0,0,0,3.286.63,11.167,11.167,0,0,0,5.774-1.676A10.252,10.252,0,0,0,453.55,49.1a8.491,8.491,0,0,0,1.559-2.539,7.784,7.784,0,0,0,.525-2.7,9.059,9.059,0,0,0-.5-3.056,17.423,17.423,0,0,0-5.015-6.989,22.224,22.224,0,0,1-3.246-3.36,11.292,11.292,0,0,1-1.363-2.929c-.249-.684-.558-1.536-1-2.626-1.174-2.876-4.557-4.964-8.043-4.964a8.426,8.426,0,0,0-3.987.986c-1.03.546-1.194,1.247-1.449,2.605l.248-.032A4.011,4.011,0,0,1,431.716,23.451Z" transform="translate(-369.921 -16.734)" fill="rgba(0,0,0,0)"/>
      <path id="Trazado_445" data-name="Trazado 445" d="M398.984,335.811a.365.365,0,0,1-.078-.008c-1.159-.253-6.263-1-11.376-1.667-6.37-.831-11.216-1.345-13.295-1.41l.023-.718c4.678.148,20.8,2.361,24.348,3-.106-.749-.451-2.6-1.171-6.04-.692-3.3-1.3-6.011-1.373-6.223l.679-.233c.114.333.874,3.8,1.451,6.57.361,1.729.657,3.207.857,4.275.115.616.2,1.1.25,1.441.085.574.09.738-.041.884A.369.369,0,0,1,398.984,335.811Z" transform="translate(-321.587 -277.21)"/>
      <path id="Trazado_446" data-name="Trazado 446" d="M443.772,74.524a4.974,4.974,0,0,1,.025-1.412l.691.194s0-.009,0-.017a4.559,4.559,0,0,0-.013,1.108Z" transform="translate(-381.516 -62.885)"/>
      <rect id="Rectángulo_1180" data-name="Rectángulo 1180" width="45.697" height="37.624" transform="translate(6.963 19.711)" fill="#f63"/>
      <path id="Rectángulo_1180_-_Contorno" data-name="Rectángulo 1180 - Contorno" d="M-1-1H45.415V37.342H-1Zm45.7.718H-.282V36.624H44.7Z" transform="translate(7.604 20.352)" fill="rgba(0,0,0,0)"/>
      <path id="Rectángulo_1181" data-name="Rectángulo 1181" d="M-1-1H45.415V37.342H-1Zm45.7.718H-.282V36.624H44.7Z" transform="translate(7.604 20.352)"/>
      <rect id="Rectángulo_1182" data-name="Rectángulo 1182" width="18.082" height="37.624" transform="translate(6.963 19.711)" fill="#f96"/>
      <path id="Rectángulo_1182_-_Contorno" data-name="Rectángulo 1182 - Contorno" d="M-1-1H17.8V37.342H-1Zm18.082.718H-.282V36.624H17.082Z" transform="translate(7.604 20.352)" fill="rgba(0,0,0,0)"/>
      <path id="Rectángulo_1183" data-name="Rectángulo 1183" d="M-1-1H17.8V37.342H-1Zm18.082.718H-.282V36.624H17.082Z" transform="translate(7.604 20.352)"/>
      <path id="Trazado_447" data-name="Trazado 447" d="M21.347,213.065c5.2.656,5.228,5.284,3.347,5.024a4.044,4.044,0,0,1,.77,2.113c.015,1.564-.927,1.8-2.11,1.536a3.331,3.331,0,0,1,1.115,1.525,1.328,1.328,0,0,1-1.684,1.768c-5.176-1.33-5.645-12.5-1.437-11.966" transform="translate(-15.906 -183.072)" fill="#ffc9e4" fill-rule="evenodd"/>
      <path id="Trazado_447_-_Contorno" data-name="Trazado 447 - Contorno" d="M22.655,224.819a2.427,2.427,0,0,1-.6-.081,4.725,4.725,0,0,1-2.241-1.35,7.472,7.472,0,0,1-1.463-2.3,11.108,11.108,0,0,1-.766-5.449c.284-2.248,1.345-3.59,2.837-3.59a2.646,2.646,0,0,1,.33.021,6.042,6.042,0,0,1,3.75,1.695,3.931,3.931,0,0,1,.83,1.284,3.01,3.01,0,0,1,.215,1.267,1.534,1.534,0,0,1-.891,1.423,3.581,3.581,0,0,1,.528,1.821,2.09,2.09,0,0,1-.494,1.544,1.574,1.574,0,0,1-1.032.44,3.3,3.3,0,0,1,.514.97,1.939,1.939,0,0,1-.244,1.69A1.522,1.522,0,0,1,22.655,224.819Zm-2.234-12.054a1.659,1.659,0,0,0-1.391.788,4.883,4.883,0,0,0-.734,2.175,10.358,10.358,0,0,0,.716,5.081,6.761,6.761,0,0,0,1.319,2.082,4.019,4.019,0,0,0,1.9,1.152,1.712,1.712,0,0,0,.422.059.8.8,0,0,0,.69-.322,1.234,1.234,0,0,0,.142-1.046,2.806,2.806,0,0,0-.959-1.321l-.037-.03a.362.362,0,0,1-.118-.4l.084-.241h.3l.04.009a3.133,3.133,0,0,0,.669.084.963.963,0,0,0,.717-.235,1.431,1.431,0,0,0,.287-1.032,3,3,0,0,0-.633-1.768c-.031-.043-.056-.078-.076-.109a.384.384,0,0,1-.034-.4.366.366,0,0,1,.328-.2.391.391,0,0,1,.053,0,.737.737,0,0,0,.1.007c.423,0,.6-.43.626-.832a2.8,2.8,0,0,0-.848-2.01,5.551,5.551,0,0,0-3.32-1.478A1.928,1.928,0,0,0,20.421,212.765Z" transform="translate(-15.265 -182.431)" fill="rgba(0,0,0,0)"/>
      <path id="Trazado_448" data-name="Trazado 448" d="M20.421,212.047a2.646,2.646,0,0,1,.33.021,6.042,6.042,0,0,1,3.75,1.695,3.932,3.932,0,0,1,.83,1.284,3.01,3.01,0,0,1,.215,1.267,1.534,1.534,0,0,1-.891,1.423,3.582,3.582,0,0,1,.528,1.821,2.09,2.09,0,0,1-.494,1.544,1.575,1.575,0,0,1-1.032.44,3.3,3.3,0,0,1,.514.97,1.939,1.939,0,0,1-.244,1.69,1.522,1.522,0,0,1-1.271.618,2.427,2.427,0,0,1-.6-.081,4.725,4.725,0,0,1-2.241-1.35,7.472,7.472,0,0,1-1.463-2.3,11.108,11.108,0,0,1-.766-5.449C17.868,213.389,18.929,212.047,20.421,212.047ZM24.2,217.1c.423,0,.6-.43.626-.832a2.8,2.8,0,0,0-.848-2.01,5.551,5.551,0,0,0-3.32-1.478,1.928,1.928,0,0,0-.24-.016,1.659,1.659,0,0,0-1.391.788,4.883,4.883,0,0,0-.734,2.175,10.358,10.358,0,0,0,.716,5.081,6.761,6.761,0,0,0,1.319,2.082,4.019,4.019,0,0,0,1.9,1.152,1.712,1.712,0,0,0,.422.059.8.8,0,0,0,.69-.322,1.234,1.234,0,0,0,.142-1.046,2.806,2.806,0,0,0-.959-1.321l-.037-.03a.362.362,0,0,1-.118-.4l.084-.241h.3l.04.009a3.133,3.133,0,0,0,.669.084.963.963,0,0,0,.717-.235,1.431,1.431,0,0,0,.287-1.032,3,3,0,0,0-.633-1.768c-.031-.043-.056-.078-.076-.109a.384.384,0,0,1-.034-.4.366.366,0,0,1,.328-.2.391.391,0,0,1,.053,0A.737.737,0,0,0,24.2,217.1Z" transform="translate(-15.265 -182.431)"/>
      <path id="Trazado_449" data-name="Trazado 449" d="M46.256,239.86a4.794,4.794,0,0,1-2.454-1.436l-.109-.094-.036-.028.438-.569.059.046.119.1a11.182,11.182,0,0,0,1.137.9c.615.4.859.373.919.354l.214.685A.957.957,0,0,1,46.256,239.86Z" transform="translate(-37.648 -204.458)"/>
      <path id="Trazado_450" data-name="Trazado 450" d="M39.776,264.481a6.242,6.242,0,0,1-2.612-2l.6-.388a5.485,5.485,0,0,0,2.259,1.718Z" transform="translate(-32.118 -225.333)"/>
      <path id="Trazado_451" data-name="Trazado 451" d="M262.191,368.906l-.053-10.926a6.338,6.338,0,0,1-1.3-.447c-1.14-.919-1.259-4.654-2.858-5.07-3.232-.84-1.441,5.766-1.814,6.808-.062.173-9.686.281-9.686.281-1.99,0-3.883.7-1.942,2.377.107.093,2.3.5,2.614,1.23a5.834,5.834,0,0,0,2.884,1.821c1.119.383,12.146,3.918,12.155,3.925" transform="translate(-209.432 -302.809)" fill="#ffc9e4" fill-rule="evenodd"/>
      <path id="Trazado_451_-_Contorno" data-name="Trazado 451 - Contorno" d="M261.91,368.986l-.531-.4-2.247-.723c-3.389-1.089-9.061-2.913-9.856-3.185-1.262-.431-2.776-1.285-3.1-2.016-.023-.053-.148-.247-.767-.5a11.1,11.1,0,0,0-1.235-.4c-.341-.1-.432-.121-.519-.2-.787-.681-1.081-1.309-.874-1.865a1.686,1.686,0,0,1,1.206-.909,6.548,6.548,0,0,1,1.843-.233c3.2-.036,8.278-.127,9.38-.229a13.444,13.444,0,0,0-.085-1.534c-.154-1.759-.347-3.948.54-4.916a1.484,1.484,0,0,1,1.142-.484,2.464,2.464,0,0,1,.616.085c1.1.286,1.559,1.685,2,3.039a5.212,5.212,0,0,0,.99,2.1,4.809,4.809,0,0,0,.855.289c.13.036.241.067.33.1l.249.079Zm-17.821-8c.059.019.176.052.281.081,1.043.291,2.179.657,2.466,1.31A5.719,5.719,0,0,0,249.508,364c.789.27,6.457,2.092,9.844,3.181l1.662.534.172.055-.049-10.162-.055-.015a3.545,3.545,0,0,1-1.114-.422,5.37,5.37,0,0,1-1.221-2.434c-.366-1.116-.782-2.381-1.5-2.568a1.751,1.751,0,0,0-.435-.062.774.774,0,0,0-.612.251,2.938,2.938,0,0,0-.476,1.8,21.31,21.31,0,0,0,.121,2.568,6.054,6.054,0,0,1,.016,2.025.45.45,0,0,1-.407.266c-.081.011-.192.022-.339.033-.259.019-.635.038-1.118.056-.808.031-1.93.06-3.333.089-2.388.048-4.8.075-4.823.076h0c-1.4,0-2.253.34-2.378.676C243.372,360.176,243.6,360.553,244.089,360.984Z" transform="translate(-208.789 -302.168)" fill="rgba(0,0,0,0)"/>
      <path id="Trazado_452" data-name="Trazado 452" d="M261.91,368.985l-.531-.4-2.246-.723c-3.389-1.089-9.061-2.913-9.857-3.185-1.262-.431-2.776-1.285-3.1-2.016-.023-.053-.148-.247-.767-.5a11.11,11.11,0,0,0-1.235-.4c-.341-.1-.432-.121-.519-.2-.787-.681-1.081-1.309-.874-1.865a1.686,1.686,0,0,1,1.206-.909,6.548,6.548,0,0,1,1.843-.233c3.2-.036,8.278-.127,9.38-.229a13.444,13.444,0,0,0-.085-1.534c-.154-1.759-.347-3.948.54-4.916a1.484,1.484,0,0,1,1.142-.484,2.464,2.464,0,0,1,.616.085c1.1.286,1.559,1.685,2,3.039a5.213,5.213,0,0,0,.99,2.1,4.808,4.808,0,0,0,.855.289c.13.036.241.067.33.1l.249.079Zm-17.821-8c.059.019.176.052.281.081a11.7,11.7,0,0,1,1.317.431,1.979,1.979,0,0,1,1.149.879A5.719,5.719,0,0,0,249.508,364c.789.27,6.458,2.092,9.844,3.181l1.662.534.172.055-.049-10.162-.055-.015a3.544,3.544,0,0,1-1.114-.422,5.37,5.37,0,0,1-1.221-2.434c-.366-1.116-.782-2.381-1.5-2.568a1.751,1.751,0,0,0-.435-.062.774.774,0,0,0-.612.251,2.938,2.938,0,0,0-.476,1.8,21.313,21.313,0,0,0,.121,2.568,6.054,6.054,0,0,1,.016,2.025.45.45,0,0,1-.407.266c-.081.011-.192.022-.339.033-.259.019-.635.038-1.118.056-.808.031-1.93.06-3.333.089-2.388.048-4.8.075-4.823.076h0c-1.4,0-2.253.34-2.378.676C243.372,360.176,243.6,360.553,244.089,360.984Z" transform="translate(-208.789 -302.168)"/>
      <path id="Trazado_453" data-name="Trazado 453" d="M328.247,401.21l-.057-.716c.226-.018,1.685-.07,2.014-.044l-.056.716C329.9,401.146,328.508,401.189,328.247,401.21Z" transform="translate(-282.031 -344.319)"/>
      <path id="Trazado_454" data-name="Trazado 454" d="M256.746,422.111c-.4-.047-2.218-.583-4.2-1.175-.541-.162-1.052-.314-1.124-.331a.338.338,0,0,0,.1.005l-.066-.715c.081-.007.1,0,.473.108l.823.245c1.2.359,3.7,1.107,4.079,1.15Z" transform="translate(-216.086 -361.033)"/>
      <path id="Trazado_455" data-name="Trazado 455" d="M54.834,350.511l-.54-.473,7.621-8.69,8.96,8.466-.493.522-8.418-7.955Z" transform="translate(-46.819 -293.635)"/>
      <path id="Trazado_456" data-name="Trazado 456" d="M61.915,154.856l-7.621-8.69.54-.473,7.13,8.13,8.418-7.955.493.522Z" transform="translate(-46.819 -125.338)"/>
      <path id="Línea_32" data-name="Línea 32" d="M-.282,19.229H-1V0h.718Z" transform="translate(15.761 29.001)"/>
      <path id="Trazado_457" data-name="Trazado 457" d="M274.024,170.888l-10.251,1.631,1.894,14,10.251-1.631Z" transform="translate(-226.66 -146.845)" fill="#fff" fill-rule="evenodd"/>
      <path id="Trazado_457_-_Contorno" data-name="Trazado 457 - Contorno" d="M273.611,169.739l1.991,14.713L264.641,186.2l-1.991-14.713Zm1.185,14.114L273,170.564l-9.542,1.519,1.8,13.289Z" transform="translate(-225.941 -146.108)" fill="rgba(0,0,0,0)"/>
      <path id="Línea_33" data-name="Línea 33" d="M-.045.8-.159.095l6.7-1.082.114.709Z" transform="translate(39.831 26.383)"/>
      <path id="Línea_34" data-name="Línea 34" d="M-.045.8-.159.1l6.7-1.082.114.709Z" transform="translate(39.999 27.643)"/>
      <path id="Línea_35" data-name="Línea 35" d="M-.045.535-.159-.173l5.04-.814L5-.278Z" transform="translate(41.849 28.878)"/>
      <path id="Línea_36" data-name="Línea 36" d="M-.045.267-.159-.441,3.22-.987l.114.709Z" transform="translate(43.699 30.112)"/>
      <path id="Trazado_458" data-name="Trazado 458" d="M211.195,283.362l7.751,2.928-3.477,12.084-7.75-2.929Zm6.878,3.366-6.4-2.419-3.078,10.7,6.4,2.42Z" transform="translate(-178.757 -243.782)"/>
      <path id="Trazado_459" data-name="Trazado 459" d="M217.437,305.853a2.138,2.138,0,0,0-2.51-1.965c-1.152-.01-2.585-.021-3.8-2.352l.637-.332c1.015,1.948,2.061,1.957,3.168,1.966a2.816,2.816,0,0,1,3.19,2.471Z" transform="translate(-181.615 -258.927)"/>
      <path id="Trazado_460" data-name="Trazado 460" d="M213.455,312.888a2.138,2.138,0,0,0-2.51-1.965c-1.152-.009-2.585-.021-3.8-2.352l.637-.332c1.015,1.948,2.061,1.957,3.168,1.966a2.816,2.816,0,0,1,3.19,2.471Z" transform="translate(-178.193 -264.972)"/>
      <path id="Trazado_461" data-name="Trazado 461" d="M209.471,319.923a2.138,2.138,0,0,0-2.51-1.965c-1.152-.01-2.585-.021-3.8-2.352l.637-.332c1.015,1.948,2.061,1.957,3.169,1.966a2.816,2.816,0,0,1,3.19,2.471Z" transform="translate(-174.77 -271.017)"/>
      <path id="Línea_37" data-name="Línea 37" d="M1.1,2.341-.8-.17-.225-.6l1.9,2.511Z" transform="translate(3.101 21.853)"/>
      <path id="Línea_38" data-name="Línea 38" d="M1.747.763-.425-.255l.3-.65L2.052.113Z" transform="translate(0.962 25.508)"/>
      <path id="Línea_39" data-name="Línea 39" d="M-.017-.146-.059-.863,2.249-1l.042.717Z" transform="translate(0.049 29.3)"/>
      <path id="Trazado_462" data-name="Trazado 462" d="M178.424,460.3c-1.954-1.554-5.157-5.263-8.162-9.449a76.554,76.554,0,0,1-4.174-6.438,32.369,32.369,0,0,1-2.766-5.927l.684-.219a31.677,31.677,0,0,0,2.705,5.789,75.82,75.82,0,0,0,4.134,6.376c1.457,2.031,2.991,3.988,4.435,5.66a30.031,30.031,0,0,0,3.59,3.646Z" transform="translate(-140.551 -376.674)"/>
      <path id="Trazado_463" data-name="Trazado 463" d="M148.06,452.316a29.3,29.3,0,0,1-4.48-5.944,41.534,41.534,0,0,1-2.171-4.039,18.178,18.178,0,0,1-1.33-3.737l.7-.148A27.33,27.33,0,0,0,144.194,446a29.1,29.1,0,0,0,4.338,5.775Z" transform="translate(-120.584 -376.805)"/>
      <path id="Trazado_464" data-name="Trazado 464" d="M441.729,123.491a11.6,11.6,0,0,1-2.464-1.244c-.012-.007-1.068,2.621,1.052,2.852,1.381.151,1.438-1.6,1.412-1.609" transform="translate(-377.226 -105.048)" fill="#fff" fill-rule="evenodd"/>
      <path id="Trazado_464_-_Contorno" data-name="Trazado 464 - Contorno" d="M439.841,124.827h0a1.882,1.882,0,0,1-.2-.011,1.732,1.732,0,0,1-1.368-.774,2.142,2.142,0,0,1-.273-1.268,4.24,4.24,0,0,1,.158-.907c.036-.128.07-.227.093-.287.012-.033.024-.064.034-.088a.365.365,0,0,1,.343-.245h.1l.09.054a11.265,11.265,0,0,0,2.406,1.215.368.368,0,0,1,.231.356c0,.032,0,.07,0,.112a2.586,2.586,0,0,1-.041.321,2.3,2.3,0,0,1-.394.944A1.419,1.419,0,0,1,439.841,124.827Zm-1.021-2.678a2.163,2.163,0,0,0,.042,1.485,1.027,1.027,0,0,0,.854.468,1.171,1.171,0,0,0,.125.007h0a.7.7,0,0,0,.533-.215,1.534,1.534,0,0,0,.342-.805A10.62,10.62,0,0,1,438.82,122.149Z" transform="translate(-376.585 -104.407)" fill="rgba(0,0,0,0)"/>
      <path id="Trazado_465" data-name="Trazado 465" d="M438.625,121.248h.1l.089.054a11.265,11.265,0,0,0,2.406,1.215.368.368,0,0,1,.231.355c0,.032,0,.07,0,.112a2.584,2.584,0,0,1-.041.321,2.3,2.3,0,0,1-.394.945,1.449,1.449,0,0,1-1.375.566,1.73,1.73,0,0,1-1.371-.777,2.149,2.149,0,0,1-.27-1.272,4.253,4.253,0,0,1,.158-.9c.036-.127.07-.225.092-.285.012-.033.024-.063.034-.087A.365.365,0,0,1,438.625,121.248Zm2.092,1.841a10.62,10.62,0,0,1-1.9-.94,2.163,2.163,0,0,0,.042,1.485,1.027,1.027,0,0,0,.854.468,1.162,1.162,0,0,0,.125.007.7.7,0,0,0,.533-.215A1.534,1.534,0,0,0,440.716,123.089Z" transform="translate(-376.585 -104.407)"/>
      <rect id="Rectángulo_1184" data-name="Rectángulo 1184" width="10.565" height="19.518" transform="translate(37.326 0.193)" fill="#c25106"/>
      <path id="Rectángulo_1184_-_Contorno" data-name="Rectángulo 1184 - Contorno" d="M-1-1H10.283V19.236H-1ZM9.565-.282H-.282v18.8H9.565Z" transform="translate(37.967 0.834)" fill="rgba(0,0,0,0)"/>
      <path id="Rectángulo_1185" data-name="Rectángulo 1185" d="M-1-1H10.283V19.236H-1ZM9.565-.282H-.282v18.8H9.565Z" transform="translate(37.967 0.834)"/>
      <rect id="Rectángulo_1186" data-name="Rectángulo 1186" width="23.003" height="19.518" transform="translate(14.323 0.193)" fill="#f60"/>
      <path id="Rectángulo_1186_-_Contorno" data-name="Rectángulo 1186 - Contorno" d="M-1-1H22.721V19.236H-1ZM22-.282H-.282v18.8H22Z" transform="translate(14.964 0.834)" fill="rgba(0,0,0,0)"/>
      <path id="Rectángulo_1187" data-name="Rectángulo 1187" d="M-1-1H22.721V19.236H-1ZM22-.282H-.282v18.8H22Z" transform="translate(14.964 0.834)"/>
      <path id="Trazado_466" data-name="Trazado 466" d="M195.5,54.5c1.6,0,2.9,2.708,2.9,6.049s-1.3,6.049-2.9,6.049-2.9-2.708-2.9-6.049,1.3-6.049,2.9-6.049" transform="translate(-165.504 -46.832)" fill-rule="evenodd"/>
      <path id="Trazado_466_-_Contorno" data-name="Trazado 466 - Contorno" d="M194.861,66.315c-.92,0-1.763-.7-2.373-1.976a11.55,11.55,0,0,1,0-8.865c.611-1.274,1.453-1.976,2.373-1.976s1.763.7,2.373,1.976a11.549,11.549,0,0,1,0,8.865C196.624,65.613,195.781,66.315,194.861,66.315Zm0-12.1a1.351,1.351,0,0,0-.891.386,3.74,3.74,0,0,0-.835,1.182,10.846,10.846,0,0,0,0,8.244,3.74,3.74,0,0,0,.835,1.182,1.222,1.222,0,0,0,1.782,0,3.741,3.741,0,0,0,.835-1.182,10.846,10.846,0,0,0,0-8.244,3.741,3.741,0,0,0-.835-1.182A1.351,1.351,0,0,0,194.861,54.217Z" transform="translate(-164.863 -46.191)" fill="rgba(0,0,0,0)"/>
      <path id="Trazado_467" data-name="Trazado 467" d="M194.861,53.5c.92,0,1.763.7,2.373,1.976a11.549,11.549,0,0,1,0,8.865c-.611,1.274-1.453,1.976-2.373,1.976s-1.763-.7-2.373-1.976a11.55,11.55,0,0,1,0-8.865C193.1,54.2,193.941,53.5,194.861,53.5Zm0,12.1a1.351,1.351,0,0,0,.891-.386,3.741,3.741,0,0,0,.835-1.182,10.846,10.846,0,0,0,0-8.244,3.741,3.741,0,0,0-.835-1.182,1.222,1.222,0,0,0-1.782,0,3.74,3.74,0,0,0-.835,1.182,10.846,10.846,0,0,0,0,8.244,3.74,3.74,0,0,0,.835,1.182A1.351,1.351,0,0,0,194.861,65.6Z" transform="translate(-164.863 -46.191)"/>
      <path id="Trazado_468" data-name="Trazado 468" d="M145.987,54.5a6.049,6.049,0,1,0,6.049,6.049,6.049,6.049,0,0,0-6.049-6.049" transform="translate(-120.249 -46.832)" fill="#66f" fill-rule="evenodd"/>
      <path id="Trazado_468_-_Contorno" data-name="Trazado 468 - Contorno" d="M145.346,66.315a6.389,6.389,0,1,1,2.494-.5A6.368,6.368,0,0,1,145.346,66.315Zm0-12.1a5.69,5.69,0,1,0,4.023,1.667A5.653,5.653,0,0,0,145.346,54.217Z" transform="translate(-119.608 -46.191)" fill="rgba(0,0,0,0)"/>
      <path id="Trazado_469" data-name="Trazado 469" d="M145.346,53.5a6.389,6.389,0,1,1-2.494.5A6.368,6.368,0,0,1,145.346,53.5Zm0,12.1a5.69,5.69,0,1,0-4.023-1.667A5.653,5.653,0,0,0,145.346,65.6Z" transform="translate(-119.608 -46.191)"/>
      <path id="Trazado_470" data-name="Trazado 470" d="M374.268,210.528l1.653.1-1.047-29.815-.605.3Z" transform="translate(-321.608 -155.371)" fill-rule="evenodd"/>
      <path id="Trazado_470_-_Contorno" data-name="Trazado 470 - Contorno" d="M375.652,209.987l-2.384-.141V179.872l1.3-.652Zm-1.666-.818.921.055L373.986,183Z" transform="translate(-320.967 -154.351)" fill="rgba(0,0,0,0)"/>
      <path id="Trazado_471" data-name="Trazado 471" d="M375.652,209.987l-2.384-.141V179.872l1.3-.652Zm-1.666-.818.921.055L373.986,183Z" transform="translate(-320.967 -154.351)"/>
      <path id="Trazado_472" data-name="Trazado 472" d="M126.982,1043.472l-10.47-3.111c-.75,3.394-3.156,12.575-10.309,13.032-8.428.538-7.958,4.513-7.958,4.513.428.21,4.6,1.447,8.461,2.392,6.7,1.641,12.1-3.688,12.827-3.575l-.427,6.75,1.538.463c.339-1.062,6.338-20.465,6.338-20.465" transform="translate(-84.419 -893.982)" fill="#f9c" fill-rule="evenodd"/>
      <path id="Trazado_472_-_Contorno" data-name="Trazado 472 - Contorno" d="M120.239,1063.571l-2.148-.647.409-6.461c-.2.121-.451.281-.684.43-1.778,1.142-5.087,3.267-9.142,3.267a11.325,11.325,0,0,1-2.692-.324c-3.71-.909-8.03-2.172-8.534-2.419l-.176-.086-.023-.194a3.168,3.168,0,0,1,.826-2.241,6.146,6.146,0,0,1,2.463-1.678,16.3,16.3,0,0,1,5-.994c2.941-.188,5.386-1.949,7.267-5.235a22.618,22.618,0,0,0,1.8-4.147,34.52,34.52,0,0,0,.912-3.369l.083-.376,11.188,3.324-.107.347c-.06.194-6,19.416-6.339,20.468Zm-1.4-1.17.925.278c.8-2.569,5.363-17.318,6.124-19.778l-9.754-2.9c-.254,1.1-.531,2.107-.846,3.063a23.335,23.335,0,0,1-1.861,4.28,12.854,12.854,0,0,1-3.122,3.767,8.38,8.38,0,0,1-4.722,1.828,15.664,15.664,0,0,0-4.751.932,5.506,5.506,0,0,0-2.188,1.459,2.7,2.7,0,0,0-.683,1.519c.934.328,4.6,1.41,8.188,2.288a10.606,10.606,0,0,0,2.521.3c3.845,0,7.038-2.052,8.754-3.154.816-.524,1.159-.737,1.442-.737a.518.518,0,0,1,.08.006l.324.05Z" transform="translate(-83.778 -893.172)" fill="rgba(0,0,0,0)"/>
      <path id="Trazado_473" data-name="Trazado 473" d="M115.6,1039.1l11.188,3.324-.107.347c-.06.194-6,19.416-6.339,20.468l-.107.336-2.148-.647.409-6.461c-.2.121-.451.28-.683.429-1.778,1.142-5.087,3.268-9.142,3.268a11.331,11.331,0,0,1-2.692-.324c-3.71-.909-8.03-2.172-8.534-2.419l-.176-.086-.023-.194a3.168,3.168,0,0,1,.826-2.241,6.146,6.146,0,0,1,2.463-1.678,16.3,16.3,0,0,1,5-.994c2.941-.188,5.386-1.949,7.267-5.235a22.617,22.617,0,0,0,1.8-4.147,34.516,34.516,0,0,0,.912-3.369Zm10.287,3.805-9.754-2.9c-.254,1.1-.531,2.107-.846,3.063a23.334,23.334,0,0,1-1.861,4.28,12.854,12.854,0,0,1-3.122,3.767,8.38,8.38,0,0,1-4.722,1.828c-2.384.152-5.527.695-6.96,2.415a2.721,2.721,0,0,0-.661,1.5c.936.329,4.6,1.41,8.186,2.288a10.606,10.606,0,0,0,2.521.3c3.845,0,7.039-2.052,8.754-3.154.816-.524,1.159-.737,1.441-.737a.52.52,0,0,1,.08.006l.324.05-.43,6.793.925.278C120.571,1060.11,125.131,1045.362,125.892,1042.9Z" transform="translate(-83.778 -893.172)"/>
      <path id="Trazado_474" data-name="Trazado 474" d="M616.785,1024.6l-9.444,6.181c1.867,2.511,6.665,10.312,4.567,15.422a5.219,5.219,0,0,1-1.587.764,5.43,5.43,0,0,0-3.622,4.564l9.287-.284c5.625-3.986,5.135-11.558,5.7-12.035l4.822,4.744,1.357-.859c-.581-.952-11.078-18.5-11.078-18.5" transform="translate(-521.336 -880.436)" fill="#f9c" fill-rule="evenodd"/>
      <path id="Trazado_474_-_Contorno" data-name="Trazado 474 - Contorno" d="M605.657,1051l.015-.385a5.32,5.32,0,0,1,.536-1.916,5.693,5.693,0,0,1,1.154-1.606,6.344,6.344,0,0,1,2.161-1.362l.045-.017a9.942,9.942,0,0,0,1.358-.6,8.036,8.036,0,0,0,.391-3.985,17.71,17.71,0,0,0-1.207-4.383,32.181,32.181,0,0,0-3.725-6.656l-.227-.306,10.076-6.594.192.321c.1.175,10.5,17.555,11.077,18.495l.184.3-1.9,1.2-4.615-4.54c-.041.232-.084.524-.123.8-.362,2.514-1.115,7.746-5.526,10.872l-.088.063-.108,0Zm1.529-21.028a33.171,33.171,0,0,1,3.59,6.509,18.421,18.421,0,0,1,1.254,4.564,8.7,8.7,0,0,1-.458,4.393c-.114.278-.495.461-1.744.945l-.045.017a5.639,5.639,0,0,0-1.9,1.192,4.979,4.979,0,0,0-1.01,1.391,5.075,5.075,0,0,0-.427,1.275l8.756-.268a10.711,10.711,0,0,0,2.426-2.447,12.94,12.94,0,0,0,1.522-2.852,22.283,22.283,0,0,0,1.2-5.026c.153-1.06.217-1.436.443-1.628l.25-.212,4.852,4.774.819-.519c-1.392-2.312-9.36-15.629-10.705-17.877Z" transform="translate(-520.668 -879.534)" fill="rgba(0,0,0,0)"/>
      <path id="Trazado_475" data-name="Trazado 475" d="M616.233,1023.189l.192.321c.1.175,10.5,17.555,11.077,18.495l.184.3-1.9,1.2-4.615-4.54c-.042.232-.084.524-.123.8-.362,2.514-1.115,7.746-5.526,10.872l-.088.063-.108,0-9.672.3.015-.385a5.317,5.317,0,0,1,.536-1.916,5.693,5.693,0,0,1,1.154-1.606,6.344,6.344,0,0,1,2.161-1.362l.045-.017a9.947,9.947,0,0,0,1.359-.6,8.037,8.037,0,0,0,.39-3.985,17.707,17.707,0,0,0-1.207-4.383,32.175,32.175,0,0,0-3.725-6.656l-.227-.306Zm10.473,18.887c-1.392-2.312-9.36-15.629-10.705-17.877l-8.816,5.769a33.171,33.171,0,0,1,3.59,6.509,18.415,18.415,0,0,1,1.254,4.564,8.7,8.7,0,0,1-.458,4.393c-.114.278-.495.461-1.744.945l-.045.017a5.639,5.639,0,0,0-1.9,1.192,4.982,4.982,0,0,0-1.01,1.391,5.075,5.075,0,0,0-.427,1.275l8.756-.268a10.708,10.708,0,0,0,2.426-2.447,12.935,12.935,0,0,0,1.522-2.852,22.283,22.283,0,0,0,1.2-5.026c.153-1.06.217-1.436.443-1.628l.25-.212,4.852,4.774Z" transform="translate(-520.668 -879.534)"/>
      <path id="Trazado_476" data-name="Trazado 476" d="M632.322,1173.749l-.3-.651c.355-.165,2.57-.928,4.366-1.539l.108-.037.117.336.24.272c-.054.048-.067.052-.233.108C633.1,1173.436,632.44,1173.693,632.322,1173.749Z" transform="translate(-543.185 -1006.895)"/>
      <path id="Trazado_477" data-name="Trazado 477" d="M554.2,415.7a.382.382,0,0,1-.174-.1,11.924,11.924,0,0,0-1.506-1.12,4.476,4.476,0,0,0-2.467-.852l-.051-.716a5.07,5.07,0,0,1,2.9.959,12.66,12.66,0,0,1,1.6,1.19l.014.012a.355.355,0,0,0-.148-.074Z" transform="translate(-472.631 -355.031)"/>
      <path id="Trazado_478" data-name="Trazado 478" d="M508.381,317.736a8.453,8.453,0,0,1-.936-.055,10.965,10.965,0,0,1-2.631-.631l-.1-.022.157-.7.152.034.026.01c1.316.524,3.722.944,4.816.371l.333.636A4.03,4.03,0,0,1,508.381,317.736Z" transform="translate(-433.752 -272.034)"/>
      <path id="Línea_40" data-name="Línea 40" d="M-.277,2.876l-.706-.132L-.437-.183l.706.132Z" transform="translate(80.635 77.884)"/>
      <path id="Línea_41" data-name="Línea 41" d="M-.277,2.876l-.706-.132L-.437-.183l.706.132Z" transform="translate(78.786 77.587)"/>
      <path id="Línea_42" data-name="Línea 42" d="M-.277,2.876l-.706-.132L-.436-.184l.706.132Z" transform="translate(76.938 77.291)"/>
      <path id="Línea_43" data-name="Línea 43" d="M-.277,2.876l-.706-.132L-.437-.183l.706.132Z" transform="translate(75.089 76.994)"/>
      <path id="Línea_44" data-name="Línea 44" d="M-.277,2.876l-.706-.132L-.436-.184l.706.132Z" transform="translate(73.24 76.698)"/>
      <path id="Línea_45" data-name="Línea 45" d="M-.277,2.876l-.706-.132L-.437-.183l.706.132Z" transform="translate(71.392 76.401)"/>
      <path id="Línea_46" data-name="Línea 46" d="M-.277,2.876l-.706-.132L-.436-.184l.706.132Z" transform="translate(69.543 76.105)"/>
      <path id="Línea_47" data-name="Línea 47" d="M-.277,2.876l-.706-.132L-.436-.184l.706.132Z" transform="translate(67.694 75.809)"/>
      <path id="Línea_48" data-name="Línea 48" d="M-.277,2.876l-.706-.132L-.437-.183l.706.132Z" transform="translate(65.846 75.512)"/>
      <path id="Línea_49" data-name="Línea 49" d="M-.277,2.876l-.706-.132L-.436-.184l.706.132Z" transform="translate(63.997 75.216)"/>
      <path id="Línea_50" data-name="Línea 50" d="M-.277,2.876l-.706-.132L-.436-.184l.706.132Z" transform="translate(62.148 74.92)"/>
      <path id="Línea_51" data-name="Línea 51" d="M-.277,2.876l-.706-.132L-.437-.183l.706.132Z" transform="translate(60.3 74.623)"/>
      <path id="Línea_52" data-name="Línea 52" d="M-.277,2.876l-.706-.132L-.436-.184l.706.132Z" transform="translate(58.451 74.327)"/>
      <path id="Línea_53" data-name="Línea 53" d="M-.277,2.876l-.706-.132L-.436-.184l.706.132Z" transform="translate(56.602 74.03)"/>
      <path id="Línea_54" data-name="Línea 54" d="M-.277,2.876l-.706-.132L-.437-.183l.706.132Z" transform="translate(54.754 73.734)"/>
      <path id="Línea_55" data-name="Línea 55" d="M-.277,2.876l-.706-.132L-.437-.183l.706.132Z" transform="translate(52.905 73.438)"/>
      <path id="Trazado_479" data-name="Trazado 479" d="M437.48,1051.905l2.148,6.231c-1.441.449-5.447,1.984-5.385,2.779.109,1.412-1.081,3.078-2.352,2.528-.3-.128,0,.428-.843.588a1.7,1.7,0,0,1-1.615-.572c-1.739-2.081.262-5.6,2.27-6.894,1.561-1.009,3.868-2.116,5.778-4.66" transform="translate(-368.441 -903.902)" fill="#f96" fill-rule="evenodd"/>
      <path id="Trazado_479_-_Contorno" data-name="Trazado 479 - Contorno" d="M430.087,1063.069a2.04,2.04,0,0,1-1.57-.731,3.44,3.44,0,0,1-.7-2.8,6.592,6.592,0,0,1,1.107-2.663,7.134,7.134,0,0,1,1.94-1.958c.276-.179.573-.359.887-.549a15.607,15.607,0,0,0,4.8-4.025l.406-.541,2.489,7.22-.353.11a30.642,30.642,0,0,0-3.061,1.174c-1.788.8-2.04,1.193-2.071,1.257a3.257,3.257,0,0,1-.826,2.33,1.91,1.91,0,0,1-1.382.67,1.582,1.582,0,0,1-.429-.06,1.135,1.135,0,0,1-.851.534A2.085,2.085,0,0,1,430.087,1063.069Zm6.627-11.778a16.906,16.906,0,0,1-4.588,3.686c-.31.188-.6.365-.87.538a6.4,6.4,0,0,0-1.736,1.758,5.874,5.874,0,0,0-.991,2.367,2.708,2.708,0,0,0,.537,2.237,1.341,1.341,0,0,0,1.019.473,1.368,1.368,0,0,0,.253-.024c.315-.059.352-.154.4-.263a.724.724,0,0,1,.086-.168.434.434,0,0,1,.355-.183.538.538,0,0,1,.217.049.908.908,0,0,0,.361.078,1.219,1.219,0,0,0,.855-.44,2.539,2.539,0,0,0,.635-1.809c-.026-.337.212-.655.77-1.031a11.476,11.476,0,0,1,1.567-.841c1-.458,2.15-.9,2.947-1.162Z" transform="translate(-367.8 -902.552)" fill="rgba(0,0,0,0)"/>
      <path id="Trazado_480" data-name="Trazado 480" d="M436.959,1049.8l2.489,7.22-.353.11a30.642,30.642,0,0,0-3.061,1.174c-1.788.8-2.04,1.193-2.071,1.257a3.257,3.257,0,0,1-.826,2.33,1.91,1.91,0,0,1-1.382.67,1.582,1.582,0,0,1-.429-.06,1.135,1.135,0,0,1-.851.534,2.085,2.085,0,0,1-.387.036,2.04,2.04,0,0,1-1.57-.731,3.44,3.44,0,0,1-.7-2.8,6.592,6.592,0,0,1,1.107-2.663,7.134,7.134,0,0,1,1.94-1.958c.276-.179.573-.359.887-.549a15.607,15.607,0,0,0,4.8-4.025Zm1.57,6.759-1.815-5.265a16.906,16.906,0,0,1-4.588,3.686c-.31.188-.6.365-.87.538a6.4,6.4,0,0,0-1.736,1.758,5.874,5.874,0,0,0-.991,2.367,2.708,2.708,0,0,0,.537,2.237,1.341,1.341,0,0,0,1.019.473,1.368,1.368,0,0,0,.253-.024c.315-.059.352-.154.4-.263a.722.722,0,0,1,.086-.168.434.434,0,0,1,.355-.183.538.538,0,0,1,.217.049.907.907,0,0,0,.361.078,1.219,1.219,0,0,0,.855-.44,2.54,2.54,0,0,0,.635-1.809c-.026-.337.212-.655.77-1.031a11.476,11.476,0,0,1,1.567-.841C436.579,1057.261,437.731,1056.824,438.529,1056.557Z" transform="translate(-367.8 -902.552)"/>
      <path id="Trazado_481" data-name="Trazado 481" d="M465.168,1103.893c-.026-.187-.068-.383-.109-.573a2.756,2.756,0,0,1-.045-1.548l.67.257a2.275,2.275,0,0,0,.076,1.141c.044.2.089.412.118.625Z" transform="translate(-399.722 -946.83)"/>
      <path id="Trazado_482" data-name="Trazado 482" d="M446.753,1123.22a.879.879,0,0,1-.48-.145,3.165,3.165,0,0,1-.928-2.231h.718a2.612,2.612,0,0,0,.6,1.627.165.165,0,0,0,.184.008l.3.653A.94.94,0,0,1,446.753,1123.22Z" transform="translate(-382.903 -963.141)"/>
      <path id="Trazado_483" data-name="Trazado 483" d="M684.208,923.913c6.6,3.96,13.106-.7,15.079-7.258.944-3.138,3.879-1.632,2.577,1.614-2.385,5.945-6.731,10.659-13.836,9.892a5.966,5.966,0,0,1-4.1-2.486c-.486-.641-.4-.9-.4-1.71.258,0,.529-.139.675-.052" transform="translate(-587.354 -786.2)" fill="#f96" fill-rule="evenodd"/>
      <path id="Trazado_483_-_Contorno" data-name="Trazado 483 - Contorno" d="M688.878,927.961a14.325,14.325,0,0,1-1.53-.084,5.746,5.746,0,0,1-2.644-.982,7.341,7.341,0,0,1-1.7-1.643,2.1,2.1,0,0,1-.476-1.619c0-.1,0-.2,0-.308v-.359h.359a1.25,1.25,0,0,0,.236-.036,1.5,1.5,0,0,1,.314-.044.59.59,0,0,1,.309.08,9.219,9.219,0,0,0,4.773,1.408,8.353,8.353,0,0,0,3.206-.648,9.995,9.995,0,0,0,2.815-1.788,12.319,12.319,0,0,0,2.251-2.69,13.809,13.809,0,0,0,1.506-3.337,3.41,3.41,0,0,1,.811-1.466,1.631,1.631,0,0,1,1.148-.515,1.516,1.516,0,0,1,1.251.711,2.525,2.525,0,0,1,.4,1.334,4.424,4.424,0,0,1-.352,1.786,18.835,18.835,0,0,1-4.761,7.191A11.6,11.6,0,0,1,688.878,927.961Zm-5.631-4.324s0,0,0,.007a1.42,1.42,0,0,0,.33,1.173,6.628,6.628,0,0,0,1.531,1.484,5.036,5.036,0,0,0,2.317.862,13.618,13.618,0,0,0,1.453.08c6.7,0,10.227-5.3,12.011-9.749a2.724,2.724,0,0,0,.027-2.451.8.8,0,0,0-.656-.395c-.4,0-.946.386-1.271,1.47a14.526,14.526,0,0,1-1.585,3.511,13.034,13.034,0,0,1-2.383,2.846A10.709,10.709,0,0,1,692,924.388a9.066,9.066,0,0,1-3.48.7,9.908,9.908,0,0,1-5.1-1.487c-.037,0-.092.016-.143.027Z" transform="translate(-586.714 -785.558)" fill="rgba(0,0,0,0)"/>
      <path id="Trazado_484" data-name="Trazado 484" d="M688.878,927.961a14.325,14.325,0,0,1-1.53-.084,5.746,5.746,0,0,1-2.644-.982,7.341,7.341,0,0,1-1.7-1.643,2.1,2.1,0,0,1-.476-1.619c0-.1,0-.2,0-.308v-.359h.359a1.25,1.25,0,0,0,.236-.036,1.5,1.5,0,0,1,.314-.044.59.59,0,0,1,.309.08,9.219,9.219,0,0,0,4.773,1.408,8.353,8.353,0,0,0,3.206-.648,9.995,9.995,0,0,0,2.815-1.788,12.318,12.318,0,0,0,2.251-2.69,13.806,13.806,0,0,0,1.506-3.337,3.41,3.41,0,0,1,.811-1.466,1.631,1.631,0,0,1,1.148-.515,1.516,1.516,0,0,1,1.251.711,2.525,2.525,0,0,1,.4,1.334,4.424,4.424,0,0,1-.352,1.786,18.835,18.835,0,0,1-4.761,7.191A11.6,11.6,0,0,1,688.878,927.961Zm-5.631-4.324s0,0,0,.007a1.42,1.42,0,0,0,.33,1.173,6.628,6.628,0,0,0,1.531,1.484,5.036,5.036,0,0,0,2.317.862,13.618,13.618,0,0,0,1.453.08c6.7,0,10.227-5.3,12.011-9.749a2.724,2.724,0,0,0,.027-2.451.8.8,0,0,0-.656-.395c-.4,0-.946.386-1.271,1.47a14.526,14.526,0,0,1-1.585,3.511,13.034,13.034,0,0,1-2.383,2.846A10.709,10.709,0,0,1,692,924.388a9.066,9.066,0,0,1-3.48.7,9.908,9.908,0,0,1-5.1-1.487c-.037,0-.092.016-.143.027Z" transform="translate(-586.714 -785.558)"/>
      <path id="Trazado_485" data-name="Trazado 485" d="M662.9,1038.818l4.437-17.947a9.634,9.634,0,0,1,1.795,5.688c.048,3.816-1.012,4.465-.9,4.815.377,1.181,4.522,13.222,4.522,13.222-.131.887-1.468,3.182-2.469,3.382-.543.109-4.853.035-5.175.035s-.213-1.349.214-1.924a15.01,15.01,0,0,1,1.894-1.8c-.314-.572-4.087-5.351-4.317-5.468" transform="translate(-569.626 -877.235)" fill="#f96" fill-rule="evenodd"/>
      <path id="Trazado_485_-_Contorno" data-name="Trazado 485 - Contorno" d="M667.395,1046.843c-.986,0-2.055-.013-2.63-.02l-.405,0a.494.494,0,0,1-.446-.293,2.756,2.756,0,0,1,.372-2.2,12.908,12.908,0,0,1,1.706-1.659c-.323-.458-1.055-1.418-1.919-2.514-1.169-1.484-1.948-2.418-2.116-2.579l-.222-.113,4.7-19.008.452.668a10.734,10.734,0,0,1,1.434,2.925,10.437,10.437,0,0,1,.422,2.959,9.009,9.009,0,0,1-.809,4.557c-.034.07-.076.153-.093.2.456,1.406,4.463,13.047,4.5,13.166l.029.083-.013.087a6.156,6.156,0,0,1-.965,2.1c-.786,1.172-1.406,1.509-1.788,1.585A15.889,15.889,0,0,1,667.395,1046.843Zm-2.86-.741.239,0c.573.007,1.64.02,2.621.02a17.689,17.689,0,0,0,2.069-.053,2.991,2.991,0,0,0,1.333-1.281,5.966,5.966,0,0,0,.836-1.721c-.408-1.187-4.133-12.009-4.494-13.14a.9.9,0,0,1,.149-.688,8.361,8.361,0,0,0,.735-4.231,9.745,9.745,0,0,0-.392-2.761,9.392,9.392,0,0,0-.9-2.027l-4.185,16.928c.117.127.3.34.606.709.38.46.879,1.08,1.4,1.746.91,1.153,2.038,2.618,2.223,2.955l.144.263-.233.189a14.789,14.789,0,0,0-1.832,1.737,2.028,2.028,0,0,0-.3.811A2.058,2.058,0,0,0,664.535,1046.1Z" transform="translate(-568.882 -875.682)" fill="rgba(0,0,0,0)"/>
      <path id="Trazado_486" data-name="Trazado 486" d="M667.395,1046.843c-.985,0-2.055-.013-2.63-.02l-.405,0a.494.494,0,0,1-.446-.293,2.756,2.756,0,0,1,.372-2.2,12.908,12.908,0,0,1,1.706-1.659c-.323-.458-1.055-1.418-1.919-2.514-1.169-1.484-1.948-2.418-2.116-2.579l-.222-.113,4.7-19.008.452.668a10.734,10.734,0,0,1,1.434,2.925,10.437,10.437,0,0,1,.422,2.959,9.009,9.009,0,0,1-.809,4.557c-.034.07-.076.153-.093.2.456,1.406,4.463,13.047,4.5,13.166l.029.083-.013.087a6.156,6.156,0,0,1-.965,2.1,3.545,3.545,0,0,1-1.788,1.585A15.889,15.889,0,0,1,667.395,1046.843Zm-2.86-.741.239,0c.573.007,1.64.02,2.621.02a17.687,17.687,0,0,0,2.069-.053,2.991,2.991,0,0,0,1.333-1.281,5.964,5.964,0,0,0,.836-1.721c-.408-1.187-4.133-12.009-4.493-13.14a.9.9,0,0,1,.149-.688,8.36,8.36,0,0,0,.735-4.231,9.745,9.745,0,0,0-.392-2.761,9.392,9.392,0,0,0-.9-2.027l-4.185,16.928c.117.127.3.34.606.709.38.46.879,1.08,1.4,1.746.91,1.153,2.038,2.618,2.223,2.955l.144.263-.233.189a14.789,14.789,0,0,0-1.832,1.737,2.028,2.028,0,0,0-.3.811A2.058,2.058,0,0,0,664.535,1046.1Z" transform="translate(-568.882 -875.682)"/>
      <path id="Trazado_487" data-name="Trazado 487" d="M445.492,897.8a5.613,5.613,0,0,1,1.638-2.349c.784-.489,1.564-.289,2.278-.589.568-.239.842-.758,1.114-1.542.313-.9.537-2.214,2.07-.611.887.927,1.217,3.225,1.621,3.78.654.9,1.367,1.272,1.732,1.858a10.756,10.756,0,0,1,.711,1.965c1.99,5.49,9.976,2.364,14.587,2.676,5.1.345,9.886,1.987,10.432,8.813a14.806,14.806,0,0,1-.69,4.391c-2.329,6.953-7.925,21.094-7.964,21.108-.125.047-5.655.126-5.871.128-.336,0-.456-1.1.232-2.561.88-1.861,2.225-1.473,2.242-1.659,0,0-.657-2.384-1.189-4.9a37.091,37.091,0,0,1-5.342.063,4.349,4.349,0,0,1-2.833-1.26l.734,6.908c.115,1.759-.637,3.674-2.535,3.766-.676.032-3.168-.2-3.562-.055a6.055,6.055,0,0,1-.668.008c-.3-1.07-.826-1.842-.117-3.04.459-.775.864-.775,1.017-1.06.239-.446-.07-1.33-.89-3.427-2.41-6.162-5.55-15.983-7.734-21.779-.824-1.226-3.308-1.718-4.157-4.36a6.083,6.083,0,0,1,.175-4.792c.566-.706,2.29.323,2.968-1.479" transform="translate(-379.784 -766.458)" fill="#f96" fill-rule="evenodd"/>
      <path id="Trazado_487_-_Contorno" data-name="Trazado 487 - Contorno" d="M457.661,937.506c-.3,0-.758-.023-1.244-.048-.559-.029-1.136-.058-1.563-.058a2.256,2.256,0,0,0-.477.027,1.085,1.085,0,0,1-.378.034c-.1,0-.209,0-.3,0l-.116,0h-.272l-.074-.262c-.055-.195-.119-.384-.181-.567a2.9,2.9,0,0,1,.1-2.754,2.638,2.638,0,0,1,.842-.908.656.656,0,0,0,.167-.139c.182-.34-.347-1.694-.908-3.127-1.334-3.411-2.884-7.921-4.383-12.281-1.216-3.536-2.364-6.877-3.336-9.46a4.988,4.988,0,0,0-1.275-1.052,6.322,6.322,0,0,1-2.9-3.365A8.077,8.077,0,0,1,441,900.4a3.956,3.956,0,0,1,.607-1.987,1.609,1.609,0,0,1,1.3-.438c.685-.029,1.277-.053,1.611-.943l.008-.02a5.661,5.661,0,0,1,1.776-2.507,3.352,3.352,0,0,1,1.485-.438,3.1,3.1,0,0,0,.843-.177c.392-.165.631-.513.914-1.328.027-.077.053-.157.08-.242a4.181,4.181,0,0,1,.337-.834.942.942,0,0,1,.824-.532,2.191,2.191,0,0,1,1.428.866,7.148,7.148,0,0,1,1.236,2.689,5.621,5.621,0,0,0,.416,1.128,6.689,6.689,0,0,0,.966,1.028,4.225,4.225,0,0,1,.781.852,5.131,5.131,0,0,1,.586,1.536,2.556,2.556,0,0,0,.13.437l.017.029.011.031a4.079,4.079,0,0,0,2.151,2.426,8.1,8.1,0,0,0,3.472.62,37.162,37.162,0,0,0,4.161-.328,33.947,33.947,0,0,1,3.753-.3c.259,0,.507.008.736.023a20.105,20.105,0,0,1,3.77.574,10.507,10.507,0,0,1,3.331,1.465,7.832,7.832,0,0,1,2.479,2.754,10.937,10.937,0,0,1,1.186,4.35,15.209,15.209,0,0,1-.708,4.533c-1.228,3.667-3.313,9.186-4.846,13.171-.993,2.583-1.8,4.635-2.191,5.629-.269.682-.5,1.27-.676,1.7-.081.2-.144.357-.189.466l-.053.126a.385.385,0,0,1-.224.236,21.122,21.122,0,0,1-3.02.1c-1.386.025-2.846.046-2.972.048h-.005a.545.545,0,0,1-.46-.271,3.474,3.474,0,0,1,.369-2.8,3.194,3.194,0,0,1,1.244-1.455,2.522,2.522,0,0,1,.882-.307c-.192-.721-.643-2.45-1.038-4.281l-.371.026c-.667.049-1.782.13-2.889.13a14.51,14.51,0,0,1-1.838-.1,5.964,5.964,0,0,1-2.281-.75l-.056-.034.643,6.051a5.406,5.406,0,0,1-.162,1.736,3.65,3.65,0,0,1-.777,1.5,2.71,2.71,0,0,1-1.936.909C457.786,937.505,457.729,937.506,457.661,937.506Zm-2.807-.824c.445,0,1.032.03,1.6.059.476.024.926.047,1.207.047.056,0,.1,0,.141,0a1.981,1.981,0,0,0,1.435-.67,3.775,3.775,0,0,0,.759-2.707l-.734-6.9.709-.11a.309.309,0,0,0-.049-.117,2.555,2.555,0,0,0,.669.5,5.35,5.35,0,0,0,1.908.6,13.78,13.78,0,0,0,1.745.094c1.081,0,2.18-.081,2.837-.129.325-.024.54-.04.654-.04a.714.714,0,0,1,.087,0,.368.368,0,0,1,.323.288c.524,2.476,1.178,4.856,1.184,4.879l.017.063-.006.065a.412.412,0,0,1-.324.361,1.568,1.568,0,0,1-.212.037,2.032,2.032,0,0,0-1.739,1.381,3.49,3.49,0,0,0-.437,2.047c.814-.011,4.593-.069,5.505-.109.683-1.676,5.679-14.347,7.868-20.881a14.594,14.594,0,0,0,.673-4.248,10.23,10.23,0,0,0-1.1-4.065,7.121,7.121,0,0,0-2.254-2.5,9.8,9.8,0,0,0-3.107-1.362,19.4,19.4,0,0,0-3.636-.552c-.213-.014-.444-.022-.687-.022a33.461,33.461,0,0,0-3.671.3,37.663,37.663,0,0,1-4.244.332,8.782,8.782,0,0,1-3.78-.69,4.777,4.777,0,0,1-1.488-1.087,5.154,5.154,0,0,1-1.02-1.716,2.756,2.756,0,0,1-.19-.6,4.465,4.465,0,0,0-.5-1.329,3.676,3.676,0,0,0-.656-.7,7.288,7.288,0,0,1-1.062-1.135,5.223,5.223,0,0,1-.522-1.34,6.737,6.737,0,0,0-1.069-2.4c-.556-.581-.821-.644-.909-.644-.2,0-.359.5-.478.87-.027.084-.056.171-.085.255a2.548,2.548,0,0,1-1.314,1.755,3.694,3.694,0,0,1-1.037.229,2.7,2.7,0,0,0-1.19.334,5.2,5.2,0,0,0-1.5,2.181,1.967,1.967,0,0,1-1.049,1.185,3.226,3.226,0,0,1-1.2.211c-.352.015-.656.027-.771.17a3.374,3.374,0,0,0-.452,1.6,7.351,7.351,0,0,0,.339,2.858,5.649,5.649,0,0,0,2.62,2.989,5.292,5.292,0,0,1,1.493,1.28l.023.035.015.039c.979,2.6,2.135,5.961,3.359,9.521,1.5,4.354,3.045,8.856,4.373,12.253.9,2.293,1.182,3.147.872,3.727a1.119,1.119,0,0,1-.388.388,1.922,1.922,0,0,0-.636.686,2.206,2.206,0,0,0-.039,2.157c.038.112.077.227.115.345H454c.1,0,.148,0,.169,0A2.456,2.456,0,0,1,454.855,936.682Z" transform="translate(-379.142 -765.817)" fill="rgba(0,0,0,0)"/>
      <path id="Trazado_488" data-name="Trazado 488" d="M727.2,908.962a14.833,14.833,0,0,0-4.473-1.522,29.846,29.846,0,0,0-3.524-.43,3,3,0,0,1-.768-.094l.274-.664a.226.226,0,0,0-.029-.01c.061.014.322.033.575.051a30.464,30.464,0,0,1,3.607.44,15.537,15.537,0,0,1,4.69,1.6Z" transform="translate(-617.436 -778.943)" fill="#1a1a1a"/>
      <path id="Trazado_489" data-name="Trazado 489" d="M746.149,925.458a.42.42,0,0,1-.16-.032c-.117-.048-.235-.1-.36-.152a9.264,9.264,0,0,0-3.262-.863l.048-.716a10.019,10.019,0,0,1,3.5.919c.123.052.239.1.349.147a.3.3,0,0,0-.085-.02v.716h-.026Z" transform="translate(-637.93 -793.949)" fill="#1a1a1a"/>
      <path id="Trazado_490" data-name="Trazado 490" d="M453.483,937.064c-.27,0-.5-.24-.678-.7a3.544,3.544,0,0,1-.143-1.886,3.872,3.872,0,0,1,1.277-2.18,7.922,7.922,0,0,0-.309-1.271c-.209-.707-.517-1.65-.942-2.88-.789-2.287-1.852-5.2-2.88-8.013-1.63-4.462-3.17-8.677-3.565-10.248-.569-1.851-.962-2.806-1.65-3.22-2.087-1.258-3.259-2.514-3.686-3.953a8.007,8.007,0,0,1,.188-4.035,1.422,1.422,0,0,1,.665-1.009,2.391,2.391,0,0,1,.943-.233,2.32,2.32,0,0,0,1.066-.294,2.668,2.668,0,0,0,.953-1.466,3.31,3.31,0,0,1,.886-1.293,3.6,3.6,0,0,1,2.717-.869c.159.01.334-.2.453-.378a7.945,7.945,0,0,0,.574-1.154c.335-.769.625-1.433,1.11-1.585a.7.7,0,0,1,.589.083,4.23,4.23,0,0,1,1.323,1.36,8.785,8.785,0,0,1,1.1,2.89,1.9,1.9,0,0,0,.773,1.025,5.143,5.143,0,0,1,1.927,3.516l-.708.116a4.414,4.414,0,0,0-1.689-3.09,2.531,2.531,0,0,1-1-1.417,8.081,8.081,0,0,0-1.007-2.654,3.575,3.575,0,0,0-1.093-1.135l-.009,0a.9.9,0,0,0-.25.322,9.393,9.393,0,0,0-.407.86,8.425,8.425,0,0,1-.635,1.265,1.924,1.924,0,0,1-.443.49.974.974,0,0,1-.653.206,2.861,2.861,0,0,0-2.189.685,2.577,2.577,0,0,0-.687.988,3.331,3.331,0,0,1-1.244,1.841,2.974,2.974,0,0,1-1.379.405c-.586.062-.853.091-.983.682a7.369,7.369,0,0,0-.2,3.677c.373,1.257,1.444,2.382,3.369,3.542a3.007,3.007,0,0,1,1.109,1.3,15.225,15.225,0,0,1,.859,2.333l.005.018c.382,1.527,1.919,5.733,3.545,10.185,1.083,2.965,2.2,6.031,3,8.375.434,1.27.738,2.218.929,2.9a9,9,0,0,1,.214.9.721.721,0,0,1-.131.706,3.077,3.077,0,0,0-1.183,2.342,2.388,2.388,0,0,0,.272,1.234c.207,0,.62-.008,1.118-.013,1-.01,2.674-.028,2.856-.047a2.337,2.337,0,0,0,1.644-1.02,3.406,3.406,0,0,0,.539-1.188,2.573,2.573,0,0,0,.038-1.123l0-.02,0-.02L458.307,919.1l.714-.076,1.467,13.8a3.269,3.269,0,0,1-.045,1.425,4.13,4.13,0,0,1-.654,1.44A3.051,3.051,0,0,1,457.635,937c-.2.021-1.389.035-2.923.051-.589.006-1.1.011-1.214.015Z" transform="translate(-378.921 -765.314)"/>
      <path id="Trazado_491" data-name="Trazado 491" d="M556.245,988.612a.544.544,0,0,1-.458-.268,3.462,3.462,0,0,1,.367-2.805,3.194,3.194,0,0,1,1.244-1.455,2.519,2.519,0,0,1,.877-.306c-.187-.673-.6-2.233-1-4.134a36.47,36.47,0,0,1-.964-8.445,29.779,29.779,0,0,1,.388-3.721,11.854,11.854,0,0,1,1.283-4.015l.613.373A11.353,11.353,0,0,0,557.4,967.6a29.029,29.029,0,0,0-.378,3.625,36.313,36.313,0,0,0,.95,8.271c.529,2.514,1.087,4.418,1.092,4.437l.019.066-.006.068a.412.412,0,0,1-.324.361,1.577,1.577,0,0,1-.212.037,2.032,2.032,0,0,0-1.739,1.382,3.49,3.49,0,0,0-.437,2.047c.808-.011,4.593-.069,5.505-.109.682-1.675,5.677-14.342,7.868-20.881a14.6,14.6,0,0,0,.673-4.248,10.229,10.229,0,0,0-1.1-4.065,7.121,7.121,0,0,0-2.254-2.5,9.8,9.8,0,0,0-3.107-1.362,19.4,19.4,0,0,0-3.636-.552,25.678,25.678,0,0,0-4.358.276,23.438,23.438,0,0,1-6.2.189,6.024,6.024,0,0,1-2.6-1.005,4.9,4.9,0,0,1-1.737-2.371l.675-.245a4.144,4.144,0,0,0,1.481,2.033,5.33,5.33,0,0,0,2.3.88,22.945,22.945,0,0,0,6-.193,26.11,26.11,0,0,1,4.489-.279,20.106,20.106,0,0,1,3.77.574,10.506,10.506,0,0,1,3.331,1.465,7.833,7.833,0,0,1,2.479,2.754,10.937,10.937,0,0,1,1.186,4.35,15.21,15.21,0,0,1-.708,4.533c-1.229,3.667-3.313,9.186-4.846,13.171-.994,2.583-1.8,4.635-2.191,5.629-.269.682-.5,1.271-.676,1.7-.081.2-.144.357-.189.466l-.053.126a.385.385,0,0,1-.224.236,21.12,21.12,0,0,1-3.02.1c-1.4.025-2.848.046-2.972.047Z" transform="translate(-468.88 -817.282)"/>
      <path id="Trazado_492" data-name="Trazado 492" d="M576.482,1143.169a18.74,18.74,0,0,1-1.954-.092c-1.757-.185-2.863-.648-3.382-1.414l.594-.4c.388.572,1.351.943,2.863,1.1a27,27,0,0,0,4.984-.062l.061.715C578.46,1143.118,577.41,1143.169,576.482,1143.169Z" transform="translate(-490.966 -980.807)"/>
      <path id="Trazado_493" data-name="Trazado 493" d="M535.95,1186.349l-.139-.235a.374.374,0,0,0-.3-.176,1.245,1.245,0,0,0-.784.178.274.274,0,0,0,.051-.251l-.7.179c-.04-.154-.025-.446.52-.672a1.614,1.614,0,0,1,1.593.1,1.915,1.915,0,0,1,2,.012l-.092.2-.082.489-.085-.014-.044-.021c-.819-.381-1.152-.162-1.4,0a.98.98,0,0,1-.28.144Z" transform="translate(-459.142 -1018.667)"/>
      <path id="Trazado_494" data-name="Trazado 494" d="M540.868,1190.472h-.718a2.833,2.833,0,0,1,1.006-2.478l.422.581A2.156,2.156,0,0,0,540.868,1190.472Z" transform="translate(-464.369 -1021.02)"/>
      <path id="Trazado_495" data-name="Trazado 495" d="M691.642,1186.7l-.528-.487a1.89,1.89,0,0,1,1.646-.334l.077.01-.08.714-.1-.013C692.459,1186.56,691.85,1186.473,691.642,1186.7Z" transform="translate(-594.034 -1019.201)"/>
      <path id="Trazado_496" data-name="Trazado 496" d="M445.173,943.377c.337.764-.426.6-.82,1.011-.167.175-.207.556-.471.484-.2-.054-.1-.807.109-1.169a1.027,1.027,0,0,1,1.181-.326" transform="translate(-381.336 -810.585)" fill-rule="evenodd"/>
      <path id="Trazado_496_-_Contorno" data-name="Trazado 496 - Contorno" d="M443.306,944.6a.6.6,0,0,1-.157-.022.47.47,0,0,1-.312-.289,2,2,0,0,1,.2-1.406,1.249,1.249,0,0,1,1.132-.574c.564,0,.658.213.688.283a.914.914,0,0,1,.065.725.949.949,0,0,1-.6.481,1.032,1.032,0,0,0-.356.2.848.848,0,0,0-.079.137A.687.687,0,0,1,443.306,944.6Zm.868-1.573a.6.6,0,0,0-.51.215.9.9,0,0,0-.059.126,2.014,2.014,0,0,1,.454-.236,1.535,1.535,0,0,0,.2-.091l0-.011C444.232,943.027,444.2,943.026,444.174,943.026Z" transform="translate(-380.697 -809.944)" fill="rgba(0,0,0,0)"/>
      <path id="Trazado_497" data-name="Trazado 497" d="M444.174,942.308c.564,0,.658.213.688.283a.914.914,0,0,1,.065.725.949.949,0,0,1-.6.481,1.032,1.032,0,0,0-.356.2.848.848,0,0,0-.079.137.687.687,0,0,1-.589.467.6.6,0,0,1-.157-.022.47.47,0,0,1-.312-.289,2,2,0,0,1,.2-1.406A1.249,1.249,0,0,1,444.174,942.308Zm.082.721c-.024,0-.051,0-.082,0a.6.6,0,0,0-.51.215.9.9,0,0,0-.059.126,2.014,2.014,0,0,1,.454-.236,1.535,1.535,0,0,0,.2-.091Z" transform="translate(-380.697 -809.944)"/>
      <path id="Trazado_498" data-name="Trazado 498" d="M455.729,959.774a.227.227,0,1,1-.288.142.227.227,0,0,1,.288-.142" transform="translate(-391.35 -824.724)" fill-rule="evenodd"/>
      <path id="Trazado_498_-_Contorno" data-name="Trazado 498 - Contorno" d="M455.015,959.934a.586.586,0,1,1,.555-.4A.584.584,0,0,1,455.015,959.934Z" transform="translate(-390.709 -824.083)" fill="rgba(0,0,0,0)"/>
      <path id="Trazado_499" data-name="Trazado 499" d="M449.431,967.551a.227.227,0,1,1-.288.142.227.227,0,0,1,.288-.142" transform="translate(-385.938 -831.406)" fill-rule="evenodd"/>
      <path id="Trazado_499_-_Contorno" data-name="Trazado 499 - Contorno" d="M448.717,967.711a.586.586,0,1,1,.555-.4A.587.587,0,0,1,448.717,967.711Z" transform="translate(-385.297 -830.765)" fill="rgba(0,0,0,0)"/>
      <path id="Trazado_500" data-name="Trazado 500" d="M458.709,969.959a.227.227,0,1,1-.288.142.227.227,0,0,1,.288-.142" transform="translate(-393.91 -833.475)" fill-rule="evenodd"/>
      <path id="Trazado_500_-_Contorno" data-name="Trazado 500 - Contorno" d="M457.994,970.119a.586.586,0,1,1,.555-.4A.585.585,0,0,1,457.994,970.119Z" transform="translate(-393.269 -832.834)" fill="rgba(0,0,0,0)"/>
      <path id="Trazado_501" data-name="Trazado 501" d="M482.446,934.121l-.68-.231a2.344,2.344,0,0,1,.722-1.032l.435.571A1.613,1.613,0,0,0,482.446,934.121Z" transform="translate(-414.188 -801.779)"/>
      <path id="Trazado_502" data-name="Trazado 502" d="M487.476,923.681l-.68-.231a.258.258,0,0,0-.014.079v0a.493.493,0,0,1,.016-.141.394.394,0,0,0-.03-.373.61.61,0,0,0-.519-.107l-.121-.708a1.289,1.289,0,0,1,1.172.332,1.042,1.042,0,0,1,.2,1.01A.459.459,0,0,1,487.476,923.681Z" transform="translate(-417.767 -792.642)"/>
      <path id="Trazado_503" data-name="Trazado 503" d="M466.563,963.372l-.419-.09c-.511-.112-1.212-.264-1.852-.351a3.286,3.286,0,0,0-1.453,0l-.257-.671c.759-.29,2.252,0,3.715.316.151.033.293.064.412.088Z" transform="translate(-397.574 -826.989)"/>
      <path id="Trazado_504" data-name="Trazado 504" d="M468.393,974.2a4.556,4.556,0,0,0-3.087-1.747c-.187-.04-.349-.074-.477-.114l.213-.686c.1.03.244.061.414.1a5.247,5.247,0,0,1,3.534,2.052Z" transform="translate(-399.492 -835.149)"/>
      <path id="Trazado_505" data-name="Trazado 505" d="M445.26,979.287a2.482,2.482,0,0,1-.5-.052,3.007,3.007,0,0,1-1.955-1.494l.622-.358a2.292,2.292,0,0,0,1.477,1.149,1.805,1.805,0,0,0,1.475-.361l.43.575A2.562,2.562,0,0,1,445.26,979.287Z" transform="translate(-380.69 -839.974)"/>
      <path id="Trazado_506" data-name="Trazado 506" d="M503.294,900.173l-.68-.231a15.008,15.008,0,0,0,.512-2.617c-.253.6-.561,1.352-.649,1.576l-.669-.262c.008-.021.884-2.2,1.055-2.475a.423.423,0,0,1,.478-.207c.254.069.356.34.427.622a2.986,2.986,0,0,1,.083.463A13.976,13.976,0,0,1,503.294,900.173Z" transform="translate(-431.407 -770.103)"/>
      <path id="Trazado_507" data-name="Trazado 507" d="M637.21,1185.519a1.186,1.186,0,0,0-.84-.154l-.188-.693a1.881,1.881,0,0,1,1.472.283Z" transform="translate(-546.728 -1018.167)"/>
      <path id="Trazado_508" data-name="Trazado 508" d="M636.773,1187.584l-.714-.071a4.264,4.264,0,0,1,.367-1.373,2.4,2.4,0,0,1,.972-1.113,1.91,1.91,0,0,1,1-.24,3,3,0,0,1,1.214.326l.028.014.118.085-.42.582-.066-.048a1.627,1.627,0,0,0-1.521-.094A2.424,2.424,0,0,0,636.773,1187.584Z" transform="translate(-546.782 -1018.306)"/>
    </g>
  </g>
</svg>
