<svg xmlns="http://www.w3.org/2000/svg" xmlns:xlink="http://www.w3.org/1999/xlink" width="247.785" height="348.971" viewBox="0 0 247.785 348.971">
  <defs>
    <clipPath id="clip-path">
      <rect id="Rectángulo_1128" data-name="Rectángulo 1128" width="247.785" height="348.971" fill="none"/>
    </clipPath>
  </defs>
  <g id="Grupo_72" data-name="Grupo 72" transform="translate(0 0.005)">
    <rect id="Rectángulo_1121" data-name="Rectángulo 1121" width="25.809" height="25.855" transform="translate(26.484 36.356)" fill="#fff"/>
    <path id="Línea_7" data-name="Línea 7" d="M-.157,153.8H-1.373V0H-.157Z" transform="translate(27.282 11.35)" fill="#fff"/>
    <path id="Línea_8" data-name="Línea 8" d="M-.157,153.8H-1.373V0H-.157Z" transform="translate(53.096 11.35)" fill="#fff"/>
    <path id="Línea_9" data-name="Línea 9" d="M-.157,153.8H-1.373V0H-.157Z" transform="translate(78.909 11.35)" fill="#fff"/>
    <path id="Línea_10" data-name="Línea 10" d="M-.157,153.8H-1.373V0H-.157Z" transform="translate(104.722 11.35)" fill="#fff"/>
    <path id="Línea_11" data-name="Línea 11" d="M-.157,153.8H-1.373V0H-.157Z" transform="translate(130.536 11.35)" fill="#fff"/>
    <path id="Línea_12" data-name="Línea 12" d="M-.157,153.8H-1.373V0H-.157Z" transform="translate(156.349 11.35)" fill="#fff"/>
    <g id="Grupo_21" data-name="Grupo 21" transform="translate(0 -0.005)">
      <g id="Grupo_20" data-name="Grupo 20" clip-path="url(#clip-path)">
        <path id="Línea_13" data-name="Línea 13" d="M182.1-.157H0V-1.373H182.1Z" transform="translate(0 140.379)" fill="#fff"/>
        <path id="Línea_14" data-name="Línea 14" d="M182.1-.157H0V-1.373H182.1Z" transform="translate(0 114.566)" fill="#fff"/>
        <path id="Línea_15" data-name="Línea 15" d="M182.1-.157H0V-1.373H182.1Z" transform="translate(0 88.752)" fill="#fff"/>
        <path id="Línea_16" data-name="Línea 16" d="M182.1-.157H0V-1.373H182.1Z" transform="translate(0 62.939)" fill="#fff"/>
        <path id="Línea_17" data-name="Línea 17" d="M182.1-.157H0V-1.373H182.1Z" transform="translate(0 37.126)" fill="#fff"/>
        <path id="Trazado_100" data-name="Trazado 100" d="M273.9,604.4h85.625l11.993,58.561c2.762,13.487,3.085,14.943,13.753,23.85l27.593,23.039L386.055,733.28l-35.174-29.005c-10.383-7.188-15.1-13.144-18.9-26.61l-12.192-37.8L286.245,755.816H253.5Z" transform="translate(-184.36 -439.553)" fill="#c93" fill-rule="evenodd"/>
        <path id="Trazado_101" data-name="Trazado 101" d="M272.492,603.028h86.652l.1.486,11.993,58.561c1.369,6.686,2.123,10.37,3.848,13.469a20.542,20.542,0,0,0,3.482,4.489c1.393,1.416,3.194,3.023,6.217,5.547l28.139,23.495-27.732,24.237-.4-.328-35.154-28.989c-5.646-3.911-9.249-7.225-12.043-11.079-2.943-4.059-5.123-8.945-7.068-15.84l-11.578-35.893L285.827,755.658h-33.9Zm85.66,1.216h-84.6l-20.234,150.2h31.592l33.973-117.416,12.808,39.708c1.905,6.757,4.029,11.528,6.885,15.467,2.713,3.741,6.233,6.974,11.772,10.808l.021.015.02.016,34.776,28.677L411.052,709.1l-27.047-22.583c-3.056-2.551-4.883-4.182-6.3-5.628a21.7,21.7,0,0,1-3.678-4.75,24.136,24.136,0,0,1-2.154-5.616c-.6-2.215-1.138-4.856-1.822-8.2Z" transform="translate(-183.485 -438.788)"/>
        <path id="Trazado_102" data-name="Trazado 102" d="M442.12,125.918c-5-.749-12.1-.161-17.1-.91,0,8.6-.107,18.334-.731,26.968,5.365,0,14.115.285,19.48.285-.369-7.848-1.28-18.5-1.648-26.343" transform="translate(-308.567 -90.912)" fill="#c96c2f" fill-rule="evenodd"/>
        <path id="Trazado_103" data-name="Trazado 103" d="M423.59,123.414l.7.1a67.479,67.479,0,0,0,8.469.448,68.293,68.293,0,0,1,8.631.461l.494.074.023.5c.184,3.919.509,8.619.824,13.164s.64,9.251.825,13.18l.03.636h-.637c-2.689,0-6.279-.073-9.752-.143s-7.051-.142-9.728-.142h-.653l.047-.652c.647-8.94.729-19.085.729-26.924Zm17.125,2.148a74.038,74.038,0,0,0-7.974-.379,77.291,77.291,0,0,1-7.936-.367c0,7.566-.1,17.113-.686,25.666,2.6.01,5.9.077,9.1.141s6.5.131,9.089.141c-.188-3.782-.5-8.218-.792-12.515C441.214,133.889,440.9,129.388,440.715,125.562Z" transform="translate(-307.745 -90.023)"/>
        <path id="Trazado_104" data-name="Trazado 104" d="M442.105,165.93c-4.255,1.966-12.041,1.656-17,.806-.485-.083-1.249-.094-1.3.8,0,8.95.78,6.218.13,15.205,5.585,0,14.693.3,20.279.3-.361-7.684-.3-8.538-.611-15.506-.063-1.41-.181-2.218-1.5-1.607" transform="translate(-308.22 -120.523)" fill="#fc0" fill-rule="evenodd"/>
        <path id="Trazado_105" data-name="Trazado 105" d="M442.077,164.351h0a1.2,1.2,0,0,1,1.181.916,5.777,5.777,0,0,1,.193,1.478c.147,3.261.212,5.209.274,7.093.071,2.126.144,4.324.336,8.412l.03.636h-.637c-2.8,0-6.537-.076-10.152-.149s-7.34-.148-10.127-.148h-.653l.047-.652a43.64,43.64,0,0,0,.12-8.278c-.112-1.379-.252-3.095-.252-6.884v-.033a1.426,1.426,0,0,1,.559-1.134,1.593,1.593,0,0,1,.962-.281,2.867,2.867,0,0,1,.486.044,47.734,47.734,0,0,0,7.815.652,22.151,22.151,0,0,0,8.824-1.411A2.408,2.408,0,0,1,442.077,164.351Zm.741,17.319c-.171-3.693-.24-5.774-.307-7.791-.063-1.881-.128-3.825-.274-7.079a7.861,7.861,0,0,0-.077-.917,1.084,1.084,0,0,0-.09-.316,1.33,1.33,0,0,0-.475.15c-2.724,1.259-6.579,1.523-9.333,1.523a48.985,48.985,0,0,1-8.02-.67,1.7,1.7,0,0,0-.281-.027.465.465,0,0,0-.244.047.317.317,0,0,0-.062.2c0,3.727.137,5.412.248,6.767a42.021,42.021,0,0,1-.073,7.813c2.712.01,6.158.08,9.5.147S440.114,181.66,442.818,181.67Z" transform="translate(-307.454 -119.757)"/>
        <path id="Trazado_106" data-name="Trazado 106" d="M216.652,300.04s90.717-9.854,93.5-9.75L305.6,258.473c47.539-2.14-11.615-101.452-35.091-83.908a16.181,16.181,0,0,1-.261,3.594c-5.043,5.283-18.4,1.272-18.4,1.272-2.741-4.679-9.171-6.532-13.737-3.4-6.538,4.481-12.6,19.771-19.336,29.006-1.4,1.924-20.312-25.108-20.312-25.108-1.382,1.761-12.851,11.05-12.851,11.05,4.275,26.294,28.546,58.069,40.483,55.825Z" transform="translate(-134.987 -125.442)" fill="#fc0" fill-rule="evenodd"/>
        <path id="Trazado_107" data-name="Trazado 107" d="M215.085,299.967l9.44-53.226q-.249.016-.5.016a12.312,12.312,0,0,1-5.316-1.423,29.952,29.952,0,0,1-5.812-3.884,72.541,72.541,0,0,1-12.049-13.387,107.943,107.943,0,0,1-10.471-18.141,91.513,91.513,0,0,1-3.8-9.826,68.573,68.573,0,0,1-2.388-9.786l-.057-.348.274-.222c3.175-2.572,11.657-9.553,12.755-10.953l.506-.645.47.672c.043.061,4.348,6.212,8.94,12.356,2.693,3.6,4.955,6.5,6.724,8.6,1.042,1.241,1.919,2.215,2.607,2.894a6.786,6.786,0,0,0,1.212,1.024,130.967,130.967,0,0,0,7.33-12.082c1.929-3.442,3.923-7,5.893-9.959a39.824,39.824,0,0,1,2.994-4.007,16.63,16.63,0,0,1,3.106-2.881,9.523,9.523,0,0,1,5.411-1.655,10.79,10.79,0,0,1,9.066,5.041,38.555,38.555,0,0,0,9.419,1.369,17.083,17.083,0,0,0,4.6-.556,7.779,7.779,0,0,0,3.449-1.891,16.762,16.762,0,0,0,.186-3.257l-.007-.313.25-.187a10.954,10.954,0,0,1,6.7-2.2,17.836,17.836,0,0,1,7.446,1.858,38.075,38.075,0,0,1,7.806,5.045,84.211,84.211,0,0,1,15.19,16.915,111.468,111.468,0,0,1,11.849,21.675,79.126,79.126,0,0,1,3.591,11,48.851,48.851,0,0,1,1.445,10.266,27.557,27.557,0,0,1-.86,7.856,17.058,17.058,0,0,1-3.2,6.378c-3.026,3.692-7.674,5.765-13.822,6.167l4.562,31.881-.728-.027h-.028c-3.615,0-92.484,9.65-93.381,9.747Zm10.934-54.69-9.454,53.307c9.175-1,83.679-9.072,92.061-9.636l-4.553-31.816.669-.03a23.03,23.03,0,0,0,8.217-1.741,14.3,14.3,0,0,0,5.387-4.019c2.637-3.217,3.91-7.738,3.782-13.436a47.644,47.644,0,0,0-1.411-10.008,77.912,77.912,0,0,0-3.536-10.834,110.235,110.235,0,0,0-11.718-21.434A83,83,0,0,0,290.5,178.961a36.871,36.871,0,0,0-7.552-4.886,16.645,16.645,0,0,0-6.933-1.744,10.194,10.194,0,0,0-3.131.475,9.684,9.684,0,0,0-2.6,1.3c0,.282,0,.721-.014,1.2a6.9,6.9,0,0,1-.292,2.307l-.044.112-.083.087c-1.848,1.936-4.884,2.918-9.022,2.918a35.725,35.725,0,0,1-6.887-.741c-1.841-.366-3.053-.728-3.1-.743l-.229-.069-.121-.206a9.38,9.38,0,0,0-3.5-3.413,9.5,9.5,0,0,0-4.644-1.238,8.313,8.313,0,0,0-4.724,1.442c-1.743,1.195-3.632,3.34-5.776,6.559-1.943,2.919-3.838,6.3-5.844,9.879a128.312,128.312,0,0,1-7.569,12.425.851.851,0,0,1-.7.347h0c-.489,0-1.067-.363-1.994-1.251-.7-.668-1.59-1.644-2.654-2.9-1.778-2.1-4.072-5.025-6.818-8.693-3.82-5.1-7.475-10.26-8.7-12-1.031,1.034-3.206,2.94-6.49,5.686-2.469,2.065-4.849,4-5.64,4.648a67.821,67.821,0,0,0,2.289,9.264,90.3,90.3,0,0,0,3.751,9.7,106.709,106.709,0,0,0,10.351,17.934,71.326,71.326,0,0,0,11.837,13.16c3.968,3.289,7.548,5.027,10.352,5.027a6.152,6.152,0,0,0,1.133-.1Z" transform="translate(-134.16 -124.677)"/>
        <path id="Trazado_108" data-name="Trazado 108" d="M599.909,343.134c-.126-1.678-2.04-14.636-4.095-27.367-1.144-7.089-2.183-13.189-3-17.642-.472-2.558-.877-4.6-1.2-6.076a12.739,12.739,0,0,0-.73-2.671l.011.015.951-.757c.166.208.386.625.908,2.939.327,1.451.733,3.484,1.207,6.044.822,4.436,1.866,10.558,3.021,17.705.958,5.929,1.979,12.494,2.8,18.014.778,5.215,1.28,8.843,1.345,9.7Z" transform="translate(-429.905 -210.057)"/>
        <path id="Trazado_109" data-name="Trazado 109" d="M462.552,726.942c-4.32,0-8.969-.246-13.993-.737l.118-1.21c12.106,1.183,22.014.933,30.288-.766l.244,1.191A82.882,82.882,0,0,1,462.552,726.942Z" transform="translate(-326.241 -526.928)"/>
        <path id="Trazado_110" data-name="Trazado 110" d="M622.549,400.731l-7.143-48.2h19.837c1.834,0,3.682,1.159,4.06,4.027l5.208,39.554c.679,3.531-1.9,4.209-3.87,4.3Z" transform="translate(-447.558 -256.383)" fill="#e6e6e6" fill-rule="evenodd"/>
        <path id="Trazado_111" data-name="Trazado 111" d="M621.14,400.583l-.078-.528-7.247-48.892h20.542a4.437,4.437,0,0,1,2.977,1.089,4.655,4.655,0,0,1,1.091,1.436,6.427,6.427,0,0,1,.594,2.031l5.206,39.536a4.139,4.139,0,0,1-.6,3.455,4.948,4.948,0,0,1-3.84,1.55h-.018Zm-5.916-48.2,6.962,46.971,17.549-.3a3.839,3.839,0,0,0,2.934-1.088,3.016,3.016,0,0,0,.359-2.491l-.006-.035-5.208-39.554a4.2,4.2,0,0,0-1.282-2.712,3.258,3.258,0,0,0-2.175-.787Z" transform="translate(-446.671 -255.618)"/>
        <path id="Trazado_112" data-name="Trazado 112" d="M612.422,400.731l-7.144-48.2h19.838c1.834,0,3.682,1.159,4.059,4.027l5.209,39.554c.678,3.531-1.9,4.209-3.87,4.3Z" transform="translate(-440.193 -256.383)" fill="#e6e6e6" fill-rule="evenodd"/>
        <path id="Trazado_113" data-name="Trazado 113" d="M611.012,400.583l-7.326-49.42h20.543a4.436,4.436,0,0,1,2.977,1.089,4.654,4.654,0,0,1,1.091,1.436,6.428,6.428,0,0,1,.594,2.031l5.207,39.536a4.139,4.139,0,0,1-.6,3.455,4.948,4.948,0,0,1-3.84,1.55h-.018Zm-5.916-48.2,6.962,46.971,17.549-.3a3.839,3.839,0,0,0,2.934-1.087,3.017,3.017,0,0,0,.359-2.492l-.006-.035-5.209-39.554a4.2,4.2,0,0,0-1.282-2.712,3.257,3.257,0,0,0-2.175-.787Z" transform="translate(-439.306 -255.618)"/>
        <path id="Trazado_114" data-name="Trazado 114" d="M395.2,54.876c-.923-.27-2.543-.863-1.607-3.261.376-.964,1.839-2.853,2.49-5h0c3.156-11.454,15.147-14.471,21.22-9.046,5.117,4.572,7.553,18.6-.823,27.495-6.624,7.032-20.559,4.527-21.283-10.184" transform="translate(-286.04 -25.417)" fill="#c96c2f" fill-rule="evenodd"/>
        <path id="Trazado_115" data-name="Trazado 115" d="M406.92,68.667a12.321,12.321,0,0,1-8.738-3.572,13.719,13.719,0,0,1-3-4.547,18.985,18.985,0,0,1-1.327-5.984,2.851,2.851,0,0,1-1.676-1.342,3.177,3.177,0,0,1,.085-2.593,11.316,11.316,0,0,1,.779-1.452,16.48,16.48,0,0,0,1.7-3.509l.026-.087a16.9,16.9,0,0,1,5.875-8.963,14.41,14.41,0,0,1,8.7-3.041,12.088,12.088,0,0,1,4.078.689,10.62,10.62,0,0,1,3.525,2.08,13.538,13.538,0,0,1,3.353,5.165A22.889,22.889,0,0,1,421.8,48.8a24.082,24.082,0,0,1-.171,4.092,22.606,22.606,0,0,1-.927,4.135,20.312,20.312,0,0,1-4.534,7.684,12.441,12.441,0,0,1-4.264,2.952A12.78,12.78,0,0,1,406.92,68.667ZM395.628,46.812A20.7,20.7,0,0,1,394.09,49.8a11.059,11.059,0,0,0-.693,1.275,1.547,1.547,0,0,0,1.211,2.457l.415.121.021.432a18.032,18.032,0,0,0,1.261,6,12.512,12.512,0,0,0,2.732,4.148,11.113,11.113,0,0,0,7.882,3.22,11.509,11.509,0,0,0,8.358-3.573,19.1,19.1,0,0,0,4.263-7.228,21.387,21.387,0,0,0,.877-3.912,22.865,22.865,0,0,0,.162-3.885,21.661,21.661,0,0,0-1.411-6.9,12.337,12.337,0,0,0-3.031-4.7,9.41,9.41,0,0,0-3.124-1.842,10.876,10.876,0,0,0-3.669-.618,13.188,13.188,0,0,0-7.963,2.79,15.715,15.715,0,0,0-5.473,8.425l-.231.84Z" transform="translate(-285.276 -24.651)"/>
        <path id="Trazado_116" data-name="Trazado 116" d="M333.375,357.387l-.023-1.215c3.751-.07,7.487-2.105,11.1-6.048a44.334,44.334,0,0,0,5.5-7.665,72.7,72.7,0,0,0,4.106-8.306,73.838,73.838,0,0,0,2.536-6.945,15.443,15.443,0,0,0,.8-3.442l1.213-.083c.077,1.137-1.312,5.909-3.429,10.941A73.923,73.923,0,0,1,351,343.069a45.534,45.534,0,0,1-5.653,7.876C341.5,355.143,337.472,357.311,333.375,357.387Z" transform="translate(-242.437 -235.415)"/>
        <path id="Trazado_117" data-name="Trazado 117" d="M430.594,202.267c-.26-.924-2.21-3.4-3.257-4.735-.35-.445-.652-.829-.863-1.113l.975-.726c.2.271.5.65.844,1.088,1.658,2.108,3.171,4.089,3.471,5.157Z" transform="translate(-310.343 -142.457)"/>
        <path id="Trazado_118" data-name="Trazado 118" d="M584.082,285.593l-.071,0,.065-1.214h.008a6.873,6.873,0,0,0,2.1-.906,6.357,6.357,0,0,0,1.842-1.36l1.081.556a3.347,3.347,0,0,1-.928.951,14.581,14.581,0,0,1-2.881,1.652A3.253,3.253,0,0,1,584.082,285.593Z" transform="translate(-424.739 -205.273)"/>
        <path id="Trazado_119" data-name="Trazado 119" d="M405.369,85.21c-3.131.913-3.785-1.782-6.138-1.932-2.06-.132-1.576,1.7-.87,3.235a7.124,7.124,0,0,1,.567,3.008c-.338,2.188-.813,4.628-.9,5.084-2.776,13.864,12.093,15.973,15.279,6.473,1.413-4.214,1.794-12.306,1.484-17.276-.045-.731-3.537-1.876-1.671-9.262l-2.907.18c-.354,2.825-.469,9.213-4.84,10.489" transform="translate(-289.216 -54.209)" fill-rule="evenodd"/>
        <path id="Línea_18" data-name="Línea 18" d="M-.058,3.777-.5,2.646,9.423-1.277,9.87-.146Z" transform="translate(181.174 237.302)"/>
        <path id="Trazado_120" data-name="Trazado 120" d="M199.463,1159.546l1.111,30.558h-16.4c-.008-.032-1.018-7.955-4.958-4.649-1.381,1.159-1.366,3.076-1.287,4.7H134.741c1.9-20.981,37.926-17.7,37.774-30.609Z" transform="translate(-97.991 -843.287)" fill="#f63" fill-rule="evenodd"/>
        <path id="Trazado_121" data-name="Trazado 121" d="M171.062,1158.173h28.15l1.155,31.773h-17.51l-.114-.462a.723.723,0,0,1-.014-.078,14.322,14.322,0,0,0-.674-2.725c-.37-1-1-2.189-1.891-2.189a2.33,2.33,0,0,0-1.4.665c-1.132.95-1.149,2.6-1.07,4.205l.031.638h-44.49l.06-.663c.489-5.392,3.185-9.7,8.243-13.184a41.57,41.57,0,0,1,7.2-3.839c2.536-1.088,5.153-2.028,7.684-2.937a58.989,58.989,0,0,0,10.454-4.461c2.89-1.791,4.223-3.737,4.195-6.126Zm26.978,1.216H172.266a6.81,6.81,0,0,1-1.286,3.5,11.736,11.736,0,0,1-3.465,3.055c-2.82,1.747-6.639,3.119-10.683,4.572-2.513.9-5.112,1.836-7.615,2.911a40.4,40.4,0,0,0-6.986,3.723,19.208,19.208,0,0,0-5.241,5.126,14.824,14.824,0,0,0-1.646,3.279,15.738,15.738,0,0,0-.762,3.224h41.876a9.555,9.555,0,0,1,.131-2.031,4.173,4.173,0,0,1,1.4-2.527,3.465,3.465,0,0,1,2.178-.949,2.526,2.526,0,0,1,1.962,1.017,6.651,6.651,0,0,1,1.069,1.966,15.122,15.122,0,0,1,.656,2.473h15.256Z" transform="translate(-97.154 -842.521)"/>
        <path id="Trazado_122" data-name="Trazado 122" d="M205.379,1156.434h-.008c-1.226-.007-2.469-.023-3.671-.038-1.638-.02-3.331-.041-4.991-.041a8.389,8.389,0,0,1-4.24-1.04,3.061,3.061,0,0,1-1.744-2.433,1.874,1.874,0,0,1,1.038-1.637,5.324,5.324,0,0,1,2.628-.547,15.554,15.554,0,0,1,3.121.364,15.4,15.4,0,0,1-1.817-1.839c-.865-1.043-1.881-2.587-1.806-4.016a2.571,2.571,0,0,1,1.681-2.273,3.889,3.889,0,0,1,1.619-.362,4.895,4.895,0,0,1,3.087,1.269,13.717,13.717,0,0,1,2.518,2.9,48.837,48.837,0,0,1,3.627,6.8c.287.621.536,1.157.736,1.553l.447.882h-.989a.732.732,0,0,0-.3.141A1.72,1.72,0,0,1,205.379,1156.434Zm-10.988-4.52a4.091,4.091,0,0,0-2.023.385c-.428.246-.428.5-.428.583,0,.323.3.881,1.153,1.39a7.17,7.17,0,0,0,3.617.868c1.668,0,3.365.021,5.006.042.951.012,1.928.024,2.9.032l-.3-.193-.438-.28c-.385-.2-.812-.428-1.263-.664l-1.165-.612A22.671,22.671,0,0,0,194.39,1151.914Zm10.1,1.775c.368.195.656.349.882.473l-.053-.114a47.865,47.865,0,0,0-3.53-6.626c-1.636-2.411-3.183-3.634-4.6-3.634a2.645,2.645,0,0,0-1.115.253,1.367,1.367,0,0,0-.971,1.229,5.309,5.309,0,0,0,1.528,3.177,12.5,12.5,0,0,0,2.89,2.584c.6.35,1.6.885,2.418,1.317l.31.112a13.8,13.8,0,0,1,2.24,1.228Z" transform="translate(-138.939 -831.175)"/>
        <rect id="Rectángulo_1122" data-name="Rectángulo 1122" width="44.19" height="3.599" transform="translate(36.166 344.997)" fill="#ff6"/>
        <path id="Rectángulo_1123" data-name="Rectángulo 1123" d="M-1.373-1.373H44.033V3.441H-1.373ZM42.817-.157H-.157V2.226H42.817Z" transform="translate(36.931 345.763)"/>
        <rect id="Rectángulo_1124" data-name="Rectángulo 1124" width="17.659" height="3.599" transform="translate(85.252 344.997)" fill="#ff6"/>
        <path id="Rectángulo_1125" data-name="Rectángulo 1125" d="M-1.373-1.373H17.5V3.441H-1.373ZM16.286-.157H-.157V2.226H16.286Z" transform="translate(86.017 345.763)"/>
        <path id="Trazado_123" data-name="Trazado 123" d="M175.541,1232.075a42.562,42.562,0,0,0-1.913-6.519,21.161,21.161,0,0,0-3-5.421l.955-.752a22.35,22.35,0,0,1,3.176,5.728,43.746,43.746,0,0,1,1.969,6.7Z" transform="translate(-124.274 -886.947)"/>
        <path id="Trazado_124" data-name="Trazado 124" d="M725.51,1004.315l21.254,21.983-12.2,10.966c-.027-.019-6.076-5.236-6.8-.143-.252,1.785,1.041,3.2,2.186,4.356l-17.763,15.967-23.065,4.094c-2.624-13.49,11.809-19.347,11.809-19.347,4.355-8.145,8.671-15.363,4.531-19.861Z" transform="translate(-500.941 -730.394)" fill="#f63" fill-rule="evenodd"/>
        <path id="Trazado_125" data-name="Trazado 125" d="M724.775,1002.409l22.1,22.857-13.021,11.7-.393-.265a.688.688,0,0,1-.066-.051c-1.224-1.024-3.1-2.22-4.364-2.22a1.17,1.17,0,0,0-.866.314,2.415,2.415,0,0,0-.558,1.394c-.206,1.463.883,2.7,2.016,3.843l.449.453-.475.427-17.892,16.083-23.825,4.229-.114-.587a15.8,15.8,0,0,1,.771-9.057,17.993,17.993,0,0,1,4.325-6.229,25.237,25.237,0,0,1,4.791-3.576,22.179,22.179,0,0,1,2.083-1.074c.236-.44.473-.881.7-1.308a58.983,58.983,0,0,0,4.792-10.306c.952-3.264.642-5.6-.976-7.361l-.416-.452Zm20.35,22.8L724.716,1004.1l-19.168,17.23a6.81,6.81,0,0,1,1.386,3.465,11.736,11.736,0,0,1-.535,4.589c-.929,3.184-2.853,6.758-4.889,10.542-.262.488-.534.992-.8,1.493l-.1.194-.2.083a19.525,19.525,0,0,0-2.171,1.108,24.2,24.2,0,0,0-4.552,3.408,16.761,16.761,0,0,0-4.021,5.8,14.473,14.473,0,0,0-.8,7.762l22.3-3.958,17.164-15.429a9.57,9.57,0,0,1-1.261-1.6,4.173,4.173,0,0,1-.65-2.813,3.556,3.556,0,0,1,.908-2.089,2.357,2.357,0,0,1,1.719-.664c1.714,0,3.76,1.413,4.748,2.184Z" transform="translate(-500.177 -729.331)"/>
        <path id="Trazado_126" data-name="Trazado 126" d="M694.636,1093.874h0c3.539,0,8.3,2.039,11.149,3.258.364.156.707.3,1.007.428a.659.659,0,0,1,.372.406c.1.3,0,.642-.4,1.4-.209.394-.425.75-.435.765l-.047.077-.067.06c-1.277,1.148-2.233,1.92-3.159,2.667-.907.732-1.845,1.489-3.082,2.6a9.242,9.242,0,0,1-2.5,1.634,5.9,5.9,0,0,1-2.293.522,2.184,2.184,0,0,1-2.393-1.56c-.135-.685.054-1.813,1.724-3.3a15.707,15.707,0,0,1,2.516-1.774q-.19,0-.386,0a13.91,13.91,0,0,1-3.585-.446,4.69,4.69,0,0,1-2.8-1.71,2.608,2.608,0,0,1-.11-2.595,3.725,3.725,0,0,1,1.823-1.908A6.039,6.039,0,0,1,694.636,1093.874Zm10.334,4.231c-2.788-1.191-7.174-3.015-10.334-3.016h0c-1.762,0-2.862.558-3.363,1.707a1.443,1.443,0,0,0,.012,1.443,3.635,3.635,0,0,0,2.1,1.2,12.669,12.669,0,0,0,3.262.4,9.83,9.83,0,0,0,1.86-.155c.677-.138,1.779-.411,2.677-.637l.307-.124a13.812,13.812,0,0,1,2.487-.584h0C704.4,1098.241,704.724,1098.163,704.97,1098.105Zm.368,1.313.043-.073c-.166.03-.375.064-.641.108l-.51.084c-.424.106-.892.225-1.387.351l-1.274.323a22.876,22.876,0,0,0-6.241,3.528,5.16,5.16,0,0,0-1.148,1.354,1.271,1.271,0,0,0-.19.8c.084.428.675.58,1.2.58a6.453,6.453,0,0,0,3.977-1.845c1.261-1.133,2.211-1.9,3.13-2.643C703.192,1101.26,704.119,1100.512,705.338,1099.419Z" transform="translate(-501.947 -795.759)"/>
        <path id="Trazado_127" data-name="Trazado 127" d="M689.5,1155.983l22.337-5.653,17.683-15.895,2.406,2.676-18.866,16.959-22.828,5.678Z" transform="translate(-501.445 -825.024)" fill="#ff6" fill-rule="evenodd"/>
        <path id="Trazado_128" data-name="Trazado 128" d="M688.869,1159.411l-.964-4.957,22.748-5.758,18.023-16.2,3.219,3.58-19.431,17.466-.147.036Zm.449-4.061.5,2.572,22.06-5.487,18.3-16.451-1.593-1.772L711.244,1149.8l-.146.037Z" transform="translate(-500.555 -823.943)"/>
        <rect id="Rectángulo_1126" data-name="Rectángulo 1126" width="17.659" height="3.599" transform="matrix(0.744, -0.668, 0.668, 0.744, 231.717, 306.137)" fill="#ff6"/>
        <path id="Rectángulo_1127" data-name="Rectángulo 1127" d="M0,0H18.874V4.814H0ZM17.659,1.216H1.216V3.6H17.659Z" transform="matrix(0.744, -0.668, 0.668, 0.744, 230.859, 306.091)"/>
        <path id="Trazado_129" data-name="Trazado 129" d="M715.845,1171.679a19.214,19.214,0,0,0-1.905-3.951,15.405,15.405,0,0,0-2.435-2.958,11.065,11.065,0,0,0-5.6-2.947l.208-1.2a12.272,12.272,0,0,1,6.225,3.257,16.62,16.62,0,0,1,2.629,3.191,20.423,20.423,0,0,1,2.027,4.2Z" transform="translate(-513.412 -844.302)"/>
        <path id="Trazado_130" data-name="Trazado 130" d="M153.688,169.881l12.851-11.05a21.924,21.924,0,0,0-2-8.238c-1.206-2.41-3.094-4.879-6.1-4.366-.825.141-1.256.639-1.822.29a26.741,26.741,0,0,0-9.086-2.957c-4.441-.5-5.549,1.448-5.788,2.948-.244,1.531.918,2.9,4.234,3.638A4.6,4.6,0,0,0,144.61,156c-.086.343-1.191.573-1.674,2.006a5.117,5.117,0,0,0,.8,4.484,2.625,2.625,0,0,0,4.161.093c1.779.562,4.51,4.891,5.516,6.717Z" transform="translate(-103.064 -104.347)" fill="#c96c2f" fill-rule="evenodd"/>
        <path id="Trazado_131" data-name="Trazado 131" d="M152.717,170.095l-.614-1.286c-1.232-2.234-3.445-5.466-4.841-6.271a3.2,3.2,0,0,1-2.16.865,3.42,3.42,0,0,1-2.6-1.293,5.247,5.247,0,0,1-1.057-2.438,5.481,5.481,0,0,1,.152-2.628,3.691,3.691,0,0,1,1.517-1.941,4.818,4.818,0,0,1,.094-4.228,5.885,5.885,0,0,1,.808-1.181,6.852,6.852,0,0,1-2.662-1.388,2.885,2.885,0,0,1-.969-2.657,3.877,3.877,0,0,1,1.255-2.375,5.606,5.606,0,0,1,3.8-1.164,12.7,12.7,0,0,1,1.4.083,27.8,27.8,0,0,1,4.138.89,22.06,22.06,0,0,1,5.2,2.153.153.153,0,0,0,.089.031,1.576,1.576,0,0,0,.421-.132,4.279,4.279,0,0,1,.89-.271,5.286,5.286,0,0,1,.887-.077,5.148,5.148,0,0,1,3.621,1.564,11.465,11.465,0,0,1,2.233,3.207,21.621,21.621,0,0,1,1.7,5.319,13.387,13.387,0,0,1,.346,3.334l-.046.19Zm-5.779-8.978.373.118c.913.289,2.01,1.3,3.352,3.1a36.524,36.524,0,0,1,2.46,3.807l12.057-10.367a19.005,19.005,0,0,0-.379-2.789,20.271,20.271,0,0,0-1.569-4.886,10.3,10.3,0,0,0-1.987-2.872,3.924,3.924,0,0,0-2.78-1.226,4.067,4.067,0,0,0-.683.06,3.18,3.18,0,0,0-.647.2,2.325,2.325,0,0,1-.869.217,1.371,1.371,0,0,1-.727-.212,20.862,20.862,0,0,0-4.9-2.02,27.066,27.066,0,0,0-3.937-.85,11.479,11.479,0,0,0-1.264-.075,4.464,4.464,0,0,0-3,.861,2.694,2.694,0,0,0-.857,1.654c-.148.929.385,2.195,3.766,2.949l.475.106v.487a.623.623,0,0,1-.257.5,4.878,4.878,0,0,0-1.28,1.548,3.681,3.681,0,0,0,.1,3.525l.106.2-.056.223a1.3,1.3,0,0,1-.609.706,2.513,2.513,0,0,0-1.079,1.346,4.514,4.514,0,0,0,.688,3.9,2.212,2.212,0,0,0,1.668.855,2.125,2.125,0,0,0,1.575-.78Z" transform="translate(-102.299 -103.581)"/>
        <path id="Trazado_132" data-name="Trazado 132" d="M150.739,186.294l-1.024-.655a3.439,3.439,0,0,1,1.518-1.19,7.082,7.082,0,0,1,2.184-.559,7.322,7.322,0,0,1,2.621.2,5.021,5.021,0,0,1,2.34,1.34l-.876.843a3.825,3.825,0,0,0-1.784-1.01,6.094,6.094,0,0,0-2.181-.164A3.959,3.959,0,0,0,150.739,186.294Z" transform="translate(-109.078 -133.94)"/>
        <path id="Trazado_133" data-name="Trazado 133" d="M163.023,166.232a9.005,9.005,0,0,0-4.089-1.181,5.49,5.49,0,0,0-3.786.99l-.781-.931a6.673,6.673,0,0,1,4.625-1.273,10.126,10.126,0,0,1,4.666,1.359Z" transform="translate(-112.414 -119.375)"/>
        <path id="Trazado_134" data-name="Trazado 134" d="M198.428,156.454a7.779,7.779,0,0,0-1.341-1.171,15.418,15.418,0,0,0-2.131-1.377l.544-1.087a16.422,16.422,0,0,1,2.324,1.5,8.326,8.326,0,0,1,1.639,1.5Z" transform="translate(-141.887 -111.346)"/>
        <path id="Trazado_135" data-name="Trazado 135" d="M160.576,211.654l-.184-.114a5.727,5.727,0,0,0-1.623-.79l.171-1.2a6.3,6.3,0,0,1,2.1.965l.164.1Z" transform="translate(-115.499 -152.624)"/>
        <path id="Trazado_136" data-name="Trazado 136" d="M460.773,81.066q-.129,0-.259-.009a4.534,4.534,0,0,1-2.238-.805l.679-1.009a3.338,3.338,0,0,0,1.641.6,2.726,2.726,0,0,0,1.4-.282,3,3,0,0,0,1.669-2.343,2.888,2.888,0,0,0-1.36-2.788,2.365,2.365,0,0,0-2.631.4l-.74-.964A4.093,4.093,0,0,1,460.977,73a3.259,3.259,0,0,1,1.9.363,4.1,4.1,0,0,1,2,3.938,4.211,4.211,0,0,1-2.345,3.356A3.993,3.993,0,0,1,460.773,81.066Z" transform="translate(-333.415 -53.304)"/>
        <path id="Trazado_137" data-name="Trazado 137" d="M459.546,84.927a1.924,1.924,0,0,1-.436-1.84,1.721,1.721,0,0,1,1.135-1.191l.337,1.168a.519.519,0,0,0-.3.362.717.717,0,0,0,.178.7Z" transform="translate(-334.069 -59.782)"/>
        <path id="Trazado_138" data-name="Trazado 138" d="M403.147,58.043l-1.114-.486a3.323,3.323,0,0,1,2.634-1.937,3.787,3.787,0,0,1,1.919.24,4.338,4.338,0,0,1,1.75,1.309l-.94.771a2.812,2.812,0,0,0-2.562-1.116A2.117,2.117,0,0,0,403.147,58.043Z" transform="translate(-292.595 -40.657)"/>
        <path id="Trazado_139" data-name="Trazado 139" d="M408.157,126.249l-.367-1.159a4.108,4.108,0,0,0,2.231-1.282l.98.719A5.187,5.187,0,0,1,408.157,126.249Z" transform="translate(-296.638 -90.177)" fill="#fff"/>
        <path id="Trazado_140" data-name="Trazado 140" d="M411.93,79h-1.216a7.611,7.611,0,0,1,.083-.951,7.641,7.641,0,0,0,.083-.948h1.216A8.549,8.549,0,0,1,412,78.2,6.678,6.678,0,0,0,411.93,79Z" transform="translate(-298.928 -56.067)"/>
        <path id="Trazado_141" data-name="Trazado 141" d="M301.706,299.755h-1.216q0-.242,0-.484c-.005-2.738-.011-5.569,1.542-8.159l1.043.625c-1.379,2.3-1.374,4.841-1.369,7.532Q301.706,299.512,301.706,299.755Z" transform="translate(-218.766 -211.832)"/>
        <path id="Trazado_142" data-name="Trazado 142" d="M418.211,316.375c-1.923,0-4.9-1.271-6.68-2.031l.477-1.118c1.582.676,4.527,1.933,6.2,1.933Z" transform="translate(-299.381 -228.009)"/>
        <path id="Trazado_143" data-name="Trazado 143" d="M605.278,352.536h2.762l9.588,48.153h-5.206Z" transform="translate(-440.193 -256.383)" fill-rule="evenodd"/>
        <path id="Trazado_144" data-name="Trazado 144" d="M603.687,351.163h3.965l9.83,49.369h-6.471l-.077-.519Zm2.968,1.216H605.1l6.964,46.938H616Z" transform="translate(-439.306 -255.617)"/>
        <path id="Trazado_145" data-name="Trazado 145" d="M766.565,879.181l-.407-1.145a11.48,11.48,0,0,0,2.7-1.724c1.237-.952,2.75-2.251,4.374-3.755a143.076,143.076,0,0,0,11.129-11.665A110.039,110.039,0,0,0,794.8,846.729c3.091-5.131,4.821-9.482,5.143-12.932l1.21.113c-.339,3.634-2.126,8.158-5.312,13.447a111.266,111.266,0,0,1-10.55,14.325,144.327,144.327,0,0,1-11.228,11.767c-1.651,1.529-3.193,2.852-4.459,3.826A12.994,12.994,0,0,1,766.565,879.181Z" transform="translate(-557.272 -606.405)"/>
        <path id="Trazado_146" data-name="Trazado 146" d="M766.577,923.24l-.524-1.1a51.406,51.406,0,0,0,7.51-6.762c3.972-4.12,6.565-7.567,7.115-9.457l1.167.339a15.811,15.811,0,0,1-2.74,4.641,66.559,66.559,0,0,1-4.666,5.321C771.226,919.557,767.7,922.7,766.577,923.24Z" transform="translate(-557.218 -658.903)"/>
        <path id="Línea_19" data-name="Línea 19" d="M3.135,6.687-1.16-.084-.133-.735,4.161,6.036Z" transform="translate(108.497 0.61)"/>
        <path id="Línea_20" data-name="Línea 20" d="M.345,5.071-1.307-.048-.15-.422,1.5,4.7Z" transform="translate(114.69 0.436)"/>
        <path id="Trazado_147" data-name="Trazado 147" d="M425.163,28.7a2.962,2.962,0,0,1,2,.776,2.973,2.973,0,0,1,5.3-1.32,2.973,2.973,0,0,1,5.337.4,2.973,2.973,0,0,1,4.07,2.763,3,3,0,0,1-.045.515h.026a2.973,2.973,0,0,1,2.721,4.171,2.973,2.973,0,0,1,.685,5.327,2.973,2.973,0,1,1-4.641,2.923,2.968,2.968,0,0,1-.927.147c-1.447,0-1.408-2.536-2.877-3.99-1.681-1.664-6.325.1-6.789,4.205-.028.245-.008-3.9-.276-3.9a2.973,2.973,0,0,1-2.384-4.748,2.978,2.978,0,0,1-1.834-1.344,2.934,2.934,0,0,1-.365.022,2.972,2.972,0,0,1,0-5.945" transform="translate(-307.041 -19.4)" fill-rule="evenodd"/>
        <path id="Trazado_148" data-name="Trazado 148" d="M434.27,25.3a3.582,3.582,0,0,1,3.082,1.756,3.583,3.583,0,0,1,4.361,3.457,3.584,3.584,0,0,1,2.85,4.386,3.582,3.582,0,0,1,.866,5.684,3.58,3.58,0,1,1-6.014,3.625,3.609,3.609,0,0,1-.49.033,1.723,1.723,0,0,1-1.428-.773,6.783,6.783,0,0,1-.7-1.377,6.067,6.067,0,0,0-1.174-2.015,1.84,1.84,0,0,0-1.3-.446,4.479,4.479,0,0,0-2.77,1.119,4.8,4.8,0,0,0-1.688,3.168.607.607,0,0,1-.606.55.616.616,0,0,1-.611-.617c0-.03,0-.07,0-.126,0-.1,0-.233-.008-.4-.008-.466-.021-1.17-.049-1.8-.022-.491-.046-.8-.067-.991a3.583,3.583,0,0,1-2.806-5.008,3.626,3.626,0,0,1-1.251-1.032H424.4a3.58,3.58,0,1,1,1.664-6.751,3.582,3.582,0,0,1,3.271-2.125,3.542,3.542,0,0,1,1.614.384,3.59,3.59,0,0,1,.691.457A3.573,3.573,0,0,1,434.27,25.3Zm2.424,3.278-.224-.566a2.365,2.365,0,0,0-4.246-.316l-.457.786-.552-.723A2.365,2.365,0,0,0,427,28.811l-.181,1.107-.829-.756a2.364,2.364,0,1,0-1.3,4.095l.39-.049.2.336a2.383,2.383,0,0,0,1.459,1.07l.892.217-.548.736a2.365,2.365,0,0,0,1.9,3.777.673.673,0,0,1,.648.527,2.343,2.343,0,0,1,.076.371c.024.171.044.388.062.656a6.217,6.217,0,0,1,2.73-2.116,5.062,5.062,0,0,1,1.823-.365,2.98,2.98,0,0,1,2.154.8,7.094,7.094,0,0,1,1.438,2.406c.414.979.635,1.408,1.011,1.408a2.361,2.361,0,0,0,.737-.117l.673-.221.116.7a2.365,2.365,0,1,0,3.692-2.327l-.738-.52.759-.488a2.365,2.365,0,0,0-.544-4.238l-.638-.208L443.25,35a2.365,2.365,0,0,0-2.162-3.318l-.753.008.125-.72a2.4,2.4,0,0,0,.036-.411,2.366,2.366,0,0,0-3.237-2.2Z" transform="translate(-306.276 -18.634)"/>
      </g>
    </g>
  </g>
</svg>
