<?xml version="1.0" encoding="UTF-8"?>
<svg xmlns="http://www.w3.org/2000/svg" viewBox="0 0 384.92 384.92">
  <g id="Capa_1" data-name="Capa 1"/>
  <g id="Capa_2" data-name="Capa 2">
    <g id="Capa_1-2" data-name="Capa 1">
      <g id="freepik--light-bulb--inject-75">
        <g id="freepik--Bulb--inject-75">
          <circle cx="192.46" cy="192.46" r="192.46" transform="translate(-79.72 192.46) rotate(-45)" style="fill: #ffc100; isolation: isolate; opacity: .2;"/>
          <circle cx="192.46" cy="192.45" r="163.29" style="fill: #ffc100; isolation: isolate; opacity: .2;"/>
          <circle cx="192.46" cy="192.45" r="140.84" style="fill: #ffc100; isolation: isolate; opacity: .2;"/>
          <circle cx="192.46" cy="192.45" r="123.26" style="fill: #ffc100; isolation: isolate; opacity: .2;"/>
          <g id="freepik--bulb--inject-75">
            <g id="freepik--Socket--inject-75">
              <path d="M246.49,358.34c-8.97-1.15-11.81-7.91-6.33-15.11,5.48-7.2,17.14-12.09,26.15-10.96,9.01,1.14,11.8,7.91,6.33,15.11-5.47,7.2-17.17,12.09-26.15,10.96Z" style="fill: #263238;"/>
              <path d="M275.36,341.48l-3,1.22c-1.55-1.26-3.45-2.03-5.45-2.19-7.34-.93-16.81,3.06-21.26,8.91-1.28,1.54-2.07,3.43-2.25,5.42l-3,1.22,5.73,4.01h0c1.41,.89,3,1.44,4.65,1.6,7.34,.93,16.82-3.06,21.28-8.91,1.04-1.3,1.76-2.82,2.12-4.44h0l1.19-6.85Z" style="fill: #ffc100;"/>
              <path d="M275.36,341.48l-3,1.22c-1.55-1.26-3.45-2.03-5.45-2.19-7.34-.93-16.81,3.06-21.26,8.91-1.28,1.54-2.07,3.43-2.25,5.42l-3,1.22,5.73,4.01h0c1.41,.89,3,1.44,4.65,1.6,7.34,.93,16.82-3.06,21.28-8.91,1.04-1.3,1.76-2.82,2.12-4.44h0l1.19-6.85Z" style="isolation: isolate; opacity: .4;"/>
              <path d="M246.34,321.07c15.12-6.29,30.32-4.31,33.95,4.42,3.63,8.73-5.69,20.9-20.8,27.19-15.12,6.29-30.32,4.31-33.95-4.42-3.63-8.73,5.69-20.9,20.8-27.19Z" style="fill: #ffc100;"/>
              <path d="M244.42,316.44c15.68-6.52,31.44-4.47,35.21,4.58,3.76,9.05-5.9,21.67-21.58,28.2-15.68,6.52-31.44,4.47-35.21-4.58-3.76-9.05,5.9-21.68,21.58-28.2Z" style="fill: #ffc100;"/>
              <path d="M244.42,316.44c15.68-6.52,31.44-4.47,35.21,4.58,3.76,9.05-5.9,21.67-21.58,28.2-15.68,6.52-31.44,4.47-35.21-4.58-3.76-9.05,5.9-21.68,21.58-28.2Z" style="isolation: isolate; opacity: .2;"/>
              <path d="M242.44,311.69c16.08-6.69,32.25-4.58,36.11,4.7,3.86,9.28-6.05,22.23-22.13,28.92-16.08,6.69-32.25,4.58-36.11-4.7-3.86-9.28,6.05-22.23,22.13-28.92Z" style="fill: #ffc100;"/>
              <path d="M240.47,306.93c16.47-6.85,33.04-4.69,36.99,4.82,3.96,9.51-6.19,22.78-22.67,29.63-16.47,6.85-33.04,4.69-36.99-4.82-3.96-9.51,6.19-22.78,22.66-29.63Z" style="fill: #ffc100;"/>
              <path d="M240.47,306.93c16.47-6.85,33.04-4.69,36.99,4.82,3.96,9.51-6.19,22.78-22.67,29.63-16.47,6.85-33.04,4.69-36.99-4.82-3.96-9.51,6.19-22.78,22.66-29.63Z" style="isolation: isolate; opacity: .2;"/>
              <path d="M238.5,302.21c16.87-7.02,33.83-4.81,37.88,4.93,4.05,9.74-6.35,23.32-23.22,30.34-16.87,7.02-33.83,4.81-37.88-4.93s6.35-23.32,23.22-30.34Z" style="fill: #ffc100;"/>
              <path d="M236.52,297.45c17.27-7.18,34.62-4.92,38.77,5.05,4.15,9.97-6.49,23.87-23.76,31.05-17.27,7.18-34.62,4.92-38.77-5.05-4.15-9.97,6.49-23.87,23.76-31.05Z" style="fill: #37474f;"/>
            </g>
            <path d="M151.46,92.88c-54.36,22.57-80.12,84.94-57.55,139.3v.03c32.5,78.11,102.35,64.28,115.45,95.76,2.08,5.02,7.48,8.65,15.71,9.79,16.44,2.14,37.95-6.81,48.01-19.97,5.04-6.59,6.27-12.99,4.19-17.99h0c-13.1-31.5,45.97-71.27,13.47-149.34-22.56-54.36-84.91-80.13-139.27-57.58Z" style="fill: #ffc100;"/>
            <path d="M151.46,92.88c-54.36,22.57-80.12,84.94-57.55,139.3v.03c32.5,78.11,102.35,64.28,115.45,95.76,2.08,5.02,7.48,8.65,15.71,9.79,16.44,2.14,37.95-6.81,48.01-19.97,5.04-6.59,6.27-12.99,4.19-17.99h0c-13.1-31.5,45.97-71.27,13.47-149.34-22.56-54.36-84.91-80.13-139.27-57.58Z" style="fill: #fff; isolation: isolate; opacity: .9;"/>
            <path d="M218.05,111.78c-1.01,1.04-1.89,2.22-2.6,3.49-2.64,4.69-1.97,10.79,.8,15.4,5.35,8.94,16.98,11.02,25.36,16.26,9.2,5.69,17.32,12.97,23.98,21.5,1.98,2.55,4.98,6.87,7.53,8.84,3.37,2.66,8.2,2.32,11.16-.77,2.97-3.67,2.96-9.23,1.95-13.21-6.12-23.59-17.55-38.35-35.9-50.81-9.96-6.79-22.82-10.38-32.28-.69Z" style="fill: #fff;"/>
            <path d="M130.85,118.86c29.68-29.68,77.81-29.68,107.49,0,29.68,29.68,29.68,77.81,0,107.49-29.68,29.68-77.81,29.68-107.49,0-29.68-29.68-29.68-77.81,0-107.49Z" style="fill: #fff; isolation: isolate; opacity: .6;"/>
            <path d="M276.95,193.6c.29,3.34,2.01,6.39,4.7,8.39,3.06,2.14,7.27,1.42,9.45-1.62,2.13-3.07,2.56-7.01,1.14-10.47-1.55-3.59-5.5-6.46-9.66-5.2-3.88,1.19-5.88,5.52-5.63,8.9Z" style="fill: #fff;"/>
            <path d="M219.56,312.09c-7.34-11.56-13.56-16.83-32.19-18.36-18.63-1.53-50.19-2.45-74.67-29.86,35.28,43.07,85.81,37.76,96.71,64.06,2.08,5.02,7.48,8.66,15.71,9.79,3.55,.42,7.13,.4,10.67-.06-4.64-7.34-11.68-18.39-16.22-25.57Z" style="fill: #ffc100; isolation: isolate; opacity: .15;"/>
            <path d="M258.92,295.7c-3-13.37-2.37-21.48,9.71-35.74,12.08-14.26,33.68-37.26,31.48-74,5.67,55.39-33.74,87.48-22.79,113.84,2.08,5.01,.86,11.41-4.19,17.99-2.2,2.81-4.74,5.34-7.56,7.53-1.93-8.52-4.77-21.26-6.65-29.62Z" style="fill: #ffc100; isolation: isolate; opacity: .15;"/>
          </g>
        </g>
        <g id="freepik--Atom--inject-75">
          <path d="M146.14,158.04c3.17-8.5,12.62-12.82,21.11-9.65,8.5,3.17,12.82,12.62,9.65,21.11-3.17,8.5-12.62,12.82-21.11,9.65-8.5-3.17-12.82-12.62-9.65-21.11Z" style="fill: #ffc100;"/>
          <path d="M163.96,174.39c-8.36,2.12-16.05-3.16-18.84-11.02-.31,9.05,6.78,16.65,15.83,16.96,9.05,.31,16.64-6.78,16.96-15.83,.07-2.08-.25-4.16-.96-6.12,1.16,4.37-4.09,13.75-12.99,16.01Z" style="isolation: isolate; opacity: .2;"/>
          <path d="M171.94,185.93c6.21,6.61,5.89,16.99-.72,23.2-6.61,6.21-16.99,5.89-23.2-.72-6.21-6.6-5.89-16.99,.72-23.2h0c6.61-6.2,16.99-5.88,23.2,.72Z" style="fill: #ffc100;"/>
          <path d="M171.94,185.93c6.21,6.61,5.89,16.99-.72,23.2-6.61,6.21-16.99,5.89-23.2-.72-6.21-6.6-5.89-16.99,.72-23.2h0c6.61-6.2,16.99-5.88,23.2,.72Z" style="fill: #fff; isolation: isolate; opacity: .45;"/>
          <path d="M162.42,207.78c-8.36,2.13-16.05-3.15-18.84-11.02-.32,9.05,6.77,16.65,15.82,16.97,9.05,.32,16.65-6.77,16.97-15.82,.07-2.08-.25-4.17-.96-6.13,1.16,4.36-4.1,13.74-12.99,16Z" style="fill: #ffc100; isolation: isolate; opacity: .2;"/>
          <path d="M196.9,202.35c6.19,6.62,5.85,17.01-.77,23.2-6.62,6.19-17.01,5.85-23.2-.78-6.17-6.6-5.85-16.95,.72-23.15,6.59-6.22,16.98-5.93,23.21,.67,.02,.02,.04,.04,.05,.06Z" style="fill: #ffc100;"/>
          <path d="M196.9,202.35c6.19,6.62,5.85,17.01-.77,23.2-6.62,6.19-17.01,5.85-23.2-.78-6.17-6.6-5.85-16.95,.72-23.15,6.59-6.22,16.98-5.93,23.21,.67,.02,.02,.04,.04,.05,.06Z" style="fill: #fff; isolation: isolate; opacity: .15;"/>
          <path d="M187.38,224.2c-8.37,2.13-16.05-3.16-18.84-11.02-.32,9.05,6.77,16.65,15.82,16.97,9.05,.32,16.65-6.77,16.97-15.82,.07-2.09-.25-4.17-.96-6.13,1.16,4.36-4.06,13.73-12.99,16Z" style="fill: #ffc100; isolation: isolate; opacity: .4;"/>
          <path d="M224.58,189.05c6.21,6.61,5.89,16.99-.72,23.2-6.61,6.21-16.99,5.89-23.2-.72-6.21-6.61-5.89-16.99,.72-23.2h0c6.6-6.21,16.98-5.89,23.19,.7h.01Z" style="fill: #ffc100;"/>
          <path d="M215.06,210.91c-8.36,2.13-16.05-3.16-18.84-11.08-.31,9.05,6.78,16.64,15.83,16.96,9.05,.31,16.65-6.78,16.96-15.83,.07-2.08-.25-4.16-.96-6.12,1.18,4.43-4.09,13.81-12.99,16.07Z" style="isolation: isolate; opacity: .2;"/>
          <path d="M225.24,159.91c6.21,6.61,5.89,16.99-.72,23.2-6.61,6.21-16.99,5.89-23.2-.72-6.21-6.61-5.89-16.99,.72-23.2h0c6.61-6.21,16.99-5.89,23.2,.72Z" style="fill: #ffc100;"/>
          <path d="M225.24,159.91c6.21,6.61,5.89,16.99-.72,23.2-6.61,6.21-16.99,5.89-23.2-.72-6.21-6.61-5.89-16.99,.72-23.2h0c6.61-6.21,16.99-5.89,23.2,.72Z" style="fill: #fff; isolation: isolate; opacity: .45;"/>
          <path d="M215.72,181.76c-8.36,2.13-16.05-3.16-18.84-11.08-.32,9.05,6.77,16.65,15.82,16.97,9.05,.32,16.65-6.77,16.97-15.82,.07-2.08-.25-4.17-.96-6.13,1.16,4.42-4.1,13.8-12.99,16.06Z" style="fill: #ffc100; isolation: isolate; opacity: .2;"/>
          <path d="M219.22,174.16c4.92,5.25,4.66,13.49-.59,18.41-5.25,4.92-13.49,4.66-18.41-.59-4.92-5.24-4.66-13.47,.57-18.4,5.25-4.93,13.49-4.67,18.42,.58Z" style="fill: #ffc100;"/>
          <path d="M219.22,174.16c4.92,5.25,4.66,13.49-.59,18.41-5.25,4.92-13.49,4.66-18.41-.59-4.92-5.24-4.66-13.47,.57-18.4,5.25-4.93,13.49-4.67,18.42,.58Z" style="fill: #fff; isolation: isolate; opacity: .3;"/>
          <path d="M211.66,191.5c-6.65,1.69-12.74-2.51-14.97-8.8-.23,7.2,5.42,13.21,12.62,13.44,7.2,.23,13.21-5.42,13.44-12.62,.05-1.62-.2-3.24-.75-4.78,.89,3.51-3.28,10.96-10.34,12.76Z" style="fill: #ffc100; isolation: isolate; opacity: .5;"/>
          <path d="M170.73,157.34c.03-10.88,8.88-19.68,19.76-19.65,10.88,.03,19.68,8.88,19.65,19.76-.03,10.88-8.88,19.68-19.76,19.65-10.88-.03-19.68-8.88-19.65-19.76Z" style="fill: #ffc100;"/>
          <path d="M170.73,157.34c.03-10.88,8.88-19.68,19.76-19.65,10.88,.03,19.68,8.88,19.65,19.76-.03,10.88-8.88,19.68-19.76,19.65-10.88-.03-19.68-8.88-19.65-19.76Z" style="fill: #fff; isolation: isolate; opacity: .15;"/>
          <path d="M193.38,170.14c-10.04,2.56-19.27-3.78-22.62-13.29-.31,10.87,8.26,19.94,19.13,20.25,10.87,.31,19.94-8.26,20.25-19.13,.07-2.42-.31-4.82-1.11-7.1,1.35,5.3-4.97,16.56-15.64,19.28Z" style="fill: #ffc100; isolation: isolate; opacity: .4;"/>
          <path d="M186.56,167.09c10.88,0,19.71,8.82,19.71,19.71s-8.82,19.71-19.71,19.71-19.71-8.82-19.71-19.71,8.82-19.71,19.71-19.71Z" style="fill: #ffc100;"/>
          <path d="M189.5,199.53c-10.05,2.56-19.27-3.78-22.63-13.29-.33,10.88,8.23,19.96,19.11,20.29,10.88,.33,19.96-8.23,20.29-19.11,.07-2.44-.31-4.87-1.12-7.17,1.35,5.3-4.97,16.56-15.64,19.28Z" style="isolation: isolate; opacity: .2;"/>
          <path d="M152.93,180.89c.22-7.2,6.24-12.85,13.44-12.63,7.2,.22,12.85,6.24,12.63,13.44-.22,7.2-6.24,12.85-13.44,12.63-7.2-.22-12.85-6.24-12.63-13.44Z" style="fill: #ffc100;"/>
          <path d="M152.93,180.89c.22-7.2,6.24-12.85,13.44-12.63,7.2,.22,12.85,6.24,12.63,13.44-.22,7.2-6.24,12.85-13.44,12.63-7.2-.22-12.85-6.24-12.63-13.44Z" style="fill: #fff; isolation: isolate; opacity: .3;"/>
          <path d="M167.9,189.73c-6.65,1.69-12.74-2.45-14.96-8.79-.2,7.19,5.46,13.18,12.65,13.39,7.19,.2,13.18-5.46,13.39-12.65,.04-1.6-.21-3.19-.74-4.7,.92,3.51-3.28,10.96-10.34,12.75Z" style="fill: #ffc100; isolation: isolate; opacity: .5;"/>
          <path d="M317.89,291.34c-.98,0-1.97,0-2.97-.06-.6-.02-1.07-.52-1.05-1.13,.02-.6,.52-1.07,1.13-1.05,3.59,.14,7.19,0,10.76-.39,.6-.07,1.14,.35,1.22,.95,.07,.6-.35,1.14-.95,1.22-2.7,.32-5.41,.47-8.13,.46Zm-13.87-.97h-.15c-3.44-.45-7.1-1.05-10.87-1.79-.58-.17-.92-.78-.75-1.37,.15-.51,.64-.84,1.17-.79,3.67,.74,7.34,1.33,10.74,1.76,.6,.09,1.02,.65,.93,1.25-.08,.53-.53,.93-1.06,.94h0Zm32.4-2.22c-.43,0-.82-.25-.99-.65-.25-.55,0-1.19,.54-1.44h0c1.03-.45,2.01-.98,2.95-1.59,.88-.54,1.7-1.17,2.45-1.88,.95-.88,1.77-1.89,2.45-2.99,.23-.56,.88-.83,1.44-.59,.56,.23,.83,.88,.59,1.44-.05,.13-.13,.24-.22,.34-.78,1.26-1.73,2.41-2.82,3.43-.83,.81-1.75,1.53-2.74,2.14-1.03,.67-2.1,1.25-3.22,1.75-.14,.03-.28,.04-.42,.02l-.02,.02Zm-53.86-1.97c-.09,.01-.18,.01-.27,0-3.44-.86-7.01-1.82-10.61-2.88-.58-.18-.91-.78-.75-1.36,.16-.58,.77-.92,1.35-.75h.01c3.57,1.04,7.11,2.01,10.53,2.87,.59,.14,.95,.72,.81,1.31h0c-.14,.49-.58,.82-1.08,.81h.01Zm-21.03-6.12c-.11,.02-.23,.02-.34,0-3.39-1.11-6.88-2.33-10.38-3.6-.56-.21-.86-.83-.66-1.4,.2-.57,.82-.87,1.39-.67h.02c3.48,1.23,6.95,2.46,10.32,3.58,.57,.19,.88,.81,.7,1.38-.17,.43-.59,.71-1.05,.69h.01Zm-20.6-7.43c-.14,0-.27-.03-.39-.08-3.34-1.3-6.77-2.69-10.17-4.13-.56-.23-.82-.87-.59-1.43,.23-.56,.88-.82,1.43-.59,3.39,1.43,6.81,2.8,10.12,4.11,.56,.22,.84,.86,.62,1.42-.17,.42-.59,.69-1.04,.69h.01Zm106.12-1.48c-.59,0-1.07-.46-1.1-1.04-.27-3.53-1.12-6.98-2.51-10.23-.22-.56,.05-1.19,.6-1.42h0c.55-.23,1.18,.02,1.41,.57v.02c1.5,3.48,2.4,7.17,2.68,10.94,.03,.6-.42,1.12-1.03,1.15h-.06Zm-126.27-6.99c-.16,0-.31-.03-.45-.09-3.28-1.47-6.63-3-9.98-4.57-.55-.26-.78-.91-.53-1.46,.26-.55,.91-.78,1.46-.53h0c3.33,1.55,6.67,3.08,9.94,4.54,.55,.23,.81,.87,.58,1.43-.17,.41-.58,.67-1.02,.67Zm-19.83-9.3c-.17,0-.34-.04-.49-.11-2.02-1-4.06-2.01-6.12-3.04-1.22-.62-2.45-1.22-3.67-1.92-.53-.28-.74-.95-.45-1.48,.28-.53,.95-.74,1.48-.45,1.22,.65,2.45,1.22,3.67,1.9,2.03,1.03,4.05,2.04,6.06,3.04,.54,.25,.77,.9,.51,1.43v.02c-.2,.4-.61,.64-1.05,.61h.06Zm138.55-4.03c-.38,0-.73-.2-.93-.53-1.75-2.85-3.82-5.85-6.12-8.92-.37-.48-.27-1.16,.2-1.53h0c.48-.37,1.17-.28,1.54,.21,2.37,3.12,4.49,6.12,6.28,9.1,.31,.52,.15,1.19-.37,1.5-.2,.13-.44,.19-.67,.17h.06Zm-157.99-6.06c-.18,0-.37-.04-.53-.13-3.26-1.77-6.47-3.52-9.62-5.25-.53-.3-.72-.96-.42-1.49,.29-.53,.96-.72,1.49-.42,3.1,1.71,6.3,3.46,9.6,5.24,.53,.28,.74,.94,.46,1.47h0c-.2,.38-.6,.61-1.03,.59h.06Zm-19.13-10.66c-.19,0-.38-.05-.55-.15-3.15-1.85-6.32-3.75-9.41-5.64-.51-.31-.68-.99-.36-1.5,.31-.51,.99-.67,1.5-.36h0c3.08,1.89,6.24,3.77,9.38,5.61,.52,.31,.7,.98,.39,1.5-.21,.35-.59,.56-1,.54h.06Zm163.96-.76c-.31,0-.61-.14-.82-.38-1.51-1.71-3.11-3.49-4.79-5.26-.84-.91-1.71-1.82-2.61-2.74-.42-.43-.41-1.12,.02-1.54,.43-.42,1.12-.41,1.54,.02,.91,.92,1.77,1.84,2.64,2.75,1.68,1.8,3.31,3.59,4.84,5.33,.39,.47,.33,1.18-.15,1.57-.19,.16-.43,.25-.68,.26Zm-182.68-10.66c-.21,0-.41-.06-.59-.17-3.07-1.95-6.12-3.97-9.2-5.97-.5-.34-.64-1.02-.3-1.52,.34-.5,1.02-.64,1.52-.3,3.04,2.01,6.12,4,9.18,5.95,.51,.34,.65,1.02,.31,1.53-.2,.3-.54,.49-.9,.49h-.02Zm167.42-5.08c-.28,0-.55-.11-.75-.31-2.56-2.45-5.26-4.9-8.05-7.34-.42-.44-.39-1.14,.05-1.56,.39-.36,.98-.4,1.4-.08,2.8,2.45,5.53,4.98,8.1,7.43,.43,.43,.43,1.12,0,1.54h0c-.21,.22-.5,.33-.8,.32h.04Zm-185.69-7.03c-.22,0-.44-.07-.62-.2-3.02-2.08-6.03-4.21-8.97-6.33-.53-.3-.71-.98-.4-1.5,.3-.53,.98-.71,1.5-.41,.07,.04,.13,.08,.19,.13,2.91,2.11,5.92,4.22,8.92,6.3,.5,.35,.63,1.03,.28,1.53-.21,.3-.56,.48-.93,.46h.04Zm-17.77-12.82c-.24,.01-.49-.06-.69-.2-2.95-2.23-5.86-4.49-8.69-6.72-.51-.34-.65-1.02-.31-1.53,.34-.51,1.02-.65,1.53-.31,.05,.04,.11,.08,.15,.12,2.8,2.22,5.7,4.47,8.64,6.68,.49,.35,.6,1.04,.24,1.52-.21,.29-.55,.46-.9,.45l.02-.02Zm-17.2-13.66c-.26,0-.51-.09-.71-.26-2.85-2.45-5.66-4.8-8.32-7.16-.46-.4-.5-1.1-.1-1.55,.4-.45,1.09-.49,1.54-.09h0c2.66,2.35,5.45,4.75,8.29,7.13,.47,.38,.54,1.07,.16,1.53-.21,.26-.52,.4-.85,.4h0Zm-16.39-14.49c-.28,0-.55-.12-.76-.31-2.73-2.59-5.36-5.19-7.82-7.72-.43-.43-.43-1.12,0-1.55,.43-.42,1.12-.42,1.55,0,2.45,2.51,5.06,5.09,7.77,7.66,.42,.43,.42,1.12,0,1.55-.19,.21-.46,.34-.75,.37Zm-15.24-15.74c-.31,0-.61-.13-.82-.37-2.55-2.9-4.9-5.77-7.01-8.57-.21-.57,.09-1.2,.66-1.41,.37-.13,.78-.06,1.08,.19,2.08,2.72,4.41,5.55,6.92,8.41,.4,.45,.36,1.14-.09,1.54-.2,.18-.46,.27-.73,.27v-.06Zm-13.2-17.5c-.38,0-.73-.19-.93-.51-1.98-3.14-3.69-6.44-5.13-9.87-.23-.56,.04-1.2,.59-1.43,.56-.23,1.2,.04,1.43,.59h0c1.4,3.31,3.06,6.5,4.97,9.55,.32,.51,.16,1.18-.35,1.5h0c-.17,.11-.37,.16-.58,.16Zm-7.71-20.26c-.58,0-1.06-.46-1.09-1.04v-1.47c-.07-3.4,.83-6.76,2.59-9.67,.34-.51,1.03-.66,1.54-.32,.51,.34,.66,1.03,.32,1.54h0c-1.55,2.56-2.34,5.5-2.26,8.5v1.4c.03,.6-.44,1.11-1.04,1.14h-.01l-.05-.07Zm85.69-9.06c-.11,.02-.23,.02-.34,0-3.54-1.22-7.04-2.26-10.42-3.26-.58-.17-.91-.77-.74-1.35,.17-.58,.77-.91,1.35-.74,3.4,.99,6.94,2.09,10.49,3.27,.57,.18,.89,.8,.7,1.37h0c-.14,.45-.55,.75-1.02,.76l-.02-.05Zm-21.02-6.12h-.27c-3.67-.92-7.22-1.73-10.64-2.45-.56-.12-.94-.65-.86-1.22,.12-.56,.66-.93,1.22-.86,3.44,.67,7.05,1.49,10.74,2.45,.59,.13,.96,.71,.84,1.29-.11,.51-.57,.88-1.09,.86l.06-.07Zm-53.86-2.09c-.43,0-.82-.26-1-.65-.24-.55,.01-1.2,.56-1.44,3.48-1.44,7.15-2.36,10.89-2.74,.59-.08,1.13,.33,1.22,.92,0,.02,0,.04,0,.05,.08,.6-.34,1.14-.94,1.22h-.02c-3.53,.35-6.99,1.22-10.27,2.57-.15,.07-.32,.11-.49,.11l.04-.04Zm32.43-2.09h-.15c-3.81-.5-7.44-.81-10.8-.93-.61,.04-1.13-.42-1.17-1.03-.04-.61,.42-1.13,1.03-1.17,.07,0,.15,0,.22,0,3.43,.12,7.12,.44,11.02,.94,.6,.08,1.03,.62,.96,1.22-.05,.58-.55,1.02-1.14,.99l.04-.04Z" style="fill: #fff;"/>
          <path d="M146.19,362.46c-1.92,0-3.83-.33-5.64-.98-.57-.21-.86-.83-.65-1.4,.21-.57,.83-.86,1.4-.66h0c1.57,.57,3.23,.85,4.9,.84h0c1.75-.01,3.48-.27,5.15-.77l.33,1.04,.23,1.08c-1.86,.54-3.78,.83-5.72,.84h0Zm15.22-5.75c-.36,0-.69-.17-.89-.46-.35-.49-.23-1.18,.26-1.53,2.38-1.7,4.64-3.56,6.76-5.58,.48-.44,.96-.91,1.44-1.38,.43-.42,1.13-.41,1.55,.02,.42,.43,.41,1.13-.02,1.55l-1.47,1.42c-2.2,2.09-4.54,4.02-7,5.78-.18,.12-.4,.19-.62,.18h0Zm-28.94-1.84c-.35,0-.68-.16-.88-.44-2.15-3.06-3.86-6.42-5.06-9.96-.21-.57,.09-1.2,.66-1.41,.57-.2,1.19,.09,1.39,.66h0c1.13,3.37,2.74,6.55,4.77,9.46,.36,.48,.26,1.16-.22,1.52h0c-.2,.13-.43,.18-.66,.16h0Zm44.63-13.32c-.61-.01-1.09-.51-1.08-1.12,0-.25,.09-.49,.25-.68,2.18-2.62,4.41-5.52,6.63-8.57,.41-.44,1.1-.47,1.54-.06,.35,.33,.45,.85,.24,1.28-2.25,3.13-4.52,6.12-6.73,8.74-.21,.25-.52,.4-.84,.4h0Zm-52.34-6.98c-.53,0-.98-.38-1.08-.89-.65-3.37-1.22-7.04-1.54-10.94-.06-.6,.38-1.14,.99-1.19,.6-.06,1.14,.38,1.19,.99,.37,3.83,.88,7.44,1.52,10.74,.08,.57-.3,1.11-.87,1.22l-.21,.08Zm65.2-10.75c-.21,0-.42-.05-.6-.17-.5-.33-.65-1.01-.32-1.52,1.9-2.94,3.82-6.06,5.72-9.28,.3-.52,.97-.7,1.49-.39h0c.52,.31,.7,.98,.39,1.51-1.91,3.24-3.86,6.39-5.77,9.35-.2,.31-.55,.5-.92,.5h0Zm-67.41-11.02c-.59,0-1.08-.47-1.09-1.07,0-2.12-.1-4.32-.1-6.57v-4.42c.02-.6,.51-1.08,1.11-1.08,.6,0,1.08,.5,1.08,1.1h0v4.39c0,2.23,0,4.42,.1,6.51,.02,.6-.45,1.11-1.05,1.13h-.05Zm78.54-7.83c-.18,0-.36-.04-.51-.13-.53-.28-.73-.93-.46-1.45v-.03c1.7-3.12,3.42-6.37,5.08-9.67,.32-.52,1-.68,1.52-.36,.46,.28,.64,.85,.44,1.35-1.69,3.32-3.4,6.59-5.1,9.72-.19,.36-.56,.58-.97,.58h0Zm-78.16-14.05h-.06c-.6-.04-1.06-.56-1.03-1.16,.21-3.54,.49-7.22,.83-10.94,.06-.61,.61-1.06,1.22-.99,.61,.06,1.05,.59,.99,1.2v.02c-.34,3.67-.63,7.34-.83,10.88-.05,.58-.55,1.01-1.13,.99h0Zm88.14-5.47c-.17,0-.33-.04-.48-.11-.54-.26-.77-.91-.51-1.46,1.53-3.23,3.07-6.57,4.57-9.93,.25-.55,.89-.8,1.44-.55,.55,.25,.8,.89,.55,1.45h0c-1.49,3.37-3.05,6.72-4.58,9.98-.2,.4-.61,.64-1.05,.62h.06Zm8.92-20c-.15,0-.29-.03-.43-.09-.55-.24-.82-.88-.59-1.43,1.4-3.32,2.79-6.72,4.14-10.11,.22-.56,.86-.84,1.42-.62,.56,.23,.83,.87,.61,1.43-1.35,3.4-2.74,6.82-4.15,10.15-.17,.43-.6,.71-1.07,.67h.06Zm8.07-20.36c-.13,.02-.25,.02-.38,0-.57-.22-.86-.85-.65-1.42,1.22-3.39,2.53-6.84,3.73-10.27,.25-.55,.91-.8,1.46-.55,.49,.22,.74,.76,.61,1.28-1.22,3.43-2.45,6.9-3.75,10.31-.19,.43-.62,.69-1.09,.65h.06Zm7.35-20.65c-.6,.01-1.09-.46-1.1-1.05,0-.13,.02-.26,.06-.38,1.14-3.43,2.28-6.93,3.35-10.41,.18-.58,.8-.91,1.38-.72h0c.57,.18,.89,.79,.71,1.37h0c-1.09,3.5-2.23,7.02-3.37,10.45-.14,.52-.63,.86-1.16,.81l.12-.06Zm6.54-20.9c-.1,.02-.2,.02-.31,0-.58-.17-.91-.78-.75-1.36,1.03-3.5,2.03-7.04,2.99-10.5,.15-.58,.75-.93,1.33-.78h.02c.58,.17,.92,.77,.76,1.35-.96,3.49-1.96,7.03-2.99,10.54-.16,.5-.66,.81-1.17,.75h.12Zm5.78-21.1h-.27c-.58-.14-.93-.73-.79-1.3v-.02c.37-1.44,.73-2.88,1.08-4.32,.53-2.11,1.03-4.21,1.53-6.29,.14-.59,.73-.95,1.32-.81,.59,.14,.95,.73,.81,1.32h0c-.5,2.09-1,4.2-1.53,6.32-.36,1.45-.72,2.89-1.09,4.33-.15,.52-.65,.85-1.19,.78h.12Zm5.03-21.3h-.23c-.59-.13-.96-.72-.83-1.31,.77-3.6,1.52-7.2,2.2-10.7,.11-.59,.69-.98,1.28-.86,.59,.12,.98,.69,.86,1.28-.69,3.53-1.43,7.14-2.2,10.75-.13,.55-.64,.91-1.2,.84h.12Zm4.19-21.5h-.18c-.58-.11-.97-.64-.89-1.22,.62-3.6,1.22-7.23,1.74-10.77,.09-.59,.63-1,1.22-.93,.58,.1,.99,.64,.92,1.22-.53,3.56-1.11,7.21-1.74,10.83-.12,.55-.63,.92-1.19,.87h.12Zm3.1-21.64h-.13c-.6-.08-1.03-.62-.96-1.22,.45-3.67,.84-7.34,1.22-10.86,.09-.6,.64-1.02,1.25-.94,.56,.08,.97,.58,.95,1.14-.33,3.55-.73,7.22-1.22,10.92-.07,.55-.54,.96-1.1,.96Zm2.01-21.8h-.07c-.6-.03-1.06-.55-1.03-1.15h0c.22-3.75,.37-7.35,.43-10.9,0-.59,.48-1.08,1.08-1.08,.01,0,.02,0,.04,0,.6,0,1.08,.5,1.08,1.1h0c-.06,3.54-.21,7.23-.43,11.03-.06,.56-.53,.98-1.09,.98h0Zm-78.16-14.05c-.18,0-.36-.05-.53-.13-.53-.29-.72-.95-.44-1.48,1.8-3.3,3.67-6.51,5.42-9.56,.3-.52,.97-.7,1.49-.39,.52,.3,.7,.97,.39,1.49h0c-1.79,3.04-3.6,6.23-5.39,9.5-.19,.35-.56,.57-.96,.56h0Zm78.54-7.81c-.59,0-1.08-.47-1.09-1.07-.12-3.79-.34-7.46-.67-10.85-.06-.6,.38-1.14,.98-1.2,.6-.06,1.14,.38,1.2,.98,.33,3.45,.56,7.15,.69,11.02,0,.6-.46,1.1-1.06,1.13h-.04Zm-67.39-11.03c-.21,0-.41-.06-.59-.17-.51-.32-.66-.99-.34-1.5v-.02c2.08-3.19,4.16-6.25,6.2-9.09,.36-.49,1.04-.6,1.53-.26,.49,.36,.6,1.04,.25,1.53-2.02,2.82-4.09,5.84-6.12,9.01-.21,.31-.57,.49-.94,.48v.02Zm65.2-10.72c-.52,0-.97-.37-1.08-.88-.65-3.54-1.57-7.02-2.74-10.42-.2-.57,.09-1.19,.66-1.39h0c.57-.21,1.2,.09,1.41,.66,1.2,3.5,2.15,7.09,2.83,10.74,.08,.57-.3,1.11-.87,1.22l-.21,.07Zm-52.33-7c-.25,0-.5-.08-.7-.24-.46-.39-.53-1.08-.15-1.54,2.51-3.02,5.02-5.78,7.45-8.18,.44-.42,1.14-.4,1.56,.04,.42,.44,.4,1.14-.04,1.56-2.37,2.34-4.9,5.04-7.34,8.01-.21,.21-.5,.33-.8,.33v.02Zm44.63-13.33c-.35,0-.68-.17-.88-.45-.74-1.01-1.55-1.95-2.45-2.82-1.57-1.54-3.45-2.73-5.51-3.5-.57-.21-.86-.83-.66-1.4,.21-.57,.83-.86,1.4-.66,2.35,.88,4.5,2.24,6.29,4,.99,.95,1.88,1.99,2.68,3.11,.36,.47,.27,1.15-.2,1.51l-.03,.02c-.19,.12-.42,.19-.65,.18Zm-28.91-1.85c-.6,0-1.1-.47-1.1-1.08,0-.36,.17-.7,.47-.91,3.06-2.24,6.47-3.95,10.09-5.07,.58-.18,1.19,.15,1.37,.73,.18,.58-.15,1.19-.73,1.36h0c-3.37,1.06-6.54,2.66-9.39,4.75-.2,.15-.45,.22-.7,.21Z" style="fill: #fff;"/>
          <path d="M88.36,258.58c-3.82,0-7.49-.07-11.02-.22-.6-.09-1.02-.64-.94-1.25,.07-.52,.51-.92,1.03-.95,3.48,.15,7.12,.23,10.86,.23,.61,0,1.1,.48,1.11,1.09,0,.59-.46,1.08-1.05,1.09Zm10.94-.2c-.61-.06-1.04-.61-.98-1.21,.05-.52,.46-.92,.98-.98,3.54-.12,7.2-.32,10.91-.56,.6-.07,1.15,.37,1.22,.97,0,.02,0,.04,0,.06,.04,.6-.41,1.12-1.01,1.16h0c-3.73,.25-7.42,.44-11.02,.56h-.1Zm-32.76-.77h-.11c-3.84-.37-7.53-.86-10.93-1.44-.59-.1-1-.67-.89-1.26,.1-.6,.67-1,1.26-.89h0c3.35,.58,6.99,1.05,10.77,1.42,.61,.06,1.05,.59,.99,1.2v.02c-.08,.54-.54,.95-1.09,.96Zm54.68-.66c-.61-.03-1.08-.54-1.05-1.15,.02-.53,.42-.97,.94-1.04,3.59-.33,7.23-.72,10.87-1.15,.6-.07,1.15,.36,1.22,.96h0c.08,.6-.34,1.15-.94,1.23h-.02c-3.67,.43-7.34,.82-10.92,1.15h-.11Zm21.75-2.56c-.6,.04-1.12-.41-1.17-1.01-.04-.6,.41-1.12,1.01-1.17,3.54-.5,7.17-1.04,10.81-1.63,.6-.1,1.16,.3,1.25,.9,.1,.59-.3,1.16-.9,1.25h0c-3.67,.59-7.34,1.14-10.86,1.64h-.15Zm-97.93-.6h-.29c-3.58-1-7.07-2.31-10.42-3.93-.54-.27-.76-.92-.5-1.46,.27-.54,.92-.76,1.46-.5h0c3.23,1.56,6.6,2.82,10.05,3.78,.58,.15,.93,.75,.77,1.33-.13,.49-.58,.82-1.08,.81v-.04Zm119.6-2.88c-.6,.02-1.11-.45-1.13-1.05-.02-.55,.38-1.03,.93-1.12,3.26-.6,6.6-1.22,9.93-1.9l.81-.16c.59-.12,1.17,.26,1.29,.85,.12,.59-.26,1.17-.85,1.29l-.81,.17c-3.35,.66-6.71,1.3-9.98,1.9h-.2Zm21.5-4.21c-.6,.04-1.12-.41-1.16-1.01-.04-.57,.37-1.08,.94-1.16,3.67-.75,7.23-1.53,10.66-2.35,.59-.14,1.18,.23,1.32,.82,.14,.59-.23,1.17-.81,1.31h0c-3.44,.82-7.05,1.62-10.72,2.36l-.22,.02Zm-160.24-3.13c-.31,0-.61-.13-.82-.36l-.13-.16c-2.61-2.85-4.17-6.5-4.44-10.36,.02-.61,.52-1.09,1.13-1.07,.54,.01,.98,.41,1.06,.94,.23,3.38,1.61,6.59,3.91,9.08l.11,.12c.4,.45,.37,1.13-.07,1.54-.2,.17-.47,.27-.73,.26Zm181.42-1.92c-.61-.02-1.09-.52-1.07-1.13,.01-.47,.33-.88,.78-1.02,1.22-.32,2.37-.66,3.54-1,2.37-.62,4.7-1.22,7.03-1.88,.58-.16,1.18,.18,1.34,.76,.16,.58-.18,1.18-.77,1.34-2.33,.65-4.66,1.22-7.01,1.9l-3.55,1c-.09,.03-.19,.04-.28,.04Zm21.09-5.9c-.61,0-1.09-.51-1.08-1.12,0-.48,.32-.89,.78-1.03,3.5-1.03,7.01-2.11,10.45-3.2,.59-.13,1.18,.24,1.31,.84,.12,.52-.16,1.05-.65,1.26-3.45,1.09-6.98,2.17-10.5,3.21-.09,.03-.19,.04-.28,.04h-.02Zm20.88-6.59c-.47,0-.88-.3-1.03-.75-.22-.57,.06-1.21,.63-1.43,.02,0,.03-.01,.05-.02,3.45-1.16,6.93-2.36,10.32-3.59,.56-.21,1.19,.08,1.4,.64v.02c.2,.57-.09,1.19-.65,1.4-3.42,1.22-6.9,2.45-10.37,3.61-.1,.05-.21,.08-.32,.1h-.02Zm-225.24-5.92c-.17,0-.34-.04-.49-.12-.53-.26-.75-.91-.49-1.44v-.03c1.76-3.31,3.92-6.38,6.45-9.14,.4-.45,1.08-.5,1.54-.1h0c.45,.41,.49,1.11,.09,1.56-2.4,2.62-4.46,5.54-6.12,8.68-.18,.35-.55,.58-.94,.59h-.04Zm245.84-1.47c-.61-.02-1.09-.53-1.07-1.13,.01-.43,.28-.82,.68-.98,3.43-1.32,6.85-2.67,10.16-4.03,.56-.23,1.2,.04,1.43,.59,.23,.56-.04,1.2-.59,1.43-3.33,1.37-6.76,2.73-10.21,4.05-.11,.04-.23,.06-.35,.06h-.04Zm20.27-8.31c-.43,0-.82-.26-1-.65-.25-.55,0-1.19,.55-1.44h.01c3.38-1.5,6.73-3.03,9.94-4.55,.55-.26,1.2-.02,1.46,.53,.26,.55,.02,1.2-.53,1.46h0c-3.22,1.53-6.59,3.06-9.99,4.55-.13,.05-.26,.08-.4,.09h-.04Zm-251.93-6.72c-.61,0-1.1-.5-1.09-1.11,0-.32,.14-.61,.38-.82,2.59-2.23,5.53-4.5,8.72-6.78,.44-.41,1.13-.38,1.54,.06,.41,.44,.38,1.13-.06,1.54-.08,.07-.16,.13-.26,.18-3.13,2.24-6.01,4.48-8.57,6.67-.19,.16-.42,.25-.66,.27Zm271.76-2.68c-.41,0-.78-.22-.97-.59-.28-.54-.07-1.2,.47-1.48,3.33-1.7,6.56-3.44,9.62-5.17,.53-.29,1.19-.11,1.49,.42,.29,.53,.1,1.19-.42,1.49-3.07,1.74-6.33,3.49-9.68,5.21-.16,.07-.34,.11-.51,.11h.01Zm-254.01-10.09c-.6,0-1.09-.48-1.1-1.08,0-.38,.2-.74,.52-.94,2.97-1.86,6.12-3.76,9.46-5.61,.52-.3,1.19-.12,1.49,.4h0c.29,.54,.11,1.21-.42,1.5-3.28,1.84-6.43,3.67-9.38,5.56-.18,.11-.38,.16-.59,.16Zm273.07-.64c-.6,.01-1.1-.47-1.11-1.07,0-.39,.19-.75,.52-.95,3.21-2.02,6.26-4.05,9.05-6.06,.49-.35,1.17-.24,1.52,.25h0c.35,.49,.24,1.17-.24,1.52h-.02c-2.83,2.05-5.9,4.11-9.16,6.13-.18,.1-.37,.14-.58,.13v.05Zm-253.95-10.17c-.6,.01-1.1-.46-1.11-1.06,0-.43,.23-.82,.61-1,3.16-1.63,6.48-3.26,9.79-4.9,.55-.26,1.2-.03,1.47,.51,.26,.54,.03,1.19-.52,1.45h-.01c-3.37,1.61-6.66,3.22-9.79,4.84-.14,.08-.29,.13-.44,.16Zm271.76-2.71c-.32,0-.62-.14-.82-.39-.4-.45-.35-1.14,.1-1.54h0c1.1-.94,2.14-1.88,3.12-2.8,1.69-1.59,3.24-3.18,4.61-4.74,.36-.49,1.05-.6,1.54-.24,.49,.36,.6,1.05,.24,1.54-.04,.06-.09,.11-.14,.15-1.42,1.59-3.01,3.23-4.75,4.9-1,.94-2.08,1.91-3.2,2.87-.22,.2-.51,.3-.81,.29l.09-.05Zm14.09-16.6c-.17,0-.34-.04-.49-.11-.54-.27-.76-.93-.49-1.47,.5-1.01,.93-2.05,1.3-3.12,.68-1.9,1.04-3.9,1.07-5.91v-.95c0-.61,.51-1.09,1.12-1.09,.54,0,.99,.4,1.07,.94v1.1c-.04,2.26-.45,4.5-1.22,6.62-.39,1.16-.86,2.29-1.41,3.38-.19,.39-.59,.63-1.03,.61h.09Zm-1.77-20.08c-.31,0-.61-.13-.82-.37-2.39-2.58-5.25-4.68-8.43-6.18-.54-.27-.76-.93-.49-1.47s.93-.76,1.47-.49c3.44,1.63,6.53,3.9,9.11,6.7,.39,.46,.34,1.14-.11,1.54-.2,.17-.46,.27-.72,.27Zm-18.99-10.32c-.1,.01-.2,.01-.31,0-3.47-.99-7-1.78-10.56-2.38-.59-.14-.96-.73-.82-1.33,.13-.54,.64-.91,1.2-.84,3.64,.62,7.24,1.44,10.8,2.45,.58,.18,.91,.8,.73,1.38-.14,.46-.56,.77-1.03,.78v-.06Zm-21.48-3.89h-.11c-3.44-.34-7.1-.6-10.86-.76-.6-.02-1.07-.52-1.05-1.12h0c.04-.61,.54-1.07,1.14-1.07,3.81,.17,7.5,.43,11.02,.77,.6,.03,1.06,.54,1.03,1.14-.03,.6-.54,1.06-1.14,1.03h-.02Zm-32.82-.8c-.6-.06-1.04-.61-.98-1.21,.05-.52,.46-.92,.98-.98,3.67-.13,7.34-.2,10.82-.2h.17c.6,.06,1.04,.61,.98,1.21-.05,.52-.46,.92-.98,.98h-.21c-3.46,0-7.08,0-10.74,.2h-.05Z" style="fill: #fff;"/>
          <path d="M33.61,196.23c6.79-1.43,13.46,2.91,14.89,9.71,1.43,6.79-2.91,13.46-9.71,14.9-6.79,1.43-13.46-2.91-14.89-9.71-1.43-6.79,2.92-13.46,9.71-14.9Z" style="fill: #ffc100;"/>
          <path d="M33.61,196.23c6.79-1.43,13.46,2.91,14.89,9.71,1.43,6.79-2.91,13.46-9.71,14.9-6.79,1.43-13.46-2.91-14.89-9.71-1.43-6.79,2.92-13.46,9.71-14.9Z" style="fill: #fff; isolation: isolate; opacity: .2;"/>
          <path d="M44.12,211.15c-1.93,6.33-8.45,9.25-14.69,7.93,5.83,3.77,13.61,2.11,17.39-3.72,3.77-5.83,2.11-13.61-3.72-17.39-1.29-.84-2.73-1.43-4.24-1.75,3.28,1.03,7.32,8.2,5.26,14.92Z" style="fill: #fff; isolation: isolate; opacity: .15;"/>
          <path d="M250.88,71.39c2.66-6.41,10.01-9.46,16.43-6.8,6.41,2.66,9.46,10.01,6.8,16.43-2.66,6.42-10.01,9.46-16.43,6.8-6.41-2.66-9.46-10.01-6.8-16.43Z" style="fill: #ffc100;"/>
          <path d="M250.88,71.39c2.66-6.41,10.01-9.46,16.43-6.8,6.41,2.66,9.46,10.01,6.8,16.43-2.66,6.42-10.01,9.46-16.43,6.8-6.41-2.66-9.46-10.01-6.8-16.43Z" style="fill: #fff; isolation: isolate; opacity: .5;"/>
          <path d="M258.29,83.4c-5.79-3.19-7.34-10.17-4.71-16.06-4.9,4.92-4.88,12.88,.04,17.78,4.92,4.9,12.88,4.88,17.78-.04,1.09-1.1,1.97-2.39,2.6-3.81-1.7,3.06-9.56,5.53-15.71,2.13Z" style="fill: #fff; isolation: isolate; opacity: .35;"/>
          <path d="M340.49,252.65c-5.12,4.69-13.07,4.34-17.76-.78-4.69-5.12-4.34-13.07,.78-17.76s13.07-4.34,17.76,.78c4.69,5.12,4.34,13.07-.78,17.76h0Z" style="fill: #ffc100;"/>
          <path d="M340.49,252.65c-5.12,4.69-13.07,4.34-17.76-.78-4.69-5.12-4.34-13.07,.78-17.76s13.07-4.34,17.76,.78c4.69,5.12,4.34,13.07-.78,17.76h0Z" style="fill: #fff; isolation: isolate; opacity: .5;"/>
          <path d="M323.86,245.12c-1.55-6.43,2.57-12.24,8.67-14.32-6.94-.27-12.78,5.13-13.05,12.07-.27,6.94,5.13,12.78,12.07,13.06,1.52,.06,3.04-.16,4.49-.64-3.39,.8-10.53-3.33-12.17-10.16Z" style="fill: #fff; isolation: isolate; opacity: .35;"/>
        </g>
      </g>
    </g>
  </g>
</svg>