<?xml version="1.0" encoding="UTF-8"?>
<svg id="Capa_2" data-name="Capa 2" xmlns="http://www.w3.org/2000/svg" viewBox="0 0 85.45 55.2">
  <defs>
    <style>
      .cls-1 {
        fill: #070809;
      }
    </style>
  </defs>
  <g id="Capa_1-2" data-name="Capa 1">
    <g>
      <path class="cls-1" d="M47.94,41.31l-.55-1.88,1.49-1.14h-1.83l-.6-1.84-.59,1.84h-1.87l1.53,1.14-.6,1.88,1.53-1.18,1.5,1.18Zm6-6.49c-.93,.44-1.87,.7-2.85,.7-.85,0-1.62-.18-2.39-.48-.21-.13-.43-.22-.64-.34l4.39,5.83,.3-.31c1.23-1.32,2.26-2.8,2.94-4.52,.19-.46,.29-.77,.43-1.14-.26-.09-.52-.13-.77-.13-.43,0-.94,.13-1.41,.4m2.77-3.51c.04-.4,.04-.74,.04-1.1v-1.67c-.12-.09-.21-.13-.26-.18-.29-.17-.63-.26-1.14-.26-.6,0-1.07,.09-1.41,.31-1.02,.53-1.96,.79-2.85,.79s-1.62-.18-2.34-.52c0,.7-.12,1.05-.34,1.66,.04,.31,.34,.66,.64,1.06h0c.3,.26,.6,.44,.9,.61,.34,.14,.73,.23,1.15,.23,.47,0,.94-.14,1.37-.35,.98-.48,1.96-.75,2.9-.75,.47,0,.93,.04,1.36,.18m-17.1,8.81l1.49,1.18-.56-1.88,1.49-1.14h-1.83l-.6-1.84-.6,1.84h-1.87l1.54,1.14-.6,1.88,1.53-1.18Zm-7.57-5.31c-.55-.26-1.06-.4-1.49-.4-.21,0-.43,0-.63,.09,.07,.4,.25,.78,.42,1.18,.73,1.8,1.7,3.29,2.94,4.52,.08,.08,.17,.18,.3,.27l4.35-5.83c-.21,.13-.43,.26-.69,.39-.77,.31-1.62,.48-2.42,.48-1.03,0-1.96-.26-2.78-.7m5.55-4.52c-.26-.57-.39-1.23-.43-1.93-.73,.35-1.5,.84-2.34,.84-.98,0-1.88-.26-2.78-.79-.38-.22-.86-.31-1.49-.31-.47,0-.85,.09-1.11,.26l-.21,.13v1.71c0,.36,0,.7,.04,1.05,.42-.09,.85-.13,1.28-.13,1.06,0,2,.22,2.94,.75,.47,.21,.9,.35,1.33,.35s.84-.09,1.15-.23c.38-.17,.69-.39,.94-.65l.33-.44c.18-.22,.26-.35,.31-.48l.04-.13Zm.25-1.58c.09,.48,.22,1.01,.43,1.54,.26,.65,.6,1.22,1.07,1.71,.25,.18,.47,.4,.76,.57,.04,.04,.13,.09,.22,.13,.21,.18,.42,.31,.68,.4,.51,.22,1.2,.35,1.96,.4,.81-.04,1.45-.17,2-.4,.21-.09,.47-.22,.69-.4,.21-.13,.42-.26,.64-.43,.08-.09,.21-.18,.29-.27,.47-.48,.85-1.05,1.11-1.71,.03-.07,.05-.11,.09-.18,.16-.36,.29-.52,.34-1.31v-7.32h-10.32v6.71c0,.17,.04,.39,.04,.57m-8.61-3.77c.38-.09,.85-.13,1.32-.13,1.11,0,2.04,.22,2.94,.7,.39,.26,.81,.39,1.33,.39,.34,0,.77-.09,1.15-.26,.34-.17,.64-.39,.94-.61l.25-.26v-2.72c-.73,.3-1.5,.52-2.34,.52-.98,0-1.88-.3-2.78-.79-.38-.22-.9-.35-1.49-.35-.47,0-.85,.08-1.11,.26l-.22,.16v3.08m0-14.34v7.67c.38-.09,.85-.14,1.32-.14,1.11,0,2.04,.27,2.94,.75,.43,.22,.86,.35,1.33,.35,.34,0,.68-.04,1.06-.22l-6.65-8.41Zm19.82,14.42c.22,.22,.51,.44,.85,.61l.08,.04c.25,.1,.39,.15,.55,.18,.16,.02,.38,.04,.55,.04,.52,0,.94-.13,1.37-.39,.89-.48,1.87-.7,2.9-.7,.47,0,.89,.04,1.4,.18v-3.15c-.08-.04-.17-.11-.26-.13-.29-.18-.68-.26-1.14-.26-.6,0-1.07,.13-1.41,.35-1.02,.48-1.96,.79-2.85,.79s-1.62-.22-2.34-.57v2.72c.09,.08,.3,.3,.3,.3m1.49-5.83c.17,.04,.38,.04,.55,.04,.52,0,.94-.13,1.37-.35,.89-.48,1.87-.75,2.9-.75,.47,0,.89,.04,1.4,.18v-7.72s-6.3,8.55-6.22,8.59M43.5,2.63h-.94c-.21-.57-.51-1.01-.89-1.31-.43-.35-.98-.53-1.54-.53h-7.24V9.83h7.24c.51,0,1.02,.08,1.49,.35,.25,.13,.56,.35,.81,.57,.26,.4,.47,.66,.55,.83,.09-.17,.26-.44,.56-.83,.25-.22,.51-.44,.81-.57,.47-.26,.94-.35,1.49-.35h7.16V.79h-7.16c-.6,0-1.1,.18-1.49,.53-.46,.35-.77,.79-.85,1.31m.43-1.93c.51-.44,1.15-.7,1.92-.7h7.55c.13,0,.17,.04,.26,.13,.08,.04,.08,.09,.12,.13V9.87h3.2l.21,.04c.09,0,.13,.05,.17,.09,.13,.13,.17,.31,.17,.44V30.17c0,1.98-.38,3.9-1.1,5.79-.82,1.84-1.84,3.42-3.11,4.74-1.36,1.36-2.9,2.45-4.65,3.21-1.75,.79-3.62,1.18-5.72,1.18-1.96,0-3.84-.4-5.62-1.18-1.78-.75-3.32-1.85-4.6-3.21-1.32-1.31-2.39-2.89-3.16-4.74-.72-1.97-1.11-3.9-1.11-5.79V10.44c0-.13,.05-.31,.13-.44,.08-.09,.21-.13,.34-.13h3.24V.26s.04-.09,.08-.13c.09-.09,.17-.13,.26-.13h7.63c.72,0,1.41,.26,1.96,.7,.38,.31,.68,.66,.89,1.06,.26-.4,.56-.75,.94-1.06m-6.52,14.71l.39,3.77h.26l.42-3.77v-.53h-1.07v.53Zm-.29-1.71c.04,.13,.06,.23,.06,.23,.07,.35,.4,.61,.77,.61,.45,0,.82-.37,.82-.82,0-.2-.08-.39-.2-.53,0,.1,0,.18-.01,.23-.11,.26-.29,.22-.33,.17l.08-.13c.14-.23-.09-.54-.14-.59-.3-.26-.24-.42-.24-.64-.3,.3-.43,.61-.52,.84-.08,.3,0,.65,.34,.96-.34-.04-.55-.17-.64-.31m3.34,0c.03,.13,.06,.23,.06,.23,.07,.35,.4,.61,.77,.61,.45,0,.82-.37,.82-.82,0-.2-.07-.39-.19-.53,0,.1,0,.18-.01,.23-.11,.26-.28,.22-.32,.17l.08-.13c.14-.23-.09-.54-.15-.59-.28-.26-.23-.42-.23-.64-.3,.3-.43,.61-.51,.84-.09,.3,0,.65,.34,.96-.34-.04-.56-.17-.64-.31m.28,1.71l.38,3.77h.26l.43-3.77v-.53h-1.07v.53Zm3.34,0l.38,3.77h.26l.42-3.77v-.53h-1.06v.53Zm-.3-1.71c.04,.13,.06,.23,.06,.23,.07,.35,.4,.61,.77,.61,.45,0,.82-.37,.82-.82,0-.2-.07-.39-.19-.53,0,.1,0,.18-.01,.23-.11,.26-.29,.22-.33,.17l.09-.13c.13-.23-.1-.54-.15-.59-.29-.26-.24-.42-.24-.64-.3,.3-.43,.61-.51,.84-.08,.3,0,.65,.35,.96-.35-.04-.56-.17-.65-.31m3.34,0c.04,.13,.06,.23,.06,.23,.07,.35,.39,.61,.77,.61,.45,0,.82-.37,.82-.82,0-.2-.08-.39-.2-.53,0,.1,0,.18-.01,.23-.11,.26-.28,.22-.33,.17l.09-.13c.13-.23-.09-.54-.15-.59-.29-.26-.23-.42-.23-.64-.3,.3-.43,.61-.52,.84-.09,.3,0,.65,.34,.96-.34-.04-.55-.17-.64-.31m.29,1.71l.38,3.77h.26l.42-3.77v-.53h-1.06v.53Z"/>
      <path class="cls-1" d="M46.23,3.73c-.47,.35-.68,.79-.68,1.27s.21,.92,.68,1.27c.25,.18,.55,.35,.85,.44v1.8h-1.95v-.62h1.7v-.52c-.39-.13-.77-.31-1.07-.53-.6-.53-.9-1.14-.9-1.84s.3-1.32,.9-1.84c.6-.48,1.28-.75,2.09-.75s1.54,.27,2.09,.75c.64,.52,.94,1.14,.94,1.84,.04,.7-.26,1.31-.94,1.84-.25,.22-.6,.4-1.02,.53v.52h1.7v.62h-2v-1.85c.26-.04,.55-.17,.94-.39,.46-.35,.59-.79,.59-1.27s-.22-.88-.6-1.28c-.43-.35-1.02-.57-1.7-.57-.64,0-1.19,.22-1.61,.57"/>
      <path class="cls-1" d="M39.33,5.79l-1.15-2.37-1.24,2.37h2.39Zm1.4,2.81l-1.06-2.15h-3.07l-1.06,2.15h-.77l3.29-6.45h.17l3.24,6.45h-.73Z"/>
      <path class="cls-1" d="M42.6,25.87v-1.71h.73v1.71c.13,0,.25,.04,.38,.13l.85-1.49c.22,.08,.43,.22,.6,.39l-.81,1.45s.09,.08,.17,.13c.04,.05,.08,.08,.13,.18l1.4-.88c.13,.22,.26,.44,.34,.65l-1.4,.83c.04,.13,.04,.26,.09,.4h1.66v.7h-1.66c-.04,.13-.04,.27-.09,.4l1.4,.87c-.08,.22-.21,.44-.34,.66l-1.4-.87c-.04,.09-.09,.13-.13,.17-.08,.04-.13,.09-.17,.14l.81,1.44c-.17,.18-.38,.26-.6,.4l-.85-1.45c-.13,.04-.26,.09-.38,.09v1.67l-.39,.04-.34-.04v-1.67c-.13,0-.26-.05-.38-.09l-.85,1.45c-.21-.14-.43-.22-.59-.4l.8-1.4c-.04-.09-.08-.13-.17-.18-.04-.04-.08-.08-.08-.13l-1.44,.79c-.13-.18-.26-.4-.35-.62l1.46-.83c-.09-.13-.09-.27-.13-.45h-1.66v-.7h1.66c.05-.13,.05-.27,.09-.4l-1.41-.83c.09-.21,.21-.43,.35-.65l1.41,.88c.04-.09,.08-.13,.12-.18,.09-.05,.13-.13,.21-.18l-.85-1.4c.17-.17,.38-.31,.59-.39l.85,1.49c.13-.09,.25-.13,.38-.13"/>
      <path class="cls-1" d="M0,50.49H.94v2.51c0,.4,.01,.66,.04,.78,.04,.19,.13,.34,.28,.45,.15,.12,.36,.17,.61,.17,.27,0,.46-.05,.6-.16,.14-.11,.22-.24,.24-.4,.03-.16,.04-.42,.04-.79v-2.56h.94v2.43c0,.56-.02,.95-.07,1.17-.05,.23-.14,.43-.28,.59-.13,.16-.32,.28-.55,.38-.22,.09-.52,.14-.88,.14-.44,0-.78-.05-1.01-.16-.23-.09-.41-.23-.54-.4-.13-.17-.22-.33-.26-.51-.06-.26-.09-.65-.09-1.17v-2.47Z"/>
      <polygon class="cls-1" points="4.67 55.12 4.67 50.49 5.58 50.49 7.48 53.59 7.48 50.49 8.35 50.49 8.35 55.12 7.41 55.12 5.54 52.07 5.54 55.12 4.67 55.12"/>
      <rect class="cls-1" x="9.31" y="50.49" width=".94" height="4.63"/>
      <polygon class="cls-1" points="12.32 55.12 10.67 50.49 11.68 50.49 12.85 53.91 13.98 50.49 14.97 50.49 13.33 55.12 12.32 55.12"/>
      <polygon class="cls-1" points="15.44 55.12 15.44 50.49 18.87 50.49 18.87 51.27 16.38 51.27 16.38 52.3 18.69 52.3 18.69 53.08 16.38 53.08 16.38 54.33 18.96 54.33 18.96 55.12 15.44 55.12"/>
      <path class="cls-1" d="M20.68,52.45h.69c.45,0,.73-.02,.84-.06,.11-.04,.19-.1,.26-.2,.06-.09,.09-.21,.09-.34,0-.16-.04-.29-.12-.38-.08-.1-.2-.16-.35-.18-.07-.01-.31-.02-.68-.02h-.73v1.18Zm-.94,2.67v-4.63h1.97c.5,0,.85,.04,1.08,.12,.22,.08,.41,.23,.53,.44,.14,.21,.2,.46,.2,.73,0,.35-.1,.64-.3,.86-.21,.23-.51,.37-.92,.43,.2,.12,.37,.25,.5,.39,.13,.14,.3,.39,.53,.75l.57,.9h-1.12l-.67-1.01c-.24-.36-.41-.58-.49-.67-.1-.09-.19-.16-.29-.19-.1-.04-.26-.05-.47-.05h-.19v1.93h-.94Z"/>
      <path class="cls-1" d="M24.17,53.61l.91-.09c.06,.3,.17,.53,.34,.67,.16,.14,.39,.21,.67,.21,.3,0,.52-.06,.67-.19,.15-.13,.23-.28,.23-.45,0-.11-.03-.2-.1-.28-.07-.08-.17-.14-.33-.2-.11-.04-.36-.11-.75-.21-.5-.12-.84-.28-1.04-.46-.28-.25-.43-.57-.43-.94,0-.24,.07-.46,.2-.66,.13-.21,.33-.37,.58-.47,.25-.1,.56-.16,.91-.16,.58,0,1.01,.13,1.31,.39,.29,.25,.45,.6,.47,1.03l-.94,.03c-.04-.24-.12-.42-.25-.52-.13-.1-.33-.16-.59-.16s-.48,.06-.64,.17c-.1,.07-.14,.17-.14,.29,0,.11,.04,.2,.14,.28,.12,.1,.4,.2,.85,.31,.46,.11,.79,.22,1.01,.33,.22,.11,.39,.27,.51,.47,.13,.2,.18,.45,.18,.74,0,.26-.08,.51-.22,.75-.15,.23-.36,.4-.62,.51-.27,.11-.61,.17-1.01,.17-.58,0-1.03-.14-1.34-.41-.32-.27-.5-.66-.57-1.18"/>
      <rect class="cls-1" x="28.69" y="50.49" width=".94" height="4.63"/>
      <path class="cls-1" d="M31.45,51.27v3.07h.69c.26,0,.45-.01,.56-.04,.15-.04,.27-.1,.38-.2,.1-.09,.18-.24,.24-.45,.06-.21,.09-.49,.09-.85s-.03-.63-.09-.82c-.06-.19-.15-.34-.26-.45-.11-.11-.26-.18-.43-.22-.13-.03-.38-.04-.76-.04h-.42Zm-.94-.78h1.71c.39,0,.68,.03,.88,.08,.27,.08,.5,.23,.7,.43,.2,.21,.33,.46,.44,.75,.1,.3,.15,.67,.15,1.1,0,.38-.04,.71-.14,.99-.11,.34-.28,.61-.49,.82-.16,.16-.38,.28-.66,.37-.21,.07-.48,.1-.82,.1h-1.76v-4.63Z"/>
      <path class="cls-1" d="M37.65,53.28l-.65-1.72-.62,1.72h1.27Zm1.71,1.83h-1l-.41-1.05h-1.86l-.38,1.05h-.99l1.8-4.63h.99l1.85,4.63Z"/>
      <path class="cls-1" d="M40.8,51.27v3.07h.69c.26,0,.45-.01,.57-.04,.15-.04,.27-.1,.37-.2,.1-.09,.18-.24,.24-.45,.06-.21,.1-.49,.1-.85s-.04-.63-.1-.82c-.06-.19-.15-.34-.26-.45-.11-.11-.26-.18-.43-.22-.13-.03-.39-.04-.77-.04h-.41Zm-.94-.78h1.7c.39,0,.67,.03,.88,.08,.27,.08,.5,.23,.7,.43,.2,.21,.34,.46,.44,.75,.1,.3,.15,.67,.15,1.1,0,.38-.04,.71-.14,.99-.11,.34-.28,.61-.49,.82-.16,.16-.38,.28-.65,.37-.21,.07-.48,.1-.83,.1h-1.75v-4.63Z"/>
      <path class="cls-1" d="M47.26,51.27v3.07h.7c.26,0,.45-.01,.56-.04,.15-.04,.28-.1,.37-.2,.1-.09,.18-.24,.24-.45,.07-.21,.1-.49,.1-.85s-.03-.63-.1-.82c-.06-.19-.14-.34-.26-.45-.11-.11-.26-.18-.43-.22-.13-.03-.39-.04-.76-.04h-.42Zm-.94-.78h1.71c.39,0,.68,.03,.88,.08,.28,.08,.51,.23,.7,.43,.2,.21,.34,.46,.45,.75,.1,.3,.14,.67,.14,1.1,0,.38-.04,.71-.14,.99-.12,.34-.28,.61-.5,.82-.16,.16-.38,.28-.65,.37-.2,.07-.48,.1-.83,.1h-1.76v-4.63Z"/>
      <polygon class="cls-1" points="50.99 55.12 50.99 50.49 54.42 50.49 54.42 51.27 51.93 51.27 51.93 52.3 54.24 52.3 54.24 53.08 51.93 53.08 51.93 54.33 54.51 54.33 54.51 55.12 50.99 55.12"/>
      <polygon class="cls-1" points="55.32 55.12 55.32 50.52 56.26 50.52 56.26 54.33 58.58 54.33 58.58 55.12 55.32 55.12"/>
      <path class="cls-1" d="M61.98,53.09v1.24h.87c.33,0,.55,0,.64-.03,.14-.03,.26-.09,.34-.18,.09-.1,.13-.23,.13-.4,0-.14-.03-.26-.1-.35-.07-.1-.16-.17-.3-.21-.13-.05-.4-.07-.83-.07h-.75Zm0-1.84v1.07h.61c.36,0,.58,0,.68-.02,.16-.02,.29-.07,.38-.16,.09-.09,.14-.22,.14-.36s-.04-.26-.12-.35c-.08-.09-.2-.14-.36-.16-.09-.01-.36-.02-.79-.02h-.54Zm-.94-.77h1.85c.36,0,.64,.02,.82,.05,.18,.03,.35,.09,.48,.19,.14,.09,.26,.22,.36,.39,.09,.16,.14,.34,.14,.54,0,.21-.06,.41-.17,.6-.12,.18-.28,.31-.48,.41,.28,.08,.5,.22,.65,.42,.15,.2,.22,.43,.22,.7,0,.21-.05,.42-.14,.62-.1,.19-.23,.36-.4,.48-.16,.11-.38,.19-.62,.22-.16,.01-.53,.03-1.13,.03h-1.58v-4.63Z"/>
      <path class="cls-1" d="M65.53,50.07l.44-.94h.99l-.88,.94h-.55Zm.15,.42h.93v4.63h-.93v-4.63Z"/>
      <path class="cls-1" d="M68.28,52.8c0,.53,.12,.93,.36,1.19,.24,.27,.55,.4,.93,.4s.68-.13,.92-.4c.25-.27,.36-.67,.36-1.21s-.12-.92-.35-1.18c-.23-.26-.54-.39-.93-.39s-.7,.13-.93,.4c-.24,.26-.36,.66-.36,1.19m-.96,.03c0-.47,.07-.87,.21-1.19,.11-.24,.25-.45,.44-.64,.18-.19,.38-.33,.6-.42,.29-.12,.62-.18,1-.18,.68,0,1.22,.21,1.64,.63,.41,.43,.62,1.01,.62,1.77s-.21,1.34-.61,1.76c-.41,.42-.96,.63-1.63,.63s-1.24-.21-1.65-.63c-.41-.43-.61-1-.61-1.74"/>
      <rect class="cls-1" x="72.42" y="52.99" width="1.74" height=".89"/>
      <path class="cls-1" d="M75.62,53.09v1.24h.87c.33,0,.55,0,.64-.03,.14-.03,.25-.09,.35-.18,.08-.1,.13-.23,.13-.4,0-.14-.03-.26-.1-.35-.06-.1-.16-.17-.29-.21-.12-.05-.4-.07-.83-.07h-.76Zm0-1.84v1.07h.61c.36,0,.59,0,.68-.02,.16-.02,.28-.07,.37-.16,.09-.09,.14-.22,.14-.36s-.04-.26-.12-.35c-.08-.09-.2-.14-.35-.16-.09-.01-.36-.02-.8-.02h-.54Zm-.93-.77h1.85c.37,0,.64,.02,.82,.05,.18,.03,.34,.09,.48,.19,.15,.09,.26,.22,.36,.39,.09,.16,.14,.34,.14,.54,0,.21-.06,.41-.17,.6-.12,.18-.28,.31-.48,.41,.28,.08,.5,.22,.65,.42,.15,.2,.23,.43,.23,.7,0,.21-.05,.42-.14,.62-.11,.19-.24,.36-.4,.48-.17,.11-.38,.19-.62,.22-.16,.01-.54,.03-1.13,.03h-1.57v-4.63Z"/>
      <path class="cls-1" d="M79.18,50.07l.44-.94h.99l-.87,.94h-.56Zm.15,.42h.94v4.63h-.94v-4.63Z"/>
      <path class="cls-1" d="M81.93,52.8c0,.53,.12,.93,.36,1.19,.24,.27,.55,.4,.92,.4s.68-.13,.92-.4c.24-.27,.36-.67,.36-1.21s-.12-.92-.35-1.18c-.23-.26-.55-.39-.93-.39s-.7,.13-.94,.4c-.23,.26-.35,.66-.35,1.19m-.96,.03c0-.47,.07-.87,.21-1.19,.11-.24,.25-.45,.44-.64,.18-.19,.37-.33,.59-.42,.29-.12,.62-.18,1-.18,.68,0,1.23,.21,1.64,.63,.41,.43,.61,1.01,.61,1.77s-.21,1.34-.61,1.76c-.41,.42-.95,.63-1.63,.63s-1.24-.21-1.65-.63c-.4-.43-.6-1-.6-1.74"/>
    </g>
  </g>
</svg>