<?xml version="1.0" encoding="UTF-8"?>
<svg xmlns="http://www.w3.org/2000/svg" viewBox="0 0 425.44 96.98">
  <g id="Capa_1" data-name="Capa 1"/>
  <g id="Capa_2" data-name="Capa 2">
    <g id="Capa_1-2" data-name="Capa 1">
      <g>
        <path d="M62.19,58c0-3.93,3.18-7.11,7.12-7.11s7.12,3.19,7.12,7.11-3.19,7.11-7.12,7.11-7.12-3.18-7.12-7.11Zm-4.59,26.54c2.7-.29,4.71-1.12,5.61-4.89h-3.34c-.62-.63-.62-1.64,0-2.27l8.5-8.5c.63-.63,1.64-.63,2.27,0l8.5,8.5c.63,.62,.63,1.64,0,2.27h-3.5c-.49,4.97-2.78,9.41-6.21,12.68-2.42,2.56-5.7,4.49-7.73,4.65h-24.32l-10.3-.02c-14.94,0-27.09-12.15-27.09-27.08,0-11.01,6.58-20.71,16.44-24.91-1.49-1.79-2.73-3.76-3.72-5.88-1.67-3.59-2.52-7.42-2.52-11.41C10.2,12.75,22.35,.6,37.28,.6h17.39l11.62,.02c-4.73,2.8-8.4,7.2-10.27,12.44h-3.28l-15.17-.02c-8.08,0-14.78,6.44-14.93,14.36-.07,3.96,1.42,7.7,4.2,10.53,2.79,2.83,6.49,4.39,10.45,4.39h8.7c5.09,0,9.23,4.14,9.23,9.23v3.67H27.09c-3.96,0-7.67,1.57-10.46,4.4-2.77,2.83-4.27,6.58-4.19,10.53,.15,7.92,6.84,14.36,14.93,14.36,0,0-9.97,0,22.63,0h7.59Z" style="fill: #fff;"/>
        <path d="M173.67,77.45c-.02,.69-.25,1.24-.7,1.67-.45,.43-.99,.69-1.64,.77-.86,.07-1.52,.11-1.99,.13v-4.87h2.09c.64,.02,1.16,.25,1.58,.68,.42,.44,.64,.97,.65,1.61Zm.22,13.89h-4.55v-6.45c.79,0,1.55-.01,2.28-.03,.73,0,1.49,0,2.27,.04,.85,.07,1.57,.41,2.16,1.01,.59,.6,.9,1.35,.93,2.25-.02,.89-.32,1.64-.89,2.24-.58,.6-1.31,.91-2.19,.94Zm4.91-14.1c0-1.95-.7-3.64-2.1-5.06-1.46-1.47-3.21-2.21-5.26-2.21h-7.42v26.57h9.87c2.29,0,4.24-.82,5.86-2.47,1.63-1.62,2.44-3.59,2.44-5.9,0-2.3-.81-4.27-2.42-5.9-.26-.25-.58-.49-.96-.73-.38-.24-.74-.45-1.08-.62,.26-.46,.51-1.02,.74-1.69,.23-.67,.35-1.33,.37-1.99h-.02Z" style="fill: #fff; fill-rule: evenodd;"/>
        <rect x="184.5" y="69.96" width="5.33" height="26.58" style="fill: #fff;"/>
        <path d="M205.6,75.15c2.22,0,4.13,.79,5.71,2.37,1.6,1.59,2.39,3.5,2.39,5.71s-.8,4.14-2.39,5.71c-1.6,1.57-3.5,2.36-5.71,2.36s-4.16-.78-5.73-2.36c-1.58-1.58-2.38-3.49-2.38-5.71s.79-4.11,2.38-5.71c1.56-1.58,3.47-2.37,5.73-2.37Zm0-5.39c-3.71,0-6.89,1.33-9.54,3.98-2.63,2.66-3.94,5.84-3.94,9.53s1.31,6.88,3.94,9.52c2.62,2.6,5.8,3.9,9.54,3.91,3.72,0,6.9-1.3,9.54-3.91,2.64-2.62,3.97-5.79,3.97-9.52s-1.32-6.89-3.97-9.53c-2.65-2.65-5.83-3.98-9.54-3.98Z" style="fill: #fff; fill-rule: evenodd;"/>
        <path d="M231.02,77.45c-.02,.69-.25,1.24-.7,1.67-.45,.43-.99,.69-1.64,.77-.86,.07-1.52,.11-1.99,.13v-4.87h2.09c.64,.02,1.16,.25,1.59,.68,.42,.44,.64,.97,.65,1.61Zm.22,13.89h-4.56v-6.45c.79,0,1.55-.01,2.28-.03,.73,0,1.49,0,2.27,.04,.85,.07,1.57,.41,2.16,1.01,.59,.6,.9,1.35,.93,2.25-.02,.89-.32,1.64-.89,2.24-.58,.6-1.31,.91-2.19,.94Zm4.9-14.1c0-1.95-.7-3.64-2.1-5.06-1.46-1.47-3.21-2.21-5.26-2.21h-7.42v26.57h9.87c2.29,0,4.24-.82,5.86-2.47,1.63-1.62,2.44-3.59,2.44-5.9,0-2.3-.8-4.27-2.42-5.9-.26-.25-.58-.49-.96-.73-.38-.24-.74-.45-1.08-.62,.26-.46,.51-1.02,.74-1.69,.23-.67,.35-1.33,.37-1.99h-.02Z" style="fill: #fff; fill-rule: evenodd;"/>
        <rect x="241.85" y="69.96" width="5.33" height="26.58" style="fill: #fff;"/>
        <path d="M262.96,75.15c2.22,0,4.13,.79,5.71,2.37,1.6,1.59,2.39,3.5,2.39,5.71s-.8,4.14-2.39,5.71c-1.6,1.57-3.5,2.36-5.71,2.36s-4.16-.78-5.73-2.36c-1.59-1.58-2.38-3.49-2.38-5.71s.79-4.11,2.38-5.71c1.56-1.58,3.47-2.37,5.73-2.37Zm0-5.39c-3.71,0-6.89,1.33-9.54,3.98-2.62,2.66-3.94,5.84-3.94,9.53s1.31,6.88,3.94,9.52c2.62,2.6,5.8,3.9,9.54,3.91,3.72,0,6.9-1.3,9.54-3.91,2.64-2.62,3.97-5.79,3.97-9.52s-1.32-6.89-3.97-9.53c-2.65-2.65-5.83-3.98-9.54-3.98Z" style="fill: #fff; fill-rule: evenodd;"/>
        <path d="M179.04,49.46c-.03,2.43-.75,4.36-2.16,5.78-1.41,1.43-3.33,2.16-5.76,2.19h-1.78v-15.95h1.73c2.43,.04,4.36,.77,5.78,2.21,1.43,1.44,2.16,3.36,2.19,5.77Zm-7.95-13.24h-7.08v26.54h7.08c3.86,0,7.1-1.3,9.72-3.89,2.38-2.36,3.56-5.48,3.56-9.37s-1.19-7.01-3.56-9.4c-1.14-1.14-2.52-2.08-4.14-2.79-1.63-.72-3.48-1.08-5.58-1.11v.02Z" style="fill: #fff; fill-rule: evenodd;"/>
        <polygon points="186.65 36.12 186.65 62.79 202.67 62.79 202.67 57.5 191.98 57.5 191.98 52.12 200 52.12 200 46.79 191.98 46.79 191.98 41.45 202.67 41.45 202.67 36.12 186.65 36.12" style="fill: #fff; fill-rule: evenodd;"/>
        <rect x="214.91" y="36.19" width="5.33" height="26.57" style="fill: #fff;"/>
        <polygon points="223.51 35.62 223.51 62.79 228.85 62.79 228.85 48.04 244.89 63.31 244.89 36.12 239.53 36.12 239.53 50.87 223.51 35.62" style="fill: #fff; fill-rule: evenodd;"/>
        <polygon points="248.21 35.62 248.21 62.79 253.54 62.79 253.54 48.04 269.59 63.31 269.59 36.12 264.23 36.12 264.23 50.87 248.21 35.62" style="fill: #fff; fill-rule: evenodd;"/>
        <path d="M285.41,41.38c2.22,0,4.13,.79,5.71,2.37,1.6,1.59,2.39,3.5,2.39,5.71s-.8,4.14-2.39,5.71c-1.6,1.57-3.5,2.35-5.71,2.35s-4.16-.79-5.73-2.35c-1.58-1.58-2.38-3.49-2.38-5.71s.79-4.11,2.38-5.71c1.56-1.58,3.47-2.37,5.73-2.37Zm0-5.39c-3.71,0-6.89,1.32-9.54,3.97-2.63,2.66-3.94,5.84-3.94,9.54s1.31,6.88,3.94,9.51c2.62,2.6,5.8,3.9,9.54,3.91,3.72,0,6.9-1.3,9.54-3.91,2.64-2.62,3.97-5.79,3.97-9.51s-1.32-6.89-3.97-9.54c-2.65-2.65-5.83-3.97-9.54-3.97Z" style="fill: #fff; fill-rule: evenodd;"/>
        <polygon points="322.48 36.19 316.75 36.19 310.42 50.75 304.11 36.19 298.45 36.19 310.44 63.36 322.48 36.19" style="fill: #fff; fill-rule: evenodd;"/>
        <path d="M327.81,54.02l2.46-5.62,2.42,5.62h-4.88Zm-9.68,8.74h5.77l1.8-4.02h9.1l1.8,4.02h5.79l-12.14-27.11-12.12,27.11Z" style="fill: #fff; fill-rule: evenodd;"/>
        <path d="M364.93,59l-3.81-3.81c-1.58,1.58-3.5,2.38-5.74,2.38s-4.13-.79-5.71-2.36c-1.58-1.58-2.37-3.49-2.37-5.72s.79-4.12,2.37-5.72c1.56-1.59,3.46-2.38,5.71-2.38s4.12,.79,5.72,2.38l3.81-3.81c-1.1-1.09-2.46-2.01-4.07-2.76-1.61-.75-3.44-1.14-5.5-1.17l.02-.07c-3.69,0-6.87,1.32-9.51,3.97-2.63,2.66-3.95,5.84-3.95,9.55s1.32,6.9,3.95,9.54c2.62,2.61,5.8,3.91,9.51,3.92,2.08-.03,3.92-.41,5.52-1.15,1.6-.74,2.95-1.66,4.05-2.77Z" style="fill: #fff; fill-rule: evenodd;"/>
        <rect x="367.21" y="36.19" width="5.33" height="26.57" style="fill: #fff;"/>
        <path d="M388.31,41.38c2.22,0,4.13,.79,5.71,2.37,1.6,1.59,2.39,3.5,2.39,5.71s-.8,4.14-2.39,5.71c-1.6,1.57-3.5,2.35-5.71,2.35s-4.16-.79-5.73-2.35c-1.58-1.58-2.38-3.49-2.38-5.71s.79-4.11,2.38-5.71c1.56-1.58,3.47-2.37,5.73-2.37Zm0-5.39c-3.71,0-6.89,1.32-9.54,3.97-2.62,2.66-3.94,5.84-3.94,9.54s1.31,6.88,3.94,9.51c2.62,2.6,5.8,3.9,9.54,3.91,3.72,0,6.9-1.3,9.54-3.91,2.65-2.62,3.97-5.79,3.97-9.51s-1.32-6.89-3.97-9.54c-2.65-2.65-5.83-3.97-9.54-3.97Z" style="fill: #fff; fill-rule: evenodd;"/>
        <polygon points="404.07 35.62 404.07 62.79 409.4 62.79 409.4 48.04 425.44 63.31 425.44 36.12 420.08 36.12 420.08 50.87 404.07 35.62" style="fill: #fff; fill-rule: evenodd;"/>
        <polygon points="164.01 2.35 164.01 29.02 180.03 29.02 180.03 23.73 169.34 23.73 169.34 18.35 177.36 18.35 177.36 13.02 169.34 13.02 169.34 7.68 180.03 7.68 180.03 2.35 164.01 2.35" style="fill: #fff; fill-rule: evenodd;"/>
        <path d="M189.78,23.78c-.78-.02-1.49-.28-2.11-.79-.63-.51-.96-1.14-.99-1.9l-5.3,1.13c.22,1.33,.73,2.52,1.54,3.57,.81,1.05,1.81,1.87,3.01,2.48,1.2,.61,2.49,.92,3.87,.93,1.51-.02,2.91-.39,4.19-1.11,1.28-.72,2.31-1.69,3.09-2.9,.78-1.22,1.19-2.58,1.21-4.09-.05-1.86-.69-3.41-1.9-4.64-1.21-1.23-2.68-2.1-4.41-2.59-.64-.17-1.33-.39-2.08-.64-.75-.26-1.39-.61-1.93-1.07-.54-.46-.83-1.09-.85-1.87,.02-.76,.29-1.39,.8-1.91,.51-.51,1.15-.78,1.91-.8,.75,.02,1.38,.29,1.89,.79,.51,.51,.77,1.14,.79,1.89l5.3-1.12c-.32-2.01-1.21-3.66-2.68-4.96-1.47-1.29-3.25-1.96-5.33-2-1.51,.02-2.87,.38-4.09,1.1-1.22,.72-2.19,1.68-2.91,2.9-.72,1.21-1.09,2.57-1.11,4.09,.05,1.82,.66,3.37,1.83,4.64,1.17,1.27,2.59,2.19,4.26,2.75,.64,.2,1.35,.41,2.13,.63,.78,.22,1.46,.54,2.04,.96,.58,.42,.88,1.03,.91,1.82-.04,.76-.37,1.39-1,1.9-.63,.51-1.33,.78-2.1,.8l.02,.02Z" style="fill: #fff; fill-rule: evenodd;"/>
        <polygon points="199.59 2.42 199.59 7.71 206.13 7.71 206.13 28.99 211.49 28.99 211.49 7.71 218.03 7.71 218.03 2.42 199.59 2.42" style="fill: #fff; fill-rule: evenodd;"/>
        <path d="M229.51,15.06h-1.79v-.02h-2.07V7.71h3.01c.66,0,1.29,.09,1.88,.27,.59,.18,1.07,.44,1.43,.78,.71,.74,1.06,1.59,1.06,2.56-.03,1.04-.37,1.92-1.03,2.63-.66,.71-1.49,1.08-2.5,1.11Zm-9.17,13.93h5.33v-11.75l7.66,11.75h6.52l-6.18-9.62c.74-.28,1.34-.6,1.81-.96,.47-.36,.93-.86,1.38-1.5,1.12-1.58,1.68-3.27,1.68-5.06v-.69c0-1.43-.23-2.61-.68-3.51-.45-.91-1.08-1.75-1.89-2.52-.81-.81-1.8-1.46-2.97-1.95-1.18-.49-2.51-.74-4-.76h-8.68l.02,26.57Z" style="fill: #fff; fill-rule: evenodd;"/>
        <path d="M250.82,20.25l2.46-5.62,2.42,5.62h-4.88Zm-9.68,8.74h5.77l1.8-4.02h9.1l1.8,4.02h5.79L253.26,1.88l-12.12,27.11Z" style="fill: #fff; fill-rule: evenodd;"/>
        <polygon points="263.77 2.42 263.77 7.71 270.31 7.71 270.31 28.99 275.67 28.99 275.67 7.71 282.2 7.71 282.2 2.42 263.77 2.42" style="fill: #fff; fill-rule: evenodd;"/>
        <polygon points="284.51 2.35 284.51 29.02 300.53 29.02 300.53 23.73 289.84 23.73 289.84 18.35 297.86 18.35 297.86 13.02 289.84 13.02 289.84 7.68 300.53 7.68 300.53 2.35 284.51 2.35" style="fill: #fff; fill-rule: evenodd;"/>
        <path d="M315.33,2.22c-3.73,0-6.9,1.32-9.51,3.96-2.63,2.65-3.95,5.83-3.95,9.54s1.32,6.92,3.95,9.54c2.6,2.62,5.77,3.93,9.51,3.93s6.88-1.31,9.53-3.93c1.33-1.3,2.35-2.87,3.06-4.71,.71-1.84,.98-4.01,.81-6.48h-13.66v5.09h7.59c-.6,1.29-1.52,2.39-2.79,3.28-1.26,.89-2.76,1.35-4.5,1.39-2.24,0-4.15-.8-5.71-2.38-1.58-1.59-2.37-3.5-2.37-5.73s.79-4.14,2.37-5.72c1.57-1.59,3.48-2.39,5.71-2.39s4.09,.8,5.71,2.39l3.81-3.8c-1.09-1.09-2.44-2.01-4.05-2.76-1.61-.75-3.44-1.14-5.5-1.17l-.02-.05Z" style="fill: #fff; fill-rule: evenodd;"/>
        <rect x="331.1" y="2.41" width="5.33" height="26.58" style="fill: #fff;"/>
        <path d="M348.39,20.25l2.46-5.62,2.42,5.62h-4.88Zm-9.68,8.74h5.77l1.8-4.02h9.11l1.8,4.02h5.79l-12.14-27.11-12.12,27.11Z" style="fill: #fff; fill-rule: evenodd;"/>
        <path d="M63.3,46.89V20.34c0-11.22,9.12-20.34,20.34-20.34h16.68c14.93,0,27.09,12.15,27.09,27.08,0,3.98-.85,7.81-2.52,11.41-.99,2.12-2.24,4.09-3.72,5.88,9.86,4.19,16.44,13.9,16.44,24.91,0,14.93-12.15,27.08-27.09,27.08h-36.39c4.73-2.79,8.4-7.18,10.27-12.44,32.6,0,25.84,0,25.84,0,8.09,0,14.79-6.44,14.93-14.36,.08-3.96-1.42-7.7-4.19-10.53-2.79-2.83-6.5-4.39-10.46-4.39h-28.12v-3.68c0-5.09,4.14-9.23,9.23-9.23h8.7c3.96,0,7.66-1.56,10.45-4.39,2.78-2.83,4.27-6.58,4.2-10.53-.15-7.92-6.85-14.36-14.94-14.36h-16.39c-4.36,0-7.91,3.54-7.91,7.9v26.72c-1.83-1.19-4.01-1.89-6.35-1.89s-4.31,.63-6.08,1.72Z" style="fill: #fff;"/>
      </g>
    </g>
  </g>
</svg>