<?xml version="1.0" encoding="UTF-8"?>
<svg xmlns="http://www.w3.org/2000/svg" viewBox="0 0 767.62 174.98">
  <g id="Capa_1" data-name="Capa 1"/>
  <g id="Capa_2" data-name="Capa 2">
    <g id="Capa_1-2" data-name="Capa 1">
      <g>
        <path d="M112.21,104.65c0-7.09,5.75-12.84,12.84-12.84s12.84,5.75,12.84,12.84-5.75,12.83-12.84,12.83-12.84-5.74-12.84-12.83Zm-8.28,47.88c4.87-.53,8.5-2.02,10.13-8.82h-6.03c-1.13-1.13-1.13-2.96,0-4.09l15.34-15.34c1.13-1.13,2.96-1.13,4.09,0l15.34,15.34c1.13,1.13,1.13,2.96,0,4.09h-6.31c-.89,8.96-5.02,16.98-11.2,22.88-4.37,4.62-10.28,8.11-13.95,8.39h-43.89l-18.58-.03C21.92,174.95,0,153.03,0,126.08c0-19.86,11.86-37.37,29.65-44.94-2.68-3.23-4.93-6.78-6.72-10.61-3.02-6.48-4.54-13.4-4.54-20.58C18.39,23.01,40.32,1.08,67.27,1.08h30.09l1.29,.02h20.96c-8.53,5.06-15.15,13-18.52,22.46l-2.43,.03-.31-.03h-3.17l-27.38-.03c-14.58,0-26.67,11.62-26.95,25.91-.13,7.14,2.56,13.9,7.57,19,5.03,5.11,11.71,7.93,18.86,7.93h15.7c9.18,0,16.66,7.47,16.66,16.65v6.62H48.88c-7.14,.01-13.84,2.83-18.87,7.94-5,5.11-7.7,11.87-7.56,19.01,.26,14.29,12.35,25.91,26.95,25.91,0,0-17.99,.01,40.84,.01l13.7,.02Z" style="fill: #ffb103;"/>
        <path d="M313.35,139.74c-.04,1.24-.45,2.24-1.25,3.02-.8,.78-1.79,1.24-2.96,1.39-1.54,.12-2.74,.2-3.59,.24v-8.78h3.77c1.15,.04,2.1,.45,2.86,1.24,.76,.79,1.15,1.76,1.18,2.9Zm.4,25.06h-8.22v-11.64c1.43-.01,2.8-.03,4.12-.05,1.32-.02,2.69,0,4.1,.08,1.53,.13,2.83,.74,3.9,1.83,1.07,1.08,1.62,2.44,1.67,4.07-.04,1.61-.57,2.96-1.61,4.03-1.04,1.08-2.36,1.64-3.96,1.69Zm8.85-25.45c0-3.52-1.27-6.56-3.8-9.14-2.63-2.66-5.79-3.99-9.5-3.99h-13.38v47.95h17.81c4.13,0,7.65-1.48,10.57-4.45,2.94-2.93,4.4-6.48,4.4-10.65,0-4.15-1.46-7.7-4.36-10.65-.47-.44-1.05-.88-1.74-1.32-.69-.44-1.33-.81-1.94-1.11,.47-.82,.91-1.84,1.33-3.05,.41-1.21,.63-2.41,.66-3.59h-.04Z" style="fill: #254791; fill-rule: evenodd;"/>
        <rect x="332.89" y="126.23" width="9.62" height="47.95" style="fill: #254791;"/>
        <path d="M370.97,135.6c4.01,0,7.45,1.43,10.31,4.28,2.88,2.87,4.32,6.31,4.32,10.31s-1.44,7.48-4.32,10.31c-2.88,2.84-6.31,4.25-10.31,4.25s-7.5-1.41-10.34-4.25c-2.86-2.85-4.29-6.29-4.29-10.31s1.43-7.42,4.29-10.31c2.82-2.85,6.27-4.28,10.34-4.28Zm0-9.73c-6.7,0-12.43,2.39-17.2,7.17-4.74,4.79-7.11,10.53-7.11,17.2s2.37,12.42,7.11,17.17c4.73,4.69,10.47,7.04,17.2,7.06,6.72,0,12.45-2.35,17.21-7.06,4.77-4.73,7.16-10.45,7.16-17.17s-2.38-12.43-7.16-17.2c-4.78-4.78-10.52-7.17-17.21-7.17Z" style="fill: #254791; fill-rule: evenodd;"/>
        <path d="M416.83,139.74c-.03,1.24-.45,2.24-1.26,3.02-.8,.78-1.79,1.24-2.96,1.39-1.54,.12-2.74,.2-3.59,.24v-8.78h3.77c1.15,.04,2.1,.45,2.86,1.24,.76,.79,1.15,1.76,1.18,2.9Zm.4,25.06h-8.22v-11.64c1.43-.01,2.8-.03,4.12-.05,1.32-.02,2.69,0,4.1,.08,1.53,.13,2.83,.74,3.9,1.83,1.06,1.08,1.62,2.44,1.67,4.07-.04,1.61-.57,2.96-1.61,4.03-1.04,1.08-2.36,1.64-3.96,1.69Zm8.85-25.45c0-3.52-1.26-6.56-3.8-9.14-2.63-2.66-5.8-3.99-9.5-3.99h-13.38v47.95h17.81c4.13,0,7.66-1.48,10.56-4.45,2.94-2.93,4.4-6.48,4.4-10.65,0-4.15-1.45-7.7-4.36-10.65-.47-.44-1.05-.88-1.74-1.32-.68-.44-1.33-.81-1.94-1.11,.47-.82,.92-1.84,1.33-3.05,.41-1.21,.63-2.41,.66-3.59h-.04Z" style="fill: #254791; fill-rule: evenodd;"/>
        <rect x="436.37" y="126.23" width="9.62" height="47.95" style="fill: #254791;"/>
        <path d="M474.45,135.6c4.01,0,7.45,1.43,10.31,4.28,2.88,2.87,4.32,6.31,4.32,10.31s-1.44,7.48-4.32,10.31c-2.88,2.84-6.32,4.25-10.31,4.25s-7.5-1.41-10.34-4.25c-2.86-2.85-4.29-6.29-4.29-10.31s1.43-7.42,4.29-10.31c2.82-2.85,6.27-4.28,10.34-4.28Zm0-9.73c-6.7,0-12.43,2.39-17.21,7.17-4.74,4.79-7.11,10.53-7.11,17.2s2.37,12.42,7.11,17.17c4.73,4.69,10.47,7.04,17.21,7.06,6.71,0,12.45-2.35,17.22-7.06,4.77-4.73,7.16-10.45,7.16-17.17s-2.38-12.43-7.16-17.2c-4.78-4.78-10.52-7.17-17.22-7.17Z" style="fill: #254791; fill-rule: evenodd;"/>
        <path d="M323.05,89.24c-.05,4.38-1.35,7.86-3.9,10.44-2.55,2.58-6.01,3.89-10.39,3.95h-3.22v-28.78h3.13c4.38,.07,7.86,1.39,10.43,3.98,2.57,2.59,3.89,6.06,3.95,10.41Zm-14.35-23.88h-12.77v47.88h12.77c6.97,0,12.81-2.34,17.53-7.02,4.28-4.26,6.43-9.9,6.43-16.9s-2.14-12.66-6.43-16.95c-2.05-2.07-4.54-3.75-7.48-5.03-2.93-1.29-6.29-1.96-10.06-2v.03Z" style="fill: #254791; fill-rule: evenodd;"/>
        <polygon points="336.77 65.17 336.77 113.3 365.68 113.3 365.68 103.74 346.4 103.74 346.4 94.04 360.86 94.04 360.86 84.43 346.4 84.43 346.4 74.79 365.68 74.79 365.68 65.17 336.77 65.17" style="fill: #254791; fill-rule: evenodd;"/>
        <rect x="387.75" y="65.29" width="9.62" height="47.95" style="fill: #254791;"/>
        <polygon points="403.28 64.28 403.28 113.3 412.91 113.3 412.91 86.68 441.85 114.22 441.85 65.17 432.18 65.17 432.18 91.79 403.28 64.28" style="fill: #254791; fill-rule: evenodd;"/>
        <polygon points="447.85 64.28 447.85 113.3 457.47 113.3 457.47 86.68 486.41 114.22 486.41 65.17 476.74 65.17 476.74 91.79 447.85 64.28" style="fill: #254791; fill-rule: evenodd;"/>
        <path d="M514.96,74.66c4.01,0,7.45,1.43,10.31,4.28,2.88,2.87,4.32,6.31,4.32,10.31s-1.44,7.48-4.32,10.31c-2.88,2.83-6.32,4.25-10.31,4.25s-7.5-1.42-10.34-4.25c-2.86-2.85-4.29-6.29-4.29-10.31s1.43-7.42,4.29-10.31c2.82-2.85,6.27-4.28,10.34-4.28Zm0-9.73c-6.7,0-12.43,2.39-17.21,7.17-4.74,4.8-7.1,10.53-7.1,17.21s2.37,12.42,7.1,17.17c4.73,4.69,10.47,7.04,17.21,7.06,6.71,0,12.45-2.35,17.21-7.06,4.77-4.73,7.16-10.45,7.16-17.17s-2.39-12.43-7.16-17.21c-4.78-4.78-10.52-7.17-17.21-7.17Z" style="fill: #254791; fill-rule: evenodd;"/>
        <polygon points="581.84 65.29 571.52 65.29 560.09 91.57 548.7 65.29 538.49 65.29 560.12 114.33 581.84 65.29" style="fill: #254791; fill-rule: evenodd;"/>
        <path d="M591.47,97.47l4.43-10.15,4.37,10.15h-8.81Zm-17.47,15.77h10.42l3.24-7.26h16.43l3.25,7.26h10.44l-21.9-48.91-21.87,48.91Z" style="fill: #254791; fill-rule: evenodd;"/>
        <path d="M658.44,106.46l-6.88-6.87c-2.86,2.86-6.31,4.29-10.35,4.29s-7.46-1.42-10.3-4.25c-2.86-2.86-4.28-6.3-4.28-10.33s1.43-7.43,4.28-10.33c2.82-2.86,6.25-4.29,10.3-4.29s7.43,1.43,10.33,4.29l6.87-6.87c-1.99-1.97-4.44-3.62-7.34-4.98-2.9-1.36-6.21-2.06-9.92-2.12l.03-.12c-6.67,0-12.39,2.39-17.16,7.16-4.75,4.8-7.13,10.54-7.13,17.23s2.38,12.44,7.13,17.2c4.74,4.7,10.46,7.06,17.16,7.08,3.75-.05,7.07-.74,9.96-2.07,2.89-1.34,5.33-3,7.3-5.01Z" style="fill: #254791; fill-rule: evenodd;"/>
        <rect x="662.54" y="65.29" width="9.62" height="47.95" style="fill: #254791;"/>
        <path d="M700.62,74.66c4.01,0,7.45,1.43,10.31,4.28,2.88,2.87,4.32,6.31,4.32,10.31s-1.44,7.48-4.32,10.31c-2.88,2.83-6.32,4.25-10.31,4.25s-7.5-1.42-10.34-4.25c-2.86-2.85-4.29-6.29-4.29-10.31s1.43-7.42,4.29-10.31c2.82-2.85,6.27-4.28,10.34-4.28Zm0-9.73c-6.7,0-12.43,2.39-17.21,7.17-4.74,4.8-7.11,10.53-7.11,17.21s2.37,12.42,7.11,17.17c4.74,4.69,10.47,7.04,17.21,7.06,6.71,0,12.45-2.35,17.21-7.06,4.77-4.73,7.16-10.45,7.16-17.17s-2.38-12.43-7.16-17.21c-4.78-4.78-10.52-7.17-17.21-7.17Z" style="fill: #254791; fill-rule: evenodd;"/>
        <polygon points="729.06 64.28 729.06 113.3 738.68 113.3 738.68 86.68 767.62 114.22 767.62 65.17 757.95 65.17 757.95 91.79 729.06 64.28" style="fill: #254791; fill-rule: evenodd;"/>
        <polygon points="295.92 4.24 295.92 52.37 324.83 52.37 324.83 42.81 305.55 42.81 305.55 33.11 320.01 33.11 320.01 23.5 305.55 23.5 305.55 13.85 324.83 13.85 324.83 4.24 295.92 4.24" style="fill: #254791; fill-rule: evenodd;"/>
        <path d="M342.42,42.91c-1.42-.04-2.69-.51-3.82-1.43-1.13-.92-1.72-2.06-1.79-3.44l-9.56,2.04c.39,2.4,1.32,4.55,2.78,6.44,1.46,1.89,3.27,3.38,5.43,4.47,2.16,1.1,4.49,1.65,6.99,1.68,2.73-.03,5.25-.7,7.56-2,2.31-1.3,4.17-3.04,5.58-5.24,1.41-2.2,2.14-4.66,2.18-7.39-.1-3.36-1.24-6.15-3.43-8.37-2.19-2.22-4.84-3.78-7.96-4.67-1.16-.31-2.41-.7-3.76-1.15-1.35-.46-2.51-1.1-3.49-1.93-.98-.83-1.49-1.96-1.54-3.38,.04-1.37,.52-2.51,1.44-3.44,.92-.92,2.07-1.4,3.44-1.44,1.35,.04,2.49,.51,3.4,1.43,.92,.92,1.4,2.06,1.43,3.41l9.57-2.02c-.58-3.63-2.19-6.61-4.84-8.94-2.65-2.33-5.86-3.53-9.62-3.61-2.72,.03-5.18,.69-7.38,1.98-2.2,1.29-3.95,3.04-5.25,5.22-1.3,2.19-1.97,4.65-2,7.37,.09,3.29,1.2,6.08,3.31,8.37,2.11,2.29,4.67,3.94,7.69,4.96,1.16,.36,2.44,.74,3.85,1.13,1.41,.4,2.64,.97,3.68,1.73,1.05,.75,1.59,1.85,1.64,3.29-.07,1.37-.67,2.51-1.8,3.44-1.13,.92-2.39,1.4-3.79,1.44l.05,.04Z" style="fill: #254791; fill-rule: evenodd;"/>
        <polygon points="360.12 4.36 360.12 13.92 371.93 13.92 371.93 52.31 381.6 52.31 381.6 13.92 393.38 13.92 393.38 4.36 360.12 4.36" style="fill: #254791; fill-rule: evenodd;"/>
        <path d="M414.1,27.18h-3.23v-.03h-3.73V13.92h5.44c1.19,0,2.32,.16,3.39,.49,1.07,.33,1.93,.8,2.58,1.41,1.27,1.33,1.91,2.87,1.91,4.61-.04,1.88-.67,3.46-1.86,4.75-1.19,1.28-2.69,1.95-4.5,2Zm-16.55,25.13h9.62V31.1l13.83,21.21h11.77l-11.15-17.37c1.32-.51,2.41-1.08,3.26-1.74,.85-.65,1.67-1.55,2.48-2.7,2.02-2.86,3.03-5.9,3.03-9.13v-1.25c-.01-2.59-.42-4.7-1.22-6.33-.8-1.63-1.94-3.15-3.41-4.55-1.46-1.46-3.24-2.63-5.36-3.51-2.12-.89-4.53-1.34-7.21-1.37h-15.66l.03,47.94Z" style="fill: #254791; fill-rule: evenodd;"/>
        <path d="M452.55,36.54l4.43-10.15,4.37,10.15h-8.81Zm-17.47,15.77h10.41l3.25-7.26h16.43l3.24,7.26h10.44L456.95,3.39l-21.87,48.91Z" style="fill: #254791; fill-rule: evenodd;"/>
        <polygon points="475.91 4.36 475.91 13.92 487.72 13.92 487.72 52.31 497.39 52.31 497.39 13.92 509.18 13.92 509.18 4.36 475.91 4.36" style="fill: #254791; fill-rule: evenodd;"/>
        <polygon points="513.34 4.24 513.34 52.37 542.24 52.37 542.24 42.81 522.96 42.81 522.96 33.11 537.42 33.11 537.42 23.5 522.96 23.5 522.96 13.85 542.24 13.85 542.24 4.24 513.34 4.24" style="fill: #254791; fill-rule: evenodd;"/>
        <path d="M568.95,4c-6.72,0-12.45,2.38-17.16,7.15-4.75,4.79-7.13,10.53-7.13,17.21s2.38,12.49,7.13,17.22c4.7,4.73,10.42,7.1,17.16,7.1s12.42-2.37,17.2-7.1c2.41-2.34,4.25-5.17,5.53-8.5,1.28-3.33,1.77-7.23,1.46-11.7h-24.64v9.19h13.69c-1.08,2.33-2.75,4.3-5.03,5.91-2.27,1.6-4.98,2.44-8.13,2.51-4.05,0-7.48-1.43-10.3-4.3-2.86-2.87-4.28-6.31-4.28-10.34s1.43-7.47,4.28-10.32c2.84-2.87,6.27-4.31,10.3-4.31s7.38,1.44,10.3,4.31l6.87-6.86c-1.97-1.97-4.4-3.63-7.31-4.98-2.9-1.35-6.21-2.05-9.92-2.11l-.03-.09Z" style="fill: #254791; fill-rule: evenodd;"/>
        <rect x="597.41" y="4.36" width="9.62" height="47.95" style="fill: #254791;"/>
        <path d="M628.6,36.54l4.43-10.15,4.37,10.15h-8.81Zm-17.47,15.77h10.42l3.24-7.26h16.43l3.24,7.26h10.44l-21.9-48.91-21.87,48.91Z" style="fill: #254791; fill-rule: evenodd;"/>
        <path d="M114.22,84.61V36.7C114.22,16.46,130.68,0,150.92,0h30.09c26.95,0,48.88,21.92,48.88,48.87,0,7.18-1.53,14.1-4.54,20.58-1.79,3.83-4.03,7.38-6.72,10.61,17.79,7.57,29.65,25.09,29.65,44.94,0,26.94-21.92,48.87-48.88,48.87h-65.67c8.53-5.04,15.17-12.96,18.53-22.44,58.82,0,46.62-.01,46.62-.01,14.6,0,26.69-11.62,26.94-25.91,.14-7.14-2.55-13.9-7.56-19-5.03-5.11-11.72-7.93-18.87-7.93h-50.74v-6.63c0-9.18,7.48-16.65,16.66-16.65h15.7c7.15,0,13.83-2.82,18.86-7.93,5.02-5.11,7.7-11.86,7.57-19-.27-14.29-12.36-25.91-26.95-25.91h-29.57c-7.87,0-14.27,6.38-14.27,14.25v48.22c-3.29-2.15-7.23-3.41-11.46-3.41s-7.79,1.13-10.98,3.1Z" style="fill: #254791;"/>
      </g>
    </g>
  </g>
</svg>