<?xml version="1.0" encoding="UTF-8"?>
<svg xmlns="http://www.w3.org/2000/svg" viewBox="0 0 672.87 474.21">
  <g id="Capa_1" data-name="Capa 1"/>
  <g id="Capa_2" data-name="Capa 2">
    <g id="Capa_1-2" data-name="Capa 1">
      <g>
        <path d="M304.09,283.61c0-19.2,15.57-34.78,34.8-34.78s34.78,15.58,34.78,34.78-15.58,34.79-34.78,34.79-34.8-15.57-34.8-34.79Zm-22.43,129.76c13.19-1.43,23.04-5.46,27.44-23.91h-16.34c-3.05-3.07-3.05-8.04,0-11.1l41.58-41.58c3.06-3.06,8.03-3.06,11.1,0l41.56,41.58c3.06,3.06,3.06,8.03,0,11.1h-17.09c-2.42,24.28-13.61,46.03-30.35,62-11.85,12.5-27.88,21.98-37.79,22.74h-118.95l-50.36-.07C59.41,474.14,0,414.71,0,341.7c0-53.82,32.15-101.28,80.37-121.8-7.28-8.75-13.37-18.37-18.21-28.76-8.17-17.55-12.3-36.31-12.3-55.76C49.86,62.37,109.28,2.94,182.31,2.94h81.55l3.49,.05,56.79,.03c-23.11,13.68-41.06,35.2-50.2,60.84l-6.59,.07-.84-.07h-8.58l-74.2-.09c-39.52,0-72.29,31.5-73.02,70.23-.35,19.36,6.93,37.66,20.52,51.51,13.62,13.84,31.74,21.48,51.1,21.48h42.54c24.88,0,45.14,20.25,45.14,45.12v17.94l-137.52,.03c-19.36,0-37.51,7.64-51.13,21.49-13.56,13.85-20.87,32.15-20.49,51.51,.71,38.71,33.47,70.22,73.03,70.22,0,0-48.75,.03,110.67,.03l37.12,.05Z" style="fill: #ffb103;"/>
        <path d="M309.54,229.29V99.46C309.54,44.61,354.16,0,409.01,0h81.55c73.03,0,132.46,59.42,132.46,132.44,0,19.45-4.14,38.21-12.3,55.77-4.84,10.38-10.93,19.99-18.21,28.74,48.21,20.52,80.36,67.99,80.36,121.81,0,73.02-59.39,132.43-132.46,132.43h-177.96c23.13-13.65,41.11-35.12,50.21-60.8,159.41,0,126.34-.03,126.34-.03,39.56,0,72.32-31.5,73.03-70.22,.38-19.35-6.93-37.67-20.48-51.5-13.63-13.85-31.78-21.49-51.14-21.49l-137.52-.03v-17.95c0-24.86,20.26-45.12,45.14-45.12h42.54c19.36,0,37.48-7.64,51.1-21.48,13.6-13.86,20.86-32.15,20.52-51.51-.74-38.72-33.5-70.23-73.03-70.23h-80.14c-21.32,0-38.66,17.3-38.66,38.62V230.13c-8.92-5.84-19.6-9.25-31.07-9.25s-21.1,3.08-29.74,8.41Z" style="fill: #254791;"/>
      </g>
    </g>
  </g>
</svg>