<?xml version="1.0" encoding="UTF-8"?>
<svg id="Capa_2" data-name="Capa 2" xmlns="http://www.w3.org/2000/svg" viewBox="0 0 34.14 58.17">
  <defs>
    <style>
      .cls-1 {
        fill: #070809;
      }
    </style>
  </defs>
  <g id="Capa_1-2" data-name="Capa 1">
    <g>
      <path class="cls-1" d="M32.99,51.72c-.31-.32-.67-.59-1.08-.81-.61-.33-1.27-.52-1.98-.57-.56-.04-1.12,0-1.67,.15-.57,.15-1.11,.39-1.58,.74-.42,.3-.78,.67-1.05,1.09-.48,.75-.66,1.56-.54,2.43,.08,.58,.3,1.11,.66,1.58,.57,.79,1.35,1.3,2.29,1.59,.3,.1,.61,.16,.91,.19,.09,.01,.17,.01,.24,.05h.72s.07-.02,.11-.03c.16-.03,.31-.05,.47-.08,.67-.12,1.27-.36,1.82-.74,.47-.32,.86-.7,1.16-1.18,.49-.76,.66-1.58,.52-2.46-.12-.75-.48-1.4-1.02-1.95Zm.28,2.69c-.02,.41-.14,.8-.35,1.16-.31,.53-.73,.94-1.26,1.25-.4,.23-.83,.38-1.29,.47-.27,.05-.55,.08-.82,.07-.58,0-1.11-.1-1.63-.31-.65-.27-1.19-.67-1.59-1.25-.24-.36-.42-.77-.47-1.21-.07-.54,.02-1.05,.27-1.55,.25-.5,.63-.9,1.1-1.22,.46-.31,.97-.51,1.54-.61,.3-.06,.6-.08,.92-.07,.63,.03,1.23,.16,1.8,.45,.57,.3,1.04,.71,1.37,1.25,.3,.49,.43,1.01,.4,1.58Z"/>
      <path class="cls-1" d="M15.7,51.79c-.39-.42-.86-.75-1.38-.99-.66-.3-1.36-.45-2.09-.46-.53,0-1.04,.07-1.54,.23-.8,.25-1.5,.67-2.05,1.29-.72,.8-1.03,1.73-.92,2.79,.07,.57,.26,1.09,.58,1.56,.42,.62,.98,1.09,1.67,1.43,.51,.26,1.06,.42,1.63,.48,.07,0,.14,0,.19,.04h.79s.06-.02,.1-.03c.11-.02,.21-.03,.32-.04,.71-.12,1.37-.36,1.96-.77,.62-.42,1.1-.97,1.41-1.65,.3-.64,.37-1.3,.27-1.99-.11-.73-.45-1.36-.95-1.9Zm-.17,3.84c-.28,.47-.67,.85-1.14,1.14-.46,.28-.95,.46-1.49,.54-.24,.04-.47,.06-.64,.06-.76,0-1.41-.15-2.02-.46-.56-.3-1.02-.71-1.35-1.25-.21-.35-.35-.73-.38-1.14-.07-.65,.1-1.25,.46-1.8,.3-.44,.7-.78,1.17-1.05,.45-.26,.95-.42,1.47-.49,.62-.08,1.22-.04,1.8,.13,.66,.19,1.22,.51,1.69,1,.37,.38,.62,.83,.75,1.35,.16,.7,.04,1.36-.32,1.98Z"/>
      <path class="cls-1" d="M34.12,2.2c-.02-.19-.09-.38-.18-.55-.28-.59-.74-1.01-1.33-1.31-.35-.17-.73-.27-1.13-.31-.3-.03-.61-.01-.92,.03-.2,.03-.41,.09-.6,.16-.6,.23-1.09,.59-1.44,1.13-.39,.6-.48,1.25-.3,1.93,.16,.57,.51,1.02,.99,1.38,.68,.48,1.45,.65,2.28,.58,.41-.04,.8-.15,1.17-.34,.44-.22,.8-.53,1.07-.92,.19-.28,.33-.58,.38-.91,0-.02,.01-.04,.02-.06v-.76s-.02-.03-.02-.04Zm-.77,1.4c-.19,.3-.45,.54-.74,.73-.35,.21-.75,.33-1.16,.37-.49,.05-.96-.02-1.4-.2-.48-.2-.86-.5-1.12-.94-.18-.3-.27-.62-.27-.97,.02-.41,.16-.77,.4-1.09,.38-.49,.89-.77,1.5-.9,.2-.04,.4-.06,.57-.06,.55,0,1.04,.13,1.48,.4,.35,.22,.64,.5,.82,.87,.31,.61,.28,1.21-.09,1.79Z"/>
      <path class="cls-1" d="M.05,2.89c.02,.26,.1,.51,.21,.74,.18,.35,.43,.65,.75,.89,.58,.43,1.24,.65,1.98,.66,.33,0,.66-.01,.99-.01,.02,0,.03,0,.06-.01,.02,0,.03-.01,.03-.03,0-.03,0-.06,.01-.09,0-.39,.02-.79,.02-1.19,0-.22,0-.45-.02-.67-.03-.19-.11-.36-.23-.5-.1-.12-.22-.2-.38-.24-.2-.06-.42-.07-.63-.06-.01,0-.02,0-.03,.01,0,0,0,.01,0,.02,0,0,0,0,0,0,.02,.01,.04,.02,.06,.03,.17,.08,.32,.18,.45,.31,.12,.13,.2,.28,.23,.46,.01,.09,.02,.2,.02,.29,0,.33,0,.65,0,.98v.06s-.02,.06-.05,.06c-.08,.01-.15,.03-.21,.03-.43,.03-.84-.02-1.24-.16-.44-.16-.81-.38-1.1-.74-.26-.34-.4-.72-.39-1.14,.01-.39,.14-.74,.37-1.06,.3-.4,.69-.67,1.17-.84,.48-.17,.96-.19,1.46-.11,.15,.03,.3,.05,.44,.11,.02,.01,.06,.03,.09,.01,.02-.03,.02-.06,.02-.09V.31c0-.15,.02-.14-.13-.18C3.5,0,3.03-.03,2.56,.04c-.52,.08-1,.26-1.44,.57C.52,1.04,.14,1.61,.05,2.35c-.02,.04-.02,.08-.05,.1v.34s.04,.06,.05,.1Z"/>
      <path class="cls-1" d="M21.68,54.45c-.16-.22-.35-.37-.62-.45-.02,0-.04-.01-.06-.03,.01-.03,.03-.03,.05-.05,.07-.05,.15-.08,.21-.14,.17-.13,.31-.3,.37-.5,.03-.12,.07-.23,.1-.36,.04-.23,.05-.47,.02-.71-.05-.32-.18-.62-.36-.9-.08-.13-.17-.23-.29-.32-.41-.31-.87-.52-1.41-.54-.21-.01-.43-.03-.64,0-.06,0-.12,0-.18,0h-1.14s-.03,.02-.03,.04c0,.05-.01,.1-.01,.16v7.2s0,.08,0,.12c0,.02,.02,.04,.05,.05h.12c.46,0,.92,0,1.38,0,.25,0,.5,0,.75-.06,.16-.03,.33-.08,.5-.13,.46-.15,.82-.43,1.12-.81,.18-.23,.31-.49,.37-.78,.07-.33,.1-.67,.03-1.01-.04-.29-.16-.56-.33-.8Zm-.53,1.65c-.12,.4-.37,.71-.77,.89-.13,.06-.26,.11-.4,.15-.15,.05-.3,.08-.45,.11-.07,.01-.13,.02-.2,.02-.22,0-.43,0-.65-.01-.05,0-.1,0-.16-.02-.04,0-.06-.02-.06-.06,0-.05,0-.1,0-.14v-5.6s-.02-.07-.06-.08c-.09-.03-.19-.07-.29-.12-.03-.01-.07-.02-.1-.05,.04-.03,.08-.03,.11-.03,.3,0,.6-.01,.9-.01,.09,0,.18,0,.27,.03,.17,.03,.32,.05,.47,.08,.61,.11,1.06,.6,1.15,1.09,.06,.34,.02,.67-.13,.98-.06,.13-.15,.23-.26,.32-.15,.11-.3,.21-.46,.29-.03,.01-.09,.02-.09,.06,0,.03,.06,.04,.09,.06,.07,.04,.15,.06,.24,.09,.2,.06,.38,.18,.53,.32,.16,.16,.28,.34,.33,.56,.09,.36,.09,.72-.01,1.08Z"/>
      <path class="cls-1" d="M4.34,54.49c-.15-.23-.36-.4-.63-.48-.02,0-.04-.01-.06-.03,0-.03,.03-.04,.05-.05,.07-.04,.13-.07,.19-.12,.18-.13,.31-.28,.4-.49,.06-.19,.11-.38,.13-.58,.02-.31,0-.61-.12-.9-.05-.12-.1-.24-.17-.36-.09-.19-.24-.35-.4-.48-.18-.14-.38-.24-.58-.33-.26-.12-.54-.18-.81-.19-.22-.02-.43-.03-.63-.01-.06,.01-.12,.01-.18,.01H.39s-.06,.02-.06,.05v7.46s.02,.04,.06,.05h.11c.49,0,.98,0,1.47,0,.23,0,.45-.02,.68-.06,.18-.04,.35-.08,.53-.14,.43-.15,.77-.43,1.07-.78,.17-.22,.31-.46,.37-.73,.07-.33,.1-.65,.07-.99-.04-.31-.14-.59-.33-.85Zm-.55,1.59c-.07,.26-.2,.49-.4,.68-.09,.08-.2,.15-.31,.2-.31,.16-.64,.25-.98,.31-.04,.01-.08,.01-.12,.01-.24,0-.47,0-.71-.01-.19-.01-.18,0-.18-.19v-5.58c0-.08-.02-.12-.1-.15-.09-.03-.18-.07-.28-.11-.02,0-.05-.01-.06-.04,.03-.02,.06-.02,.09-.02,.31,0,.61-.01,.92-.01,.11,0,.21,0,.31,.03,.14,.03,.28,.05,.42,.07,.61,.11,1.08,.62,1.16,1.11,.06,.33,.03,.66-.13,.97-.05,.12-.14,.23-.26,.31-.14,.11-.29,.21-.45,.28-.03,.02-.06,.03-.09,.05-.03,0-.03,.03,0,.04,.06,.03,.12,.07,.19,.09,.04,.01,.08,.02,.12,.04,.48,.18,.79,.5,.88,1,.06,.31,.06,.62-.03,.93Z"/>
      <path class="cls-1" d="M13.4,7.69c-.43,.7-.5,1.43-.22,2.19,.21,.58,.61,1.02,1.13,1.36,.57,.36,1.2,.53,2.01,.54,.21,0,.54-.04,.86-.13,.49-.14,.94-.37,1.31-.72,.55-.5,.87-1.11,.89-1.85,.01-.49-.11-.94-.36-1.37-.29-.46-.69-.82-1.17-1.08-.61-.32-1.26-.44-1.94-.39-.6,.05-1.15,.23-1.64,.55-.36,.23-.65,.53-.87,.89Zm1.65-.7c.37-.15,.76-.22,1.16-.22,.55,0,1.06,.13,1.53,.41,.4,.24,.72,.55,.92,.97,.33,.68,.27,1.34-.15,1.96-.32,.48-.77,.79-1.32,.97-.23,.08-.47,.12-.72,.15-.41,.04-.81-.01-1.2-.13-.45-.14-.84-.36-1.15-.7-.3-.3-.49-.67-.56-1.09-.08-.49,.02-.95,.28-1.36,.29-.45,.7-.76,1.2-.96Z"/>
      <path class="cls-1" d="M20.33,7.45c.2,.21,.4,.41,.62,.62,.94,.94,1.87,1.88,2.8,2.83,.3,.29,.6,.59,.89,.88,.02,.02,.03,.03,.06,.05,0,.01,.03,0,.03-.01V6.5s-.02-.05-.04-.05h-.46c-.07,0-.08,0-.08,.08,0,.04,0,.07,0,.11v3.67s0,.08,0,.12c0,.02-.03,.03-.04,0-.05-.04-.1-.09-.15-.15-.75-.74-1.49-1.48-2.23-2.22-.56-.55-1.1-1.1-1.66-1.64-.03-.02-.06-.05-.09-.07,0-.01-.03,0-.03,.01v5.32s.01,.04,.04,.04c.01,0,.02,0,.03,0,.14,0,.29,0,.42,0,.07,0,.08,0,.08-.07v-.12c0-1.16,0-2.33,0-3.5,0-.14-.03-.27-.12-.39-.06-.08-.1-.17-.16-.26,.01,0,.02,0,.02,0,.02,.02,.04,.04,.06,.06Z"/>
      <path class="cls-1" d="M5.59,4.61c.58,.43,1.24,.63,1.97,.63,.35,0,.69-.04,1.02-.15,.65-.2,1.19-.57,1.57-1.12,.35-.51,.48-1.07,.4-1.68-.07-.52-.3-.96-.67-1.34C9.29,.36,8.57,.06,7.72,0c-.25-.01-.51,0-.75,.05-.58,.11-1.1,.34-1.55,.72-.5,.45-.8,.99-.86,1.66-.02,.31,.01,.61,.11,.9,.16,.52,.48,.94,.92,1.27Zm-.06-3.18c.28-.35,.65-.58,1.09-.73,.3-.11,.62-.15,.91-.16,.46,0,.87,.09,1.26,.28,.42,.2,.76,.49,.98,.88,.4,.67,.36,1.33-.06,1.97-.3,.44-.72,.73-1.24,.9-.67,.22-1.34,.2-2-.06-.43-.17-.78-.44-1.06-.81-.19-.27-.31-.57-.34-.9-.04-.52,.12-.97,.45-1.36Z"/>
      <path class="cls-1" d="M22.95,5.02v.09s.01,.04,.05,.04c.08,.01,.14,.01,.21,.01h.17q.11-.01,.11-.11V1.57s0-.04,0-.06c0-.06-.01-.11-.04-.16-.06-.08-.1-.17-.15-.25-.04-.04-.06-.07-.06-.12h0s0,0,0,0h0c.05,.02,.08,.06,.09,.09,.02,.01,.03,.03,.04,.05,.72,.72,1.44,1.45,2.17,2.17,.63,.63,1.25,1.25,1.88,1.88,.03,.03,.06,.07,.11,.07,.02-.04,.01-.09,.01-.12V.16c0-.06-.01-.07-.07-.07-.13,0-.27,0-.4,0-.08,0-.09,.01-.09,.09V3.91s0,.01-.02,.01c0,0-.01,0-.02,0-.02-.02-.04-.03-.06-.05-.57-.56-1.14-1.12-1.7-1.69-.71-.7-1.42-1.4-2.13-2.11-.03-.03-.05-.07-.09-.08-.04,.03-.02,.08-.02,.12V5.02Z"/>
      <path class="cls-1" d="M2.87,9.24c-.09,.11-.19,.2-.31,.29-.29,.2-.62,.33-.99,.32-.09,0-.19,0-.28,0-.03,0-.06,0-.07,.02,0,.02,.02,.04,.03,.05,.02,.03,.06,.06,.08,.09,.3,.31,.6,.62,.9,.93,.21,.23,.43,.45,.63,.67,.06,.05,.09,.07,.17,.07,.22,0,.43,0,.65,0,.02,0,.04,0,.06,0,.02,0,.02-.02,.02-.03-.03-.03-.04-.04-.06-.06-.2-.2-.39-.41-.59-.61-.24-.23-.45-.48-.69-.69-.02-.02-.04-.04-.06-.07-.01-.02-.01-.04,.02-.04,.12-.04,.23-.09,.35-.14,.38-.2,.66-.47,.84-.85,.09-.2,.16-.4,.18-.63,0-.14,0-.28-.01-.41-.03-.27-.1-.51-.25-.74-.27-.41-.64-.68-1.1-.85-.29-.1-.58-.14-.89-.14-.12,0-.26,0-.39,0-.21,0-.41,0-.62,0-.03,0-.07,0-.11,0-.01,0-.03,.02-.04,.04v.09c0,.18,0,.35,0,.53v4.43s0,.08,.01,.12c0,.05,0,.06,.06,.06h.34c.17,0,.16,.01,.16-.16V7.16s0-.06,0-.09c0-.04,0-.05-.05-.07-.08-.02-.16-.03-.23-.05-.01,0-.04-.01-.05-.02h-.01s.01-.03,.01-.03c.02-.02,.05-.01,.09-.01,.26,0,.52,0,.77,0,.12,0,.25,0,.37,.02,.4,.07,.75,.24,1.02,.54,.16,.19,.28,.4,.31,.64,.01,.17,.02,.34,0,.51-.03,.23-.12,.45-.29,.63Z"/>
      <path class="cls-1" d="M25.2,11.67s.06,0,.09,0h.5s.04-.01,.05-.03c.02-.03,.04-.06,.06-.09,.09-.17,.19-.35,.29-.52,.18-.31,.34-.63,.52-.94,.01-.02,.02-.05,.03-.08,.01-.03,0-.05-.03-.06-.02,0-.04-.01-.06-.03-.06-.02-.08-.04-.12-.1,.03-.02,.05-.01,.08-.01,.83,0,1.66,0,2.48,0,.08,0,.12,.03,.16,.1,.2,.37,.4,.75,.61,1.12,.1,.2,.21,.39,.31,.58,.02,.04,.05,.06,.1,.06h.5s.03,0,.05-.02c0-.04-.03-.07-.05-.11-.15-.29-.31-.59-.46-.87-.53-1.03-1.08-2.04-1.61-3.07-.21-.4-.41-.8-.63-1.2-.01-.03-.03-.07-.06-.09-.01,.01-.02,.03-.03,.04-.93,1.76-1.86,3.52-2.78,5.28,0,0,0,.01,0,.03Zm2.81-4.13s.04,.05,.06,.07c.13,.24,.26,.48,.39,.72,.15,.28,.3,.57,.45,.86,.06,.1,.06,.11-.07,.11h-1.64s-.08,0-.12-.01c.04-.09,.85-1.65,.93-1.75Z"/>
      <path class="cls-1" d="M9.76,6.3c-.52,.06-1,.21-1.44,.48-.4,.24-.73,.55-.96,.92-.36,.57-.47,1.2-.31,1.85,.13,.61,.49,1.09,1,1.47,.31,.23,.66,.39,1.03,.51,.3,.09,.63,.14,.94,.14,.35,0,.73-.01,1.09-.02,.06,0,.07,0,.08-.06v-.06c.02-.51,.03-1.03,.04-1.55,0-.12-.01-.24-.02-.35-.02-.18-.09-.34-.2-.49-.12-.16-.27-.28-.47-.33-.19-.04-.38-.06-.58-.05-.04,0-.08,0-.12,.02t0,.02s.04,.02,.05,.03c.12,.05,.24,.11,.33,.2,.19,.14,.32,.31,.38,.54,.03,.13,.04,.27,.04,.4v1.06s-.01,.05-.05,.06c-.02,0-.03,0-.05,0-.29,.04-.58,.04-.87,0-.35-.05-.7-.16-1.02-.33-.32-.18-.59-.4-.8-.69-.36-.53-.44-1.11-.21-1.71,.15-.4,.42-.72,.76-.97,.41-.3,.88-.47,1.39-.52,.22-.03,.43-.03,.65,0,.22,.03,.45,.05,.65,.15,.02,0,.04,0,.06,.01,.04,0,.05,0,.05-.04,0-.14,0-.28,0-.41,0-.11,.01-.11-.11-.15-.45-.12-.89-.17-1.34-.12Z"/>
      <path class="cls-1" d="M19.16,.74c0,1.42,0,2.83,0,4.24,0,.04,0,.08,0,.12,0,.05,0,.05,.06,.06,.11,0,.22,0,.33,0,.16,0,.15,0,.15-.16V.74s-.02-.05-.05-.06c-.07-.02-.14-.03-.23-.05,0,0-.03,0-.04-.01,0,0,0,0,0,0,0-.01,0-.02,.01-.02,.02,0,.03-.01,.06-.01,.32,0,.62,0,.93,0,.45,.01,.84,.18,1.14,.5,.17,.18,.28,.37,.32,.6,.04,.19,.04,.4,0,.59-.04,.18-.09,.35-.21,.49-.14,.18-.31,.32-.5,.44-.26,.14-.51,.23-.81,.22-.08,0-.17,0-.26,0h-.06s-.02,.02-.01,.04c.01,.02,.03,.04,.04,.05,.35,.36,.68,.72,1.01,1.07,.18,.18,.35,.35,.53,.54,.04,.05,.08,.07,.14,.07,.22-.01,.43,0,.65,0,.01,0,.02,0,.02,0,.01,0,.04,0,.04-.01,.01,0,0-.02,0-.03-.04-.03-.06-.06-.08-.08-.18-.19-.36-.37-.55-.56-.22-.22-.44-.44-.66-.66-.02-.03-.05-.05-.07-.09,.02,0,.05-.02,.07-.03,.11-.03,.2-.08,.31-.14,.25-.12,.46-.29,.62-.51,.28-.38,.39-.8,.35-1.26-.02-.17-.04-.32-.11-.48-.19-.48-.55-.81-1.02-1.03-.36-.16-.74-.21-1.13-.21-.07,0-.16,0-.23,0h-.63s-.07,0-.1,0c-.03,0-.05,.02-.05,.06v.08c0,.17,0,.34,0,.51Z"/>
      <path class="cls-1" d="M11.33,5.17c.28,0,.56-.01,.84,0,.16,0,.31,0,.46-.03,.4-.06,.75-.2,1.04-.48,.21-.22,.36-.47,.41-.78,.02-.16,.02-.33,.02-.5-.02-.23-.11-.44-.25-.63-.1-.13-.21-.23-.38-.28-.02-.01-.04-.02-.06-.03,0-.03,.03-.03,.04-.05,.05-.03,.1-.06,.14-.09,.11-.08,.2-.19,.24-.32,.14-.4,.12-.79-.08-1.17-.09-.18-.22-.33-.39-.44-.3-.2-.63-.31-1-.3-.04,0-.08,0-.12,0-.3,.02-.61,.01-.91,.01h-.02c-.15,0-.14,0-.14,.14V5.03c0,.14-.01,.14,.14,.14Zm.11-4.61s.06,0,.09,0c.16,0,.32,0,.47,0,.25,0,.48,.05,.71,.11,.04,0,.07,.03,.11,.04,.28,.14,.46,.35,.53,.64,.06,.23,.02,.45-.07,.66-.05,.09-.1,.16-.18,.23-.11,.08-.21,.14-.33,.2-.02,0-.04,.01-.04,.04,0,.03,.03,.04,.04,.04,.06,.02,.11,.04,.17,.06,.24,.09,.42,.23,.53,.45,.04,.1,.06,.21,.08,.31,.02,.26,0,.52-.14,.76-.07,.13-.18,.24-.31,.32-.24,.13-.49,.2-.75,.25-.01,0-.04,0-.06,0-.17,0-.34,0-.52-.02-.06,0-.07,0-.07-.06V.79c0-.06-.01-.09-.08-.11-.06-.03-.13-.05-.19-.09,0,0-.02-.01-.02-.02,0-.01,.01-.01,.02-.01Z"/>
      <path class="cls-1" d="M12.47,48.97c.51,.2,1.06,.26,1.61,.16,.61-.1,1.12-.36,1.54-.8,.4-.41,.6-.89,.6-1.53,0-.23-.07-.53-.19-.81-.25-.51-.65-.88-1.17-1.13-.53-.26-1.1-.35-1.69-.26-.64,.08-1.19,.33-1.63,.79-.42,.43-.64,.94-.63,1.52,0,.36,.1,.7,.29,1.02,.28,.49,.72,.84,1.27,1.05Zm-.83-3.02c.25-.38,.61-.64,1.05-.8,.33-.12,.68-.17,1.05-.15,.35,.03,.68,.1,.99,.26,.39,.2,.7,.49,.9,.89,.2,.39,.23,.79,.08,1.21-.13,.4-.4,.71-.74,.95-.37,.26-.87,.43-1.38,.42-.52,0-.96-.12-1.37-.38-.28-.18-.5-.4-.66-.68-.31-.59-.28-1.16,.08-1.72Z"/>
      <path class="cls-1" d="M23.73,50.47h-.67s-.05,.02-.05,.04c0,.05,0,.08,0,.13v7.3c0,.07,.01,.09,.08,.09h.68s.05-.03,.05-.05v-7.43c0-.07-.01-.08-.08-.08Z"/>
      <path class="cls-1" d="M6.46,50.51s-.02-.04-.05-.04h-.7s-.06,.02-.06,.05c-.01,.04-.01,.09-.01,.13v7.27c.01,.1,.02,.11,.12,.11h.64s.06-.03,.06-.05v-7.47Z"/>
      <path class="cls-1" d="M17.1,45.77c-.05-.07-.09-.14-.13-.22,0,0,.01-.01,.02-.01,.06,.04,.1,.09,.15,.14,.78,.78,1.55,1.55,2.32,2.32,.37,.38,.75,.76,1.14,1.14,.02,.02,.04,.07,.08,.06,.05-.02,.02-.07,.02-.11,0-1.41,0-2.81,0-4.22,0-.04,0-.07,0-.1,0-.03-.02-.05-.04-.05h-.38s-.05,.02-.06,.05c0,.04,0,.09,0,.14v3.04s.02,.08-.02,.09c-.04,.01-.05-.03-.07-.05-.46-.45-.91-.9-1.38-1.36-.64-.64-1.28-1.28-1.92-1.92-.02-.02-.05-.04-.06-.06-.02-.01-.04,0-.04,.02,0,.03,0,.07,0,.09v4.22s0,.06,0,.09c0,.04,.02,.05,.05,.05,.12,0,.24,0,.36,0,.04,0,.05-.02,.06-.06v-.11c0-.97,0-1.95,0-2.92,0-.1-.02-.19-.08-.27Z"/>
      <path class="cls-1" d="M4.43,11.67h2.27c.05,0,.07-.01,.08-.06,.04-.13,.08-.26,.11-.4,.03-.1,.01-.1-.09-.1h-1.89c-.06,0-.06-.01-.07-.07v-.05c0-.52,0-1.04,0-1.57v-.06s.02-.04,.06-.04c.02,0,.06,0,.09,0h1.13c.06,0,.07,0,.07-.07v-.36q0-.13-.14-.13h-1.02c-.2,0-.18,.02-.18-.18v-1.51s-.02-.07-.04-.08c-.03,0-.05-.01-.06-.02-.06-.01-.1-.04-.17-.08,.07-.02,.11-.01,.15-.01h1.93s.07,0,.12,0c.03,0,.04-.02,.03-.05,0-.02,0-.04-.01-.05-.04-.12-.09-.23-.13-.34-.02-.04-.04-.06-.08-.05-.03,0-.06,0-.09,0h-2.06c-.17,0-.16,0-.16,.15v4.97c0,.16-.01,.16,.16,.16Z"/>
      <path class="cls-1" d="M25.71,49.08c.06,0,.11,0,.16-.02,.21-.03,.41-.08,.61-.15,.34-.12,.67-.28,.95-.53,.31-.26,.53-.59,.62-.98,.09-.33,.1-.65,.08-.98-.01-.07-.03-.13-.05-.2-.08-.36-.28-.67-.56-.93-.26-.26-.57-.44-.93-.52-.19-.05-.36-.09-.54-.11-.19-.03-.38-.05-.58-.05h-.62s-.06,0-.1,0c-.02,0-.04,.02-.04,.04v4.29c0,.13,0,.13,.13,.13h.88Zm-.52-.56v-3.32s-.02-.06-.06-.07c-.03-.01-.08-.02-.12-.03-.03,0-.07-.01-.12-.04,.08-.03,.13-.03,.21-.03,.14,0,.28,0,.44-.01,.42,0,.8,.09,1.18,.25,.45,.2,.91,.69,.97,1.33,.03,.24,.01,.48-.05,.72-.05,.18-.13,.33-.24,.48-.26,.32-.58,.55-.99,.68-.18,.06-.36,.1-.55,.12-.03,0-.07,.02-.09,.02h-.46c-.1,0-.1-.01-.11-.11Z"/>
      <path class="cls-1" d="M16.18,5.17h2.12c.14,0,.11,0,.15-.12,.03-.08,.04-.15,.06-.23,.01-.06,.05-.11,.04-.17-.06-.04-.13-.02-.2-.02-.55,0-1.12,0-1.68,0q-.1,0-.1-.09v-.94c0-.18,0-.36,0-.55v-.09s.02-.04,.04-.04c.03,0,.07,0,.1,0h1.05q.11,0,.11-.11v-.3c0-.14,0-.14-.14-.14h-1s-.08,0-.12,0c-.02,0-.04-.01-.04-.03V.77s0-.07-.06-.09c-.03,0-.06-.02-.09-.04-.03-.02-.07-.02-.09-.06,.04-.02,.09-.01,.13-.01h1.93c.06,0,.08-.02,.06-.06-.04-.12-.09-.24-.14-.36,0-.04-.03-.06-.08-.06h-2.07s-.07,0-.1,0c-.03,0-.04,.01-.04,.04V5.01c0,.16-.01,.15,.15,.15Z"/>
      <path class="cls-1" d="M2.1,47.82c.1-.04,.21-.08,.3-.14,.46-.25,.72-.65,.79-1.15,.02-.14,.01-.28,0-.41-.02-.2-.08-.39-.19-.57-.18-.31-.45-.52-.77-.68-.28-.13-.57-.19-.89-.19H.5c-.15,0-.16,0-.15,.15,0,.22,.02,.44,.02,.65v3.53c0,.05,.02,.07,.06,.07,.12,0,.23,0,.35,0,.02,0,.05-.02,.05-.05v-3.65s0-.06,0-.09c0-.08-.01-.09-.08-.11-.06-.01-.12-.03-.18-.04,0,0-.02-.01,0-.02,0,0,0-.02,.01-.02,.02,0,.04,0,.06,0,.26,0,.52,0,.78,0,.16,0,.32,.05,.47,.08,.02,0,.03,0,.03,.01,.06,.03,.13,.07,.18,.1,.12,.07,.23,.15,.33,.26,.13,.16,.24,.33,.26,.55,.02,.15,.02,.29,0,.44-.02,.15-.07,.3-.16,.43-.2,.26-.46,.45-.77,.54-.12,.03-.23,.05-.35,.05-.09,0-.17,0-.26,0-.02,0-.04,0-.05,.01-.02,.03,0,.04,.02,.06,.02,.02,.04,.04,.06,.06,.16,.16,.32,.33,.48,.5,.26,.27,.52,.54,.78,.81,.05,.06,.11,.08,.18,.08,.16,0,.31,0,.46,0,.02,0,.06,0,.09,0,.01,0,.02-.02,.01-.04-.02-.03-.04-.05-.07-.08-.3-.31-.6-.61-.9-.91-.02-.03-.06-.06-.08-.08-.02-.02-.04-.04-.06-.06-.04-.06-.04-.07,.03-.09Z"/>
      <path class="cls-1" d="M9.23,49.08q.15,0,.16-.15c0-.22,0-.44,.02-.7,.01-.16,.01-.37,.01-.57,0-.14-.01-.27-.05-.41-.08-.28-.26-.49-.57-.56-.14-.03-.26-.04-.4-.03-.02,0-.05,0-.07,0-.01,0-.03,.01-.03,.02,0,.01,.01,.03,.02,.03,.08,.04,.15,.07,.23,.12,.21,.14,.36,.33,.38,.59,.02,.11,.02,.22,.02,.33,0,.22,0,.45,0,.67,0,.03,0,.07,0,.11,0,.05-.02,.06-.07,.07-.09,.02-.19,.03-.3,.03-.35,.01-.68-.05-1.01-.17-.36-.14-.68-.35-.91-.67-.4-.55-.43-1.12-.1-1.7,.25-.42,.62-.71,1.09-.87,.36-.14,.74-.17,1.12-.14,.18,.02,.36,.04,.52,.11,.03,.01,.05,.01,.08,.02,.02,0,.04,0,.05-.03,0-.13,0-.26,0-.38,0-.03-.02-.05-.06-.06-.02-.01-.04-.01-.06-.02-.28-.08-.59-.12-.9-.12-.22,.01-.44,.04-.66,.1-.56,.15-1.03,.43-1.4,.88-.39,.48-.54,1.01-.45,1.61,.08,.49,.32,.91,.72,1.24,.29,.25,.63,.43,1.01,.54,.26,.07,.5,.12,.75,.12,.28,0,.57,0,.86,0Z"/>
      <path class="cls-1" d="M31.81,6.46s-.01-.06-.06-.06h-.28c-.24,0-.21-.03-.21,.2v4.94c0,.16,0,.14,.16,.14h2.36s.05-.02,.06-.05c.03-.08,.06-.16,.08-.24,.01-.05,.04-.1,.05-.15,.01-.03,0-.05-.04-.05-.03,0-.08,0-.12,0h-1.8s-.08,0-.13,0c-.04,0-.05-.02-.05-.06,0-.04,0-.08,0-.12V6.57s0-.07-.01-.11Z"/>
      <path class="cls-1" d="M5.72,49.02c.03-.1,.06-.21,.09-.32v-.03s0-.04-.03-.05c-.05,0-.09,0-.13,0h-1.39q-.16,0-.16-.15c0-.4,0-.8,0-1.2q0-.14,.14-.14c.27,0,.54,0,.81,0,.03,0,.08,0,.11,0,.04,0,.06-.02,.06-.06v-.28c0-.12,0-.12-.13-.12h-.88c-.12,0-.12,0-.12-.12,0-.04,0-.07,0-.11v-1.15s-.02-.08-.06-.09c-.04-.02-.09-.04-.13-.06v-.02c.05,0,.09,0,.14,0h1.53s.09,0,.12,0c.04,0,.05-.02,.04-.06-.02-.08-.06-.16-.09-.24-.04-.12-.02-.12-.18-.12h-1.68c-.16,0-.16,0-.16,.15v4.09c0,.17,0,.17,.17,.17h1.75s.06,0,.08,0c.05,0,.08-.02,.09-.07Z"/>
      <path class="cls-1" d="M29.22,45.11h1.53s.08,0,.12,0c.04,0,.04-.02,.04-.06-.03-.07-.06-.16-.09-.23-.06-.13-.03-.13-.18-.13h-1.67c-.17,0-.16,0-.16,.17v4.06s0,.06,0,.09c0,.06,.02,.07,.08,.08,.03,0,.05,0,.08,0,.59,0,1.18,0,1.78,0h.08s.06-.02,.07-.06c.03-.11,.06-.22,.09-.33,.01-.06,0-.07-.07-.08h-1.49q-.16,0-.16-.15v-1.2c0-.14,0-.14,.14-.14,.27,0,.54,0,.81,0,.04,0,.08,0,.11,0,.05,0,.06-.02,.06-.06v-.3c0-.1,0-.1-.11-.11h-.85c-.17,0-.17,0-.17-.16,0-.38,0-.75,0-1.13,0-.03,0-.07,0-.1,0-.03-.02-.05-.06-.06-.04-.03-.08-.04-.16-.08,.07-.02,.11-.02,.15-.02Z"/>
      <path class="cls-1" d="M11.93,11.62c0,.05,.02,.06,.06,.06h.35c.16,0,.15,.02,.15-.14V6.57s0-.08,0-.12c0-.04-.02-.06-.06-.06h-.45s-.06,.02-.06,.05c0,.04,0,.07,0,.11v5.06Z"/>
      <path class="cls-1" d="M14.74,2.63v2.37s0,.08,.01,.12c0,.03,.01,.04,.04,.04,.14,0,.3,0,.45,0,.03,0,.05-.01,.05-.04V.15s-.02-.06-.06-.06c-.11,0-.21,0-.32,0-.18,0-.17,0-.17,.16V2.63Z"/>
      <path class="cls-1" d="M31.63,49.1h1.94s.06-.02,.06-.04c.03-.11,.07-.2,.09-.3,.02-.05,0-.07-.06-.07-.03,0-.06,0-.11,0h-1.54s-.05-.02-.05-.07c-.01-.04-.01-.08-.01-.13v-3.74s-.02-.06-.06-.06c-.11,0-.22,0-.35,0-.03,0-.04,.02-.05,.06v4.21q0,.14,.13,.14Z"/>
      <path class="cls-1" d="M10.48,46.9v-2.04s0-.09,0-.13c0-.03-.02-.05-.06-.05h-.36s-.05,.02-.05,.05v4.2s0,.06,0,.09c0,.06,.02,.07,.08,.08h.18c.23,0,.21,.01,.21-.2v-2.01Z"/>
      <path class="cls-1" d="M23.32,1.07s0,0-.01,0c0,0,0,.02,0,.03,.01-.01,.02-.03,.03-.03,0,0-.01,0-.02,0Z"/>
      <path class="cls-1" d="M23.25,.99s.02,.08,.06,.12c0-.01,0-.02,0-.03,0,0,0,0,.01,0,0,0,.02,0,.02,0-.02-.04-.04-.07-.09-.09Z"/>
      <polygon class="cls-1" points="23.24 .99 23.25 .99 23.25 .98 23.24 .99"/>
      <polygon class="cls-1" points="23.24 .98 23.24 .99 23.25 .98 23.24 .98"/>
      <path class="cls-1" d="M33.45,37.55c-.03-.07-.04-.15-.03-.22,0-.07,.01-.14,.03-.21,.01-.2,.04-.4,.06-.6,.02-.18,.04-.35,.06-.53,.02-.19,.04-.37,.06-.56,.02-.21,.04-.41,.07-.62,.02-.2,.04-.38,.06-.58,.02-.13,.02-.26,.04-.39,.02-.18,0-.36,0-.54-.02-.31-.06-.62-.16-.93-.26-.75-.73-1.38-1.27-1.96-.57-.59-1.23-1.07-1.94-1.49-.7-.42-1.45-.78-2.19-1.11-.87-.39-1.78-.71-2.7-.97-.87-.26-1.76-.5-2.64-.72-.85-.22-1.69-.44-2.55-.61-.2-.04-.42-.08-.62-.17-.09-.04-.18-.09-.25-.16-.15-.13-.14-.29,0-.42,.07-.05,.14-.1,.23-.14,.44-.21,.9-.37,1.34-.57,.31-.13,.62-.26,.89-.46,.24-.18,.34-.43,.28-.72-.08-.34-.3-.6-.57-.8-.35-.25-.75-.39-1.15-.5-1.05-.28-2.1-.55-3.17-.72-.34-.05-.67-.12-1.01-.14,.7,.03,1.41,0,2.12,0,2.78,0,5.55,0,8.33-.02,2.23-.02,4.47,0,6.7,0,.07,0,.14,0,.21,0,.06,0,.1-.01,.13-.06,.03-.13,.02-.26-.01-.39-.16-.58-.31-1.17-.46-1.76-.02-.07-.05-.15-.06-.23,0-.06,0-.13,.02-.2,0-.07,0-.13,0-.19,0,0,0-.01,0-.02,.03-.06,.02-.12,.02-.18,0-.02,0-.04,0-.06,.02-.06,.02-.12,.02-.17v-.07s.02-.06,.03-.09c.01-.15,.03-.31,.04-.45,.01-.13,.02-.27,.04-.41,.03-.08,.02-.17,.03-.25,.01-.16,.04-.31,.04-.46,.02-.06,.02-.13,.02-.2,0-.03,0-.04,.01-.06h0s.02-.07,.02-.11c.04-.37,.07-.74,.11-1.11,.02-.24,.06-.47,.07-.7,0-.05,0-.06-.06-.06-.08,0-.16,.01-.25,.02-.24,.02-.47,.04-.71,.06-.2,.02-.41,.04-.6,.05-.23,.03-.45,.04-.67,.06-.31,.03-.63,.06-.94,.08-.23,.03-.45,.05-.69,.07-.06,0-.12,0-.18,0-.75-.15-1.51-.3-2.24-.46-.1-.02-.21-.02-.31,0-.34,.04-.67,.07-1.01,.11-.32,.03-.65,.06-.99,.1-.35,.04-.7,.08-1.06,.11-.19,.02-.37,.05-.55,.09-.11,.03-.21,.06-.33,.05-.02,0-.05,0-.07,.01-.49,.07-.99,.16-1.48,.25-.21,.04-.41,.07-.62,.03h-.04c-.27-.02-.54-.04-.8-.06-.28-.02-.57-.04-.85-.06-.25-.01-.5-.04-.76-.06-.28-.02-.56-.04-.85-.06-.25-.02-.5-.04-.75-.05-.28-.03-.57-.05-.85-.06-.25-.02-.51-.04-.76-.06-.26-.02-.51-.04-.77-.06-.36-.02-.72-.03-1.08-.05-.27-.01-.54-.02-.8-.03-.04,0-.08,0-.13-.02-.03,0-.07-.01-.09-.01-.18-.01-.36-.03-.53-.03-.5,0-1-.02-1.5-.04-.24-.01-.48-.02-.72-.04-.28-.02-.57,0-.86,.03-.29,.03-.57,.06-.87,.09-.29,.02-.59,.05-.88,.08-.08,.01-.16,0-.23-.01-.23-.06-.48-.11-.7-.17-.08-.02-.15-.02-.22-.01-.26,.04-.52,.08-.77,.11-.37,.06-.74,.11-1.1,.16-.3,.04-.59,.09-.89,.07-.12,0-.23-.01-.35-.03-.41-.08-.83-.15-1.24-.23-.32-.06-.64-.08-.96-.12-.03,0-.08,0-.12,0-.02,0-.04,.01-.04,.04,0,.08,.02,.16,.03,.24,.03,.3,.06,.6,.09,.9,.01,.09-.01,.17-.06,.25-.05,.1-.1,.21-.16,.32-.01,.03-.03,.05-.03,.08,.02,.08,.01,.16,.05,.23,0,0,0,.01,0,.02,0,.05,0,.1,.01,.15H.39s0,.08,0,.12c.05,.3,.08,.61,.14,.91,0,.07,0,.15,.04,.22v.03s0,.1,.02,.15v.04c0,.05,0,.09,.02,.13H.62v.04c0,.05,0,.1,.02,.14,0,.06,0,.11,.02,.17,.02,.18,.05,.36,.06,.55,0,.03,.01,.06,.02,.09-.01,.18,.02,.35,.03,.53,.02,.42,.06,.82,.09,1.23,.02,.24,.03,.47,.06,.71,.01,.06,.05,.08,.12,.08,.07,0,.16,0,.23,0,3.72,0,7.43,0,11.16,0,.44,0,.88,0,1.32,.08,.9,.17,1.82,.29,2.73,.47,.52,.11,1.04,.25,1.53,.45,.21,.08,.41,.19,.56,.36,.2,.23,.18,.52-.04,.73-.08,.08-.18,.14-.29,.18-.45,.18-.92,.31-1.39,.42-.88,.21-1.77,.37-2.64,.63-.5,.15-.99,.31-1.39,.63-.54,.41-.65,1.23,0,1.68,.34,.24,.72,.4,1.1,.55,.51,.21,1.01,.41,1.51,.66,.58,.29,1.15,.61,1.68,.97,.35,.24,.69,.49,.91,.86,.32,.57,.35,1.14,.01,1.71-.18,.32-.45,.58-.74,.82-.53,.45-1.11,.84-1.73,1.17-.81,.41-1.66,.71-2.53,.96-1,.29-2.02,.51-3.04,.72-.66,.14-1.33,.28-2,.39-1.02,.17-2.06,.26-3.09,.32-.62,.03-1.22,.06-1.82,.07-.6,.02-1.19-.01-1.78-.02-.05,0-.09,0-.13,0-.22-.02-.45-.03-.68-.04-.15,0-.17,.02-.17,.16v.41c0,.27,0,.55,0,.81,.01,.02,0,.03,.01,.04,.04,.26,.11,.52,.16,.78,.09,.4,.17,.8,.25,1.19,.02,.08,.03,.17,.06,.24,0,.05,0,.09-.01,.13-.03,.26-.07,.51-.1,.76-.03,.16-.06,.32-.07,.48,0,.02-.01,.05-.01,.07-.05,.29-.09,.58-.13,.87-.01,.09-.03,.18-.03,.27-.03,.05-.03,.1-.03,.15v.04s-.03,.1-.02,.14c0,.01-.01,.02-.01,.02,0,.02-.01,.05-.02,.07-.04,.28-.07,.56-.11,.85,0,.03,0,.07,0,.1,0,.03,.02,.05,.04,.05,.01,0,.03,0,.05,0,.18,0,.36,0,.54,0,.27-.01,.54-.03,.81-.04,.25-.01,.5-.02,.75-.03,.21,0,.42-.02,.64-.03,.28-.01,.53-.03,.81-.04,.2-.01,.38-.02,.58-.03,.09,0,.16,0,.24,.04,.11,.04,.22,.07,.33,.11,.1,.04,.18,.05,.28,.05,.4,0,.81,0,1.2,0,.09,0,.18,0,.26-.01,.23-.04,.45-.07,.68-.11,.06,0,.11,0,.17,.02,.08,.03,.16,.05,.24,.08,.06,.02,.13,.03,.19,.03,.21,0,.42,0,.64,0,.04,0,.09,0,.15,0,.19-.03,.4-.05,.61-.08,.64-.08,1.29-.16,1.94-.25,.57-.07,1.16-.15,1.75-.23,.09-.01,.16,0,.24,.03,.35,.14,.71,.29,1.07,.43q.27,.11,.57,.11c.11,0,.22,0,.33-.01,.45-.08,.91-.15,1.35-.22,.4-.07,.8-.13,1.21-.19,.04,0,.09,0,.14,0,.16,0,.32,.02,.49,.03,.12,0,.25,.02,.38,.03,.31,.02,.62,.04,.93,.06,.26,.02,.53,.04,.8,.06,.29,.03,.59,.04,.88,.07,.3,.02,.6,.04,.9,.06,.28,.02,.55,.03,.82,.05,.3,.02,.6,.05,.91,.06,.28,.02,.57,.05,.86,.04,.17,0,.35,0,.52,0h1.02c.06,0,.1,0,.14-.03,.07-.04,.15-.08,.21-.11,.05-.02,.1-.04,.15-.03,.11,0,.21,0,.32,0,.63,.01,1.26,.03,1.9,.04,.72,.01,1.44,.03,2.17,.05,.62,.02,1.24,.03,1.86,.04,.17,0,.17,.02,.18-.15,.03-.31,.05-.62,.08-.93v-.18s.02-.09,.02-.14c.01-.1,.02-.2,.04-.3,0-.07-.01-.14-.05-.21-.09-.16-.17-.32-.26-.48-.02-.04-.04-.09-.04-.14,0-.03,.02-.06,.03-.09,.07-.31,.14-.63,.2-.94,.03-.11,.06-.22,.07-.33,0-.02,.02-.04,.02-.05,.04-.2,.08-.41,.14-.61,.03-.13,.01-.23-.04-.35-.1-.25-.21-.48-.3-.73Zm-6.07-20.39c-.21,.06-.42,.11-.63,.17-1.05,.28-2.1,.55-3.02,.81,.17-.08,.43-.26,.68-.42,.03-.02,.05-.04,.06-.08,.04,.03,.09-.01,.13-.04,.2-.13,.41-.25,.61-.38,.3-.19,.59-.38,.9-.56,.04-.02,.1-.05,.1-.1,.06,0,.1-.02,.16-.06,.19-.12,.38-.24,.57-.36,.2-.12,.39-.26,.61-.37,0,0,.02,0,.03,0h.03s.02,0,.03,0c.07,.03,.12,.07,.18,.1,.23,.15,.46,.31,.7,.46,.04,.02,.08,.06,.13,.05,0,.03,.03,.05,.05,.07,.39,.26,.78,.51,1.17,.76,.03,.03,.06,.03,.1,.03h0s0,.02,0,.03c0,0,0,.01,.02,.02,0,0,.02,.01,.02,.01,.01,0,.02,.01,.02,.02,0,0,.01,0,.01,.01,0,0,.02,.01,.02,.01,.01,0,.02,.01,.02,.02,0,0,.01,0,.02,0h0s.01,.02,.02,.02c0,0,.01,.01,.01,.02,.01,0,.01,.01,.02,.01,0,0,.01,0,.01,0,.01,0,.01,0,.02,.01,0,0,.02,0,.03,.01,0,0,.01,.01,.02,.02,0,0,0,0,0,0,.01,0,.02,.01,.03,.02,0,0,0,0,.02,.01,0,0,.01,0,.01,.01,0,0,.02,0,.02,0,0,0,.01,.01,.02,.01,0,.01,.01,.01,.02,.02,0,0,.01,0,.02,.01,.01,0,.03,.01,.03,.01,0,0,.01,0,.02,0,0,.01,.02,.01,.02,.03t.03,0s.01,0,.02,0t.03,0s0,0,.01,0c0,.04,.02,.07,.05,.08,.27,.19,.55,.37,.81,.52-.03-.01-.08-.04-.14-.07-1.2-.33-2.4-.67-3.59-1-.1-.03-.19-.03-.28,0Zm-24.51,.83c.17-.11,.36-.2,.5-.34,0-.01,0-.02,.01-.02,.03,.01,.05,0,.09-.03,.08-.05,.16-.09,.23-.14,.02,0,.03-.01,.04-.02,.01-.01,.02-.01,.02-.02,.01,0,.02,0,.03-.01,0,0,.02,0,.02-.01,.01,0,.02,0,.02-.01,.01,0,.02,0,.02-.01,0,0,.02,0,.03,0,0,0,.01-.01,.01-.01,.01,0,.02,0,.02-.01,.01,0,.02,0,.03-.01,0,0,0,0,.02-.02,0,0,.02,0,.02,0,0-.01,.02-.01,.02-.01,.01,0,.01-.01,.02-.02,.01,0,.01,0,.03-.01,0,0,.01,0,.01-.01,0,0,.01,0,.02,0,.01,0,.01-.01,.02-.01,.01,0,.02,0,.02-.01,0,0,.02,0,.03-.01,0,0,0,0,.01-.01,0,0,.02-.01,.02-.01,0,0,.01-.01,.02-.01,.01,0,.01-.01,.02-.01,0,0,.02-.01,.02-.01,.01,0,.02-.01,.03-.01,0,0,0-.01,.01-.02,0,0,.01,0,.02-.01,0,0,.01,0,.02,0,0,0,0-.01,.01-.01,0,0,.02,0,.02-.01,.01,0,.02,0,.02-.01,.02,0,.02-.01,.03-.01,0,0,.01-.01,.02-.01,0,0,.01,0,.02-.01,0,0,.01,0,.02-.01,0,0,.01,0,.02-.01,.01,0,.01-.01,.02-.01,.01,0,.02-.01,.03-.02,.01,0,.01,0,.02-.01,0,0,0-.01,.02-.01,.01-.01,.02-.01,.02-.02,.01-.01,.01-.02,.02-.03h0v-.02c.05,0,.11-.03,.15-.05,.52-.33,1.06-.65,1.57-.98,.12-.08,.21-.08,.33,0,.47,.32,.94,.63,1.43,.94,.04,.03,.08,.04,.12,.04,0,.04,.04,.06,.07,.08,.38,.25,.76,.5,1.14,.75,.03,.03,.07,.04,.11,.03,0,.03,.02,.05,.04,.07,.24,.15,.45,.32,.71,.45-.06-.02-.11-.04-.17-.06-1.18-.33-2.36-.66-3.55-.99-.08-.03-.17-.03-.26,0-.94,.26-1.9,.51-2.85,.76-.28,.08-.56,.14-.86,.25,.13-.05,.22-.11,.31-.17Zm11.03-.25s.05-.04,.05-.07c.04,.02,.09,0,.13-.03,.13-.07,.25-.16,.38-.24,.25-.15,.51-.31,.75-.47,.03-.02,.09-.04,.09-.1,.04,0,.06,0,.1-.03,.08-.05,.17-.1,.26-.16,.42-.26,.86-.53,1.27-.8,.15-.09,.18-.09,.33,0,.35,.23,.7,.46,1.05,.68,.04,.03,.07,.03,.11,.03,0,.05,.05,.07,.08,.09,.14,.1,.27,.17,.41,.27,.36,.23,.7,.46,1.06,.69,.04,.02,.09,.07,.14,.04,0,.04,.03,.06,.06,.09,.26,.18,.51,.35,.79,.5-.09-.04-.18-.09-.28-.11-1.15-.32-2.29-.64-3.43-.96-.15-.04-.28-.04-.42,0-.64,.18-1.28,.35-1.92,.52-.58,.16-1.18,.28-1.76,.49,.28-.11,.51-.29,.76-.45Z"/>
    </g>
  </g>
</svg>