<?xml version="1.0" encoding="UTF-8"?>
<svg xmlns="http://www.w3.org/2000/svg" xmlns:xlink="http://www.w3.org/1999/xlink" viewBox="0 0 436.14 436.14">
  <defs>
    <style>
      .cls-1 {
        fill: #00b5e3;
      }

      .cls-2 {
        fill: url(#Degradado_sin_nombre_20);
      }
    </style>
    <linearGradient id="Degradado_sin_nombre_20" data-name="Degradado sin nombre 20" x1="0" y1="218.07" x2="436.14" y2="218.07" gradientTransform="matrix(1, 0, 0, 1, 0, 0)" gradientUnits="userSpaceOnUse">
      <stop offset=".4" stop-color="#ffb103"/>
      <stop offset=".88" stop-color="#254791"/>
    </linearGradient>
  </defs>
  <g id="Capa_1" data-name="Capa 1"/>
  <g id="Capa_2" data-name="Capa 2">
    <g id="Capa_1-2" data-name="Capa 1">
      <g>
        <g>
          <path d="M218.07,212.23c-3.22,0-5.84,2.62-5.84,5.84s2.62,5.84,5.84,5.84,5.84-2.62,5.84-5.84-2.62-5.84-5.84-5.84Zm0,17.68c-6.53,0-11.84-5.31-11.84-11.84s5.31-11.84,11.84-11.84,11.84,5.31,11.84,11.84-5.31,11.84-11.84,11.84Z" style="fill: #00b5e3;"/>
          <path d="M218.07,198.97c-2.61,0-5.12,.52-7.47,1.52-1.13,.48-2.21,1.07-3.23,1.76-1.01,.68-1.95,1.46-2.81,2.32-.86,.86-1.64,1.8-2.32,2.81-.69,1.01-1.28,2.1-1.76,3.23-1,2.34-1.52,4.86-1.52,7.47s.52,5.12,1.52,7.47c.48,1.13,1.07,2.21,1.76,3.23,.68,1.01,1.46,1.95,2.32,2.81,.86,.86,1.8,1.64,2.81,2.32,1.01,.69,2.1,1.28,3.23,1.76,2.34,1,4.86,1.52,7.47,1.52s5.12-.52,7.47-1.52c1.13-.48,2.21-1.07,3.23-1.76,1.01-.68,1.95-1.46,2.81-2.32,.86-.86,1.64-1.8,2.32-2.81,.69-1.01,1.28-2.1,1.76-3.23,1-2.34,1.52-4.86,1.52-7.47s-.52-5.12-1.52-7.47c-.48-1.13-1.07-2.21-1.76-3.23-.68-1.01-1.46-1.95-2.32-2.81-.86-.86-1.8-1.64-2.81-2.32-1.01-.69-2.1-1.28-3.23-1.76-2.34-1-4.86-1.52-7.47-1.52Zm0-5.64c3.37,0,6.62,.67,9.63,1.95,1.46,.62,2.87,1.38,4.18,2.27,1.3,.88,2.53,1.88,3.64,2.99,1.11,1.11,2.12,2.33,3.01,3.63,.89,1.31,1.66,2.71,2.29,4.17,1.3,3.03,1.99,6.31,1.99,9.72s-.67,6.62-1.95,9.63c-.62,1.46-1.38,2.87-2.27,4.19-.88,1.3-1.89,2.53-3,3.64-1.11,1.11-2.33,2.12-3.63,3.01-1.31,.89-2.71,1.66-4.17,2.29-3.03,1.3-6.31,1.98-9.72,1.98s-6.62-.67-9.63-1.95c-1.47-.62-2.87-1.38-4.19-2.27-1.3-.88-2.53-1.88-3.64-2.99s-2.12-2.33-3.01-3.63c-.89-1.31-1.66-2.71-2.29-4.18-1.3-3.03-1.99-6.31-1.99-9.72s.67-6.62,1.95-9.63c.62-1.46,1.38-2.87,2.27-4.19,.88-1.3,1.89-2.52,3-3.64,1.11-1.11,2.33-2.12,3.63-3.01,1.31-.89,2.71-1.66,4.18-2.29,3.03-1.3,6.31-1.98,9.72-1.98Z" style="fill: #00b5e3;"/>
          <path d="M218.07,185.72c-4.39,0-8.65,.87-12.62,2.56-1.91,.81-3.76,1.82-5.48,2.98-1.71,1.16-3.31,2.48-4.77,3.94-1.46,1.46-2.78,3.06-3.94,4.77-1.17,1.72-2.17,3.57-2.98,5.48-1.69,3.98-2.56,8.23-2.56,12.62s.87,8.65,2.56,12.62c.81,1.91,1.82,3.76,2.98,5.48,1.16,1.71,2.48,3.31,3.94,4.77,1.46,1.46,3.06,2.78,4.77,3.94,1.72,1.17,3.57,2.17,5.48,2.98,3.98,1.69,8.23,2.56,12.62,2.56s8.65-.87,12.62-2.56c1.91-.81,3.76-1.82,5.48-2.98,1.71-1.16,3.31-2.48,4.77-3.94,1.46-1.46,2.78-3.06,3.94-4.77,1.17-1.72,2.17-3.57,2.98-5.48,1.69-3.98,2.56-8.23,2.56-12.62s-.87-8.65-2.56-12.62c-.81-1.91-1.82-3.76-2.98-5.48-1.16-1.71-2.48-3.31-3.94-4.77-1.46-1.46-3.06-2.78-4.77-3.94-1.72-1.17-3.57-2.17-5.48-2.98-3.98-1.69-8.23-2.56-12.62-2.56Zm0-5.27c5.11,0,10.04,1.01,14.64,2.96,2.23,.94,4.37,2.11,6.38,3.46,1.99,1.34,3.85,2.88,5.55,4.57,1.7,1.69,3.24,3.55,4.58,5.54,1.36,2,2.53,4.14,3.48,6.37,1.97,4.62,3,9.59,3,14.73s-1.01,10.04-2.96,14.64c-.94,2.23-2.11,4.37-3.46,6.38-1.34,1.99-2.88,3.85-4.57,5.55-1.69,1.7-3.55,3.24-5.54,4.58-2,1.36-4.14,2.53-6.37,3.48-4.62,1.97-9.59,2.99-14.73,2.99s-10.04-1.01-14.64-2.96c-2.23-.94-4.37-2.11-6.38-3.46-1.99-1.34-3.85-2.88-5.55-4.57-1.7-1.69-3.24-3.55-4.58-5.54-1.36-2-2.53-4.14-3.48-6.37-1.97-4.62-3-9.59-3-14.73s1.01-10.04,2.96-14.64c.94-2.23,2.11-4.37,3.46-6.38,1.34-1.99,2.88-3.85,4.57-5.55,1.69-1.7,3.55-3.24,5.54-4.58,2-1.36,4.14-2.53,6.37-3.48,4.62-1.97,9.59-2.99,14.73-2.99Z" style="fill: #00b5e3;"/>
          <path d="M218.07,172.46c-6.18,0-12.17,1.22-17.78,3.6-2.7,1.14-5.3,2.56-7.73,4.2-2.41,1.63-4.67,3.5-6.73,5.56s-3.93,4.32-5.56,6.73c-1.65,2.43-3.06,5.03-4.2,7.73-2.38,5.61-3.6,11.6-3.6,17.78s1.22,12.17,3.6,17.78c1.14,2.7,2.56,5.3,4.2,7.73,1.63,2.41,3.5,4.67,5.56,6.73,2.06,2.06,4.32,3.93,6.73,5.56,2.43,1.64,5.03,3.06,7.73,4.2,5.61,2.38,11.6,3.6,17.78,3.6s12.17-1.22,17.78-3.6c2.7-1.15,5.3-2.56,7.73-4.2,2.41-1.63,4.67-3.5,6.73-5.56,2.06-2.06,3.93-4.32,5.56-6.73,1.64-2.43,3.06-5.03,4.2-7.73,2.38-5.61,3.6-11.6,3.6-17.78s-1.22-12.17-3.6-17.78c-1.14-2.7-2.56-5.3-4.2-7.73-1.63-2.41-3.5-4.67-5.56-6.73-2.06-2.06-4.32-3.93-6.73-5.56-2.43-1.65-5.03-3.06-7.73-4.2-5.61-2.38-11.6-3.6-17.78-3.6Zm0-4.9c6.85,0,13.47,1.35,19.66,3.97,2.99,1.27,5.87,2.83,8.57,4.65,2.67,1.8,5.18,3.87,7.46,6.15,2.28,2.28,4.35,4.78,6.16,7.45,1.82,2.69,3.39,5.57,4.66,8.56,2.64,6.21,4.01,12.86,4.01,19.74s-1.35,13.47-3.97,19.66c-1.27,2.99-2.83,5.87-4.65,8.57-1.8,2.67-3.87,5.18-6.15,7.46-2.28,2.28-4.78,4.35-7.45,6.16-2.69,1.82-5.57,3.39-8.56,4.66-6.21,2.64-12.86,4-19.74,4s-13.47-1.35-19.66-3.97c-2.99-1.27-5.87-2.83-8.57-4.65-2.67-1.8-5.18-3.87-7.46-6.15-2.28-2.28-4.35-4.78-6.16-7.45-1.82-2.69-3.39-5.57-4.66-8.56-2.64-6.21-4.01-12.86-4.01-19.74s1.35-13.47,3.97-19.66c1.27-2.99,2.83-5.87,4.65-8.57,1.8-2.67,3.87-5.18,6.15-7.46,2.28-2.28,4.78-4.35,7.45-6.16,2.69-1.82,5.57-3.39,8.56-4.66,6.21-2.64,12.86-4,19.74-4Z" style="fill: #00b5e3;"/>
          <path d="M218.07,159.2c-7.97,0-15.69,1.57-22.94,4.64-3.49,1.48-6.84,3.3-9.99,5.43-3.11,2.1-6.04,4.52-8.7,7.18-2.66,2.66-5.07,5.59-7.18,8.7-2.12,3.14-3.95,6.5-5.43,9.99-3.07,7.25-4.64,14.97-4.64,22.94s1.57,15.69,4.64,22.94c1.48,3.49,3.3,6.84,5.43,9.99,2.1,3.11,4.52,6.04,7.18,8.7,2.66,2.66,5.58,5.07,8.7,7.18,3.14,2.12,6.5,3.95,9.99,5.43,7.25,3.07,14.97,4.64,22.94,4.64s15.69-1.57,22.94-4.64c3.49-1.48,6.84-3.3,9.99-5.43,3.11-2.1,6.04-4.52,8.7-7.18,2.66-2.66,5.07-5.59,7.18-8.7,2.12-3.14,3.95-6.5,5.43-9.99,3.07-7.25,4.64-14.97,4.64-22.94s-1.57-15.69-4.64-22.94c-1.48-3.49-3.3-6.84-5.43-9.99-2.1-3.11-4.52-6.04-7.18-8.7-2.66-2.66-5.59-5.07-8.7-7.18-3.14-2.12-6.5-3.95-9.99-5.43-7.25-3.07-14.97-4.64-22.94-4.64Zm0-4.54c8.58,0,16.89,1.69,24.68,4.99,3.76,1.59,7.37,3.55,10.76,5.84,3.35,2.26,6.5,4.86,9.37,7.72,2.86,2.86,5.46,6.01,7.73,9.36,2.29,3.38,4.26,6.99,5.85,10.75,3.31,7.8,5.02,16.14,5.02,24.75s-1.69,16.89-4.98,24.68c-1.59,3.76-3.55,7.37-5.84,10.76-2.26,3.35-4.86,6.5-7.72,9.37-2.86,2.86-6.01,5.46-9.36,7.73-3.38,2.29-6.99,4.26-10.75,5.85-7.8,3.31-16.14,5.02-24.75,5.02s-16.89-1.69-24.68-4.99c-3.76-1.59-7.37-3.55-10.76-5.84-3.35-2.26-6.5-4.86-9.37-7.72-2.86-2.86-5.46-6.01-7.73-9.36-2.29-3.38-4.26-6.99-5.85-10.75-3.31-7.8-5.02-16.14-5.02-24.75s1.69-16.89,4.99-24.68c1.59-3.76,3.55-7.37,5.84-10.76,2.26-3.35,4.86-6.5,7.72-9.37,2.86-2.86,6.01-5.46,9.36-7.73,3.38-2.29,6.99-4.26,10.75-5.85,7.8-3.31,16.14-5.02,24.75-5.02Z" style="fill: #00b5e3;"/>
          <path d="M218.07,145.95c-9.76,0-19.21,1.92-28.1,5.68-4.27,1.81-8.39,4.05-12.24,6.65-3.81,2.58-7.4,5.54-10.66,8.8-3.26,3.26-6.22,6.85-8.8,10.66-2.6,3.85-4.84,7.97-6.65,12.24-3.76,8.88-5.68,18.34-5.68,28.1s1.92,19.21,5.68,28.1c1.81,4.27,4.04,8.39,6.65,12.24,2.58,3.81,5.54,7.4,8.8,10.66,3.26,3.26,6.85,6.22,10.66,8.8,3.85,2.6,7.97,4.84,12.24,6.65,8.88,3.76,18.34,5.68,28.1,5.68s19.21-1.92,28.1-5.68c4.27-1.81,8.39-4.05,12.24-6.65,3.81-2.58,7.4-5.54,10.66-8.8s6.22-6.85,8.8-10.66c2.6-3.85,4.84-7.97,6.65-12.24,3.76-8.88,5.68-18.34,5.68-28.1s-1.92-19.21-5.68-28.1c-1.81-4.27-4.04-8.39-6.65-12.24-2.58-3.81-5.54-7.4-8.8-10.66s-6.85-6.22-10.66-8.8c-3.85-2.6-7.97-4.84-12.24-6.65-8.88-3.76-18.34-5.68-28.1-5.68Zm0-4.17c10.32,0,20.32,2.03,29.7,6,4.52,1.91,8.87,4.28,12.95,7.03,4.04,2.73,7.83,5.85,11.27,9.3,3.45,3.45,6.58,7.23,9.31,11.27,2.75,4.07,5.12,8.42,7.04,12.94,3.99,9.39,6.03,19.41,6.03,29.76s-2.03,20.32-6,29.7c-1.91,4.52-4.28,8.87-7.03,12.95-2.73,4.04-5.85,7.83-9.3,11.27-3.45,3.45-7.23,6.58-11.27,9.31-4.07,2.75-8.42,5.12-12.94,7.04-9.39,3.98-19.41,6.03-29.76,6.03s-20.32-2.03-29.7-6c-4.52-1.91-8.87-4.28-12.95-7.03-4.04-2.73-7.83-5.85-11.27-9.3-3.45-3.45-6.58-7.23-9.31-11.27-2.75-4.07-5.12-8.42-7.04-12.94-3.98-9.39-6.03-19.41-6.03-29.76s2.03-20.32,6-29.7c1.91-4.52,4.28-8.87,7.03-12.95,2.73-4.04,5.85-7.83,9.3-11.27,3.45-3.45,7.23-6.58,11.27-9.31,4.07-2.75,8.42-5.12,12.94-7.04,9.39-3.98,19.41-6.03,29.76-6.03Z" style="fill: #00b5e3;"/>
          <path d="M218.07,132.69c-11.55,0-22.74,2.27-33.26,6.72-5.06,2.14-9.93,4.79-14.49,7.87-4.52,3.05-8.76,6.56-12.62,10.42-3.86,3.86-7.36,8.11-10.42,12.62-3.08,4.56-5.73,9.43-7.87,14.49-4.45,10.52-6.72,21.71-6.72,33.25s2.27,22.74,6.72,33.25c2.14,5.06,4.79,9.93,7.87,14.49,3.05,4.52,6.56,8.76,10.42,12.62,3.86,3.86,8.11,7.36,12.62,10.42,4.56,3.08,9.43,5.73,14.49,7.87,10.52,4.45,21.71,6.72,33.26,6.72s22.74-2.27,33.25-6.72c5.06-2.14,9.93-4.79,14.49-7.87,4.52-3.05,8.76-6.56,12.62-10.42,3.86-3.86,7.36-8.11,10.42-12.62,3.08-4.56,5.73-9.43,7.87-14.49,4.45-10.52,6.72-21.71,6.72-33.25s-2.27-22.74-6.72-33.25c-2.14-5.06-4.79-9.93-7.87-14.49-3.05-4.52-6.56-8.76-10.42-12.62-3.86-3.86-8.11-7.36-12.62-10.42-4.56-3.08-9.43-5.73-14.49-7.87-10.52-4.45-21.71-6.72-33.25-6.72Zm0-3.8c12.06,0,23.74,2.37,34.71,7.01,5.28,2.24,10.38,5,15.14,8.22,4.72,3.19,9.15,6.84,13.18,10.87,4.03,4.03,7.69,8.46,10.88,13.18,3.22,4.76,5.99,9.85,8.23,15.13,4.66,10.98,7.04,22.69,7.04,34.77s-2.37,23.75-7.01,34.71c-2.24,5.29-5,10.38-8.22,15.14-3.19,4.72-6.84,9.15-10.87,13.18-4.03,4.03-8.46,7.69-13.18,10.88-4.76,3.22-9.85,5.99-15.13,8.23-10.98,4.66-22.69,7.04-34.77,7.04s-23.75-2.37-34.71-7.01c-5.29-2.24-10.38-5-15.14-8.22-4.72-3.19-9.15-6.84-13.18-10.87-4.03-4.03-7.69-8.46-10.88-13.18-3.22-4.76-5.99-9.85-8.23-15.13-4.66-10.98-7.04-22.69-7.04-34.77s2.37-23.74,7.01-34.71c2.24-5.29,5-10.38,8.22-15.14,3.19-4.72,6.84-9.15,10.87-13.18,4.03-4.03,8.46-7.69,13.18-10.88,4.76-3.22,9.85-5.99,15.13-8.23,10.98-4.66,22.69-7.04,34.77-7.04Z" style="fill: #00b5e3;"/>
          <path d="M218.07,119.43c-13.33,0-26.26,2.62-38.41,7.76-5.84,2.47-11.48,5.53-16.75,9.09-5.22,3.53-10.13,7.58-14.59,12.04s-8.51,9.37-12.04,14.59c-3.56,5.27-6.62,10.9-9.09,16.75-5.14,12.15-7.76,25.08-7.76,38.41s2.62,26.26,7.76,38.41c2.47,5.84,5.53,11.48,9.09,16.75,3.53,5.22,7.58,10.13,12.04,14.59,4.46,4.46,9.37,8.51,14.59,12.04,5.27,3.56,10.9,6.62,16.75,9.09,12.15,5.14,25.08,7.76,38.41,7.76s26.26-2.62,38.41-7.76c5.84-2.47,11.48-5.53,16.75-9.09,5.22-3.53,10.13-7.58,14.59-12.04,4.46-4.46,8.51-9.37,12.04-14.59,3.56-5.27,6.62-10.9,9.09-16.75,5.14-12.15,7.76-25.08,7.76-38.41s-2.62-26.26-7.76-38.41c-2.47-5.84-5.53-11.48-9.09-16.75-3.53-5.22-7.58-10.13-12.04-14.59s-9.37-8.51-14.59-12.04c-5.27-3.56-10.9-6.62-16.75-9.09-12.15-5.14-25.08-7.76-38.41-7.76Zm0-3.43c13.8,0,27.17,2.71,39.73,8.02,6.05,2.56,11.88,5.72,17.33,9.41,5.4,3.65,10.48,7.84,15.09,12.45,4.62,4.61,8.8,9.69,12.46,15.08,3.69,5.45,6.85,11.28,9.42,17.32,5.33,12.57,8.04,25.96,8.04,39.78s-2.71,27.17-8.02,39.73c-2.56,6.05-5.72,11.88-9.41,17.33-3.65,5.4-7.84,10.48-12.45,15.09-4.61,4.62-9.69,8.8-15.09,12.46-5.45,3.69-11.28,6.85-17.32,9.42-12.57,5.33-25.96,8.04-39.78,8.04s-27.17-2.71-39.73-8.02c-6.05-2.56-11.88-5.72-17.33-9.41-5.4-3.65-10.48-7.84-15.09-12.45-4.62-4.61-8.8-9.69-12.46-15.09-3.69-5.45-6.85-11.28-9.41-17.32-5.33-12.57-8.05-25.96-8.05-39.78s2.71-27.17,8.02-39.73c2.56-6.05,5.72-11.88,9.41-17.33,3.65-5.4,7.84-10.48,12.45-15.09,4.61-4.62,9.69-8.81,15.09-12.46,5.45-3.69,11.28-6.85,17.32-9.42,12.57-5.33,25.96-8.04,39.78-8.04Z" style="fill: #00b5e3;"/>
          <path d="M218.07,106.18c-15.12,0-29.78,2.97-43.57,8.8-6.63,2.8-13.02,6.27-19,10.32-5.92,4-11.49,8.6-16.55,13.66-5.06,5.06-9.65,10.63-13.66,16.55-4.04,5.98-7.51,12.37-10.32,19-5.84,13.79-8.8,28.45-8.8,43.57s2.97,29.78,8.8,43.57c2.8,6.63,6.28,13.02,10.32,19,4,5.92,8.6,11.49,13.66,16.55,5.06,5.06,10.63,9.65,16.55,13.66,5.98,4.04,12.37,7.51,19,10.32,13.79,5.84,28.45,8.8,43.57,8.8s29.78-2.97,43.57-8.8c6.63-2.8,13.02-6.27,19-10.32,5.92-4,11.49-8.6,16.55-13.66,5.06-5.06,9.65-10.63,13.66-16.55,4.04-5.98,7.51-12.37,10.32-19,5.84-13.79,8.8-28.45,8.8-43.57s-2.97-29.78-8.8-43.57c-2.8-6.63-6.28-13.02-10.32-19-4-5.92-8.6-11.49-13.66-16.55-5.06-5.06-10.63-9.65-16.55-13.66-5.98-4.04-12.37-7.51-19-10.32-13.79-5.83-28.45-8.8-43.57-8.8Zm0-3.06c15.54,0,30.59,3.05,44.75,9.04,6.81,2.88,13.38,6.45,19.52,10.59,6.08,4.11,11.8,8.83,17,14.02,5.2,5.2,9.92,10.91,14.03,17,4.15,6.14,7.72,12.7,10.6,19.51,6,14.16,9.06,29.24,9.06,44.79s-3.05,30.59-9.04,44.75c-2.88,6.81-6.45,13.38-10.6,19.52-4.11,6.08-8.83,11.8-14.02,17s-10.91,9.92-17,14.03c-6.14,4.15-12.7,7.72-19.51,10.6-14.16,6-29.24,9.06-44.79,9.06s-30.59-3.05-44.75-9.04c-6.81-2.88-13.38-6.45-19.52-10.59-6.08-4.11-11.8-8.83-17-14.02-5.2-5.2-9.92-10.91-14.03-17-4.15-6.14-7.72-12.7-10.6-19.51-6-14.16-9.06-29.24-9.06-44.79s3.05-30.59,9.04-44.75c2.88-6.81,6.45-13.38,10.59-19.52,4.11-6.08,8.83-11.8,14.02-17s10.91-9.92,17-14.03c6.14-4.15,12.7-7.72,19.51-10.6,14.16-6,29.24-9.06,44.79-9.06Z" style="fill: #00b5e3;"/>
          <path d="M218.07,92.92c-16.91,0-33.31,3.32-48.73,9.84-7.41,3.14-14.56,7.02-21.25,11.54-6.62,4.48-12.85,9.62-18.51,15.28s-10.8,11.89-15.28,18.51c-4.52,6.69-8.4,13.84-11.54,21.25-6.53,15.42-9.84,31.82-9.84,48.73s3.32,33.31,9.84,48.73c3.14,7.41,7.02,14.56,11.54,21.25,4.48,6.62,9.62,12.85,15.28,18.51s11.89,10.8,18.51,15.28c6.69,4.52,13.84,8.4,21.25,11.54,15.42,6.53,31.82,9.84,48.73,9.84s33.31-3.32,48.73-9.84c7.41-3.14,14.56-7.02,21.25-11.54,6.62-4.48,12.85-9.62,18.51-15.28,5.66-5.66,10.8-11.89,15.28-18.51,4.52-6.69,8.4-13.84,11.54-21.25,6.53-15.42,9.84-31.82,9.84-48.73s-3.32-33.31-9.84-48.73c-3.14-7.41-7.02-14.56-11.54-21.25-4.48-6.62-9.61-12.85-15.28-18.51-5.66-5.66-11.89-10.8-18.51-15.28-6.69-4.52-13.84-8.4-21.25-11.54-15.42-6.53-31.82-9.84-48.73-9.84Zm0-2.69c17.27,0,34.02,3.39,49.76,10.05,7.58,3.21,14.88,7.17,21.71,11.78,6.77,4.57,13.13,9.82,18.91,15.6,5.78,5.78,11.03,12.14,15.61,18.91,4.62,6.83,8.59,14.13,11.79,21.7,6.67,15.75,10.07,32.52,10.07,49.81s-3.39,34.02-10.05,49.76c-3.21,7.58-7.17,14.88-11.78,21.71-4.57,6.77-9.82,13.13-15.6,18.91-5.78,5.78-12.14,11.03-18.91,15.61-6.83,4.62-14.13,8.58-21.7,11.79-15.75,6.67-32.52,10.07-49.81,10.07s-34.02-3.39-49.76-10.05c-7.58-3.2-14.88-7.17-21.71-11.78-6.77-4.57-13.13-9.82-18.91-15.6-5.78-5.78-11.03-12.14-15.61-18.91-4.62-6.83-8.58-14.13-11.79-21.7-6.67-15.75-10.07-32.52-10.07-49.81s3.39-34.02,10.05-49.76c3.21-7.58,7.17-14.88,11.78-21.71,4.57-6.77,9.82-13.13,15.6-18.91,5.78-5.78,12.14-11.03,18.91-15.61,6.83-4.62,14.13-8.58,21.7-11.79,15.75-6.67,32.51-10.07,49.81-10.07Z" style="fill: #00b5e3;"/>
          <path d="M218.07,79.66c-18.7,0-36.83,3.66-53.89,10.88-8.2,3.47-16.11,7.76-23.5,12.76-7.33,4.95-14.21,10.63-20.48,16.9-6.26,6.26-11.95,13.15-16.9,20.48-5,7.4-9.29,15.3-12.76,23.5-7.22,17.06-10.88,35.19-10.88,53.89s3.67,36.83,10.88,53.89c3.47,8.2,7.76,16.11,12.76,23.5,4.95,7.33,10.63,14.21,16.9,20.48,6.26,6.26,13.15,11.95,20.48,16.9,7.4,5,15.3,9.29,23.5,12.76,17.06,7.22,35.19,10.88,53.89,10.88s36.83-3.66,53.89-10.88c8.2-3.47,16.11-7.76,23.5-12.76,7.33-4.95,14.21-10.63,20.48-16.9,6.26-6.26,11.95-13.15,16.9-20.48,5-7.4,9.29-15.3,12.76-23.5,7.22-17.06,10.88-35.19,10.88-53.89s-3.67-36.83-10.88-53.89c-3.47-8.2-7.76-16.11-12.76-23.5-4.95-7.33-10.63-14.21-16.9-20.48-6.26-6.26-13.15-11.95-20.48-16.9-7.4-5-15.3-9.29-23.5-12.76-17.06-7.22-35.19-10.88-53.89-10.88Zm0-2.33c19.01,0,37.45,3.73,54.78,11.06,8.34,3.53,16.38,7.89,23.9,12.97,7.45,5.03,14.45,10.81,20.82,17.18,6.37,6.36,12.15,13.37,17.18,20.81,5.08,7.52,9.45,15.56,12.98,23.9,7.34,17.34,11.08,35.79,11.08,54.82s-3.73,37.45-11.06,54.78c-3.53,8.34-7.89,16.38-12.97,23.9-5.03,7.45-10.81,14.45-17.17,20.82-6.36,6.37-13.37,12.15-20.81,17.18-7.52,5.08-15.56,9.45-23.9,12.98-17.34,7.34-35.79,11.08-54.82,11.08s-37.45-3.73-54.78-11.06c-8.34-3.53-16.38-7.89-23.9-12.97-7.45-5.03-14.45-10.81-20.82-17.18-6.37-6.36-12.15-13.37-17.18-20.81-5.08-7.52-9.45-15.56-12.98-23.9-7.34-17.34-11.08-35.79-11.08-54.82s3.73-37.45,11.06-54.78c3.53-8.34,7.89-16.38,12.97-23.9,5.03-7.45,10.81-14.45,17.18-20.82,6.36-6.37,13.37-12.15,20.81-17.18,7.52-5.08,15.56-9.45,23.9-12.98,17.34-7.34,35.79-11.08,54.82-11.08Z" style="fill: #00b5e3;"/>
          <path d="M218.07,66.4c-20.48,0-40.35,4.02-59.05,11.92-8.99,3.8-17.65,8.5-25.76,13.98-8.03,5.42-15.58,11.65-22.44,18.51-6.86,6.86-13.09,14.41-18.52,22.44-5.48,8.11-10.18,16.77-13.98,25.76-7.91,18.7-11.92,38.56-11.92,59.05s4.01,40.35,11.92,59.05c3.8,8.99,8.51,17.65,13.98,25.76,5.42,8.03,11.65,15.58,18.52,22.44,6.86,6.86,14.41,13.09,22.44,18.51,8.11,5.48,16.77,10.18,25.76,13.98,18.69,7.91,38.56,11.92,59.05,11.92s40.35-4.02,59.04-11.92c8.99-3.8,17.65-8.5,25.76-13.98,8.03-5.42,15.58-11.65,22.44-18.51,6.86-6.86,13.09-14.41,18.52-22.44,5.48-8.11,10.18-16.77,13.98-25.76,7.91-18.7,11.92-38.56,11.92-59.05s-4.02-40.35-11.92-59.05c-3.8-8.99-8.5-17.65-13.98-25.76-5.42-8.03-11.65-15.58-18.52-22.44-6.86-6.86-14.41-13.09-22.44-18.51-8.11-5.48-16.77-10.18-25.76-13.98-18.69-7.91-38.56-11.92-59.04-11.92Zm0-1.96c20.75,0,40.87,4.07,59.8,12.07,9.1,3.85,17.88,8.62,26.09,14.16,8.13,5.49,15.78,11.8,22.73,18.75,6.95,6.95,13.26,14.59,18.75,22.72,5.55,8.21,10.32,16.99,14.17,26.09,8.01,18.93,12.09,39.07,12.09,59.83s-4.07,40.87-12.07,59.8c-3.85,9.1-8.62,17.88-14.16,26.09-5.49,8.13-11.8,15.78-18.75,22.73-6.95,6.95-14.59,13.26-22.72,18.75-8.21,5.55-16.99,10.31-26.09,14.17-18.93,8.01-39.07,12.09-59.83,12.09s-40.87-4.07-59.8-12.07c-9.1-3.85-17.88-8.62-26.09-14.16-8.13-5.49-15.78-11.8-22.73-18.75-6.95-6.95-13.26-14.59-18.75-22.72-5.55-8.21-10.31-16.99-14.17-26.09-8.01-18.93-12.09-39.07-12.09-59.83s4.07-40.87,12.07-59.8c3.85-9.1,8.61-17.88,14.16-26.09,5.5-8.13,11.8-15.78,18.75-22.73,6.95-6.95,14.59-13.26,22.73-18.75,8.21-5.55,16.98-10.31,26.09-14.17,18.93-8.01,39.07-12.09,59.83-12.09Z" style="fill: #00b5e3;"/>
          <path d="M218.07,53.15c-22.27,0-43.87,4.37-64.2,12.97-9.77,4.13-19.2,9.25-28.01,15.21-8.73,5.9-16.94,12.67-24.4,20.13-7.46,7.46-14.24,15.67-20.14,24.4-5.96,8.82-11.07,18.24-15.21,28.01-8.6,20.33-12.96,41.93-12.96,64.2s4.36,43.87,12.96,64.2c4.13,9.77,9.25,19.19,15.21,28.01,5.9,8.73,12.67,16.94,20.14,24.4,7.46,7.46,15.67,14.24,24.4,20.13,8.82,5.96,18.24,11.07,28.01,15.2,20.33,8.6,41.93,12.96,64.2,12.96s43.87-4.36,64.2-12.96c9.77-4.13,19.19-9.25,28.01-15.2,8.73-5.9,16.94-12.67,24.4-20.13,7.46-7.46,14.24-15.67,20.13-24.4,5.96-8.82,11.07-18.24,15.21-28.01,8.6-20.33,12.96-41.93,12.96-64.2s-4.36-43.87-12.96-64.2c-4.13-9.77-9.25-19.2-15.21-28.01-5.9-8.73-12.67-16.94-20.13-24.4-7.46-7.46-15.67-14.24-24.4-20.13-8.82-5.96-18.24-11.07-28.01-15.21-20.33-8.6-41.93-12.97-64.2-12.97Zm0-1.59c22.49,0,44.3,4.41,64.81,13.09,9.87,4.17,19.38,9.34,28.28,15.35,8.82,5.96,17.1,12.79,24.64,20.33,7.53,7.53,14.37,15.82,20.33,24.63,6.01,8.9,11.18,18.41,15.36,28.28,8.68,20.52,13.1,42.34,13.1,64.84s-4.41,44.3-13.09,64.81c-4.17,9.87-9.34,19.38-15.35,28.28-5.95,8.82-12.79,17.1-20.33,24.64-7.53,7.53-15.82,14.37-24.63,20.33-8.9,6.01-18.41,11.18-28.28,15.36-20.52,8.68-42.34,13.1-64.84,13.1s-44.3-4.41-64.81-13.09c-9.87-4.17-19.38-9.34-28.28-15.35-8.82-5.96-17.1-12.79-24.64-20.33-7.53-7.53-14.37-15.82-20.33-24.63-6.01-8.9-11.18-18.41-15.35-28.28-8.69-20.52-13.1-42.34-13.1-64.84s4.41-44.3,13.09-64.81c4.17-9.87,9.34-19.38,15.35-28.28,5.96-8.82,12.79-17.1,20.33-24.64,7.53-7.53,15.82-14.37,24.63-20.33,8.9-6.01,18.41-11.18,28.28-15.36,20.52-8.68,42.34-13.1,64.84-13.1Z" style="fill: #00b5e3;"/>
          <path d="M218.07,39.89c-24.06,0-47.4,4.71-69.36,14.01-10.56,4.47-20.74,9.99-30.26,16.43-9.43,6.37-18.3,13.69-26.37,21.75-8.06,8.06-15.38,16.93-21.75,26.37-6.43,9.52-11.96,19.7-16.43,30.26-9.29,21.96-14.01,45.3-14.01,69.36s4.71,47.4,14.01,69.36c4.47,10.56,9.99,20.74,16.43,30.26,6.37,9.43,13.69,18.3,21.75,26.37,8.06,8.06,16.93,15.38,26.37,21.75,9.52,6.44,19.71,11.96,30.26,16.43,21.96,9.29,45.3,14.01,69.36,14.01s47.4-4.71,69.36-14.01c10.56-4.46,20.74-9.99,30.26-16.43,9.43-6.37,18.3-13.69,26.37-21.75,8.06-8.06,15.38-16.93,21.75-26.37,6.44-9.52,11.96-19.71,16.43-30.26,9.29-21.96,14.01-45.3,14.01-69.36s-4.71-47.4-14.01-69.36c-4.47-10.56-9.99-20.74-16.43-30.26-6.37-9.43-13.69-18.3-21.75-26.37-8.06-8.06-16.93-15.38-26.37-21.75-9.52-6.44-19.71-11.96-30.26-16.43-21.96-9.29-45.3-14.01-69.36-14.01Zm0-1.22c24.23,0,47.72,4.75,69.83,14.1,10.63,4.5,20.88,10.06,30.47,16.54,9.5,6.42,18.43,13.78,26.55,21.9,8.12,8.12,15.49,17.05,21.9,26.54,6.48,9.59,12.04,19.84,16.54,30.47,9.36,22.11,14.11,45.62,14.11,69.85s-4.75,47.72-14.1,69.83c-4.5,10.63-10.06,20.88-16.54,30.47-6.42,9.5-13.79,18.43-21.9,26.55-8.12,8.12-17.05,15.49-26.55,21.9-9.59,6.48-19.84,12.04-30.47,16.54-22.11,9.36-45.62,14.11-69.85,14.11s-47.72-4.75-69.83-14.1c-10.63-4.5-20.88-10.06-30.47-16.54-9.5-6.42-18.43-13.79-26.55-21.9s-15.49-17.05-21.9-26.54c-6.48-9.59-12.04-19.84-16.54-30.47-9.36-22.11-14.11-45.62-14.11-69.85s4.75-47.72,14.1-69.83c4.5-10.63,10.06-20.88,16.54-30.47,6.42-9.5,13.79-18.43,21.9-26.55,8.12-8.12,17.05-15.49,26.54-21.9,9.59-6.48,19.84-12.05,30.47-16.54,22.11-9.36,45.62-14.11,69.85-14.11Z" style="fill: #00b5e3;"/>
          <path d="M218.07,26.63c-25.85,0-50.92,5.06-74.52,15.05-11.34,4.8-22.28,10.74-32.52,17.65-10.14,6.85-19.67,14.71-28.33,23.37-8.66,8.66-16.53,18.19-23.38,28.33-6.91,10.23-12.85,21.17-17.65,32.52-9.98,23.6-15.05,48.67-15.05,74.52s5.06,50.92,15.05,74.52c4.8,11.34,10.74,22.28,17.65,32.52,6.85,10.14,14.71,19.67,23.38,28.33,8.66,8.66,18.19,16.53,28.33,23.37,10.23,6.91,21.17,12.85,32.52,17.65,23.6,9.98,48.67,15.05,74.52,15.05s50.92-5.06,74.52-15.05c11.34-4.8,22.28-10.74,32.52-17.65,10.14-6.85,19.67-14.71,28.33-23.37,8.66-8.66,16.53-18.19,23.37-28.33,6.91-10.23,12.85-21.17,17.65-32.52,9.98-23.6,15.05-48.67,15.05-74.52s-5.06-50.92-15.05-74.52c-4.8-11.34-10.74-22.28-17.65-32.52-6.85-10.14-14.71-19.67-23.37-28.33-8.66-8.66-18.19-16.53-28.33-23.37-10.23-6.91-21.17-12.85-32.52-17.65-23.6-9.98-48.67-15.05-74.52-15.05Zm0-.86c25.96,0,51.15,5.09,74.85,15.11,11.39,4.82,22.38,10.79,32.66,17.73,10.18,6.88,19.75,14.78,28.46,23.48,8.7,8.7,16.6,18.27,23.48,28.45,6.95,10.28,12.91,21.27,17.73,32.66,10.03,23.71,15.12,48.89,15.12,74.86s-5.09,51.15-15.11,74.85c-4.82,11.39-10.78,22.38-17.73,32.66-6.88,10.18-14.78,19.76-23.48,28.46-8.7,8.7-18.27,16.6-28.45,23.48-10.28,6.94-21.27,12.91-32.66,17.73-23.7,10.03-48.89,15.12-74.86,15.12s-51.15-5.09-74.85-15.11c-11.39-4.82-22.38-10.78-32.66-17.73-10.18-6.88-19.76-14.78-28.46-23.48-8.7-8.7-16.6-18.27-23.48-28.45-6.94-10.28-12.91-21.27-17.73-32.66-10.03-23.7-15.12-48.89-15.12-74.86s5.09-51.15,15.11-74.85c4.82-11.39,10.78-22.38,17.73-32.66,6.88-10.18,14.78-19.75,23.48-28.46,8.7-8.7,18.27-16.6,28.45-23.48,10.28-6.94,21.27-12.91,32.66-17.73,23.71-10.03,48.89-15.12,74.86-15.12Z" style="fill: #00b5e3;"/>
          <path d="M218.07,13.38c-27.63,0-54.44,5.41-79.68,16.09-12.13,5.13-23.83,11.48-34.77,18.87-10.84,7.32-21.03,15.73-30.29,24.99-9.26,9.26-17.67,19.46-25,30.29-7.39,10.94-13.74,22.64-18.87,34.77-10.67,25.23-16.09,52.04-16.09,79.68s5.41,54.44,16.09,79.68c5.13,12.13,11.48,23.83,18.87,34.77,7.32,10.84,15.73,21.03,25,30.29,9.26,9.26,19.45,17.67,30.29,24.99,10.94,7.39,22.64,13.74,34.77,18.87,25.23,10.67,52.04,16.09,79.68,16.09s54.44-5.41,79.68-16.09c12.13-5.13,23.83-11.48,34.77-18.87,10.84-7.32,21.03-15.73,30.29-24.99,9.26-9.26,17.67-19.45,24.99-30.29,7.39-10.94,13.74-22.64,18.87-34.77,10.67-25.23,16.09-52.04,16.09-79.68s-5.41-54.44-16.09-79.68c-5.13-12.13-11.48-23.83-18.87-34.77-7.32-10.84-15.73-21.03-24.99-30.29-9.26-9.26-19.45-17.67-30.29-24.99-10.94-7.39-22.64-13.74-34.77-18.87-25.23-10.67-52.04-16.09-79.68-16.09Zm0-.49c27.7,0,54.57,5.43,79.86,16.12,12.16,5.14,23.88,11.51,34.85,18.92,10.87,7.34,21.08,15.77,30.36,25.05,9.29,9.28,17.71,19.5,25.05,30.36,7.41,10.97,13.78,22.69,18.92,34.85,10.7,25.29,16.13,52.17,16.13,79.87s-5.43,54.57-16.12,79.87c-5.14,12.16-11.51,23.88-18.92,34.85-7.34,10.86-15.77,21.08-25.05,30.36-9.28,9.29-19.5,17.71-30.36,25.05-10.97,7.41-22.69,13.78-34.85,18.92-25.29,10.7-52.17,16.13-79.87,16.13s-54.57-5.43-79.87-16.12c-12.16-5.14-23.88-11.51-34.85-18.92-10.86-7.34-21.08-15.77-30.36-25.05-9.28-9.29-17.71-19.5-25.05-30.37-7.41-10.97-13.77-22.69-18.92-34.85-10.7-25.29-16.13-52.17-16.13-79.87s5.43-54.57,16.12-79.87c5.14-12.16,11.51-23.88,18.92-34.85,7.34-10.86,15.77-21.08,25.05-30.37,9.28-9.28,19.5-17.71,30.36-25.05,10.97-7.41,22.69-13.78,34.85-18.92,25.29-10.7,52.17-16.13,79.87-16.13Z" style="fill: #00b5e3;"/>
          <path d="M218.07,.12c-29.42,0-57.97,5.76-84.84,17.13-12.91,5.46-25.37,12.22-37.02,20.09-11.54,7.8-22.39,16.75-32.26,26.61-9.86,9.86-18.82,20.72-26.61,32.26-7.87,11.65-14.63,24.11-20.09,37.02C5.88,160.1,.12,188.65,.12,218.07s5.76,57.97,17.13,84.84c5.46,12.91,12.22,25.37,20.09,37.02,7.8,11.54,16.75,22.39,26.61,32.26,9.86,9.86,20.71,18.82,32.26,26.61,11.65,7.87,24.11,14.63,37.02,20.1,26.87,11.37,55.41,17.13,84.84,17.13s57.97-5.76,84.83-17.13c12.91-5.46,25.37-12.22,37.02-20.1,11.54-7.79,22.39-16.75,32.26-26.61,9.86-9.86,18.82-20.72,26.61-32.26,7.87-11.65,14.63-24.11,20.1-37.02,11.36-26.87,17.13-55.41,17.13-84.84s-5.76-57.97-17.13-84.83c-5.46-12.91-12.22-25.37-20.1-37.02-7.8-11.54-16.75-22.39-26.61-32.26-9.86-9.86-20.72-18.82-32.26-26.61-11.65-7.87-24.11-14.63-37.02-20.09C276.03,5.88,247.49,.12,218.07,.12Zm0,436.02c-29.44,0-58-5.77-84.88-17.14-12.92-5.46-25.38-12.23-37.04-20.11-11.55-7.8-22.41-16.76-32.27-26.63-9.87-9.87-18.83-20.73-26.63-32.27-7.88-11.66-14.64-24.12-20.11-37.04C5.77,276.07,0,247.51,0,218.07s5.77-58,17.14-84.88c5.47-12.92,12.23-25.38,20.11-37.04,7.8-11.55,16.76-22.41,26.63-32.27,9.87-9.87,20.73-18.83,32.27-26.63,11.66-7.88,24.12-14.64,37.04-20.11C160.07,5.77,188.63,0,218.07,0s58,5.77,84.88,17.14c12.92,5.46,25.38,12.23,37.04,20.11,11.55,7.8,22.41,16.76,32.27,26.63,9.87,9.87,18.83,20.73,26.63,32.27,7.88,11.66,14.64,24.12,20.11,37.04,11.37,26.88,17.14,55.44,17.14,84.88s-5.77,58-17.14,84.88c-5.47,12.92-12.23,25.38-20.11,37.04-7.8,11.55-16.76,22.41-26.63,32.27-9.87,9.87-20.73,18.83-32.27,26.63-11.66,7.88-24.12,14.64-37.04,20.11-26.88,11.37-55.44,17.14-84.88,17.14Z" style="fill: #00b5e3;"/>
        </g>
        <g>
          <path d="M218.07,212.23c-3.22,0-5.84,2.62-5.84,5.84s2.62,5.84,5.84,5.84,5.84-2.62,5.84-5.84-2.62-5.84-5.84-5.84Zm0,17.68c-6.53,0-11.84-5.31-11.84-11.84s5.31-11.84,11.84-11.84,11.84,5.31,11.84,11.84-5.31,11.84-11.84,11.84Z" style="fill: url(#Degradado_sin_nombre_20);"/>
          <path d="M218.07,198.97c-2.61,0-5.12,.52-7.47,1.52-1.13,.48-2.21,1.07-3.23,1.76-1.01,.68-1.95,1.46-2.81,2.32-.86,.86-1.64,1.8-2.32,2.81-.69,1.01-1.28,2.1-1.76,3.23-1,2.34-1.52,4.86-1.52,7.47s.52,5.12,1.52,7.47c.48,1.13,1.07,2.21,1.76,3.23,.68,1.01,1.46,1.95,2.32,2.81,.86,.86,1.8,1.64,2.81,2.32,1.01,.69,2.1,1.28,3.23,1.76,2.34,1,4.86,1.52,7.47,1.52s5.12-.52,7.47-1.52c1.13-.48,2.21-1.07,3.23-1.76,1.01-.68,1.95-1.46,2.81-2.32,.86-.86,1.64-1.8,2.32-2.81,.69-1.01,1.28-2.1,1.76-3.23,1-2.34,1.52-4.86,1.52-7.47s-.52-5.12-1.52-7.47c-.48-1.13-1.07-2.21-1.76-3.23-.68-1.01-1.46-1.95-2.32-2.81-.86-.86-1.8-1.64-2.81-2.32-1.01-.69-2.1-1.28-3.23-1.76-2.34-1-4.86-1.52-7.47-1.52Zm0-5.64c3.37,0,6.62,.67,9.63,1.95,1.46,.62,2.87,1.38,4.18,2.27,1.3,.88,2.53,1.88,3.64,2.99,1.11,1.11,2.12,2.33,3.01,3.63,.89,1.31,1.66,2.71,2.29,4.17,1.3,3.03,1.99,6.31,1.99,9.72s-.67,6.62-1.95,9.63c-.62,1.46-1.38,2.87-2.27,4.19-.88,1.3-1.89,2.53-3,3.64-1.11,1.11-2.33,2.12-3.63,3.01-1.31,.89-2.71,1.66-4.17,2.29-3.03,1.3-6.31,1.98-9.72,1.98s-6.62-.67-9.63-1.95c-1.47-.62-2.87-1.38-4.19-2.27-1.3-.88-2.53-1.88-3.64-2.99s-2.12-2.33-3.01-3.63c-.89-1.31-1.66-2.71-2.29-4.18-1.3-3.03-1.99-6.31-1.99-9.72s.67-6.62,1.95-9.63c.62-1.46,1.38-2.87,2.27-4.19,.88-1.3,1.89-2.52,3-3.64,1.11-1.11,2.33-2.12,3.63-3.01,1.31-.89,2.71-1.66,4.18-2.29,3.03-1.3,6.31-1.98,9.72-1.98Z" style="fill: url(#Degradado_sin_nombre_20);"/>
          <path d="M218.07,185.72c-4.39,0-8.65,.87-12.62,2.56-1.91,.81-3.76,1.82-5.48,2.98-1.71,1.16-3.31,2.48-4.77,3.94-1.46,1.46-2.78,3.06-3.94,4.77-1.17,1.72-2.17,3.57-2.98,5.48-1.69,3.98-2.56,8.23-2.56,12.62s.87,8.65,2.56,12.62c.81,1.91,1.82,3.76,2.98,5.48,1.16,1.71,2.48,3.31,3.94,4.77,1.46,1.46,3.06,2.78,4.77,3.94,1.72,1.17,3.57,2.17,5.48,2.98,3.98,1.69,8.23,2.56,12.62,2.56s8.65-.87,12.62-2.56c1.91-.81,3.76-1.82,5.48-2.98,1.71-1.16,3.31-2.48,4.77-3.94,1.46-1.46,2.78-3.06,3.94-4.77,1.17-1.72,2.17-3.57,2.98-5.48,1.69-3.98,2.56-8.23,2.56-12.62s-.87-8.65-2.56-12.62c-.81-1.91-1.82-3.76-2.98-5.48-1.16-1.71-2.48-3.31-3.94-4.77-1.46-1.46-3.06-2.78-4.77-3.94-1.72-1.17-3.57-2.17-5.48-2.98-3.98-1.69-8.23-2.56-12.62-2.56Zm0-5.27c5.11,0,10.04,1.01,14.64,2.96,2.23,.94,4.37,2.11,6.38,3.46,1.99,1.34,3.85,2.88,5.55,4.57,1.7,1.69,3.24,3.55,4.58,5.54,1.36,2,2.53,4.14,3.48,6.37,1.97,4.62,3,9.59,3,14.73s-1.01,10.04-2.96,14.64c-.94,2.23-2.11,4.37-3.46,6.38-1.34,1.99-2.88,3.85-4.57,5.55-1.69,1.7-3.55,3.24-5.54,4.58-2,1.36-4.14,2.53-6.37,3.48-4.62,1.97-9.59,2.99-14.73,2.99s-10.04-1.01-14.64-2.96c-2.23-.94-4.37-2.11-6.38-3.46-1.99-1.34-3.85-2.88-5.55-4.57-1.7-1.69-3.24-3.55-4.58-5.54-1.36-2-2.53-4.14-3.48-6.37-1.97-4.62-3-9.59-3-14.73s1.01-10.04,2.96-14.64c.94-2.23,2.11-4.37,3.46-6.38,1.34-1.99,2.88-3.85,4.57-5.55,1.69-1.7,3.55-3.24,5.54-4.58,2-1.36,4.14-2.53,6.37-3.48,4.62-1.97,9.59-2.99,14.73-2.99Z" style="fill: url(#Degradado_sin_nombre_20);"/>
          <path d="M218.07,172.46c-6.18,0-12.17,1.22-17.78,3.6-2.7,1.14-5.3,2.56-7.73,4.2-2.41,1.63-4.67,3.5-6.73,5.56s-3.93,4.32-5.56,6.73c-1.65,2.43-3.06,5.03-4.2,7.73-2.38,5.61-3.6,11.6-3.6,17.78s1.22,12.17,3.6,17.78c1.14,2.7,2.56,5.3,4.2,7.73,1.63,2.41,3.5,4.67,5.56,6.73,2.06,2.06,4.32,3.93,6.73,5.56,2.43,1.64,5.03,3.06,7.73,4.2,5.61,2.38,11.6,3.6,17.78,3.6s12.17-1.22,17.78-3.6c2.7-1.15,5.3-2.56,7.73-4.2,2.41-1.63,4.67-3.5,6.73-5.56,2.06-2.06,3.93-4.32,5.56-6.73,1.64-2.43,3.06-5.03,4.2-7.73,2.38-5.61,3.6-11.6,3.6-17.78s-1.22-12.17-3.6-17.78c-1.14-2.7-2.56-5.3-4.2-7.73-1.63-2.41-3.5-4.67-5.56-6.73-2.06-2.06-4.32-3.93-6.73-5.56-2.43-1.65-5.03-3.06-7.73-4.2-5.61-2.38-11.6-3.6-17.78-3.6Zm0-4.9c6.85,0,13.47,1.35,19.66,3.97,2.99,1.27,5.87,2.83,8.57,4.65,2.67,1.8,5.18,3.87,7.46,6.15,2.28,2.28,4.35,4.78,6.16,7.45,1.82,2.69,3.39,5.57,4.66,8.56,2.64,6.21,4.01,12.86,4.01,19.74s-1.35,13.47-3.97,19.66c-1.27,2.99-2.83,5.87-4.65,8.57-1.8,2.67-3.87,5.18-6.15,7.46-2.28,2.28-4.78,4.35-7.45,6.16-2.69,1.82-5.57,3.39-8.56,4.66-6.21,2.64-12.86,4-19.74,4s-13.47-1.35-19.66-3.97c-2.99-1.27-5.87-2.83-8.57-4.65-2.67-1.8-5.18-3.87-7.46-6.15-2.28-2.28-4.35-4.78-6.16-7.45-1.82-2.69-3.39-5.57-4.66-8.56-2.64-6.21-4.01-12.86-4.01-19.74s1.35-13.47,3.97-19.66c1.27-2.99,2.83-5.87,4.65-8.57,1.8-2.67,3.87-5.18,6.15-7.46,2.28-2.28,4.78-4.35,7.45-6.16,2.69-1.82,5.57-3.39,8.56-4.66,6.21-2.64,12.86-4,19.74-4Z" style="fill: url(#Degradado_sin_nombre_20);"/>
          <path d="M218.07,159.2c-7.97,0-15.69,1.57-22.94,4.64-3.49,1.48-6.84,3.3-9.99,5.43-3.11,2.1-6.04,4.52-8.7,7.18-2.66,2.66-5.07,5.59-7.18,8.7-2.12,3.14-3.95,6.5-5.43,9.99-3.07,7.25-4.64,14.97-4.64,22.94s1.57,15.69,4.64,22.94c1.48,3.49,3.3,6.84,5.43,9.99,2.1,3.11,4.52,6.04,7.18,8.7,2.66,2.66,5.58,5.07,8.7,7.18,3.14,2.12,6.5,3.95,9.99,5.43,7.25,3.07,14.97,4.64,22.94,4.64s15.69-1.57,22.94-4.64c3.49-1.48,6.84-3.3,9.99-5.43,3.11-2.1,6.04-4.52,8.7-7.18,2.66-2.66,5.07-5.59,7.18-8.7,2.12-3.14,3.95-6.5,5.43-9.99,3.07-7.25,4.64-14.97,4.64-22.94s-1.57-15.69-4.64-22.94c-1.48-3.49-3.3-6.84-5.43-9.99-2.1-3.11-4.52-6.04-7.18-8.7-2.66-2.66-5.59-5.07-8.7-7.18-3.14-2.12-6.5-3.95-9.99-5.43-7.25-3.07-14.97-4.64-22.94-4.64Zm0-4.54c8.58,0,16.89,1.69,24.68,4.99,3.76,1.59,7.37,3.55,10.76,5.84,3.35,2.26,6.5,4.86,9.37,7.72,2.86,2.86,5.46,6.01,7.73,9.36,2.29,3.38,4.26,6.99,5.85,10.75,3.31,7.8,5.02,16.14,5.02,24.75s-1.69,16.89-4.98,24.68c-1.59,3.76-3.55,7.37-5.84,10.76-2.26,3.35-4.86,6.5-7.72,9.37-2.86,2.86-6.01,5.46-9.36,7.73-3.38,2.29-6.99,4.26-10.75,5.85-7.8,3.31-16.14,5.02-24.75,5.02s-16.89-1.69-24.68-4.99c-3.76-1.59-7.37-3.55-10.76-5.84-3.35-2.26-6.5-4.86-9.37-7.72-2.86-2.86-5.46-6.01-7.73-9.36-2.29-3.38-4.26-6.99-5.85-10.75-3.31-7.8-5.02-16.14-5.02-24.75s1.69-16.89,4.99-24.68c1.59-3.76,3.55-7.37,5.84-10.76,2.26-3.35,4.86-6.5,7.72-9.37,2.86-2.86,6.01-5.46,9.36-7.73,3.38-2.29,6.99-4.26,10.75-5.85,7.8-3.31,16.14-5.02,24.75-5.02Z" style="fill: url(#Degradado_sin_nombre_20);"/>
          <path d="M218.07,145.95c-9.76,0-19.21,1.92-28.1,5.68-4.27,1.81-8.39,4.05-12.24,6.65-3.81,2.58-7.4,5.54-10.66,8.8-3.26,3.26-6.22,6.85-8.8,10.66-2.6,3.85-4.84,7.97-6.65,12.24-3.76,8.88-5.68,18.34-5.68,28.1s1.92,19.21,5.68,28.1c1.81,4.27,4.04,8.39,6.65,12.24,2.58,3.81,5.54,7.4,8.8,10.66,3.26,3.26,6.85,6.22,10.66,8.8,3.85,2.6,7.97,4.84,12.24,6.65,8.88,3.76,18.34,5.68,28.1,5.68s19.21-1.92,28.1-5.68c4.27-1.81,8.39-4.05,12.24-6.65,3.81-2.58,7.4-5.54,10.66-8.8s6.22-6.85,8.8-10.66c2.6-3.85,4.84-7.97,6.65-12.24,3.76-8.88,5.68-18.34,5.68-28.1s-1.92-19.21-5.68-28.1c-1.81-4.27-4.04-8.39-6.65-12.24-2.58-3.81-5.54-7.4-8.8-10.66s-6.85-6.22-10.66-8.8c-3.85-2.6-7.97-4.84-12.24-6.65-8.88-3.76-18.34-5.68-28.1-5.68Zm0-4.17c10.32,0,20.32,2.03,29.7,6,4.52,1.91,8.87,4.28,12.95,7.03,4.04,2.73,7.83,5.85,11.27,9.3,3.45,3.45,6.58,7.23,9.31,11.27,2.75,4.07,5.12,8.42,7.04,12.94,3.99,9.39,6.03,19.41,6.03,29.76s-2.03,20.32-6,29.7c-1.91,4.52-4.28,8.87-7.03,12.95-2.73,4.04-5.85,7.83-9.3,11.27-3.45,3.45-7.23,6.58-11.27,9.31-4.07,2.75-8.42,5.12-12.94,7.04-9.39,3.98-19.41,6.03-29.76,6.03s-20.32-2.03-29.7-6c-4.52-1.91-8.87-4.28-12.95-7.03-4.04-2.73-7.83-5.85-11.27-9.3-3.45-3.45-6.58-7.23-9.31-11.27-2.75-4.07-5.12-8.42-7.04-12.94-3.98-9.39-6.03-19.41-6.03-29.76s2.03-20.32,6-29.7c1.91-4.52,4.28-8.87,7.03-12.95,2.73-4.04,5.85-7.83,9.3-11.27,3.45-3.45,7.23-6.58,11.27-9.31,4.07-2.75,8.42-5.12,12.94-7.04,9.39-3.98,19.41-6.03,29.76-6.03Z" style="fill: url(#Degradado_sin_nombre_20);"/>
          <path d="M218.07,132.69c-11.55,0-22.74,2.27-33.26,6.72-5.06,2.14-9.93,4.79-14.49,7.87-4.52,3.05-8.76,6.56-12.62,10.42-3.86,3.86-7.36,8.11-10.42,12.62-3.08,4.56-5.73,9.43-7.87,14.49-4.45,10.52-6.72,21.71-6.72,33.25s2.27,22.74,6.72,33.25c2.14,5.06,4.79,9.93,7.87,14.49,3.05,4.52,6.56,8.76,10.42,12.62,3.86,3.86,8.11,7.36,12.62,10.42,4.56,3.08,9.43,5.73,14.49,7.87,10.52,4.45,21.71,6.72,33.26,6.72s22.74-2.27,33.25-6.72c5.06-2.14,9.93-4.79,14.49-7.87,4.52-3.05,8.76-6.56,12.62-10.42,3.86-3.86,7.36-8.11,10.42-12.62,3.08-4.56,5.73-9.43,7.87-14.49,4.45-10.52,6.72-21.71,6.72-33.25s-2.27-22.74-6.72-33.25c-2.14-5.06-4.79-9.93-7.87-14.49-3.05-4.52-6.56-8.76-10.42-12.62-3.86-3.86-8.11-7.36-12.62-10.42-4.56-3.08-9.43-5.73-14.49-7.87-10.52-4.45-21.71-6.72-33.25-6.72Zm0-3.8c12.06,0,23.74,2.37,34.71,7.01,5.28,2.24,10.38,5,15.14,8.22,4.72,3.19,9.15,6.84,13.18,10.87,4.03,4.03,7.69,8.46,10.88,13.18,3.22,4.76,5.99,9.85,8.23,15.13,4.66,10.98,7.04,22.69,7.04,34.77s-2.37,23.75-7.01,34.71c-2.24,5.29-5,10.38-8.22,15.14-3.19,4.72-6.84,9.15-10.87,13.18-4.03,4.03-8.46,7.69-13.18,10.88-4.76,3.22-9.85,5.99-15.13,8.23-10.98,4.66-22.69,7.04-34.77,7.04s-23.75-2.37-34.71-7.01c-5.29-2.24-10.38-5-15.14-8.22-4.72-3.19-9.15-6.84-13.18-10.87-4.03-4.03-7.69-8.46-10.88-13.18-3.22-4.76-5.99-9.85-8.23-15.13-4.66-10.98-7.04-22.69-7.04-34.77s2.37-23.74,7.01-34.71c2.24-5.29,5-10.38,8.22-15.14,3.19-4.72,6.84-9.15,10.87-13.18,4.03-4.03,8.46-7.69,13.18-10.88,4.76-3.22,9.85-5.99,15.13-8.23,10.98-4.66,22.69-7.04,34.77-7.04Z" style="fill: url(#Degradado_sin_nombre_20);"/>
          <path d="M218.07,119.43c-13.33,0-26.26,2.62-38.41,7.76-5.84,2.47-11.48,5.53-16.75,9.09-5.22,3.53-10.13,7.58-14.59,12.04s-8.51,9.37-12.04,14.59c-3.56,5.27-6.62,10.9-9.09,16.75-5.14,12.15-7.76,25.08-7.76,38.41s2.62,26.26,7.76,38.41c2.47,5.84,5.53,11.48,9.09,16.75,3.53,5.22,7.58,10.13,12.04,14.59,4.46,4.46,9.37,8.51,14.59,12.04,5.27,3.56,10.9,6.62,16.75,9.09,12.15,5.14,25.08,7.76,38.41,7.76s26.26-2.62,38.41-7.76c5.84-2.47,11.48-5.53,16.75-9.09,5.22-3.53,10.13-7.58,14.59-12.04,4.46-4.46,8.51-9.37,12.04-14.59,3.56-5.27,6.62-10.9,9.09-16.75,5.14-12.15,7.76-25.08,7.76-38.41s-2.62-26.26-7.76-38.41c-2.47-5.84-5.53-11.48-9.09-16.75-3.53-5.22-7.58-10.13-12.04-14.59s-9.37-8.51-14.59-12.04c-5.27-3.56-10.9-6.62-16.75-9.09-12.15-5.14-25.08-7.76-38.41-7.76Zm0-3.43c13.8,0,27.17,2.71,39.73,8.02,6.05,2.56,11.88,5.72,17.33,9.41,5.4,3.65,10.48,7.84,15.09,12.45,4.62,4.61,8.8,9.69,12.46,15.08,3.69,5.45,6.85,11.28,9.42,17.32,5.33,12.57,8.04,25.96,8.04,39.78s-2.71,27.17-8.02,39.73c-2.56,6.05-5.72,11.88-9.41,17.33-3.65,5.4-7.84,10.48-12.45,15.09-4.61,4.62-9.69,8.8-15.09,12.46-5.45,3.69-11.28,6.85-17.32,9.42-12.57,5.33-25.96,8.04-39.78,8.04s-27.17-2.71-39.73-8.02c-6.05-2.56-11.88-5.72-17.33-9.41-5.4-3.65-10.48-7.84-15.09-12.45-4.62-4.61-8.8-9.69-12.46-15.09-3.69-5.45-6.85-11.28-9.41-17.32-5.33-12.57-8.05-25.96-8.05-39.78s2.71-27.17,8.02-39.73c2.56-6.05,5.72-11.88,9.41-17.33,3.65-5.4,7.84-10.48,12.45-15.09,4.61-4.62,9.69-8.81,15.09-12.46,5.45-3.69,11.28-6.85,17.32-9.42,12.57-5.33,25.96-8.04,39.78-8.04Z" style="fill: url(#Degradado_sin_nombre_20);"/>
          <path d="M218.07,106.18c-15.12,0-29.78,2.97-43.57,8.8-6.63,2.8-13.02,6.27-19,10.32-5.92,4-11.49,8.6-16.55,13.66-5.06,5.06-9.65,10.63-13.66,16.55-4.04,5.98-7.51,12.37-10.32,19-5.84,13.79-8.8,28.45-8.8,43.57s2.97,29.78,8.8,43.57c2.8,6.63,6.28,13.02,10.32,19,4,5.92,8.6,11.49,13.66,16.55,5.06,5.06,10.63,9.65,16.55,13.66,5.98,4.04,12.37,7.51,19,10.32,13.79,5.84,28.45,8.8,43.57,8.8s29.78-2.97,43.57-8.8c6.63-2.8,13.02-6.27,19-10.32,5.92-4,11.49-8.6,16.55-13.66,5.06-5.06,9.65-10.63,13.66-16.55,4.04-5.98,7.51-12.37,10.32-19,5.84-13.79,8.8-28.45,8.8-43.57s-2.97-29.78-8.8-43.57c-2.8-6.63-6.28-13.02-10.32-19-4-5.92-8.6-11.49-13.66-16.55-5.06-5.06-10.63-9.65-16.55-13.66-5.98-4.04-12.37-7.51-19-10.32-13.79-5.83-28.45-8.8-43.57-8.8Zm0-3.06c15.54,0,30.59,3.05,44.75,9.04,6.81,2.88,13.38,6.45,19.52,10.59,6.08,4.11,11.8,8.83,17,14.02,5.2,5.2,9.92,10.91,14.03,17,4.15,6.14,7.72,12.7,10.6,19.51,6,14.16,9.06,29.24,9.06,44.79s-3.05,30.59-9.04,44.75c-2.88,6.81-6.45,13.38-10.6,19.52-4.11,6.08-8.83,11.8-14.02,17s-10.91,9.92-17,14.03c-6.14,4.15-12.7,7.72-19.51,10.6-14.16,6-29.24,9.06-44.79,9.06s-30.59-3.05-44.75-9.04c-6.81-2.88-13.38-6.45-19.52-10.59-6.08-4.11-11.8-8.83-17-14.02-5.2-5.2-9.92-10.91-14.03-17-4.15-6.14-7.72-12.7-10.6-19.51-6-14.16-9.06-29.24-9.06-44.79s3.05-30.59,9.04-44.75c2.88-6.81,6.45-13.38,10.59-19.52,4.11-6.08,8.83-11.8,14.02-17s10.91-9.92,17-14.03c6.14-4.15,12.7-7.72,19.51-10.6,14.16-6,29.24-9.06,44.79-9.06Z" style="fill: url(#Degradado_sin_nombre_20);"/>
          <path d="M218.07,92.92c-16.91,0-33.31,3.32-48.73,9.84-7.41,3.14-14.56,7.02-21.25,11.54-6.62,4.48-12.85,9.62-18.51,15.28s-10.8,11.89-15.28,18.51c-4.52,6.69-8.4,13.84-11.54,21.25-6.53,15.42-9.84,31.82-9.84,48.73s3.32,33.31,9.84,48.73c3.14,7.41,7.02,14.56,11.54,21.25,4.48,6.62,9.62,12.85,15.28,18.51s11.89,10.8,18.51,15.28c6.69,4.52,13.84,8.4,21.25,11.54,15.42,6.53,31.82,9.84,48.73,9.84s33.31-3.32,48.73-9.84c7.41-3.14,14.56-7.02,21.25-11.54,6.62-4.48,12.85-9.62,18.51-15.28,5.66-5.66,10.8-11.89,15.28-18.51,4.52-6.69,8.4-13.84,11.54-21.25,6.53-15.42,9.84-31.82,9.84-48.73s-3.32-33.31-9.84-48.73c-3.14-7.41-7.02-14.56-11.54-21.25-4.48-6.62-9.61-12.85-15.28-18.51-5.66-5.66-11.89-10.8-18.51-15.28-6.69-4.52-13.84-8.4-21.25-11.54-15.42-6.53-31.82-9.84-48.73-9.84Zm0-2.69c17.27,0,34.02,3.39,49.76,10.05,7.58,3.21,14.88,7.17,21.71,11.78,6.77,4.57,13.13,9.82,18.91,15.6,5.78,5.78,11.03,12.14,15.61,18.91,4.62,6.83,8.59,14.13,11.79,21.7,6.67,15.75,10.07,32.52,10.07,49.81s-3.39,34.02-10.05,49.76c-3.21,7.58-7.17,14.88-11.78,21.71-4.57,6.77-9.82,13.13-15.6,18.91-5.78,5.78-12.14,11.03-18.91,15.61-6.83,4.62-14.13,8.58-21.7,11.79-15.75,6.67-32.52,10.07-49.81,10.07s-34.02-3.39-49.76-10.05c-7.58-3.2-14.88-7.17-21.71-11.78-6.77-4.57-13.13-9.82-18.91-15.6-5.78-5.78-11.03-12.14-15.61-18.91-4.62-6.83-8.58-14.13-11.79-21.7-6.67-15.75-10.07-32.52-10.07-49.81s3.39-34.02,10.05-49.76c3.21-7.58,7.17-14.88,11.78-21.71,4.57-6.77,9.82-13.13,15.6-18.91,5.78-5.78,12.14-11.03,18.91-15.61,6.83-4.62,14.13-8.58,21.7-11.79,15.75-6.67,32.51-10.07,49.81-10.07Z" style="fill: url(#Degradado_sin_nombre_20);"/>
          <path d="M218.07,79.66c-18.7,0-36.83,3.66-53.89,10.88-8.2,3.47-16.11,7.76-23.5,12.76-7.33,4.95-14.21,10.63-20.48,16.9-6.26,6.26-11.95,13.15-16.9,20.48-5,7.4-9.29,15.3-12.76,23.5-7.22,17.06-10.88,35.19-10.88,53.89s3.67,36.83,10.88,53.89c3.47,8.2,7.76,16.11,12.76,23.5,4.95,7.33,10.63,14.21,16.9,20.48,6.26,6.26,13.15,11.95,20.48,16.9,7.4,5,15.3,9.29,23.5,12.76,17.06,7.22,35.19,10.88,53.89,10.88s36.83-3.66,53.89-10.88c8.2-3.47,16.11-7.76,23.5-12.76,7.33-4.95,14.21-10.63,20.48-16.9,6.26-6.26,11.95-13.15,16.9-20.48,5-7.4,9.29-15.3,12.76-23.5,7.22-17.06,10.88-35.19,10.88-53.89s-3.67-36.83-10.88-53.89c-3.47-8.2-7.76-16.11-12.76-23.5-4.95-7.33-10.63-14.21-16.9-20.48-6.26-6.26-13.15-11.95-20.48-16.9-7.4-5-15.3-9.29-23.5-12.76-17.06-7.22-35.19-10.88-53.89-10.88Zm0-2.33c19.01,0,37.45,3.73,54.78,11.06,8.34,3.53,16.38,7.89,23.9,12.97,7.45,5.03,14.45,10.81,20.82,17.18,6.37,6.36,12.15,13.37,17.18,20.81,5.08,7.52,9.45,15.56,12.98,23.9,7.34,17.34,11.08,35.79,11.08,54.82s-3.73,37.45-11.06,54.78c-3.53,8.34-7.89,16.38-12.97,23.9-5.03,7.45-10.81,14.45-17.17,20.82-6.36,6.37-13.37,12.15-20.81,17.18-7.52,5.08-15.56,9.45-23.9,12.98-17.34,7.34-35.79,11.08-54.82,11.08s-37.45-3.73-54.78-11.06c-8.34-3.53-16.38-7.89-23.9-12.97-7.45-5.03-14.45-10.81-20.82-17.18-6.37-6.36-12.15-13.37-17.18-20.81-5.08-7.52-9.45-15.56-12.98-23.9-7.34-17.34-11.08-35.79-11.08-54.82s3.73-37.45,11.06-54.78c3.53-8.34,7.89-16.38,12.97-23.9,5.03-7.45,10.81-14.45,17.18-20.82,6.36-6.37,13.37-12.15,20.81-17.18,7.52-5.08,15.56-9.45,23.9-12.98,17.34-7.34,35.79-11.08,54.82-11.08Z" style="fill: url(#Degradado_sin_nombre_20);"/>
          <path d="M218.07,66.4c-20.48,0-40.35,4.02-59.05,11.92-8.99,3.8-17.65,8.5-25.76,13.98-8.03,5.42-15.58,11.65-22.44,18.51-6.86,6.86-13.09,14.41-18.52,22.44-5.48,8.11-10.18,16.77-13.98,25.76-7.91,18.7-11.92,38.56-11.92,59.05s4.01,40.35,11.92,59.05c3.8,8.99,8.51,17.65,13.98,25.76,5.42,8.03,11.65,15.58,18.52,22.44,6.86,6.86,14.41,13.09,22.44,18.51,8.11,5.48,16.77,10.18,25.76,13.98,18.69,7.91,38.56,11.92,59.05,11.92s40.35-4.02,59.04-11.92c8.99-3.8,17.65-8.5,25.76-13.98,8.03-5.42,15.58-11.65,22.44-18.51,6.86-6.86,13.09-14.41,18.52-22.44,5.48-8.11,10.18-16.77,13.98-25.76,7.91-18.7,11.92-38.56,11.92-59.05s-4.02-40.35-11.92-59.05c-3.8-8.99-8.5-17.65-13.98-25.76-5.42-8.03-11.65-15.58-18.52-22.44-6.86-6.86-14.41-13.09-22.44-18.51-8.11-5.48-16.77-10.18-25.76-13.98-18.69-7.91-38.56-11.92-59.04-11.92Zm0-1.96c20.75,0,40.87,4.07,59.8,12.07,9.1,3.85,17.88,8.62,26.09,14.16,8.13,5.49,15.78,11.8,22.73,18.75,6.95,6.95,13.26,14.59,18.75,22.72,5.55,8.21,10.32,16.99,14.17,26.09,8.01,18.93,12.09,39.07,12.09,59.83s-4.07,40.87-12.07,59.8c-3.85,9.1-8.62,17.88-14.16,26.09-5.49,8.13-11.8,15.78-18.75,22.73-6.95,6.95-14.59,13.26-22.72,18.75-8.21,5.55-16.99,10.31-26.09,14.17-18.93,8.01-39.07,12.09-59.83,12.09s-40.87-4.07-59.8-12.07c-9.1-3.85-17.88-8.62-26.09-14.16-8.13-5.49-15.78-11.8-22.73-18.75-6.95-6.95-13.26-14.59-18.75-22.72-5.55-8.21-10.31-16.99-14.17-26.09-8.01-18.93-12.09-39.07-12.09-59.83s4.07-40.87,12.07-59.8c3.85-9.1,8.61-17.88,14.16-26.09,5.5-8.13,11.8-15.78,18.75-22.73,6.95-6.95,14.59-13.26,22.73-18.75,8.21-5.55,16.98-10.31,26.09-14.17,18.93-8.01,39.07-12.09,59.83-12.09Z" style="fill: url(#Degradado_sin_nombre_20);"/>
          <path d="M218.07,53.15c-22.27,0-43.87,4.37-64.2,12.97-9.77,4.13-19.2,9.25-28.01,15.21-8.73,5.9-16.94,12.67-24.4,20.13-7.46,7.46-14.24,15.67-20.14,24.4-5.96,8.82-11.07,18.24-15.21,28.01-8.6,20.33-12.96,41.93-12.96,64.2s4.36,43.87,12.96,64.2c4.13,9.77,9.25,19.19,15.21,28.01,5.9,8.73,12.67,16.94,20.14,24.4,7.46,7.46,15.67,14.24,24.4,20.13,8.82,5.96,18.24,11.07,28.01,15.2,20.33,8.6,41.93,12.96,64.2,12.96s43.87-4.36,64.2-12.96c9.77-4.13,19.19-9.25,28.01-15.2,8.73-5.9,16.94-12.67,24.4-20.13,7.46-7.46,14.24-15.67,20.13-24.4,5.96-8.82,11.07-18.24,15.21-28.01,8.6-20.33,12.96-41.93,12.96-64.2s-4.36-43.87-12.96-64.2c-4.13-9.77-9.25-19.2-15.21-28.01-5.9-8.73-12.67-16.94-20.13-24.4-7.46-7.46-15.67-14.24-24.4-20.13-8.82-5.96-18.24-11.07-28.01-15.21-20.33-8.6-41.93-12.97-64.2-12.97Zm0-1.59c22.49,0,44.3,4.41,64.81,13.09,9.87,4.17,19.38,9.34,28.28,15.35,8.82,5.96,17.1,12.79,24.64,20.33,7.53,7.53,14.37,15.82,20.33,24.63,6.01,8.9,11.18,18.41,15.36,28.28,8.68,20.52,13.1,42.34,13.1,64.84s-4.41,44.3-13.09,64.81c-4.17,9.87-9.34,19.38-15.35,28.28-5.95,8.82-12.79,17.1-20.33,24.64-7.53,7.53-15.82,14.37-24.63,20.33-8.9,6.01-18.41,11.18-28.28,15.36-20.52,8.68-42.34,13.1-64.84,13.1s-44.3-4.41-64.81-13.09c-9.87-4.17-19.38-9.34-28.28-15.35-8.82-5.96-17.1-12.79-24.64-20.33-7.53-7.53-14.37-15.82-20.33-24.63-6.01-8.9-11.18-18.41-15.35-28.28-8.69-20.52-13.1-42.34-13.1-64.84s4.41-44.3,13.09-64.81c4.17-9.87,9.34-19.38,15.35-28.28,5.96-8.82,12.79-17.1,20.33-24.64,7.53-7.53,15.82-14.37,24.63-20.33,8.9-6.01,18.41-11.18,28.28-15.36,20.52-8.68,42.34-13.1,64.84-13.1Z" style="fill: url(#Degradado_sin_nombre_20);"/>
          <path d="M218.07,39.89c-24.06,0-47.4,4.71-69.36,14.01-10.56,4.47-20.74,9.99-30.26,16.43-9.43,6.37-18.3,13.69-26.37,21.75-8.06,8.06-15.38,16.93-21.75,26.37-6.43,9.52-11.96,19.7-16.43,30.26-9.29,21.96-14.01,45.3-14.01,69.36s4.71,47.4,14.01,69.36c4.47,10.56,9.99,20.74,16.43,30.26,6.37,9.43,13.69,18.3,21.75,26.37,8.06,8.06,16.93,15.38,26.37,21.75,9.52,6.44,19.71,11.96,30.26,16.43,21.96,9.29,45.3,14.01,69.36,14.01s47.4-4.71,69.36-14.01c10.56-4.46,20.74-9.99,30.26-16.43,9.43-6.37,18.3-13.69,26.37-21.75,8.06-8.06,15.38-16.93,21.75-26.37,6.44-9.52,11.96-19.71,16.43-30.26,9.29-21.96,14.01-45.3,14.01-69.36s-4.71-47.4-14.01-69.36c-4.47-10.56-9.99-20.74-16.43-30.26-6.37-9.43-13.69-18.3-21.75-26.37-8.06-8.06-16.93-15.38-26.37-21.75-9.52-6.44-19.71-11.96-30.26-16.43-21.96-9.29-45.3-14.01-69.36-14.01Zm0-1.22c24.23,0,47.72,4.75,69.83,14.1,10.63,4.5,20.88,10.06,30.47,16.54,9.5,6.42,18.43,13.78,26.55,21.9,8.12,8.12,15.49,17.05,21.9,26.54,6.48,9.59,12.04,19.84,16.54,30.47,9.36,22.11,14.11,45.62,14.11,69.85s-4.75,47.72-14.1,69.83c-4.5,10.63-10.06,20.88-16.54,30.47-6.42,9.5-13.79,18.43-21.9,26.55-8.12,8.12-17.05,15.49-26.55,21.9-9.59,6.48-19.84,12.04-30.47,16.54-22.11,9.36-45.62,14.11-69.85,14.11s-47.72-4.75-69.83-14.1c-10.63-4.5-20.88-10.06-30.47-16.54-9.5-6.42-18.43-13.79-26.55-21.9s-15.49-17.05-21.9-26.54c-6.48-9.59-12.04-19.84-16.54-30.47-9.36-22.11-14.11-45.62-14.11-69.85s4.75-47.72,14.1-69.83c4.5-10.63,10.06-20.88,16.54-30.47,6.42-9.5,13.79-18.43,21.9-26.55,8.12-8.12,17.05-15.49,26.54-21.9,9.59-6.48,19.84-12.05,30.47-16.54,22.11-9.36,45.62-14.11,69.85-14.11Z" style="fill: url(#Degradado_sin_nombre_20);"/>
          <path d="M218.07,26.63c-25.85,0-50.92,5.06-74.52,15.05-11.34,4.8-22.28,10.74-32.52,17.65-10.14,6.85-19.67,14.71-28.33,23.37-8.66,8.66-16.53,18.19-23.38,28.33-6.91,10.23-12.85,21.17-17.65,32.52-9.98,23.6-15.05,48.67-15.05,74.52s5.06,50.92,15.05,74.52c4.8,11.34,10.74,22.28,17.65,32.52,6.85,10.14,14.71,19.67,23.38,28.33,8.66,8.66,18.19,16.53,28.33,23.37,10.23,6.91,21.17,12.85,32.52,17.65,23.6,9.98,48.67,15.05,74.52,15.05s50.92-5.06,74.52-15.05c11.34-4.8,22.28-10.74,32.52-17.65,10.14-6.85,19.67-14.71,28.33-23.37,8.66-8.66,16.53-18.19,23.37-28.33,6.91-10.23,12.85-21.17,17.65-32.52,9.98-23.6,15.05-48.67,15.05-74.52s-5.06-50.92-15.05-74.52c-4.8-11.34-10.74-22.28-17.65-32.52-6.85-10.14-14.71-19.67-23.37-28.33-8.66-8.66-18.19-16.53-28.33-23.37-10.23-6.91-21.17-12.85-32.52-17.65-23.6-9.98-48.67-15.05-74.52-15.05Zm0-.86c25.96,0,51.15,5.09,74.85,15.11,11.39,4.82,22.38,10.79,32.66,17.73,10.18,6.88,19.75,14.78,28.46,23.48,8.7,8.7,16.6,18.27,23.48,28.45,6.95,10.28,12.91,21.27,17.73,32.66,10.03,23.71,15.12,48.89,15.12,74.86s-5.09,51.15-15.11,74.85c-4.82,11.39-10.78,22.38-17.73,32.66-6.88,10.18-14.78,19.76-23.48,28.46-8.7,8.7-18.27,16.6-28.45,23.48-10.28,6.94-21.27,12.91-32.66,17.73-23.7,10.03-48.89,15.12-74.86,15.12s-51.15-5.09-74.85-15.11c-11.39-4.82-22.38-10.78-32.66-17.73-10.18-6.88-19.76-14.78-28.46-23.48-8.7-8.7-16.6-18.27-23.48-28.45-6.94-10.28-12.91-21.27-17.73-32.66-10.03-23.7-15.12-48.89-15.12-74.86s5.09-51.15,15.11-74.85c4.82-11.39,10.78-22.38,17.73-32.66,6.88-10.18,14.78-19.75,23.48-28.46,8.7-8.7,18.27-16.6,28.45-23.48,10.28-6.94,21.27-12.91,32.66-17.73,23.71-10.03,48.89-15.12,74.86-15.12Z" style="fill: url(#Degradado_sin_nombre_20);"/>
          <path d="M218.07,13.38c-27.63,0-54.44,5.41-79.68,16.09-12.13,5.13-23.83,11.48-34.77,18.87-10.84,7.32-21.03,15.73-30.29,24.99-9.26,9.26-17.67,19.46-25,30.29-7.39,10.94-13.74,22.64-18.87,34.77-10.67,25.23-16.09,52.04-16.09,79.68s5.41,54.44,16.09,79.68c5.13,12.13,11.48,23.83,18.87,34.77,7.32,10.84,15.73,21.03,25,30.29,9.26,9.26,19.45,17.67,30.29,24.99,10.94,7.39,22.64,13.74,34.77,18.87,25.23,10.67,52.04,16.09,79.68,16.09s54.44-5.41,79.68-16.09c12.13-5.13,23.83-11.48,34.77-18.87,10.84-7.32,21.03-15.73,30.29-24.99,9.26-9.26,17.67-19.45,24.99-30.29,7.39-10.94,13.74-22.64,18.87-34.77,10.67-25.23,16.09-52.04,16.09-79.68s-5.41-54.44-16.09-79.68c-5.13-12.13-11.48-23.83-18.87-34.77-7.32-10.84-15.73-21.03-24.99-30.29-9.26-9.26-19.45-17.67-30.29-24.99-10.94-7.39-22.64-13.74-34.77-18.87-25.23-10.67-52.04-16.09-79.68-16.09Zm0-.49c27.7,0,54.57,5.43,79.86,16.12,12.16,5.14,23.88,11.51,34.85,18.92,10.87,7.34,21.08,15.77,30.36,25.05,9.29,9.28,17.71,19.5,25.05,30.36,7.41,10.97,13.78,22.69,18.92,34.85,10.7,25.29,16.13,52.17,16.13,79.87s-5.43,54.57-16.12,79.87c-5.14,12.16-11.51,23.88-18.92,34.85-7.34,10.86-15.77,21.08-25.05,30.36-9.28,9.29-19.5,17.71-30.36,25.05-10.97,7.41-22.69,13.78-34.85,18.92-25.29,10.7-52.17,16.13-79.87,16.13s-54.57-5.43-79.87-16.12c-12.16-5.14-23.88-11.51-34.85-18.92-10.86-7.34-21.08-15.77-30.36-25.05-9.28-9.29-17.71-19.5-25.05-30.37-7.41-10.97-13.77-22.69-18.92-34.85-10.7-25.29-16.13-52.17-16.13-79.87s5.43-54.57,16.12-79.87c5.14-12.16,11.51-23.88,18.92-34.85,7.34-10.86,15.77-21.08,25.05-30.37,9.28-9.28,19.5-17.71,30.36-25.05,10.97-7.41,22.69-13.78,34.85-18.92,25.29-10.7,52.17-16.13,79.87-16.13Z" style="fill: url(#Degradado_sin_nombre_20);"/>
          <path d="M218.07,.12c-29.42,0-57.97,5.76-84.84,17.13-12.91,5.46-25.37,12.22-37.02,20.09-11.54,7.8-22.39,16.75-32.26,26.61-9.86,9.86-18.82,20.72-26.61,32.26-7.87,11.65-14.63,24.11-20.09,37.02C5.88,160.1,.12,188.65,.12,218.07s5.76,57.97,17.13,84.84c5.46,12.91,12.22,25.37,20.09,37.02,7.8,11.54,16.75,22.39,26.61,32.26,9.86,9.86,20.71,18.82,32.26,26.61,11.65,7.87,24.11,14.63,37.02,20.1,26.87,11.37,55.41,17.13,84.84,17.13s57.97-5.76,84.83-17.13c12.91-5.46,25.37-12.22,37.02-20.1,11.54-7.79,22.39-16.75,32.26-26.61,9.86-9.86,18.82-20.72,26.61-32.26,7.87-11.65,14.63-24.11,20.1-37.02,11.36-26.87,17.13-55.41,17.13-84.84s-5.76-57.97-17.13-84.83c-5.46-12.91-12.22-25.37-20.1-37.02-7.8-11.54-16.75-22.39-26.61-32.26-9.86-9.86-20.72-18.82-32.26-26.61-11.65-7.87-24.11-14.63-37.02-20.09C276.03,5.88,247.49,.12,218.07,.12Zm0,436.02c-29.44,0-58-5.77-84.88-17.14-12.92-5.46-25.38-12.23-37.04-20.11-11.55-7.8-22.41-16.76-32.27-26.63-9.87-9.87-18.83-20.73-26.63-32.27-7.88-11.66-14.64-24.12-20.11-37.04C5.77,276.07,0,247.51,0,218.07s5.77-58,17.14-84.88c5.47-12.92,12.23-25.38,20.11-37.04,7.8-11.55,16.76-22.41,26.63-32.27,9.87-9.87,20.73-18.83,32.27-26.63,11.66-7.88,24.12-14.64,37.04-20.11C160.07,5.77,188.63,0,218.07,0s58,5.77,84.88,17.14c12.92,5.46,25.38,12.23,37.04,20.11,11.55,7.8,22.41,16.76,32.27,26.63,9.87,9.87,18.83,20.73,26.63,32.27,7.88,11.66,14.64,24.12,20.11,37.04,11.37,26.88,17.14,55.44,17.14,84.88s-5.77,58-17.14,84.88c-5.47,12.92-12.23,25.38-20.11,37.04-7.8,11.55-16.76,22.41-26.63,32.27-9.87,9.87-20.73,18.83-32.27,26.63-11.66,7.88-24.12,14.64-37.04,20.11-26.88,11.37-55.44,17.14-84.88,17.14Z" style="fill: url(#Degradado_sin_nombre_20);"/>
        </g>
      </g>
    </g>
  </g>
</svg>