<?xml version="1.0" encoding="UTF-8"?>
<svg xmlns="http://www.w3.org/2000/svg" xmlns:xlink="http://www.w3.org/1999/xlink" viewBox="0 0 246.83 248.35">
  <defs>
    <style>
      .cls-1 {
        fill: #fff;
      }

      .cls-2 {
        fill: url(#Degradado_sin_nombre_20);
      }
    </style>
    <linearGradient id="Degradado_sin_nombre_20" data-name="Degradado sin nombre 20" x1="13447.58" y1="-2802.61" x2="13695.94" y2="-2802.61" gradientTransform="translate(13037.97 5147.95) rotate(-147.08)" gradientUnits="userSpaceOnUse">
      <stop offset=".4" stop-color="#ffb103"/>
      <stop offset=".88" stop-color="#254791"/>
    </linearGradient>
  </defs>
  <g id="Capa_1" data-name="Capa 1"/>
  <g id="Capa_2" data-name="Capa 2">
    <g id="Capa_1-2" data-name="Capa 1">
      <g>
        <g>
          <path d="M47.72,35.11c-5.75,1.88-11.54,3.79-17.28,5.87-4.24,4.71-8.18,9.8-11.75,15.28,10.23-4.77,21.24-8.38,32.05-11.92,3.83-1.25,7.65-2.5,11.42-3.8,19.41-6.66,46.13-17.98,59.84-40.54-4.09,.02-8.17,.25-12.22,.68-7.52,9.48-21.57,20.67-50.77,30.68-3.73,1.28-7.51,2.51-11.29,3.75Z" style="fill: #fff;"/>
          <path d="M145.85,9.38c-5.38,10.82-17.15,26.79-57.15,40.5-3.73,1.28-7.51,2.52-11.29,3.75-20.42,6.68-41.54,13.59-57.99,28.16C-4.59,103.09-.97,128.62,2.54,153.32c.24,1.67,.48,3.36,.71,5.04,2.48,8.69,5.91,17.12,10.25,25.13,.33-10.6-1.16-21.11-2.61-31.35-3.49-24.55-6.5-45.75,14.12-64.02,15.14-13.41,35.41-20.05,55.02-26.46,3.82-1.25,7.63-2.5,11.4-3.79,20.56-7.05,49.36-19.36,61.97-44.73,1.36-2.74,2.47-5.54,3.4-8.37-2.71-.78-5.45-1.46-8.19-2.04-.78,2.26-1.68,4.48-2.76,6.66Z" style="fill: #fff;"/>
          <path d="M130.82,.28c-5.35,10.77-17.08,26.67-56.97,40.34-3.73,1.28-7.51,2.52-11.29,3.75-17.11,5.6-34.71,11.38-49.66,21.67-3.34,6.29-6.1,12.76-8.27,19.35,1.7-2.04,3.63-4.04,5.85-6.01,15.09-13.37,35.32-19.99,54.9-26.4,3.83-1.25,7.64-2.5,11.41-3.79,20.62-7.07,49.49-19.41,62.15-44.89,.5-1.01,.97-2.04,1.41-3.06-3.17-.46-6.34-.78-9.52-.99v.02Z" style="fill: #fff;"/>
          <path d="M175.9,27.6c-5.43,10.92-17.3,27.03-57.52,40.82-3.74,1.28-7.52,2.52-11.31,3.76-20.36,6.66-41.41,13.55-57.75,28.03-23.76,21.05-20.16,46.42-16.67,70.95,1.82,12.82,3.7,26.07,1.77,38.84-.07,.47-.16,.92-.24,1.38,1.97,1.99,4.01,3.93,6.14,5.81,.45-1.96,.85-3.99,1.17-6.11,2.09-13.8,.14-27.59-1.76-40.92-3.51-24.73-6.54-46.09,14.33-64.59,15.23-13.5,35.57-20.15,55.23-26.59,3.82-1.25,7.63-2.5,11.41-3.79,20.46-7.01,49.1-19.25,61.6-44.41,2.06-4.15,3.58-8.43,4.69-12.8-2.13-1.29-4.28-2.51-6.45-3.65-1.03,4.56-2.52,8.99-4.64,13.27Z" style="fill: #fff;"/>
          <path d="M160.88,18.49c-5.4,10.87-17.22,26.91-57.33,40.66-3.74,1.28-7.52,2.52-11.3,3.76-20.39,6.67-41.47,13.57-57.87,28.1-23.89,21.16-20.27,46.62-16.78,71.23,1.5,10.54,3.03,21.38,2.45,31.98,2.12,3.12,4.4,6.14,6.83,9.08,.06-.38,.14-.75,.2-1.14,2.1-13.85,.14-27.66-1.75-41.01-3.5-24.64-6.52-45.92,14.23-64.3,15.18-13.45,35.49-20.1,55.12-26.52,3.82-1.25,7.64-2.5,11.41-3.79,20.51-7.03,49.23-19.3,61.78-44.57,1.88-3.78,3.3-7.67,4.39-11.63-2.4-1.05-4.83-2.03-7.27-2.92-.99,3.79-2.31,7.49-4.09,11.08Z" style="fill: #fff;"/>
          <path d="M190.93,36.71c-5.45,10.97-17.37,27.16-57.7,40.98-3.74,1.28-7.52,2.52-11.31,3.76-20.33,6.65-41.35,13.53-57.65,27.97-23.63,20.94-20.04,46.21-16.57,70.66,1.82,12.84,3.71,26.12,1.77,38.93-.25,1.68-.57,3.28-.91,4.85,1.86,1.38,3.77,2.72,5.74,4.01,.64-2.5,1.19-5.11,1.61-7.88,2.09-13.76,.13-27.52-1.76-40.83-3.38-23.79-6.57-46.26,14.44-64.87,15.29-13.54,35.66-20.21,55.35-26.65,3.82-1.25,7.63-2.5,11.39-3.79,20.4-7,48.96-19.19,61.42-44.25,1.88-3.79,3.29-7.68,4.38-11.65-1.82-1.48-3.68-2.92-5.6-4.31-1.04,4.48-2.51,8.84-4.61,13.06Z" style="fill: #fff;"/>
          <path d="M205.95,45.81c-5.48,11.02-17.44,27.28-57.88,41.14-3.74,1.28-7.52,2.52-11.32,3.76-20.3,6.64-41.29,13.51-57.53,27.91-23.5,20.82-19.92,46.02-16.46,70.38,1.83,12.86,3.72,26.17,1.76,39.03-.28,1.86-.63,3.64-1.03,5.37,1.78,.97,3.58,1.89,5.39,2.76,.57-2.31,1.06-4.71,1.44-7.25,2.08-13.71,.13-27.45-1.76-40.73-3.39-23.88-6.59-46.43,14.54-65.15,15.33-13.59,35.73-20.26,55.46-26.72,3.82-1.25,7.63-2.5,11.39-3.79,20.35-6.98,48.84-19.14,61.24-44.09,1.29-2.58,2.34-5.22,3.23-7.9-1.5-1.64-3.04-3.25-4.64-4.82-.97,3.45-2.22,6.82-3.86,10.11Z" style="fill: #fff;"/>
          <path d="M47.53,31.87c15.99-5.48,36.92-14.14,51.51-29.6-23.71,4.59-46.05,16.05-63.82,33.69,.29-.1,.59-.19,.88-.29,3.83-1.25,7.65-2.5,11.43-3.8Z" style="fill: #fff;"/>
          <path d="M225.79,146.33c-20.11,6.58-40.91,13.39-56.85,27.52-22.73,20.14-19.38,43.72-15.84,68.67,.09,.66,.19,1.32,.28,1.98,.67-.17,1.33-.35,1.99-.53-.08-.58-.16-1.16-.25-1.74-3.47-24.4-6.74-47.45,15.17-66.86,15.63-13.85,36.22-20.59,56.13-27.1,3.81-1.25,7.61-2.49,11.37-3.78,2.5-.86,5.12-1.79,7.81-2.82,.11-.78,.22-1.56,.31-2.34-2.78,1.09-5.69,2.17-8.79,3.23-3.75,1.29-7.54,2.53-11.34,3.77Z" style="fill: #fff;"/>
          <path d="M181.27,118.53c-20.2,6.61-41.1,13.45-57.19,27.71-23.12,20.48-19.57,45.41-16.15,69.53,1.5,10.53,3.03,21.35,2.49,32.03,1.32,.13,2.63,.23,3.95,.32,.58-11.07-.99-22.14-2.52-32.91-3.43-24.14-6.67-46.94,14.86-66.01,15.48-13.72,35.98-20.42,55.8-26.91,3.81-1.25,7.62-2.49,11.38-3.78,15.02-5.15,34.51-13.15,48.54-27.04-.39-1.43-.8-2.86-1.25-4.28-8.44,8.87-22.75,18.72-48.58,27.58-3.75,1.29-7.53,2.52-11.33,3.77Z" style="fill: #fff;"/>
          <path d="M196.11,127.8c-20.17,6.6-41.03,13.43-57.08,27.65-22.99,20.37-19.62,44.11-16.05,69.24,1.11,7.79,2.23,15.73,2.52,23.66,1.11-.03,2.21-.07,3.32-.13-.3-8.08-1.44-16.12-2.56-24-3.44-24.23-6.69-47.11,14.96-66.29,15.53-13.76,36.06-20.48,55.91-26.98,3.81-1.25,7.62-2.49,11.38-3.78,11.35-3.89,25.25-9.4,37.4-17.87-.15-1.24-.32-2.48-.51-3.72-8.68,6.21-20.78,12.55-37.97,18.44-3.75,1.28-7.54,2.52-11.33,3.77Z" style="fill: #fff;"/>
          <path d="M177.76,105.49c-3.74,1.28-7.53,2.52-11.32,3.76-20.24,6.62-41.16,13.47-57.31,27.78-23.24,20.6-19.69,45.62-16.25,69.81,1.79,12.64,3.64,25.7,1.87,38.39,1.5,.35,3,.66,4.51,.95,1.93-13.43,.02-26.93-1.83-39.98-3.41-24.05-6.64-46.77,14.75-65.72,15.43-13.67,35.9-20.37,55.69-26.85,3.81-1.25,7.62-2.49,11.38-3.78,18.19-6.24,42.89-16.63,56.65-36.62-.73-1.62-1.5-3.23-2.29-4.82-6.56,10.78-20.23,24.88-55.84,37.09Z" style="fill: #fff;"/>
          <path d="M220.98,54.92c-5.5,11.07-17.51,27.4-58.06,41.3-3.74,1.28-7.53,2.52-11.32,3.76-20.27,6.63-41.22,13.49-57.42,27.84-23.37,20.71-19.81,45.82-16.36,70.09,1.83,12.89,3.72,26.21,1.76,39.12-.18,1.17-.38,2.31-.6,3.43,1.65,.62,3.31,1.21,4.98,1.76,.29-1.43,.57-2.89,.8-4.4,2.07-13.67,.13-27.38-1.76-40.64-3.4-23.96-6.62-46.6,14.65-65.44,15.38-13.63,35.82-20.32,55.57-26.78,3.82-1.25,7.62-2.49,11.39-3.79,20.3-6.96,48.71-19.08,61.05-43.93,.24-.48,.44-.96,.66-1.44-1.13-1.71-2.3-3.4-3.51-5.05-.56,1.4-1.16,2.79-1.84,4.16Z" style="fill: #fff;"/>
          <path d="M210.96,137.06c-20.15,6.59-40.98,13.41-56.97,27.58-22.86,20.25-19.5,43.91-15.94,68.96,.64,4.48,1.28,9.02,1.77,13.58,.89-.12,1.77-.26,2.66-.4-.49-4.55-1.13-9.08-1.77-13.55-3.45-24.31-6.71-47.28,15.06-66.57,15.58-13.81,36.14-20.54,56.03-27.04,3.81-1.25,7.61-2.49,11.37-3.78,7.22-2.48,15.48-5.62,23.66-9.75,.01-1.03,.02-2.06,0-3.09-6.77,3.51-14.84,6.98-24.54,10.3-3.75,1.28-7.53,2.52-11.33,3.77Z" style="fill: #fff;"/>
          <path d="M166.66,240.31c.45-.17,.9-.34,1.36-.52-2.35-20.22-1.76-39.23,16.8-55.69,15.68-13.89,36.3-20.64,56.25-27.17,.51-.17,1.02-.33,1.53-.5,.14-.54,.29-1.08,.43-1.62-.8,.26-1.6,.53-2.4,.79-20.08,6.57-40.84,13.37-56.74,27.45-19.2,17.01-19.68,36.52-17.23,57.26Z" style="fill: #fff;"/>
          <path d="M180.68,233.99c.26-.14,.52-.27,.77-.41,.08-14.63,3.95-28.4,17.89-40.75,10.91-9.67,24.2-15.88,37.98-20.96,.13-.32,.26-.64,.39-.96-14.09,5.15-27.7,11.44-38.88,21.35-14.3,12.67-18.15,26.77-18.15,41.73Z" style="fill: #fff;"/>
          <path d="M201.44,216.97c-.84,1.62-1.57,3.29-2.22,5.01,.07-.05,.13-.1,.2-.15,.63-1.64,1.33-3.24,2.14-4.8,2.92-5.66,6.95-10.72,12.31-15.47,3.9-3.46,8.11-6.47,12.53-9.16,.06-.09,.11-.17,.17-.26-4.51,2.72-8.8,5.79-12.78,9.31-5.38,4.76-9.41,9.84-12.34,15.51Z" style="fill: #fff;"/>
        </g>
        <g>
          <path d="M47.72,35.11c-5.75,1.88-11.54,3.79-17.28,5.87-4.24,4.71-8.18,9.8-11.75,15.28,10.23-4.77,21.24-8.38,32.05-11.92,3.83-1.25,7.65-2.5,11.42-3.8,19.41-6.66,46.13-17.98,59.84-40.54-4.09,.02-8.17,.25-12.22,.68-7.52,9.48-21.57,20.67-50.77,30.68-3.73,1.28-7.51,2.51-11.29,3.75Z" style="fill: url(#Degradado_sin_nombre_20);"/>
          <path d="M145.85,9.38c-5.38,10.82-17.15,26.79-57.15,40.5-3.73,1.28-7.51,2.52-11.29,3.75-20.42,6.68-41.54,13.59-57.99,28.16C-4.59,103.09-.97,128.62,2.54,153.32c.24,1.67,.48,3.36,.71,5.04,2.48,8.69,5.91,17.12,10.25,25.13,.33-10.6-1.16-21.11-2.61-31.35-3.49-24.55-6.5-45.75,14.12-64.02,15.14-13.41,35.41-20.05,55.02-26.46,3.82-1.25,7.63-2.5,11.4-3.79,20.56-7.05,49.36-19.36,61.97-44.73,1.36-2.74,2.47-5.54,3.4-8.37-2.71-.78-5.45-1.46-8.19-2.04-.78,2.26-1.68,4.48-2.76,6.66Z" style="fill: url(#Degradado_sin_nombre_20);"/>
          <path d="M130.82,.28c-5.35,10.77-17.08,26.67-56.97,40.34-3.73,1.28-7.51,2.52-11.29,3.75-17.11,5.6-34.71,11.38-49.66,21.67-3.34,6.29-6.1,12.76-8.27,19.35,1.7-2.04,3.63-4.04,5.85-6.01,15.09-13.37,35.32-19.99,54.9-26.4,3.83-1.25,7.64-2.5,11.41-3.79,20.62-7.07,49.49-19.41,62.15-44.89,.5-1.01,.97-2.04,1.41-3.06-3.17-.46-6.34-.78-9.52-.99v.02Z" style="fill: url(#Degradado_sin_nombre_20);"/>
          <path d="M175.9,27.6c-5.43,10.92-17.3,27.03-57.52,40.82-3.74,1.28-7.52,2.52-11.31,3.76-20.36,6.66-41.41,13.55-57.75,28.03-23.76,21.05-20.16,46.42-16.67,70.95,1.82,12.82,3.7,26.07,1.77,38.84-.07,.47-.16,.92-.24,1.38,1.97,1.99,4.01,3.93,6.14,5.81,.45-1.96,.85-3.99,1.17-6.11,2.09-13.8,.14-27.59-1.76-40.92-3.51-24.73-6.54-46.09,14.33-64.59,15.23-13.5,35.57-20.15,55.23-26.59,3.82-1.25,7.63-2.5,11.41-3.79,20.46-7.01,49.1-19.25,61.6-44.41,2.06-4.15,3.58-8.43,4.69-12.8-2.13-1.29-4.28-2.51-6.45-3.65-1.03,4.56-2.52,8.99-4.64,13.27Z" style="fill: url(#Degradado_sin_nombre_20);"/>
          <path d="M160.88,18.49c-5.4,10.87-17.22,26.91-57.33,40.66-3.74,1.28-7.52,2.52-11.3,3.76-20.39,6.67-41.47,13.57-57.87,28.1-23.89,21.16-20.27,46.62-16.78,71.23,1.5,10.54,3.03,21.38,2.45,31.98,2.12,3.12,4.4,6.14,6.83,9.08,.06-.38,.14-.75,.2-1.14,2.1-13.85,.14-27.66-1.75-41.01-3.5-24.64-6.52-45.92,14.23-64.3,15.18-13.45,35.49-20.1,55.12-26.52,3.82-1.25,7.64-2.5,11.41-3.79,20.51-7.03,49.23-19.3,61.78-44.57,1.88-3.78,3.3-7.67,4.39-11.63-2.4-1.05-4.83-2.03-7.27-2.92-.99,3.79-2.31,7.49-4.09,11.08Z" style="fill: url(#Degradado_sin_nombre_20);"/>
          <path d="M190.93,36.71c-5.45,10.97-17.37,27.16-57.7,40.98-3.74,1.28-7.52,2.52-11.31,3.76-20.33,6.65-41.35,13.53-57.65,27.97-23.63,20.94-20.04,46.21-16.57,70.66,1.82,12.84,3.71,26.12,1.77,38.93-.25,1.68-.57,3.28-.91,4.85,1.86,1.38,3.77,2.72,5.74,4.01,.64-2.5,1.19-5.11,1.61-7.88,2.09-13.76,.13-27.52-1.76-40.83-3.38-23.79-6.57-46.26,14.44-64.87,15.29-13.54,35.66-20.21,55.35-26.65,3.82-1.25,7.63-2.5,11.39-3.79,20.4-7,48.96-19.19,61.42-44.25,1.88-3.79,3.29-7.68,4.38-11.65-1.82-1.48-3.68-2.92-5.6-4.31-1.04,4.48-2.51,8.84-4.61,13.06Z" style="fill: url(#Degradado_sin_nombre_20);"/>
          <path d="M205.95,45.81c-5.48,11.02-17.44,27.28-57.88,41.14-3.74,1.28-7.52,2.52-11.32,3.76-20.3,6.64-41.29,13.51-57.53,27.91-23.5,20.82-19.92,46.02-16.46,70.38,1.83,12.86,3.72,26.17,1.76,39.03-.28,1.86-.63,3.64-1.03,5.37,1.78,.97,3.58,1.89,5.39,2.76,.57-2.31,1.06-4.71,1.44-7.25,2.08-13.71,.13-27.45-1.76-40.73-3.39-23.88-6.59-46.43,14.54-65.15,15.33-13.59,35.73-20.26,55.46-26.72,3.82-1.25,7.63-2.5,11.39-3.79,20.35-6.98,48.84-19.14,61.24-44.09,1.29-2.58,2.34-5.22,3.23-7.9-1.5-1.64-3.04-3.25-4.64-4.82-.97,3.45-2.22,6.82-3.86,10.11Z" style="fill: url(#Degradado_sin_nombre_20);"/>
          <path d="M47.53,31.87c15.99-5.48,36.92-14.14,51.51-29.6-23.71,4.59-46.05,16.05-63.82,33.69,.29-.1,.59-.19,.88-.29,3.83-1.25,7.65-2.5,11.43-3.8Z" style="fill: url(#Degradado_sin_nombre_20);"/>
          <path d="M225.79,146.33c-20.11,6.58-40.91,13.39-56.85,27.52-22.73,20.14-19.38,43.72-15.84,68.67,.09,.66,.19,1.32,.28,1.98,.67-.17,1.33-.35,1.99-.53-.08-.58-.16-1.16-.25-1.74-3.47-24.4-6.74-47.45,15.17-66.86,15.63-13.85,36.22-20.59,56.13-27.1,3.81-1.25,7.61-2.49,11.37-3.78,2.5-.86,5.12-1.79,7.81-2.82,.11-.78,.22-1.56,.31-2.34-2.78,1.09-5.69,2.17-8.79,3.23-3.75,1.29-7.54,2.53-11.34,3.77Z" style="fill: url(#Degradado_sin_nombre_20);"/>
          <path d="M181.27,118.53c-20.2,6.61-41.1,13.45-57.19,27.71-23.12,20.48-19.57,45.41-16.15,69.53,1.5,10.53,3.03,21.35,2.49,32.03,1.32,.13,2.63,.23,3.95,.32,.58-11.07-.99-22.14-2.52-32.91-3.43-24.14-6.67-46.94,14.86-66.01,15.48-13.72,35.98-20.42,55.8-26.91,3.81-1.25,7.62-2.49,11.38-3.78,15.02-5.15,34.51-13.15,48.54-27.04-.39-1.43-.8-2.86-1.25-4.28-8.44,8.87-22.75,18.72-48.58,27.58-3.75,1.29-7.53,2.52-11.33,3.77Z" style="fill: url(#Degradado_sin_nombre_20);"/>
          <path d="M196.11,127.8c-20.17,6.6-41.03,13.43-57.08,27.65-22.99,20.37-19.62,44.11-16.05,69.24,1.11,7.79,2.23,15.73,2.52,23.66,1.11-.03,2.21-.07,3.32-.13-.3-8.08-1.44-16.12-2.56-24-3.44-24.23-6.69-47.11,14.96-66.29,15.53-13.76,36.06-20.48,55.91-26.98,3.81-1.25,7.62-2.49,11.38-3.78,11.35-3.89,25.25-9.4,37.4-17.87-.15-1.24-.32-2.48-.51-3.72-8.68,6.21-20.78,12.55-37.97,18.44-3.75,1.28-7.54,2.52-11.33,3.77Z" style="fill: url(#Degradado_sin_nombre_20);"/>
          <path d="M177.76,105.49c-3.74,1.28-7.53,2.52-11.32,3.76-20.24,6.62-41.16,13.47-57.31,27.78-23.24,20.6-19.69,45.62-16.25,69.81,1.79,12.64,3.64,25.7,1.87,38.39,1.5,.35,3,.66,4.51,.95,1.93-13.43,.02-26.93-1.83-39.98-3.41-24.05-6.64-46.77,14.75-65.72,15.43-13.67,35.9-20.37,55.69-26.85,3.81-1.25,7.62-2.49,11.38-3.78,18.19-6.24,42.89-16.63,56.65-36.62-.73-1.62-1.5-3.23-2.29-4.82-6.56,10.78-20.23,24.88-55.84,37.09Z" style="fill: url(#Degradado_sin_nombre_20);"/>
          <path d="M220.98,54.92c-5.5,11.07-17.51,27.4-58.06,41.3-3.74,1.28-7.53,2.52-11.32,3.76-20.27,6.63-41.22,13.49-57.42,27.84-23.37,20.71-19.81,45.82-16.36,70.09,1.83,12.89,3.72,26.21,1.76,39.12-.18,1.17-.38,2.31-.6,3.43,1.65,.62,3.31,1.21,4.98,1.76,.29-1.43,.57-2.89,.8-4.4,2.07-13.67,.13-27.38-1.76-40.64-3.4-23.96-6.62-46.6,14.65-65.44,15.38-13.63,35.82-20.32,55.57-26.78,3.82-1.25,7.62-2.49,11.39-3.79,20.3-6.96,48.71-19.08,61.05-43.93,.24-.48,.44-.96,.66-1.44-1.13-1.71-2.3-3.4-3.51-5.05-.56,1.4-1.16,2.79-1.84,4.16Z" style="fill: url(#Degradado_sin_nombre_20);"/>
          <path d="M210.96,137.06c-20.15,6.59-40.98,13.41-56.97,27.58-22.86,20.25-19.5,43.91-15.94,68.96,.64,4.48,1.28,9.02,1.77,13.58,.89-.12,1.77-.26,2.66-.4-.49-4.55-1.13-9.08-1.77-13.55-3.45-24.31-6.71-47.28,15.06-66.57,15.58-13.81,36.14-20.54,56.03-27.04,3.81-1.25,7.61-2.49,11.37-3.78,7.22-2.48,15.48-5.62,23.66-9.75,.01-1.03,.02-2.06,0-3.09-6.77,3.51-14.84,6.98-24.54,10.3-3.75,1.28-7.53,2.52-11.33,3.77Z" style="fill: url(#Degradado_sin_nombre_20);"/>
          <path d="M166.66,240.31c.45-.17,.9-.34,1.36-.52-2.35-20.22-1.76-39.23,16.8-55.69,15.68-13.89,36.3-20.64,56.25-27.17,.51-.17,1.02-.33,1.53-.5,.14-.54,.29-1.08,.43-1.62-.8,.26-1.6,.53-2.4,.79-20.08,6.57-40.84,13.37-56.74,27.45-19.2,17.01-19.68,36.52-17.23,57.26Z" style="fill: url(#Degradado_sin_nombre_20);"/>
          <path d="M180.68,233.99c.26-.14,.52-.27,.77-.41,.08-14.63,3.95-28.4,17.89-40.75,10.91-9.67,24.2-15.88,37.98-20.96,.13-.32,.26-.64,.39-.96-14.09,5.15-27.7,11.44-38.88,21.35-14.3,12.67-18.15,26.77-18.15,41.73Z" style="fill: url(#Degradado_sin_nombre_20);"/>
          <path d="M201.44,216.97c-.84,1.62-1.57,3.29-2.22,5.01,.07-.05,.13-.1,.2-.15,.63-1.64,1.33-3.24,2.14-4.8,2.92-5.66,6.95-10.72,12.31-15.47,3.9-3.46,8.11-6.47,12.53-9.16,.06-.09,.11-.17,.17-.26-4.51,2.72-8.8,5.79-12.78,9.31-5.38,4.76-9.41,9.84-12.34,15.51Z" style="fill: url(#Degradado_sin_nombre_20);"/>
        </g>
      </g>
    </g>
  </g>
</svg>