<?xml version="1.0" encoding="UTF-8"?>
<svg xmlns="http://www.w3.org/2000/svg" viewBox="0 0 189.44 43.56">
  <g id="Capa_1" data-name="Capa 1"/>
  <g id="Capa_2" data-name="Capa 2">
    <g id="Capa_1-2" data-name="Capa 1">
      <g>
        <path d="M18.83,39.91l-.54-1.82,1.44-1.1h-1.77l-.58-1.78-.58,1.78h-1.81l1.48,1.1-.58,1.82,1.48-1.14,1.44,1.14Zm5.8-6.27c-.91,.42-1.81,.68-2.76,.68-.82,0-1.56-.17-2.31-.47-.21-.13-.41-.21-.62-.34l4.24,5.63,.29-.3c1.19-1.27,2.18-2.71,2.84-4.37,.18-.44,.29-.75,.41-1.1-.25-.08-.49-.13-.74-.13-.41,0-.91,.13-1.36,.38m2.68-3.39c.04-.38,.04-.72,.04-1.06v-1.61c-.12-.08-.21-.13-.25-.17-.29-.17-.62-.25-1.11-.25-.58,0-1.03,.09-1.36,.3-.99,.51-1.89,.76-2.76,.76s-1.56-.17-2.26-.51c0,.68-.12,1.02-.33,1.61,.04,.3,.33,.64,.61,1.02h0c.29,.25,.58,.42,.87,.59,.33,.13,.7,.21,1.11,.21,.45,0,.91-.13,1.32-.34,.95-.47,1.89-.72,2.8-.72,.45,0,.91,.04,1.32,.17m-16.53,8.52l1.44,1.14-.54-1.82,1.44-1.1h-1.77l-.58-1.78-.58,1.78h-1.81l1.48,1.1-.58,1.82,1.48-1.14Zm-7.31-5.13c-.54-.25-1.03-.38-1.44-.38-.21,0-.41,0-.62,.09,.08,.38,.25,.76,.41,1.14,.7,1.74,1.65,3.18,2.84,4.37,.08,.08,.17,.17,.29,.25l4.2-5.63c-.21,.13-.41,.25-.66,.38-.74,.3-1.56,.47-2.35,.47-.99,0-1.89-.25-2.68-.68m5.35-4.36c-.25-.55-.37-1.19-.41-1.86-.7,.34-1.44,.8-2.27,.8-.95,0-1.81-.25-2.68-.76-.37-.21-.82-.3-1.44-.3-.45,0-.82,.09-1.07,.25l-.21,.13v1.65c0,.34,0,.68,.04,1.02,.41-.08,.82-.13,1.23-.13,1.03,0,1.94,.21,2.84,.72,.45,.21,.86,.34,1.28,.34s.82-.08,1.11-.21c.37-.17,.66-.38,.91-.64l.33-.42c.17-.21,.25-.34,.29-.47l.04-.13Zm.25-1.52c.08,.47,.21,.97,.41,1.48,.25,.64,.58,1.19,1.03,1.65,.25,.17,.45,.38,.74,.55,.04,.04,.12,.08,.21,.13,.21,.17,.41,.3,.66,.38,.49,.21,1.15,.34,1.89,.38,.78-.04,1.4-.17,1.94-.38,.21-.08,.45-.21,.66-.38,.21-.13,.41-.25,.62-.42,.08-.08,.21-.17,.29-.25,.45-.47,.82-1.02,1.07-1.65,.03-.06,.05-.1,.08-.17,.16-.35,.29-.51,.33-1.27v-7.08H9.02v6.48c0,.17,.04,.38,.04,.55M.74,24.11c.37-.08,.82-.13,1.28-.13,1.07,0,1.98,.21,2.84,.68,.37,.25,.78,.38,1.28,.38,.33,0,.74-.08,1.11-.25,.33-.17,.62-.38,.91-.59l.25-.25v-2.63c-.7,.3-1.44,.51-2.27,.51-.95,0-1.81-.3-2.68-.76-.37-.21-.86-.34-1.44-.34-.45,0-.82,.08-1.07,.25l-.21,.16v2.98m0-13.85v7.41c.37-.09,.82-.13,1.28-.13,1.07,0,1.98,.26,2.84,.72,.41,.21,.82,.34,1.28,.34,.33,0,.66-.04,1.03-.21L.74,10.25Zm19.15,13.94c.21,.21,.49,.42,.82,.59l.08,.04c.24,.1,.37,.14,.54,.17,.15,.02,.37,.04,.54,.04,.49,0,.91-.13,1.32-.38,.86-.47,1.81-.68,2.8-.68,.45,0,.87,.04,1.36,.17v-3.04c-.08-.04-.16-.1-.25-.13-.29-.17-.66-.25-1.11-.25-.58,0-1.03,.13-1.36,.34-.99,.46-1.89,.76-2.76,.76s-1.56-.21-2.26-.55v2.63c.08,.08,.29,.3,.29,.3m1.44-5.63c.17,.04,.37,.04,.54,.04,.49,0,.91-.13,1.32-.34,.86-.46,1.81-.72,2.8-.72,.45,0,.87,.04,1.36,.17v-7.46s-6.1,8.26-6.01,8.3M14.54,2.54h-.9c-.21-.55-.5-.97-.87-1.27-.41-.34-.95-.51-1.48-.51H4.28V9.49h7c.49,0,.99,.08,1.44,.34,.25,.13,.54,.34,.78,.55,.25,.38,.45,.64,.54,.8,.08-.17,.25-.42,.54-.8,.25-.21,.49-.42,.78-.55,.45-.25,.91-.34,1.44-.34h6.92V.76h-6.92c-.58,0-1.07,.17-1.44,.51-.45,.34-.74,.76-.82,1.27m.41-1.87c.5-.42,1.11-.68,1.85-.68h7.29c.12,0,.17,.04,.25,.13,.08,.04,.08,.08,.12,.13V9.53h3.09l.21,.04c.08,0,.12,.04,.17,.09,.12,.13,.17,.29,.17,.42V29.15c0,1.91-.37,3.77-1.07,5.59-.78,1.78-1.77,3.31-3,4.58-1.32,1.32-2.8,2.37-4.49,3.09-1.69,.76-3.5,1.14-5.52,1.14-1.89,0-3.71-.38-5.44-1.14-1.73-.72-3.21-1.78-4.45-3.09-1.28-1.27-2.31-2.8-3.05-4.58-.7-1.91-1.07-3.77-1.07-5.59V10.08c0-.13,.04-.3,.12-.42,.08-.09,.21-.13,.33-.13H3.58V.25s.04-.09,.08-.13c.08-.08,.16-.13,.25-.13h7.37c.7,0,1.36,.25,1.89,.68,.37,.3,.66,.64,.86,1.02,.25-.38,.54-.72,.91-1.02m-6.29,14.21l.37,3.64h.25l.41-3.64v-.51h-1.03v.51Zm-.28-1.65c.03,.12,.06,.22,.06,.22,.07,.34,.38,.59,.74,.59,.44,0,.79-.36,.79-.79,0-.19-.07-.38-.19-.52,0,.1,0,.18-.01,.21-.1,.25-.28,.21-.32,.17l.08-.13c.13-.23-.09-.53-.14-.57-.28-.25-.23-.4-.23-.61-.29,.29-.41,.59-.5,.8-.08,.3,0,.63,.33,.93-.33-.04-.54-.17-.62-.3m3.22,0c.04,.12,.06,.22,.06,.22,.07,.34,.38,.59,.75,.59,.44,0,.79-.36,.79-.79,0-.19-.07-.38-.19-.52,0,.1,0,.18-.01,.21-.1,.25-.28,.21-.32,.17l.08-.13c.13-.23-.09-.53-.14-.57-.28-.25-.23-.4-.23-.61-.29,.29-.41,.59-.49,.8-.08,.3,0,.63,.33,.93-.33-.04-.54-.17-.62-.3m.28,1.65l.37,3.64h.25l.41-3.64v-.51h-1.03v.51Zm3.23,0l.37,3.64h.25l.41-3.64v-.51h-1.03v.51Zm-.28-1.65c.03,.12,.06,.22,.06,.22,.07,.34,.38,.59,.75,.59,.44,0,.79-.36,.79-.79,0-.19-.07-.38-.19-.52,0,.1,0,.18-.01,.21-.1,.25-.28,.21-.32,.17l.08-.13c.13-.23-.09-.53-.14-.57-.28-.25-.23-.4-.23-.61-.29,.29-.41,.59-.49,.8-.08,.3,0,.63,.33,.93-.33-.04-.54-.17-.62-.3m3.23,0c.03,.12,.06,.22,.06,.22,.07,.34,.38,.59,.74,.59,.44,0,.79-.36,.79-.79,0-.19-.07-.38-.19-.52,0,.1,0,.18-.01,.21-.1,.25-.28,.21-.32,.17l.08-.13c.13-.23-.09-.53-.14-.57-.28-.25-.23-.4-.23-.61-.29,.29-.41,.59-.49,.8-.08,.3,0,.63,.33,.93-.33-.04-.54-.17-.62-.3m.28,1.65l.37,3.64h.25l.41-3.64v-.51h-1.03v.51Z" style="fill: #254791;"/>
        <path d="M17.17,3.6c-.45,.34-.66,.76-.66,1.23s.21,.89,.66,1.23c.25,.17,.54,.34,.82,.42v1.74h-1.89v-.59h1.65v-.51c-.37-.13-.74-.3-1.03-.51-.58-.51-.87-1.1-.87-1.78s.29-1.27,.87-1.78c.58-.47,1.24-.72,2.02-.72s1.48,.25,2.02,.72c.62,.51,.91,1.1,.91,1.78,.04,.68-.25,1.27-.91,1.78-.25,.21-.58,.38-.99,.51v.51h1.65v.59h-1.94v-1.78c.25-.04,.54-.17,.91-.38,.45-.34,.58-.76,.58-1.23s-.21-.85-.58-1.23c-.41-.34-.99-.55-1.65-.55-.62,0-1.15,.21-1.56,.55" style="fill: #254791;"/>
        <path d="M10.5,5.59l-1.11-2.29-1.2,2.29h2.31Zm1.36,2.71l-1.03-2.08h-2.97l-1.03,2.08h-.74l3.17-6.23h.17l3.13,6.23h-.7Z" style="fill: #254791;"/>
        <path d="M13.67,25v-1.65h.7v1.65c.12,0,.25,.04,.37,.13l.82-1.44c.21,.08,.41,.21,.58,.38l-.78,1.4s.08,.09,.16,.13c.04,.04,.08,.08,.12,.17l1.36-.85c.12,.21,.25,.42,.33,.64l-1.36,.8c.04,.13,.04,.25,.08,.38h1.61v.68h-1.61c-.04,.13-.04,.25-.08,.38l1.36,.85c-.08,.21-.2,.42-.33,.63l-1.36-.85c-.04,.08-.08,.13-.12,.17-.08,.04-.12,.08-.16,.13l.78,1.4c-.17,.17-.37,.25-.58,.38l-.82-1.4c-.12,.04-.25,.08-.37,.08v1.61l-.37,.04-.33-.04v-1.61c-.12,0-.25-.04-.37-.08l-.82,1.4c-.21-.13-.41-.21-.58-.38l.78-1.36c-.04-.08-.08-.13-.16-.17-.04-.04-.08-.09-.08-.13l-1.4,.76c-.12-.17-.25-.38-.33-.59l1.4-.8c-.08-.13-.08-.26-.12-.42h-1.61v-.68h1.61c.04-.13,.04-.25,.08-.38l-1.36-.8c.08-.21,.21-.42,.33-.64l1.36,.85c.04-.08,.08-.13,.12-.17,.08-.04,.12-.13,.21-.17l-.82-1.36c.16-.17,.37-.3,.58-.38l.82,1.44c.12-.08,.25-.13,.37-.13" style="fill: #254791;"/>
        <path d="M34.93,19.43h1.69v4.54c0,.72,.02,1.18,.06,1.4,.07,.34,.24,.62,.51,.82,.27,.21,.64,.31,1.1,.31s.83-.1,1.07-.29c.24-.2,.39-.44,.44-.72,.05-.29,.07-.76,.07-1.42v-4.63h1.69v4.4c0,1.01-.04,1.72-.13,2.13-.09,.42-.26,.76-.5,1.05-.25,.29-.57,.51-.98,.68-.41,.17-.94,.25-1.6,.25-.8,0-1.4-.09-1.81-.28-.41-.18-.74-.42-.98-.72-.24-.3-.4-.61-.47-.93-.11-.48-.16-1.19-.16-2.12v-4.47Z" style="fill: #254791;"/>
        <polygon points="43.38 27.8 43.38 19.43 45.02 19.43 48.46 25.04 48.46 19.43 50.03 19.43 50.03 27.8 48.34 27.8 44.94 22.3 44.94 27.8 43.38 27.8" style="fill: #254791;"/>
        <rect x="51.77" y="19.43" width="1.7" height="8.37" style="fill: #254791;"/>
        <polygon points="57.21 27.8 54.21 19.43 56.04 19.43 58.17 25.63 60.21 19.43 62.01 19.43 59.03 27.8 57.21 27.8" style="fill: #254791;"/>
        <polygon points="62.85 27.8 62.85 19.43 69.04 19.43 69.04 20.85 64.54 20.85 64.54 22.71 68.73 22.71 68.73 24.12 64.54 24.12 64.54 26.39 69.21 26.39 69.21 27.8 62.85 27.8" style="fill: #254791;"/>
        <path d="M72.33,22.98h1.25c.81,0,1.32-.04,1.52-.1s.36-.19,.47-.35c.11-.17,.17-.38,.17-.63,0-.28-.07-.51-.22-.68-.15-.17-.36-.28-.64-.33-.14-.02-.55-.03-1.23-.03h-1.32v2.13Zm-1.69,4.83v-8.37h3.56c.89,0,1.55,.08,1.95,.23,.41,.15,.73,.42,.97,.8,.24,.38,.36,.83,.36,1.32,0,.63-.18,1.15-.55,1.55-.37,.41-.92,.67-1.65,.77,.36,.21,.66,.45,.9,.7,.24,.26,.56,.71,.96,1.36l1.02,1.63h-2.02l-1.21-1.83c-.43-.65-.73-1.06-.89-1.22-.16-.17-.33-.29-.51-.35-.18-.06-.46-.09-.85-.09h-.34v3.5h-1.69Z" style="fill: #254791;"/>
        <path d="M78.63,25.09l1.65-.16c.1,.55,.3,.96,.6,1.21,.3,.26,.71,.39,1.22,.39,.54,0,.95-.12,1.22-.34,.28-.23,.41-.5,.41-.81,0-.2-.06-.37-.17-.51-.12-.14-.32-.26-.61-.36-.2-.07-.65-.19-1.35-.37-.9-.22-1.54-.5-1.9-.83-.51-.46-.77-1.02-.77-1.69,0-.43,.12-.83,.36-1.2,.24-.37,.59-.65,1.04-.85,.45-.2,1-.29,1.64-.29,1.05,0,1.83,.23,2.36,.7,.53,.46,.81,1.08,.83,1.86l-1.7,.06c-.07-.43-.23-.74-.46-.93-.24-.19-.59-.28-1.06-.28s-.87,.1-1.14,.3c-.18,.13-.27,.3-.27,.52,0,.2,.08,.37,.25,.51,.21,.18,.73,.37,1.55,.56,.82,.19,1.43,.4,1.82,.6,.39,.21,.7,.49,.92,.85,.22,.36,.33,.8,.33,1.33,0,.48-.13,.93-.4,1.35-.27,.42-.64,.73-1.13,.93-.49,.21-1.09,.3-1.82,.3-1.06,0-1.87-.24-2.44-.73-.57-.49-.91-1.2-1.02-2.13" style="fill: #254791;"/>
        <rect x="86.8" y="19.43" width="1.69" height="8.37" style="fill: #254791;"/>
        <path d="M91.8,20.85v5.54h1.26c.47,0,.81-.03,1.02-.08,.27-.07,.5-.18,.68-.35,.18-.17,.33-.43,.44-.81,.11-.38,.17-.89,.17-1.53s-.06-1.14-.17-1.49c-.11-.34-.27-.62-.48-.81-.21-.2-.46-.33-.78-.39-.23-.05-.69-.08-1.38-.08h-.76Zm-1.7-1.41h3.08c.7,0,1.22,.06,1.59,.16,.49,.14,.91,.4,1.26,.77,.35,.37,.62,.82,.8,1.36,.18,.54,.27,1.2,.27,1.98,0,.69-.09,1.28-.26,1.78-.21,.61-.51,1.1-.89,1.48-.29,.28-.69,.51-1.18,.67-.37,.12-.87,.18-1.49,.18h-3.17v-8.37Z" style="fill: #254791;"/>
        <path d="M102.99,24.48l-1.16-3.1-1.13,3.1h2.29Zm3.1,3.32h-1.82l-.72-1.91h-3.36l-.69,1.91h-1.79l3.25-8.37h1.79l3.35,8.37Z" style="fill: #254791;"/>
        <path d="M108.69,20.85v5.54h1.26c.47,0,.81-.03,1.02-.08,.27-.07,.5-.18,.68-.35,.18-.17,.33-.43,.44-.81,.11-.38,.17-.89,.17-1.53s-.06-1.14-.17-1.49c-.11-.34-.27-.62-.48-.81-.2-.2-.47-.33-.78-.39-.24-.05-.7-.08-1.38-.08h-.75Zm-1.7-1.41h3.08c.69,0,1.22,.06,1.59,.16,.49,.14,.91,.4,1.26,.77,.35,.37,.62,.82,.8,1.36,.18,.54,.27,1.2,.27,1.98,0,.69-.09,1.28-.26,1.78-.21,.61-.51,1.1-.89,1.48-.29,.28-.69,.51-1.18,.67-.37,.12-.87,.18-1.49,.18h-3.17v-8.37Z" style="fill: #254791;"/>
        <path d="M120.38,20.85v5.54h1.26c.47,0,.81-.03,1.02-.08,.27-.07,.5-.18,.68-.35,.18-.17,.33-.43,.44-.81,.11-.38,.17-.89,.17-1.53s-.06-1.14-.17-1.49c-.11-.34-.27-.62-.48-.81-.2-.2-.46-.33-.78-.39-.24-.05-.7-.08-1.38-.08h-.76Zm-1.69-1.41h3.08c.69,0,1.23,.06,1.59,.16,.49,.14,.91,.4,1.26,.77,.35,.37,.62,.82,.8,1.36,.18,.54,.27,1.2,.27,1.98,0,.69-.08,1.28-.26,1.78-.21,.61-.51,1.1-.89,1.48-.29,.28-.69,.51-1.18,.67-.37,.12-.87,.18-1.49,.18h-3.17v-8.37Z" style="fill: #254791;"/>
        <polygon points="127.13 27.8 127.13 19.43 133.32 19.43 133.32 20.85 128.82 20.85 128.82 22.71 133.01 22.71 133.01 24.12 128.82 24.12 128.82 26.39 133.49 26.39 133.49 27.8 127.13 27.8" style="fill: #254791;"/>
        <polygon points="134.96 27.8 134.96 19.5 136.65 19.5 136.65 26.39 140.85 26.39 140.85 27.8 134.96 27.8" style="fill: #254791;"/>
        <path d="M146.99,24.14v2.25h1.56c.61,0,1-.02,1.16-.05,.25-.05,.46-.16,.61-.33,.16-.18,.24-.41,.24-.71,0-.25-.06-.46-.18-.64-.12-.17-.3-.3-.53-.38-.23-.08-.73-.12-1.5-.12h-1.37Zm0-3.32v1.93h1.11c.66,0,1.06,0,1.23-.03,.29-.03,.52-.13,.68-.3,.17-.16,.25-.38,.25-.65s-.07-.47-.21-.63c-.14-.16-.35-.26-.64-.29-.17-.02-.65-.03-1.44-.03h-.97Zm-1.7-1.39h3.35c.66,0,1.16,.03,1.48,.08,.33,.06,.62,.17,.88,.34,.26,.17,.47,.41,.64,.7,.17,.29,.26,.62,.26,.98,0,.39-.11,.75-.32,1.08-.21,.33-.5,.57-.86,.73,.51,.15,.9,.4,1.17,.76,.27,.36,.41,.78,.41,1.26,0,.38-.09,.75-.27,1.11-.18,.36-.42,.65-.72,.87-.31,.22-.68,.35-1.13,.4-.28,.03-.96,.05-2.04,.06h-2.85v-8.37Z" style="fill: #254791;"/>
        <path d="M153.42,18.67l.79-1.71h1.79l-1.58,1.71h-1.01Zm.27,.76h1.7v8.37h-1.7v-8.37Z" style="fill: #254791;"/>
        <path d="M158.38,23.61c0,.95,.22,1.67,.66,2.16,.44,.49,1,.73,1.67,.73s1.23-.24,1.66-.73c.43-.49,.65-1.21,.65-2.19s-.21-1.68-.63-2.15c-.42-.47-.98-.71-1.68-.71s-1.26,.24-1.69,.72c-.43,.48-.64,1.2-.64,2.16m-1.74,.06c0-.85,.13-1.57,.38-2.15,.19-.43,.45-.81,.78-1.15,.33-.34,.69-.59,1.08-.76,.52-.22,1.12-.33,1.81-.33,1.23,0,2.22,.38,2.96,1.15,.74,.77,1.11,1.83,1.11,3.2s-.37,2.41-1.1,3.18c-.73,.77-1.72,1.14-2.95,1.14s-2.23-.38-2.97-1.14c-.74-.76-1.1-1.81-1.1-3.14" style="fill: #254791;"/>
        <rect x="165.87" y="23.97" width="3.16" height="1.6" style="fill: #254791;"/>
        <path d="M171.67,24.14v2.25h1.56c.61,0,1-.02,1.16-.05,.25-.05,.46-.16,.61-.33,.16-.18,.24-.41,.24-.71,0-.25-.06-.46-.18-.64-.12-.17-.3-.3-.53-.38-.23-.08-.73-.12-1.5-.12h-1.37Zm0-3.32v1.93h1.11c.66,0,1.06,0,1.22-.03,.29-.03,.52-.13,.68-.3,.17-.16,.25-.38,.25-.65s-.07-.47-.21-.63c-.14-.16-.35-.26-.64-.29-.17-.02-.65-.03-1.44-.03h-.97Zm-1.69-1.39h3.35c.66,0,1.16,.03,1.48,.08,.32,.06,.62,.17,.87,.34,.26,.17,.47,.41,.64,.7,.17,.29,.26,.62,.26,.98,0,.39-.11,.75-.32,1.08-.21,.33-.5,.57-.86,.73,.51,.15,.9,.4,1.17,.76,.27,.36,.41,.78,.41,1.26,0,.38-.09,.75-.27,1.11-.18,.36-.42,.65-.72,.87-.31,.22-.68,.35-1.13,.4-.28,.03-.96,.05-2.04,.06h-2.85v-8.37Z" style="fill: #254791;"/>
        <path d="M178.1,18.67l.79-1.71h1.79l-1.58,1.71h-1.01Zm.27,.76h1.69v8.37h-1.69v-8.37Z" style="fill: #254791;"/>
        <path d="M183.05,23.61c0,.95,.22,1.67,.66,2.16,.44,.49,1,.73,1.67,.73s1.23-.24,1.66-.73c.43-.49,.65-1.21,.65-2.19s-.21-1.68-.63-2.15c-.42-.47-.98-.71-1.68-.71s-1.26,.24-1.69,.72c-.43,.48-.64,1.2-.64,2.16m-1.74,.06c0-.85,.13-1.57,.38-2.15,.19-.43,.45-.81,.78-1.15,.33-.34,.69-.59,1.08-.76,.52-.22,1.12-.33,1.8-.33,1.23,0,2.22,.38,2.96,1.15,.74,.77,1.11,1.83,1.11,3.2s-.37,2.41-1.1,3.18c-.74,.77-1.72,1.14-2.95,1.14s-2.23-.38-2.97-1.14c-.74-.76-1.1-1.81-1.1-3.14" style="fill: #254791;"/>
      </g>
    </g>
  </g>
</svg>