<?xml version="1.0" encoding="UTF-8"?>
<svg xmlns="http://www.w3.org/2000/svg" viewBox="0 0 144.51 43.63">
  <g id="Capa_1" data-name="Capa 1"/>
  <g id="Capa_2" data-name="Capa 2">
    <g id="Capa_1-2" data-name="Capa 1">
      <g>
        <path d="M72.07,35.99c-.81,.19-1.62,.4-2.44,.57-1.99,.41-3.99,.74-6.01,.89-2.05,.15-4.11,.22-6.16,.01-1.15-.11-2.27-.35-3.36-.75-2.87-1.06-4.78-3.07-5.76-5.96-.46-1.34-.7-2.73-.81-4.14-.07-1-.1-2-.1-3-.01-4.91,0-9.81,0-14.72v-.5h8.1c0,.15,.02,.31,.02,.47,0,2.82,0,5.64,0,8.47,0,2.4,0,4.79,.03,7.19,.01,1.08,.16,2.16,.48,3.2,.05,.17,.11,.34,.17,.51,.49,1.35,1.49,2.09,2.88,2.34,1,.18,2,.11,2.99,.04,.61-.04,1.22-.12,1.88-.19V8.4h8.05c.09,.3,.14,26.47,.04,27.59Z" style="fill: #254791;"/>
        <path d="M118.76,9.4c-.47,2.12-.94,4.19-1.41,6.27-.84-.23-1.62-.46-2.41-.68-1.6-.44-3.23-.59-4.88-.53-.54,.02-1.09,.13-1.62,.23-.23,.04-.44,.15-.65,.24-1.39,.65-1.29,2.53-.29,3.16,.49,.3,.97,.62,1.49,.85,1,.45,2.04,.81,3.04,1.25,1.14,.5,2.29,1,3.39,1.56,.69,.36,1.34,.81,1.95,1.29,1.37,1.08,2.19,2.49,2.47,4.23,.22,1.39,.27,2.78-.03,4.17-.39,1.86-1.4,3.31-2.96,4.38-1.26,.87-2.67,1.38-4.16,1.7-1.91,.42-3.85,.52-5.8,.46-1.38-.04-2.77-.12-4.13-.38-1.6-.3-3.17-.75-4.75-1.33,.44-2.19,.89-4.37,1.35-6.57,.15,.05,.26,.08,.38,.12,2.05,.77,4.15,1.31,6.33,1.51,1.42,.13,2.85,.17,4.26-.12,.11-.02,.21-.06,.32-.08,1.48-.33,1.7-2.26,.73-3.06-.33-.27-.67-.54-1.05-.71-1.07-.5-2.15-.96-3.23-1.43-1.14-.5-2.3-.96-3.43-1.47-.99-.45-1.88-1.07-2.66-1.84-1.28-1.28-1.97-2.84-2.17-4.63-.14-1.24-.11-2.46,.2-3.67,.49-1.91,1.61-3.36,3.23-4.45,1.33-.9,2.81-1.41,4.38-1.69,1.85-.33,3.71-.32,5.57-.18,2.03,.16,4.01,.56,5.96,1.16,.18,.05,.36,.13,.59,.21Z" style="fill: #254791;"/>
        <path d="M94.43,15.94c-.86-.24-1.63-.5-2.43-.69-1.68-.4-3.38-.5-5.09-.15-1.88,.39-3.23,1.47-4.12,3.16-.53,1.01-.82,2.09-.94,3.21-.19,1.73-.1,3.45,.39,5.13,.11,.38,.26,.75,.42,1.11,.72,1.61,1.96,2.6,3.66,3.03,1,.26,2.02,.35,3.05,.33,1.79-.03,3.55-.26,5.26-.83,.26-.08,.51-.18,.82-.29,.38,2.21,.76,4.38,1.14,6.59-.13,.06-.25,.13-.37,.17-1.68,.62-3.41,1-5.19,1.18-1.45,.15-2.9,.18-4.35,.07-2.44-.17-4.75-.77-6.87-2.02-2.48-1.47-4.24-3.55-5.2-6.25-1.33-3.78-1.56-7.65-.43-11.51,1.49-5.07,4.82-8.33,9.92-9.75,1.62-.45,3.29-.52,4.97-.48,2.33,.06,4.56,.56,6.72,1.42,.1,.04,.19,.09,.32,.16-.56,2.14-1.11,4.26-1.67,6.41Z" style="fill: #254791;"/>
        <path d="M142.34,15.97c-.27-.09-.49-.16-.7-.24-1.62-.55-3.28-.88-5-.84-.84,.02-1.66,.12-2.47,.38-1.26,.4-2.26,1.14-3.01,2.24-.77,1.12-1.19,2.37-1.36,3.7-.23,1.75-.16,3.5,.31,5.21,.1,.38,.25,.76,.4,1.12,.71,1.68,1.96,2.74,3.72,3.19,1,.26,2.02,.35,3.05,.33,1.79-.03,3.55-.26,5.26-.82,.26-.08,.51-.18,.83-.3,.41,2.21,.76,4.38,1.15,6.59-.15,.07-.28,.14-.41,.18-1.67,.61-3.39,.99-5.16,1.17-1.44,.14-2.87,.18-4.31,.07-2.17-.15-4.25-.62-6.19-1.63-2.8-1.44-4.82-3.61-5.88-6.58-1.35-3.75-1.58-7.59-.5-11.43,1.41-5.02,4.66-8.31,9.66-9.82,1.75-.53,3.56-.61,5.37-.55,2.31,.07,4.53,.58,6.67,1.44,.07,.03,.14,.07,.27,.12-.56,2.14-1.12,4.28-1.68,6.44Z" style="fill: #254791;"/>
        <path d="M15.86,6.67c.08-.68,.12-1.32,.23-1.95,.18-1.09,.53-2.13,1.2-3.03,.63-.86,1.43-1.46,2.51-1.64,.75-.13,1.44,.03,2.1,.39,.66,.36,1.17,.89,1.58,1.52,.72,1.12,1.05,2.37,1.16,3.68,.03,.37,.04,.74,.06,1.13,5.08,1.5,8.66,4.74,10.85,9.51,1.64,3.58,1.98,7.32,1,11.15-2.04,7.97-9.19,12.88-17.1,12.72-8.08-.16-14.59-6.17-16.08-13.5-.59-2.89-.37-5.75,.47-8.57,.85-2.84,2.37-5.29,4.54-7.32,2.15-2.02,4.66-3.39,7.5-4.1Zm4.07-3.35s-.03-.01-.05-.01c-.19,.07-.38,.15-.59,.23,.09,.16,.13,.33,.25,.43,.1,.09,.21,.32,.41,.13-.07,.32-.14,.64-.22,.98,.28,.02,.56,.12,.8-.02-.04-.27-.08-.51-.11-.75,.2-.02,.23-.11,.12-.27,.18,.12,.36,.24,.55,.37,.05-.3,.11-.59,.16-.92-.1-.06-.22-.13-.37-.22-.12,.21-.42,.3-.32,.61-.08-.12-.17-.25-.25-.37,.36-.11,.38-.14,.35-.52,.03-.02,.08-.05,.08-.06-.11-.25-.2-.51-.35-.73-.23-.34-.75-.28-.9,.08-.09,.23,.09,.72,.31,.81,.05,.02,.13-.04,.2-.07,.12,0,.23,0,.35,0-.15,.1-.29,.2-.43,.3Zm-3.99,4c-6.13,1.26-12.82,7.99-12.27,16.85,.49,7.89,6.79,15.22,16.23,15.43,8.25-.15,15.68-5.82,16.48-15.05,.78-9.09-5.67-15.47-11.72-17.1-.71,2.83-.43,2.68-2.45,4.91,.48,.13,.97,.26,1.45,.42,5.57,1.9,7.93,7.9,7.13,12.29-1.15,6.3-6.98,9.7-12.4,8.93-3.24-.46-5.78-2.13-7.61-4.83-1.61-2.38-2.12-5.02-1.66-7.84,.33-2.05,1.14-3.88,2.52-5.45,1.72-1.94,3.89-3.08,6.42-3.55,.08-.01,.16-.05,.29-.1-1.63-1.26-2.18-2.99-2.41-4.91Zm14.1,18.06c1.33-5.53-2.12-11.74-9.1-12.61,.09-.31,.26-.63-.02-.96-.22,.25-.45,.42-.78,.45-.34,.03-.58-.17-.84-.35-.19,.29-.05,.54,.05,.84-3.15,.29-5.77,1.58-7.66,4.12-1.88,2.54-2.52,5.38-1.86,8.51h7.7c.09-1.4,.18-2.76,.27-4.17h-2.85c-.4-.58-.79-1.14-1.17-1.71-.05-.07-.08-.18-.06-.27,.15-.76,.31-1.52,.47-2.32h1.29c.44,0,.88,0,1.31,0,.42,0,.84,.01,1.28-.01,.08-1.14,.15-2.23,.23-3.35h3.32c.08,1.12,.15,2.22,.23,3.36h1.39c.44,0,.88,0,1.32,0,.45,.01,.89-.03,1.34,.03,.1,.74,.19,1.45,.3,2.15,.03,.2,0,.34-.11,.5-.31,.45-.63,.9-.92,1.36-.12,.18-.26,.25-.47,.25-.73-.02-1.45,0-2.18,0-.12,0-.24,.01-.4,.03,.09,1.4,.18,2.77,.26,4.16h7.63Zm-8.76-11.45h-2.6c-.07,1.11-.15,2.18-.22,3.31h-3.92c-.13,.64-.25,1.22-.38,1.81-.04,.17,0,.29,.09,.42,.26,.37,.52,.74,.76,1.12,.12,.2,.28,.26,.51,.26,.75-.01,1.51,0,2.26,0,.13,0,.27,.02,.41,.02,0,.22,.01,.4,0,.59-.12,1.91-.26,3.83-.36,5.74-.02,.41-.17,.63-.5,.85-1,.65-1.97,1.34-2.95,2.02-.13,.09-.29,.15-.28,.36,.01,.35,0,.69,0,1.03,0,.2,.11,.29,.35,.34v-1.05c.11,.07,.16,.09,.2,.12,.91,.72,1.83,1.44,2.74,2.17,.17,.14,.3,.19,.5,.04,.2-.15,.42-.26,.63-.38,.49-.29,.98-.59,1.48-.88,.72,.43,1.42,.84,2.09,1.28,.2,.13,.31,.1,.46-.02,.9-.72,1.79-1.44,2.69-2.16,.07-.06,.15-.1,.29-.19v1.03c.22-.03,.3-.13,.3-.31,0-.28-.02-.55,0-.82,.02-.26-.07-.42-.3-.57-1.04-.7-2.08-1.43-3.12-2.13-.18-.12-.27-.26-.28-.5-.12-1.96-.25-3.91-.38-5.86-.01-.23,0-.45,0-.71h.44c.73,0,1.45-.01,2.18,0,.3,0,.48-.09,.63-.34,.19-.32,.4-.62,.62-.92,.15-.21,.24-.41,.17-.68-.07-.28-.08-.57-.12-.86-.04-.27-.09-.53-.14-.83h-4.04c-.08-1.11-.15-2.19-.22-3.3Zm.29-1.95c.13-.24,.25-.45,.37-.67,.15,.17,.26,.31,.43,.5,.03-.31-.09-.47-.17-.63-.11-.23-.06-.4,.12-.6,.21,.26,.39,.51,.58,.75,.06-.11,.06-.2,.03-.26-.11-.22-.21-.45-.34-.65-.14-.24-.14-.45,.04-.69,.16,.18,.31,.34,.5,.55,.07-.35-.15-.47-.28-.63-.16-.21-.18-.39,0-.58,.32,.1,.54,.41,.95,.47-.06-.12-.07-.2-.12-.24-.18-.16-.37-.32-.56-.48q-.25-.22-.06-.54c.2,.08,.41,.16,.62,.24,.02-.03,.03-.06,.04-.09-.14-.13-.33-.21-.5-.31-.13-.08-.22-.16-.08-.34,.34,.06,.7,.12,1.05,.19-.03-.12-.09-.17-.16-.19-.23-.09-.45-.19-.69-.27-.21-.07-.24-.19-.13-.38,.24,.01,.47,.02,.71,.04,0-.03,0-.06,.01-.09-.2-.06-.41-.11-.61-.18-.06-.02-.13-.12-.13-.17,0-.05,.09-.13,.15-.14,.25-.05,.52-.06,.77-.1,.08,0,.15-.05,.23-.08,0-.03-.01-.05-.01-.08h-1.06c-.09-.22-.07-.34,.15-.39,.16-.04,.35-.04,.45-.26-.23,.02-.45,.04-.75,.07,.19-.49,.73-.46,.94-.81-.15,.02-.29,.07-.43,.11-.15,.05-.3,.11-.48,.17-.05-.45,.44-.46,.55-.81-.24,.12-.43,.22-.6,.31-.14-.2-.11-.35,.04-.5,.18-.17,.34-.36,.5-.55,.04-.05,.06-.12,.09-.18-.02-.01-.03-.02-.05-.03-.25,.2-.49,.41-.74,.61-.15-.2-.14-.34,0-.51,.11-.13,.29-.24,.28-.5-.19,.15-.35,.27-.55,.43-.08-.57,.36-.91,.33-1.4-.19,.24-.38,.47-.58,.71-.4-.37,.13-.63,.05-.99-.14,.17-.26,.32-.39,.49-.19-.21-.36-.39-.53-.58-.18,.2-.34,.38-.5,.56,1.2,.86,1.52,2.19,1.9,3.48-.17,.1-.31,.18-.45,.26,.05,.15,.08,.27,.14,.38,.16,.31,.13,.6-.06,.89-.25,.38-.35,.79-.31,1.25,.01,.12,0,.24-.11,.37-.17,.2-.32,.45-.38,.7-.03,.15,.13,.34,.21,.52,.02,.05,.04,.1,.08,.14,.15,.19,.11,.38,0,.57-.17,.29-.41,.48-.73,.55-.1,.02-.21,.04-.34,.06,.21,.19,.39,.35,.6,.54Zm-5.27-5.74s0,.05-.01,.07c.07,.03,.13,.06,.21,.08,.23,.05,.45,.1,.68,.15,.19,.03,.25,.14,.18,.33-.21,.04-.41,.07-.62,.11,0,.03,0,.05,0,.08,.12,0,.23,0,.35,0,.12,.01,.3-.08,.35,.12,.05,.22-.16,.22-.28,.28-.2,.09-.4,.17-.6,.26-.06,.03-.11,.09-.16,.14,0,.02,.02,.04,.03,.07,.34-.07,.68-.14,1.03-.21,.13,.18,.13,.31-.07,.41-.14,.07-.27,.16-.4,.24,0,.02,.02,.04,.03,.05,.19-.07,.38-.16,.63-.26-.05,.63-.63,.77-.86,1.28,.36-.2,.65-.36,.93-.51,.2,.29,.18,.51-.05,.73-.09,.08-.15,.2-.23,.3,.02,.01,.03,.03,.05,.04,.14-.12,.28-.24,.43-.36,.15,.33,.15,.33,.02,.58-.14,.29-.33,.56-.42,.86,.03,.02,.05,.04,.08,.05,.2-.22,.4-.44,.6-.67,.26,.28,.28,.53,.12,.82-.06,.1-.15,.22-.07,.36,.18-.12,.14-.38,.34-.47,.12,.19,.23,.37,.34,.55,.2-.11,.36-.2,.57-.32-.22-.04-.19-.17-.14-.3,.04-.1,.05-.22,.1-.31,.09-.19,.04-.33-.09-.48-.23-.27-.42-.58-.67-.83-.44-.44-.57-.93-.45-1.52,.03-.15,.01-.36-.08-.46-.32-.36-.28-.71-.06-1.08,.03-.06,.04-.13,.07-.21-.09-.12-.17-.25-.27-.36-.15-.17-.2-.33-.12-.56,.14-.44,.24-.9,.35-1.35,.17-.7,.48-1.31,1.1-1.72,.02,0,.02-.04,.04-.09-.08-.11-.17-.22-.32-.4-.12,.16-.22,.3-.33,.46-.12-.17-.21-.29-.29-.41,.02,.3,.3,.6-.11,.87-.13-.16-.26-.32-.42-.5-.02,.43,.4,.78,.1,1.21-.12-.11-.22-.2-.32-.29-.01,.02-.03,.03-.04,.05,.1,.14,.2,.29,.31,.45-.06,.11-.12,.22-.18,.33-.27-.14-.42-.4-.72-.45,.1,.2,.24,.36,.37,.53,.12,.16,.33,.3,.15,.57-.17-.09-.33-.18-.49-.27,.08,.16,.19,.26,.32,.35,.18,.13,.19,.27,.04,.45-.28-.12-.55-.23-.82-.34-.01,.02-.03,.05-.04,.07,.23,.16,.46,.32,.7,.47,.15,.1,.25,.21,.09,.41-.2-.06-.4-.12-.6-.18-.01,.04-.03,.07-.04,.11,.18,.08,.35,.16,.53,.24,.17,.07,.23,.17,.11,.38h-.99Zm4.57,4.82c-.06-.94-.13-1.83-.16-2.73-.03-.86,0-1.72,0-2.58,0-.11,0-.23-.05-.32-.05-.08-.16-.14-.25-.15-.05,0-.14,.12-.16,.19-.04,.13-.03,.27-.04,.41-.07,1.17-.1,2.35-.21,3.52-.06,.67,.21,1.25,.32,1.91,.35-.12,.68,.03,1.06-.18-.22-.03-.34-.05-.5-.08Zm1.65,15.83c.42-.02,.77-.17,1.13-.3,.58-.22,1.15-.22,1.73-.03,.18,.06,.36,.14,.54,.2,.53,.19,1.07,.24,1.61,.07,.36-.12,.72-.28,1.09-.34,.37-.06,.76-.01,1.16-.01,.05-.16,.09-.29,.13-.43-.47-.14-.68-.17-1.05-.09-.29,.07-.58,.16-.86,.26-.67,.25-1.34,.27-2.01,.05-.27-.09-.55-.18-.82-.26-.33-.09-.67-.14-1.01-.04-.55,.16-1.09,.33-1.66,.5,.01,.14,.02,.27,.03,.43Zm-12.32-.38c.72-.22,1.35,0,1.99,.24,.72,.28,1.42,.21,2.12-.08,.71-.3,1.43-.34,2.15-.03,.2,.09,.41,.15,.62,.21,.11,.03,.23,.04,.38,.06v-.46c-.24-.06-.46-.08-.66-.17-.94-.45-1.86-.4-2.82-.02-.64,.26-1.31,.21-1.97-.03-.22-.08-.44-.16-.66-.21-.43-.1-.86-.11-1.3,.05,.05,.15,.09,.27,.15,.45Zm12.27,.99c.21,.16,.35,.26,.49,.36,.19-.07,.37-.15,.55-.19,.37-.08,.75-.17,1.12-.21,.42-.05,.81,.11,1.19,.27,.66,.27,1.33,.32,2,.07,.5-.19,1-.37,1.56-.34,.06-.15,.12-.29,.19-.45-.12-.02-.19-.04-.27-.05-.45-.04-.88,.05-1.28,.22-.77,.33-1.54,.36-2.31,.03-.13-.05-.26-.09-.39-.14-.36-.12-.73-.18-1.09-.1-.56,.14-1.11,.33-1.76,.53Zm-11.89-.05c.56-.02,1.07,.15,1.57,.34,.57,.22,1.15,.22,1.73,.03,.08-.03,.16-.04,.23-.08,.85-.41,1.69-.35,2.54-.02,.37,.14,.48,.09,.71-.25-.37-.13-.74-.26-1.12-.39-.56-.19-1.12-.19-1.69,.02-.22,.08-.44,.15-.66,.22-.5,.16-1,.16-1.49,0-.23-.07-.46-.17-.7-.24-.42-.14-.84-.2-1.31-.08,.07,.17,.13,.3,.19,.45ZM20.1,5.36c-.45-.17-.67-.1-.8,.29-.07,.22-.12,.45-.12,.68,.02,.95,.06,1.91,.1,2.86,0,.18,.03,.36,.08,.53,.05,.17,.12,.33,.19,.5,.05,0,.1-.02,.15-.03-.17-.57-.36-1.14-.2-1.73,.12,.41,.02,.86,.26,1.26,.22-1.45,.22-2.92,.34-4.37Zm3.44,22.84c.23,.27,.46,.36,.78,.3,.22-.04,.47-.04,.69,.01,.33,.07,.66,.18,.98,.29,.59,.21,1.17,.24,1.76,.03,.25-.09,.49-.2,.74-.25,.33-.07,.47-.27,.56-.59-.08,0-.14-.01-.18,0-.36,.1-.71,.19-1.06,.31-.62,.21-1.23,.22-1.85-.01-.22-.08-.44-.15-.66-.22-.59-.19-1.16-.13-1.77,.13Zm-7.18-.01c-.45-.2-.88-.3-1.34-.2-.36,.07-.71,.18-1.06,.31-.6,.21-1.2,.21-1.81,.02-.2-.06-.38-.14-.58-.2-.22-.06-.44-.1-.69-.15,.14,.43,.18,.49,.37,.55,.36,.12,.73,.24,1.09,.35,.43,.14,.86,.14,1.29,.02,.26-.07,.52-.17,.78-.26,.39-.13,.79-.23,1.21-.14,.31,.06,.51-.08,.74-.31Zm5.59-17.85c-.18-.31-.35-.58-.49-.87-.09-.19-.19-.4-.19-.61-.02-.82-.15-1.63,0-2.45,.02-.13,.02-.27,.02-.41,0-.35-.05-.41-.44-.5-.09,1.79,.1,3.56,.12,5.36,.47,.03,.63-.38,.99-.51Zm-2.42-8.29c.31-.38,.66-.25,1.01-.05,.03,.01,.05,.02,.07,.03,.18,.11,.34,.06,.49-.05,.37-.26,.36-.7,0-1-.4-.32-1.13-.34-1.58-.04-.47,.31-.47,.71,.02,1.1Zm-7.85,27.13c.16,.32,.29,.63,.64,.73,1.11,.31,1.98-.14,2.83-.9-.43,0-.76,.15-1.09,.27-.67,.26-1.33,.28-2,.01-.12-.05-.25-.08-.38-.12Zm16.65-.01c-.16,.05-.28,.07-.39,.12-.69,.29-1.38,.27-2.07,0-.24-.1-.49-.17-.74-.24-.09-.03-.19,0-.38,0,.36,.24,.62,.42,.9,.6,.52,.33,1.08,.42,1.69,.34,.48-.06,.76-.36,1-.81ZM18.96,6.73c-.23,.07-.46,.12-.48,.35-.06,.55-.07,1.12-.1,1.69,.26,.05,.48,.1,.76,.15-.06-.76-.12-1.46-.17-2.19Zm3.03-3c-.05,.74-.1,1.53-.15,2.35,.32-.13,.61-.25,.89-.37-.15-.85-.48-1.68-.74-1.98Zm-1.25,.63c-.14,.06-.24,.15-.15,.31,.12,.23,.23,.47,.4,.65,.28,.3,.58,.21,.64-.19,.07-.39,.08-.79,.12-1.18,.01-.15-.03-.3-.19-.32-.17-.02-.27,.14-.27,.26,0,.35-.17,.72,.16,1.07-.42-.06-.42-.49-.71-.6Zm-1.98,1.27c-.06-.74-.12-1.48-.19-2.21-.3,.61-.47,1.25-.58,1.86,.29,.14,.54,.25,.77,.36Zm2.73,3.24c.26-.06,.43-.1,.63-.15v-1.24c-.07-.03-.16-.08-.3-.16-.11,.51-.21,.99-.33,1.55Zm-1.68-4.43s-.04-.07-.06-.11c-.11,0-.26-.02-.32,.04-.18,.19-.33,.4-.47,.61-.08,.12-.07,.27,.08,.35,.12,.07,.25,.04,.32-.08,.16-.27,.3-.54,.45-.81Zm-7.08,26.1c.35,.29,.63,.53,.97,.82v-.89c-.31,.03-.58,.05-.97,.08Zm14.38,.07s-.03-.06-.04-.08c-.28-.02-.55-.03-.84-.05v.89c.34-.29,.61-.52,.88-.75Zm-7.65-19.38c.28,.04,.47,.07,.7,.1-.1-.44-.16-.81-.37-1.16-.1,.33-.21,.67-.33,1.05Zm-.4-7.62c-.15,.37-.24,.7-.16,1.1,.57-.49,.6-.67,.16-1.1Zm1.76,8.05c-.12-.23-.31-.23-.5-.17-.23,.07-.23,.29-.3,.5,.35,.03,.61-.06,.8-.33Zm1.32-4.4s.05-.03,.08-.04c-.11-.28-.21-.56-.35-.93-.09,.21-.14,.32-.2,.46,.16,.18,.32,.34,.47,.51Zm-4.06-.3c.29-.07,.46-.21,.68-.38-.13-.11-.24-.19-.39-.32-.1,.25-.18,.44-.29,.7Zm3.94-.73c.16,.13,.29,.23,.42,.33,.02-.01,.04-.03,.07-.04-.05-.15-.1-.29-.17-.46-.12,.06-.2,.1-.33,.17Zm-2.25,5.74c-.06-.21-.1-.31-.15-.47-.09,.11-.14,.17-.22,.26,.12,.07,.21,.12,.37,.21Zm.01-.51s0,.06-.01,.09c.11,.01,.21,.02,.32,.03-.09-.19-.19-.18-.31-.12Z" style="fill: #254791;"/>
        <path d="M16.1,43.34c-.17-.65-.31-1.21-.46-1.76-.03,0-.06,0-.09,0-.07,.4-.16,.79-.21,1.19,0,.08,.09,.18,.16,.32-.23-.04-.43-.08-.61-.11,.11-.2,.23-.36,.28-.55,.09-.29,.12-.59,.19-.88,.05-.23,.14-.45-.16-.62,.02-.02,.05-.04,.07-.05,.22,.04,.44,.09,.68,.14,.13,.52,.27,1.03,.42,1.61,.41-.43,.68-.88,1.03-1.31,.22,.04,.44,.08,.66,.13-.21,.11-.29,.25-.32,.45-.06,.37-.15,.73-.22,1.09-.06,.28-.05,.28,.18,.56-.36-.07-.65-.12-.94-.18,.22-.11,.29-.25,.32-.46,.05-.33,.13-.66,.13-1.02-.35,.46-.7,.92-1.12,1.46Z" style="fill: #254791;"/>
        <path d="M7.02,8.02c.48-.35,.9-.72,1.37-.99,.56-.32,1.26,.15,1.35,.87,.05,.41-.07,.76-.38,1.03-.28,.24-.57,.45-.87,.68-.26-.58-.69-1.01-1.06-1.47-.06-.08-.23-.07-.42-.12Zm.71-.28c.35,.49,.69,.95,1.07,1.39,.37-.23,.66-.45,.61-.9-.04-.37-.4-.84-.73-.92-.41-.1-.66,.15-.95,.42Z" style="fill: #254791;"/>
        <path d="M12.99,6.82c-.09-.28-.16-.53-.25-.76-.09-.24-.18-.48-.28-.73-.07-.19-.12-.41-.43-.39,.54-.24,1.03-.52,1.58-.6,.65-.1,1.17,.53,1.04,1.23-.08,.44-.34,.74-.75,.91-.3,.12-.61,.23-.91,.34Zm.39-.35c.44-.11,.79-.25,.86-.71,.06-.37-.16-.9-.46-1.07-.36-.21-.67-.04-1.01,.14,.08,.22,.15,.43,.22,.63,.12,.33,.25,.65,.39,1.01Z" style="fill: #254791;"/>
        <path d="M39.99,19.44c.06,.43,.16,.88,.19,1.34,.07,.82-.58,1.29-1.37,1.02-.41-.14-.66-.44-.76-.85-.08-.35-.12-.72-.17-1.07,.25-.02,.47-.02,.69-.05,.31-.04,.63-.07,.93-.14,.15-.04,.29-.15,.48-.25Zm-1.84,.91c.03,.46,.08,.84,.51,.98,.41,.13,.83,.11,1.15-.21,.3-.29,.2-.64,.07-1.03-.58,.08-1.14,.17-1.73,.25Z" style="fill: #254791;"/>
        <path d="M25.3,43c-.76,.02-1.06-.65-1.07-1.19-.01-.62,.55-1.09,1.28-1.11,.62-.01,1.05,.46,1.07,1.15,0,.65-.54,1.15-1.28,1.15Zm.83-.93c-.01-.33-.1-.65-.33-.92-.19-.22-.43-.27-.7-.18-.26,.09-.42,.3-.42,.59,0,.33,.09,.65,.28,.92,.2,.27,.45,.37,.75,.28,.29-.09,.43-.31,.43-.68Z" style="fill: #254791;"/>
        <path d="M2.98,12.73c.24-.36,.48-.72,.73-1.07,.11-.16,.27-.23,.47-.18,.21,.05,.32,.2,.37,.4,.02,.1,.02,.21,.03,.35h1.28c-.02,.21-.18,.32-.28,.49-.42-.03-.82-.05-1.22-.08-.02-.18-.02-.36-.07-.51-.03-.09-.15-.16-.24-.2-.19-.08-.31,0-.51,.33,.41,.34,.87,.64,1.33,.92,.08,.05,.22,0,.39-.02-.18,.27-.34,.51-.51,.76-.01-.33-.27-.44-.47-.58-.26-.18-.52-.36-.78-.53-.15-.1-.3-.25-.48,.06-.02-.05-.03-.1-.05-.15Z" style="fill: #254791;"/>
        <path d="M33.5,10.87c-.62-.01-1.23-.62-1.21-1.22,.01-.57,.59-1.12,1.16-1.12,.62,0,1.25,.64,1.24,1.25-.01,.56-.59,1.09-1.18,1.08Zm-.22-.28c.46-.02,1.08-.7,1.06-1.15-.03-.41-.49-.72-.87-.55-.42,.18-.71,.51-.82,.96-.08,.35,.27,.76,.63,.74Z" style="fill: #254791;"/>
        <path d="M38.63,31.87c.01,.67-.49,1.27-1.07,1.29-.62,.02-1.22-.5-1.24-1.08-.02-.65,.54-1.32,1.11-1.33,.61-.01,1.19,.53,1.2,1.12Zm-.9,.86c.26,.02,.45-.09,.58-.31,.12-.22,.15-.45,0-.65-.28-.37-.66-.57-1.13-.57-.28,0-.45,.16-.56,.41-.1,.24-.07,.46,.1,.64,.27,.29,.61,.44,1.01,.48Z" style="fill: #254791;"/>
        <path d="M39.15,28.73c-.36-.12-.72-.24-1.08-.33-.08-.02-.2,.09-.36,.16,.08-.25,.15-.46,.22-.66,.06,.26,.25,.32,.44,.38,.5,.17,1.01,.34,1.5,.51,0,.23-.14,.29-.29,.36-.45,.18-.89,.35-1.33,.53-.11,.04-.22,.1-.42,.19,.46,.15,.83,.28,1.2,.38,.11,.03,.24-.05,.4-.09-.07,.22-.14,.42-.2,.61-.07-.25-.25-.32-.44-.38-.33-.11-.65-.22-.97-.33-.21-.07-.41-.14-.6,.15,.04-.47,.17-.74,.59-.85,.46-.13,.89-.33,1.34-.51,0-.03,0-.07,.01-.11Z" style="fill: #254791;"/>
        <path d="M6.41,38.28c-.19-.16-.36-.31-.52-.46,0-.03,.01-.06,.02-.09,.23,.13,.37,.03,.5-.12,.24-.28,.5-.55,.74-.83,.21-.24,.2-.24,.13-.55,.32,.19,.56,.38,.49,.8-.06,.36-.04,.74-.06,1.11,0,.13,0,.26,.01,.39,.03,0,.06,.02,.09,.03,.24-.28,.49-.55,.7-.84,.06-.08,.02-.24,.03-.41,.19,.16,.35,.31,.52,.46-.29-.06-.42,.13-.56,.29-.27,.3-.53,.6-.79,.89-.08,.09-.17,.17-.24,.25-.21-.07-.21-.22-.21-.38,0-.46,.01-.93,.02-1.39,0-.13,0-.27,0-.49-.36,.33-.62,.64-.85,.96-.05,.08-.02,.21-.02,.37Z" style="fill: #254791;"/>
        <path d="M28.89,40.91c-.12-.28-.25-.55-.36-.82-.08-.2-.19-.32-.42-.37,.19-.09,.39-.17,.64-.29-.05,.16-.12,.26-.11,.35,0,.12,.07,.23,.12,.35,.19,.45,.39,.9,.58,1.35-.14,.19-.29,.12-.44,.05-.41-.2-.81-.4-1.21-.6-.12-.06-.25-.11-.37-.18-.02,.42,.37,1.17,.72,1.33-.22,.1-.41,.18-.6,.27-.03-.02-.05-.03-.08-.05,.27-.17,.15-.36,.08-.54-.13-.33-.28-.65-.42-.98-.12-.28-.13-.28-.43-.36,.32-.22,.59-.33,.96-.08,.4,.26,.86,.45,1.3,.66,.02-.03,.04-.06,.06-.08Z" style="fill: #254791;"/>
        <path d="M.37,19.35c.1,.22,.27,.28,.47,.3,.53,.08,1.05,.16,1.58,.25,.07,.22-.06,.31-.2,.4-.4,.25-.79,.49-1.19,.74-.11,.07-.22,.14-.33,.21,0,.03,0,.06,.01,.09,.4,.05,.8,.11,1.2,.14,.08,0,.17-.1,.3-.19-.03,.24-.05,.45-.07,.65-.16-.26-.42-.28-.66-.32-.3-.05-.6-.09-.9-.13q-.31-.04-.54,.17c-.03-.38,.02-.66,.41-.84,.44-.21,.84-.5,1.33-.8-.45-.15-.84-.17-1.22-.21-.08,0-.17,.11-.3,.2,.04-.25,.06-.47,.09-.68Z" style="fill: #254791;"/>
        <path d="M.01,22.95v-.56c.18,.05,.34,.12,.51,.14,.3,.03,.6,.01,.9,.03,.34,.02,.63,.15,.71,.51,.1,.39,.11,.8-.2,1.12-.09,.1-.27,.14-.41,.14-.31,.02-.63,0-.94,0q-.33,0-.58,.23v-.83c.2,.05,.39,.12,.58,.14,.3,.02,.6,.02,.9,0,.32-.02,.46-.23,.45-.57,0-.32-.15-.51-.45-.53-.37-.02-.74-.02-1.11,0-.11,0-.21,.11-.36,.19Z" style="fill: #254791;"/>
        <path d="M33.77,37.01c.18-.43,.15-.59-.09-.76-.2-.13-.3-.1-.57,.18,.2,.28,.47,.51,.71,.76,.11,.11,.22,.21,.32,.32,.13,.16,.28,.21,.48,.01-.1,.3-.34,.54-.68,.76,.03-.29,.03-.29-.18-.52-.25-.27-.52-.53-.77-.79-.13-.14-.26-.24-.5-.08,.15-.27,.81-.96,.98-1.05,.28-.16,.6-.03,.72,.3,.11,.31,0,.6-.4,.85Z" style="fill: #254791;"/>
        <path d="M4.14,14.07c.12,.08,.25,.15,.42,.25-.24,.46-.46,.9-.68,1.33-.16-.13-.28-.25-.43-.33-.28-.17-.58-.31-.87-.46-.33-.17-.33-.16-.66-.08,.24-.47,.47-.91,.71-1.38,.15,.07,.26,.13,.38,.19-.4,.03-.44,.36-.59,.64,.21,.12,.4,.23,.61,.36,.17-.22,.37-.39,.21-.72,.17,.09,.34,.18,.52,.26-.31,.06-.42,.27-.51,.56,.22,.12,.45,.24,.66,.35,.38-.4,.41-.57,.24-.97Z" style="fill: #254791;"/>
        <path d="M4.88,36.63c.11,.03,.17,.05,.27,.08,.07-.12,.14-.25,.22-.39-.09-.11-.17-.22-.26-.32-.26-.31-.26-.3-.64-.1v.27c-.22-.11-.3-.32-.46-.48,.47,.05,.85-.19,1.27-.31,.33-.1,.65-.21,.96-.32,.21,.1,.13,.24,.07,.38-.23,.47-.47,.93-.69,1.4-.07,.15-.12,.32-.18,.51-.21-.21-.43-.4-.57-.72Zm.18-.99c.16,.18,.26,.3,.41,.47,.13-.25,.22-.45,.32-.64-.02-.02-.04-.04-.05-.06-.2,.07-.4,.13-.68,.23Z" style="fill: #254791;"/>
        <path d="M38.23,22.62c.23,.03,.45,.07,.67,.08,.29,.02,.57,0,.86,.01,.22,0,.43,.02,.58-.32v1.62c-.14,.01-.27,.02-.39,.03,.32-.22,.23-.51,.22-.84-.23-.01-.45-.03-.69-.04-.06,.25-.14,.48,.19,.7h-.64c.25-.16,.26-.38,.21-.66h-.81c-.02,.32-.17,.66,.25,.88h-.43v-1.45Z" style="fill: #254791;"/>
        <path d="M12.47,7.07c-.25,.14-.51,.28-.76,.41-.01-.01-.03-.03-.04-.05,.03-.06,.07-.13,.11-.22-.1-.09-.21-.19-.34-.31-.23,.12-.46,.24-.7,.37,.02,.15,.05,.28,.07,.43,.1,.02,.18,.04,.37,.07-.26,.14-.45,.24-.7,.38,.18-.39,.09-.72,.06-1.05-.03-.35-.09-.7-.12-1.06,0-.11,.04-.23,.06-.34,.11,.04,.23,.05,.32,.12,.38,.29,.75,.6,1.13,.88,.17,.13,.35,.23,.55,.37Zm-1.84-.81c.04,.32,.06,.54,.09,.81,.2-.11,.35-.19,.54-.29-.21-.17-.38-.31-.63-.51Z" style="fill: #254791;"/>
        <path d="M32.88,38.2q-.33-.04-.69,.29c.16,.2,.32,.41,.48,.61,.55-.32,.6-.39,.58-.79,.09,.12,.18,.24,.29,.39-.4,.31-.77,.62-1.16,.92-.27-.58-.7-1.01-1.07-1.46-.06-.08-.22-.07-.38-.11,.41-.33,.79-.64,1.21-.98,.11,.13,.2,.24,.29,.34-.4-.17-.56,.14-.82,.34,.15,.2,.29,.39,.43,.58,.27-.13,.44-.28,.4-.67,.19,.24,.31,.39,.44,.55Z" style="fill: #254791;"/>
        <path d="M30.01,8.21c-.28-.15-.52-.28-.81-.44,.13-.04,.2-.07,.29-.1,.02-.12,.05-.26,.08-.42-.22-.13-.44-.25-.68-.39-.11,.09-.21,.18-.33,.27,.03,.1,.06,.18,.11,.33-.23-.12-.41-.21-.64-.33,.57-.17,.89-.61,1.31-.91,.16-.12,.31-.27,.47-.39,.06-.04,.18-.09,.21-.07,.06,.05,.11,.16,.11,.24-.03,.41-.08,.81-.11,1.22-.02,.31,0,.62,0,.98Zm-.98-1.49c.19,.1,.34,.19,.54,.3,.03-.29,.05-.5,.07-.71-.03,0-.05-.02-.08-.03-.16,.14-.32,.27-.53,.45Z" style="fill: #254791;"/>
        <path d="M19.4,41.46c.26,0,.27,.16,.32,.29,.15,.39,.3,.79,.46,1.18,.09,.24,.2,.46,.31,.7h-.9c.12-.1,.18-.14,.26-.21-.04-.13-.08-.27-.13-.43-.26-.01-.5-.03-.74-.04-.15,.21-.27,.39-.01,.6h-.6c.13-.22,.27-.41,.37-.62,.24-.49,.46-.99,.68-1.48Zm.23,1.33c-.1-.27-.18-.47-.29-.76-.13,.28-.22,.48-.34,.72,.23,.01,.39,.02,.62,.03Z" style="fill: #254791;"/>
        <path d="M1.79,31.86c.06,.03,.13,.06,.22,.11,.1-.09,.21-.19,.33-.29-.12-.27-.22-.49-.34-.74-.15,.02-.3,.03-.45,.05-.02,.1-.04,.17-.06,.28-.19-.16-.24-.37-.32-.58,.8,.18,1.58-.06,2.34-.01,.13,.18,.02,.28-.07,.38-.33,.38-.67,.75-1,1.14-.12,.14-.21,.3-.34,.48-.12-.25-.25-.51-.38-.77,.02-.02,.04-.03,.06-.05Zm1.2-.96c-.32,.01-.54-.05-.77,.09,.08,.17,.16,.31,.25,.5,.17-.19,.31-.34,.53-.58Z" style="fill: #254791;"/>
        <path d="M37.09,17.11c-.09-.27-.16-.46-.22-.63,.29,.04,.56,.09,.83,.11,.42,.03,.85,.03,1.27,.06,.1,0,.19,.07,.28,.1-.05,.09-.07,.2-.14,.27-.37,.36-.76,.7-1.14,1.06-.12,.12-.23,.26-.38,.43-.1-.27-.2-.53-.3-.82,.16-.02,.3,.17,.44-.01,.1-.13,.19-.22,.11-.39-.07-.16-.12-.33-.18-.48q-.42-.07-.58,.3Zm.99,.25c.21-.19,.37-.33,.6-.54-.31-.02-.54-.04-.79-.05,.02,.11,.03,.17,.05,.23,.03,.1,.08,.2,.14,.35Z" style="fill: #254791;"/>
        <path d="M13.6,40.34c-.08,.15-.15,.27-.22,.39,0-.3-.14-.49-.41-.59-.2-.07-.38-.01-.47,.14-.09,.16-.05,.31,.14,.45,.1,.08,.2,.14,.31,.21,.19,.13,.35,.28,.31,.53-.05,.27-.2,.48-.47,.57-.29,.1-.57,.04-.83-.1-.15-.08-.28-.2-.44-.32,.09-.18,.17-.33,.29-.55,.02,.53,.16,.73,.5,.8,.2,.04,.36-.03,.45-.2,.09-.18,.02-.32-.12-.43-.11-.09-.22-.16-.33-.24-.26-.2-.34-.44-.22-.72,.11-.26,.37-.43,.66-.39,.32,.03,.61,.15,.87,.42Z" style="fill: #254791;"/>
        <path d="M5.31,33.97c-.16,.08-.29,.14-.46,.23,.19-.39,.19-.58,0-.78-.13-.13-.28-.19-.44-.1-.17,.09-.21,.24-.14,.42,.04,.1,.08,.2,.12,.31,.15,.37,.12,.56-.09,.74-.24,.2-.61,.22-.88,.03-.32-.22-.49-.54-.55-.96,.15-.08,.29-.16,.48-.26-.08,.22-.18,.37-.18,.53,0,.12,.08,.26,.16,.37,.15,.2,.33,.23,.5,.12,.2-.12,.19-.28,.13-.47-.04-.13-.1-.26-.14-.38-.08-.3-.02-.5,.2-.65,.23-.16,.5-.18,.73-.02,.3,.2,.46,.49,.55,.88Z" style="fill: #254791;"/>
        <path d="M5.53,9.58c.11,.11,.21,.22,.36,.39-.13-.03-.18-.03-.24-.05-.3-.09-.65,.22-.6,.52,.04,.22,.26,.33,.47,.21,.14-.08,.26-.2,.4-.29,.41-.28,.87-.07,.95,.42,.04,.29-.03,.55-.24,.75-.16,.16-.35,.29-.54,.45-.16-.17-.27-.28-.38-.4,.44,.08,.64,.04,.82-.21,.13-.18,.14-.39,.02-.53-.13-.16-.27-.16-.51-.02-.09,.06-.18,.13-.27,.19-.31,.2-.51,.2-.74,0-.24-.21-.31-.52-.16-.82,.14-.28,.34-.49,.65-.62Z" style="fill: #254791;"/>
        <path d="M23.7,41.3v.46c-.15-.21-.31-.35-.59-.35-.5,.01-.82,.32-.82,.82,0,.78,.61,1.19,1.34,.92,.08-.03,.17-.07,.29-.05-.05,.06-.09,.15-.16,.19-.35,.19-.72,.25-1.11,.16-.48-.11-.79-.5-.83-1-.04-.52,.19-.91,.68-1.1,.37-.14,.76-.21,1.19-.05Z" style="fill: #254791;"/>
        <path d="M30.78,38.29c.07,.15,.13,.28,.23,.49-.18-.1-.28-.19-.39-.21-.11-.01-.25,.03-.35,.08-.45,.21-.59,.65-.37,1.09,.35,.69,1.04,.8,1.58,.26,.07-.07,.13-.13,.2-.22,.03,.06,.06,.1,.05,.12-.22,.48-.63,.71-1.12,.78-.45,.06-.79-.16-1.03-.54-.27-.42-.23-.91,.1-1.29,.26-.29,.63-.49,1.1-.57Z" style="fill: #254791;"/>
        <path d="M38.02,15.39c.29-.43,.28-.7,.02-1.01-.23-.27-.57-.33-.94-.17-.69,.31-.85,.97-.37,1.54,.07,.08,.14,.16,.26,.29-.14-.03-.21-.03-.26-.06-.42-.26-.69-.97-.57-1.45,.21-.78,1.23-1.08,1.81-.52,.32,.3,.48,.69,.55,1.17-.15,.06-.3,.12-.52,.21Z" style="fill: #254791;"/>
        <path d="M1.66,15.27c.16,.19,.28,.36,.43,.51,.33,.33,.68,.64,1.02,.96,.09,.09,.26,.15,.18,.32-.07,.17-.24,.11-.37,.12-.48,.03-.96,.03-1.44,.07-.19,.01-.38,.08-.61,.12,.1-.27,.2-.56,.34-.93,.05,.15,.08,.22,.12,.33h1.39c-.18-.32-.63-.74-1.03-.99-.07,.04-.14,.09-.21,.14-.02-.01-.04-.03-.06-.04,.08-.21,.15-.41,.23-.61Z" style="fill: #254791;"/>
        <path d="M35.19,33.9c.13,.14,.24,.25,.34,.35-.42-.08-.66,.04-.84,.4-.16,.33-.09,.64,.21,.92,.55,.51,1.22,.4,1.56-.28,.05-.09,.08-.18,.13-.28,.04,.04,.08,.06,.08,.07-.02,.5-.32,.83-.71,1.08-.36,.22-.73,.19-1.09-.02-.52-.3-.7-.87-.45-1.42,.16-.36,.42-.63,.77-.84Z" style="fill: #254791;"/>
        <path d="M28.49,5.11c-.08,.15-.15,.29-.26,.47-.07-.53-.26-.73-.67-.78-.37-.04-.65,.14-.82,.55-.26,.63,0,1.16,.66,1.32,.13,.03,.26,.05,.4,.07-.08,.18-.25,.16-.37,.13-.24-.05-.48-.12-.69-.24-.51-.28-.69-.79-.5-1.34,.18-.53,.6-.79,1.19-.72,.4,.05,.76,.21,1.06,.53Z" style="fill: #254791;"/>
        <path d="M30.42,8.55c.34-.03,.35-.02,.53-.27,.27-.36,.54-.72,.83-1.12-.15-.11-.29-.21-.42-.32-.1,.06-.18,.11-.29,.17-.03-.21,.14-.29,.22-.47,.53,.39,1.04,.77,1.58,1.16-.11,.13-.19,.25-.28,.36-.01-.31-.13-.52-.46-.61-.31,.42-.63,.84-.93,1.28-.05,.08,0,.23,.01,.4-.27-.2-.51-.38-.79-.59Z" style="fill: #254791;"/>
        <path d="M10.92,38.97c-.09,.15-.17,.26-.25,.38-.03-.31-.17-.5-.5-.58-.28,.43-.57,.88-.83,1.34-.05,.08,.02,.23,.04,.41-.28-.18-.54-.34-.82-.53,.34-.07,.34-.06,.52-.34,.24-.37,.47-.74,.72-1.14-.13-.09-.25-.18-.39-.27-.11,.05-.21,.1-.31,.15-.02-.01-.04-.03-.05-.04,.08-.13,.15-.26,.24-.41,.56,.35,1.09,.69,1.64,1.04Z" style="fill: #254791;"/>
        <path d="M2.49,27.89c.1,.32,.18,.6,.26,.89-.22-.17-.42-.1-.63-.03-.42,.13-.83,.25-1.24,.37,.04,.58,.12,.68,.53,.85-.15,.03-.3,.06-.49,.1-.2-.45-.27-.94-.44-1.42,.64,0,1.18-.25,1.75-.43,.09-.03,.15-.19,.26-.33Z" style="fill: #254791;"/>
        <path d="M33.92,11.71c.19-.11,.34-.17,.46-.27,.3-.22,.57-.47,.87-.68,.17-.12,.26-.26,.14-.49,.03,0,.07,0,.1-.01,.19,.23,.38,.47,.56,.71-.27-.09-.42,.07-.59,.2-.34,.27-.68,.55-1.02,.82,.25,.52,.37,.6,.8,.59-.12,.08-.24,.17-.41,.29-.31-.39-.61-.76-.92-1.15Z" style="fill: #254791;"/>
        <path d="M14.28,42.75c-.28-.09-.55-.19-.83-.28,.27-.12,.33-.35,.41-.58,.09-.27,.18-.55,.27-.82,.07-.2,.15-.4-.02-.63,.28,.09,.56,.18,.95,.32-.43,.07-.46,.34-.55,.59-.09,.26-.17,.52-.26,.78-.07,.2-.17,.4,.03,.63Z" style="fill: #254791;"/>
        <path d="M11.12,39.07c.33,.18,.59,.33,.84,.47-.24,.05-.35,.17-.44,.35-.16,.32-.34,.63-.51,.94-.1,.18-.19,.36,.02,.55-.03,.01-.05,.03-.08,.04-.26-.15-.53-.29-.79-.44,.29-.04,.39-.25,.5-.45,.16-.29,.32-.58,.47-.86,.13-.25,.12-.25,0-.61Z" style="fill: #254791;"/>
        <path d="M6.04,8.96c.22-.2,.43-.4,.65-.6-.04,.24,.05,.39,.2,.54,.26,.27,.5,.54,.75,.82,.13,.16,.27,.25,.51,.21-.22,.2-.44,.41-.65,.61,.05-.31-.15-.47-.31-.64-.21-.24-.42-.47-.64-.7-.13-.13-.24-.32-.51-.09,0-.04,0-.1,0-.14Z" style="fill: #254791;"/>
        <path d="M35.09,13.14c.24,.17,.42,.07,.61-.06,.27-.19,.55-.36,.82-.54q.26-.18,.29-.53c.11,.17,.21,.3,.29,.42,.08,.12,.16,.25,.23,.41-.22-.14-.39-.05-.55,.07-.29,.2-.59,.39-.89,.59-.26,.17-.26,.17-.29,.53-.2-.29-.37-.55-.53-.8,0-.02,.02-.05,.03-.08Z" style="fill: #254791;"/>
        <path d="M.5,18.85c.09-.37,.16-.65,.23-.93,.11,.27,.33,.29,.53,.34,.32,.08,.64,.15,.95,.25,.2,.06,.39,.11,.6-.07-.08,.29-.15,.58-.23,.87-.02,0-.05,.02-.08,.04-.02-.31-.24-.36-.45-.41-.33-.08-.66-.18-.99-.26-.24-.06-.24-.05-.56,.17Z" style="fill: #254791;"/>
        <path d="M37.6,33.93c-.16,.25-.32,.5-.48,.75-.03-.26-.19-.38-.37-.5-.3-.19-.6-.38-.9-.57-.16-.11-.31-.17-.5-.01,.11-.32,.27-.57,.51-.82-.04,.24,.07,.36,.25,.46,.32,.19,.63,.39,.93,.6,.17,.12,.33,.18,.52,.01,.01,.02,.02,.05,.04,.08Z" style="fill: #254791;"/>
        <path d="M31.94,25.54c-.14-2.07-.28-4.09-.42-6.1,.31-.09,.32-.09,.34,.19,.06,.74,.11,1.47,.17,2.21,0,.04,.02,.08,.08,.11-.04-.73-.09-1.46-.14-2.25,1.15,.15,2.25,.3,3.4,.46,0,.62,.22,1.21,.07,1.83-.02,.06-.02,.14,0,.19,.23,.59,.1,1.21,.25,1.84-1.14,.32-2.23,.62-3.38,.93-.02-.3-.03-.55-.04-.81,0,0-.02,0-.02,0v.97c.95-.27,1.87-.52,2.8-.79,.04,.1,.06,.18,.1,.31-1.05,.29-2.1,.58-3.2,.88Zm.69-.99c.9-.24,1.77-.48,2.65-.71-.02-.35-.04-.66-.06-.97-.01-.16-.04-.32-.06-.47-.37-.1-2.34,.03-2.69,.16,.05,.64,.1,1.29,.16,1.99Zm-.17-2.4c.24-.01,.45-.02,.66-.04,.57-.04,1.15-.09,1.72-.14,.27-.02,.33-.08,.32-.32-.02-.39-.07-.78-.11-1.2-.92-.12-1.81-.22-2.74-.34,.05,.72,.1,1.37,.14,2.04Zm-.31,1.59h.03v-.72h-.03v.72Z" style="fill: #254791;"/>
        <path d="M33.36,15.73c.25,.25,.59,.43,.49,.82-.1,.4-.49,.38-.82,.5,0,.15,.01,.31,0,.47-.03,.35-.21,.49-.55,.42-.09-.02-.18-.06-.27-.1-.09-.04-.17-.09-.26-.14-.12,.13-.23,.27-.36,.39-.31,.29-.61,.23-.79-.16-.07-.16-.11-.33-.17-.51-.2,0-.39,.02-.58,0-.3-.04-.45-.23-.37-.52,.06-.21,.17-.4,.28-.64-.09-.09-.22-.19-.33-.3-.27-.3-.21-.58,.15-.76,.13-.07,.28-.11,.45-.17,0-.15,0-.31,0-.47,.02-.47,.31-.66,.75-.48,.14,.06,.26,.14,.41,.22,.23-.2,.41-.53,.78-.43,.35,.1,.37,.44,.49,.75,.13,0,.28,0,.42,0,.47,.02,.65,.32,.47,.76-.05,.11-.11,.22-.18,.35Zm-1.66,.98c.34,0,.66-.37,.66-.76,0-.31-.38-.65-.72-.66-.34,0-.71,.39-.71,.76,0,.34,.38,.65,.77,.65Zm-.32,.43c-.18,.08-.36,.15-.57,.23,.06,.21,.09,.38,.17,.54,.1,.2,.25,.23,.43,.08,.14-.12,.25-.28,.38-.43-.15-.15-.27-.28-.42-.42Zm-.9-2.12h.56c.08-.17,.16-.34,.25-.53-.13-.09-.23-.18-.35-.23-.29-.14-.49-.03-.51,.29-.01,.16,.03,.31,.05,.48Zm-.32,1.36c-.17,.25-.45,.46-.26,.75,.17,.25,.46,.15,.74,.05v-.58c-.14-.07-.29-.13-.47-.22Zm2.82,.46c.29-.06,.62-.03,.69-.34,.07-.28-.2-.42-.41-.55-.02-.01-.05,0-.09,0-.12,.12-.24,.25-.38,.4,.05,.13,.11,.3,.19,.5Zm-.32-1.95v.51c.17,.08,.33,.15,.48,.22,.28-.3,.36-.49,.26-.65-.1-.17-.35-.19-.75-.07Zm-.62,2.61c.22,.18,.44,.37,.68,.24,.24-.13,.16-.4,.11-.63,0-.02-.03-.04-.07-.08h-.52c-.06,.15-.13,.29-.21,.47Zm-1.72-2.27c-.47,.08-.67,.18-.66,.34,.02,.28,.23,.41,.48,.54,.12-.11,.25-.23,.38-.36-.07-.18-.14-.35-.21-.53Zm1.25-.75c.14,.16,.26,.28,.38,.41,.19-.08,.35-.14,.51-.21-.06-.26-.05-.54-.31-.61-.29-.07-.42,.18-.58,.41Zm-.26,2.5c-.17-.13-.28-.21-.44-.33-.02,.2-.02,.32-.04,.5,.17-.06,.28-.1,.48-.16Zm-.77-1.77c.06,.17,.1,.27,.16,.46,.12-.16,.19-.27,.3-.42-.17-.02-.28-.02-.46-.04Zm1.1,1.8s0,.07-.01,.1c.08,.08,.16,.15,.28,.25,.06-.15,.1-.25,.16-.42-.19,.03-.31,.05-.42,.07Zm1.4-1.2c-.18-.08-.29-.12-.48-.2,.04,.22,.07,.33,.1,.52,.15-.12,.22-.19,.38-.32Zm-1.52-1.12s-.07,.03-.11,.04c-.04,.11-.08,.21-.12,.32,.19,.09,.3,.04,.42-.09-.07-.1-.14-.18-.2-.26Zm1.12,1.75c-.19,.11-.3,.19-.24,.39h.35c-.04-.13-.07-.24-.12-.39Zm-.2-1.08c0-.17,.01-.28,.02-.43-.14,.05-.25,.08-.44,.15,.17,.11,.27,.18,.42,.28Zm-2.14,.9c.19,.04,.28,.2,.45,.03-.03-.09-.07-.19-.12-.33-.11,.11-.19,.18-.32,.3Z" style="fill: #254791;"/>
        <path d="M6.4,16.37c.19,.06,.31,.12,.44,.15,.56,.18,1.13,.34,1.69,.52,.28,.09,.31,.15,.32,.45,.01,.35-.15,.6-.44,.78-.28,.17-.46,.15-.69-.09-.46-.5-.9-1-1.37-1.51-.11,.03-.22,.05-.37,.09,.03-.25-.03-.45,.25-.61,.2-.11,.31-.41,.42-.64,.03-.06-.06-.2-.12-.28-.06-.07-.17-.1-.23-.17-.04-.05-.08-.17-.05-.21,.05-.06,.15-.08,.24-.11,.02,0,.05,.02,.07,.03,.43,.2,.44,.2,.68-.21,.09-.15,.17-.31,.2-.48,.05-.24,.26-.25,.45-.4-.02,.33,.15,.43,.4,.5,.54,.15,1.08,.32,1.61,.49,.36,.11,.43,.22,.4,.59-.03,.36-.35,.69-.7,.77-.18,.03-.28-.06-.38-.18-.39-.42-.79-.84-1.18-1.26-.09-.1-.17-.22-.29-.39-.2,.31-.34,.51-.47,.73-.09,.16-.01,.29,.14,.38,.25,.15,.49,.3,.73,.46,.52,.33,1.05,.65,1.57,.98,.12,.08,.32,.15,.21,.34-.12,.21-.29,.07-.42-.02-.7-.43-1.39-.87-2.09-1.31-.08-.05-.16-.1-.24-.15-.16-.1-.29-.06-.38,.1-.12,.2-.24,.39-.4,.65Zm.74,.43s-.02,.05-.03,.08c.39,.25,.79,.49,1.21,.75,.08-.17,.14-.28,.21-.42-.49-.14-.94-.28-1.39-.41Zm2.87-1.92c-.49-.15-.95-.29-1.4-.43-.01,.02-.02,.05-.03,.08,.39,.25,.78,.49,1.19,.75,.09-.14,.15-.25,.25-.4Zm-.35,.58c-.55-.42-.95-.66-1.22-.7,.33,.35,.64,.69,.98,1.05,.1-.14,.16-.24,.24-.36Zm-2.7,1.63c.36,.39,.67,.72,1.01,1.08,.09-.17,.16-.28,.23-.42-.36-.23-.7-.43-1.04-.64-.03-.02-.07-.01-.2-.03Zm2.74-1.36s.05,.04,.08,.07c.24-.13,.36-.33,.36-.65-.05,.04-.1,.04-.11,.07-.11,.17-.22,.34-.32,.51Zm-1.53,2.43c.43-.21,.49-.32,.44-.68-.14,.22-.27,.42-.44,.68Z" style="fill: #254791;"/>
        <path d="M6.98,21.34c.07-.17,.18-.32,.34-.21,.25,.15,.49,.08,.74,.02,.06,0,.12,0,.2,.01-.1,.17-.19,.32-.26,.44,.1,.22,.36,.02,.38,.24,0,.12-.02,.24-.06,.36-.02,.15,.28,.14,.19,.34-.05,.1-.15,.19-.24,.28,.14,.39,.11,.44-.41,.51,.05,.17,.11,.34,.17,.54-.09-.01-.18-.01-.26-.04-.2-.06-.39-.15-.62-.05-.18,.08-.29-.07-.33-.28-.23,.14-.42,.18-.55-.09-.04-.07-.17-.12-.27-.15-.54-.19-1.09-.36-1.63-.54-.33-.11-.44-.36-.32-.63,.08-.18,.22-.26,.41-.29,.58-.09,1.16-.18,1.74-.29,.08-.01,.17-.07,.24-.12,.23-.21,.22-.21,.54-.04Zm.67,1.11c0-.26-.23-.5-.49-.49-.25,0-.46,.22-.46,.48,0,.27,.22,.5,.49,.49,.25,0,.46-.22,.46-.47Zm-1,.83s.02-.06,.04-.09c-.55-.3-1.11-.61-1.68-.91-.07,.15-.12,.26-.19,.4,.63,.21,1.23,.4,1.84,.61Zm.29-1.67c-.7,.08-1.38,.16-2.07,.35,.4,.28,.4,.3,.6,.23,.5-.19,.98-.38,1.47-.58Zm-2.48,.99c.17,0,.35-.16,.35-.33,0-.16-.15-.31-.31-.32-.17,0-.32,.12-.34,.29-.02,.18,.12,.36,.3,.37Zm1.38-.1c-.05-.12-.07-.18-.09-.23-.05,.02-.1,.05-.21,.1,.12,.05,.18,.08,.3,.13Z" style="fill: #254791;"/>
        <path d="M22.23,38.87c-.34-1.01-1.06-1.67-2.08-1.67-1.06-.01-1.8,.66-2.14,1.67-.45-.04-.51-.14-.34-.47,.27-.51,.64-.92,1.15-1.19,.07-.04,.14-.08,.21-.12,0,0,.01-.02,.04-.08-.3-.06-.58-.11-.87-.17-.13-.03-.27-.05-.4-.09-.05-.02-.11-.12-.1-.14,.03-.06,.1-.12,.16-.14,.06-.01,.13,.03,.2,.04,.62,.09,1.24,.22,1.87,.26,.47,.03,.95-.07,1.43-.12,.3-.03,.59-.09,.89-.16,.16-.03,.27-.02,.3,.2-.43,.22-.94,.18-1.44,.36,.15,.08,.25,.14,.36,.2,.49,.28,.85,.69,1.1,1.19,.16,.31,.09,.4-.35,.46Z" style="fill: #254791;"/>
        <path d="M24.59,33.46c.4,1.27-.59,2.79-1.88,2.92-.45-1.23,.55-2.79,1.88-2.92Z" style="fill: #254791;"/>
        <path d="M15.67,33.48c1.27,.05,2.33,1.68,1.88,2.89-1.3-.11-2.31-1.66-1.88-2.89Z" style="fill: #254791;"/>
        <path d="M26.51,32.45c.63,1.12-.04,2.79-1.31,3.19-.57-.77-.23-2.69,1.31-3.19Z" style="fill: #254791;"/>
        <path d="M13.72,32.46c1.33,.38,1.97,2.15,1.33,3.19-1.31-.41-1.92-2.07-1.33-3.19Z" style="fill: #254791;"/>
        <path d="M26.92,10.61s-.04-.09-.05-.16c-.05-.31,.04-.48,.33-.56,.16-.05,.26-.12,.34-.25,.13-.21,.29-.25,.44-.17,.15,.08,.18,.23,.08,.46-.02,.05-.04,.1-.07,.17,.35,.21,.41,.51,.28,.92-.17-.2-.32-.38-.52-.62-.04,.18-.11,.31-.1,.45,.05,.49,.02,.55-.46,.69-.02,0-.04,.03-.06,.05,.09,.57,.06,.62-.49,.87,.02,.09,.05,.18,.06,.27,.03,.25-.06,.41-.28,.48-.16,.05-.3,.08-.41,.23-.09,.13-.25,.11-.37,.03-.13-.09-.16-.22-.1-.36,.05-.11,.12-.22,.18-.33,.12-.2,.27-.39,.15-.67-.07-.18,.04-.35,.22-.44,.09-.05,.2-.08,.29-.11,0-.21-.06-.44,.02-.6,.07-.14,.29-.21,.5-.34Zm.52,.01c.12-.21,.22-.36,.31-.52,.17-.3,.17-.3,.08-.5-.24,.24-.38,.53-.5,.82-.01,.03,.04,.08,.1,.2Zm-1.72,2.69c.28-.1,.44-.34,.49-.71-.22,.03-.36,.22-.49,.71Zm1.26-1.9c.04-.2,.35-.31,.17-.58-.32,.32-.35,.38-.17,.58Zm-.33,.25q-.33,.41-.18,.61c.11-.18,.33-.3,.18-.61Z" style="fill: #254791;"/>
        <path d="M14.98,35.83c-.28,1.14-1.97,1.88-3.02,1.23,.27-1.15,1.94-1.87,3.02-1.23Z" style="fill: #254791;"/>
        <path d="M27.54,34.43c-.8-.91-.45-2.67,.67-3.21,.88,1.07,.32,2.76-.67,3.21Z" style="fill: #254791;"/>
        <path d="M25.26,35.84c.91-.59,2.65-.08,3.03,1.22-1.06,.65-2.74-.07-3.03-1.22Z" style="fill: #254791;"/>
        <path d="M14.75,38.38c.19-1.29,1.64-2.21,2.75-1.77-.07,1.08-1.43,2.2-2.75,1.77Z" style="fill: #254791;"/>
        <path d="M22.75,36.62c1.1-.44,2.44,.41,2.75,1.73-1.23,.56-2.74-.66-2.75-1.73Z" style="fill: #254791;"/>
        <path d="M13.77,10.46c.17,.45-.12,.75-.32,1.08,.53,.28,.56,.38,.3,.95,.38,.4,.79,.13,1.21,.05-.68,.47-1.4,.86-2.13,1.25,.23-.33,.7-.53,.57-1.05-.2-.06-.44-.07-.56-.2-.12-.12-.12-.36-.19-.57-.34,.05-.72,.08-1.03-.22,.19-.22,1.54-1.03,2.14-1.28Z" style="fill: #254791;"/>
        <path d="M12.72,34.44c-1.26-.66-1.38-2.42-.71-3.2,1,.34,1.55,2.11,.71,3.2Z" style="fill: #254791;"/>
        <path d="M9.54,35.25c.53-.98,2.02-1.42,3.04-.67-.41,1.06-2.07,1.44-3.04,.67Z" style="fill: #254791;"/>
        <path d="M30.7,35.26c-1.11,.87-2.68,.24-3.05-.63,.71-.7,2.39-.55,3.05,.63Z" style="fill: #254791;"/>
        <path d="M10.64,29.79c.95,.68,1.02,2.36,.12,3.11-.95-.68-1.02-2.21-.12-3.11Z" style="fill: #254791;"/>
        <path d="M29.48,32.91c-.9-.92-.83-2.41,.13-3.12,.97,.88,.73,2.55-.13,3.12Z" style="fill: #254791;"/>
        <path d="M10.6,33.08c-.84,.91-2.34,.73-2.96-.08,.53-.81,2.27-.88,2.96,.08Z" style="fill: #254791;"/>
        <path d="M32.61,32.96c-.61,.88-2.24,1-2.95,.11,.54-.83,2.14-.99,2.95-.11Z" style="fill: #254791;"/>
        <path d="M9.21,31.22c-.71-.64-.65-2.25,.31-2.78,.68,.58,.69,2.17-.31,2.78Z" style="fill: #254791;"/>
        <path d="M31.01,31.23c-.98-.68-.98-2.18-.3-2.78,.84,.42,1.12,2,.3,2.78Z" style="fill: #254791;"/>
        <path d="M31.19,31.36c.49-.91,2.03-1.06,2.71-.36-.28,.74-1.84,1.21-2.71,.36Z" style="fill: #254791;"/>
        <path d="M9.05,31.35c-.65,.7-2.13,.61-2.73-.31,.47-.66,2.12-.72,2.73,.31Z" style="fill: #254791;"/>
        <path d="M11.44,11.48c-.12-.64,.22-.99,.59-1.31,0-.27-.21-.13-.32-.17,.04-.15,.08-.29,.11-.44,.13,.03,.27,.07,.44,.11-.04,.05-.08,.09-.1,.15-.06,.14,0,.22,.15,.2,.16-.02,.32-.09,.48-.11,.3-.04,.59,0,.87,.29-.73,.43-1.43,.83-2.21,1.28Z" style="fill: #254791;"/>
        <path d="M18.11,28.13c1.14,.68,2.2,1.31,3.26,1.94-.01,.02-.02,.05-.03,.07h-3.35c.04-.65,.08-1.28,.12-2.01Z" style="fill: #254791;"/>
        <path d="M21.98,30.01c-1.12-.66-2.18-1.28-3.26-1.91,.32-.11,2.49-.13,3.13-.04,.02,.3,.04,.61,.07,.92,.02,.31,.04,.63,.06,1.04Z" style="fill: #254791;"/>
        <path d="M17.63,30.56c-.05,.7-.1,1.38-.15,2.15-.91-.74-1.75-1.42-2.61-2.12,.32-.09,2.22-.11,2.76-.03Z" style="fill: #254791;"/>
        <path d="M21.83,27.67h-3.08s-.02-.04-.03-.06c.98-.59,1.96-1.19,3-1.82,.04,.67,.07,1.26,.11,1.88Z" style="fill: #254791;"/>
        <path d="M22.39,30.53h2.69l.03,.07c-.83,.68-1.66,1.35-2.57,2.08-.06-.76-.1-1.45-.15-2.15Z" style="fill: #254791;"/>
        <path d="M18.14,27.44c.06-.6,.11-1.17,.17-1.76h2.77c-.16,.21-2.46,1.59-2.94,1.76Z" style="fill: #254791;"/>
        <path d="M17.59,30.13h-2.6s-.02-.05-.03-.07c.9-.6,1.8-1.2,2.77-1.85,.02,.69-.07,1.3-.14,1.91Z" style="fill: #254791;"/>
        <path d="M24.95,30.13h-2.61c-.05-.62-.09-1.22-.15-1.92,.98,.65,1.89,1.25,2.79,1.85-.01,.02-.02,.05-.04,.07Z" style="fill: #254791;"/>
        <path d="M18.39,23.59c.96,.56,1.85,1.08,2.77,1.62-.31,.1-2.25,.13-2.85,.04,.03-.52,.05-1.05,.08-1.66Z" style="fill: #254791;"/>
        <path d="M19.04,23.52h2.52c.04,.52,.07,1.02,.11,1.53-.29-.06-2.2-1.16-2.63-1.53Z" style="fill: #254791;"/>
        <path d="M19.04,22.99c.77-.49,1.53-.97,2.34-1.49,.12,.53,.13,1.02,.15,1.55h-2.46s-.02-.04-.03-.06Z" style="fill: #254791;"/>
        <path d="M18.46,22.91c0-.16,0-.28,0-.4,.03-.36,.06-.73,.09-1.12h2.29c-.18,.22-1.69,1.19-2.38,1.52Z" style="fill: #254791;"/>
        <path d="M18.55,20.96c.03-.46,.07-.88,.1-1.32,.3,.08,1.58,.84,2.18,1.29-.22,.11-1.66,.13-2.28,.03Z" style="fill: #254791;"/>
        <path d="M22.17,32.71c-.63-.37-1.19-.7-1.82-1.06,.57-.36,1.1-.65,1.69-.99,.04,.7,.08,1.33,.13,2.05Z" style="fill: #254791;"/>
        <path d="M19.63,31.64c-.62,.36-1.18,.68-1.81,1.05,.04-.71,.08-1.35,.12-2.05,.58,.34,1.09,.65,1.68,1Z" style="fill: #254791;"/>
        <path d="M21.39,20.86c-.79-.48-1.49-.91-2.2-1.34,0-.02,.02-.05,.03-.07h2.07c.03,.45,.06,.88,.1,1.41Z" style="fill: #254791;"/>
        <path d="M21.43,30.6c-.28,.16-.57,.29-.82,.49-.44,.35-.83,.35-1.26,0-.24-.19-.52-.33-.76-.55h2.81s.02,.04,.03,.06Z" style="fill: #254791;"/>
        <path d="M21.27,19.06h-1.99c.15-.22,1.3-1.02,1.89-1.3,.03,.43,.06,.84,.1,1.3Z" style="fill: #254791;"/>
        <path d="M18.79,17.61h1.81s.02,.04,.02,.07c-.61,.39-1.22,.79-1.88,1.21-.06-.45,.01-.85,.05-1.28Z" style="fill: #254791;"/>
        <path d="M20.58,17.17h-1.77c.03-.38,.06-.72,.09-1.11,.35,.1,.59,.33,.88,.51,.28,.17,.54,.35,.82,.53,0,.02-.01,.05-.02,.07Z" style="fill: #254791;"/>
        <path d="M19.47,15.88h1.58c.03,.37,.07,.73,.11,1.14-.36-.12-.61-.36-.9-.53-.28-.17-.55-.36-.82-.53,0-.03,.02-.05,.02-.08Z" style="fill: #254791;"/>
        <path d="M16.56,19.06c.07-.44,.13-.82,.2-1.19,.25,.09,.95,.75,1.25,1.19h-1.45Z" style="fill: #254791;"/>
        <path d="M21.63,17.85c.47,.38,.94,.76,1.41,1.14-.01,.02-.02,.04-.03,.06h-1.37c-.03-.39-.06-.77-.09-1.16,.03-.01,.05-.02,.08-.04Z" style="fill: #254791;"/>
        <path d="M20.99,14.4c.02,.44,.04,.76,.05,1.1h-1.57s-.02-.04-.03-.07c.49-.33,.98-.65,1.55-1.04Z" style="fill: #254791;"/>
        <path d="M25.3,17.77c.06,.47,.12,.86,.18,1.27h-1.45c.44-.44,.82-.82,1.27-1.27Z" style="fill: #254791;"/>
        <path d="M24.88,17.61c-.38,.39-.76,.77-1.16,1.17-.06-.37-.11-.76-.18-1.17h1.34Z" style="fill: #254791;"/>
        <path d="M14.9,18.97c.48-.37,.96-.74,1.44-1.11,.03,.01,.05,.03,.08,.04-.06,.38-.13,.75-.19,1.15h-1.28l-.04-.07Z" style="fill: #254791;"/>
        <path d="M19.06,14.27h1.38l.03,.07c-.48,.31-.96,.62-1.51,.98-.02-.4,.02-.72,.1-1.06Z" style="fill: #254791;"/>
        <path d="M23.21,17.59c.06,.4,.12,.77,.18,1.19-.33-.12-.53-.37-.77-.55-.24-.18-.47-.37-.78-.63,.51-.04,.93-.03,1.37,0Z" style="fill: #254791;"/>
        <path d="M14.8,17.59h1.22c-.12,.23-.97,.91-1.43,1.14,.07-.38,.14-.74,.21-1.14Z" style="fill: #254791;"/>
        <path d="M17.16,17.6h1.28c-.02,.39-.04,.76-.07,1.14-.27-.12-.9-.72-1.21-1.14Z" style="fill: #254791;"/>
        <path d="M17.05,19.42h1.23v.94c-.48-.3-.86-.58-1.26-.86,.01-.03,.02-.05,.03-.08Z" style="fill: #254791;"/>
        <path d="M21.7,19.43h1.21c-.15,.24-.8,.71-1.21,.86v-.86Z" style="fill: #254791;"/>
        <path d="M16.24,19.41c.09,.29,.17,.56,.29,.93-.54-.31-.99-.57-1.5-.86,.23-.11,.42-.06,.59-.07,.19-.01,.38,0,.63,0Z" style="fill: #254791;"/>
        <path d="M24.89,19.5c-.45,.26-.91,.52-1.44,.82,.11-.35,.19-.63,.27-.91h1.14s.02,.06,.04,.08Z" style="fill: #254791;"/>
        <path d="M16.94,20.5c-.08-.27-.15-.5-.21-.73,.02-.01,.04-.03,.06-.04,.32,.23,.64,.45,1.01,.71-.31,.13-.56,.06-.86,.06Z" style="fill: #254791;"/>
        <path d="M23.02,20.51h-.78c.17-.24,.56-.53,1-.76,0,.06,0,.12-.02,.17-.06,.2-.13,.39-.2,.59Z" style="fill: #254791;"/>
        <path d="M15,19.83c.35,.2,.71,.41,1.06,.61,0,.02-.01,.04-.02,.06h-.68c-.13-.2-.28-.41-.42-.62,.02-.02,.04-.04,.06-.06Z" style="fill: #254791;"/>
        <path d="M24.97,19.83c-.33,.74-.36,.75-1.07,.63,.4-.23,.73-.43,1.07-.63Z" style="fill: #254791;"/>
        <path d="M31.64,16.52c-.29,0-.51-.22-.52-.52,0-.29,.22-.52,.51-.53,.29-.01,.56,.25,.54,.54,0,.29-.25,.51-.53,.5Z" style="fill: #254791;"/>
        <path d="M4.78,22.31c-.16,.08-.26,.18-.35,.17-.07,0-.17-.14-.17-.23,0-.13,.11-.23,.25-.19,.09,.03,.15,.13,.27,.25Z" style="fill: #254791;"/>
      </g>
    </g>
  </g>
</svg>