<?xml version="1.0" encoding="UTF-8"?>
<svg id="Capa_2" data-name="Capa 2" xmlns="http://www.w3.org/2000/svg" viewBox="0 0 117.36 45.09">
  <defs>
    <style>
      .cls-1 {
        fill-rule: evenodd;
      }

      .cls-1, .cls-2 {
        fill: #070809;
      }
    </style>
  </defs>
  <g id="Capa_1-2" data-name="Capa 1">
    <g>
      <path class="cls-2" d="M0,0V27.26c0,9.86,7.96,17.84,17.79,17.84h.84c9.83,0,17.79-7.98,17.79-17.84V0H0ZM33.52,30.13c.3-.55,.38-1.58,.21-3.12,.27-.03,.54-.19,.77-.47,.14,1.52-.19,2.72-.98,3.59Zm-6.46,4.47c1.01-.24,2.54-.14,4.56,.33-1.23,1.13-2.74,1.86-4.55,2.2,.26-.92,.26-1.77-.01-2.53Zm4.49-6c.51-.17,1.14-.59,1.9-1.26,.28,1.79-.19,3.19-1.44,4.21-.04-1.3-.2-2.27-.46-2.94Zm.88-5.32c.42,.43,.68,1.45,.79,3.05-1.47,.74-2.66,2.04-3.59,3.9-.4-1.58-.24-2.97,.48-4.17,.33,.79,.7,1.31,1.11,1.56-.17-1.61,.24-3.06,1.21-4.34Zm-.54,8.96c.54-.36,1.14-1,1.83-1.9,.22,1.63-.42,3-1.9,4.09,.2-.82,.23-1.55,.08-2.19Zm-.69-28.16l.59-1.83,.6,1.83h1.93l-1.56,1.13,.6,1.84-1.56-1.14-1.55,1.14,.6-1.84-1.56-1.13h1.93Zm0,8.39l.59-1.83,.6,1.83h1.93l-1.56,1.14,.6,1.83-1.56-1.13-1.55,1.13,.6-1.83-1.56-1.14h1.93Zm-.31,17.07c.69,1.19,.78,2.55,.29,4.07-.76,.29-1.4,.39-1.92,.3-.03-.92,.52-2.39,1.64-4.37Zm-2,4.19c-.58,.21-1.04,.29-1.37,.22,.16-1.03,.48-1.91,.95-2.66,.39,.3,.54,1.11,.42,2.44ZM24.4,4.08l.6-1.83,.6,1.83h1.92l-1.56,1.13,.6,1.84-1.56-1.14-1.56,1.14,.6-1.84-1.55-1.13h1.92Zm-6.78,0l.6-1.83,.59,1.83h1.92l-1.56,1.13,.59,1.84-1.55-1.14-1.56,1.14,.6-1.84-1.56-1.13h1.93Zm-6.79,0l.59-1.83,.6,1.83h1.93l-1.56,1.13,.59,1.84-1.56-1.14-1.56,1.14,.6-1.84-1.56-1.13h1.93Zm-1.99,4.8H27.57V26.52c0,5.18-4.19,9.38-9.36,9.38s-9.36-4.2-9.36-9.38V8.88Zm17.16,29.24c-.41-.33-1.09-.49-2.04-.51,.52-1.35,1.34-2.52,2.44-3.51,.85,1.56,.72,2.9-.4,4.01Zm-13.3-.78c-.99-.19-1.74-.14-2.23,.17-.52-.74-.72-1.54-.63-2.41,1.14,.16,2.09,.9,2.86,2.25Zm-2.47-3.23c-.6,.08-1.02,.21-1.28,.39-.6-.81-.96-1.72-1.07-2.75,1.02,.2,1.8,.98,2.34,2.36Zm-5.23-2.73c-.24,.71-.27,1.56-.08,2.56-1.41-1.15-2.29-2.33-2.63-3.53,1.16,.2,2.06,.53,2.7,.98Zm-1.36-3.88c.55,.07,1.25,.4,2.12,1.01-.02-1.21,.29-2.19,.93-2.94,.36,.63,.44,1.82,.24,3.57-.4-.16-.77-.24-1.12-.24-.27,.13-.57,.75-.89,1.83-.73-1.02-1.16-2.1-1.28-3.23Zm5.22,7.21c-.09,.7,.07,1.49,.5,2.36-1.95-.4-3.52-1.28-4.72-2.64,.84-.16,2.24-.07,4.22,.28Zm-2.62-1.01c-.49-1.64-.58-3.07-.28-4.3,.81,1.12,1.37,2.58,1.66,4.4-.58-.11-1.04-.14-1.38-.11ZM4.04,4.08l.6-1.83,.59,1.83h1.92l-1.55,1.13,.6,1.84-1.56-1.14-1.56,1.14,.59-1.84-1.56-1.13h1.92Zm0,8.39l.6-1.83,.59,1.83h1.92l-1.55,1.14,.6,1.83-1.56-1.13-1.56,1.13,.59-1.83-1.56-1.14h1.92Zm-1.93,12.56c.53,.14,1.07,.54,1.61,1.2,.04-1.41,.21-2.31,.53-2.67,.86,.89,1.24,2.19,1.14,3.9-.93-.4-1.6-.59-2-.59-.45,.52-.66,1.26-.68,2.21-1.01-1.07-1.21-2.41-.6-4.05Zm4,12c1.1-.02,2.11,.25,3.02,.81-.52,.19-.88,.55-1.08,1.07-1.09-.67-1.74-1.3-1.94-1.88Zm7.35,1.67c-.44,.28-.72,.51-.84,.72-1.58,.51-3.01,.41-4.28-.31,1.44-1.07,3.14-1.2,5.12-.41Zm7.62,2.18c-.33-.03-.82,.08-1.47,.32,.45,.11,.95,.41,1.5,.92-.25,.12-.52,.33-.79,.64-.56-.58-1.37-.95-2-1.12-.82,.38-1.32,.86-1.93,1.45-.35-.16-.73-.26-1.16-.31,.21-.35,.89-.9,2.06-1.63-.2-.09-.53-.13-1-.13-2.15,1.03-4.06,.84-5.72-.56,1.01-.48,2.43-.58,4.26-.32-1.03-.99-1.56-2.14-1.6-3.45,1.75,.59,2.86,1.77,3.32,3.77,.76-.05,1.21,.14,1.77,.35,.6-.27,1.66-.56,2.53-.66,.53-1.92,1.45-3.11,2.74-3.57,.37,.97,.08,2.18-.89,3.63,1.7,.11,2.79,.57,3.26,1.38-1.78,.68-3.41,.45-4.88-.71Zm2.65-.8l.12-1.63c1.45,.01,2.72,.39,3.78,1.13-.7,.46-2,.62-3.9,.5Zm2.69-1.94c1.09-.93,2.45-1.35,4.09-1.25-.25,1.12-.98,2-2.19,2.62-.3-.46-.94-.92-1.9-1.36Z"/>
      <path class="cls-2" d="M16.15,15.7h4.32c.96-1.47,.02-2.03,.18-2.85-.55,.18-.59,.93-.92,1.28-.82-1.19,.65-3.15-.33-4.34,.04,1.15-1.05,1.62-1.36,3.24-.35-1.01,.42-1.93-.3-2.93-.14,.92-1.18,1.59-1.03,3.17-.41-.36-.6-1.12-.98-1.14,.3,.91-.89,2.23,.43,3.58"/>
      <path class="cls-2" d="M20.26,9.89c.23,.72,.23,1.54-.02,2.44,.79-.82,.8-1.63,.02-2.44"/>
      <polygon class="cls-2" points="16.69 16.91 16.48 17.34 20.14 17.34 19.93 16.91 16.69 16.91"/>
      <polygon class="cls-2" points="20.33 18.37 16.3 18.37 16.08 18.8 20.54 18.8 20.33 18.37"/>
      <polygon class="cls-2" points="19.49 21.64 19.95 19.69 16.68 19.69 17.14 21.64 19.49 21.64"/>
      <path class="cls-2" d="M15.71,23.25c.1,0,.19-.04,.25-.11h4.69c.07,.07,.15,.11,.26,.11,.19,0,.34-.16,.34-.34s-.15-.35-.34-.35c-.1,0-.19,.05-.26,.11h-4.69c-.06-.06-.15-.11-.25-.11-.19,0-.34,.16-.34,.35s.15,.34,.34,.34"/>
      <path class="cls-2" d="M18.31,24.25c-.64,0-1.16,.52-1.16,1.16l.98,8.73c-.14,.06-.24,.21-.24,.37,0,.23,.18,.42,.41,.42s.41-.18,.41-.42c0-.16-.1-.29-.23-.36l.98-8.75c0-.64-.52-1.16-1.16-1.16"/>
      <path class="cls-1" d="M47.27,8.06h-1.83v7.1c0,1.31-.51,2.05-1.73,2.05-.84,0-1.54-.66-1.54-2.16v-6.99h-1.83v7.14c.02,1.08,.2,1.95,.67,2.61,.77,1.07,1.94,1.31,2.73,1.31,2.17,0,3.53-1.21,3.53-4.05v-7.01Z"/>
      <path class="cls-1" d="M53.92,13.3c0-1.75-.97-2.67-2.21-2.67s-1.68,.9-1.91,1.38h-.03v-1.17h-1.6v7.98h1.68v-4.58c0-1.21,.58-1.85,1.32-1.85,1.06,0,1.09,.99,1.09,1.57v4.85h1.68v-5.52Z"/>
      <path class="cls-1" d="M54.84,18.83h1.68v-7.98h-1.68v7.98Zm1.68-10.88h-1.68v1.95h1.68v-1.95Z"/>
      <polygon class="cls-1" points="63.65 10.84 61.86 10.84 60.51 16.73 60.48 16.73 59.17 10.84 57.3 10.84 59.58 18.83 61.35 18.83 63.65 10.84"/>
      <path class="cls-1" d="M67.78,16.49c-.13,.57-.61,.87-1.07,.87-1.36,0-1.45-1.35-1.5-1.95h4.37v-.37c0-3.64-1.74-4.39-3-4.39-2.78,0-3.05,3.07-3.05,4.03,0,3.29,1.38,4.37,3.18,4.37,1.09,0,2.36-.63,2.8-2.55h-1.73Zm-2.52-2.44c.09-1.05,.51-1.69,1.3-1.69,.54,0,1.2,.4,1.29,1.69h-2.59Z"/>
      <path class="cls-1" d="M70.26,18.83h1.68v-4.16c0-.88,.24-1.91,1.54-1.91,.16,0,.33,0,.48,.03v-2.13c-.11-.02-.22-.03-.32-.03-1.02,0-1.4,.78-1.75,1.59h-.03v-1.38h-1.6v7.98Z"/>
      <path class="cls-1" d="M79.78,13.28c-.13-2.26-1.61-2.64-2.86-2.64-1.99,0-2.58,1.5-2.58,2.67,0,2.98,3.95,1.98,3.95,3.31,0,.3-.2,.82-1.07,.82-1.05,0-1.39-.5-1.39-1.17h-1.72c.04,2.13,1.61,2.76,3.05,2.76,1,0,2.8-.42,2.8-2.75,0-2.94-4-2.02-4-3.29,0-.35,.12-.78,1.04-.78s1.05,.54,1.12,1.05h1.64Z"/>
      <path class="cls-1" d="M80.58,18.83h1.67v-7.98h-1.67v7.98Zm1.67-10.88h-1.67v1.95h1.67v-1.95Z"/>
      <path class="cls-1" d="M89.1,8.06h-1.67v3.82h-.02c-.26-.51-.77-1.24-1.85-1.24-1.41,0-2.65,1.34-2.65,4.11,0,2.19,.79,4.29,2.68,4.29,.7,0,1.44-.32,1.85-1.21h.02v1h1.64V8.06Zm-4.46,6.84c0-1.26,.35-2.45,1.42-2.45,1.15,0,1.44,1.29,1.44,2.57,0,1.18-.41,2.29-1.48,2.29s-1.38-1.47-1.38-2.41"/>
      <path class="cls-1" d="M95.32,12.95c0-1.97-1.64-2.31-2.53-2.31-1.31,0-2.66,.34-2.85,2.79h1.61c.05-.46,.19-1.11,1.03-1.11,.43,0,1.1,.05,1.1,.93,0,.45-.32,.59-.59,.63l-1.5,.28c-1.07,.2-1.86,.99-1.86,2.55,0,1.65,.99,2.32,1.94,2.32,1.14,0,1.68-.66,2.06-1.16,.04,.45,.06,.57,.16,.95h1.81v-.31c-.21-.09-.38-.3-.38-1.24v-4.32Zm-1.64,3.01c0,.98-.75,1.58-1.5,1.58-.32,0-.77-.23-.77-.96,0-.87,.51-1.07,1.14-1.2,.69-.13,.97-.27,1.14-.43v1.02Z"/>
      <path class="cls-1" d="M101.96,8.06h-1.68v3.82h-.03c-.26-.51-.77-1.24-1.84-1.24-1.41,0-2.65,1.34-2.65,4.11,0,2.19,.79,4.29,2.68,4.29,.7,0,1.44-.32,1.85-1.21h.02v1h1.64V8.06Zm-4.47,6.84c0-1.26,.36-2.45,1.42-2.45,1.15,0,1.44,1.29,1.44,2.57,0,1.18-.42,2.29-1.48,2.29s-1.38-1.47-1.38-2.41"/>
      <path class="cls-1" d="M46.53,21.52h-1.68v3.83h-.02c-.27-.51-.77-1.24-1.84-1.24-1.41,0-2.65,1.35-2.65,4.11,0,2.19,.78,4.29,2.68,4.29,.7,0,1.44-.31,1.84-1.22h.03v1.01h1.64v-10.78Zm-4.47,6.85c0-1.26,.36-2.45,1.42-2.45,1.15,0,1.44,1.3,1.44,2.57,0,1.19-.42,2.29-1.49,2.29s-1.38-1.47-1.38-2.42"/>
      <path class="cls-1" d="M51.08,29.96c-.13,.57-.61,.87-1.07,.87-1.36,0-1.45-1.36-1.5-1.95h4.37v-.37c0-3.65-1.73-4.39-2.99-4.39-2.8,0-3.06,3.07-3.06,4.03,0,3.29,1.38,4.37,3.18,4.37,1.09,0,2.36-.63,2.8-2.55h-1.73Zm-2.52-2.45c.09-1.05,.51-1.68,1.3-1.68,.53,0,1.2,.39,1.3,1.68h-2.6Z"/>
      <path class="cls-1" d="M62.39,25.05c-.1-1.59-1.14-3.81-3.71-3.81-2.21,0-3.95,1.92-3.95,5.68s1.64,5.66,3.93,5.66c2.15,0,3.37-1.63,3.73-3.98h-1.8c-.22,1.32-.91,2.03-1.9,2.03-1.52,0-2.13-1.74-2.13-3.68,0-3.05,1.27-3.77,2.13-3.77,1.49,0,1.76,1.22,1.9,1.86h1.8Z"/>
      <path class="cls-1" d="M69.4,28.31c0-2.88-1.55-4.2-3.26-4.2s-3.25,1.32-3.25,4.2,1.54,4.2,3.25,4.2,3.26-1.32,3.26-4.2m-1.72,0c0,1.02-.24,2.43-1.54,2.43s-1.53-1.41-1.53-2.43,.24-2.43,1.53-2.43,1.54,1.41,1.54,2.43"/>
      <path class="cls-1" d="M75.64,26.77c0-1.75-.97-2.67-2.21-2.67s-1.69,.91-1.92,1.38h-.03v-1.17h-1.6v7.99h1.67v-4.58c0-1.22,.58-1.85,1.32-1.85,1.06,0,1.09,.99,1.09,1.57v4.85h1.68v-5.53Z"/>
      <path class="cls-1" d="M80.42,29.39c0,.37-.29,1.39-1.14,1.39-1.26,0-1.29-1.72-1.29-2.6,0-.98,.27-2.31,1.32-2.31,.78-.06,1.04,.76,1.11,1.29h1.71c-.16-2.49-1.82-3.06-2.82-3.06-2.15,0-3.05,1.85-3.05,4.43,0,1.68,.55,3.98,2.95,3.98s2.85-2.29,2.91-3.12h-1.7Z"/>
      <path class="cls-1" d="M86.74,29.96c-.13,.57-.6,.87-1.07,.87-1.35,0-1.45-1.36-1.5-1.95h4.38v-.37c0-3.65-1.74-4.39-2.99-4.39-2.8,0-3.05,3.07-3.05,4.03,0,3.29,1.38,4.37,3.17,4.37,1.09,0,2.36-.63,2.8-2.55h-1.73Zm-2.53-2.45c.1-1.05,.52-1.68,1.31-1.68,.54,0,1.19,.39,1.29,1.68h-2.6Z"/>
      <path class="cls-1" d="M90.8,28.49c0-1.27,.28-2.57,1.43-2.57,1.07,0,1.43,1.19,1.43,2.45,0,.95-.3,2.42-1.38,2.42s-1.48-1.11-1.48-2.29m0-4.17h-1.6v11.11h1.68v-4.14h.03c.2,.43,.62,1.23,1.8,1.23,1.89,0,2.68-2.1,2.68-4.29,0-2.76-1.24-4.11-2.65-4.11-1.12,0-1.59,.73-1.9,1.36h-.03v-1.16Z"/>
      <path class="cls-1" d="M99.9,29.39c0,.37-.29,1.39-1.14,1.39-1.28,0-1.3-1.72-1.3-2.6,0-.98,.28-2.31,1.33-2.31,.78-.06,1.04,.76,1.11,1.29h1.7c-.15-2.49-1.81-3.06-2.81-3.06-2.16,0-3.06,1.85-3.06,4.43,0,1.68,.56,3.98,2.95,3.98s2.85-2.29,2.91-3.12h-1.7Z"/>
      <path class="cls-1" d="M102.14,32.3h1.68v-7.99h-1.68v7.99Zm1.68-10.88h-1.68v1.95h1.68v-1.95Z"/>
      <path class="cls-1" d="M110,21.04h-1.85l-1.12,2.19h1.21l1.76-2.19Zm.99,7.26c0-2.88-1.54-4.2-3.26-4.2s-3.26,1.32-3.26,4.2,1.55,4.2,3.26,4.2,3.26-1.32,3.26-4.2m-1.72,0c0,1.02-.24,2.43-1.54,2.43s-1.53-1.41-1.53-2.43,.24-2.43,1.53-2.43,1.54,1.41,1.54,2.43"/>
      <path class="cls-1" d="M117.36,26.77c0-1.75-.97-2.67-2.22-2.67s-1.69,.91-1.92,1.38h-.02v-1.17h-1.6v7.99h1.67v-4.58c0-1.22,.57-1.85,1.32-1.85,1.06,0,1.09,.99,1.09,1.57v4.85h1.68v-5.53Z"/>
    </g>
  </g>
</svg>