<?xml version="1.0" encoding="UTF-8"?>
<svg xmlns="http://www.w3.org/2000/svg" viewBox="0 0 108.49 43.49">
  <g id="Capa_1" data-name="Capa 1"/>
  <g id="Capa_2" data-name="Capa 2">
    <g id="Capa_1-2" data-name="Capa 1">
      <g>
        <path d="M0,0V26.29c0,9.5,7.36,17.2,16.45,17.2h.77c9.08,0,16.45-7.7,16.45-17.2V0H0ZM30.98,29.06c.28-.53,.35-1.53,.19-3.01,.26-.04,.5-.19,.72-.46,.13,1.47-.18,2.62-.91,3.46Zm-5.97,4.31c.94-.23,2.34-.13,4.22,.32-1.13,1.09-2.54,1.8-4.21,2.12,.24-.89,.24-1.7-.01-2.44Zm4.15-5.78c.46-.16,1.05-.57,1.76-1.22,.26,1.73-.18,3.08-1.33,4.06-.04-1.25-.18-2.19-.43-2.84Zm.82-5.14c.38,.42,.62,1.4,.73,2.95-1.35,.71-2.46,1.97-3.31,3.76-.37-1.53-.23-2.87,.44-4.03,.31,.77,.65,1.27,1.02,1.51-.16-1.55,.22-2.95,1.12-4.19Zm-.5,8.65c.49-.36,1.06-.97,1.69-1.83,.2,1.58-.39,2.89-1.76,3.95,.19-.79,.21-1.49,.07-2.11Zm-.64-27.16l.55-1.77,.55,1.77h1.78l-1.44,1.09,.55,1.77-1.44-1.09-1.44,1.09,.55-1.77-1.44-1.09h1.78Zm0,8.09l.55-1.77,.55,1.77h1.78l-1.44,1.09,.55,1.77-1.44-1.09-1.44,1.09,.55-1.77-1.44-1.09h1.78Zm-.29,16.47c.64,1.15,.73,2.46,.27,3.92-.71,.28-1.3,.37-1.79,.29-.02-.9,.49-2.3,1.52-4.21Zm-1.85,4.04c-.54,.2-.96,.27-1.26,.21,.15-.99,.44-1.84,.88-2.57,.36,.28,.49,1.07,.38,2.36ZM22.56,3.93l.55-1.77,.55,1.77h1.78l-1.44,1.09,.55,1.77-1.44-1.09-1.44,1.09,.55-1.77-1.44-1.09h1.78Zm-6.28,0l.55-1.77,.55,1.77h1.78l-1.44,1.09,.55,1.77-1.44-1.09-1.44,1.09,.55-1.77-1.44-1.09h1.78Zm-6.27,0l.55-1.77,.55,1.77h1.78l-1.44,1.09,.55,1.77-1.44-1.09-1.44,1.09,.55-1.77-1.44-1.09h1.78Zm-1.84,4.63H25.48V25.58c0,5-3.87,9.05-8.65,9.05s-8.65-4.05-8.65-9.05V8.56Zm15.86,28.2c-.38-.31-1.01-.48-1.89-.49,.48-1.31,1.24-2.43,2.26-3.38,.79,1.51,.66,2.8-.37,3.87Zm-12.29-.75c-.92-.19-1.61-.13-2.06,.16-.48-.71-.67-1.49-.58-2.33,1.05,.15,1.93,.87,2.64,2.17Zm-2.29-3.12c-.55,.08-.94,.21-1.18,.37-.55-.78-.88-1.66-.99-2.65,.95,.19,1.67,.95,2.16,2.28Zm-4.84-2.63c-.22,.68-.24,1.51-.07,2.47-1.31-1.11-2.12-2.25-2.43-3.41,1.08,.19,1.91,.51,2.5,.94Zm-1.25-3.74c.51,.06,1.17,.39,1.96,.97-.02-1.16,.27-2.11,.86-2.84,.33,.61,.4,1.76,.22,3.44-.37-.15-.71-.23-1.04-.23-.25,.12-.53,.72-.83,1.77-.68-.98-1.07-2.02-1.18-3.11Zm4.83,6.95c-.09,.67,.07,1.43,.46,2.28-1.8-.38-3.25-1.23-4.36-2.55,.77-.16,2.07-.07,3.9,.27Zm-2.42-.97c-.45-1.58-.54-2.96-.26-4.15,.75,1.08,1.26,2.49,1.54,4.24-.54-.11-.97-.14-1.28-.1ZM3.74,3.93l.55-1.77,.55,1.77h1.78l-1.44,1.09,.55,1.77-1.44-1.09-1.44,1.09,.55-1.77-1.44-1.09h1.78Zm0,8.09l.55-1.77,.55,1.77h1.78l-1.44,1.09,.55,1.77-1.44-1.09-1.44,1.09,.55-1.77-1.44-1.09h1.78Zm-1.79,12.11c.49,.13,.99,.52,1.5,1.16,.03-1.37,.2-2.22,.48-2.58,.79,.86,1.14,2.11,1.06,3.76-.86-.38-1.48-.57-1.85-.57-.41,.51-.62,1.22-.62,2.13-.94-1.03-1.13-2.33-.56-3.9Zm3.69,11.58c1.02-.02,1.95,.24,2.8,.78-.49,.18-.82,.53-1,1.04-1.01-.65-1.6-1.26-1.8-1.81Zm6.79,1.61c-.4,.26-.66,.5-.77,.69-1.46,.5-2.78,.39-3.95-.3,1.33-1.03,2.9-1.16,4.72-.39Zm7.05,2.1c-.3-.03-.76,.07-1.36,.3,.42,.1,.88,.4,1.38,.89-.23,.11-.48,.32-.73,.61-.52-.56-1.27-.92-1.85-1.08-.76,.37-1.23,.84-1.78,1.4-.32-.15-.67-.25-1.06-.3,.19-.34,.82-.86,1.89-1.57-.18-.08-.48-.13-.92-.13-1.99,1-3.75,.81-5.29-.55,.93-.46,2.24-.56,3.94-.31-.95-.96-1.45-2.07-1.48-3.33,1.61,.56,2.64,1.71,3.07,3.64,.7-.04,1.12,.14,1.64,.34,.55-.26,1.54-.54,2.33-.64,.5-1.86,1.35-3,2.54-3.44,.34,.94,.07,2.1-.82,3.5,1.58,.11,2.59,.55,3.02,1.33-1.65,.66-3.16,.43-4.52-.68Zm2.45-.78l.11-1.57c1.35,.01,2.51,.38,3.49,1.09-.65,.44-1.85,.6-3.6,.48Zm2.48-1.87c1-.89,2.27-1.3,3.78-1.21-.23,1.09-.9,1.93-2.02,2.53-.29-.45-.87-.88-1.77-1.32Z" style="fill: #254791;"/>
        <path d="M14.94,15.14h4c.89-1.42,.02-1.96,.16-2.76-.51,.18-.55,.89-.85,1.24-.77-1.14,.6-3.04-.31-4.18,.04,1.1-.96,1.55-1.26,3.12-.33-.97,.38-1.86-.29-2.83-.13,.89-1.08,1.53-.95,3.06-.38-.34-.55-1.09-.91-1.1,.28,.88-.82,2.15,.4,3.46" style="fill: #254791;"/>
        <path d="M18.73,9.54c.21,.7,.2,1.48-.02,2.35,.73-.79,.74-1.58,.02-2.35" style="fill: #254791;"/>
        <polygon points="15.43 16.3 15.23 16.72 18.62 16.72 18.43 16.3 15.43 16.3" style="fill: #254791;"/>
        <polygon points="18.79 17.71 15.07 17.71 14.87 18.13 18.99 18.13 18.79 17.71" style="fill: #254791;"/>
        <polygon points="18.02 20.87 18.44 18.99 15.42 18.99 15.84 20.87 18.02 20.87" style="fill: #254791;"/>
        <path d="M14.53,22.42c.09,0,.17-.04,.23-.1h4.34c.06,.06,.14,.1,.23,.1,.17,0,.32-.15,.32-.33s-.14-.33-.32-.33c-.09,0-.17,.04-.23,.1h-4.34c-.06-.06-.14-.1-.23-.1-.17,0-.32,.15-.32,.33s.14,.33,.32,.33" style="fill: #254791;"/>
        <path d="M16.93,23.39c-.59,0-1.07,.5-1.07,1.12l.9,8.42c-.13,.06-.22,.21-.22,.36,0,.22,.17,.4,.38,.4s.38-.18,.38-.4c0-.16-.09-.29-.21-.35l.91-8.43c0-.62-.48-1.12-1.07-1.12" style="fill: #254791;"/>
        <path d="M43.7,7.77h-1.69v6.84c0,1.26-.47,1.98-1.61,1.98-.77,0-1.42-.64-1.42-2.08V7.77h-1.69v6.89c.02,1.04,.19,1.88,.62,2.52,.71,1.03,1.79,1.26,2.52,1.26,2,0,3.27-1.17,3.27-3.91V7.77Z" style="fill: #254791; fill-rule: evenodd;"/>
        <path d="M49.85,12.83c0-1.69-.9-2.58-2.05-2.58s-1.56,.87-1.77,1.33h-.02v-1.13h-1.48v7.7h1.55v-4.42c0-1.17,.53-1.78,1.22-1.78,.98,0,1.01,.96,1.01,1.52v4.68h1.55v-5.33Z" style="fill: #254791; fill-rule: evenodd;"/>
        <path d="M50.7,18.16h1.55v-7.7h-1.55v7.7Zm1.55-10.5h-1.55v1.88h1.55v-1.88Z" style="fill: #254791; fill-rule: evenodd;"/>
        <polygon points="58.84 10.46 57.19 10.46 55.94 16.13 55.91 16.13 54.7 10.46 52.97 10.46 55.08 18.16 56.71 18.16 58.84 10.46" style="fill: #254791; fill-rule: evenodd;"/>
        <path d="M62.66,15.9c-.12,.55-.57,.84-1,.84-1.25,0-1.34-1.3-1.38-1.88h4.04v-.36c0-3.52-1.6-4.24-2.77-4.24-2.58,0-2.82,2.97-2.82,3.89,0,3.17,1.27,4.21,2.93,4.21,1.01,0,2.18-.61,2.59-2.46h-1.59Zm-2.34-2.36c.09-1.01,.47-1.62,1.21-1.62,.5,0,1.11,.38,1.2,1.62h-2.4Z" style="fill: #254791; fill-rule: evenodd;"/>
        <path d="M64.95,18.16h1.55v-4.01c0-.85,.22-1.84,1.43-1.84,.14,0,.31,0,.44,.03v-2.05c-.1-.01-.2-.03-.3-.03-.94,0-1.3,.75-1.62,1.53h-.02v-1.33h-1.48v7.7Z" style="fill: #254791; fill-rule: evenodd;"/>
        <path d="M73.75,12.8c-.12-2.17-1.49-2.55-2.65-2.55-1.84,0-2.38,1.45-2.38,2.58,0,2.88,3.65,1.91,3.65,3.2,0,.29-.19,.8-.98,.8-.97,0-1.29-.48-1.29-1.13h-1.59c.04,2.06,1.5,2.67,2.83,2.67,.92,0,2.58-.41,2.58-2.65,0-2.83-3.69-1.95-3.69-3.17,0-.33,.11-.75,.95-.75s.97,.52,1.04,1.01h1.52Z" style="fill: #254791; fill-rule: evenodd;"/>
        <path d="M74.48,18.16h1.55v-7.7h-1.55v7.7Zm1.55-10.5h-1.55v1.88h1.55v-1.88Z" style="fill: #254791; fill-rule: evenodd;"/>
        <path d="M82.37,7.77h-1.55v3.69h-.02c-.24-.49-.71-1.2-1.7-1.2-1.3,0-2.45,1.3-2.45,3.97,0,2.11,.73,4.14,2.48,4.14,.64,0,1.33-.3,1.71-1.17h.02v.97h1.52V7.77Zm-4.13,6.6c0-1.21,.33-2.36,1.32-2.36,1.06,0,1.33,1.25,1.33,2.48,0,1.14-.39,2.21-1.37,2.21s-1.27-1.42-1.27-2.33" style="fill: #254791; fill-rule: evenodd;"/>
        <path d="M88.11,12.49c0-1.9-1.52-2.23-2.35-2.23-1.21,0-2.46,.33-2.63,2.69h1.49c.04-.45,.18-1.07,.95-1.07,.4,0,1.02,.04,1.02,.9,0,.43-.3,.56-.54,.61l-1.4,.28c-.98,.19-1.71,.96-1.71,2.46,0,1.59,.91,2.24,1.79,2.24,1.05,0,1.55-.64,1.9-1.12,.03,.44,.05,.55,.14,.91h1.67v-.3c-.19-.09-.34-.29-.34-1.2v-4.17Zm-1.52,2.91c0,.94-.7,1.52-1.38,1.52-.3,0-.72-.22-.72-.93,0-.84,.48-1.03,1.05-1.16,.64-.13,.9-.26,1.05-.42v.98Z" style="fill: #254791; fill-rule: evenodd;"/>
        <path d="M94.25,7.77h-1.55v3.69h-.02c-.24-.49-.71-1.2-1.7-1.2-1.29,0-2.45,1.3-2.45,3.97,0,2.11,.73,4.14,2.48,4.14,.64,0,1.33-.3,1.71-1.17h.02v.97h1.52V7.77Zm-4.13,6.6c0-1.21,.33-2.36,1.32-2.36,1.06,0,1.33,1.25,1.33,2.48,0,1.14-.39,2.21-1.37,2.21s-1.27-1.42-1.27-2.33" style="fill: #254791; fill-rule: evenodd;"/>
        <path d="M43.02,20.76h-1.55v3.69h-.02c-.24-.49-.71-1.2-1.71-1.2-1.29,0-2.45,1.3-2.45,3.96,0,2.11,.73,4.14,2.48,4.14,.64,0,1.33-.3,1.71-1.17h.02v.97h1.52v-10.39Zm-4.13,6.6c0-1.22,.33-2.36,1.32-2.36,1.06,0,1.33,1.25,1.33,2.48,0,1.14-.39,2.21-1.37,2.21s-1.27-1.42-1.27-2.33" style="fill: #254791; fill-rule: evenodd;"/>
        <path d="M47.23,28.89c-.12,.55-.57,.84-1,.84-1.25,0-1.34-1.3-1.38-1.88h4.04v-.36c0-3.52-1.6-4.24-2.77-4.24-2.58,0-2.82,2.97-2.82,3.89,0,3.17,1.27,4.21,2.93,4.21,1.01,0,2.18-.61,2.59-2.46h-1.59Zm-2.34-2.36c.09-1.01,.48-1.62,1.21-1.62,.5,0,1.11,.38,1.2,1.62h-2.4Z" style="fill: #254791; fill-rule: evenodd;"/>
        <path d="M57.67,24.16c-.09-1.54-1.05-3.68-3.43-3.68-2.05,0-3.65,1.85-3.65,5.49s1.52,5.46,3.63,5.46c1.99,0,3.12-1.58,3.45-3.84h-1.66c-.2,1.27-.84,1.95-1.76,1.95-1.41,0-1.97-1.68-1.97-3.55,0-2.94,1.17-3.63,1.97-3.63,1.37,0,1.63,1.17,1.76,1.8h1.66Z" style="fill: #254791; fill-rule: evenodd;"/>
        <path d="M64.16,27.3c0-2.78-1.43-4.05-3.01-4.05s-3.01,1.27-3.01,4.05,1.43,4.05,3.01,4.05,3.01-1.27,3.01-4.05m-1.59,0c0,.98-.22,2.34-1.42,2.34s-1.42-1.36-1.42-2.34,.22-2.34,1.42-2.34,1.42,1.36,1.42,2.34" style="fill: #254791; fill-rule: evenodd;"/>
        <path d="M69.93,25.82c0-1.69-.9-2.58-2.05-2.58s-1.56,.87-1.77,1.33h-.02v-1.13h-1.48v7.7h1.55v-4.41c0-1.17,.53-1.78,1.22-1.78,.98,0,1.01,.95,1.01,1.52v4.67h1.55v-5.33Z" style="fill: #254791; fill-rule: evenodd;"/>
        <path d="M74.34,28.34c0,.36-.27,1.35-1.05,1.35-1.17,0-1.19-1.66-1.19-2.5,0-.96,.25-2.23,1.23-2.23,.72-.06,.96,.74,1.03,1.24h1.57c-.14-2.4-1.67-2.95-2.6-2.95-1.99,0-2.82,1.78-2.82,4.27,0,1.62,.51,3.84,2.72,3.84s2.64-2.21,2.69-3.01h-1.57Z" style="fill: #254791; fill-rule: evenodd;"/>
        <path d="M80.19,28.89c-.12,.55-.56,.84-1,.84-1.25,0-1.34-1.3-1.38-1.88h4.04v-.36c0-3.52-1.61-4.24-2.77-4.24-2.58,0-2.82,2.97-2.82,3.89,0,3.17,1.27,4.21,2.93,4.21,1.01,0,2.18-.61,2.59-2.46h-1.59Zm-2.33-2.36c.09-1.01,.48-1.62,1.21-1.62,.5,0,1.11,.38,1.2,1.62h-2.4Z" style="fill: #254791; fill-rule: evenodd;"/>
        <path d="M83.94,27.47c0-1.23,.25-2.48,1.32-2.48,.99,0,1.32,1.14,1.32,2.36,0,.91-.28,2.33-1.27,2.33s-1.36-1.07-1.36-2.21m0-4.02h-1.48v10.71h1.55v-3.99h.02c.19,.42,.57,1.19,1.66,1.19,1.75,0,2.48-2.03,2.48-4.14,0-2.66-1.15-3.96-2.45-3.96-1.04,0-1.47,.71-1.76,1.32h-.02v-1.11Z" style="fill: #254791; fill-rule: evenodd;"/>
        <path d="M92.34,28.34c0,.36-.27,1.35-1.05,1.35-1.17,0-1.2-1.66-1.2-2.5,0-.96,.26-2.23,1.23-2.23,.72-.06,.96,.74,1.03,1.24h1.57c-.14-2.4-1.67-2.95-2.6-2.95-1.99,0-2.82,1.78-2.82,4.27,0,1.62,.51,3.84,2.72,3.84s2.63-2.21,2.69-3.01h-1.57Z" style="fill: #254791; fill-rule: evenodd;"/>
        <path d="M94.42,31.15h1.55v-7.7h-1.55v7.7Zm1.55-10.49h-1.55v1.88h1.55v-1.88Z" style="fill: #254791; fill-rule: evenodd;"/>
        <path d="M101.69,20.29h-1.71l-1.04,2.11h1.12l1.63-2.11Zm.92,7.01c0-2.78-1.43-4.05-3.01-4.05s-3.01,1.27-3.01,4.05,1.43,4.05,3.01,4.05,3.01-1.27,3.01-4.05m-1.59,0c0,.98-.22,2.34-1.42,2.34s-1.42-1.36-1.42-2.34,.22-2.34,1.42-2.34,1.42,1.36,1.42,2.34" style="fill: #254791; fill-rule: evenodd;"/>
        <path d="M108.49,25.82c0-1.69-.9-2.58-2.05-2.58s-1.56,.87-1.77,1.33h-.02v-1.13h-1.48v7.7h1.55v-4.41c0-1.17,.53-1.78,1.22-1.78,.99,0,1.01,.95,1.01,1.52v4.67h1.55v-5.33Z" style="fill: #254791; fill-rule: evenodd;"/>
      </g>
    </g>
  </g>
</svg>