<?xml version="1.0" encoding="UTF-8"?>
<svg id="Capa_2" data-name="Capa 2" xmlns="http://www.w3.org/2000/svg" viewBox="0 0 73.17 48.3">
  <defs>
    <style>
      .cls-1 {
        fill: #070809;
      }
    </style>
  </defs>
  <g id="Capa_1-2" data-name="Capa 1">
    <g>
      <g>
        <g>
          <path class="cls-1" d="M1.12,44.83v1.83c0,.29,.08,.53,.25,.72,.17,.17,.41,.26,.7,.26s.53-.09,.71-.29c.17-.2,.27-.44,.27-.73v-1.78h.74v3.38h-.66l-.04-.47c-.33,.36-.74,.55-1.21,.55-.45,0-.8-.14-1.07-.43-.27-.28-.41-.69-.41-1.18v-1.84h.73Z"/>
          <path class="cls-1" d="M7.44,48.21v-1.81c0-.29-.08-.53-.25-.71-.17-.18-.41-.27-.7-.27s-.53,.1-.71,.29c-.18,.21-.27,.45-.27,.74v1.77h-.74v-3.39h.68l.04,.49c.33-.37,.73-.56,1.18-.56s.79,.14,1.08,.43c.28,.29,.43,.69,.43,1.2v1.82h-.74Z"/>
          <path class="cls-1" d="M9.17,44.15c-.09-.08-.14-.18-.14-.32s.05-.24,.14-.32c.09-.08,.2-.12,.33-.12,.11,0,.23,.04,.32,.12,.09,.08,.13,.18,.13,.32s-.05,.24-.13,.32c-.09,.08-.2,.12-.32,.12-.13,0-.24-.04-.33-.12Zm.69,.66v3.4h-.73v-3.4h.73Z"/>
          <path class="cls-1" d="M14.38,43.41v4.8h-.69l-.04-.54c-.26,.4-.67,.6-1.22,.6-.53,0-.96-.15-1.29-.46-.33-.32-.5-.75-.5-1.3s.17-1,.5-1.3c.33-.32,.75-.46,1.28-.46,.24,0,.47,.05,.72,.16,.23,.11,.41,.26,.51,.45v-1.94h.73Zm-1.91,2c-.32,0-.59,.1-.79,.3-.21,.21-.32,.47-.32,.81s.11,.59,.32,.8c.2,.2,.47,.3,.79,.3s.57-.1,.8-.31c.22-.2,.32-.47,.32-.79s-.11-.58-.32-.79c-.22-.21-.48-.31-.8-.31Z"/>
          <path class="cls-1" d="M18.19,44.82h.71v3.38h-.7l-.03-.55c-.11,.21-.27,.36-.51,.47-.23,.11-.47,.16-.7,.16-.53,0-.96-.16-1.3-.47-.34-.32-.5-.76-.5-1.31s.17-.99,.51-1.3c.35-.31,.77-.47,1.3-.47,.26,0,.5,.05,.71,.16,.22,.11,.38,.26,.49,.45l.02-.54Zm-1.16,.57c-.33,0-.6,.1-.81,.3-.22,.21-.33,.48-.33,.82s.12,.6,.33,.82c.21,.2,.48,.3,.81,.3,.36,0,.64-.11,.85-.33,.19-.22,.3-.49,.3-.79s-.1-.57-.3-.79c-.21-.23-.49-.33-.85-.33Z"/>
          <path class="cls-1" d="M23.42,43.41v4.8h-.69l-.05-.54c-.26,.4-.66,.6-1.21,.6s-.95-.15-1.29-.46c-.34-.32-.5-.75-.5-1.3s.16-1,.5-1.3c.32-.32,.75-.46,1.28-.46,.23,0,.47,.05,.72,.16,.23,.11,.41,.26,.51,.45v-1.94h.73Zm-1.9,2c-.33,0-.6,.1-.8,.3-.21,.21-.31,.47-.31,.81s.1,.59,.31,.8c.2,.2,.46,.3,.8,.3,.31,0,.57-.1,.79-.31,.21-.2,.32-.47,.32-.79s-.11-.58-.32-.79c-.22-.21-.49-.31-.79-.31Z"/>
          <path class="cls-1" d="M29.71,43.41v4.8h-.69l-.05-.54c-.24,.4-.65,.6-1.21,.6-.52,0-.96-.15-1.29-.46-.33-.32-.5-.75-.5-1.3s.17-1,.49-1.3c.33-.32,.76-.46,1.29-.46,.24,0,.47,.05,.71,.16,.24,.11,.41,.26,.51,.45v-1.94h.74Zm-1.9,2c-.32,0-.59,.1-.8,.3-.21,.21-.31,.47-.31,.81s.11,.59,.31,.8c.21,.2,.48,.3,.8,.3s.58-.1,.8-.31c.21-.2,.32-.47,.32-.79s-.11-.58-.32-.79c-.22-.21-.48-.31-.8-.31Z"/>
          <path class="cls-1" d="M31.26,46.79c.03,.26,.14,.47,.36,.62,.2,.16,.47,.23,.79,.23,.2,0,.38-.04,.58-.1,.19-.07,.33-.15,.45-.27l.47,.45c-.17,.19-.4,.33-.67,.43-.28,.1-.55,.15-.84,.15-.57,0-1.03-.16-1.37-.48-.35-.33-.52-.76-.52-1.3s.17-.95,.51-1.27c.34-.33,.78-.5,1.33-.5s.98,.15,1.3,.44c.32,.3,.48,.74,.48,1.3,0,.06-.01,.17-.02,.3h-2.84Zm2.13-.6c-.02-.26-.12-.47-.3-.6-.18-.15-.43-.21-.73-.21s-.52,.07-.72,.21c-.18,.14-.32,.34-.37,.6h2.12Z"/>
          <path class="cls-1" d="M36.67,44.15c-.09-.08-.13-.18-.13-.32s.04-.24,.13-.32c.09-.08,.2-.12,.33-.12s.23,.04,.32,.12c.09,.08,.14,.18,.14,.32s-.04,.24-.14,.32c-.09,.08-.2,.12-.32,.12s-.23-.04-.33-.12Zm.68,.66v3.4h-.73v-3.4h.73Z"/>
          <path class="cls-1" d="M41.01,48.21v-1.81c0-.29-.08-.53-.25-.71-.17-.18-.4-.27-.7-.27-.29,0-.52,.1-.7,.29-.19,.21-.28,.45-.28,.74v1.77h-.74v-3.39h.67l.04,.49c.33-.37,.73-.56,1.18-.56s.81,.14,1.09,.43c.28,.29,.42,.69,.42,1.2v1.82h-.74Z"/>
          <path class="cls-1" d="M45.35,48.21v-1.81c0-.29-.09-.53-.26-.71-.16-.18-.4-.27-.69-.27s-.53,.1-.71,.29c-.18,.21-.27,.45-.27,.74v1.77h-.74v-3.39h.67l.05,.49c.33-.37,.72-.56,1.18-.56s.8,.14,1.08,.43c.28,.29,.42,.69,.42,1.2v1.82h-.73Z"/>
          <path class="cls-1" d="M47.3,45.26c.34-.34,.77-.5,1.31-.5s.97,.17,1.31,.5c.33,.33,.51,.76,.51,1.26s-.17,.93-.51,1.26c-.34,.33-.77,.5-1.32,.5s-.98-.17-1.31-.5c-.33-.33-.49-.75-.49-1.26s.16-.93,.5-1.26Zm1.31,.15c-.32,0-.58,.1-.78,.32-.2,.21-.3,.48-.3,.79s.1,.58,.3,.78c.2,.21,.46,.32,.78,.32s.59-.11,.78-.32c.2-.21,.3-.48,.3-.78s-.1-.57-.3-.79c-.2-.22-.46-.33-.78-.33Z"/>
          <path class="cls-1" d="M54.48,44.82l-1.49,3.4h-.8l-1.5-3.4h.82l.47,1.09,.62,1.57,.55-1.44,.52-1.22h.81Z"/>
          <path class="cls-1" d="M57.77,44.82h.71v3.38h-.69l-.03-.55c-.11,.21-.28,.36-.51,.47-.24,.11-.47,.16-.7,.16-.53,0-.97-.16-1.29-.47-.34-.32-.5-.76-.5-1.31s.17-.99,.51-1.3c.34-.31,.77-.47,1.3-.47,.26,0,.5,.05,.71,.16,.21,.11,.37,.26,.49,.45l.02-.54Zm-1.16,.57c-.32,0-.59,.1-.82,.3-.21,.21-.33,.48-.33,.82s.12,.6,.33,.82c.23,.2,.5,.3,.82,.3,.37,0,.64-.11,.84-.33,.19-.22,.3-.49,.3-.79s-.11-.57-.3-.79c-.2-.23-.47-.33-.84-.33Z"/>
          <path class="cls-1" d="M62.44,47.78c-.37,.35-.81,.52-1.33,.52s-.97-.15-1.32-.47c-.35-.31-.53-.74-.53-1.3s.18-1.01,.53-1.32c.34-.31,.79-.46,1.32-.46,.49,0,.91,.16,1.27,.5l-.46,.45c-.24-.19-.5-.28-.8-.28-.33,0-.59,.1-.81,.31-.21,.2-.32,.47-.32,.81s.11,.6,.32,.8c.22,.19,.48,.28,.8,.28,.34,0,.61-.1,.84-.31l.5,.47Z"/>
          <path class="cls-1" d="M63.15,44.15c-.09-.08-.13-.18-.13-.32s.04-.24,.13-.32c.09-.08,.2-.12,.32-.12,.13,0,.23,.04,.32,.12,.09,.08,.13,.18,.13,.32s-.04,.24-.13,.32c-.09,.08-.19,.12-.32,.12-.12,0-.23-.04-.32-.12Zm.68,.66v3.4h-.73v-3.4h.73Z"/>
          <path class="cls-1" d="M65.1,45.26c.34-.34,.77-.5,1.31-.5s.97,.17,1.31,.5c.34,.33,.51,.76,.51,1.26s-.16,.93-.51,1.26c-.33,.33-.77,.5-1.31,.5s-.99-.17-1.32-.5-.49-.75-.49-1.26,.16-.93,.5-1.26Zm1.31,.15c-.32,0-.58,.1-.78,.32-.2,.21-.3,.48-.3,.79s.1,.58,.3,.78c.2,.21,.46,.32,.78,.32s.58-.11,.79-.32c.19-.21,.3-.48,.3-.78s-.11-.57-.31-.79c-.2-.22-.46-.33-.77-.33Z"/>
          <path class="cls-1" d="M71.67,48.21v-1.81c0-.29-.08-.53-.24-.71-.17-.18-.41-.27-.7-.27s-.53,.1-.72,.29c-.17,.21-.27,.45-.27,.74v1.77h-.73v-3.39h.67l.04,.49c.33-.37,.72-.56,1.18-.56s.8,.14,1.08,.43c.28,.29,.43,.69,.43,1.2v1.82h-.75Z"/>
        </g>
        <path class="cls-1" d="M67.37,43.32l-.75,.94h-.65v-.04l.53-.92h.88v.02Z"/>
      </g>
      <path class="cls-1" d="M45.98,9.75c.74,0,1.45,.29,1.99,.79,.53,.51,.82,1.19,.82,1.91v22.03c0,.71-.29,1.39-.82,1.91-.53,.51-1.24,.79-1.99,.79s-1.44-.28-1.97-.79c-.53-.52-.83-1.2-.83-1.91V12.45c0-.72,.29-1.4,.83-1.91,.53-.51,1.22-.79,1.97-.79m0-1.48c-2.38,0-4.34,1.88-4.34,4.19v22.03c0,2.3,1.96,4.18,4.34,4.18s4.34-1.89,4.34-4.18V12.45c0-2.31-1.95-4.19-4.34-4.19"/>
      <path class="cls-1" d="M68.83,9.75c.75,0,1.45,.29,1.99,.79,.53,.51,.83,1.19,.83,1.91v22.03c0,.71-.3,1.39-.83,1.91-.54,.51-1.24,.79-1.99,.79s-1.44-.28-1.98-.79c-.53-.52-.83-1.2-.83-1.91V12.45c0-.72,.3-1.4,.83-1.91,.53-.51,1.24-.79,1.98-.79m0-1.48c-2.39,0-4.34,1.88-4.34,4.19v22.03c0,2.3,1.95,4.18,4.34,4.18s4.34-1.89,4.34-4.18V12.45c0-2.31-1.95-4.19-4.34-4.19"/>
      <path class="cls-1" d="M45.89,9.74c.75,0,1.46,.29,1.98,.79l22.84,22.04c.52,.5,.82,1.18,.82,1.91s-.29,1.41-.82,1.92c-.53,.5-1.23,.78-1.98,.78s-1.46-.28-1.98-.78L43.91,14.36c-.53-.51-.82-1.19-.82-1.92s.29-1.4,.82-1.91c.52-.5,1.23-.79,1.98-.79m0-1.47c-1.11,0-2.23,.4-3.07,1.22-1.69,1.64-1.69,4.3,0,5.92l22.83,22.04c.85,.81,1.96,1.22,3.07,1.22s2.23-.41,3.07-1.22c1.69-1.63,1.69-4.3,0-5.93L48.96,9.48c-.85-.81-1.96-1.22-3.07-1.22"/>
      <path class="cls-1" d="M23.12,9.74c.76,0,1.46,.29,1.99,.79l22.84,22.04c.52,.5,.81,1.18,.81,1.91s-.29,1.41-.81,1.92c-.53,.5-1.23,.78-1.99,.78s-1.45-.28-1.98-.78L21.14,14.36c-.53-.51-.81-1.19-.81-1.92s.29-1.4,.81-1.91c.53-.5,1.24-.79,1.98-.79m0-1.47c-1.11,0-2.23,.4-3.06,1.22-1.69,1.64-1.69,4.3,0,5.92l22.83,22.04c.85,.81,1.96,1.22,3.07,1.22s2.23-.41,3.07-1.22c1.69-1.63,1.69-4.3,0-5.93L26.2,9.48c-.84-.81-1.96-1.22-3.07-1.22"/>
      <path class="cls-1" d="M23.17,9.47c.75,0,1.44,.28,1.98,.79,.53,.52,.83,1.19,.83,1.92v10.97c0,.11-.01,.23-.02,.35l-.03,.09v2.85c0,3.57-1.09,6.29-3.23,8.1-1.02,.86-2.3,1.51-3.78,1.96-1.51,.44-3.25,.67-5.17,.67s-3.65-.23-5.15-.67c-1.49-.45-2.76-1.11-3.79-1.96-2.16-1.81-3.26-4.54-3.26-8.1v-3.11c0-.07-.01-.13-.01-.19V12.18c0-.73,.29-1.4,.83-1.92,.53-.51,1.23-.79,1.98-.79s1.44,.28,1.98,.79c.53,.52,.82,1.19,.82,1.92v2.49h.03v11.82c0,4.03,2.58,6.65,6.57,6.65,1.97,0,3.65-.65,4.84-1.87,1.16-1.19,1.77-2.84,1.77-4.77V14.67h0v-2.49c0-.73,.3-1.4,.82-1.92,.53-.51,1.24-.79,1.98-.79m0-1.48c-2.39,0-4.34,1.88-4.34,4.19v1h0v13.3c0,3.14-1.92,5.16-5.08,5.16s-5.04-2.02-5.04-5.16V13.18h-.02v-1c0-2.31-1.95-4.19-4.34-4.19S0,9.87,0,12.18v10.97c0,.1,0,.19,.01,.3v3C.01,34.75,5.54,38.66,13.75,38.66s13.73-3.91,13.73-12.21v-2.75c.02-.18,.04-.36,.04-.55V12.18c0-2.31-1.95-4.19-4.34-4.19"/>
      <path class="cls-1" d="M22.97,1.48c.87,0,1.59,.67,1.64,1.5-.03,.84-.73,1.53-1.61,1.54h-.02c-.86,0-1.59-.67-1.63-1.49,.02-.84,.73-1.53,1.61-1.54h.02m0-1.48h-.04c-1.73,.03-3.12,1.39-3.12,3.05,.06,1.64,1.46,2.96,3.16,2.96h.05c1.72-.03,3.12-1.39,3.13-3.05-.06-1.63-1.47-2.95-3.17-2.95m3.17,2.9v0Zm-6.35,.09v.1s0-.03,0-.05c0-.02,0-.04,0-.05"/>
    </g>
  </g>
</svg>