<?xml version="1.0" encoding="UTF-8"?>
<svg id="Capa_2" data-name="Capa 2" xmlns="http://www.w3.org/2000/svg" viewBox="0 0 133.55 40.1">
  <defs>
    <style>
      .cls-1 {
        fill: #070809;
      }
    </style>
  </defs>
  <g id="Capa_1-2" data-name="Capa 1">
    <g>
      <path class="cls-1" d="M67.13,33.18c-.75,.17-1.49,.37-2.23,.52-1.82,.38-3.66,.68-5.51,.82-1.88,.14-3.76,.2-5.65,0-1.06-.1-2.08-.32-3.08-.69-2.64-.98-4.38-2.83-5.28-5.48-.42-1.23-.65-2.51-.74-3.81-.07-.92-.09-1.83-.09-2.75-.01-4.51,0-9.02,0-13.53v-.47h7.43c0,.14,.02,.29,.02,.44v7.78c0,2.2,0,4.41,.03,6.61,0,.99,.15,1.98,.44,2.94,.05,.16,.1,.32,.16,.47,.46,1.24,1.37,1.93,2.65,2.15,.91,.16,1.82,.1,2.74,.04,.56-.03,1.12-.12,1.72-.17V7.82h7.38c.09,.28,.13,24.34,.04,25.36Z"/>
      <path class="cls-1" d="M109.94,8.74c-.43,1.94-.86,3.85-1.3,5.77-.77-.22-1.49-.43-2.21-.62-1.47-.41-2.97-.55-4.48-.5-.5,.02-1,.12-1.49,.22-.21,.04-.4,.14-.6,.22-1.27,.6-1.18,2.33-.26,2.92,.44,.28,.89,.57,1.37,.79,.92,.41,1.86,.75,2.78,1.15,1.05,.46,2.1,.91,3.12,1.44,.63,.33,1.22,.74,1.78,1.19,1.25,.99,2.01,2.29,2.26,3.88,.21,1.28,.24,2.56-.02,3.83-.36,1.71-1.28,3.04-2.71,4.03-1.16,.79-2.45,1.26-3.81,1.57-1.76,.38-3.54,.47-5.32,.42-1.27-.03-2.53-.11-3.79-.34-1.48-.28-2.9-.69-4.36-1.22,.4-2.02,.82-4.02,1.25-6.05,.14,.04,.24,.07,.34,.11,1.88,.71,3.8,1.21,5.81,1.39,1.3,.12,2.6,.16,3.9-.11,.1-.02,.19-.06,.29-.08,1.37-.3,1.56-2.07,.67-2.81-.3-.24-.61-.48-.96-.65-.98-.46-1.97-.88-2.96-1.31-1.05-.45-2.11-.87-3.15-1.35-.91-.41-1.72-.98-2.44-1.69-1.17-1.17-1.8-2.61-1.99-4.26-.13-1.13-.11-2.26,.18-3.37,.45-1.76,1.48-3.09,2.96-4.1,1.22-.82,2.58-1.29,4.02-1.55,1.69-.3,3.4-.29,5.1-.16,1.86,.14,3.68,.51,5.46,1.07,.17,.05,.33,.12,.55,.19Z"/>
      <path class="cls-1" d="M87.63,14.75c-.79-.23-1.49-.46-2.23-.63-1.55-.37-3.1-.47-4.67-.14-1.72,.36-2.96,1.35-3.78,2.91-.48,.93-.76,1.92-.87,2.95-.17,1.59-.09,3.18,.36,4.71,.11,.35,.24,.69,.39,1.02,.67,1.47,1.8,2.39,3.36,2.78,.92,.23,1.85,.32,2.8,.3,1.64-.03,3.25-.24,4.82-.76,.23-.08,.47-.17,.75-.28,.35,2.03,.69,4.04,1.04,6.07-.11,.06-.22,.12-.33,.15-1.55,.57-3.13,.92-4.77,1.08-1.32,.14-2.66,.16-3.98,.07-2.24-.16-4.36-.71-6.31-1.86-2.27-1.35-3.89-3.26-4.76-5.75-1.22-3.48-1.44-7.02-.4-10.58,1.36-4.66,4.42-7.66,9.09-8.96,1.49-.42,3.02-.48,4.56-.44,2.13,.05,4.18,.51,6.16,1.3,.09,.04,.18,.09,.29,.14-.51,1.96-1.02,3.93-1.53,5.89Z"/>
      <path class="cls-1" d="M131.56,14.78c-.25-.08-.45-.15-.65-.22-1.49-.5-3.01-.8-4.59-.77-.77,.02-1.53,.11-2.26,.35-1.16,.36-2.08,1.05-2.76,2.05-.7,1.02-1.09,2.17-1.25,3.41-.21,1.61-.14,3.21,.29,4.79,.09,.35,.23,.69,.36,1.03,.65,1.55,1.79,2.52,3.41,2.93,.92,.23,1.85,.32,2.8,.3,1.64-.03,3.25-.24,4.82-.75,.23-.09,.47-.17,.75-.27,.38,2.02,.7,4.03,1.06,6.06-.14,.06-.26,.12-.38,.16-1.53,.56-3.11,.91-4.72,1.07-1.32,.14-2.63,.16-3.96,.07-1.99-.14-3.89-.57-5.68-1.49-2.57-1.34-4.41-3.32-5.39-6.05-1.23-3.45-1.45-6.98-.46-10.52,1.29-4.61,4.27-7.63,8.85-9.03,1.6-.48,3.25-.56,4.92-.5,2.13,.07,4.15,.53,6.11,1.33,.08,.02,.14,.06,.25,.11-.51,1.97-1.02,3.94-1.53,5.93Z"/>
      <g>
        <path class="cls-1" d="M14.54,6.13c.07-.63,.11-1.22,.21-1.8,.16-1,.49-1.95,1.09-2.78,.57-.79,1.31-1.34,2.3-1.51,.69-.12,1.33,.03,1.93,.36,.6,.33,1.07,.82,1.45,1.4,.67,1.03,.97,2.18,1.07,3.39,.02,.34,.03,.68,.05,1.03,4.66,1.38,7.94,4.36,9.94,8.75,1.51,3.3,1.81,6.73,.92,10.25-1.87,7.32-8.43,11.83-15.68,11.69-7.41-.14-13.37-5.67-14.74-12.41-.54-2.66-.34-5.29,.43-7.88,.79-2.61,2.17-4.86,4.16-6.72,1.97-1.86,4.28-3.11,6.87-3.77Zm3.74-3.08s-.03-.01-.05-.01c-.17,.08-.35,.14-.53,.22,.08,.14,.12,.31,.23,.4,.08,.07,.18,.29,.36,.11-.06,.29-.13,.59-.2,.91,.26,.01,.51,.1,.73-.03-.04-.25-.07-.46-.1-.68,.18-.02,.2-.11,.11-.25,.17,.11,.33,.22,.51,.34,.05-.27,.1-.54,.15-.84-.09-.06-.21-.12-.33-.2-.12,.19-.39,.28-.29,.57-.08-.12-.15-.24-.23-.35,.33-.11,.34-.12,.32-.48,.02-.02,.08-.05,.07-.06-.11-.22-.18-.46-.31-.67-.21-.31-.69-.26-.83,.08-.08,.21,.07,.66,.29,.75,.04,.02,.12-.04,.18-.07h.32c-.13,.09-.27,.18-.39,.27Zm-3.66,3.68c-5.62,1.16-11.76,7.35-11.25,15.48,.44,7.25,6.23,13.99,14.87,14.19,7.57-.14,14.38-5.35,15.11-13.84,.72-8.35-5.2-14.21-10.75-15.71-.65,2.61-.4,2.47-2.25,4.52,.45,.13,.9,.24,1.33,.39,5.11,1.75,7.27,7.26,6.53,11.29-1.05,5.8-6.4,8.92-11.37,8.21-2.97-.43-5.3-1.96-6.98-4.45-1.48-2.18-1.94-4.61-1.52-7.21,.31-1.88,1.05-3.57,2.31-5,1.57-1.79,3.57-2.83,5.89-3.26,.07-.02,.14-.05,.27-.09-1.49-1.16-2-2.75-2.21-4.51Zm12.93,16.6c1.21-5.08-1.94-10.79-8.34-11.59,.08-.29,.24-.58-.02-.89-.2,.23-.41,.39-.71,.41-.31,.02-.53-.15-.77-.32-.18,.27-.05,.5,.04,.76-2.88,.28-5.29,1.46-7.02,3.79-1.73,2.33-2.32,4.95-1.71,7.82h7.07c.07-1.28,.16-2.54,.24-3.83h-2.61c-.36-.54-.72-1.05-1.07-1.58-.05-.06-.08-.16-.06-.24,.13-.7,.28-1.4,.43-2.13h1.18c.41,0,.8,0,1.21,0,.39,0,.77,.01,1.17-.01,.08-1.05,.14-2.05,.21-3.07h3.05c.06,1.04,.14,2.04,.2,3.09h1.29c.4,0,.8,0,1.21,0,.4,0,.82-.03,1.22,.03,.1,.69,.18,1.33,.28,1.98,.03,.17,0,.31-.1,.45-.29,.41-.57,.83-.85,1.25-.11,.17-.23,.23-.43,.23-.67,0-1.33,0-2,0-.11,0-.22,.01-.37,.02,.09,1.29,.17,2.55,.25,3.83h7Zm-8.04-10.53h-2.38c-.06,1.03-.13,2.01-.19,3.05h-3.59c-.12,.59-.23,1.13-.35,1.66-.03,.15,.01,.27,.09,.39,.23,.34,.47,.69,.69,1.03,.12,.19,.26,.25,.46,.25,.7-.01,1.38-.01,2.08-.01,.12,0,.24,.02,.38,.02,0,.2,0,.38,0,.55-.12,1.75-.25,3.51-.34,5.28-.01,.37-.16,.58-.45,.78-.91,.6-1.81,1.23-2.71,1.85-.12,.08-.26,.14-.26,.33,0,.31,0,.63,0,.95,0,.18,.09,.27,.32,.31v-.96c.1,.06,.14,.08,.18,.11,.85,.67,1.68,1.32,2.52,1.99,.16,.12,.28,.17,.45,.03,.18-.14,.4-.23,.59-.35,.45-.27,.9-.54,1.35-.81,.66,.4,1.3,.77,1.92,1.18,.18,.12,.29,.09,.42-.02,.82-.67,1.64-1.33,2.47-1.99,.06-.05,.14-.09,.26-.17v.95c.2-.03,.28-.12,.28-.29,0-.25-.01-.5,.01-.75,.02-.24-.08-.39-.28-.53-.96-.65-1.9-1.31-2.86-1.96-.17-.11-.25-.24-.26-.46-.1-1.8-.23-3.59-.34-5.39-.01-.2,0-.41,0-.65h.4c.66,0,1.33,0,1.99,.01,.28,0,.44-.09,.58-.31,.17-.3,.37-.58,.56-.85,.14-.2,.22-.38,.16-.63-.06-.25-.08-.52-.11-.79-.03-.24-.08-.49-.13-.76h-3.7c-.07-1.02-.13-2.01-.2-3.04Zm.27-1.78c.13-.23,.22-.42,.34-.62,.14,.17,.24,.28,.4,.47,.03-.28-.09-.43-.16-.58-.09-.22-.06-.37,.11-.54,.19,.25,.36,.46,.53,.69,.05-.1,.05-.18,.02-.24-.09-.2-.19-.41-.31-.6-.13-.22-.13-.42,.04-.64,.14,.17,.28,.32,.45,.51,.07-.32-.13-.44-.25-.58-.14-.19-.16-.35,0-.53,.29,.09,.5,.37,.88,.42-.06-.1-.08-.17-.12-.21-.17-.16-.35-.3-.52-.45-.23-.19-.23-.2-.06-.49,.2,.07,.38,.15,.57,.22,.02-.02,.03-.05,.04-.09-.13-.13-.3-.19-.46-.28-.12-.08-.2-.15-.07-.31,.31,.06,.64,.11,.96,.17-.04-.1-.09-.15-.15-.18-.2-.09-.42-.17-.63-.25-.19-.07-.22-.17-.12-.35,.22,0,.43,.02,.65,.04,0-.04,0-.06,.01-.09-.19-.05-.38-.09-.56-.16-.05-.02-.12-.11-.12-.16s.08-.13,.14-.13c.23-.04,.47-.06,.71-.09,.07-.01,.14-.05,.21-.08,0-.03-.02-.05-.02-.07h-.97c-.08-.2-.07-.31,.13-.36,.15-.03,.32-.04,.42-.24-.21,.02-.42,.05-.69,.07,.17-.45,.66-.42,.85-.74-.14,.02-.27,.06-.4,.11-.13,.05-.27,.1-.43,.14-.05-.41,.4-.42,.51-.74-.22,.11-.39,.2-.55,.29-.13-.2-.1-.33,.04-.47,.15-.15,.31-.33,.45-.5,.04-.05,.05-.11,.07-.17-.02-.01-.03-.02-.04-.03-.22,.19-.45,.37-.67,.57-.14-.19-.13-.32,0-.46,.09-.13,.26-.23,.26-.46-.18,.14-.32,.24-.51,.4-.08-.52,.32-.84,.29-1.29-.18,.22-.35,.43-.53,.65-.36-.34,.12-.58,.04-.91-.13,.16-.23,.3-.36,.45-.17-.19-.32-.36-.48-.53-.17,.18-.31,.35-.47,.52,1.1,.79,1.4,2,1.74,3.2-.16,.09-.28,.16-.4,.24,.04,.14,.07,.24,.12,.35,.15,.29,.12,.55-.06,.82-.22,.35-.32,.72-.28,1.15,.01,.11,0,.22-.1,.33-.16,.19-.3,.42-.35,.65-.03,.13,.12,.31,.19,.47,.01,.04,.04,.09,.07,.13,.14,.18,.1,.35,0,.52-.16,.27-.37,.44-.68,.51-.09,.02-.18,.03-.31,.05,.19,.16,.35,.32,.55,.5Zm-4.83-5.28s0,.04-.01,.06c.06,.02,.12,.06,.19,.07,.21,.05,.41,.09,.63,.13,.18,.04,.23,.13,.16,.31-.19,.03-.38,.06-.57,.09,0,.03,.01,.05,.01,.07,.11,0,.21,0,.32,0,.12,0,.27-.08,.32,.1,.04,.2-.15,.2-.26,.26-.18,.09-.37,.15-.56,.24-.05,.03-.1,.09-.15,.13,.01,.02,.02,.04,.03,.06,.31-.06,.63-.13,.95-.2,.12,.16,.12,.28-.06,.37-.13,.07-.24,.14-.37,.22,0,.03,.01,.04,.02,.06,.18-.07,.35-.15,.58-.24-.05,.57-.58,.7-.79,1.17,.33-.18,.6-.32,.86-.46,.18,.27,.16,.47-.04,.67-.08,.08-.14,.19-.21,.28,.01,.02,.03,.03,.05,.04,.12-.11,.26-.22,.39-.33q.13,.31,.02,.53c-.13,.26-.3,.52-.39,.79,.03,.03,.05,.04,.07,.06,.18-.21,.36-.41,.55-.62,.23,.26,.25,.49,.11,.76-.05,.09-.13,.2-.07,.33,.16-.12,.13-.35,.31-.43,.11,.18,.22,.34,.31,.5,.19-.11,.34-.19,.53-.3-.2-.04-.17-.15-.13-.28,.03-.09,.04-.19,.09-.29,.09-.17,.04-.3-.08-.44-.21-.25-.38-.54-.61-.76-.4-.4-.52-.86-.41-1.41,.04-.14,.02-.33-.06-.43-.29-.33-.26-.65-.05-1,.03-.05,.04-.11,.07-.18-.08-.11-.16-.23-.25-.34-.13-.15-.18-.3-.11-.51,.12-.4,.22-.82,.32-1.24,.16-.64,.44-1.2,1.01-1.58,.01-.01,.02-.04,.04-.07-.07-.1-.16-.21-.29-.37-.11,.15-.21,.28-.31,.43-.11-.16-.18-.27-.27-.38,.03,.28,.28,.55-.09,.8-.11-.15-.24-.29-.38-.46-.02,.39,.36,.72,.09,1.12-.11-.1-.2-.19-.3-.27-.02,.02-.03,.03-.04,.04,.09,.13,.18,.26,.28,.42-.05,.1-.11,.2-.16,.31-.25-.13-.39-.37-.66-.42,.1,.18,.22,.34,.34,.49,.11,.15,.3,.28,.14,.53-.15-.09-.31-.18-.46-.25,.08,.14,.18,.24,.3,.33,.17,.12,.18,.25,.05,.42-.26-.11-.51-.21-.76-.32-.01,.03-.02,.05-.04,.07,.21,.15,.42,.29,.64,.44,.14,.1,.23,.19,.08,.38-.17-.06-.36-.11-.54-.17-.02,.03-.03,.06-.04,.09,.16,.08,.32,.15,.48,.22,.16,.06,.21,.16,.09,.35h-.9Zm4.18,4.43c-.05-.86-.13-1.68-.15-2.51-.02-.79,0-1.58,0-2.37,0-.1,0-.21-.05-.29-.04-.07-.15-.13-.23-.14-.05,0-.13,.11-.15,.18-.03,.11-.03,.24-.03,.37-.06,1.08-.09,2.15-.18,3.23-.06,.62,.18,1.15,.29,1.76,.31-.11,.61,.03,.97-.16-.2-.04-.31-.05-.46-.07Zm1.5,14.56c.39-.03,.72-.16,1.04-.29,.53-.2,1.05-.2,1.58-.03,.16,.06,.33,.12,.5,.18,.48,.17,.97,.23,1.47,.07,.34-.11,.67-.26,1.01-.31,.34-.06,.69-.02,1.06-.02,.04-.14,.08-.27,.12-.39-.43-.13-.62-.16-.97-.09-.26,.06-.52,.14-.78,.24-.62,.23-1.23,.26-1.85,.05-.25-.08-.5-.16-.76-.23-.3-.09-.61-.13-.92-.04-.5,.15-1.01,.3-1.53,.46,.01,.13,.02,.25,.02,.4Zm-11.29-.36c.66-.2,1.24,0,1.82,.22,.66,.26,1.3,.2,1.94-.07,.65-.28,1.31-.31,1.97-.03,.19,.08,.38,.13,.57,.19,.11,.03,.21,.03,.35,.05v-.43c-.22-.05-.43-.07-.6-.15-.86-.42-1.71-.37-2.59-.02-.59,.24-1.2,.2-1.8-.02-.2-.07-.4-.15-.61-.2-.39-.09-.79-.1-1.19,.04,.05,.14,.08,.25,.13,.41Zm11.25,.91c.19,.15,.32,.24,.45,.33,.18-.06,.34-.14,.51-.18,.34-.08,.68-.15,1.03-.19,.38-.04,.74,.1,1.09,.25,.61,.24,1.22,.29,1.84,.06,.45-.18,.92-.34,1.43-.31,.06-.14,.11-.26,.18-.41-.11-.02-.18-.04-.25-.05-.41-.04-.81,.04-1.17,.21-.71,.31-1.41,.32-2.12,.03-.11-.05-.23-.08-.36-.13-.32-.12-.67-.17-1-.09-.52,.13-1.03,.3-1.62,.49Zm-10.9-.04c.52-.03,.97,.13,1.44,.3,.52,.2,1.05,.2,1.58,.03,.07-.03,.15-.05,.22-.08,.77-.37,1.55-.32,2.33,0,.34,.12,.44,.08,.65-.24-.34-.12-.68-.24-1.03-.36-.52-.18-1.03-.17-1.54,.02-.21,.07-.4,.13-.61,.21-.46,.14-.91,.14-1.37,0-.22-.07-.42-.15-.64-.23-.37-.12-.77-.18-1.21-.07,.08,.16,.12,.27,.18,.41ZM18.43,4.92c-.41-.15-.62-.08-.74,.27-.07,.2-.12,.41-.1,.63,.01,.88,.05,1.75,.1,2.63,0,.16,.02,.33,.06,.48,.04,.16,.12,.31,.17,.46,.05,0,.09-.01,.14-.03-.16-.52-.33-1.05-.18-1.59,.11,.38,.02,.79,.25,1.16,.2-1.34,.2-2.68,.31-4.02Zm3.16,21.01c.21,.24,.42,.33,.72,.28,.2-.04,.42-.03,.63,0,.3,.07,.6,.17,.9,.27,.54,.19,1.07,.22,1.61,.02,.23-.08,.45-.18,.68-.23,.3-.07,.43-.25,.51-.54-.07,0-.13-.01-.16,0-.33,.09-.66,.18-.98,.28-.57,.19-1.12,.2-1.69-.01-.2-.08-.4-.14-.61-.2-.53-.18-1.05-.12-1.61,.12Zm-6.59-.01c-.41-.19-.81-.28-1.22-.19-.32,.08-.65,.17-.97,.29-.56,.2-1.1,.2-1.66,.02-.17-.05-.35-.13-.53-.18-.2-.05-.41-.08-.63-.13,.12,.39,.15,.45,.34,.51,.32,.11,.66,.21,1,.32,.39,.13,.79,.14,1.18,.02,.24-.07,.47-.16,.71-.23,.36-.12,.73-.21,1.11-.13,.29,.07,.47-.07,.67-.28Zm5.13-16.41c-.16-.29-.32-.54-.46-.81-.08-.17-.17-.37-.17-.56-.02-.76-.14-1.5,0-2.26,.02-.12,.02-.26,.02-.38,0-.32-.05-.37-.41-.46-.08,1.65,.09,3.27,.11,4.92,.43,.02,.58-.34,.91-.46Zm-2.23-7.63c.28-.35,.6-.22,.93-.04,.02,.01,.05,.01,.06,.03,.17,.1,.31,.06,.46-.05,.33-.23,.33-.64-.01-.91-.37-.3-1.04-.32-1.45-.04-.43,.29-.43,.65,.02,1.01Zm-7.19,24.94c.14,.29,.26,.58,.59,.67,1.02,.28,1.82-.13,2.59-.83-.4,0-.7,.14-1,.26-.6,.24-1.22,.26-1.83,.01-.11-.05-.22-.07-.35-.11Zm15.26,0c-.15,.04-.26,.06-.36,.11-.63,.26-1.26,.25-1.9-.01-.22-.09-.45-.16-.67-.22-.08-.02-.18,0-.36,0,.33,.22,.57,.39,.82,.56,.47,.3,.99,.38,1.55,.3,.45-.05,.7-.32,.92-.73ZM17.38,6.18c-.21,.07-.42,.12-.44,.32-.05,.52-.07,1.03-.1,1.56,.24,.05,.45,.09,.7,.14-.06-.7-.11-1.35-.16-2.02Zm2.78-2.76c-.04,.69-.09,1.41-.14,2.17,.3-.13,.55-.24,.82-.33-.14-.78-.43-1.55-.68-1.83Zm-1.15,.59c-.12,.06-.21,.14-.13,.28,.12,.21,.21,.43,.37,.6,.26,.27,.53,.2,.59-.17,.06-.36,.08-.72,.11-1.08,0-.14-.03-.27-.18-.29-.15-.02-.24,.12-.24,.24,0,.31-.15,.66,.14,.98-.38-.06-.38-.45-.65-.56Zm-1.82,1.17c-.06-.68-.11-1.36-.17-2.04-.27,.57-.43,1.14-.54,1.71,.27,.12,.5,.23,.71,.33Zm2.51,2.97c.23-.05,.4-.09,.58-.13v-1.14c-.06-.03-.15-.07-.28-.14-.1,.47-.19,.9-.31,1.42Zm-1.54-4.07s-.03-.08-.05-.11c-.1,.01-.24-.01-.3,.04-.16,.16-.3,.36-.43,.56-.07,.12-.06,.25,.08,.33,.11,.06,.23,.03,.3-.08,.14-.25,.28-.5,.41-.75Zm-6.49,23.98c.33,.27,.58,.49,.89,.75v-.82c-.28,.03-.54,.05-.89,.07Zm13.19,.06s-.03-.04-.04-.07c-.26-.02-.51-.04-.77-.06v.82c.31-.26,.56-.48,.81-.7Zm-7.02-17.81c.25,.04,.43,.07,.64,.1-.09-.4-.15-.75-.35-1.07-.09,.31-.2,.62-.3,.97Zm-.37-6.99c-.15,.34-.22,.65-.15,1.01,.53-.45,.56-.62,.15-1.01Zm1.61,7.4c-.11-.2-.28-.21-.45-.16-.21,.07-.21,.27-.27,.46,.32,.03,.56-.06,.73-.3Zm1.21-4.05s.05-.02,.08-.04c-.1-.26-.2-.52-.33-.85-.08,.19-.12,.3-.18,.42,.14,.16,.29,.32,.43,.48Zm-3.73-.28c.26-.06,.42-.2,.62-.35-.12-.1-.21-.17-.36-.29-.08,.23-.16,.4-.26,.64Zm3.61-.67c.14,.12,.27,.22,.38,.31,.02-.01,.04-.02,.06-.03-.04-.13-.09-.27-.15-.42-.11,.06-.18,.09-.3,.15Zm-2.06,5.27c-.07-.19-.09-.28-.13-.42-.09,.09-.14,.15-.21,.23,.12,.06,.19,.11,.35,.19Zm.01-.46s-.01,.05-.01,.09c.09,0,.19,.02,.29,.03-.08-.17-.18-.16-.28-.11Z"/>
        <path class="cls-1" d="M14.76,39.83c-.16-.6-.29-1.11-.42-1.63h-.08c-.08,.37-.15,.73-.2,1.09-.01,.08,.08,.17,.14,.3-.21-.04-.4-.07-.55-.1,.1-.19,.21-.34,.26-.51,.08-.26,.12-.54,.17-.81,.05-.21,.13-.41-.14-.57,.02-.01,.04-.03,.06-.04,.2,.04,.41,.08,.63,.12,.12,.48,.24,.95,.38,1.48,.38-.39,.63-.81,.95-1.2,.2,.03,.4,.07,.6,.11-.19,.1-.26,.24-.29,.42-.06,.33-.13,.67-.21,1-.04,.25-.04,.26,.17,.51-.33-.06-.59-.12-.87-.17,.2-.09,.27-.23,.3-.42,.05-.3,.12-.61,.12-.94-.32,.42-.65,.85-1.02,1.35Z"/>
        <path class="cls-1" d="M6.44,7.37c.44-.32,.82-.67,1.25-.91,.52-.29,1.16,.14,1.24,.8,.04,.37-.07,.7-.35,.95-.25,.22-.52,.42-.79,.63-.25-.53-.63-.93-.98-1.35-.05-.07-.21-.07-.37-.12Zm.65-.26c.32,.44,.63,.87,.98,1.27,.33-.21,.6-.41,.56-.82-.04-.35-.37-.77-.68-.84-.37-.09-.6,.13-.86,.39Z"/>
        <path class="cls-1" d="M11.91,6.27c-.08-.26-.15-.48-.23-.7-.08-.23-.17-.45-.26-.67-.06-.18-.1-.37-.39-.36,.5-.22,.94-.48,1.45-.56,.6-.09,1.07,.49,.95,1.13-.07,.4-.31,.68-.68,.83-.28,.11-.56,.21-.84,.32Zm.35-.32c.4-.1,.72-.23,.79-.65,.06-.35-.15-.83-.42-.99-.33-.19-.62-.03-.93,.14,.07,.2,.13,.39,.21,.57,.11,.3,.23,.6,.35,.93Z"/>
        <path class="cls-1" d="M36.66,17.86c.06,.4,.15,.82,.18,1.24,.06,.76-.53,1.18-1.25,.94-.38-.13-.6-.4-.69-.79-.08-.33-.11-.66-.16-.98,.22-.02,.43-.03,.63-.04,.29-.04,.57-.07,.85-.14,.14-.03,.26-.14,.44-.23Zm-1.69,.84c.03,.43,.08,.78,.46,.91,.38,.12,.76,.1,1.06-.19,.27-.27,.18-.59,.06-.95-.53,.08-1.05,.16-1.59,.23Z"/>
        <path class="cls-1" d="M23.2,39.52c-.7,.02-.97-.6-.98-1.1-.01-.57,.5-1,1.18-1.01,.57-.02,.96,.41,.97,1.05,.02,.6-.5,1.05-1.17,1.06Zm.77-.86c-.01-.3-.09-.6-.3-.85-.18-.2-.4-.24-.65-.16-.24,.08-.38,.27-.39,.53,0,.31,.08,.6,.26,.85,.18,.25,.41,.34,.68,.25,.26-.08,.4-.28,.4-.63Z"/>
        <path class="cls-1" d="M2.73,11.7c.22-.32,.45-.65,.67-.98,.1-.14,.25-.21,.42-.17,.19,.05,.3,.18,.34,.37,.02,.1,.02,.2,.03,.33h1.18c-.02,.19-.17,.3-.26,.44-.38-.02-.76-.05-1.11-.07-.03-.16-.02-.33-.07-.47-.03-.07-.14-.15-.23-.18-.18-.08-.29,0-.46,.31,.37,.32,.79,.59,1.21,.85,.07,.05,.2,0,.36-.02-.16,.25-.31,.47-.46,.7-.01-.3-.25-.4-.43-.54-.23-.17-.48-.33-.72-.49-.13-.09-.27-.22-.43,.07-.01-.06-.03-.09-.04-.14Z"/>
        <path class="cls-1" d="M30.71,9.99c-.56,0-1.13-.57-1.11-1.12,.01-.52,.54-1.03,1.07-1.02,.57,0,1.15,.59,1.14,1.15-.01,.52-.55,1.01-1.09,.99Zm-.2-.25c.42-.02,.99-.64,.97-1.07-.03-.36-.45-.65-.8-.5-.38,.16-.66,.47-.75,.88-.08,.32,.25,.69,.57,.68Z"/>
        <path class="cls-1" d="M35.42,29.29c.01,.61-.46,1.17-.99,1.19-.57,.02-1.11-.47-1.13-.99-.02-.59,.5-1.22,1.02-1.22,.56,0,1.1,.49,1.1,1.02Zm-.83,.79c.25,.02,.42-.08,.53-.28,.12-.19,.14-.41,0-.6-.26-.33-.61-.52-1.03-.52-.25,0-.42,.15-.52,.37-.09,.22-.06,.42,.1,.59,.24,.26,.56,.42,.92,.44Z"/>
        <path class="cls-1" d="M35.9,26.41c-.33-.11-.65-.23-.99-.31-.08-.02-.18,.08-.33,.15,.08-.23,.14-.43,.21-.61,.06,.24,.23,.29,.41,.35,.46,.16,.92,.31,1.38,.46,0,.21-.12,.28-.26,.33-.41,.16-.82,.33-1.22,.49-.11,.04-.2,.09-.39,.18,.42,.14,.75,.26,1.1,.34,.09,.03,.22-.05,.36-.08-.06,.2-.12,.38-.18,.56-.06-.22-.23-.29-.4-.35-.31-.1-.6-.19-.89-.3-.19-.07-.38-.13-.55,.13,.03-.43,.16-.67,.55-.79,.41-.12,.82-.31,1.22-.46,0-.03,0-.07,.01-.1Z"/>
        <path class="cls-1" d="M5.88,35.18c-.18-.15-.33-.28-.48-.42,0-.03,.01-.05,.02-.08,.2,.12,.33,.03,.46-.11,.22-.26,.45-.5,.67-.76,.18-.21,.18-.22,.12-.51,.3,.18,.51,.35,.46,.75-.05,.33-.04,.67-.05,1.01,0,.12,0,.24,.01,.35,.03,.01,.05,.02,.08,.03,.22-.25,.45-.5,.65-.77,.06-.07,.02-.22,.02-.37,.17,.15,.32,.29,.47,.42-.26-.05-.39,.12-.51,.27-.24,.28-.48,.54-.72,.82-.07,.09-.15,.16-.22,.24-.19-.06-.19-.21-.19-.34,0-.43,.02-.86,.02-1.29,0-.12,0-.24,0-.45-.33,.3-.56,.59-.78,.88-.05,.07-.02,.2-.02,.35Z"/>
        <path class="cls-1" d="M26.49,37.6c-.11-.25-.24-.5-.33-.76-.08-.18-.18-.28-.39-.33,.18-.09,.35-.16,.59-.27-.05,.14-.11,.23-.1,.32,0,.11,.06,.21,.1,.31,.18,.42,.36,.84,.55,1.24-.14,.18-.27,.11-.41,.04-.38-.18-.75-.36-1.11-.54-.11-.05-.23-.11-.35-.17-.01,.4,.34,1.08,.67,1.22-.2,.09-.38,.16-.55,.24-.03-.02-.05-.03-.07-.04,.25-.15,.13-.33,.06-.5-.12-.3-.25-.6-.39-.89q-.12-.26-.4-.34c.29-.2,.54-.3,.88-.08,.37,.24,.79,.42,1.19,.61,.02-.02,.04-.05,.06-.08Z"/>
        <path class="cls-1" d="M.33,17.78c.1,.21,.25,.26,.44,.28,.48,.07,.96,.15,1.44,.23,.07,.2-.06,.28-.18,.36-.37,.22-.72,.45-1.09,.67-.1,.07-.2,.13-.3,.2,0,.03,0,.05,0,.07,.37,.05,.74,.11,1.11,.14,.08,0,.15-.1,.28-.17-.03,.22-.04,.41-.07,.6-.14-.24-.37-.26-.6-.29-.27-.05-.55-.08-.82-.11q-.28-.04-.5,.15c-.03-.35,.03-.6,.38-.77,.4-.21,.76-.47,1.21-.73-.41-.15-.77-.17-1.12-.2-.07,0-.15,.1-.27,.18,.03-.23,.06-.42,.08-.63Z"/>
        <path class="cls-1" d="M.02,21.09v-.51c.16,.04,.31,.11,.47,.12,.27,.03,.54,.02,.82,.03,.31,.02,.58,.14,.65,.46,.09,.36,.1,.74-.19,1.03-.08,.09-.25,.12-.37,.13-.29,.02-.58,0-.87,0q-.31,0-.53,.21v-.77c.18,.05,.35,.12,.53,.13,.27,.03,.55,.03,.82,0,.29-.02,.42-.2,.41-.52-.02-.3-.15-.46-.42-.49-.33-.02-.68-.02-1.02,0-.1,0-.19,.11-.32,.18Z"/>
        <path class="cls-1" d="M30.96,34.02c.17-.4,.14-.55-.08-.7-.18-.12-.27-.09-.53,.17,.19,.26,.43,.47,.65,.71,.09,.09,.2,.19,.29,.29,.12,.15,.26,.19,.44,0-.1,.28-.31,.5-.62,.7,.03-.27,.03-.27-.17-.48-.23-.24-.47-.48-.71-.72-.13-.13-.24-.21-.46-.07,.14-.25,.74-.88,.89-.96,.26-.15,.55-.03,.66,.28,.1,.29,0,.55-.36,.79Z"/>
        <path class="cls-1" d="M3.79,12.93c.11,.07,.23,.14,.38,.23-.22,.42-.42,.82-.62,1.22-.15-.12-.27-.23-.4-.31-.26-.15-.53-.28-.8-.42-.3-.16-.3-.15-.61-.08,.22-.43,.43-.83,.65-1.26,.14,.07,.24,.12,.35,.18-.37,.03-.4,.33-.55,.59,.19,.11,.37,.22,.57,.33,.16-.2,.34-.35,.18-.66,.16,.08,.32,.16,.47,.25-.28,.05-.38,.24-.46,.51,.2,.11,.41,.22,.6,.32,.35-.37,.38-.52,.22-.88Z"/>
        <path class="cls-1" d="M4.47,33.67c.09,.03,.16,.04,.25,.07,.06-.12,.13-.23,.2-.36-.08-.1-.15-.2-.24-.29q-.24-.29-.59-.09v.25c-.2-.11-.28-.29-.41-.45,.43,.05,.79-.18,1.16-.28,.3-.09,.6-.19,.88-.28,.19,.09,.13,.21,.06,.35-.21,.43-.43,.86-.63,1.28-.07,.14-.11,.3-.17,.48-.19-.19-.39-.37-.52-.66Zm.17-.91c.14,.17,.24,.29,.37,.44,.12-.23,.21-.41,.3-.58-.01-.02-.03-.04-.05-.07-.19,.07-.37,.13-.62,.21Z"/>
        <path class="cls-1" d="M35.05,20.78c.21,.02,.41,.06,.62,.07,.26,.02,.52,0,.79,.01,.2,0,.4,.02,.53-.29v1.49c-.13,.01-.25,.02-.37,.03,.29-.2,.22-.47,.21-.77-.21-.01-.41-.03-.63-.04-.07,.23-.14,.44,.17,.64h-.59c.23-.14,.24-.35,.2-.61h-.74c-.02,.3-.16,.61,.22,.81h-.39v-1.34Z"/>
        <path class="cls-1" d="M11.44,6.49c-.23,.13-.46,.25-.7,.38,0-.02-.03-.03-.03-.05,.02-.06,.05-.12,.1-.2-.09-.09-.19-.18-.31-.29-.21,.11-.41,.22-.64,.34,.03,.14,.04,.26,.07,.4,.09,.01,.16,.03,.33,.06-.24,.14-.41,.23-.64,.36,.17-.36,.09-.67,.06-.97-.03-.32-.08-.64-.11-.96,0-.11,.04-.22,.06-.32,.1,.04,.21,.05,.28,.11,.36,.27,.69,.55,1.04,.82,.15,.11,.32,.21,.51,.33Zm-1.69-.74c.03,.29,.05,.49,.08,.74,.18-.1,.32-.18,.5-.27-.19-.16-.35-.28-.58-.47Z"/>
        <path class="cls-1" d="M30.14,35.11q-.3-.04-.63,.27c.14,.18,.3,.37,.44,.56,.5-.29,.55-.36,.53-.72,.08,.1,.16,.21,.27,.35-.37,.3-.71,.57-1.06,.86-.24-.54-.63-.93-.98-1.35-.06-.07-.21-.06-.35-.11,.37-.29,.73-.58,1.1-.89,.11,.11,.19,.21,.26,.31-.36-.16-.51,.13-.75,.31,.13,.19,.27,.36,.39,.53,.25-.12,.41-.26,.37-.62,.17,.22,.28,.36,.4,.5Z"/>
        <path class="cls-1" d="M27.52,7.55c-.25-.14-.47-.26-.74-.4,.1-.04,.17-.07,.26-.09,.02-.11,.04-.23,.07-.39-.2-.11-.41-.23-.62-.36-.1,.09-.2,.16-.31,.25,.03,.09,.06,.17,.1,.31-.21-.11-.38-.2-.59-.31,.52-.16,.82-.56,1.2-.84,.15-.1,.28-.24,.44-.35,.05-.04,.16-.08,.19-.06,.06,.04,.1,.14,.09,.22-.02,.37-.07,.74-.09,1.12-.01,.28,0,.57,0,.9Zm-.9-1.37c.17,.09,.31,.17,.49,.27,.03-.26,.05-.46,.06-.66-.02,0-.04-.02-.06-.03-.16,.12-.3,.25-.49,.41Z"/>
        <path class="cls-1" d="M17.79,38.1c.24,.01,.25,.15,.29,.26,.14,.36,.27,.73,.42,1.09,.09,.22,.18,.43,.28,.65h-.82c.11-.09,.16-.13,.24-.19-.04-.11-.08-.24-.13-.39-.24-.01-.45-.02-.69-.03-.14,.19-.25,.36,0,.55h-.56c.12-.2,.24-.37,.34-.57,.22-.45,.42-.9,.63-1.36Zm.21,1.23c-.09-.24-.17-.44-.27-.7-.11,.26-.2,.44-.3,.67,.21,0,.36,.02,.57,.03Z"/>
        <path class="cls-1" d="M1.64,29.29c.06,.03,.11,.06,.2,.1,.09-.09,.2-.18,.3-.27-.11-.25-.21-.45-.31-.68-.14,.01-.27,.03-.41,.04-.03,.09-.04,.16-.06,.26-.17-.15-.21-.34-.29-.53,.74,.16,1.45-.06,2.15-.01,.12,.16,.02,.26-.06,.35-.31,.34-.62,.68-.92,1.04-.11,.13-.2,.28-.31,.44-.11-.23-.23-.47-.35-.7,.02-.01,.03-.03,.05-.04Zm1.1-.89c-.29,0-.5-.05-.71,.08,.08,.15,.14,.28,.23,.45,.15-.17,.28-.32,.48-.53Z"/>
        <path class="cls-1" d="M34,15.72c-.09-.25-.15-.42-.2-.58,.26,.04,.51,.09,.76,.11,.39,.02,.78,.03,1.17,.05,.09,.01,.17,.07,.26,.1-.05,.08-.07,.19-.13,.24-.34,.33-.7,.65-1.05,.98-.11,.11-.2,.23-.34,.4-.09-.25-.18-.48-.28-.75,.15-.02,.27,.16,.4-.01,.1-.12,.17-.2,.11-.36-.07-.15-.12-.3-.17-.44q-.38-.06-.53,.27Zm.9,.24c.19-.18,.33-.31,.55-.5-.29-.02-.49-.04-.72-.05,.02,.11,.03,.17,.05,.22,.03,.1,.07,.19,.13,.33Z"/>
        <path class="cls-1" d="M12.47,37.07c-.07,.14-.14,.25-.2,.36-.01-.28-.12-.45-.37-.54-.18-.06-.35,0-.43,.13-.08,.15-.05,.29,.13,.42,.09,.07,.18,.13,.28,.19,.18,.11,.31,.26,.28,.49-.04,.25-.18,.45-.43,.53-.26,.09-.52,.04-.75-.09-.14-.09-.26-.19-.42-.3,.09-.16,.16-.3,.27-.51,.02,.5,.15,.68,.45,.75,.19,.04,.33-.03,.41-.19,.09-.16,.03-.28-.11-.38-.1-.08-.21-.15-.31-.23-.24-.19-.3-.4-.2-.65,.1-.24,.34-.4,.6-.36,.3,.03,.55,.15,.8,.39Z"/>
        <path class="cls-1" d="M4.88,31.21c-.15,.08-.27,.14-.43,.21,.18-.36,.18-.53,.01-.71-.12-.12-.26-.17-.42-.09-.16,.09-.19,.22-.12,.39,.04,.09,.08,.18,.11,.28,.14,.34,.12,.52-.08,.69-.23,.18-.57,.21-.81,.03-.3-.21-.46-.5-.51-.89,.14-.07,.27-.14,.44-.24-.08,.2-.16,.34-.16,.48,0,.12,.07,.25,.14,.34,.13,.19,.3,.22,.46,.12,.18-.11,.17-.27,.12-.43-.04-.12-.09-.24-.13-.36-.08-.27-.02-.45,.19-.59,.21-.15,.46-.17,.67-.03,.27,.18,.42,.45,.51,.8Z"/>
        <path class="cls-1" d="M5.07,8.81c.09,.11,.19,.19,.33,.35-.12-.03-.16-.04-.21-.05-.28-.08-.6,.2-.55,.48,.03,.21,.24,.31,.43,.2,.13-.07,.24-.18,.37-.26,.37-.26,.79-.07,.87,.38,.04,.26-.03,.5-.22,.68-.15,.15-.32,.27-.49,.42-.15-.16-.25-.26-.35-.37,.4,.07,.58,.03,.75-.19,.12-.17,.13-.36,.02-.48-.12-.15-.25-.15-.47-.02-.09,.06-.16,.11-.25,.17-.28,.19-.47,.19-.68,.01-.23-.2-.28-.48-.14-.76,.13-.25,.32-.45,.6-.57Z"/>
        <path class="cls-1" d="M21.73,37.96v.42c-.14-.19-.28-.33-.54-.32-.46,0-.75,.29-.74,.76,0,.72,.55,1.1,1.22,.85,.08-.03,.16-.06,.28-.05-.05,.06-.09,.13-.15,.17-.31,.18-.66,.23-1.02,.14-.44-.1-.72-.45-.76-.91-.03-.48,.18-.85,.62-1.01,.35-.13,.7-.19,1.09-.04Z"/>
        <path class="cls-1" d="M28.22,35.19c.06,.14,.12,.26,.21,.45-.17-.09-.26-.17-.37-.19-.1-.02-.22,.02-.32,.07-.41,.2-.54,.6-.34,1.01,.32,.62,.95,.73,1.44,.24,.06-.06,.12-.13,.19-.2,.02,.05,.06,.09,.04,.11-.2,.45-.57,.66-1.03,.72-.42,.06-.72-.15-.94-.5-.25-.38-.21-.83,.09-1.18,.24-.27,.58-.45,1.01-.52Z"/>
        <path class="cls-1" d="M34.85,14.15c.27-.4,.26-.65,.02-.93-.21-.25-.52-.31-.86-.16-.63,.27-.78,.88-.33,1.41,.06,.07,.12,.14,.23,.27-.12-.03-.19-.03-.23-.06-.39-.24-.64-.89-.53-1.33,.19-.71,1.12-.98,1.67-.48,.29,.28,.43,.64,.51,1.08-.13,.06-.28,.11-.48,.2Z"/>
        <path class="cls-1" d="M1.52,14.03c.15,.19,.25,.34,.39,.47,.3,.3,.62,.58,.93,.88,.09,.08,.24,.14,.17,.3-.07,.15-.21,.1-.33,.1-.44,.03-.88,.03-1.32,.06-.17,.01-.34,.07-.56,.12,.09-.26,.19-.52,.31-.86,.05,.14,.07,.21,.11,.3h1.28c-.17-.29-.58-.68-.95-.91-.07,.05-.13,.08-.19,.13-.02-.01-.03-.02-.05-.03,.08-.19,.14-.37,.21-.56Z"/>
        <path class="cls-1" d="M32.26,31.16c.12,.13,.22,.23,.31,.33-.39-.08-.61,.03-.78,.37-.15,.31-.08,.59,.2,.85,.5,.47,1.12,.36,1.42-.26,.05-.08,.08-.17,.12-.26,.04,.04,.08,.05,.08,.07-.02,.46-.3,.77-.66,1-.33,.2-.67,.17-.99-.02-.49-.28-.65-.8-.42-1.3,.15-.33,.39-.59,.71-.77Z"/>
        <path class="cls-1" d="M26.12,4.7c-.07,.13-.13,.26-.23,.42-.06-.48-.24-.66-.61-.71-.34-.04-.59,.13-.76,.5-.24,.59,0,1.08,.61,1.22,.12,.03,.24,.05,.37,.07-.07,.17-.22,.14-.33,.12-.22-.05-.44-.11-.63-.22-.46-.25-.64-.72-.46-1.23,.16-.49,.55-.73,1.08-.66,.37,.05,.7,.19,.97,.49Z"/>
        <path class="cls-1" d="M27.89,7.86c.32-.03,.32-.02,.48-.25,.25-.32,.49-.66,.76-1.02-.14-.1-.26-.2-.39-.29-.09,.05-.17,.09-.26,.15-.02-.19,.13-.27,.2-.43,.48,.36,.95,.71,1.44,1.06-.09,.13-.17,.23-.25,.33-.01-.28-.12-.47-.43-.56-.28,.38-.58,.77-.85,1.18-.04,.06,0,.21,.02,.37-.24-.19-.46-.35-.72-.54Z"/>
        <path class="cls-1" d="M10.01,35.81c-.09,.14-.16,.25-.23,.36-.02-.29-.15-.46-.46-.54-.25,.4-.52,.81-.76,1.23-.04,.08,.02,.21,.04,.37-.26-.17-.49-.31-.75-.48q.31-.06,.47-.31c.22-.34,.43-.68,.66-1.05-.12-.09-.23-.16-.35-.25-.1,.05-.2,.1-.29,.13-.02,0-.03-.01-.04-.04,.06-.12,.13-.24,.21-.38,.51,.33,1,.63,1.5,.96Z"/>
        <path class="cls-1" d="M2.29,25.63c.08,.29,.16,.55,.24,.81-.21-.15-.39-.09-.58-.04-.38,.12-.76,.24-1.14,.35,.04,.53,.11,.63,.5,.78-.14,.02-.28,.06-.45,.09-.19-.42-.25-.86-.4-1.3,.58,.01,1.09-.23,1.6-.39,.08-.03,.13-.17,.23-.31Z"/>
        <path class="cls-1" d="M31.1,10.76c.18-.1,.31-.16,.43-.25,.26-.2,.53-.43,.8-.63,.16-.11,.24-.24,.13-.45,.04,0,.06-.01,.09-.02,.18,.21,.35,.43,.52,.64-.25-.07-.39,.07-.54,.2-.31,.25-.62,.5-.93,.74,.23,.49,.33,.56,.73,.55-.11,.08-.23,.15-.38,.27-.29-.36-.56-.7-.85-1.06Z"/>
        <path class="cls-1" d="M13.09,39.29c-.25-.08-.51-.17-.76-.25,.24-.11,.3-.32,.37-.53,.08-.25,.16-.51,.25-.76,.06-.18,.13-.36-.02-.58,.25,.08,.5,.17,.86,.28-.39,.06-.42,.33-.5,.54-.08,.24-.15,.48-.23,.72-.06,.18-.15,.36,.02,.57Z"/>
        <path class="cls-1" d="M10.2,35.9c.31,.18,.53,.3,.77,.43-.22,.05-.33,.16-.41,.33-.14,.29-.31,.57-.47,.86-.09,.17-.17,.33,.02,.52-.03,0-.05,.02-.07,.03-.24-.13-.48-.26-.73-.4,.28-.04,.36-.23,.46-.41,.14-.26,.29-.53,.43-.8,.12-.22,.11-.22,0-.55Z"/>
        <path class="cls-1" d="M5.54,8.23c.2-.18,.4-.36,.59-.55-.03,.22,.05,.36,.19,.5,.23,.24,.46,.49,.69,.75,.12,.14,.25,.23,.46,.19-.2,.2-.4,.37-.6,.57,.04-.29-.14-.44-.28-.59-.2-.21-.4-.43-.59-.64-.11-.12-.22-.3-.47-.09,0-.04,0-.08,0-.13Z"/>
        <path class="cls-1" d="M32.18,12.07c.22,.16,.39,.06,.56-.06,.25-.17,.5-.33,.75-.5q.23-.16,.26-.48c.11,.16,.2,.26,.27,.38,.08,.12,.15,.23,.21,.38-.2-.12-.35-.04-.51,.06-.27,.19-.55,.37-.81,.54-.23,.16-.23,.17-.27,.49-.18-.27-.34-.51-.49-.74,.01-.01,.01-.04,.03-.07Z"/>
        <path class="cls-1" d="M.46,17.33c.09-.33,.14-.6,.21-.85,.09,.24,.3,.27,.48,.32,.29,.07,.59,.14,.87,.23,.18,.06,.36,.1,.55-.07-.08,.27-.14,.53-.21,.8-.02,0-.05,.02-.07,.03-.02-.28-.21-.33-.41-.38-.3-.08-.61-.16-.9-.24-.23-.05-.23-.04-.52,.16Z"/>
        <path class="cls-1" d="M34.47,31.19c-.14,.22-.29,.46-.44,.69-.02-.24-.18-.35-.34-.46-.28-.18-.56-.35-.83-.53-.16-.1-.29-.16-.47-.01,.11-.28,.26-.52,.47-.75-.04,.23,.07,.33,.23,.43,.28,.17,.58,.36,.85,.55,.15,.1,.3,.16,.47,0,.01,.03,.03,.05,.04,.08Z"/>
        <path class="cls-1" d="M29.28,23.48c-.13-1.9-.25-3.76-.39-5.6,.28-.09,.3-.09,.32,.18,.05,.67,.1,1.35,.15,2.02,0,.04,.01,.08,.06,.11-.04-.68-.08-1.34-.13-2.07,1.05,.14,2.06,.28,3.12,.43,0,.57,.21,1.12,.06,1.68-.01,.05-.01,.13,.01,.17,.21,.55,.09,1.12,.22,1.7-1.05,.29-2.04,.56-3.1,.85-.01-.28-.03-.5-.04-.74h-.02v.89c.87-.25,1.71-.48,2.57-.72,.03,.09,.06,.15,.09,.28-.97,.26-1.92,.53-2.93,.81Zm.63-.91c.83-.23,1.62-.44,2.43-.66-.03-.32-.03-.61-.06-.9-.01-.15-.04-.29-.06-.43-.35-.09-2.16,.03-2.47,.15,.05,.6,.09,1.19,.15,1.83Zm-.16-2.21c.21-.01,.41-.02,.61-.04,.53-.04,1.05-.08,1.58-.12,.25-.03,.29-.09,.28-.31-.01-.36-.06-.71-.09-1.1-.84-.1-1.66-.2-2.51-.31,.04,.66,.08,1.25,.13,1.87Zm-.3,1.46h.04v-.66h-.04v.66Z"/>
        <path class="cls-1" d="M30.58,14.45c.23,.23,.55,.4,.45,.75-.09,.36-.45,.34-.75,.46,0,.14,.01,.29,0,.44-.02,.32-.19,.44-.5,.37-.09-.01-.17-.05-.25-.08-.08-.04-.15-.08-.24-.13-.11,.12-.21,.25-.33,.35-.28,.26-.55,.21-.72-.14-.07-.14-.1-.31-.16-.47-.18,0-.36,.02-.53,0-.27-.03-.41-.21-.33-.47,.04-.2,.16-.37,.26-.59-.09-.08-.21-.16-.31-.28-.25-.28-.19-.54,.14-.7,.12-.07,.26-.1,.41-.16,0-.14-.01-.29,0-.44,.02-.43,.29-.61,.69-.44,.12,.05,.24,.13,.37,.21,.21-.18,.38-.48,.71-.4,.33,.08,.34,.4,.45,.69,.11,0,.25,0,.38,0,.43,.03,.6,.29,.43,.7-.04,.1-.11,.2-.17,.32Zm-1.53,.9c.32,0,.6-.33,.6-.69,0-.29-.35-.6-.66-.61-.31,0-.66,.37-.65,.7,.01,.31,.36,.6,.71,.6Zm-.3,.4c-.16,.08-.32,.14-.52,.21,.06,.19,.09,.35,.16,.49,.09,.19,.23,.22,.39,.08,.13-.11,.23-.26,.35-.39-.15-.14-.26-.25-.4-.39Zm-.82-1.95h.51c.08-.16,.14-.31,.23-.49-.13-.08-.22-.17-.33-.21-.26-.13-.45-.03-.46,.27-.01,.13,.03,.28,.05,.44Zm-.3,1.24c-.16,.23-.42,.43-.24,.69,.16,.22,.42,.13,.68,.05v-.54c-.14-.06-.27-.13-.44-.2Zm2.58,.43c.27-.06,.57-.02,.64-.31,.06-.25-.18-.38-.37-.5-.02-.02-.05,0-.08,0-.11,.1-.22,.23-.35,.36,.04,.13,.1,.27,.17,.46Zm-.29-1.79v.47c.15,.08,.3,.13,.43,.2,.26-.27,.33-.45,.24-.59-.1-.16-.33-.18-.68-.07Zm-.57,2.4c.2,.17,.4,.34,.62,.21,.22-.12,.15-.37,.11-.57,0-.02-.03-.04-.06-.08h-.47c-.06,.14-.13,.27-.19,.44Zm-1.58-2.09c-.43,.08-.61,.17-.6,.31,.02,.26,.21,.38,.44,.5,.11-.11,.22-.21,.35-.32-.07-.18-.13-.32-.19-.48Zm1.15-.69c.13,.14,.24,.26,.35,.37,.18-.07,.32-.13,.47-.19-.06-.24-.05-.5-.3-.56-.26-.07-.38,.16-.52,.37Zm-.24,2.29c-.16-.12-.25-.19-.4-.3-.02,.18-.02,.3-.04,.45,.15-.05,.26-.09,.44-.15Zm-.7-1.63c.05,.15,.09,.26,.15,.42,.1-.14,.17-.24,.27-.38-.16-.02-.25-.02-.42-.04Zm1.01,1.65s0,.07-.01,.1c.08,.07,.15,.13,.25,.23,.06-.14,.09-.23,.15-.39-.17,.03-.28,.04-.39,.06Zm1.28-1.11c-.16-.07-.26-.11-.43-.19,.04,.21,.06,.31,.09,.48,.13-.11,.21-.17,.34-.29Zm-1.4-1.03s-.06,.03-.1,.04c-.03,.09-.07,.19-.1,.29,.17,.08,.27,.04,.38-.09-.07-.09-.13-.17-.19-.24Zm1.03,1.61c-.18,.1-.28,.18-.22,.37h.33c-.04-.12-.07-.23-.11-.37Zm-.19-.99c.01-.16,.02-.25,.03-.39-.14,.04-.23,.08-.41,.14,.15,.1,.24,.16,.38,.25Zm-1.97,.83c.18,.03,.26,.18,.41,.02-.02-.08-.05-.18-.11-.3-.11,.09-.18,.16-.3,.28Z"/>
        <path class="cls-1" d="M5.87,15.04c.17,.07,.28,.11,.4,.15,.51,.16,1.03,.31,1.55,.47,.26,.09,.29,.15,.3,.41,.01,.32-.13,.55-.41,.72-.25,.16-.42,.14-.62-.08-.42-.45-.83-.92-1.26-1.39-.1,.02-.21,.05-.33,.08,.02-.23-.03-.41,.23-.57,.18-.1,.28-.37,.38-.59,.03-.06-.05-.18-.11-.25-.05-.06-.15-.09-.21-.15-.04-.04-.07-.17-.05-.19,.05-.05,.15-.07,.22-.1,.02,0,.05,.02,.07,.03,.4,.18,.4,.19,.62-.2,.08-.13,.15-.28,.18-.44,.05-.22,.24-.23,.41-.37-.02,.31,.14,.4,.37,.46,.5,.13,.99,.3,1.48,.45,.33,.1,.4,.21,.37,.54-.02,.33-.32,.65-.64,.71-.17,.04-.26-.06-.35-.17-.36-.39-.72-.77-1.08-1.15-.09-.1-.16-.2-.27-.36-.18,.28-.32,.47-.43,.67-.09,.15,0,.26,.12,.34,.22,.14,.45,.28,.67,.42,.48,.3,.96,.6,1.44,.9,.11,.07,.29,.14,.19,.31-.11,.19-.26,.06-.39-.02-.64-.4-1.28-.8-1.92-1.2-.08-.05-.15-.09-.23-.14-.14-.08-.26-.05-.36,.09-.1,.18-.21,.36-.36,.6Zm.67,.4s-.02,.04-.02,.07c.36,.23,.72,.45,1.1,.69,.08-.15,.13-.25,.2-.38-.45-.13-.86-.25-1.28-.37Zm2.64-1.77c-.45-.14-.87-.26-1.29-.39,0,.02-.02,.05-.03,.07,.37,.22,.72,.45,1.09,.69,.08-.13,.15-.23,.23-.37Zm-.32,.54c-.51-.4-.87-.6-1.11-.64,.3,.33,.58,.63,.89,.97,.09-.13,.15-.22,.22-.33Zm-2.47,1.49c.33,.36,.62,.67,.92,1,.09-.16,.14-.26,.21-.38-.33-.21-.64-.4-.95-.58-.03-.02-.06-.01-.18-.03Zm2.51-1.25s.05,.04,.07,.06c.22-.12,.33-.31,.33-.6-.04,.03-.08,.04-.1,.06-.1,.16-.19,.31-.29,.47Zm-1.4,2.23c.39-.2,.45-.29,.4-.63-.13,.21-.24,.38-.4,.63Z"/>
        <path class="cls-1" d="M6.4,19.61c.07-.15,.16-.29,.31-.2,.23,.14,.45,.07,.67,.03,.06-.01,.12,0,.19,0-.1,.16-.18,.3-.25,.4,.1,.2,.34,.01,.35,.22,.01,.11-.02,.22-.05,.33-.02,.14,.26,.13,.17,.31-.04,.1-.14,.18-.22,.26,.13,.36,.1,.41-.37,.47,.05,.16,.09,.31,.16,.49-.09,0-.16,0-.23-.03-.19-.06-.36-.14-.57-.05-.17,.07-.27-.07-.29-.26-.21,.13-.38,.16-.51-.08-.04-.07-.16-.11-.25-.14-.5-.18-1-.33-1.5-.5-.3-.1-.41-.33-.29-.59,.07-.16,.2-.23,.38-.26,.54-.08,1.06-.17,1.59-.26,.08-.03,.16-.07,.23-.12,.21-.19,.2-.19,.5-.04Zm.61,1.02c0-.25-.21-.46-.45-.46-.23,0-.42,.2-.42,.43,0,.25,.2,.46,.45,.46,.23,0,.43-.2,.43-.43Zm-.93,.76s.03-.06,.04-.08c-.51-.28-1.02-.56-1.54-.84-.06,.13-.11,.24-.17,.36,.58,.2,1.13,.38,1.68,.56Zm.27-1.53c-.64,.06-1.27,.13-1.9,.32,.37,.26,.37,.27,.56,.21,.45-.16,.9-.35,1.34-.52Zm-2.27,.91c.16,0,.32-.15,.32-.3s-.13-.29-.29-.3c-.15,0-.29,.11-.31,.26-.02,.17,.11,.33,.27,.34Zm1.27-.09c-.04-.11-.06-.16-.09-.21-.05,.02-.09,.05-.19,.09,.11,.05,.17,.07,.28,.12Z"/>
        <path class="cls-1" d="M20.38,35.73c-.31-.94-.98-1.53-1.91-1.54-.97,0-1.65,.6-1.96,1.53-.42-.03-.47-.13-.31-.44,.25-.47,.58-.85,1.05-1.09,.07-.03,.13-.07,.2-.11,0,0,0-.01,.04-.06-.27-.06-.54-.11-.8-.16-.12-.03-.24-.04-.36-.09-.04-.01-.1-.1-.09-.13,.03-.06,.09-.11,.15-.13,.06-.02,.12,.03,.18,.03,.58,.08,1.15,.21,1.72,.24,.43,.02,.87-.07,1.31-.11,.27-.03,.55-.09,.82-.15,.14-.03,.24-.03,.27,.19-.39,.21-.85,.16-1.31,.33,.14,.07,.23,.13,.33,.19,.45,.25,.78,.63,1.01,1.09,.15,.28,.09,.36-.32,.42Z"/>
        <path class="cls-1" d="M22.54,30.76c.37,1.16-.54,2.56-1.73,2.68-.41-1.13,.51-2.57,1.73-2.68Z"/>
        <path class="cls-1" d="M14.36,30.77c1.16,.04,2.14,1.54,1.73,2.66-1.2-.1-2.13-1.52-1.73-2.66Z"/>
        <path class="cls-1" d="M24.3,29.82c.58,1.04-.02,2.58-1.19,2.94-.53-.71-.22-2.47,1.19-2.94Z"/>
        <path class="cls-1" d="M12.58,29.83c1.21,.35,1.8,1.98,1.21,2.93-1.2-.38-1.76-1.9-1.21-2.93Z"/>
        <path class="cls-1" d="M24.68,9.75s-.04-.09-.04-.15c-.04-.28,.03-.43,.31-.51,.15-.05,.24-.11,.31-.23,.12-.19,.27-.23,.4-.15,.15,.08,.16,.21,.08,.42-.02,.05-.04,.09-.06,.16,.32,.19,.38,.47,.26,.84-.15-.18-.29-.34-.47-.57-.04,.17-.11,.29-.09,.41,.04,.45,.02,.51-.42,.64-.02,0-.03,.03-.06,.05,.09,.52,.06,.57-.45,.8,.02,.07,.04,.16,.05,.24,.02,.23-.05,.39-.26,.45-.14,.05-.27,.08-.37,.22-.09,.12-.23,.09-.34,.02-.12-.09-.15-.2-.09-.33,.04-.1,.11-.2,.16-.3,.12-.19,.25-.36,.14-.62-.07-.16,.03-.33,.19-.41,.09-.04,.19-.07,.28-.1,0-.19-.06-.4,.01-.55,.06-.13,.27-.18,.46-.31Zm.48,.02c.11-.19,.2-.34,.28-.48,.16-.28,.16-.28,.08-.47-.22,.22-.35,.5-.46,.76-.01,.02,.03,.07,.1,.18Zm-1.58,2.46c.25-.09,.4-.32,.45-.65-.21,.02-.33,.2-.45,.65Zm1.15-1.74c.03-.18,.32-.29,.16-.54-.31,.29-.32,.35-.16,.54Zm-.31,.22q-.3,.38-.16,.56c.1-.16,.29-.28,.16-.56Z"/>
        <path class="cls-1" d="M13.74,32.93c-.26,1.05-1.8,1.73-2.76,1.13,.25-1.05,1.78-1.72,2.76-1.13Z"/>
        <path class="cls-1" d="M25.25,31.64c-.75-.84-.42-2.45,.61-2.95,.8,.98,.29,2.54-.61,2.95Z"/>
        <path class="cls-1" d="M23.16,32.93c.83-.54,2.43-.07,2.78,1.12-.98,.6-2.51-.07-2.78-1.12Z"/>
        <path class="cls-1" d="M13.52,35.27c.18-1.19,1.51-2.03,2.52-1.61-.06,.99-1.31,2.01-2.52,1.61Z"/>
        <path class="cls-1" d="M20.86,33.66c1.01-.4,2.24,.38,2.52,1.59-1.12,.51-2.51-.61-2.52-1.59Z"/>
        <path class="cls-1" d="M12.63,9.61c.16,.41-.1,.68-.3,.98,.48,.26,.51,.35,.28,.87,.35,.37,.73,.12,1.11,.05-.62,.43-1.28,.79-1.95,1.15,.22-.31,.65-.49,.53-.97-.18-.06-.4-.07-.52-.18-.11-.11-.12-.33-.18-.53-.31,.05-.65,.08-.94-.19,.18-.21,1.42-.95,1.96-1.18Z"/>
        <path class="cls-1" d="M11.66,31.65c-1.16-.6-1.27-2.22-.65-2.94,.92,.32,1.43,1.94,.65,2.94Z"/>
        <path class="cls-1" d="M8.75,32.4c.48-.9,1.85-1.31,2.79-.61-.38,.97-1.9,1.32-2.79,.61Z"/>
        <path class="cls-1" d="M28.15,32.41c-1.02,.8-2.46,.21-2.81-.58,.66-.65,2.19-.5,2.81,.58Z"/>
        <path class="cls-1" d="M9.76,27.38c.86,.63,.94,2.17,.11,2.86-.88-.62-.94-2.03-.11-2.86Z"/>
        <path class="cls-1" d="M27.03,30.25c-.84-.85-.77-2.22,.12-2.87,.89,.81,.67,2.34-.12,2.87Z"/>
        <path class="cls-1" d="M9.72,30.4c-.78,.84-2.15,.67-2.71-.08,.48-.74,2.07-.81,2.71,.08Z"/>
        <path class="cls-1" d="M29.9,30.29c-.57,.82-2.06,.92-2.71,.11,.5-.77,1.97-.91,2.71-.11Z"/>
        <path class="cls-1" d="M8.45,28.7c-.65-.59-.6-2.07,.28-2.55,.62,.53,.63,1.99-.28,2.55Z"/>
        <path class="cls-1" d="M28.43,28.71c-.9-.63-.9-2-.27-2.56,.77,.38,1.02,1.83,.27,2.56Z"/>
        <path class="cls-1" d="M28.59,28.82c.45-.83,1.86-.97,2.49-.33-.26,.69-1.69,1.11-2.49,.33Z"/>
        <path class="cls-1" d="M8.3,28.81c-.6,.65-1.95,.56-2.5-.28,.43-.6,1.94-.67,2.5,.28Z"/>
        <path class="cls-1" d="M10.49,10.55c-.1-.59,.2-.92,.54-1.21,0-.25-.19-.12-.29-.15,.04-.14,.07-.27,.1-.4,.12,.02,.24,.06,.41,.11-.03,.04-.07,.08-.09,.13-.05,.13,0,.21,.14,.19,.15-.02,.29-.09,.44-.1,.28-.03,.54,0,.8,.27-.68,.38-1.32,.76-2.03,1.17Z"/>
        <path class="cls-1" d="M16.6,25.85c1.05,.62,2.03,1.2,2.99,1.78,0,.02-.02,.05-.03,.07h-3.07c.03-.6,.06-1.17,.1-1.85Z"/>
        <path class="cls-1" d="M20.15,27.58c-1.02-.61-1.99-1.18-2.99-1.76,.29-.1,2.28-.11,2.87-.04,.02,.27,.04,.56,.06,.84,.02,.29,.03,.58,.06,.96Z"/>
        <path class="cls-1" d="M16.17,28.09c-.04,.63-.09,1.26-.14,1.97-.83-.68-1.6-1.31-2.39-1.95,.29-.09,2.03-.1,2.53-.03Z"/>
        <path class="cls-1" d="M20.01,25.43h-2.82s-.01-.04-.03-.05c.9-.55,1.8-1.1,2.75-1.68,.03,.62,.06,1.16,.09,1.73Z"/>
        <path class="cls-1" d="M20.53,28.07h2.46s.02,.04,.03,.06c-.76,.62-1.53,1.24-2.36,1.92-.05-.7-.1-1.33-.14-1.98Z"/>
        <path class="cls-1" d="M16.63,25.22c.05-.55,.1-1.09,.15-1.63h2.54c-.15,.2-2.25,1.47-2.7,1.63Z"/>
        <path class="cls-1" d="M16.12,27.69h-2.38s-.02-.04-.02-.07c.82-.55,1.65-1.1,2.54-1.69,.02,.63-.07,1.2-.14,1.76Z"/>
        <path class="cls-1" d="M22.88,27.7h-2.39c-.04-.58-.09-1.12-.13-1.77,.9,.6,1.73,1.16,2.55,1.7,0,.03-.02,.05-.03,.07Z"/>
        <path class="cls-1" d="M16.86,21.68c.88,.52,1.69,1,2.53,1.49-.28,.09-2.06,.11-2.61,.04,.03-.47,.05-.96,.08-1.53Z"/>
        <path class="cls-1" d="M17.46,21.62h2.31c.03,.48,.06,.94,.1,1.4-.27-.05-2.01-1.07-2.41-1.4Z"/>
        <path class="cls-1" d="M17.45,21.13c.71-.45,1.41-.89,2.15-1.36,.11,.48,.12,.94,.14,1.41h-2.25s-.02-.04-.03-.06Z"/>
        <path class="cls-1" d="M16.93,21.05c0-.14,0-.25,0-.36,.02-.33,.05-.67,.08-1.03h2.1c-.17,.2-1.55,1.1-2.18,1.4Z"/>
        <path class="cls-1" d="M17.01,19.27c.03-.42,.06-.81,.09-1.21,.28,.07,1.45,.77,2,1.18-.21,.1-1.53,.13-2.09,.03Z"/>
        <path class="cls-1" d="M20.33,30.06c-.58-.34-1.09-.63-1.67-.98,.52-.33,1.01-.6,1.56-.91,.03,.66,.07,1.23,.11,1.89Z"/>
        <path class="cls-1" d="M18,29.08c-.58,.33-1.08,.63-1.66,.97,.04-.66,.07-1.25,.11-1.89,.54,.32,1.01,.6,1.55,.92Z"/>
        <path class="cls-1" d="M19.61,19.18c-.72-.44-1.38-.84-2.02-1.24,0-.02,.02-.04,.03-.06h1.89c.03,.41,.05,.81,.09,1.3Z"/>
        <path class="cls-1" d="M19.64,28.12c-.26,.15-.53,.28-.75,.46-.4,.32-.76,.32-1.16,0-.21-.18-.47-.3-.7-.5h2.58s.01,.04,.03,.05Z"/>
        <path class="cls-1" d="M19.51,17.52h-1.82c.13-.21,1.19-.94,1.73-1.19,.03,.39,.05,.77,.09,1.19Z"/>
        <path class="cls-1" d="M17.23,16.18h1.65s.02,.05,.03,.06c-.57,.36-1.12,.73-1.73,1.12-.06-.42,.01-.78,.05-1.18Z"/>
        <path class="cls-1" d="M18.87,15.78h-1.62c.03-.35,.06-.66,.09-1.01,.32,.09,.55,.31,.8,.47,.26,.16,.51,.33,.75,.49,0,.02,0,.04-.01,.06Z"/>
        <path class="cls-1" d="M17.85,14.59h1.45c.04,.34,.06,.67,.1,1.05-.34-.11-.56-.33-.82-.48-.26-.15-.51-.32-.76-.49,0-.02,.01-.05,.03-.07Z"/>
        <path class="cls-1" d="M15.18,17.52c.07-.4,.13-.75,.19-1.09,.22,.08,.86,.68,1.15,1.09h-1.34Z"/>
        <path class="cls-1" d="M19.83,16.4c.43,.35,.86,.69,1.29,1.04,0,.03-.02,.04-.02,.06h-1.27c-.02-.36-.05-.7-.07-1.07,.02,0,.05-.02,.07-.03Z"/>
        <path class="cls-1" d="M19.24,13.23c.02,.4,.04,.7,.05,1.02h-1.43s-.02-.05-.04-.07c.46-.29,.9-.6,1.42-.95Z"/>
        <path class="cls-1" d="M23.2,16.33c.06,.43,.11,.79,.17,1.17h-1.33c.4-.4,.75-.76,1.16-1.17Z"/>
        <path class="cls-1" d="M22.81,16.18c-.35,.36-.7,.71-1.07,1.08-.05-.34-.1-.7-.16-1.08h1.22Z"/>
        <path class="cls-1" d="M13.66,17.44c.44-.34,.88-.69,1.32-1.02,.02,.01,.05,.03,.07,.04-.06,.35-.11,.69-.18,1.05h-1.17s-.02-.04-.04-.06Z"/>
        <path class="cls-1" d="M17.48,13.12h1.27s.01,.04,.02,.07c-.43,.28-.88,.58-1.38,.9-.02-.36,.02-.66,.09-.97Z"/>
        <path class="cls-1" d="M21.27,16.16c.06,.37,.11,.72,.16,1.1-.3-.12-.48-.34-.7-.51-.22-.16-.43-.34-.71-.57,.47-.04,.86-.02,1.25-.01Z"/>
        <path class="cls-1" d="M13.57,16.17h1.11c-.11,.21-.89,.84-1.31,1.04,.07-.35,.13-.68,.2-1.04Z"/>
        <path class="cls-1" d="M15.73,16.18h1.17c-.02,.36-.04,.7-.07,1.05-.25-.12-.82-.67-1.11-1.05Z"/>
        <path class="cls-1" d="M15.63,17.85h1.13v.86c-.45-.27-.8-.53-1.16-.79,.02-.03,.02-.05,.04-.08Z"/>
        <path class="cls-1" d="M19.9,17.86h1.11c-.14,.22-.73,.65-1.11,.79v-.79Z"/>
        <path class="cls-1" d="M14.88,17.83c.09,.27,.16,.51,.27,.85-.5-.28-.91-.52-1.38-.79,.21-.11,.38-.06,.54-.06,.17-.01,.35,0,.57,0Z"/>
        <path class="cls-1" d="M22.83,17.92c-.42,.24-.83,.47-1.33,.76,.09-.33,.17-.58,.25-.84h1.04s.02,.06,.03,.08Z"/>
        <path class="cls-1" d="M15.53,18.85c-.07-.25-.13-.46-.2-.67,.02-.02,.04-.02,.05-.03,.3,.2,.59,.41,.93,.64-.28,.12-.52,.06-.79,.06Z"/>
        <path class="cls-1" d="M21.11,18.86h-.71c.16-.23,.51-.49,.92-.7,0,.06,0,.11-.01,.15-.06,.18-.13,.35-.19,.55Z"/>
        <path class="cls-1" d="M13.76,18.22c.32,.2,.64,.38,.97,.56,0,.03-.01,.04-.02,.06h-.63c-.12-.18-.25-.37-.38-.56,.02-.02,.04-.04,.06-.06Z"/>
        <path class="cls-1" d="M22.9,18.22c-.31,.68-.32,.7-.98,.58,.35-.21,.67-.4,.98-.58Z"/>
        <path class="cls-1" d="M29.01,15.18c-.27,0-.47-.2-.47-.47,0-.27,.2-.48,.47-.48,.26-.01,.51,.23,.5,.5,0,.26-.23,.46-.49,.46Z"/>
        <path class="cls-1" d="M4.39,20.51c-.14,.07-.23,.16-.32,.15-.06,0-.16-.13-.16-.2,0-.13,.11-.22,.23-.18,.07,.02,.13,.12,.25,.23Z"/>
      </g>
    </g>
  </g>
</svg>