<?xml version="1.0" encoding="UTF-8"?><svg id="Capa_1" xmlns="http://www.w3.org/2000/svg" viewBox="0 0 135.34 192.73"><defs><style>.cls-1{fill:#707070;}</style></defs><path class="cls-1" d="M114.75,163.33c-.92-.95-1.99-1.75-3.19-2.39-1.81-.97-3.75-1.53-5.85-1.68-1.66-.11-3.3,.02-4.93,.45-1.69,.45-3.27,1.16-4.66,2.18-1.24,.89-2.3,1.97-3.11,3.22-1.42,2.21-1.94,4.62-1.6,7.17,.25,1.71,.9,3.29,1.96,4.69,1.69,2.33,3.99,3.85,6.77,4.72,.89,.29,1.81,.47,2.7,.57,.26,.03,.49,.03,.71,.14h2.12c.1-.07,.21-.06,.33-.08,.46-.09,.92-.14,1.39-.23,1.99-.34,3.76-1.07,5.39-2.19,1.4-.95,2.54-2.08,3.43-3.5,1.45-2.24,1.95-4.68,1.55-7.29-.36-2.22-1.41-4.13-3.01-5.78Zm.82,7.95c-.07,1.22-.43,2.36-1.02,3.42-.91,1.56-2.16,2.77-3.72,3.69-1.19,.69-2.45,1.14-3.81,1.4-.79,.15-1.62,.22-2.43,.21-1.71,.02-3.29-.3-4.83-.93-1.94-.8-3.53-1.99-4.7-3.7-.72-1.07-1.24-2.28-1.38-3.58-.22-1.6,.07-3.11,.81-4.58,.74-1.48,1.87-2.66,3.26-3.61,1.37-.93,2.88-1.5,4.55-1.81,.88-.17,1.79-.23,2.71-.2,1.85,.08,3.65,.48,5.32,1.34,1.67,.89,3.07,2.09,4.06,3.7,.87,1.44,1.28,2.99,1.19,4.66Z"/><path class="cls-1" d="M63.63,163.53c-1.15-1.25-2.54-2.21-4.09-2.94-1.94-.9-4.02-1.34-6.17-1.36-1.56-.02-3.08,.2-4.55,.67-2.38,.74-4.44,1.98-6.05,3.82-2.12,2.38-3.05,5.13-2.73,8.26,.21,1.68,.78,3.22,1.72,4.63,1.25,1.84,2.9,3.24,4.93,4.23,1.52,.77,3.13,1.24,4.83,1.43,.21,.02,.4,.02,.58,.13h2.35c.08-.06,.19-.07,.3-.09,.33-.05,.63-.08,.94-.13,2.11-.35,4.06-1.08,5.8-2.27,1.83-1.25,3.25-2.86,4.17-4.87,.88-1.89,1.09-3.85,.79-5.87-.33-2.16-1.32-4.03-2.82-5.63Zm-.49,11.35c-.84,1.4-1.98,2.5-3.38,3.36-1.35,.84-2.82,1.36-4.41,1.6-.71,.12-1.38,.18-1.89,.17-2.26,0-4.18-.44-5.98-1.38-1.66-.89-3.03-2.09-4-3.69-.63-1.03-1.04-2.16-1.14-3.37-.21-1.93,.3-3.69,1.36-5.31,.9-1.31,2.07-2.31,3.45-3.1,1.33-.77,2.8-1.24,4.36-1.46,1.82-.25,3.6-.12,5.34,.38,1.95,.56,3.62,1.52,5,2.96,1.1,1.14,1.84,2.46,2.22,3.98,.49,2.07,.11,4.03-.94,5.86Z"/><path class="cls-1" d="M118.1,16.84c-.07-.58-.26-1.12-.52-1.64-.82-1.74-2.17-3-3.93-3.87-1.02-.51-2.16-.81-3.34-.93-.9-.09-1.8-.04-2.73,.1-.6,.1-1.2,.26-1.78,.48-1.77,.68-3.24,1.76-4.25,3.34-1.16,1.76-1.43,3.69-.87,5.71,.49,1.67,1.51,3.02,2.93,4.07,2.03,1.42,4.28,1.94,6.74,1.71,1.21-.11,2.37-.44,3.46-1,1.3-.66,2.36-1.56,3.16-2.73,.56-.82,.97-1.71,1.12-2.68,0-.06,.04-.11,.06-.18v-2.24s-.06-.08-.06-.12Zm-2.28,4.13c-.55,.9-1.32,1.6-2.19,2.16-1.05,.63-2.22,.98-3.42,1.1-1.45,.15-2.82-.05-4.13-.59-1.42-.58-2.54-1.48-3.33-2.78-.54-.87-.79-1.84-.79-2.87,.05-1.2,.46-2.28,1.19-3.22,1.11-1.46,2.63-2.28,4.44-2.66,.59-.12,1.17-.17,1.68-.18,1.61,.02,3.06,.38,4.38,1.19,1.04,.64,1.89,1.47,2.42,2.56,.91,1.81,.82,3.57-.26,5.3Z"/><path class="cls-1" d="M17.33,18.89c.06,.77,.3,1.5,.62,2.19,.53,1.05,1.28,1.92,2.22,2.63,1.73,1.27,3.67,1.91,5.85,1.95,.97,.02,1.94-.04,2.92-.04,.06,0,.09-.02,.16-.03,.05,0,.1-.03,.1-.08,.02-.1,.02-.17,.03-.26,.02-1.15,.05-2.33,.07-3.51,0-.65,.02-1.32-.07-1.97-.08-.56-.31-1.05-.69-1.49-.3-.35-.66-.59-1.12-.71-.6-.17-1.24-.21-1.86-.17-.03,0-.07,.02-.1,.03-.02,0-.02,.04-.02,.06-.02,0,0,.02,0,.02,.05,.03,.13,.06,.18,.09,.51,.23,.94,.53,1.32,.92,.36,.38,.59,.83,.69,1.35,.03,.28,.07,.58,.07,.86,0,.97,0,1.93-.02,2.89v.18c-.02,.12-.05,.17-.16,.19-.22,.03-.44,.07-.63,.07-1.27,.08-2.49-.06-3.67-.48-1.3-.46-2.39-1.14-3.24-2.2-.78-1-1.19-2.13-1.16-3.37,.04-1.16,.42-2.19,1.1-3.13,.88-1.19,2.05-1.99,3.47-2.48,1.41-.5,2.83-.57,4.32-.33,.44,.07,.87,.14,1.29,.34,.07,.04,.17,.08,.25,.04,.07-.1,.05-.19,.05-.27v-.92c0-.45,.05-.41-.38-.52-1.38-.38-2.77-.49-4.17-.29-1.53,.24-2.97,.76-4.25,1.68-1.78,1.29-2.9,2.98-3.17,5.17-.05,.11-.05,.23-.15,.3v1c.1,.06,.12,.19,.15,.3Z"/><path class="cls-1" d="M81.3,171.4c-.46-.64-1.04-1.1-1.83-1.33-.05-.02-.13-.03-.18-.1,.03-.08,.08-.1,.15-.15,.21-.13,.44-.25,.63-.4,.51-.4,.91-.87,1.1-1.47,.1-.35,.21-.69,.3-1.06,.11-.69,.15-1.38,.05-2.09-.16-.96-.54-1.85-1.08-2.65-.24-.37-.51-.68-.85-.94-1.22-.92-2.59-1.52-4.17-1.6-.63-.04-1.27-.09-1.89-.02-.19,.02-.36,.02-.54,.02h-3.39c-.07,.02-.1,.06-.1,.12-.02,.16-.03,.3-.03,.46v21.3c0,.12,0,.24,0,.35,.02,.06,.06,.12,.15,.14h.36c1.36,0,2.71,0,4.07,.02,.73,0,1.47-.02,2.22-.17,.49-.1,.98-.22,1.47-.39,1.37-.45,2.44-1.28,3.31-2.39,.53-.69,.92-1.44,1.1-2.31,.2-.98,.29-1.98,.1-2.97-.13-.85-.46-1.66-.97-2.36Zm-1.58,4.88c-.36,1.19-1.1,2.1-2.29,2.62-.4,.17-.78,.34-1.19,.45-.44,.14-.87,.25-1.33,.33-.2,.04-.4,.06-.59,.06-.64-.02-1.28-.02-1.93-.03-.15,0-.3-.02-.46-.05-.13-.02-.18-.06-.18-.18-.02-.13-.02-.28-.02-.42v-16.56c0-.11-.05-.2-.16-.25-.28-.1-.58-.21-.85-.35-.07-.04-.21-.06-.3-.16,.13-.09,.22-.07,.33-.08,.88-.03,1.77-.04,2.68-.04,.26-.02,.54,.02,.81,.07,.49,.08,.95,.16,1.38,.24,1.8,.31,3.15,1.77,3.41,3.24,.19,1,.07,1.97-.37,2.91-.18,.37-.44,.68-.77,.94-.44,.31-.89,.61-1.38,.86-.09,.03-.26,.06-.26,.18,0,.1,.16,.11,.26,.16,.21,.13,.45,.18,.7,.26,.6,.19,1.11,.52,1.56,.95,.49,.46,.82,1.01,.98,1.66,.26,1.06,.28,2.13-.03,3.2Z"/><path class="cls-1" d="M30.02,171.5c-.45-.68-1.05-1.19-1.88-1.43-.07-.02-.13-.03-.18-.09,0-.08,.1-.11,.14-.16,.2-.11,.39-.21,.55-.35,.54-.39,.93-.84,1.17-1.45,.18-.56,.34-1.14,.4-1.71,.07-.91,0-1.81-.35-2.67-.14-.36-.3-.71-.49-1.06-.28-.55-.7-1.03-1.19-1.43-.53-.4-1.12-.71-1.72-.98-.77-.36-1.59-.52-2.4-.56-.64-.05-1.26-.09-1.88-.03-.18,.03-.36,.03-.52,.03h-3.35c-.12,0-.16,.06-.18,.15v22.07c.02,.07,.07,.13,.17,.15h.31c1.45,.02,2.89,.02,4.34,.02,.67,0,1.32-.05,2.01-.17,.52-.11,1.05-.24,1.57-.42,1.28-.45,2.29-1.26,3.16-2.31,.51-.64,.91-1.37,1.09-2.17,.21-.96,.3-1.93,.2-2.92-.11-.91-.43-1.74-.97-2.5Zm-1.61,4.69c-.21,.76-.59,1.44-1.19,2.01-.27,.23-.59,.43-.91,.59-.91,.46-1.89,.73-2.91,.91-.11,.03-.25,.03-.36,.03-.71-.02-1.4-.02-2.11-.04-.56-.04-.53,0-.53-.55v-16.51c.02-.23-.05-.35-.3-.44-.28-.1-.54-.21-.82-.34-.05-.02-.14-.04-.16-.12,.1-.07,.18-.07,.28-.07,.91-.03,1.8-.04,2.71-.04,.31-.02,.62,.02,.93,.09,.41,.09,.82,.14,1.24,.21,1.81,.32,3.19,1.83,3.43,3.29,.16,.98,.08,1.94-.4,2.86-.16,.36-.41,.68-.76,.92-.43,.31-.86,.61-1.33,.82-.1,.05-.16,.1-.26,.15-.09,.02-.09,.1,0,.13,.17,.09,.36,.21,.57,.28,.11,.03,.24,.06,.35,.11,1.43,.52,2.34,1.47,2.6,2.95,.16,.92,.16,1.84-.08,2.76Z"/><path class="cls-1" d="M56.81,33.09c-1.26,2.06-1.47,4.23-.66,6.49,.63,1.71,1.81,3.02,3.35,4.02,1.68,1.06,3.54,1.58,5.94,1.59,.63,0,1.59-.12,2.55-.4,1.46-.42,2.77-1.09,3.89-2.12,1.64-1.48,2.56-3.28,2.63-5.46,.03-1.44-.31-2.79-1.05-4.04-.86-1.37-2.03-2.43-3.47-3.19-1.8-.94-3.71-1.31-5.74-1.15-1.78,.14-3.39,.68-4.85,1.64-1.06,.69-1.94,1.56-2.59,2.62Zm4.87-2.06c1.09-.44,2.24-.65,3.43-.65,1.62,0,3.15,.39,4.54,1.21,1.18,.71,2.12,1.64,2.73,2.87,.96,2.01,.79,3.96-.44,5.81-.94,1.41-2.28,2.33-3.9,2.87-.69,.24-1.4,.37-2.12,.45-1.21,.11-2.39-.03-3.54-.39-1.33-.41-2.47-1.08-3.39-2.07-.89-.9-1.45-1.97-1.66-3.21-.23-1.45,.06-2.8,.84-4.04,.86-1.32,2.06-2.25,3.54-2.85Z"/><path class="cls-1" d="M77.32,32.36c.59,.62,1.19,1.22,1.83,1.83,2.77,2.78,5.53,5.56,8.29,8.36,.89,.86,1.78,1.74,2.64,2.6,.05,.05,.1,.1,.16,.16,.02,.03,.1,.02,.1-.03v-15.72c0-.09-.07-.14-.13-.15h-1.35c-.21,0-.25,.02-.25,.25-.02,.11,0,.21,0,.32v10.87c0,.11-.02,.24-.02,.35,0,.06-.07,.08-.12,.02-.15-.12-.29-.28-.44-.44-2.21-2.18-4.41-4.37-6.6-6.56-1.65-1.62-3.26-3.25-4.91-4.86-.08-.06-.17-.15-.27-.21,0-.03-.07,0-.07,.03v15.72c0,.07,.03,.11,.11,.11,.04,0,.07,.02,.09,.02,.43,0,.86,0,1.23,0,.2,0,.23-.02,.25-.21v-.35c0-3.44-.02-6.89,.02-10.34,0-.43-.1-.81-.35-1.15-.17-.25-.3-.5-.46-.77,.03,0,.06-.02,.07-.02,.05,.06,.11,.11,.18,.17Z"/><path class="cls-1" d="M33.71,23.96c1.71,1.28,3.66,1.88,5.81,1.88,1.02,.02,2.04-.11,3.01-.44,1.93-.6,3.51-1.68,4.65-3.32,1.04-1.5,1.43-3.16,1.17-4.96-.2-1.52-.87-2.85-1.98-3.95-1.71-1.77-3.85-2.64-6.37-2.81-.73-.04-1.5,0-2.23,.14-1.73,.32-3.25,1-4.58,2.13-1.47,1.32-2.38,2.93-2.55,4.9-.07,.92,.03,1.8,.33,2.68,.46,1.53,1.42,2.78,2.73,3.76Zm-.18-9.41c.83-1.03,1.93-1.72,3.22-2.16,.89-.31,1.82-.45,2.7-.47,1.36,.02,2.58,.26,3.73,.82,1.25,.6,2.24,1.45,2.91,2.61,1.18,1.97,1.08,3.92-.19,5.82-.87,1.31-2.12,2.17-3.66,2.68-1.98,.64-3.96,.58-5.91-.18-1.28-.51-2.31-1.29-3.12-2.41-.56-.8-.91-1.69-1.01-2.68-.12-1.52,.35-2.87,1.34-4.04Z"/><path class="cls-1" d="M85.06,25.18v.28c0,.09,.04,.12,.15,.12,.22,.03,.42,.03,.63,.03h.51q.32-.03,.34-.32V14.98s-.02-.11,0-.17c0-.17-.04-.31-.12-.46-.16-.25-.3-.5-.44-.74-.12-.11-.18-.21-.19-.35h-.02v-.02h.02v.02c.15,.04,.22,.14,.28,.26,.05,.04,.08,.08,.13,.13,2.14,2.14,4.27,4.28,6.41,6.42,1.86,1.85,3.71,3.7,5.55,5.56,.08,.09,.16,.22,.33,.22,.07-.11,.03-.26,.03-.36V10.82c-.02-.17-.03-.21-.21-.21-.4,0-.79,0-1.19,0-.25,0-.26,.03-.28,.26v11.04s-.02,.04-.05,.04c-.02,.02-.03,0-.05,0-.07-.05-.11-.09-.16-.15-1.67-1.66-3.36-3.33-5.04-4.99-2.09-2.07-4.2-4.15-6.29-6.23-.08-.09-.16-.2-.28-.23-.11,.09-.06,.25-.06,.36v14.49Z"/><path class="cls-1" d="M25.67,37.68c-.27,.31-.56,.6-.92,.85-.87,.6-1.83,.96-2.92,.95-.28-.02-.56,0-.83,0-.07,0-.17-.03-.21,.05-.02,.06,.07,.11,.1,.14,.07,.08,.18,.17,.25,.26,.87,.92,1.76,1.84,2.65,2.75,.63,.68,1.27,1.33,1.88,1.99,.16,.15,.28,.21,.49,.2,.65-.02,1.28,0,1.91,0,.07,0,.12,0,.19-.02,.05,0,.07-.05,.05-.09-.07-.07-.12-.13-.17-.18-.58-.6-1.15-1.21-1.75-1.8-.7-.69-1.33-1.41-2.04-2.05-.07-.07-.11-.13-.16-.2-.03-.07-.03-.11,.06-.13,.35-.12,.68-.26,1.03-.43,1.14-.58,1.96-1.4,2.5-2.52,.27-.59,.47-1.18,.53-1.86,.02-.41,0-.82-.03-1.23-.07-.78-.3-1.51-.72-2.19-.8-1.21-1.9-2.02-3.26-2.52-.86-.3-1.72-.4-2.64-.42-.36,0-.76,.02-1.15,.02-.61,0-1.22,0-1.84,0-.1,0-.21,0-.31,0-.03,0-.09,.05-.11,.12v.27c0,.53,.02,1.03,.02,1.56v13.11c0,.11,0,.24,.03,.36,0,.15,.02,.18,.18,.18h1.01c.49,0,.46,.04,.46-.46v-12.88c0-.08,0-.18,0-.27,0-.12,0-.16-.14-.2-.24-.06-.46-.09-.69-.15-.03-.02-.11-.03-.15-.06l-.03-.02s.03-.07,.03-.07c.07-.06,.15-.03,.26-.03,.77,0,1.52,0,2.28,0,.36,0,.74,0,1.1,.07,1.19,.2,2.22,.71,3.03,1.6,.49,.55,.82,1.18,.92,1.9,.03,.51,.05,1,0,1.51-.1,.69-.36,1.33-.86,1.87Z"/><path class="cls-1" d="M91.71,44.87c.09,.02,.16,.02,.26,.02h1.49s.11-.03,.15-.08c.06-.1,.11-.19,.17-.28,.27-.51,.57-1.03,.85-1.55,.53-.93,1.01-1.86,1.55-2.78,.03-.07,.07-.15,.1-.24,.03-.09,.02-.13-.08-.17-.05-.03-.12-.04-.17-.08-.17-.07-.24-.11-.36-.3,.07-.05,.16-.03,.22-.03,2.45,0,4.9,0,7.35-.02,.23,0,.35,.08,.47,.3,.58,1.1,1.19,2.22,1.8,3.33,.29,.59,.62,1.15,.92,1.71,.06,.13,.16,.18,.3,.18h1.47s.09,0,.15-.05c0-.11-.09-.21-.15-.31-.45-.86-.92-1.74-1.35-2.59-1.58-3.04-3.2-6.04-4.76-9.07-.61-1.18-1.22-2.36-1.86-3.55-.03-.08-.08-.2-.18-.27-.03,.03-.05,.08-.08,.12-2.75,5.21-5.5,10.42-8.24,15.63-.02,0,0,.04,0,.08Zm8.32-12.21c.1,.03,.12,.14,.16,.21,.38,.7,.76,1.42,1.15,2.14,.44,.84,.87,1.7,1.33,2.55,.16,.3,.16,.31-.2,.31h-4.86c-.14,0-.23,0-.35-.03,.12-.28,2.52-4.88,2.75-5.18Z"/><path class="cls-1" d="M46.04,28.97c-1.52,.16-2.96,.62-4.26,1.42-1.17,.71-2.15,1.61-2.84,2.73-1.06,1.7-1.39,3.54-.93,5.48,.39,1.8,1.44,3.23,2.96,4.34,.92,.68,1.95,1.15,3.06,1.5,.9,.26,1.85,.41,2.78,.43,1.04,0,2.16-.03,3.21-.07,.18,0,.21,0,.22-.19v-.17c.05-1.51,.07-3.05,.11-4.57,0-.35-.03-.7-.06-1.03-.07-.53-.27-1.01-.59-1.44-.35-.48-.79-.82-1.38-.98-.56-.13-1.14-.19-1.72-.15-.12,0-.24,0-.35,.05t.02,.05c.07,.03,.11,.05,.16,.08,.36,.14,.72,.33,.99,.58,.56,.43,.96,.91,1.12,1.6,.1,.39,.12,.79,.12,1.19v3.12c0,.08-.03,.16-.15,.18-.05,0-.09,0-.15,.02-.85,.12-1.71,.12-2.57,0-1.05-.14-2.08-.47-3.01-.97-.96-.52-1.75-1.18-2.36-2.05-1.08-1.58-1.31-3.29-.63-5.07,.44-1.18,1.23-2.12,2.26-2.88,1.2-.9,2.6-1.39,4.12-1.53,.64-.07,1.28-.09,1.94,0,.66,.08,1.33,.16,1.92,.44,.07,.02,.12,.02,.16,.03,.11,.02,.15,0,.15-.11,.02-.41,.02-.82,.02-1.22-.02-.34,.03-.34-.33-.44-1.32-.37-2.64-.51-3.98-.37Z"/><path class="cls-1" d="M73.85,12.53c0,4.19-.02,8.37-.02,12.54,0,.11,0,.24,.02,.36,0,.13,.02,.15,.18,.17,.32,.02,.65,.02,.98,.02,.47,0,.44,.02,.44-.46V12.52c0-.1-.05-.16-.15-.17-.21-.06-.43-.1-.69-.16-.02,0-.08-.02-.11-.04-.02,0-.02-.03-.02-.03,0-.03,.02-.06,.03-.06,.06-.03,.1-.03,.16-.03,.94,0,1.84-.02,2.75,0,1.33,.04,2.48,.54,3.38,1.48,.49,.52,.82,1.09,.95,1.76,.13,.57,.13,1.18,.03,1.75-.12,.53-.26,1.03-.61,1.46-.41,.52-.91,.96-1.48,1.29-.76,.43-1.52,.67-2.4,.64-.25-.02-.51,0-.76,0h-.17c-.07,0-.07,.07-.03,.11,.03,.07,.09,.11,.13,.15,1.02,1.05,2.02,2.12,3,3.16,.53,.53,1.05,1.04,1.56,1.59,.11,.13,.22,.2,.42,.2,.64-.03,1.27,0,1.91,0,.03,0,.05,0,.06-.02,.04-.02,.11-.02,.11-.03,.03-.03,.02-.07,0-.09-.11-.08-.16-.17-.23-.25-.54-.55-1.07-1.1-1.61-1.65-.65-.65-1.3-1.3-1.94-1.95-.07-.07-.16-.14-.21-.27,.07-.02,.14-.06,.21-.07,.31-.1,.6-.25,.91-.41,.73-.36,1.36-.85,1.83-1.51,.82-1.12,1.16-2.35,1.05-3.71-.07-.5-.13-.95-.32-1.41-.57-1.42-1.64-2.39-3.02-3.04-1.07-.47-2.17-.63-3.34-.62-.21,.02-.46,.02-.68,.02h-1.88c-.08,0-.21,0-.3,0-.1,0-.14,.06-.14,.17v.24c0,.5,.02,1.01,.02,1.52Z"/><path class="cls-1" d="M50.69,25.62c.82,0,1.65-.03,2.48,0,.47,0,.91-.02,1.38-.08,1.18-.17,2.22-.59,3.07-1.43,.63-.66,1.05-1.4,1.22-2.31,.06-.48,.07-.96,.05-1.47-.06-.68-.32-1.31-.72-1.86-.29-.39-.63-.69-1.11-.84-.07-.03-.12-.05-.17-.07,0-.08,.07-.1,.11-.14,.15-.08,.3-.18,.4-.27,.34-.24,.58-.55,.72-.94,.43-1.18,.36-2.34-.23-3.47-.27-.53-.64-.97-1.15-1.29-.89-.58-1.88-.91-2.95-.89-.12,0-.24,0-.35,0-.89,.05-1.8,.03-2.68,.03h-.05c-.44,0-.4,0-.4,.41v14.2c0,.4-.03,.4,.4,.4Zm.31-13.63c.08,0,.16,0,.26-.02,.47,0,.94,0,1.39-.02,.73,0,1.42,.14,2.1,.31,.11,.02,.2,.08,.31,.12,.83,.4,1.38,1.03,1.58,1.89,.17,.68,.07,1.34-.21,1.96-.14,.27-.3,.47-.53,.67-.31,.22-.63,.42-.96,.59-.05,.02-.12,.03-.13,.11,0,.08,.08,.11,.13,.13,.18,.07,.33,.12,.49,.17,.72,.26,1.24,.69,1.56,1.34,.13,.29,.18,.61,.25,.92,.07,.78,0,1.53-.42,2.26-.21,.39-.54,.71-.92,.95-.7,.39-1.44,.6-2.22,.73-.03,.02-.12,.02-.17,.02-.5-.02-1.01-.02-1.54-.05-.16,0-.2-.02-.21-.19V12.66c.02-.18-.04-.27-.23-.33-.19-.08-.38-.15-.56-.25-.02,0-.05-.03-.05-.05,0-.03,.03-.04,.07-.04Z"/><path class="cls-1" d="M54.08,155.19c1.52,.6,3.12,.77,4.78,.48,1.8-.3,3.31-1.07,4.55-2.38,1.17-1.22,1.79-2.64,1.79-4.54,0-.69-.2-1.56-.58-2.4-.74-1.51-1.94-2.61-3.46-3.34-1.56-.78-3.26-1.03-5-.78-1.89,.24-3.52,.99-4.83,2.33-1.24,1.27-1.89,2.77-1.85,4.5,0,1.07,.3,2.08,.86,3.02,.84,1.46,2.14,2.48,3.75,3.1Zm-2.46-8.92c.74-1.14,1.81-1.9,3.1-2.36,.99-.36,2.01-.5,3.1-.44,1.04,.08,2,.31,2.93,.78,1.15,.6,2.08,1.45,2.66,2.62,.59,1.15,.68,2.35,.24,3.57-.38,1.17-1.17,2.1-2.17,2.81-1.1,.76-2.58,1.27-4.09,1.23-1.52,.02-2.84-.36-4.04-1.13-.82-.52-1.48-1.19-1.95-2.02-.91-1.74-.83-3.44,.24-5.07Z"/><path class="cls-1" d="M87.36,159.61h-1.99c-.1,.02-.16,.06-.16,.13,0,.14,0,.25,0,.38v21.6c0,.22,.04,.25,.24,.25h2c.08-.02,.15-.08,.16-.15v-21.98c0-.2-.03-.24-.24-.24Z"/><path class="cls-1" d="M36.28,159.74c0-.07-.05-.12-.14-.13h-2.07c-.13,.02-.16,.06-.16,.15-.03,.12-.03,.26-.03,.4v21.5c.03,.3,.05,.32,.35,.32h1.89c.12-.02,.16-.08,.16-.16v-22.08Z"/><path class="cls-1" d="M67.76,145.72c-.15-.2-.27-.43-.38-.64,.02-.02,.04-.03,.05-.03,.17,.11,.3,.26,.44,.4,2.3,2.3,4.57,4.6,6.86,6.88,1.1,1.11,2.23,2.25,3.37,3.36,.07,.06,.12,.22,.22,.19,.16-.05,.07-.21,.07-.32,.02-4.17,.02-8.33,.02-12.48,0-.11-.02-.2-.02-.29,0-.07-.05-.14-.13-.14h-1.13c-.12,0-.14,.06-.16,.16,0,.13,0,.27,0,.4v8.99c0,.09,.05,.24-.07,.27-.12,.04-.15-.09-.21-.16-1.37-1.34-2.7-2.67-4.09-4.01-1.89-1.88-3.79-3.78-5.69-5.67-.07-.06-.14-.13-.19-.18-.06-.04-.12,0-.12,.05,0,.09-.02,.2-.02,.27v12.47c0,.08,0,.18,.02,.27,.02,.11,.05,.14,.16,.14,.35,0,.7,0,1.07,0,.12,0,.16-.05,.18-.19v-.31c0-2.88,0-5.76,0-8.65,0-.3-.07-.55-.23-.79Z"/><path class="cls-1" d="M30.29,44.87h6.72c.15-.02,.2-.03,.23-.18,.12-.38,.22-.78,.33-1.17,.07-.3,.04-.3-.26-.3h-5.6c-.18-.02-.18-.04-.2-.2v-.14c0-1.55,0-3.09,.02-4.65v-.17c0-.08,.06-.12,.16-.12,.07-.01,.17-.01,.26-.01h3.34c.17,0,.21-.02,.21-.2v-1.05q0-.4-.41-.4h-3.03c-.59,0-.54,.05-.54-.52v-4.46c.02-.13-.05-.2-.12-.23-.07-.02-.14-.03-.19-.06-.17-.04-.3-.12-.51-.24,.21-.06,.31-.03,.45-.03h5.7c.11,0,.22,0,.36,0,.08-.02,.12-.06,.1-.14,0-.05-.02-.11-.03-.15-.13-.35-.26-.68-.38-1.01-.05-.12-.12-.17-.25-.16-.08,0-.16,0-.27,0h-6.09c-.5,0-.46-.02-.46,.44v14.71c0,.48-.04,.46,.46,.46Z"/><path class="cls-1" d="M93.23,155.52c.18,0,.31-.02,.46-.05,.61-.1,1.22-.25,1.8-.45,1.02-.36,1.97-.84,2.8-1.56,.92-.78,1.56-1.75,1.84-2.91,.26-.97,.29-1.93,.24-2.9-.04-.2-.09-.39-.14-.59-.25-1.08-.84-1.98-1.66-2.75-.78-.76-1.67-1.3-2.76-1.55-.55-.14-1.07-.26-1.61-.32-.57-.07-1.12-.16-1.71-.16h-1.83c-.12,0-.19,0-.3,0-.07,0-.13,.06-.13,.13v12.69c0,.39,0,.4,.38,.4h2.6Zm-1.55-1.65v-9.82c0-.1-.07-.17-.16-.2-.1-.03-.22-.06-.35-.08-.1-.03-.2-.03-.36-.12,.23-.08,.4-.08,.61-.08,.43-.02,.84-.02,1.29-.03,1.24-.02,2.38,.26,3.48,.74,1.32,.58,2.69,2.05,2.87,3.95,.08,.72,.04,1.42-.16,2.12-.16,.53-.37,.99-.72,1.42-.77,.94-1.71,1.64-2.93,2-.54,.17-1.06,.29-1.61,.36-.1,.02-.2,.05-.28,.05h-1.36c-.29-.02-.31-.03-.32-.31Z"/><path class="cls-1" d="M65.04,25.62h6.28c.41,0,.33,0,.45-.36,.07-.23,.12-.44,.18-.68,.03-.17,.14-.33,.11-.5-.17-.12-.37-.06-.58-.06-1.64-.01-3.31-.01-4.97-.01q-.3,0-.3-.26v-2.78c.02-.53,0-1.07,.02-1.62v-.27c0-.06,.05-.11,.12-.11,.09,0,.21,0,.29,0h3.1q.32,0,.32-.32v-.88c0-.43,0-.4-.41-.4h-2.95c-.11,0-.24,0-.35,0-.06,0-.12-.04-.12-.1v-4.63c0-.11-.02-.21-.16-.25-.09,0-.18-.06-.26-.11-.08-.05-.21-.06-.28-.17,.13-.05,.27-.03,.38-.03h5.72c.18,0,.22-.05,.16-.19-.13-.35-.27-.7-.41-1.05-.02-.11-.09-.17-.22-.17h-6.12c-.11,0-.21,0-.3,.02-.08,0-.12,.03-.13,.12v14.4c0,.48-.04,.45,.44,.45Z"/><path class="cls-1" d="M23.38,151.78c.31-.11,.61-.24,.88-.42,1.36-.75,2.12-1.91,2.35-3.4,.05-.41,.03-.82,0-1.22-.05-.6-.25-1.16-.56-1.67-.53-.91-1.32-1.55-2.29-2-.82-.4-1.7-.56-2.62-.56h-2.47c-.44,0-.46-.02-.45,.45,.02,.64,.05,1.3,.05,1.93v10.44c0,.15,.06,.21,.18,.21,.36,0,.68,0,1.04,0,.07,0,.14-.06,.16-.16v-10.79c0-.09,.03-.17,0-.27,0-.23-.03-.26-.25-.32-.16-.04-.35-.08-.53-.12-.02,0-.05-.04-.02-.05,0-.03,.02-.05,.03-.05,.05,0,.11,0,.16,0,.77,0,1.54,0,2.31,0,.48,0,.94,.14,1.38,.24,.06,0,.09,.02,.1,.04,.19,.1,.38,.21,.54,.3,.35,.21,.69,.44,.97,.76,.4,.47,.71,.99,.77,1.62,.07,.44,.07,.87,0,1.31-.07,.45-.21,.9-.48,1.26-.58,.77-1.35,1.33-2.29,1.6-.35,.08-.68,.15-1.02,.13-.26-.02-.51,0-.77,0-.07,0-.13-.02-.15,.04-.05,.08,.02,.13,.06,.18,.06,.06,.11,.11,.18,.18,.49,.47,.95,.98,1.42,1.47,.77,.8,1.54,1.61,2.3,2.4,.15,.17,.31,.25,.54,.25,.47-.02,.92,0,1.38,0,.07,0,.17,0,.26,0,.03,0,.07-.07,.03-.12-.05-.08-.12-.16-.2-.25-.89-.91-1.76-1.8-2.67-2.7-.07-.08-.17-.17-.25-.23-.07-.06-.13-.12-.18-.19-.13-.16-.13-.2,.1-.26Z"/><path class="cls-1" d="M44.49,155.51q.44,0,.46-.44c.03-.65,.03-1.29,.05-2.07,.03-.49,.03-1.1,.03-1.7,0-.41-.03-.8-.15-1.2-.25-.83-.76-1.44-1.7-1.65-.4-.08-.77-.13-1.19-.1-.06,0-.14,0-.21,.02-.03,0-.09,.03-.1,.05,0,.03,.03,.07,.07,.09,.24,.11,.45,.21,.68,.35,.63,.42,1.05,.98,1.14,1.75,.05,.31,.07,.66,.07,.97,0,.66,0,1.32-.02,1.98,0,.1,.02,.21,0,.31-.02,.15-.05,.19-.2,.21-.28,.06-.56,.07-.87,.09-1.03,.03-2.03-.14-3-.51-1.07-.42-2.03-1.04-2.7-1.98-1.18-1.62-1.26-3.31-.3-5.04,.73-1.25,1.83-2.09,3.21-2.58,1.07-.4,2.19-.51,3.33-.4,.53,.06,1.05,.12,1.55,.33,.08,.03,.14,.03,.23,.06,.07,.02,.13-.03,.15-.1,0-.38,.02-.76,.02-1.14,0-.09-.07-.16-.16-.17-.06-.04-.11-.04-.18-.06-.84-.25-1.75-.36-2.65-.35-.66,.04-1.29,.11-1.94,.29-1.66,.45-3.05,1.28-4.13,2.61-1.15,1.41-1.59,2.99-1.32,4.75,.22,1.46,.95,2.68,2.12,3.68,.86,.74,1.87,1.27,2.97,1.6,.76,.21,1.48,.37,2.22,.37,.83,0,1.69-.02,2.54-.02Z"/><path class="cls-1" d="M111.28,29.44c0-.14-.04-.19-.18-.19h-.83c-.71,0-.63-.08-.63,.58v14.63c0,.49-.02,.43,.46,.43h6.97c.1,0,.16-.05,.18-.15,.08-.25,.17-.48,.23-.7,.03-.15,.11-.3,.14-.44,.03-.08,0-.14-.11-.14-.1-.02-.23-.02-.35-.02h-5.32c-.12,0-.24,0-.38,0-.12,0-.15-.05-.15-.18-.02-.12,0-.24,0-.35v-13.13c0-.1,0-.21-.03-.34Z"/><path class="cls-1" d="M34.09,155.33c.09-.3,.18-.62,.27-.94v-.07c0-.07-.02-.13-.09-.15-.14-.02-.26-.02-.39-.02h-4.11q-.47,0-.47-.44c0-1.18,0-2.37,.02-3.55q0-.41,.42-.41c.79-.01,1.59,0,2.4,0,.1,0,.22,0,.33-.01,.13,0,.17-.06,.18-.18v-.84c0-.35-.02-.35-.38-.36h-2.6c-.35,0-.35-.02-.35-.35-.02-.12,0-.21,0-.33v-3.39c0-.14-.07-.23-.18-.27-.12-.06-.26-.11-.39-.19v-.07c.16,0,.27,0,.41,0h4.51c.14,0,.26,0,.36,0,.11-.02,.14-.07,.11-.17-.07-.23-.17-.48-.27-.72-.13-.35-.06-.35-.53-.35h-4.97c-.46,0-.46,0-.46,.45v12.09c0,.5-.02,.49,.51,.49h5.18c.07,0,.16,0,.25,0,.14,0,.24-.06,.26-.2Z"/><path class="cls-1" d="M103.62,143.75h4.53c.12,0,.23,0,.36,0,.11-.02,.13-.07,.11-.17-.08-.21-.17-.46-.26-.69-.16-.39-.09-.38-.54-.38h-4.94c-.51,0-.48-.02-.48,.5v12.02c0,.09-.02,.18,0,.28,.02,.17,.05,.21,.22,.22,.07,0,.16,0,.24,0,1.75,0,3.49,0,5.25,0h.25c.11,0,.18-.07,.21-.17,.08-.32,.18-.64,.28-.97,.03-.17-.02-.22-.2-.24h-4.4q-.46,0-.46-.44v-3.55c0-.41,.02-.41,.42-.41,.79-.01,1.59,0,2.4,0,.13,0,.23,0,.34-.01,.14,0,.18-.06,.18-.18v-.88c0-.29-.02-.3-.34-.32h-2.5c-.49,0-.49,.02-.49-.49,.02-1.12,.02-2.22,.02-3.34,0-.09,0-.21-.02-.3,0-.1-.06-.15-.17-.18-.13-.07-.25-.13-.47-.24,.21-.06,.34-.05,.45-.05Z"/><path class="cls-1" d="M52.46,44.7c.02,.15,.05,.18,.19,.18h1.05c.48,0,.45,.06,.45-.43v-14.68c0-.12,0-.23,0-.35-.02-.12-.05-.17-.16-.17h-1.32c-.14,0-.17,.05-.17,.16-.02,.11-.02,.21-.02,.32v14.97Z"/><path class="cls-1" d="M60.79,18.11v7.01c0,.1,0,.23,.03,.35,0,.07,.03,.12,.12,.12,.43,.02,.89,0,1.33,0,.09,0,.15-.03,.15-.11V10.78c0-.12-.05-.17-.16-.17-.32,0-.63,0-.96,0-.54,0-.51-.02-.51,.47v7.03Z"/><path class="cls-1" d="M110.75,155.57h5.75c.1-.02,.16-.06,.18-.12,.1-.31,.21-.6,.28-.9,.05-.14,0-.21-.18-.21-.1,0-.18,0-.31,0h-4.56c-.1-.02-.16-.07-.16-.2-.03-.12-.03-.25-.03-.38v-11.06c0-.12-.06-.19-.17-.19-.33,0-.66,0-1.04,0-.1,0-.13,.07-.15,.19v12.46q0,.41,.4,.41Z"/><path class="cls-1" d="M48.19,149.06v-6.02c0-.13,0-.26-.02-.39-.02-.08-.07-.14-.16-.14h-1.08c-.09,0-.14,.07-.14,.14v12.42c0,.09-.02,.19,0,.27,0,.17,.05,.21,.23,.23h.54c.68,0,.63,.04,.63-.58v-5.94Z"/><path class="cls-1" d="M86.17,13.5s-.02,.02-.03,.03c-.02,.02-.02,.05,0,.08,.03-.03,.06-.08,.09-.1,0-.02-.03-.02-.06,0Z"/><path class="cls-1" d="M85.94,13.25c0,.14,.07,.25,.19,.35-.02-.03-.02-.06,0-.08,0,0,0-.02,.03-.03,.02,0,.06,0,.06,0-.06-.12-.13-.21-.28-.26Z"/><polygon class="cls-1" points="85.93 13.25 85.94 13.25 85.94 13.23 85.93 13.25"/><polygon class="cls-1" points="85.92 13.23 85.93 13.25 85.94 13.23 85.92 13.23"/><path class="cls-1" d="M116.13,121.4c-.09-.21-.12-.44-.09-.66,.02-.21,.03-.41,.07-.62,.04-.59,.11-1.19,.18-1.79,.05-.52,.12-1.04,.17-1.56,.07-.57,.13-1.1,.16-1.65,.07-.61,.13-1.21,.21-1.83,.07-.58,.12-1.14,.18-1.71,.05-.39,.07-.77,.12-1.15,.06-.54,.02-1.07,0-1.61-.07-.92-.18-1.85-.48-2.74-.77-2.22-2.17-4.09-3.75-5.79-1.7-1.75-3.64-3.16-5.75-4.41-2.08-1.24-4.28-2.3-6.47-3.29-2.59-1.16-5.25-2.1-7.98-2.88-2.59-.76-5.2-1.47-7.82-2.12-2.5-.64-5-1.29-7.54-1.8-.6-.12-1.24-.25-1.82-.49-.28-.12-.53-.26-.75-.49-.44-.39-.42-.85,.02-1.24,.21-.16,.42-.29,.68-.41,1.29-.62,2.66-1.1,3.96-1.67,.91-.39,1.84-.76,2.64-1.37,.71-.54,1-1.27,.82-2.13-.23-1.01-.87-1.76-1.7-2.36-1.02-.75-2.21-1.14-3.39-1.47-3.1-.82-6.21-1.61-9.37-2.13-1-.16-1.99-.35-2.99-.43,2.06,.08,4.18,.02,6.28,.02,8.21,.02,16.42,0,24.63-.05,6.6-.05,13.22,0,19.82,0,.21,0,.41,0,.61-.02,.16-.02,.3-.03,.38-.17,.09-.38,.06-.77-.03-1.15-.48-1.73-.92-3.47-1.36-5.21-.06-.21-.14-.45-.19-.68,.02-.19,.02-.39,.05-.58,0-.2,.02-.39,.02-.58,.02-.02,.02-.04,.02-.06,.07-.16,.05-.36,.05-.54,0-.06,.02-.12,.02-.18,.07-.17,.07-.35,.07-.51v-.2c.06-.08,.06-.18,.07-.27,.03-.45,.08-.91,.13-1.34,.03-.4,.05-.79,.11-1.2,.07-.24,.06-.49,.09-.74,.03-.46,.11-.91,.11-1.35,.07-.19,.07-.4,.06-.59,.02-.07,.02-.13,.03-.18h0c.03-.12,.05-.21,.05-.33,.13-1.09,.21-2.19,.33-3.27,.06-.7,.16-1.39,.21-2.08,.02-.15-.02-.18-.17-.18-.24,.02-.48,.03-.73,.06-.71,.07-1.4,.12-2.1,.18-.59,.05-1.22,.11-1.78,.16-.67,.07-1.32,.12-1.99,.18-.93,.09-1.87,.17-2.78,.24-.68,.08-1.33,.14-2.03,.2-.18,.02-.35,.02-.54-.02-2.21-.45-4.46-.9-6.64-1.37-.3-.06-.61-.06-.91-.02-1,.11-1.98,.22-3,.33-.96,.09-1.93,.19-2.92,.3-1.04,.11-2.08,.23-3.12,.34-.55,.07-1.1,.14-1.63,.26-.34,.1-.63,.17-.98,.16-.07,0-.15,.02-.21,.03-1.45,.22-2.92,.49-4.38,.73-.62,.11-1.21,.21-1.84,.09h-.12c-.8-.06-1.59-.11-2.38-.18-.82-.05-1.68-.12-2.52-.18-.73-.04-1.48-.11-2.24-.16-.82-.07-1.66-.12-2.5-.18-.75-.07-1.48-.11-2.22-.16-.83-.07-1.69-.14-2.51-.19-.73-.05-1.5-.11-2.26-.17-.76-.07-1.52-.13-2.27-.18-1.07-.07-2.14-.1-3.2-.15-.79-.03-1.6-.07-2.38-.1-.12,0-.24-.01-.39-.05-.1-.02-.21-.03-.28-.03-.54-.03-1.05-.08-1.58-.08-1.48,.02-2.96-.06-4.45-.11-.71-.03-1.43-.05-2.14-.11-.84-.05-1.7-.01-2.55,.08-.85,.1-1.69,.17-2.57,.26-.87,.07-1.74,.15-2.59,.23-.25,.04-.48,.02-.68-.03-.69-.16-1.41-.33-2.08-.49-.23-.06-.44-.06-.66-.03-.77,.12-1.53,.23-2.29,.33-1.09,.16-2.17,.32-3.26,.48-.88,.13-1.75,.26-2.62,.21-.36,0-.69-.03-1.04-.08-1.21-.24-2.45-.45-3.67-.68-.96-.16-1.9-.23-2.85-.37-.1,0-.22-.02-.35-.02-.07,0-.13,.03-.13,.11-.02,.25,.05,.48,.08,.71,.08,.89,.17,1.78,.28,2.66,.03,.26-.03,.5-.17,.74-.15,.3-.3,.63-.47,.95-.04,.08-.07,.16-.07,.24,.07,.22,.03,.47,.15,.69-.02,.02-.02,.03,0,.05,0,.15,0,.3,.03,.45h0c.02,.1,.02,.22,.02,.35,.15,.89,.25,1.8,.4,2.7,.02,.21,.02,.45,.12,.64v.08c0,.15,0,.3,.07,.44v.12c0,.15,0,.26,.07,.38h0v.11c0,.16,0,.3,.07,.43,.02,.17,.02,.33,.07,.5,.06,.54,.15,1.08,.18,1.62,0,.09,.03,.19,.07,.27-.03,.53,.07,1.04,.08,1.56,.07,1.23,.18,2.44,.27,3.64,.06,.71,.09,1.4,.18,2.11,.04,.17,.16,.23,.35,.23,.21,.02,.47,0,.69,0,10.99,0,21.99,0,33.01,.02,1.31,0,2.61-.02,3.91,.23,2.67,.49,5.39,.85,8.07,1.4,1.54,.32,3.06,.75,4.51,1.32,.61,.24,1.22,.56,1.66,1.05,.59,.67,.54,1.55-.11,2.15-.25,.23-.54,.41-.85,.53-1.33,.54-2.71,.92-4.11,1.25-2.6,.63-5.24,1.1-7.81,1.85-1.47,.44-2.91,.93-4.12,1.87-1.59,1.21-1.93,3.64,.02,4.97,1.01,.7,2.13,1.19,3.25,1.62,1.5,.61,3,1.23,4.46,1.95,1.72,.87,3.39,1.8,4.98,2.88,1.05,.72,2.05,1.44,2.7,2.54,.94,1.68,1.03,3.37,.03,5.06-.54,.94-1.34,1.7-2.18,2.43-1.58,1.33-3.29,2.48-5.12,3.45-2.39,1.23-4.92,2.11-7.49,2.83-2.96,.85-5.97,1.52-8.98,2.14-1.96,.42-3.94,.82-5.93,1.15-3.01,.49-6.09,.78-9.13,.95-1.83,.1-3.6,.17-5.39,.2-1.78,.05-3.53-.03-5.27-.07-.15,0-.26-.02-.4-.02-.66-.06-1.33-.08-2.03-.11-.44-.02-.49,.05-.49,.48v1.22c.02,.8-.02,1.62,.02,2.4,.03,.05,0,.09,.03,.11,.13,.78,.33,1.53,.46,2.31,.26,1.17,.5,2.36,.74,3.53,.07,.25,.09,.49,.18,.72-.02,.13,0,.26-.03,.38-.1,.76-.21,1.5-.3,2.26-.07,.47-.18,.96-.2,1.43-.02,.07-.03,.13-.03,.2-.15,.86-.27,1.72-.38,2.59-.03,.26-.1,.53-.08,.79-.08,.15-.08,.3-.08,.44v.13c-.09,.14-.09,.29-.06,.43,0,.04-.03,.06-.03,.07,0,.07-.04,.13-.06,.22-.11,.84-.21,1.66-.33,2.5,0,.1-.02,.2-.02,.3-.02,.09,.05,.15,.13,.15,.03,0,.08,.01,.14,.01,.54-.01,1.06-.01,1.61-.03,.79-.03,1.6-.08,2.4-.13,.74-.03,1.47-.07,2.22-.1,.63-.02,1.25-.07,1.89-.1,.82-.03,1.58-.08,2.39-.12,.58-.03,1.14-.06,1.72-.09,.26-.02,.49,0,.72,.11,.31,.12,.66,.22,.99,.33,.3,.11,.54,.15,.84,.15,1.19,0,2.39,0,3.54,0,.26,.02,.52,0,.77-.04,.68-.11,1.33-.21,2.01-.31,.18-.02,.32-.02,.49,.05,.25,.08,.49,.15,.71,.23,.19,.07,.37,.09,.56,.09,.63,0,1.25,.01,1.89,.01,.13,0,.27-.01,.44-.03,.57-.08,1.19-.16,1.8-.24,1.89-.25,3.81-.48,5.75-.73,1.7-.21,3.44-.44,5.17-.67,.26-.04,.46,0,.7,.1,1.04,.42,2.1,.86,3.17,1.27q.81,.33,1.7,.33c.33,0,.66,.02,.98-.03,1.34-.23,2.69-.44,4-.65,1.19-.21,2.38-.39,3.58-.58,.13-.02,.28-.02,.42-.02,.47,.02,.95,.06,1.44,.09,.35,.02,.73,.05,1.11,.08,.91,.06,1.84,.11,2.76,.18,.77,.06,1.56,.12,2.38,.17,.85,.08,1.74,.12,2.61,.2,.88,.06,1.77,.11,2.68,.18,.82,.05,1.62,.1,2.43,.15,.9,.07,1.79,.14,2.7,.19,.84,.06,1.69,.14,2.55,.12,.51-.02,1.04,0,1.55,0h3.01c.16,0,.3-.02,.42-.08,.21-.12,.44-.23,.62-.33,.14-.07,.3-.11,.45-.1,.32,0,.63,0,.95,.02,1.88,.03,3.72,.08,5.62,.13,2.13,.03,4.26,.08,6.42,.14,1.82,.05,3.66,.08,5.49,.12,.49,.01,.49,.06,.53-.45,.09-.92,.15-1.84,.23-2.75v-.53c.02-.13,.05-.28,.05-.41,.03-.29,.05-.59,.11-.87,0-.22-.04-.41-.16-.61-.26-.46-.51-.95-.76-1.42-.05-.13-.12-.26-.11-.4,0-.08,.06-.18,.07-.26,.2-.93,.4-1.85,.59-2.78,.08-.32,.18-.65,.2-.97,.02-.06,.05-.11,.05-.16,.12-.59,.25-1.2,.43-1.8,.08-.37,.04-.69-.13-1.04-.3-.73-.61-1.43-.9-2.15Zm-17.96-60.32c-.61,.17-1.24,.33-1.86,.5-3.1,.84-6.21,1.62-8.93,2.4,.49-.23,1.27-.77,2.02-1.25,.09-.05,.14-.13,.17-.22,.13,.09,.26-.03,.38-.11,.6-.37,1.2-.74,1.81-1.11,.89-.56,1.75-1.11,2.65-1.66,.12-.07,.3-.14,.3-.29,.16,.02,.3-.07,.46-.17,.56-.35,1.12-.71,1.7-1.05,.58-.36,1.15-.78,1.8-1.09,.02-.02,.05-.02,.08-.02h.08s.05,0,.07,0c.2,.08,.35,.2,.52,.31,.68,.45,1.37,.92,2.08,1.37,.12,.07,.25,.17,.39,.14,.02,.08,.07,.16,.16,.21,1.14,.76,2.31,1.51,3.45,2.26,.09,.08,.19,.09,.29,.08h0s0,.06,.02,.1c.02,0,.02,.04,.05,.06,.02,.02,.05,.03,.06,.03,.03,.01,.06,.03,.07,.05,0,.02,.03,.02,.03,.03,.02,.02,.07,.03,.07,.03,.03,.01,.05,.03,.07,.06,0,0,.03,.02,.07,.02l.02,.02s.03,.03,.05,.05c0,.02,.04,.03,.04,.05,.03,0,.03,.03,.07,.03,0,0,.03,.03,.03,.02,.04,.02,.04,.03,.06,.04,.02,0,.06,.03,.07,.03,.02,.03,.03,.03,.05,.06,0-.02,.02,0,.02,0,.03,.02,.07,.03,.08,.05,0,0,.02,.02,.05,.03,0,0,.03,.02,.03,.04,.02,.01,.07,.02,.07,.03,.02,.02,.03,.03,.07,.03,0,.03,.04,.04,.06,.05,.02,.02,.03,.03,.05,.04,.04,0,.07,.03,.07,.04,.02,0,.04,.02,.07,.02,.02,.03,.05,.03,.07,.07t.08,.02s.04,.02,.07,.02q.06,0,.09-.02s.02-.02,.03-.02c-.02,.12,.07,.2,.15,.25,.8,.58,1.61,1.1,2.39,1.54-.09-.04-.25-.13-.43-.21-3.54-.98-7.1-1.97-10.63-2.97-.29-.09-.55-.09-.82,0Zm-72.49,2.45c.49-.32,1.05-.59,1.49-1,0-.03,0-.05,.03-.07,.07,.03,.16,0,.26-.07,.25-.15,.48-.26,.69-.42,.05-.02,.1-.04,.12-.06,.03-.03,.05-.03,.07-.06,.04,0,.06-.02,.07-.03,.02,0,.05-.02,.05-.03,.03-.02,.05-.03,.05-.04,.03,0,.05-.03,.07-.04,.02,0,.05-.01,.07-.01,0-.02,.03-.03,.03-.03,.04-.02,.06-.02,.06-.03,.03-.02,.05-.02,.08-.03,0-.01,.02-.03,.05-.05,.02,0,.05-.01,.05-.01,.02-.03,.05-.04,.05-.04,.04-.02,.04-.03,.06-.05,.03,0,.03-.02,.07-.03,.02-.01,.03-.01,.03-.04,.02,0,.03,0,.07-.02,.03-.02,.03-.03,.05-.04,.03-.01,.05-.02,.05-.04,.02,0,.05-.03,.07-.03,0,0,.02-.02,.04-.03,.02-.02,.05-.03,.07-.03,0-.02,.03-.03,.05-.04,.03,0,.04-.03,.06-.03,.02-.02,.06-.03,.06-.03,.03-.02,.05-.03,.08-.04,0-.02,.02-.03,.03-.05,.02-.02,.04-.02,.07-.03,.02,0,.03,0,.07-.02,0-.02,.02-.03,.03-.03,.02-.02,.05-.02,.05-.03,.03,0,.05-.02,.05-.03,.05-.02,.05-.03,.07-.03,.02-.02,.03-.04,.07-.04,0,0,.04-.02,.06-.03,.02,0,.03-.02,.07-.03,0-.02,.04-.03,.05-.04,.03-.02,.03-.03,.05-.03,.03-.02,.05-.04,.07-.05,.03-.02,.04-.02,.07-.04,.02-.01,.02-.03,.06-.03,.03-.04,.05-.04,.07-.06,.03-.04,.03-.06,.05-.08v-.04h0c.16,0,.31-.08,.45-.16,1.54-.98,3.13-1.92,4.64-2.9,.36-.23,.63-.25,.99,0,1.39,.94,2.78,1.87,4.22,2.78,.13,.07,.25,.13,.35,.12,0,.11,.12,.18,.21,.24,1.12,.75,2.26,1.48,3.38,2.22,.1,.07,.2,.13,.33,.08,0,.08,.05,.16,.13,.21,.7,.45,1.33,.95,2.09,1.33-.17-.07-.33-.13-.51-.19-3.49-.98-6.99-1.95-10.49-2.94-.25-.08-.49-.1-.76-.02-2.78,.76-5.61,1.51-8.42,2.26-.82,.24-1.66,.42-2.55,.73,.38-.14,.65-.34,.92-.5Zm32.63-.73c.08-.06,.15-.12,.15-.22,.13,.07,.27-.02,.39-.1,.39-.21,.75-.47,1.13-.7,.75-.45,1.5-.92,2.23-1.38,.1-.07,.27-.13,.27-.3,.12,.02,.18,0,.3-.08,.25-.16,.51-.3,.77-.46,1.25-.78,2.54-1.57,3.76-2.36,.45-.27,.53-.27,.96,.02,1.03,.67,2.06,1.36,3.1,2.02,.11,.08,.21,.09,.31,.09,0,.15,.16,.21,.25,.28,.41,.29,.81,.51,1.2,.79,1.05,.69,2.08,1.37,3.12,2.05,.12,.07,.26,.2,.42,.12,.02,.11,.08,.19,.16,.26,.76,.53,1.52,1.03,2.33,1.47-.26-.13-.54-.26-.82-.33-3.39-.94-6.77-1.89-10.15-2.85-.44-.12-.82-.12-1.24,0-1.89,.53-3.77,1.02-5.69,1.54-1.72,.48-3.5,.84-5.21,1.46,.83-.32,1.51-.86,2.26-1.32Z"/></svg>