<?xml version="1.0" encoding="UTF-8"?><svg id="Capa_1" xmlns="http://www.w3.org/2000/svg" viewBox="0 0 294.84 197.92"><defs><style>.cls-1{fill:#707070;}</style></defs><g><g><path class="cls-1" d="M42.52,160.14v5.41c0,.86,.24,1.57,.73,2.12,.49,.49,1.2,.76,2.07,.76s1.56-.28,2.09-.86c.51-.58,.79-1.31,.79-2.15v-5.27h2.17v9.99h-1.94l-.12-1.39c-.98,1.08-2.18,1.61-3.58,1.61-1.32,0-2.37-.41-3.17-1.28-.8-.83-1.21-2.03-1.21-3.49v-5.44h2.16Z"/><path class="cls-1" d="M61.21,170.11v-5.36c0-.87-.25-1.58-.73-2.11-.51-.54-1.2-.81-2.08-.81s-1.57,.3-2.11,.87c-.53,.63-.79,1.34-.79,2.18v5.23h-2.19v-10.02h2l.12,1.45c.98-1.09,2.16-1.65,3.5-1.65s2.35,.41,3.19,1.28c.83,.85,1.26,2.04,1.26,3.55v5.38h-2.18Z"/><path class="cls-1" d="M66.31,158.1c-.26-.22-.4-.53-.4-.94s.15-.72,.4-.94c.26-.23,.58-.35,.96-.35,.34,0,.68,.11,.94,.35,.26,.22,.4,.54,.4,.94s-.14,.71-.4,.94c-.26,.24-.6,.35-.94,.35-.38,0-.71-.11-.96-.35Zm2.03,1.96v10.05h-2.16v-10.05h2.16Z"/><path class="cls-1" d="M81.72,155.92v14.19h-2.04l-.12-1.59c-.76,1.19-1.98,1.79-3.62,1.79-1.56,0-2.83-.45-3.81-1.36-.98-.95-1.48-2.22-1.48-3.84s.5-2.96,1.47-3.85c.98-.95,2.23-1.38,3.8-1.38,.71,0,1.4,.16,2.13,.47,.69,.32,1.22,.76,1.52,1.32v-5.75h2.16Zm-5.63,5.93c-.95,0-1.75,.29-2.34,.87-.63,.61-.94,1.38-.94,2.39s.31,1.76,.94,2.36c.59,.59,1.38,.9,2.34,.9s1.7-.31,2.36-.92c.64-.59,.96-1.38,.96-2.33s-.31-1.73-.96-2.35c-.66-.62-1.43-.92-2.36-.92Z"/><path class="cls-1" d="M92.99,160.11h2.1v10.01h-2.06l-.1-1.62c-.32,.61-.8,1.07-1.5,1.4-.69,.31-1.39,.49-2.08,.49-1.57,0-2.84-.46-3.84-1.38-1-.94-1.48-2.24-1.48-3.89s.5-2.91,1.51-3.84c1.02-.92,2.28-1.39,3.84-1.39,.76,0,1.47,.16,2.1,.47,.65,.32,1.13,.76,1.45,1.34l.06-1.59Zm-3.43,1.69c-.97,0-1.76,.3-2.39,.9-.64,.63-.99,1.42-.99,2.42s.35,1.79,.99,2.41c.63,.59,1.42,.9,2.39,.9,1.06,0,1.89-.32,2.5-.98,.57-.64,.87-1.44,.87-2.33s-.3-1.69-.87-2.33c-.61-.67-1.44-.99-2.5-.99Z"/><path class="cls-1" d="M108.47,155.92v14.19h-2.03l-.15-1.59c-.76,1.19-1.95,1.79-3.59,1.79s-2.82-.45-3.81-1.36c-1.01-.95-1.49-2.22-1.49-3.84s.48-2.96,1.47-3.85c.96-.95,2.22-1.38,3.79-1.38,.69,0,1.4,.16,2.12,.47,.68,.32,1.2,.76,1.5,1.32v-5.75h2.17Zm-5.61,5.93c-.98,0-1.76,.29-2.36,.87-.62,.61-.92,1.38-.92,2.39s.3,1.76,.92,2.36c.59,.59,1.37,.9,2.36,.9,.91,0,1.7-.31,2.35-.92,.63-.59,.95-1.38,.95-2.33s-.31-1.73-.95-2.35c-.65-.62-1.44-.92-2.35-.92Z"/><path class="cls-1" d="M127.09,155.92v14.19h-2.03l-.15-1.59c-.72,1.19-1.92,1.79-3.57,1.79-1.55,0-2.83-.45-3.83-1.36-.98-.95-1.47-2.22-1.47-3.84s.49-2.96,1.45-3.85c.98-.95,2.25-1.38,3.81-1.38,.71,0,1.39,.16,2.11,.47,.72,.32,1.22,.76,1.51,1.32v-5.75h2.18Zm-5.63,5.93c-.94,0-1.74,.29-2.36,.87-.61,.61-.92,1.38-.92,2.39s.31,1.76,.92,2.36c.62,.59,1.42,.9,2.36,.9s1.71-.31,2.36-.92c.63-.59,.95-1.38,.95-2.33s-.32-1.73-.95-2.35c-.65-.62-1.43-.92-2.36-.92Z"/><path class="cls-1" d="M131.66,165.94c.08,.76,.43,1.38,1.05,1.84,.58,.47,1.38,.68,2.32,.68,.59,0,1.14-.11,1.71-.3,.56-.2,.99-.44,1.32-.79l1.38,1.32c-.51,.56-1.17,.98-1.98,1.27-.82,.3-1.64,.44-2.49,.44-1.7,0-3.05-.47-4.05-1.43-1.02-.97-1.53-2.26-1.53-3.85s.51-2.81,1.52-3.76c1-.98,2.32-1.47,3.92-1.47s2.9,.43,3.85,1.31c.95,.89,1.42,2.18,1.42,3.85,0,.19-.03,.49-.05,.9h-8.4Zm6.31-1.78c-.05-.77-.36-1.38-.89-1.78-.54-.43-1.28-.63-2.15-.63s-1.54,.2-2.13,.63c-.54,.4-.94,1-1.1,1.78h6.28Z"/><path class="cls-1" d="M147.65,158.1c-.26-.22-.38-.53-.38-.94s.12-.72,.38-.94c.28-.23,.6-.35,.96-.35s.67,.11,.94,.35c.27,.22,.4,.54,.4,.94s-.13,.71-.4,.94c-.27,.24-.58,.35-.94,.35s-.68-.11-.96-.35Zm2.03,1.96v10.05h-2.17v-10.05h2.17Z"/><path class="cls-1" d="M160.5,170.11v-5.36c0-.87-.25-1.58-.74-2.11-.49-.54-1.17-.81-2.08-.81-.86,0-1.53,.3-2.07,.87-.57,.63-.83,1.34-.83,2.18v5.23h-2.17v-10.02h1.99l.12,1.45c.99-1.09,2.16-1.65,3.49-1.65s2.39,.41,3.22,1.28c.83,.85,1.24,2.04,1.24,3.55v5.38h-2.17Z"/><path class="cls-1" d="M173.35,170.11v-5.36c0-.87-.28-1.58-.77-2.11-.48-.54-1.18-.81-2.05-.81s-1.56,.3-2.1,.87c-.53,.63-.8,1.34-.8,2.18v5.23h-2.18v-10.02h1.98l.15,1.45c.97-1.09,2.13-1.65,3.48-1.65s2.36,.41,3.2,1.28c.83,.85,1.25,2.04,1.25,3.55v5.38h-2.17Z"/><path class="cls-1" d="M179.12,161.39c1-1,2.27-1.49,3.87-1.49s2.87,.49,3.89,1.49c.99,.99,1.52,2.24,1.52,3.74s-.5,2.75-1.5,3.73c-1,.98-2.29,1.47-3.9,1.47s-2.91-.5-3.89-1.47c-.97-.98-1.45-2.22-1.45-3.73s.48-2.75,1.47-3.74Zm3.87,.44c-.94,0-1.71,.3-2.3,.95-.59,.63-.88,1.43-.88,2.35s.29,1.71,.88,2.31c.59,.62,1.36,.94,2.3,.94s1.74-.32,2.31-.94c.59-.61,.88-1.41,.88-2.31s-.29-1.7-.88-2.33c-.59-.65-1.37-.96-2.31-.96Z"/><path class="cls-1" d="M200.33,160.1l-4.4,10.06h-2.37l-4.45-10.06h2.42l1.39,3.22,1.83,4.64,1.64-4.25,1.55-3.61h2.39Z"/><path class="cls-1" d="M210.08,160.11h2.09v10.01h-2.05l-.09-1.62c-.33,.61-.82,1.07-1.51,1.4-.7,.31-1.39,.49-2.08,.49-1.57,0-2.87-.46-3.83-1.38-1.01-.94-1.48-2.24-1.48-3.89s.49-2.91,1.5-3.84c1.02-.92,2.29-1.39,3.85-1.39,.78,0,1.47,.16,2.1,.47,.63,.32,1.1,.76,1.45,1.34l.05-1.59Zm-3.43,1.69c-.95,0-1.75,.3-2.41,.9-.62,.63-.96,1.42-.96,2.42s.35,1.79,.96,2.41c.67,.59,1.47,.9,2.41,.9,1.09,0,1.89-.32,2.49-.98,.56-.64,.89-1.44,.89-2.33s-.33-1.69-.89-2.33c-.59-.67-1.4-.99-2.49-.99Z"/><path class="cls-1" d="M223.9,168.84c-1.1,1.03-2.4,1.55-3.94,1.55s-2.86-.45-3.9-1.38c-1.04-.92-1.57-2.2-1.57-3.85s.53-2.98,1.57-3.91c1.01-.91,2.33-1.38,3.9-1.38,1.45,0,2.7,.49,3.75,1.49l-1.36,1.33c-.7-.56-1.47-.84-2.36-.84-.97,0-1.74,.3-2.39,.91-.63,.6-.96,1.38-.96,2.38s.33,1.78,.96,2.36c.64,.56,1.42,.84,2.36,.84,1.01,0,1.81-.31,2.47-.92l1.47,1.4Z"/><path class="cls-1" d="M225.98,158.1c-.26-.22-.4-.53-.4-.94s.13-.72,.4-.94c.27-.23,.59-.35,.95-.35,.38,0,.68,.11,.95,.35,.26,.22,.39,.54,.39,.94s-.13,.71-.39,.94c-.27,.24-.58,.35-.95,.35-.36,0-.68-.11-.95-.35Zm2.02,1.96v10.05h-2.17v-10.05h2.17Z"/><path class="cls-1" d="M231.77,161.39c1-1,2.28-1.49,3.88-1.49s2.87,.49,3.87,1.49c1.01,.99,1.52,2.24,1.52,3.74s-.49,2.75-1.5,3.73c-.99,.98-2.28,1.47-3.89,1.47s-2.92-.5-3.9-1.47c-.98-.98-1.46-2.22-1.46-3.73s.48-2.75,1.47-3.74Zm3.88,.44c-.96,0-1.73,.3-2.31,.95-.59,.63-.88,1.43-.88,2.35s.29,1.71,.88,2.31c.58,.62,1.35,.94,2.31,.94s1.73-.32,2.32-.94c.56-.61,.89-1.41,.89-2.31s-.33-1.7-.92-2.33c-.59-.65-1.35-.96-2.29-.96Z"/><path class="cls-1" d="M251.18,170.11v-5.36c0-.87-.24-1.58-.71-2.11-.51-.54-1.2-.81-2.08-.81s-1.56,.3-2.12,.87c-.51,.63-.79,1.34-.79,2.18v5.23h-2.16v-10.02h1.97l.12,1.45c.98-1.09,2.14-1.65,3.5-1.65s2.36,.41,3.2,1.28c.83,.85,1.27,2.04,1.27,3.55v5.38h-2.21Z"/></g><path class="cls-1" d="M238.46,155.66l-2.22,2.77h-1.94v-.11l1.56-2.73h2.6v.07Z"/></g><path class="cls-1" d="M175.19,56.36c2.2,0,4.3,.85,5.88,2.35,1.57,1.51,2.44,3.52,2.44,5.65v65.15c0,2.1-.86,4.1-2.44,5.64-1.58,1.51-3.68,2.34-5.88,2.34s-4.27-.82-5.83-2.34c-1.58-1.54-2.45-3.54-2.45-5.64V64.36c0-2.13,.86-4.14,2.45-5.65,1.56-1.5,3.62-2.35,5.83-2.35m0-4.39c-7.03,0-12.83,5.55-12.83,12.39v65.15c0,6.79,5.8,12.38,12.83,12.38s12.85-5.58,12.85-12.38V64.36c0-6.84-5.76-12.39-12.85-12.39"/><path class="cls-1" d="M242.79,56.36c2.21,0,4.29,.85,5.88,2.35,1.56,1.51,2.45,3.52,2.45,5.65v65.15c0,2.1-.88,4.1-2.45,5.64-1.59,1.51-3.67,2.34-5.88,2.34s-4.27-.82-5.85-2.34c-1.56-1.54-2.45-3.54-2.45-5.64V64.36c0-2.13,.89-4.14,2.45-5.65,1.58-1.5,3.66-2.35,5.85-2.35m0-4.39c-7.06,0-12.83,5.55-12.83,12.39v65.15c0,6.79,5.77,12.38,12.83,12.38s12.85-5.58,12.85-12.38V64.36c0-6.84-5.78-12.39-12.85-12.39"/><path class="cls-1" d="M174.93,56.32c2.22,0,4.32,.86,5.85,2.35l67.55,65.19c1.55,1.49,2.42,3.5,2.42,5.65s-.87,4.17-2.42,5.67c-1.56,1.48-3.62,2.31-5.86,2.31s-4.32-.82-5.86-2.31l-67.53-65.18c-1.56-1.5-2.42-3.53-2.42-5.67s.86-4.14,2.42-5.66c1.55-1.48,3.63-2.35,5.86-2.35m0-4.36c-3.29,0-6.59,1.19-9.08,3.6-5.01,4.84-5.01,12.71,0,17.52l67.53,65.19c2.5,2.4,5.8,3.62,9.08,3.62s6.6-1.22,9.09-3.62c4.99-4.82,4.99-12.71,0-17.53L184.02,55.57c-2.5-2.4-5.8-3.6-9.09-3.6"/><path class="cls-1" d="M107.6,56.32c2.25,0,4.33,.86,5.88,2.35l67.55,65.19c1.53,1.49,2.4,3.5,2.4,5.65s-.86,4.17-2.4,5.67c-1.56,1.48-3.65,2.31-5.88,2.31s-4.3-.82-5.86-2.31L101.73,70.01c-1.56-1.5-2.4-3.53-2.4-5.67s.85-4.14,2.4-5.66c1.56-1.48,3.66-2.35,5.86-2.35m0-4.36c-3.29,0-6.59,1.19-9.06,3.6-5.01,4.84-5.01,12.71,0,17.52l67.52,65.19c2.52,2.4,5.8,3.62,9.09,3.62s6.59-1.22,9.09-3.62c5-4.82,5-12.71,0-17.53L116.69,55.57c-2.49-2.4-5.8-3.6-9.09-3.6"/><path class="cls-1" d="M107.74,55.53c2.21,0,4.27,.84,5.85,2.35,1.57,1.53,2.45,3.53,2.45,5.68v32.44c0,.34-.04,.67-.06,1.05l-.07,.27v8.43c0,10.55-3.22,18.6-9.56,23.96-3.03,2.54-6.8,4.48-11.18,5.8-4.47,1.31-9.63,1.98-15.3,1.98s-10.79-.67-15.24-1.98c-4.4-1.32-8.15-3.27-11.2-5.8-6.39-5.36-9.64-13.42-9.64-23.96v-9.04l-.02-.17c0-.21-.02-.39-.02-.55V63.56c0-2.15,.86-4.15,2.45-5.68,1.57-1.51,3.64-2.35,5.85-2.35s4.27,.84,5.86,2.35c1.58,1.53,2.44,3.53,2.44,5.68v7.36h.08v34.95c0,11.93,7.63,19.66,19.44,19.66,5.84,0,10.81-1.91,14.32-5.54,3.43-3.51,5.24-8.4,5.24-14.12v-34.95h.02v-7.36c0-2.15,.89-4.15,2.44-5.68,1.57-1.51,3.66-2.35,5.86-2.35m0-4.37c-7.07,0-12.83,5.56-12.83,12.4v2.96h-.02v39.35c0,9.28-5.67,15.27-15.03,15.27s-14.91-5.99-14.91-15.27v-39.35h-.07v-2.96c0-6.84-5.76-12.4-12.84-12.4s-12.85,5.56-12.85,12.4v32.44c0,.31,.02,.57,.03,.88v8.87c0,24.55,16.36,36.13,40.64,36.13s40.6-11.58,40.6-36.13v-8.14c.07-.52,.11-1.06,.11-1.61V63.56c0-6.84-5.78-12.4-12.83-12.4"/><path class="cls-1" d="M107.13,31.91c2.57,0,4.7,1.98,4.84,4.43-.09,2.48-2.17,4.51-4.78,4.55h-.06c-2.54,0-4.69-1.98-4.83-4.42,.06-2.48,2.17-4.53,4.76-4.56h.07m0-4.38h-.13c-5.11,.08-9.22,4.12-9.22,9.01,.17,4.86,4.32,8.74,9.36,8.74h.14c5.09-.07,9.22-4.13,9.25-9.03-.18-4.83-4.35-8.73-9.39-8.73m9.39,8.58v0Zm-18.77,.27l.02,.3v-.15c-.02-.05-.02-.11-.02-.16"/></svg>