<?xml version="1.0" encoding="UTF-8"?><svg id="Capa_1" xmlns="http://www.w3.org/2000/svg" viewBox="0 0 319.67 197.92"><defs><style>.cls-1{fill:#707070;}</style></defs><path class="cls-1" d="M175.26,139.5l-1.63-5.56,4.4-3.39h-5.41l-1.78-5.44-1.75,5.44h-5.53l4.53,3.39-1.76,5.56,4.52-3.49,4.42,3.49Zm17.74-19.19c-2.76,1.31-5.54,2.07-8.44,2.07-2.53,0-4.8-.52-7.06-1.43-.63-.38-1.27-.64-1.9-1.02l13,17.24,.89-.91c3.64-3.9,6.68-8.29,8.69-13.36,.58-1.36,.87-2.29,1.28-3.37-.77-.27-1.54-.4-2.28-.4-1.27,0-2.77,.4-4.18,1.17m8.2-10.37c.12-1.18,.12-2.2,.12-3.25v-4.93c-.36-.26-.61-.39-.76-.53-.87-.5-1.88-.77-3.38-.77-1.77,0-3.16,.27-4.18,.92-3.03,1.56-5.8,2.33-8.44,2.33s-4.8-.52-6.93-1.55c0,2.07-.37,3.11-1.01,4.91,.13,.91,1,1.96,1.89,3.13h0c.88,.78,1.78,1.3,2.65,1.8,1.01,.4,2.16,.67,3.4,.67,1.4,0,2.78-.4,4.04-1.04,2.89-1.43,5.81-2.22,8.58-2.22,1.38,0,2.76,.12,4.02,.53m-50.59,26.07l4.41,3.49-1.65-5.56,4.41-3.39h-5.42l-1.76-5.44-1.77,5.44h-5.54l4.55,3.39-1.77,5.56,4.54-3.49Zm-22.4-15.7c-1.64-.77-3.14-1.17-4.41-1.17-.63,0-1.27,0-1.87,.26,.21,1.17,.74,2.32,1.24,3.5,2.16,5.32,5.04,9.72,8.7,13.36,.24,.25,.5,.52,.89,.78l12.86-17.25c-.63,.38-1.27,.77-2.03,1.15-2.27,.91-4.79,1.43-7.16,1.43-3.04,0-5.81-.77-8.21-2.07m16.41-13.36c-.78-1.68-1.15-3.63-1.27-5.72-2.15,1.05-4.43,2.47-6.93,2.47-2.91,0-5.56-.77-8.21-2.33-1.13-.64-2.54-.92-4.41-.92-1.39,0-2.53,.27-3.28,.77l-.63,.4v5.06c0,1.05,0,2.08,.13,3.11,1.25-.27,2.51-.39,3.78-.39,3.14,0,5.92,.65,8.69,2.22,1.39,.63,2.66,1.04,3.93,1.04s2.49-.26,3.4-.67c1.14-.5,2.03-1.15,2.78-1.93l.99-1.3c.53-.64,.77-1.02,.91-1.43l.12-.39Zm.74-4.67c.26,1.42,.64,2.99,1.27,4.55,.77,1.94,1.76,3.62,3.16,5.05,.74,.53,1.38,1.17,2.26,1.68,.12,.13,.38,.26,.64,.4,.63,.52,1.24,.91,2,1.17,1.52,.66,3.54,1.04,5.79,1.17,2.4-.13,4.29-.51,5.93-1.17,.63-.26,1.4-.65,2.03-1.17,.62-.4,1.25-.77,1.89-1.29,.25-.26,.62-.53,.87-.79,1.38-1.42,2.53-3.11,3.29-5.05,.09-.2,.16-.32,.26-.54,.49-1.06,.87-1.55,1-3.88v-21.65h-30.51v19.84c0,.51,.12,1.16,.12,1.68m-25.47-11.15c1.13-.26,2.52-.4,3.91-.4,3.28,0,6.05,.65,8.69,2.08,1.14,.77,2.4,1.16,3.93,1.16,1,0,2.26-.26,3.4-.78,1-.51,1.89-1.16,2.78-1.81l.75-.77v-8.04c-2.15,.89-4.43,1.54-6.93,1.54-2.91,0-5.56-.9-8.21-2.32-1.13-.64-2.65-1.03-4.41-1.03-1.39,0-2.53,.25-3.28,.77l-.65,.48,.02,9.12m0-42.41v22.7c1.13-.27,2.52-.4,3.91-.4,3.28,0,6.05,.8,8.69,2.21,1.27,.65,2.54,1.04,3.93,1.04,1,0,2.01-.13,3.14-.65l-19.67-24.89Zm58.62,42.66c.64,.65,1.51,1.3,2.53,1.81l.25,.13c.73,.3,1.14,.44,1.64,.53,.46,.06,1.14,.12,1.64,.12,1.53,0,2.78-.39,4.04-1.16,2.64-1.43,5.54-2.08,8.58-2.08,1.38,0,2.64,.13,4.14,.52v-9.32c-.25-.13-.5-.32-.76-.39-.87-.53-2.01-.77-3.38-.77-1.77,0-3.16,.39-4.18,1.03-3.03,1.43-5.8,2.32-8.44,2.32s-4.8-.65-6.93-1.67v8.05c.26,.25,.88,.9,.88,.9m4.41-17.25c.51,.13,1.14,.13,1.64,.13,1.53,0,2.78-.39,4.04-1.04,2.64-1.41,5.54-2.21,8.58-2.21,1.38,0,2.64,.13,4.14,.53v-22.82s-18.64,25.28-18.4,25.41m-20.8-49.03h-2.77c-.64-1.68-1.52-2.98-2.64-3.88-1.27-1.04-2.91-1.57-4.55-1.57h-21.42v26.73h21.42c1.51,0,3.02,.25,4.41,1.02,.75,.4,1.65,1.05,2.4,1.7,.76,1.17,1.38,1.95,1.63,2.46,.26-.51,.76-1.29,1.65-2.46,.74-.65,1.51-1.3,2.39-1.7,1.39-.77,2.77-1.02,4.41-1.02h21.19V19.65h-21.19c-1.76,0-3.26,.53-4.41,1.57-1.36,1.03-2.27,2.33-2.52,3.88m1.27-5.71c1.52-1.29,3.4-2.07,5.67-2.07h22.32c.38,0,.51,.12,.76,.4,.25,.13,.25,.26,.36,.39v28.41h9.46l.62,.12c.26,0,.39,.14,.51,.26,.4,.4,.51,.91,.51,1.3v58.36c0,5.85-1.12,11.55-3.26,17.12-2.41,5.45-5.44,10.12-9.21,14.01-4.03,4.02-8.57,7.25-13.75,9.49-5.16,2.32-10.71,3.49-16.91,3.49-5.79,0-11.35-1.17-16.64-3.49-5.27-2.23-9.83-5.47-13.6-9.49-3.91-3.89-7.07-8.56-9.34-14.01-2.14-5.84-3.28-11.55-3.28-17.12V48.2c0-.39,.14-.91,.4-1.3,.25-.26,.63-.38,1.01-.38h9.59V18.1c0-.13,.12-.26,.23-.39,.27-.27,.51-.4,.77-.4h22.57c2.14,0,4.16,.78,5.8,2.07,1.13,.92,2.02,1.95,2.64,3.12,.76-1.18,1.65-2.21,2.78-3.12m-19.28,43.5l1.14,11.14h.76l1.25-11.14v-1.57h-3.15v1.57Zm-.85-5.06c.11,.39,.17,.67,.17,.67,.21,1.05,1.17,1.8,2.29,1.8,1.32,0,2.41-1.09,2.41-2.44,0-.59-.22-1.15-.59-1.57,.02,.3,0,.54-.03,.67-.33,.76-.86,.64-.97,.49l.23-.39c.41-.69-.27-1.61-.41-1.74-.87-.76-.71-1.24-.71-1.89-.89,.9-1.27,1.81-1.52,2.47-.24,.9,0,1.93,1.01,2.84-1.01-.12-1.62-.51-1.88-.91m9.88,0c.08,.39,.17,.67,.17,.67,.21,1.05,1.17,1.8,2.27,1.8,1.33,0,2.41-1.09,2.41-2.44,0-.59-.22-1.15-.58-1.57,.03,.3,0,.54-.04,.67-.31,.76-.84,.64-.96,.49l.23-.39c.41-.69-.26-1.61-.44-1.74-.83-.76-.68-1.24-.68-1.89-.89,.9-1.27,1.81-1.52,2.47-.26,.9,0,1.93,1.01,2.84-1.01-.12-1.65-.51-1.88-.91m.84,5.06l1.13,11.14h.77l1.27-11.14v-1.57h-3.16v1.57Zm9.88,0l1.13,11.14h.77l1.25-11.14v-1.57h-3.15v1.57Zm-.87-5.06c.12,.39,.18,.67,.18,.67,.21,1.05,1.17,1.8,2.27,1.8,1.34,0,2.42-1.09,2.42-2.44,0-.59-.21-1.15-.58-1.57,.02,.3,.02,.54-.03,.67-.33,.76-.86,.64-.98,.49l.25-.39c.4-.69-.29-1.61-.44-1.74-.87-.76-.7-1.24-.7-1.89-.89,.9-1.27,1.81-1.52,2.47-.25,.9,0,1.93,1.02,2.84-1.02-.12-1.66-.51-1.91-.91m9.88,0c.12,.39,.18,.67,.18,.67,.21,1.05,1.16,1.8,2.28,1.8,1.34,0,2.42-1.09,2.42-2.44,0-.59-.23-1.15-.59-1.57,.02,.3,.01,.54-.03,.67-.31,.76-.84,.64-.98,.49l.26-.39c.39-.69-.27-1.61-.44-1.74-.85-.76-.68-1.24-.68-1.89-.89,.9-1.28,1.81-1.52,2.47-.26,.9,0,1.93,1,2.84-1-.12-1.63-.51-1.89-.91m.86,5.06l1.13,11.14h.77l1.25-11.14v-1.57h-3.15v1.57Z"/><path class="cls-1" d="M170.2,28.36c-1.4,1.03-2.03,2.33-2.03,3.75s.63,2.73,2.03,3.76c.74,.53,1.61,1.05,2.5,1.3v5.33h-5.78v-1.83h5.04v-1.54c-1.16-.39-2.29-.92-3.16-1.57-1.78-1.56-2.65-3.36-2.65-5.44s.87-3.9,2.65-5.44c1.76-1.42,3.77-2.22,6.18-2.22s4.55,.79,6.18,2.22c1.89,1.55,2.79,3.37,2.79,5.44,.11,2.08-.78,3.89-2.79,5.44-.74,.65-1.77,1.18-3.02,1.57v1.54h5.03v1.83h-5.91v-5.47c.76-.11,1.64-.51,2.78-1.16,1.37-1.03,1.75-2.33,1.75-3.76s-.64-2.61-1.76-3.77c-1.27-1.04-3.01-1.67-5.04-1.67-1.89,0-3.52,.64-4.78,1.69"/><path class="cls-1" d="M149.78,34.44l-3.41-7-3.66,7h7.07Zm4.13,8.3l-3.13-6.35h-9.09l-3.14,6.35h-2.29l9.72-19.08h.51l9.57,19.08h-2.16Z"/><path class="cls-1" d="M159.47,93.86v-5.06h2.15v5.06c.37,0,.75,.12,1.13,.39l2.51-4.41c.64,.25,1.27,.65,1.76,1.15l-2.39,4.29c.12,.12,.26,.25,.51,.39,.12,.13,.25,.25,.38,.52l4.15-2.59c.39,.65,.77,1.3,1.01,1.93l-4.15,2.47c.13,.39,.13,.78,.26,1.17h4.92v2.07h-4.92c-.12,.4-.12,.79-.26,1.18l4.15,2.59c-.24,.65-.62,1.29-1.01,1.95l-4.15-2.59c-.13,.26-.26,.38-.38,.5-.25,.13-.39,.27-.51,.4l2.39,4.26c-.5,.53-1.12,.78-1.76,1.18l-2.51-4.28c-.38,.12-.76,.26-1.13,.26v4.94l-1.15,.13-1-.13v-4.94c-.38,0-.76-.13-1.13-.26l-2.53,4.28c-.63-.4-1.26-.65-1.75-1.18l2.37-4.14c-.11-.26-.24-.39-.49-.53-.12-.12-.25-.25-.25-.37l-4.27,2.32c-.4-.53-.77-1.17-1.03-1.82l4.31-2.45c-.25-.4-.25-.79-.39-1.32h-4.9v-2.07h4.9c.14-.4,.14-.78,.26-1.17l-4.17-2.47c.26-.63,.63-1.28,1.03-1.93l4.16,2.59c.12-.27,.24-.39,.36-.52,.26-.14,.38-.39,.63-.53l-2.51-4.15c.5-.5,1.12-.91,1.75-1.15l2.53,4.41c.37-.26,.75-.39,1.13-.39"/><path class="cls-1" d="M33.45,166.66h2.77v7.41c0,1.18,.04,1.94,.11,2.3,.12,.55,.39,1,.83,1.33,.45,.34,1.05,.51,1.8,.51,.8,0,1.38-.15,1.76-.47,.41-.32,.64-.72,.72-1.17,.08-.48,.12-1.25,.12-2.35v-7.57h2.77v7.2c0,1.65-.07,2.8-.22,3.47-.15,.69-.43,1.26-.82,1.73-.4,.46-.95,.84-1.61,1.13-.66,.26-1.53,.4-2.61,.4-1.31,0-2.3-.15-2.97-.46-.67-.28-1.2-.69-1.6-1.17-.4-.49-.64-.98-.77-1.52-.18-.78-.27-1.93-.27-3.47v-7.31Z"/><polygon class="cls-1" points="47.27 180.35 47.27 166.66 49.96 166.66 55.59 175.84 55.59 166.66 58.15 166.66 58.15 180.35 55.38 180.35 49.83 171.35 49.83 180.35 47.27 180.35"/><rect class="cls-1" x="61" y="166.66" width="2.78" height="13.69"/><polygon class="cls-1" points="69.89 180.35 65.01 166.66 68 166.66 71.46 176.79 74.8 166.66 77.75 166.66 72.88 180.35 69.89 180.35"/><polygon class="cls-1" points="79.13 180.35 79.13 166.66 89.26 166.66 89.26 168.97 81.91 168.97 81.91 172.01 88.75 172.01 88.75 174.32 81.91 174.32 81.91 178.03 89.54 178.03 89.54 180.35 79.13 180.35"/><path class="cls-1" d="M94.64,172.46h2.03c1.33,0,2.16-.07,2.49-.17,.32-.12,.58-.3,.77-.58,.18-.27,.27-.62,.27-1.01,0-.49-.11-.85-.36-1.13-.24-.3-.59-.46-1.05-.54-.21-.03-.91-.05-2.01-.05h-2.15v3.49Zm-2.78,7.89v-13.69h5.81c1.47,0,2.53,.11,3.2,.36,.66,.25,1.2,.69,1.58,1.31,.41,.63,.6,1.36,.6,2.17,0,1.04-.3,1.88-.88,2.55-.63,.67-1.5,1.09-2.71,1.26,.58,.35,1.09,.74,1.47,1.15,.4,.41,.9,1.15,1.56,2.22l1.67,2.68h-3.3l-1.98-3c-.72-1.05-1.22-1.71-1.46-1.99-.29-.28-.56-.47-.85-.57-.3-.11-.76-.16-1.4-.16h-.55v5.71h-2.78Z"/><path class="cls-1" d="M104.95,175.9l2.69-.26c.17,.9,.49,1.56,1,1.98,.47,.41,1.15,.63,1.98,.63,.88,0,1.54-.19,1.99-.57,.45-.37,.68-.82,.68-1.32,0-.33-.1-.59-.29-.82-.21-.23-.5-.42-.98-.59-.33-.12-1.05-.32-2.22-.61-1.47-.36-2.49-.82-3.09-1.36-.83-.74-1.26-1.68-1.26-2.77,0-.71,.2-1.35,.59-1.95,.38-.62,.96-1.08,1.7-1.4,.74-.3,1.65-.47,2.69-.47,1.72,0,2.99,.39,3.86,1.14,.86,.75,1.32,1.77,1.38,3.04l-2.79,.1c-.12-.71-.36-1.23-.74-1.53-.4-.3-.96-.47-1.74-.47s-1.42,.18-1.89,.5c-.29,.21-.43,.5-.43,.86,0,.32,.13,.6,.41,.83,.36,.29,1.18,.6,2.52,.92,1.36,.32,2.35,.66,2.98,.99,.64,.34,1.16,.81,1.52,1.39,.37,.59,.54,1.32,.54,2.19,0,.78-.23,1.51-.64,2.21-.44,.68-1.07,1.18-1.84,1.52-.81,.33-1.81,.5-2.99,.5-1.72,0-3.05-.4-3.98-1.2-.94-.79-1.48-1.95-1.67-3.49"/><rect class="cls-1" x="118.32" y="166.66" width="2.78" height="13.69"/><path class="cls-1" d="M126.49,168.97v9.07h2.04c.76,0,1.34-.04,1.67-.12,.45-.11,.81-.3,1.11-.58,.3-.26,.53-.71,.72-1.32,.18-.62,.26-1.46,.26-2.52s-.08-1.85-.26-2.43c-.19-.56-.45-1.01-.78-1.32-.34-.33-.76-.54-1.28-.65-.39-.08-1.14-.13-2.26-.13h-1.23Zm-2.79-2.31h5.05c1.15,0,2,.08,2.61,.25,.81,.25,1.48,.67,2.06,1.27,.58,.61,.99,1.35,1.3,2.21,.3,.89,.44,1.98,.44,3.25,0,1.14-.12,2.11-.42,2.92-.34,1.01-.82,1.81-1.45,2.42-.48,.47-1.12,.84-1.94,1.09-.61,.2-1.42,.3-2.44,.3h-5.21v-13.69Z"/><path class="cls-1" d="M144.81,174.92l-1.92-5.08-1.85,5.08h3.76Zm5.05,5.43h-2.96l-1.2-3.11h-5.5l-1.12,3.11h-2.93l5.32-13.69h2.91l5.48,13.69Z"/><path class="cls-1" d="M154.13,168.97v9.07h2.05c.78,0,1.33-.04,1.67-.12,.44-.11,.79-.3,1.1-.58,.3-.26,.53-.71,.72-1.32,.18-.62,.29-1.46,.29-2.52s-.11-1.85-.29-2.43c-.18-.56-.44-1.01-.78-1.32-.31-.33-.76-.54-1.26-.65-.39-.08-1.14-.13-2.28-.13h-1.22Zm-2.77-2.31h5.03c1.14,0,1.99,.08,2.59,.25,.81,.25,1.48,.67,2.06,1.27,.58,.61,1.01,1.35,1.31,2.21,.3,.89,.44,1.98,.44,3.25,0,1.14-.12,2.11-.42,2.92-.34,1.01-.82,1.81-1.46,2.42-.49,.47-1.13,.84-1.94,1.09-.62,.2-1.43,.3-2.45,.3h-5.17v-13.69Z"/><path class="cls-1" d="M173.23,168.97v9.07h2.06c.77,0,1.32-.04,1.66-.12,.45-.11,.82-.3,1.1-.58,.3-.26,.54-.71,.72-1.32,.2-.62,.3-1.46,.3-2.52s-.1-1.85-.3-2.43c-.18-.56-.43-1.01-.77-1.32-.33-.33-.76-.54-1.27-.65-.4-.08-1.14-.13-2.26-.13h-1.25Zm-2.78-2.31h5.05c1.15,0,2.01,.08,2.59,.25,.82,.25,1.51,.67,2.07,1.27,.59,.61,1,1.35,1.32,2.21,.3,.89,.43,1.98,.43,3.25,0,1.14-.13,2.11-.41,2.92-.35,1.01-.83,1.81-1.47,2.42-.48,.47-1.12,.84-1.93,1.09-.6,.2-1.43,.3-2.45,.3h-5.2v-13.69Z"/><polygon class="cls-1" points="184.29 180.35 184.29 166.66 194.41 166.66 194.41 168.97 187.07 168.97 187.07 172.01 193.9 172.01 193.9 174.32 187.07 174.32 187.07 178.03 194.68 178.03 194.68 180.35 184.29 180.35"/><polygon class="cls-1" points="197.1 180.35 197.1 166.76 199.87 166.76 199.87 178.03 206.74 178.03 206.74 180.35 197.1 180.35"/><path class="cls-1" d="M216.78,174.36v3.67h2.57c.97,0,1.62-.03,1.88-.09,.42-.08,.76-.26,1-.54,.26-.3,.4-.68,.4-1.17,0-.42-.1-.76-.3-1.05-.2-.29-.49-.5-.87-.63-.38-.14-1.19-.2-2.45-.2h-2.22Zm0-5.44v3.15h1.81c1.07,0,1.73-.02,2-.05,.47-.05,.85-.21,1.12-.47,.27-.27,.4-.64,.4-1.07s-.12-.77-.35-1.04c-.23-.26-.58-.42-1.05-.47-.26-.03-1.05-.06-2.35-.06h-1.59Zm-2.77-2.26h5.48c1.08,0,1.9,.05,2.41,.14,.53,.08,1.02,.27,1.43,.56,.43,.28,.77,.66,1.06,1.14,.27,.46,.42,1.01,.42,1.59,0,.63-.17,1.22-.51,1.76-.36,.54-.82,.93-1.42,1.2,.83,.24,1.47,.65,1.93,1.24,.44,.59,.66,1.27,.66,2.07,0,.62-.15,1.24-.43,1.83-.3,.58-.69,1.05-1.19,1.42-.49,.34-1.11,.56-1.84,.64-.48,.04-1.58,.08-3.34,.09h-4.66v-13.69Z"/><path class="cls-1" d="M227.29,165.41l1.3-2.78h2.94l-2.61,2.78h-1.63Zm.44,1.25h2.76v13.69h-2.76v-13.69Z"/><path class="cls-1" d="M235.41,173.49c0,1.56,.36,2.74,1.07,3.53,.72,.81,1.64,1.19,2.74,1.19s2-.39,2.71-1.18c.73-.8,1.07-1.99,1.07-3.59s-.35-2.73-1.04-3.5c-.69-.78-1.61-1.16-2.74-1.16s-2.07,.38-2.76,1.17c-.71,.78-1.05,1.96-1.05,3.53m-2.85,.1c0-1.4,.2-2.57,.61-3.52,.33-.7,.74-1.33,1.29-1.89,.54-.56,1.12-.97,1.77-1.24,.85-.34,1.83-.53,2.95-.53,2.01,0,3.62,.62,4.84,1.88,1.2,1.26,1.82,3,1.82,5.22s-.62,3.96-1.79,5.21c-1.21,1.25-2.83,1.87-4.83,1.87s-3.67-.62-4.87-1.86c-1.2-1.26-1.79-2.97-1.79-5.15"/><rect class="cls-1" x="247.68" y="174.07" width="5.16" height="2.63"/><path class="cls-1" d="M257.15,174.36v3.67h2.58c.99,0,1.62-.03,1.89-.09,.42-.08,.74-.26,1.02-.54,.25-.3,.37-.68,.37-1.17,0-.42-.1-.76-.3-1.05-.19-.29-.47-.5-.86-.63-.36-.14-1.19-.2-2.45-.2h-2.24Zm0-5.44v3.15h1.82c1.07,0,1.73-.02,2.01-.05,.48-.05,.84-.21,1.1-.47,.27-.27,.41-.64,.41-1.07s-.11-.77-.35-1.04c-.23-.26-.58-.42-1.05-.47-.26-.03-1.05-.06-2.36-.06h-1.59Zm-2.76-2.26h5.47c1.09,0,1.89,.05,2.43,.14,.52,.08,1,.27,1.43,.56,.44,.28,.77,.66,1.05,1.14,.28,.46,.41,1.01,.41,1.59,0,.63-.16,1.22-.49,1.76-.35,.54-.82,.93-1.42,1.2,.83,.24,1.48,.65,1.91,1.24,.45,.59,.67,1.27,.67,2.07,0,.62-.15,1.24-.43,1.83-.31,.58-.7,1.05-1.19,1.42-.5,.34-1.12,.56-1.84,.64-.49,.04-1.59,.08-3.35,.09h-4.65v-13.69Z"/><path class="cls-1" d="M267.66,165.41l1.31-2.78h2.93l-2.59,2.78h-1.65Zm.44,1.25h2.78v13.69h-2.78v-13.69Z"/><path class="cls-1" d="M275.78,173.49c0,1.56,.35,2.74,1.07,3.53,.72,.81,1.63,1.19,2.73,1.19s2.01-.39,2.72-1.18c.71-.8,1.06-1.99,1.06-3.59s-.35-2.73-1.03-3.5c-.69-.78-1.62-1.16-2.75-1.16s-2.07,.38-2.77,1.17c-.69,.78-1.04,1.96-1.04,3.53m-2.85,.1c0-1.4,.2-2.57,.61-3.52,.31-.7,.74-1.33,1.3-1.89,.53-.56,1.1-.97,1.75-1.24,.86-.34,1.83-.53,2.95-.53,2.02,0,3.63,.62,4.85,1.88,1.2,1.26,1.81,3,1.81,5.22s-.61,3.96-1.8,5.21c-1.21,1.25-2.82,1.87-4.83,1.87s-3.66-.62-4.87-1.86c-1.2-1.26-1.79-2.97-1.79-5.15"/></svg>