<?xml version="1.0" encoding="UTF-8"?><svg id="Capa_1" xmlns="http://www.w3.org/2000/svg" viewBox="0 0 433.36 192.73"><defs><style>.cls-1{fill:#707070;}</style></defs><path class="cls-1" d="M217.73,135.22c-2.21,.51-4.4,1.08-6.61,1.55-5.39,1.11-10.82,2.02-16.31,2.42-5.56,.4-11.13,.6-16.7,.03-3.13-.3-6.16-.95-9.11-2.03-7.81-2.9-12.96-8.36-15.63-16.2-1.24-3.64-1.91-7.43-2.19-11.26-.21-2.71-.28-5.43-.28-8.15-.03-13.34-.02-26.68-.02-40.02v-1.38h21.97c.02,.43,.07,.85,.07,1.29v23.02c.02,6.51,.02,13.04,.09,19.56,.03,2.94,.44,5.86,1.29,8.69,.14,.47,.3,.94,.46,1.38,1.35,3.66,4.04,5.7,7.82,6.37,2.68,.46,5.39,.3,8.1,.11,1.66-.1,3.33-.35,5.09-.5V60.2h21.82c.26,.82,.39,71.99,.12,75.02Z"/><path class="cls-1" d="M344.36,62.93c-1.28,5.73-2.55,11.4-3.84,17.06-2.26-.64-4.4-1.27-6.53-1.83-4.35-1.2-8.77-1.63-13.25-1.47-1.48,.07-2.95,.36-4.4,.64-.62,.12-1.19,.4-1.78,.64-3.76,1.78-3.48,6.89-.76,8.62,1.3,.82,2.64,1.67,4.05,2.32,2.72,1.21,5.51,2.22,8.22,3.4,3.1,1.35,6.21,2.7,9.22,4.26,1.85,.96,3.61,2.19,5.27,3.52,3.7,2.93,5.94,6.78,6.68,11.48,.61,3.79,.72,7.58-.06,11.33-1.07,5.05-3.8,9-8.03,11.91-3.44,2.35-7.25,3.74-11.27,4.64-5.2,1.14-10.48,1.38-15.75,1.24-3.75-.08-7.49-.31-11.2-1.01-4.37-.82-8.58-2.04-12.88-3.62,1.19-5.98,2.43-11.89,3.68-17.89,.4,.13,.71,.21,1.01,.33,5.55,2.11,11.25,3.58,17.2,4.12,3.84,.35,7.69,.46,11.53-.34,.29-.06,.58-.16,.86-.24,4.04-.89,4.62-6.14,1.99-8.32-.89-.72-1.81-1.43-2.85-1.93-2.88-1.35-5.83-2.61-8.76-3.88-3.1-1.34-6.24-2.58-9.31-4-2.69-1.2-5.1-2.91-7.21-5-3.46-3.47-5.34-7.72-5.88-12.59-.38-3.34-.31-6.69,.54-9.97,1.32-5.2,4.37-9.14,8.75-12.12,3.6-2.43,7.62-3.81,11.88-4.58,5.01-.87,10.06-.86,15.09-.48,5.5,.43,10.89,1.52,16.16,3.17,.49,.16,.97,.35,1.62,.57Z"/><path class="cls-1" d="M278.37,80.69c-2.32-.67-4.41-1.36-6.59-1.87-4.57-1.09-9.16-1.39-13.81-.42-5.09,1.07-8.76,4-11.17,8.6-1.43,2.75-2.24,5.68-2.57,8.73-.5,4.71-.26,9.41,1.05,13.94,.31,1.03,.72,2.05,1.15,3.03,1.98,4.36,5.34,7.06,9.95,8.24,2.72,.68,5.47,.95,8.28,.89,4.85-.08,9.63-.72,14.26-2.24,.69-.24,1.4-.5,2.23-.81,1.03,6,2.05,11.94,3.07,17.95-.34,.16-.64,.34-.99,.45-4.58,1.67-9.26,2.73-14.1,3.2-3.91,.42-7.86,.48-11.78,.22-6.62-.46-12.89-2.09-18.66-5.5-6.7-4-11.5-9.64-14.07-17.01-3.6-10.29-4.25-20.78-1.17-31.3,4.02-13.78,13.07-22.65,26.89-26.5,4.41-1.24,8.93-1.42,13.49-1.29,6.31,.15,12.35,1.51,18.21,3.85,.25,.11,.52,.26,.86,.43-1.51,5.81-3.02,11.61-4.54,17.41Z"/><path class="cls-1" d="M408.32,80.78c-.74-.24-1.33-.45-1.92-.65-4.4-1.49-8.9-2.38-13.57-2.29-2.27,.05-4.51,.33-6.67,1.04-3.43,1.07-6.14,3.1-8.18,6.08-2.08,3.03-3.22,6.43-3.7,10.08-.63,4.75-.43,9.49,.86,14.17,.27,1.05,.67,2.04,1.07,3.05,1.93,4.57,5.3,7.45,10.1,8.67,2.72,.69,5.48,.96,8.29,.9,4.84-.08,9.62-.72,14.26-2.22,.69-.26,1.38-.5,2.22-.8,1.11,5.96,2.06,11.91,3.12,17.92-.4,.16-.76,.36-1.12,.48-4.54,1.66-9.2,2.69-13.98,3.17-3.91,.41-7.79,.48-11.71,.22-5.88-.41-11.51-1.7-16.79-4.42-7.6-3.95-13.05-9.83-15.95-17.89-3.64-10.19-4.3-20.65-1.35-31.11,3.81-13.62,12.63-22.57,26.19-26.7,4.73-1.42,9.63-1.66,14.56-1.48,6.29,.2,12.29,1.56,18.08,3.92,.22,.07,.41,.19,.73,.34-1.5,5.83-3.01,11.65-4.54,17.53Z"/><g><path class="cls-1" d="M62.17,55.21c.2-1.86,.33-3.61,.62-5.33,.47-2.97,1.45-5.77,3.24-8.22,1.7-2.35,3.89-3.96,6.8-4.47,2.04-.35,3.93,.09,5.71,1.05,1.79,.99,3.17,2.44,4.27,4.15,1.97,3.05,2.87,6.44,3.16,10.02,.07,1.01,.08,2.01,.15,3.05,13.77,4.08,23.47,12.88,29.41,25.87,4.46,9.75,5.36,19.91,2.71,30.33-5.53,21.65-24.92,34.99-46.38,34.57-21.91-.42-39.55-16.78-43.59-36.71-1.59-7.86-1-15.64,1.28-23.3,2.33-7.72,6.42-14.36,12.3-19.88,5.83-5.5,12.65-9.21,20.33-11.15Zm11.06-9.12c-.06-.03-.09-.03-.16-.03-.51,.22-1.02,.4-1.58,.65,.25,.42,.36,.9,.69,1.17,.25,.22,.54,.86,1.08,.34-.19,.86-.39,1.75-.59,2.69,.76,.03,1.52,.3,2.17-.09-.11-.75-.2-1.37-.29-2.02,.54-.05,.6-.32,.32-.74,.49,.32,.96,.64,1.5,1.01,.14-.81,.3-1.6,.45-2.5-.27-.17-.61-.35-.99-.6-.35,.57-1.15,.82-.87,1.68-.22-.35-.45-.7-.68-1.03,.98-.32,1.01-.37,.95-1.42,.07-.06,.22-.15,.21-.16-.31-.66-.53-1.37-.93-1.99-.63-.91-2.05-.76-2.45,.24-.25,.61,.21,1.95,.86,2.22,.13,.05,.35-.12,.54-.2h.95c-.4,.26-.79,.54-1.16,.8Zm-10.82,10.89c-16.63,3.42-34.77,21.73-33.27,45.79,1.31,21.45,18.42,41.38,43.99,41.96,22.38-.41,42.54-15.83,44.7-40.93,2.12-24.69-15.38-42.04-31.79-46.48-1.93,7.71-1.19,7.3-6.65,13.36,1.33,.38,2.65,.71,3.93,1.15,15.11,5.16,21.5,21.46,19.33,33.39-3.1,17.16-18.94,26.37-33.62,24.29-8.78-1.26-15.69-5.79-20.64-13.15-4.36-6.46-5.72-13.62-4.5-21.31,.91-5.56,3.11-10.55,6.84-14.8,4.65-5.3,10.55-8.36,17.42-9.65,.21-.06,.43-.16,.79-.27-4.41-3.43-5.91-8.14-6.53-13.33Zm38.24,49.1c3.57-15.04-5.75-31.91-24.68-34.29,.24-.85,.7-1.73-.06-2.63-.59,.68-1.2,1.16-2.1,1.22-.91,.06-1.57-.45-2.26-.95-.53,.79-.14,1.49,.13,2.25-8.52,.82-15.65,4.31-20.77,11.22-5.11,6.89-6.85,14.64-5.06,23.13h20.92c.21-3.78,.47-7.52,.71-11.33h-7.73c-1.07-1.59-2.12-3.11-3.15-4.67-.14-.18-.22-.48-.17-.71,.39-2.06,.82-4.13,1.28-6.29h3.5c1.2,0,2.37,0,3.57-.01,1.15,0,2.27,.03,3.46-.04,.22-3.1,.4-6.06,.63-9.08h9.03c.18,3.06,.41,6.04,.59,9.14h3.81c1.17,0,2.37-.01,3.57,0,1.19,0,2.41-.1,3.62,.08,.29,2.03,.53,3.95,.82,5.86,.09,.51,0,.91-.29,1.34-.85,1.23-1.7,2.46-2.5,3.7-.31,.51-.69,.68-1.27,.67-1.98-.02-3.94-.02-5.91,0-.32,0-.64,.04-1.09,.07,.26,3.81,.49,7.55,.72,11.31h20.71Zm-23.77-31.15h-7.05c-.18,3.04-.39,5.95-.58,9.02h-10.63c-.35,1.73-.68,3.34-1.05,4.92-.08,.45,.03,.79,.28,1.14,.69,1.01,1.38,2.03,2.03,3.05,.35,.57,.78,.73,1.38,.73,2.06-.03,4.09-.03,6.14-.03,.36,0,.72,.05,1.12,.07,0,.58,.02,1.11,0,1.62-.35,5.19-.73,10.39-1,15.61-.04,1.1-.47,1.71-1.33,2.31-2.7,1.77-5.35,3.63-8.01,5.48-.35,.24-.77,.41-.76,.98,.02,.93,0,1.88,0,2.8,0,.54,.28,.79,.96,.91v-2.85c.3,.18,.42,.25,.53,.34,2.5,1.97,4.98,3.91,7.45,5.89,.48,.37,.81,.51,1.33,.1,.54-.42,1.17-.69,1.74-1.04,1.33-.81,2.66-1.6,3.99-2.4,1.95,1.19,3.85,2.27,5.68,3.49,.54,.35,.85,.26,1.25-.06,2.43-1.99,4.85-3.94,7.3-5.9,.18-.16,.4-.26,.77-.5v2.8c.6-.09,.82-.36,.82-.86,0-.74-.03-1.47,.03-2.22,.05-.72-.23-1.16-.83-1.56-2.83-1.91-5.63-3.88-8.45-5.8-.5-.34-.72-.7-.78-1.35-.3-5.32-.68-10.61-1.01-15.95-.04-.6,0-1.22,0-1.93h1.19c1.96,0,3.93-.01,5.9,.03,.82,.01,1.29-.27,1.71-.92,.51-.88,1.09-1.71,1.66-2.51,.41-.59,.66-1.14,.47-1.86-.19-.74-.22-1.54-.34-2.32-.1-.71-.23-1.44-.37-2.25h-10.95c-.2-3.03-.39-5.94-.6-8.98Zm.79-5.27c.37-.68,.66-1.24,1-1.84,.4,.49,.71,.83,1.18,1.38,.07-.84-.26-1.27-.47-1.72-.28-.65-.16-1.1,.33-1.6,.56,.73,1.06,1.37,1.57,2.04,.16-.31,.16-.53,.06-.71-.27-.59-.57-1.2-.92-1.78-.39-.64-.37-1.23,.13-1.89,.43,.5,.84,.94,1.33,1.5,.21-.95-.4-1.3-.74-1.73-.43-.56-.47-1.02,0-1.56,.86,.26,1.47,1.09,2.59,1.24-.18-.3-.23-.51-.35-.63-.49-.48-1.04-.88-1.52-1.33-.68-.57-.67-.59-.19-1.46,.58,.21,1.12,.44,1.67,.66,.06-.07,.09-.16,.12-.26-.38-.37-.9-.55-1.35-.83-.36-.23-.59-.44-.2-.92,.92,.16,1.89,.32,2.85,.51-.12-.31-.26-.44-.44-.53-.59-.26-1.24-.5-1.86-.74-.56-.2-.65-.5-.36-1.02,.66,.02,1.28,.06,1.94,.12,0-.11,.02-.18,.03-.27-.55-.15-1.11-.27-1.66-.48-.15-.05-.35-.31-.35-.46s.25-.37,.41-.39c.68-.13,1.4-.17,2.1-.28,.21-.03,.42-.15,.63-.23-.02-.07-.06-.14-.06-.22h-2.86c-.25-.6-.21-.93,.4-1.08,.45-.09,.95-.11,1.25-.71-.63,.07-1.25,.14-2.04,.2,.5-1.32,1.95-1.24,2.53-2.2-.42,.05-.79,.18-1.18,.31-.39,.16-.79,.29-1.28,.43-.14-1.21,1.19-1.24,1.5-2.18-.64,.34-1.15,.59-1.64,.86-.39-.58-.31-.97,.12-1.38,.45-.45,.91-.96,1.34-1.47,.11-.14,.16-.34,.22-.5-.05-.03-.08-.06-.13-.09-.66,.56-1.33,1.1-1.99,1.67-.43-.55-.4-.95,0-1.37,.28-.37,.76-.67,.76-1.36-.53,.4-.94,.71-1.5,1.17-.23-1.54,.95-2.47,.87-3.8-.53,.65-1.04,1.28-1.56,1.94-1.08-1.01,.35-1.72,.13-2.69-.38,.47-.69,.87-1.07,1.33-.5-.56-.96-1.06-1.42-1.57-.49,.54-.92,1.03-1.38,1.52,3.25,2.33,4.14,5.93,5.14,9.46-.46,.27-.82,.49-1.19,.71,.12,.41,.21,.72,.36,1.03,.45,.85,.35,1.64-.16,2.41-.66,1.04-.96,2.14-.82,3.4,.03,.34,.02,.64-.29,.99-.47,.56-.88,1.25-1.04,1.93-.09,.4,.35,.93,.57,1.4,.03,.12,.11,.26,.2,.39,.41,.53,.3,1.04,0,1.55-.47,.79-1.1,1.29-2.01,1.51-.27,.05-.54,.09-.92,.16,.58,.49,1.05,.94,1.61,1.47Zm-14.29-15.61c0,.07-.02,.13-.03,.19,.18,.07,.35,.17,.56,.21,.62,.14,1.23,.27,1.85,.39,.53,.11,.68,.38,.48,.91-.56,.1-1.12,.19-1.7,.28,.02,.08,.03,.15,.03,.22,.33,0,.63-.02,.94,.02,.35,0,.81-.24,.95,.3,.12,.6-.44,.6-.76,.77-.54,.26-1.1,.45-1.65,.7-.16,.08-.3,.26-.43,.38,.03,.06,.07,.12,.08,.18,.93-.18,1.86-.38,2.8-.58,.35,.48,.35,.83-.18,1.1-.38,.2-.72,.43-1.09,.65,.02,.08,.03,.12,.07,.17,.53-.21,1.02-.44,1.71-.71-.14,1.69-1.71,2.08-2.33,3.45,.98-.52,1.78-.95,2.54-1.37,.54,.8,.49,1.4-.12,1.98-.25,.23-.42,.56-.63,.84,.04,.06,.1,.08,.15,.12,.36-.31,.76-.65,1.15-.99q.39,.91,.07,1.57c-.38,.77-.89,1.52-1.15,2.33,.07,.08,.14,.12,.21,.17,.53-.61,1.08-1.22,1.63-1.83,.69,.77,.74,1.45,.31,2.24-.14,.26-.39,.58-.21,.98,.49-.35,.39-1.02,.93-1.27,.33,.52,.64,1.01,.93,1.49,.57-.31,1-.57,1.56-.89-.6-.13-.49-.45-.38-.82,.1-.28,.13-.56,.26-.85,.26-.51,.12-.89-.22-1.31-.63-.74-1.14-1.59-1.81-2.26-1.19-1.19-1.55-2.54-1.23-4.16,.11-.4,.06-.99-.19-1.26-.86-.98-.76-1.94-.15-2.95,.08-.15,.12-.33,.2-.54-.25-.33-.46-.68-.74-1-.4-.44-.53-.89-.33-1.51,.36-1.18,.65-2.42,.96-3.66,.48-1.89,1.31-3.56,2.99-4.69,.03-.04,.05-.11,.11-.22-.21-.3-.46-.63-.86-1.1-.33,.45-.61,.82-.92,1.27-.32-.48-.54-.81-.79-1.12,.07,.83,.84,1.64-.27,2.37-.34-.44-.71-.86-1.14-1.37-.06,1.17,1.06,2.12,.27,3.3-.33-.29-.6-.55-.87-.79-.06,.05-.07,.08-.12,.13,.27,.38,.54,.77,.83,1.23-.15,.3-.31,.59-.47,.92-.75-.39-1.14-1.1-1.96-1.24,.29,.54,.65,1,1.01,1.45,.33,.44,.89,.83,.4,1.56-.45-.26-.91-.52-1.36-.74,.23,.43,.54,.72,.88,.96,.49,.35,.53,.74,.14,1.24-.77-.33-1.52-.63-2.26-.94-.03,.07-.07,.16-.11,.22,.62,.43,1.25,.87,1.89,1.29,.43,.29,.68,.57,.23,1.12-.51-.17-1.07-.34-1.6-.5-.05,.1-.08,.19-.12,.28,.46,.22,.94,.44,1.43,.65,.46,.18,.61,.48,.28,1.03h-2.66Zm12.38,13.09c-.16-2.53-.38-4.97-.45-7.42-.06-2.32-.02-4.68-.02-7.01,0-.3,0-.62-.14-.86-.13-.21-.45-.38-.67-.42-.14-.02-.39,.33-.44,.55-.09,.34-.08,.71-.1,1.1-.19,3.19-.28,6.37-.54,9.55-.17,1.83,.54,3.39,.86,5.21,.92-.33,1.81,.07,2.86-.49-.59-.11-.93-.14-1.36-.22Zm4.45,43.06c1.15-.08,2.13-.48,3.09-.85,1.56-.6,3.11-.59,4.69-.07,.49,.17,.97,.36,1.47,.53,1.43,.51,2.88,.67,4.35,.2,1-.32,1.97-.77,2.98-.92,1-.16,2.04-.05,3.13-.05,.12-.42,.25-.79,.36-1.16-1.28-.38-1.84-.48-2.87-.26-.77,.18-1.55,.43-2.31,.7-1.83,.69-3.62,.77-5.47,.14-.74-.22-1.48-.46-2.24-.68-.89-.26-1.81-.39-2.73-.11-1.49,.45-2.98,.9-4.51,1.36,.03,.38,.07,.73,.07,1.18Zm-33.4-1.07c1.96-.59,3.67,0,5.38,.64,1.95,.76,3.85,.59,5.74-.22,1.93-.82,3.89-.91,5.83-.08,.55,.24,1.14,.4,1.7,.57,.31,.08,.63,.1,1.02,.16v-1.27c-.64-.16-1.26-.2-1.76-.44-2.55-1.24-5.06-1.1-7.66-.06-1.74,.72-3.55,.59-5.32-.05-.6-.22-1.19-.45-1.81-.58-1.15-.28-2.32-.29-3.51,.12,.15,.43,.23,.74,.39,1.22Zm33.27,2.7c.58,.44,.94,.7,1.32,.97,.54-.19,1-.43,1.52-.53,1-.22,2.01-.44,3.05-.57,1.14-.13,2.19,.3,3.22,.74,1.8,.7,3.6,.85,5.44,.16,1.34-.53,2.71-1,4.22-.91,.17-.43,.33-.77,.53-1.23-.32-.07-.54-.12-.74-.14-1.22-.12-2.39,.12-3.48,.61-2.09,.91-4.16,.95-6.28,.08-.33-.14-.69-.25-1.05-.38-.96-.35-1.97-.5-2.95-.26-1.54,.38-3.04,.89-4.79,1.45Zm-32.24-.13c1.52-.08,2.88,.39,4.26,.9,1.53,.59,3.1,.6,4.67,.1,.22-.08,.44-.14,.65-.23,2.29-1.1,4.58-.94,6.88-.01,1,.37,1.31,.23,1.93-.7-1.01-.36-2.03-.71-3.04-1.06-1.54-.54-3.04-.5-4.56,.06-.61,.2-1.19,.39-1.81,.61-1.35,.43-2.69,.43-4.04,0-.64-.21-1.24-.45-1.89-.67-1.1-.37-2.27-.54-3.57-.21,.23,.47,.36,.8,.54,1.23Zm25.85-60.09c-1.21-.45-1.83-.25-2.17,.8-.2,.59-.35,1.23-.31,1.85,.03,2.6,.16,5.19,.29,7.79,0,.47,.07,.98,.18,1.43,.13,.47,.36,.91,.51,1.36,.14-.02,.26-.04,.41-.07-.46-1.54-.97-3.1-.54-4.7,.33,1.14,.07,2.35,.73,3.43,.59-3.96,.59-7.94,.91-11.89Zm9.34,62.13c.62,.72,1.25,.96,2.13,.82,.6-.13,1.25-.09,1.87,.01,.9,.2,1.79,.5,2.66,.81,1.61,.57,3.18,.64,4.78,.06,.67-.24,1.32-.52,2.01-.67,.9-.2,1.27-.74,1.52-1.61-.21,0-.37-.04-.47,0-.97,.27-1.94,.52-2.9,.83-1.68,.56-3.33,.6-5.01-.03-.59-.22-1.19-.41-1.81-.58-1.58-.54-3.11-.36-4.78,.35Zm-19.49-.03c-1.22-.56-2.39-.82-3.62-.58-.96,.22-1.93,.51-2.87,.85-1.65,.6-3.26,.59-4.91,.06-.49-.15-1.03-.38-1.56-.53-.58-.16-1.2-.25-1.86-.4,.36,1.15,.45,1.32,1,1.51,.96,.32,1.94,.62,2.95,.94,1.15,.4,2.34,.41,3.49,.06,.71-.21,1.4-.47,2.11-.69,1.07-.36,2.16-.63,3.28-.4,.86,.2,1.38-.2,1.99-.82Zm15.17-48.53c-.49-.85-.96-1.61-1.35-2.39-.25-.51-.51-1.1-.51-1.65-.07-2.24-.43-4.45,0-6.68,.07-.35,.05-.76,.05-1.11-.02-.95-.16-1.1-1.2-1.37-.25,4.87,.26,9.69,.32,14.56,1.27,.07,1.71-1.02,2.69-1.37Zm-6.59-22.57c.84-1.02,1.78-.65,2.74-.12,.06,.03,.14,.04,.19,.08,.49,.3,.91,.17,1.35-.14,.99-.68,.97-1.89-.04-2.69-1.09-.89-3.09-.95-4.29-.12-1.27,.85-1.27,1.93,.05,2.98Zm-21.28,73.78c.42,.87,.77,1.72,1.74,1.98,3.02,.83,5.38-.38,7.67-2.45-1.17,0-2.06,.41-2.96,.76-1.78,.71-3.6,.76-5.43,.03-.31-.14-.66-.22-1.02-.32Zm45.14-.02c-.44,.12-.77,.19-1.06,.31-1.87,.77-3.73,.73-5.62-.03-.64-.26-1.32-.47-1.99-.64-.25-.05-.53-.02-1.05-.02,.97,.66,1.7,1.16,2.44,1.66,1.4,.88,2.92,1.12,4.58,.9,1.32-.16,2.08-.95,2.71-2.17Zm-25.41-61.02c-.61,.2-1.25,.35-1.3,.95-.15,1.53-.21,3.05-.3,4.6,.72,.15,1.32,.27,2.08,.42-.17-2.07-.33-3.98-.48-5.98Zm8.24-8.18c-.13,2.04-.27,4.18-.41,6.41,.88-.38,1.64-.7,2.42-.99-.42-2.31-1.28-4.59-2.01-5.42Zm-3.41,1.74c-.35,.17-.63,.4-.39,.84,.35,.62,.63,1.28,1.09,1.78,.77,.81,1.56,.58,1.75-.51,.17-1.05,.22-2.14,.31-3.2,.02-.4-.09-.81-.54-.86-.45-.07-.71,.35-.71,.7,0,.93-.44,1.94,.41,2.9-1.12-.19-1.12-1.32-1.93-1.65Zm-5.37,3.46c-.18-2-.33-4.02-.51-6.02-.79,1.67-1.29,3.38-1.59,5.06,.8,.36,1.48,.69,2.1,.96Zm7.41,8.8c.69-.16,1.19-.26,1.73-.4v-3.38c-.18-.08-.44-.21-.82-.41-.3,1.38-.57,2.66-.91,4.19Zm-4.55-12.03c-.07-.11-.1-.22-.16-.31-.3,.03-.7-.03-.88,.12-.47,.48-.89,1.06-1.29,1.66-.21,.35-.16,.73,.23,.96,.33,.19,.69,.09,.87-.23,.43-.73,.82-1.47,1.22-2.21Zm-19.19,70.94c.97,.81,1.73,1.45,2.64,2.22v-2.43c-.83,.07-1.59,.14-2.64,.21Zm39.02,.16s-.08-.12-.11-.2c-.76-.06-1.52-.11-2.27-.17v2.43c.91-.78,1.65-1.41,2.39-2.07Zm-20.76-52.69c.74,.12,1.27,.2,1.9,.29-.28-1.17-.44-2.21-1.02-3.15-.28,.91-.58,1.83-.88,2.87Zm-1.09-20.69c-.44,1-.65,1.91-.45,2.98,1.57-1.34,1.65-1.83,.45-2.98Zm4.78,21.87c-.34-.6-.83-.62-1.34-.46-.63,.2-.63,.8-.81,1.35,.94,.07,1.65-.17,2.15-.89Zm3.57-11.97c.07-.06,.15-.07,.23-.12-.3-.77-.59-1.53-.97-2.53-.23,.56-.36,.88-.52,1.24,.42,.48,.85,.94,1.26,1.41Zm-11.02-.82c.77-.17,1.24-.58,1.84-1.03-.35-.29-.63-.51-1.07-.87-.25,.68-.48,1.19-.77,1.9Zm10.68-1.98c.43,.35,.8,.64,1.14,.91,.06-.03,.12-.07,.19-.1-.13-.38-.28-.79-.44-1.24-.31,.17-.54,.27-.88,.44Zm-6.09,15.58c-.2-.56-.27-.83-.4-1.24-.26,.28-.4,.44-.63,.67,.35,.18,.57,.34,1.02,.57Zm.03-1.36c-.03,.08-.03,.16-.03,.26,.28,.02,.58,.05,.86,.08-.22-.51-.54-.48-.82-.34Z"/><path class="cls-1" d="M62.84,154.89c-.47-1.77-.85-3.28-1.24-4.81h-.22c-.22,1.09-.45,2.15-.6,3.24-.03,.24,.24,.5,.43,.89-.62-.12-1.17-.21-1.64-.3,.3-.56,.62-1,.77-1.5,.23-.77,.35-1.6,.51-2.4,.15-.62,.38-1.23-.43-1.69,.05-.04,.13-.1,.19-.13,.6,.12,1.21,.25,1.86,.37,.36,1.41,.72,2.81,1.13,4.38,1.12-1.16,1.86-2.41,2.8-3.55,.59,.1,1.18,.21,1.77,.33-.56,.29-.77,.7-.85,1.25-.18,.99-.4,1.97-.61,2.95-.13,.74-.13,.77,.5,1.52-.96-.19-1.75-.35-2.57-.51,.6-.27,.8-.69,.88-1.24,.15-.89,.36-1.8,.35-2.78-.94,1.25-1.92,2.5-3.02,3.99Z"/><path class="cls-1" d="M38.22,58.87c1.3-.95,2.43-1.97,3.71-2.69,1.55-.86,3.43,.43,3.66,2.36,.12,1.09-.2,2.07-1.04,2.81-.75,.64-1.55,1.23-2.33,1.85-.74-1.56-1.86-2.74-2.9-3.99-.15-.21-.61-.21-1.1-.35Zm1.92-.76c.95,1.31,1.87,2.57,2.91,3.76,.99-.62,1.76-1.2,1.65-2.42-.11-1.03-1.09-2.28-2-2.49-1.09-.27-1.79,.39-2.55,1.15Z"/><path class="cls-1" d="M54.4,55.61c-.25-.77-.44-1.42-.68-2.07-.22-.69-.51-1.32-.77-1.98-.19-.53-.29-1.1-1.15-1.05,1.48-.66,2.79-1.43,4.28-1.65,1.77-.26,3.15,1.44,2.81,3.34-.21,1.19-.92,2.02-2.03,2.46-.83,.34-1.66,.63-2.47,.94Zm1.04-.95c1.19-.29,2.14-.67,2.34-1.92,.16-1.03-.44-2.45-1.24-2.93-.99-.56-1.82-.09-2.75,.4,.21,.58,.39,1.15,.61,1.69,.34,.89,.67,1.79,1.04,2.76Z"/><path class="cls-1" d="M127.6,89.9c.17,1.19,.44,2.41,.52,3.66,.19,2.25-1.57,3.5-3.71,2.78-1.12-.39-1.78-1.19-2.04-2.32-.23-.97-.33-1.94-.46-2.89,.66-.06,1.28-.07,1.87-.12,.86-.12,1.69-.21,2.51-.41,.41-.1,.78-.41,1.31-.68Zm-5,2.48c.08,1.27,.22,2.3,1.37,2.68,1.14,.36,2.26,.3,3.15-.55,.79-.79,.52-1.75,.18-2.82-1.56,.25-3.1,.47-4.69,.69Z"/><path class="cls-1" d="M87.78,153.97c-2.06,.05-2.87-1.77-2.9-3.25-.03-1.68,1.48-2.95,3.49-2.99,1.68-.06,2.85,1.22,2.88,3.1,.05,1.76-1.48,3.11-3.48,3.15Zm2.27-2.55c-.03-.89-.28-1.77-.9-2.51-.53-.6-1.18-.72-1.92-.48-.72,.23-1.12,.79-1.15,1.58-.02,.93,.23,1.76,.77,2.51,.53,.75,1.21,1,2.01,.75,.77-.24,1.19-.82,1.19-1.85Z"/><path class="cls-1" d="M27.25,71.69c.66-.95,1.33-1.93,1.99-2.91,.3-.43,.74-.62,1.25-.49,.58,.14,.89,.54,1,1.09,.06,.29,.06,.59,.08,.97h3.49c-.06,.57-.51,.87-.76,1.31-1.13-.06-2.24-.15-3.29-.21-.07-.49-.06-.97-.21-1.4-.09-.21-.4-.44-.67-.54-.53-.23-.86,0-1.36,.91,1.1,.95,2.33,1.75,3.58,2.53,.21,.14,.59-.02,1.05-.05-.48,.73-.92,1.39-1.36,2.06-.03-.88-.74-1.18-1.28-1.59-.68-.49-1.41-.97-2.12-1.45-.4-.25-.81-.66-1.28,.2-.03-.17-.09-.27-.13-.42Z"/><path class="cls-1" d="M110.01,66.6c-1.66,0-3.34-1.69-3.29-3.31,.03-1.52,1.61-3.04,3.15-3.02,1.68,0,3.39,1.74,3.36,3.39-.03,1.54-1.61,2.97-3.22,2.94Zm-.6-.75c1.25-.05,2.93-1.89,2.88-3.15-.07-1.08-1.34-1.93-2.36-1.47-1.14,.49-1.94,1.38-2.22,2.61-.25,.94,.73,2.04,1.7,2.02Z"/><path class="cls-1" d="M123.94,123.71c.03,1.81-1.35,3.46-2.92,3.51-1.67,.05-3.29-1.38-3.34-2.93-.06-1.74,1.47-3.6,3.01-3.61,1.65-.01,3.24,1.45,3.26,3.03Zm-2.45,2.32c.72,.05,1.24-.24,1.58-.84,.35-.58,.41-1.21-.02-1.78-.77-.99-1.8-1.53-3.05-1.53-.74,0-1.23,.44-1.52,1.1-.27,.66-.19,1.25,.3,1.75,.7,.78,1.66,1.23,2.71,1.29Z"/><path class="cls-1" d="M125.34,115.19c-.97-.33-1.93-.68-2.93-.92-.23-.05-.53,.22-.97,.43,.23-.69,.43-1.26,.61-1.81,.16,.71,.68,.86,1.2,1.05,1.35,.47,2.72,.92,4.07,1.37,.02,.62-.36,.83-.78,.98-1.23,.49-2.42,.96-3.62,1.44-.31,.13-.59,.28-1.16,.53,1.24,.4,2.23,.76,3.26,1.01,.27,.08,.65-.14,1.07-.23-.19,.59-.35,1.13-.54,1.66-.18-.65-.68-.86-1.18-1.04-.91-.3-1.78-.57-2.64-.9-.57-.2-1.11-.38-1.64,.4,.1-1.26,.46-1.99,1.61-2.32,1.22-.35,2.42-.91,3.61-1.37,.02-.1,.02-.2,.03-.29Z"/><path class="cls-1" d="M36.56,141.14c-.53-.45-.97-.84-1.42-1.25,.02-.08,.03-.16,.05-.23,.59,.35,.99,.08,1.35-.34,.66-.77,1.32-1.49,1.99-2.25,.54-.63,.54-.65,.36-1.51,.87,.53,1.5,1.04,1.35,2.21-.16,.97-.12,1.99-.16,3-.03,.34,.02,.71,.03,1.04,.09,.04,.15,.06,.24,.09,.64-.75,1.32-1.47,1.91-2.29,.16-.22,.06-.65,.07-1.1,.5,.44,.95,.86,1.4,1.23-.78-.14-1.14,.35-1.52,.79-.71,.82-1.43,1.61-2.13,2.41-.21,.26-.45,.49-.66,.71-.56-.18-.56-.61-.56-1.02,.02-1.27,.06-2.54,.06-3.8,.02-.36,0-.72,0-1.33-.97,.9-1.66,1.74-2.31,2.61-.16,.21-.05,.59-.07,1.02Z"/><path class="cls-1" d="M97.52,148.3c-.34-.75-.7-1.47-.97-2.25-.22-.54-.53-.84-1.16-.98,.52-.26,1.03-.49,1.74-.79-.15,.4-.33,.68-.3,.95,.02,.32,.19,.62,.3,.91,.54,1.25,1.07,2.47,1.61,3.68-.4,.53-.81,.33-1.22,.12-1.12-.54-2.21-1.08-3.29-1.61-.32-.16-.67-.32-1.03-.49-.03,1.17,1.01,3.19,1.97,3.62-.59,.26-1.12,.48-1.62,.71-.09-.05-.16-.07-.21-.13,.74-.44,.39-.99,.19-1.47-.36-.9-.75-1.77-1.15-2.64q-.35-.77-1.18-1.01c.86-.59,1.61-.89,2.61-.23,1.1,.72,2.34,1.24,3.53,1.81,.05-.07,.12-.15,.18-.22Z"/><path class="cls-1" d="M20.15,89.66c.3,.61,.75,.77,1.3,.83,1.42,.21,2.85,.45,4.27,.69,.2,.59-.18,.82-.54,1.07-1.09,.65-2.14,1.33-3.23,1.99-.31,.2-.59,.38-.88,.6,0,.08,.02,.15,.02,.21,1.1,.15,2.19,.32,3.28,.41,.22,0,.45-.29,.83-.51-.07,.66-.13,1.22-.21,1.79-.43-.7-1.1-.77-1.78-.87-.8-.14-1.61-.25-2.42-.34q-.84-.13-1.48,.44c-.07-1.02,.08-1.79,1.14-2.26,1.17-.61,2.26-1.38,3.58-2.17-1.21-.44-2.27-.49-3.3-.58-.2-.02-.45,.3-.81,.54,.09-.67,.16-1.25,.25-1.85Z"/><path class="cls-1" d="M19.21,99.46v-1.52c.48,.12,.92,.31,1.38,.36,.79,.09,1.61,.06,2.44,.09,.92,.05,1.71,.41,1.94,1.36,.26,1.07,.3,2.19-.56,3.04-.25,.26-.73,.36-1.1,.39-.85,.06-1.7,.03-2.56,.03q-.91,0-1.58,.62v-2.27c.54,.15,1.05,.35,1.58,.39,.81,.07,1.64,.09,2.44,0,.86-.06,1.25-.6,1.23-1.55-.05-.88-.44-1.37-1.24-1.44-.98-.06-2.01-.06-3.01,0-.3,0-.57,.31-.94,.52Z"/><path class="cls-1" d="M110.75,137.7c.49-1.19,.4-1.61-.25-2.07-.54-.35-.8-.26-1.56,.5,.55,.77,1.28,1.4,1.94,2.09,.27,.28,.58,.55,.86,.86,.36,.44,.76,.55,1.3,.03-.3,.83-.91,1.48-1.84,2.08,.08-.79,.08-.81-.51-1.42-.68-.72-1.4-1.42-2.09-2.14-.37-.39-.72-.63-1.35-.2,.4-.73,2.17-2.6,2.64-2.85,.77-.44,1.62-.08,1.95,.82,.3,.86-.02,1.64-1.08,2.32Z"/><path class="cls-1" d="M30.38,75.31c.33,.2,.69,.41,1.14,.67-.66,1.25-1.24,2.44-1.84,3.61-.45-.35-.79-.68-1.17-.91-.76-.45-1.56-.83-2.36-1.23-.89-.47-.89-.45-1.8-.24,.65-1.27,1.28-2.47,1.91-3.74,.42,.21,.72,.35,1.04,.52-1.1,.08-1.19,.96-1.61,1.74,.56,.34,1.1,.65,1.67,.98,.46-.59,1-1.05,.54-1.95,.48,.23,.94,.47,1.4,.73-.82,.16-1.12,.72-1.35,1.5,.59,.33,1.2,.65,1.78,.95,1.05-1.1,1.14-1.55,.66-2.61Z"/><path class="cls-1" d="M32.39,136.65c.28,.07,.48,.12,.73,.2,.19-.35,.38-.68,.59-1.07-.24-.3-.45-.6-.7-.87q-.71-.86-1.75-.27v.73c-.59-.31-.82-.86-1.22-1.33,1.26,.16,2.32-.52,3.43-.84,.89-.25,1.76-.58,2.61-.84,.57,.28,.38,.63,.19,1.03-.63,1.26-1.26,2.54-1.86,3.79-.21,.42-.31,.9-.49,1.41-.56-.58-1.16-1.1-1.53-1.95Zm.49-2.7c.43,.51,.71,.85,1.1,1.29,.36-.68,.62-1.2,.87-1.72-.03-.07-.08-.12-.15-.2-.56,.2-1.09,.38-1.83,.62Z"/><path class="cls-1" d="M122.83,98.54c.62,.07,1.21,.17,1.83,.21,.77,.05,1.54,.02,2.33,.03,.58,.02,1.17,.06,1.56-.86v4.4c-.39,.04-.73,.06-1.09,.08,.86-.59,.64-1.38,.61-2.27-.63-.04-1.21-.08-1.88-.12-.2,.68-.41,1.3,.49,1.89h-1.75c.68-.43,.72-1.04,.58-1.8h-2.19c-.05,.88-.47,1.8,.66,2.39h-1.16v-3.95Z"/><path class="cls-1" d="M53,56.27c-.69,.39-1.37,.74-2.08,1.14-.03-.05-.07-.09-.09-.14,.07-.16,.15-.36,.29-.6-.27-.27-.57-.52-.92-.86-.63,.34-1.23,.66-1.89,1.01,.08,.41,.11,.78,.2,1.17,.26,.04,.48,.09,.97,.18-.71,.4-1.2,.67-1.89,1.05,.49-1.06,.26-1.97,.16-2.87-.1-.95-.23-1.89-.34-2.85-.02-.32,.12-.65,.17-.95,.3,.12,.63,.14,.84,.31,1.05,.8,2.04,1.62,3.07,2.42,.45,.33,.95,.62,1.51,.98Zm-4.99-2.18c.08,.86,.16,1.45,.25,2.18,.54-.3,.94-.52,1.47-.8-.58-.46-1.03-.83-1.71-1.38Z"/><path class="cls-1" d="M108.32,140.93q-.88-.13-1.86,.8c.43,.53,.87,1.1,1.3,1.65,1.48-.85,1.61-1.05,1.58-2.14,.23,.3,.48,.62,.79,1.03-1.09,.87-2.09,1.68-3.15,2.54-.72-1.61-1.87-2.75-2.9-4-.16-.2-.62-.19-1.03-.33,1.1-.86,2.15-1.72,3.25-2.62,.31,.34,.56,.62,.78,.91-1.07-.47-1.5,.38-2.21,.92,.4,.55,.8,1.06,1.16,1.58,.74-.35,1.2-.76,1.1-1.83,.5,.65,.84,1.07,1.17,1.49Z"/><path class="cls-1" d="M100.57,59.39c-.75-.41-1.4-.76-2.19-1.19,.3-.13,.51-.21,.77-.28,.06-.33,.12-.69,.21-1.14-.59-.34-1.22-.68-1.84-1.06-.3,.26-.59,.48-.91,.73,.08,.27,.16,.51,.3,.92-.63-.33-1.13-.59-1.75-.91,1.55-.48,2.41-1.65,3.55-2.48,.45-.31,.84-.71,1.29-1.05,.15-.11,.49-.25,.56-.17,.18,.13,.3,.41,.28,.65-.07,1.1-.21,2.2-.28,3.3-.04,.84,0,1.68,0,2.67Zm-2.65-4.05c.51,.28,.91,.51,1.46,.81,.09-.77,.14-1.35,.18-1.94-.06-.01-.13-.05-.19-.07-.46,.36-.89,.73-1.45,1.21Z"/><path class="cls-1" d="M71.77,149.76c.7,.03,.73,.45,.86,.78,.41,1.07,.8,2.16,1.24,3.21,.26,.65,.54,1.27,.84,1.91h-2.44c.33-.26,.47-.38,.71-.57-.13-.32-.24-.71-.38-1.16-.71-.03-1.34-.06-2.03-.1-.42,.57-.74,1.06,0,1.64h-1.66c.36-.59,.72-1.1,1-1.69,.66-1.32,1.24-2.66,1.86-4.03Zm.63,3.65c-.28-.72-.51-1.3-.79-2.07-.31,.76-.59,1.3-.9,1.98,.62,.01,1.06,.06,1.69,.1Z"/><path class="cls-1" d="M24.01,123.7c.17,.09,.34,.17,.59,.31,.28-.26,.59-.54,.9-.79-.32-.75-.62-1.34-.91-2.02-.42,.04-.81,.08-1.2,.12-.07,.28-.11,.48-.18,.77-.49-.45-.63-1-.85-1.57,2.18,.48,4.29-.19,6.35-.04,.35,.48,.06,.76-.18,1.05-.92,1.01-1.83,2.03-2.72,3.07-.32,.39-.58,.84-.92,1.31-.33-.68-.68-1.38-1.02-2.08,.05-.03,.1-.09,.15-.12Zm3.26-2.62c-.86,.03-1.47-.15-2.09,.23,.23,.45,.41,.84,.67,1.33,.45-.5,.83-.94,1.43-1.56Z"/><path class="cls-1" d="M119.75,83.57c-.27-.73-.44-1.23-.6-1.72,.78,.11,1.52,.26,2.25,.32,1.14,.07,2.3,.09,3.45,.14,.26,.03,.49,.2,.77,.3-.14,.24-.21,.56-.39,.72-1.02,.99-2.06,1.91-3.1,2.89-.31,.33-.6,.68-1,1.17-.27-.73-.53-1.42-.82-2.22,.44-.06,.8,.46,1.18-.03,.29-.36,.51-.6,.33-1.07-.21-.44-.36-.88-.51-1.3q-1.14-.19-1.56,.8Zm2.68,.71c.56-.52,.99-.91,1.61-1.47-.85-.06-1.45-.11-2.14-.16,.07,.31,.1,.5,.15,.64,.08,.3,.21,.56,.38,.99Z"/><path class="cls-1" d="M56.03,146.72c-.21,.4-.4,.73-.6,1.06-.03-.82-.36-1.33-1.1-1.59-.54-.18-1.03-.02-1.27,.37-.25,.44-.14,.85,.39,1.25,.26,.21,.54,.37,.83,.55,.52,.33,.92,.77,.82,1.44-.13,.75-.53,1.32-1.28,1.57-.77,.27-1.53,.11-2.22-.26-.43-.26-.77-.57-1.23-.88,.26-.49,.47-.87,.8-1.52,.05,1.47,.45,2.02,1.33,2.22,.56,.12,.98-.09,1.2-.57,.26-.47,.08-.83-.31-1.13-.3-.22-.61-.43-.91-.67-.71-.55-.89-1.18-.59-1.94,.29-.7,1-1.17,1.78-1.08,.87,.1,1.64,.43,2.36,1.16Z"/><path class="cls-1" d="M33.59,129.39c-.45,.24-.8,.42-1.27,.63,.54-1.06,.52-1.57,.03-2.1-.36-.36-.77-.51-1.24-.28-.46,.26-.56,.64-.35,1.15,.11,.27,.23,.54,.32,.82,.41,1.01,.35,1.53-.23,2.03-.68,.54-1.68,.61-2.39,.1-.89-.62-1.37-1.48-1.51-2.64,.4-.21,.8-.42,1.31-.72-.22,.59-.46,1-.48,1.42-.02,.35,.21,.74,.41,1,.39,.55,.89,.64,1.37,.36,.53-.33,.51-.79,.36-1.28-.12-.35-.28-.71-.39-1.06-.22-.79-.05-1.33,.55-1.74,.63-.45,1.35-.51,1.98-.07,.81,.54,1.25,1.33,1.52,2.37Z"/><path class="cls-1" d="M34.15,63.11c.28,.31,.56,.58,.97,1.04-.35-.08-.48-.11-.63-.14-.82-.23-1.78,.6-1.61,1.42,.1,.62,.71,.91,1.27,.58,.38-.21,.71-.53,1.09-.77,1.1-.77,2.35-.2,2.57,1.14,.12,.77-.1,1.47-.66,2.02-.45,.44-.94,.8-1.45,1.24-.44-.47-.73-.77-1.05-1.09,1.19,.21,1.72,.1,2.23-.58,.36-.5,.38-1.05,.05-1.43-.35-.43-.74-.45-1.38-.05-.26,.17-.49,.33-.73,.51-.84,.56-1.4,.56-2.02,.03-.67-.59-.83-1.43-.42-2.24,.37-.75,.94-1.32,1.76-1.68Z"/><path class="cls-1" d="M83.44,149.34v1.24c-.41-.58-.83-.97-1.61-.95-1.36,.02-2.22,.87-2.18,2.24,0,2.14,1.64,3.26,3.61,2.5,.23-.09,.48-.18,.82-.14-.16,.17-.26,.38-.45,.5-.92,.52-1.94,.69-3.01,.43-1.29-.29-2.12-1.34-2.24-2.69-.08-1.41,.54-2.5,1.84-3,1.02-.39,2.08-.58,3.23-.13Z"/><path class="cls-1" d="M102.64,141.15c.18,.41,.35,.78,.63,1.34-.49-.28-.77-.51-1.09-.56-.3-.05-.66,.07-.95,.2-1.23,.59-1.61,1.77-1,3,.94,1.84,2.82,2.16,4.27,.7,.19-.18,.36-.37,.57-.59,.07,.14,.17,.27,.13,.32-.59,1.32-1.7,1.94-3.05,2.12-1.24,.17-2.14-.44-2.79-1.47-.73-1.13-.62-2.46,.27-3.5,.71-.8,1.71-1.33,3-1.55Z"/><path class="cls-1" d="M122.26,78.91c.79-1.18,.76-1.92,.06-2.75-.62-.74-1.53-.92-2.55-.46-1.88,.81-2.31,2.61-.98,4.18,.18,.21,.36,.41,.68,.79-.36-.08-.56-.08-.68-.17-1.14-.72-1.9-2.63-1.56-3.94,.56-2.1,3.33-2.91,4.94-1.42,.86,.84,1.28,1.89,1.5,3.2-.4,.16-.83,.33-1.42,.58Z"/><path class="cls-1" d="M23.67,78.56c.44,.55,.74,1,1.16,1.39,.89,.89,1.84,1.73,2.75,2.6,.26,.24,.71,.41,.51,.89-.21,.45-.63,.29-.99,.3-1.3,.08-2.6,.1-3.9,.18-.51,.03-1.01,.21-1.65,.35,.28-.76,.56-1.55,.92-2.54,.15,.41,.21,.62,.31,.9h3.79c-.49-.86-1.71-2-2.8-2.69-.2,.14-.38,.25-.58,.38-.05-.03-.1-.06-.15-.1,.22-.55,.41-1.1,.62-1.66Z"/><path class="cls-1" d="M114.6,129.23c.35,.38,.66,.67,.93,.97-1.15-.23-1.81,.08-2.3,1.09-.44,.91-.24,1.75,.59,2.52,1.48,1.38,3.31,1.07,4.2-.76,.15-.25,.25-.49,.36-.77,.13,.11,.23,.16,.23,.2-.05,1.37-.88,2.27-1.94,2.95-.97,.6-1.99,.51-2.93-.07-1.45-.82-1.92-2.36-1.24-3.84,.45-.97,1.14-1.75,2.09-2.29Z"/><path class="cls-1" d="M96.42,50.98c-.2,.37-.4,.76-.68,1.25-.19-1.42-.71-1.96-1.81-2.1-1.01-.12-1.75,.4-2.25,1.47-.7,1.74,.02,3.19,1.81,3.61,.36,.1,.72,.13,1.09,.2-.21,.5-.65,.41-.99,.35-.64-.14-1.3-.33-1.87-.64-1.38-.74-1.89-2.13-1.36-3.62,.48-1.44,1.63-2.17,3.2-1.96,1.1,.16,2.07,.58,2.86,1.46Z"/><path class="cls-1" d="M101.67,60.32c.94-.09,.94-.07,1.42-.73,.74-.95,1.45-1.96,2.25-3.03-.4-.31-.78-.6-1.15-.87-.26,.16-.49,.28-.77,.45-.07-.58,.37-.81,.59-1.27,1.43,1.06,2.82,2.1,4.27,3.15-.28,.38-.51,.69-.74,.99-.04-.83-.35-1.38-1.27-1.66-.82,1.13-1.7,2.27-2.52,3.48-.13,.19,.02,.61,.06,1.09-.72-.55-1.38-1.05-2.13-1.61Z"/><path class="cls-1" d="M48.78,142.99c-.26,.41-.48,.73-.69,1.06-.06-.85-.45-1.36-1.36-1.6-.74,1.19-1.54,2.39-2.26,3.64-.12,.23,.07,.63,.12,1.1-.77-.49-1.45-.91-2.22-1.43q.92-.17,1.4-.92c.64-1.01,1.28-2.02,1.96-3.1-.36-.26-.68-.48-1.05-.74-.29,.15-.6,.29-.85,.39-.05-.02-.1-.04-.13-.11,.18-.35,.38-.71,.63-1.12,1.52,.97,2.95,1.88,4.45,2.82Z"/><path class="cls-1" d="M25.93,112.89c.24,.86,.47,1.64,.71,2.4-.63-.44-1.15-.28-1.71-.11-1.12,.36-2.26,.71-3.38,1.03,.13,1.56,.33,1.86,1.47,2.31-.41,.07-.82,.17-1.33,.26-.57-1.24-.74-2.55-1.19-3.84,1.72,.03,3.21-.69,4.74-1.15,.24-.08,.39-.51,.69-.91Z"/><path class="cls-1" d="M111.15,68.89c.52-.3,.91-.48,1.27-.72,.78-.6,1.57-1.27,2.36-1.86,.49-.34,.71-.7,.4-1.33,.11-.02,.17-.04,.26-.06,.53,.63,1.02,1.28,1.54,1.9-.73-.21-1.14,.21-1.61,.58-.91,.73-1.85,1.47-2.75,2.2,.68,1.44,.99,1.66,2.17,1.62-.33,.23-.67,.45-1.12,.79-.85-1.06-1.66-2.08-2.5-3.12Z"/><path class="cls-1" d="M57.89,153.28c-.74-.24-1.5-.5-2.24-.75,.72-.33,.89-.94,1.1-1.57,.23-.74,.46-1.5,.74-2.24,.18-.53,.4-1.08-.05-1.71,.74,.24,1.48,.5,2.55,.84-1.15,.18-1.24,.96-1.48,1.61-.23,.72-.45,1.42-.69,2.13-.18,.52-.44,1.08,.07,1.69Z"/><path class="cls-1" d="M49.34,143.26c.91,.52,1.57,.89,2.29,1.28-.66,.14-.97,.47-1.22,.96-.42,.86-.91,1.7-1.38,2.54-.27,.49-.51,.98,.05,1.52-.08,.02-.14,.05-.21,.09-.72-.38-1.43-.78-2.16-1.17,.82-.12,1.06-.67,1.36-1.23,.43-.77,.85-1.56,1.27-2.36,.36-.65,.32-.65,0-1.64Z"/><path class="cls-1" d="M35.54,61.4c.59-.54,1.19-1.08,1.75-1.61-.08,.64,.15,1.06,.56,1.47,.69,.7,1.37,1.46,2.03,2.22,.36,.43,.73,.68,1.38,.55-.59,.59-1.19,1.1-1.77,1.67,.12-.85-.41-1.29-.82-1.75-.59-.62-1.17-1.26-1.75-1.89-.33-.36-.65-.87-1.38-.27,0-.11,0-.25,0-.39Z"/><path class="cls-1" d="M114.34,72.78c.64,.46,1.14,.17,1.65-.16,.73-.51,1.48-.98,2.22-1.49q.69-.47,.78-1.43c.32,.46,.58,.78,.8,1.13,.23,.35,.43,.68,.63,1.12-.59-.36-1.04-.11-1.5,.18-.8,.56-1.61,1.09-2.4,1.61-.69,.48-.69,.49-.81,1.45-.54-.8-1-1.5-1.44-2.2,.04-.04,.04-.13,.07-.2Z"/><path class="cls-1" d="M20.51,88.31c.26-.99,.43-1.76,.62-2.53,.28,.72,.9,.78,1.43,.94,.86,.21,1.74,.42,2.59,.67,.54,.17,1.05,.3,1.62-.2-.22,.79-.42,1.58-.63,2.37-.07,.02-.15,.06-.21,.09-.05-.84-.63-.96-1.21-1.12-.88-.22-1.8-.46-2.68-.7-.68-.15-.68-.11-1.53,.48Z"/><path class="cls-1" d="M121.12,129.31c-.43,.66-.86,1.37-1.3,2.03-.07-.71-.53-1.05-1-1.35-.83-.52-1.66-1.03-2.45-1.56-.46-.3-.85-.46-1.38-.03,.31-.84,.76-1.55,1.4-2.23-.11,.67,.21,.98,.69,1.26,.84,.51,1.7,1.05,2.52,1.64,.45,.29,.89,.49,1.39,.02,.03,.08,.09,.14,.12,.22Z"/><path class="cls-1" d="M105.78,106.51c-.39-5.63-.75-11.11-1.15-16.58,.84-.26,.87-.26,.94,.52,.15,1.99,.3,4,.45,5.97,.02,.12,.04,.24,.19,.34-.11-2-.24-3.95-.37-6.12,3.11,.42,6.1,.82,9.22,1.26,.02,1.68,.62,3.3,.17,4.98-.04,.16-.04,.37,.03,.5,.63,1.63,.27,3.32,.66,5.04-3.1,.86-6.05,1.66-9.17,2.53-.04-.82-.09-1.49-.12-2.19h-.06v2.64c2.58-.74,5.07-1.43,7.6-2.12,.09,.26,.16,.45,.27,.83-2.86,.78-5.69,1.57-8.66,2.39Zm1.88-2.7c2.45-.68,4.79-1.3,7.19-1.95-.07-.95-.09-1.79-.16-2.65-.03-.44-.12-.87-.16-1.28-1.02-.26-6.37,.08-7.3,.45,.15,1.78,.28,3.52,.44,5.43Zm-.47-6.52c.62-.04,1.2-.07,1.79-.11,1.56-.12,3.11-.23,4.67-.36,.73-.08,.87-.26,.83-.9-.04-1.06-.18-2.11-.27-3.25-2.5-.3-4.91-.6-7.42-.91,.13,1.95,.25,3.7,.4,5.54Zm-.87,4.32h.11v-1.94h-.11v1.94Z"/><path class="cls-1" d="M109.62,79.81c.68,.68,1.62,1.18,1.33,2.23-.27,1.08-1.33,1.01-2.23,1.35,0,.42,.03,.86,0,1.3-.07,.94-.58,1.3-1.48,1.1-.26-.04-.5-.14-.74-.25-.25-.11-.45-.24-.72-.38-.34,.36-.63,.73-.98,1.05-.82,.77-1.63,.63-2.13-.42-.21-.42-.3-.91-.48-1.38-.53,0-1.05,.05-1.56,0-.79-.09-1.21-.63-.99-1.4,.12-.58,.47-1.1,.76-1.74-.26-.23-.63-.49-.91-.82-.73-.83-.56-1.6,.41-2.07,.35-.21,.76-.29,1.22-.46,0-.41-.03-.85,0-1.29,.05-1.28,.85-1.8,2.04-1.29,.36,.16,.71,.4,1.1,.61,.62-.54,1.12-1.43,2.1-1.17,.96,.25,1.01,1.18,1.34,2.04,.33,0,.74-.02,1.12,0,1.28,.08,1.78,.86,1.28,2.07-.13,.3-.31,.59-.5,.94Zm-4.51,2.67c.94,0,1.79-.98,1.79-2.03,0-.85-1.04-1.77-1.95-1.81-.93,0-1.95,1.09-1.94,2.08,.04,.92,1.05,1.79,2.1,1.76Zm-.88,1.17c-.48,.23-.96,.42-1.52,.64,.17,.56,.26,1.04,.49,1.46,.26,.56,.67,.64,1.16,.23,.37-.31,.68-.76,1.05-1.16-.44-.4-.77-.74-1.17-1.16Zm-2.42-5.76h1.52c.23-.47,.43-.93,.69-1.45-.38-.24-.64-.5-.99-.63-.76-.38-1.32-.08-1.38,.79-.03,.39,.09,.84,.16,1.29Zm-.87,3.67c-.48,.69-1.24,1.27-.71,2.05,.46,.66,1.25,.4,2.01,.14v-1.59c-.42-.18-.81-.38-1.3-.6Zm7.63,1.27c.8-.17,1.67-.07,1.89-.92,.17-.75-.54-1.14-1.1-1.48-.05-.06-.15-.02-.24-.02-.32,.3-.65,.67-1.05,1.07,.12,.39,.3,.81,.5,1.35Zm-.85-5.29v1.38c.45,.22,.87,.4,1.28,.58,.77-.8,.97-1.34,.72-1.75-.3-.46-.97-.54-2.01-.21Zm-1.69,7.1c.59,.49,1.18,1.01,1.83,.63,.65-.36,.44-1.09,.31-1.7-.02-.06-.09-.11-.17-.23h-1.4c-.19,.42-.38,.8-.57,1.29Zm-4.69-6.19c-1.27,.23-1.8,.5-1.77,.92,.06,.76,.61,1.14,1.29,1.47,.33-.31,.66-.62,1.04-.96-.2-.52-.38-.94-.56-1.43Zm3.39-2.05c.39,.42,.71,.77,1.02,1.1,.53-.2,.96-.38,1.4-.55-.18-.72-.15-1.48-.87-1.66-.76-.21-1.14,.48-1.55,1.1Zm-.71,6.78c-.46-.35-.74-.57-1.18-.9-.06,.54-.06,.88-.11,1.34,.45-.15,.78-.25,1.29-.44Zm-2.08-4.81c.16,.45,.25,.76,.45,1.24,.3-.43,.49-.71,.79-1.12-.46-.05-.74-.06-1.24-.11Zm2.98,4.89c0,.09-.02,.2-.03,.28,.23,.21,.45,.39,.74,.68,.16-.4,.27-.67,.45-1.14-.51,.1-.83,.13-1.16,.18Zm3.8-3.28c-.49-.2-.77-.33-1.28-.56,.11,.61,.16,.92,.27,1.42,.38-.33,.61-.49,1-.86Zm-4.14-3.05c-.09,.04-.19,.07-.29,.12-.1,.28-.2,.56-.3,.86,.49,.25,.81,.12,1.14-.26-.21-.27-.38-.5-.55-.72Zm3.05,4.76c-.53,.3-.83,.53-.65,1.08h.97c-.11-.36-.2-.67-.32-1.08Zm-.56-2.92c.03-.48,.05-.74,.09-1.15-.4,.12-.69,.22-1.2,.4,.45,.31,.71,.47,1.11,.74Zm-5.81,2.46c.52,.09,.78,.53,1.21,.07-.05-.25-.16-.52-.31-.88-.31,.27-.52,.47-.9,.82Z"/><path class="cls-1" d="M36.52,81.55c.5,.21,.83,.33,1.19,.44,1.52,.46,3.05,.92,4.58,1.39,.76,.25,.86,.44,.87,1.22,.03,.95-.4,1.64-1.2,2.12-.75,.49-1.24,.42-1.84-.24-1.24-1.34-2.46-2.71-3.73-4.1-.3,.05-.61,.13-.99,.24,.07-.69-.1-1.22,.67-1.67,.54-.3,.83-1.1,1.13-1.74,.08-.17-.16-.52-.31-.75-.15-.19-.45-.27-.62-.45-.13-.12-.21-.5-.15-.57,.16-.15,.44-.22,.65-.28,.06,0,.15,.07,.21,.08,1.17,.53,1.17,.56,1.84-.58,.23-.4,.45-.84,.54-1.3,.16-.65,.7-.68,1.23-1.09-.05,.91,.41,1.17,1.09,1.35,1.47,.4,2.92,.87,4.37,1.34,.97,.3,1.17,.61,1.09,1.6-.07,.99-.94,1.91-1.89,2.1-.51,.11-.76-.17-1.05-.49-1.05-1.15-2.12-2.26-3.2-3.4-.26-.29-.46-.59-.79-1.05-.54,.82-.94,1.39-1.27,1.97-.26,.44-.02,.77,.36,1.02,.66,.43,1.33,.83,1.99,1.25,1.41,.87,2.82,1.76,4.25,2.66,.31,.2,.86,.4,.57,.91-.32,.57-.78,.17-1.14-.06-1.9-1.18-3.78-2.36-5.67-3.54-.23-.15-.45-.27-.67-.42-.42-.24-.78-.16-1.05,.27-.3,.54-.63,1.07-1.06,1.77Zm1.99,1.2c-.02,.06-.05,.12-.07,.2,1.07,.68,2.12,1.34,3.26,2.04,.23-.45,.39-.75,.59-1.14-1.33-.4-2.54-.74-3.79-1.1Zm7.8-5.23c-1.33-.4-2.57-.77-3.81-1.16-.02,.07-.07,.15-.1,.21,1.09,.66,2.12,1.34,3.24,2.04,.24-.39,.44-.69,.68-1.1Zm-.95,1.59c-1.5-1.17-2.57-1.79-3.29-1.9,.87,.97,1.73,1.87,2.64,2.87,.26-.39,.44-.65,.66-.96Zm-7.31,4.41c.98,1.08,1.83,1.98,2.72,2.96,.26-.46,.43-.76,.63-1.14-.98-.61-1.89-1.17-2.81-1.73-.08-.05-.18-.03-.54-.1Zm7.43-3.69c.07,.05,.14,.11,.2,.19,.65-.36,.97-.91,.97-1.76-.13,.09-.25,.12-.31,.19-.3,.46-.57,.91-.86,1.38Zm-4.13,6.59c1.15-.58,1.33-.86,1.17-1.86-.37,.62-.71,1.14-1.17,1.86Z"/><path class="cls-1" d="M38.09,95.08c.21-.45,.48-.85,.92-.58,.68,.41,1.33,.22,1.99,.08,.17-.03,.35,.02,.55,.02-.3,.47-.52,.88-.74,1.19,.29,.59,1,.04,1.05,.64,.03,.34-.05,.65-.15,.96-.05,.43,.76,.39,.51,.93-.13,.29-.41,.52-.65,.77,.39,1.08,.3,1.22-1.1,1.39,.14,.48,.27,.92,.47,1.45-.26-.02-.49-.02-.69-.08-.56-.17-1.07-.43-1.7-.16-.49,.22-.79-.2-.87-.77-.63,.39-1.14,.49-1.5-.24-.12-.2-.48-.31-.74-.4-1.47-.52-2.97-.97-4.44-1.47-.9-.3-1.21-.98-.86-1.74,.21-.48,.59-.69,1.12-.76,1.59-.24,3.15-.49,4.69-.76,.25-.08,.49-.2,.68-.36,.61-.58,.59-.58,1.47-.11Zm1.81,3.02c0-.72-.63-1.37-1.33-1.35-.68,.02-1.25,.6-1.25,1.28-.02,.75,.6,1.37,1.32,1.35,.68-.02,1.27-.6,1.27-1.28Zm-2.75,2.26c.05-.09,.08-.18,.11-.25-1.51-.82-3.01-1.65-4.56-2.49-.18,.39-.33,.72-.51,1.08,1.71,.59,3.34,1.11,4.96,1.66Zm.8-4.53c-1.89,.18-3.75,.39-5.63,.94,1.09,.77,1.1,.81,1.65,.61,1.32-.49,2.65-1.04,3.98-1.55Zm-6.73,2.68c.49,.02,.96-.44,.96-.89s-.4-.86-.85-.89c-.45-.02-.85,.31-.91,.77-.05,.51,.34,.98,.81,1.01Zm3.75-.28c-.13-.31-.19-.48-.26-.63-.15,.07-.28,.14-.56,.27,.33,.14,.49,.21,.82,.36Z"/><path class="cls-1" d="M79.45,142.75c-.91-2.78-2.89-4.54-5.64-4.56-2.87-.02-4.87,1.79-5.79,4.54-1.24-.1-1.4-.38-.92-1.3,.73-1.38,1.73-2.51,3.11-3.24,.2-.1,.4-.22,.59-.34,.02,0,.02-.04,.12-.18-.81-.17-1.6-.34-2.37-.48-.36-.09-.72-.12-1.07-.27-.12-.03-.3-.3-.27-.38,.07-.18,.27-.34,.44-.38,.16-.06,.36,.07,.52,.1,1.71,.25,3.4,.63,5.1,.72,1.28,.07,2.58-.2,3.86-.34,.8-.1,1.61-.28,2.41-.44,.43-.1,.72-.08,.79,.55-1.15,.61-2.53,.49-3.89,.98,.41,.2,.68,.38,.98,.55,1.32,.75,2.3,1.86,2.98,3.23,.44,.83,.26,1.05-.95,1.24Z"/><path class="cls-1" d="M85.85,128.04c1.09,3.44-1.61,7.58-5.12,7.94-1.21-3.35,1.5-7.6,5.12-7.94Z"/><path class="cls-1" d="M61.64,128.08c3.44,.13,6.32,4.55,5.11,7.86-3.56-.3-6.29-4.5-5.11-7.86Z"/><path class="cls-1" d="M91.03,125.29c1.73,3.06-.07,7.62-3.51,8.69-1.56-2.1-.66-7.31,3.51-8.69Z"/><path class="cls-1" d="M56.39,125.3c3.59,1.03,5.33,5.85,3.59,8.67-3.54-1.14-5.21-5.63-3.59-8.67Z"/><path class="cls-1" d="M92.17,65.9c-.02-.08-.11-.26-.13-.44-.13-.83,.09-1.28,.91-1.52,.43-.14,.71-.31,.92-.69,.36-.55,.79-.69,1.19-.45,.44,.24,.49,.63,.22,1.24-.05,.15-.11,.28-.18,.46,.94,.57,1.12,1.39,.76,2.48-.45-.53-.86-1.02-1.4-1.67-.13,.5-.31,.85-.26,1.21,.13,1.33,.06,1.5-1.25,1.89-.05,.02-.09,.09-.16,.14,.26,1.53,.16,1.68-1.32,2.36,.05,.21,.12,.47,.15,.71,.07,.67-.15,1.14-.77,1.32-.42,.14-.81,.25-1.1,.65-.26,.35-.68,.28-1,.06-.36-.26-.45-.58-.27-.98,.13-.3,.31-.6,.49-.89,.35-.56,.73-1.06,.43-1.83-.21-.49,.1-.97,.57-1.2,.27-.12,.57-.2,.83-.3,0-.57-.17-1.19,.03-1.63,.19-.38,.79-.54,1.37-.92Zm1.42,.05c.33-.57,.6-1,.84-1.42,.47-.82,.47-.83,.22-1.38-.64,.66-1.02,1.47-1.35,2.26-.03,.06,.1,.2,.29,.54Zm-4.67,7.28c.75-.27,1.19-.94,1.33-1.91-.61,.07-.97,.59-1.33,1.91Zm3.41-5.14c.09-.53,.94-.85,.48-1.6-.91,.85-.96,1.03-.48,1.6Zm-.91,.66q-.87,1.12-.47,1.66c.29-.46,.86-.83,.47-1.66Z"/><path class="cls-1" d="M59.8,134.48c-.76,3.1-5.34,5.11-8.17,3.35,.73-3.11,5.27-5.09,8.17-3.35Z"/><path class="cls-1" d="M93.85,130.66c-2.21-2.48-1.24-7.24,1.81-8.71,2.37,2.89,.87,7.51-1.81,8.71Z"/><path class="cls-1" d="M87.66,134.48c2.46-1.6,7.17-.2,8.23,3.33-2.89,1.78-7.44-.2-8.23-3.33Z"/><path class="cls-1" d="M59.16,141.4c.54-3.51,4.46-6,7.46-4.78-.18,2.93-3.88,5.95-7.46,4.78Z"/><path class="cls-1" d="M80.87,136.63c2.98-1.19,6.62,1.11,7.46,4.69-3.33,1.52-7.43-1.81-7.46-4.69Z"/><path class="cls-1" d="M56.52,65.5c.46,1.21-.31,2.02-.87,2.91,1.42,.76,1.52,1.03,.82,2.57,1.04,1.09,2.17,.37,3.28,.16-1.83,1.28-3.77,2.35-5.78,3.39,.64-.91,1.92-1.45,1.58-2.86-.54-.17-1.19-.2-1.52-.54-.34-.32-.35-.97-.52-1.57-.91,.16-1.93,.22-2.79-.57,.52-.61,4.19-2.81,5.81-3.48Z"/><path class="cls-1" d="M53.66,130.68c-3.42-1.77-3.75-6.57-1.94-8.71,2.71,.95,4.22,5.73,1.94,8.71Z"/><path class="cls-1" d="M45.04,132.9c1.43-2.66,5.49-3.87,8.26-1.8-1.12,2.87-5.63,3.9-8.26,1.8Z"/><path class="cls-1" d="M102.44,132.92c-3.03,2.36-7.28,.63-8.3-1.72,1.94-1.91,6.49-1.49,8.3,1.72Z"/><path class="cls-1" d="M48.02,118.06c2.55,1.87,2.77,6.43,.33,8.46-2.6-1.84-2.78-6-.33-8.46Z"/><path class="cls-1" d="M99.12,126.55c-2.47-2.5-2.26-6.56,.35-8.47,2.64,2.4,1.98,6.92-.35,8.47Z"/><path class="cls-1" d="M47.92,126.99c-2.3,2.47-6.37,1.98-8.02-.24,1.42-2.19,6.13-2.39,8.02,.24Z"/><path class="cls-1" d="M107.61,126.66c-1.67,2.43-6.09,2.73-8.02,.31,1.47-2.27,5.82-2.7,8.02-.31Z"/><path class="cls-1" d="M44.16,121.96c-1.93-1.74-1.77-6.12,.83-7.55,1.85,1.56,1.87,5.89-.83,7.55Z"/><path class="cls-1" d="M103.27,121.97c-2.65-1.86-2.67-5.92-.81-7.57,2.27,1.14,3.03,5.42,.81,7.57Z"/><path class="cls-1" d="M103.75,122.32c1.33-2.46,5.5-2.87,7.35-.98-.77,2.03-5,3.29-7.35,.98Z"/><path class="cls-1" d="M43.72,122.3c-1.76,1.91-5.77,1.66-7.39-.82,1.26-1.78,5.75-1.98,7.39,.82Z"/><path class="cls-1" d="M50.19,68.27c-.29-1.75,.6-2.72,1.59-3.57,0-.73-.56-.35-.86-.44,.11-.41,.21-.81,.3-1.19,.36,.07,.72,.18,1.2,.31-.1,.12-.21,.23-.28,.38-.15,.39,0,.63,.4,.56,.45-.06,.85-.26,1.29-.3,.82-.09,1.6,.02,2.36,.8-2,1.14-3.9,2.25-6.01,3.46Z"/><path class="cls-1" d="M68.26,113.53c3.11,1.85,6,3.56,8.85,5.26-.02,.07-.07,.15-.09,.21h-9.07c.09-1.77,.19-3.47,.3-5.47Z"/><path class="cls-1" d="M78.77,118.65c-3.03-1.81-5.9-3.48-8.84-5.21,.86-.29,6.75-.34,8.49-.11,.05,.81,.11,1.65,.18,2.47,.05,.85,.1,1.73,.17,2.85Z"/><path class="cls-1" d="M66.98,120.15c-.13,1.88-.26,3.72-.41,5.83-2.46-2.01-4.74-3.86-7.06-5.76,.86-.26,6-.31,7.47-.07Z"/><path class="cls-1" d="M78.36,112.28h-8.33c-.03-.07-.04-.12-.07-.16,2.66-1.62,5.32-3.26,8.15-4.96,.08,1.83,.18,3.43,.26,5.11Z"/><path class="cls-1" d="M79.88,120.09h7.28c.02,.06,.07,.12,.1,.16-2.26,1.85-4.51,3.67-6.97,5.68-.15-2.08-.29-3.93-.41-5.85Z"/><path class="cls-1" d="M68.35,111.67c.15-1.62,.29-3.21,.44-4.82h7.53c-.45,.59-6.65,4.34-7.97,4.82Z"/><path class="cls-1" d="M66.86,118.98h-7.04c-.02-.07-.07-.13-.07-.2,2.44-1.63,4.87-3.25,7.51-5.01,.05,1.86-.2,3.56-.4,5.21Z"/><path class="cls-1" d="M86.83,119h-7.08c-.13-1.71-.26-3.33-.38-5.25,2.65,1.79,5.11,3.42,7.54,5.03-.02,.08-.05,.15-.08,.21Z"/><path class="cls-1" d="M69.03,101.19c2.59,1.53,5,2.97,7.49,4.41-.83,.27-6.1,.33-7.73,.12,.08-1.4,.15-2.85,.24-4.53Z"/><path class="cls-1" d="M70.8,101.01h6.82c.1,1.43,.19,2.77,.3,4.15-.8-.16-5.95-3.16-7.12-4.15Z"/><path class="cls-1" d="M70.77,99.56c2.09-1.33,4.17-2.64,6.35-4.02,.34,1.42,.35,2.77,.4,4.18h-6.66c-.02-.05-.06-.12-.09-.17Z"/><path class="cls-1" d="M69.24,99.34c0-.42-.02-.75,0-1.08,.07-.99,.16-1.98,.25-3.06h6.21c-.49,.6-4.6,3.25-6.46,4.14Z"/><path class="cls-1" d="M69.48,94.06c.08-1.24,.18-2.4,.26-3.58,.82,.21,4.28,2.27,5.93,3.48-.63,.29-4.53,.37-6.19,.1Z"/><path class="cls-1" d="M79.29,125.99c-1.71-1.01-3.24-1.88-4.93-2.89,1.53-.96,2.98-1.77,4.61-2.69,.1,1.94,.2,3.63,.32,5.58Z"/><path class="cls-1" d="M72.4,123.07c-1.71,.98-3.2,1.86-4.91,2.87,.12-1.95,.21-3.69,.33-5.6,1.59,.95,2.98,1.78,4.58,2.73Z"/><path class="cls-1" d="M77.18,93.78c-2.13-1.31-4.07-2.49-5.97-3.67,.02-.06,.05-.11,.09-.17h5.6c.08,1.21,.16,2.4,.28,3.85Z"/><path class="cls-1" d="M77.27,120.24c-.76,.44-1.56,.83-2.22,1.35-1.19,.95-2.25,.95-3.43-.02-.63-.53-1.4-.89-2.06-1.48h7.64s.04,.11,.07,.15Z"/><path class="cls-1" d="M76.86,88.88h-5.37c.38-.61,3.51-2.77,5.11-3.53,.08,1.15,.16,2.29,.26,3.53Z"/><path class="cls-1" d="M70.13,84.92h4.88c.02,.07,.07,.13,.08,.18-1.67,1.07-3.33,2.16-5.11,3.31-.18-1.23,.03-2.3,.14-3.49Z"/><path class="cls-1" d="M74.97,83.74h-4.8c.07-1.02,.17-1.96,.26-3,.94,.28,1.61,.92,2.37,1.38,.76,.46,1.5,.97,2.21,1.45,0,.06-.02,.11-.03,.16Z"/><path class="cls-1" d="M71.96,80.24h4.29c.11,1.01,.18,1.97,.3,3.1-1-.32-1.65-.96-2.42-1.43-.77-.45-1.51-.95-2.25-1.45,.02-.07,.04-.14,.07-.21Z"/><path class="cls-1" d="M64.06,88.88c.2-1.19,.38-2.21,.55-3.22,.65,.25,2.55,2.01,3.4,3.22h-3.95Z"/><path class="cls-1" d="M77.81,85.59c1.28,1.02,2.55,2.05,3.81,3.07-.02,.07-.05,.12-.07,.17h-3.75c-.06-1.05-.14-2.08-.21-3.15,.07-.02,.15-.06,.21-.09Z"/><path class="cls-1" d="M76.07,76.2c.07,1.18,.11,2.06,.15,3.01h-4.24s-.07-.13-.11-.21c1.36-.87,2.68-1.77,4.2-2.8Z"/><path class="cls-1" d="M87.78,85.38c.18,1.28,.31,2.34,.49,3.45h-3.94c1.18-1.19,2.21-2.25,3.44-3.45Z"/><path class="cls-1" d="M86.62,84.92c-1.05,1.05-2.08,2.09-3.15,3.19-.16-1.02-.31-2.07-.46-3.19h3.62Z"/><path class="cls-1" d="M59.56,88.65c1.31-1.01,2.61-2.03,3.91-3.03,.06,.04,.15,.07,.2,.11-.16,1.04-.34,2.05-.52,3.11h-3.47c-.03-.06-.07-.12-.12-.18Z"/><path class="cls-1" d="M70.86,75.86h3.75c.02,.05,.03,.12,.07,.2-1.27,.84-2.6,1.7-4.09,2.67-.06-1.08,.05-1.95,.27-2.87Z"/><path class="cls-1" d="M82.08,84.88c.18,1.1,.32,2.12,.49,3.25-.9-.35-1.43-1.01-2.08-1.51-.65-.48-1.27-1-2.11-1.69,1.38-.11,2.54-.07,3.71-.04Z"/><path class="cls-1" d="M59.3,84.9h3.29c-.33,.63-2.62,2.49-3.89,3.09,.2-1.04,.38-2,.59-3.09Z"/><path class="cls-1" d="M65.7,84.92h3.47c-.07,1.05-.12,2.08-.2,3.11-.73-.35-2.44-1.97-3.27-3.11Z"/><path class="cls-1" d="M65.41,89.86h3.33v2.55c-1.32-.81-2.36-1.57-3.44-2.32,.06-.08,.07-.14,.11-.23Z"/><path class="cls-1" d="M78.02,89.88h3.29c-.4,.64-2.17,1.91-3.29,2.33v-2.33Z"/><path class="cls-1" d="M63.19,89.81c.26,.79,.48,1.51,.79,2.52-1.48-.82-2.7-1.55-4.08-2.32,.62-.31,1.12-.16,1.59-.18,.51-.03,1.04-.02,1.7-.02Z"/><path class="cls-1" d="M86.68,90.08c-1.24,.71-2.45,1.4-3.92,2.24,.28-.97,.49-1.73,.74-2.47h3.09c.02,.09,.05,.16,.09,.23Z"/><path class="cls-1" d="M65.09,92.81c-.2-.73-.38-1.36-.58-1.98,.05-.05,.11-.07,.16-.1,.88,.59,1.75,1.22,2.74,1.89-.82,.36-1.52,.18-2.32,.18Z"/><path class="cls-1" d="M81.59,92.84h-2.11c.48-.67,1.52-1.46,2.71-2.08-.02,.17,0,.32-.04,.45-.18,.53-.38,1.05-.56,1.62Z"/><path class="cls-1" d="M59.86,90.97c.95,.58,1.9,1.12,2.86,1.66-.02,.08-.03,.12-.05,.18h-1.86c-.36-.53-.75-1.1-1.12-1.66,.07-.06,.11-.11,.17-.18Z"/><path class="cls-1" d="M86.89,90.97c-.91,2.01-.96,2.06-2.89,1.72,1.05-.63,1.98-1.18,2.89-1.72Z"/><path class="cls-1" d="M104.96,81.97c-.79-.02-1.38-.6-1.4-1.4,0-.79,.6-1.42,1.38-1.43,.78-.03,1.51,.67,1.47,1.47-.02,.77-.67,1.37-1.44,1.37Z"/><path class="cls-1" d="M32.14,97.72c-.42,.22-.69,.48-.94,.45-.18,0-.48-.38-.48-.59-.02-.38,.31-.64,.68-.54,.21,.07,.39,.35,.74,.67Z"/></g></svg>