<?xml version="1.0" encoding="UTF-8"?><svg id="Capa_1" xmlns="http://www.w3.org/2000/svg" viewBox="0 0 373.36 192.73"><defs><style>.cls-1,.cls-2{fill:#707070;}.cls-2{fill-rule:evenodd;}</style></defs><path class="cls-1" d="M13.1,29.67V110.3c0,29.15,23.55,52.76,52.62,52.76h2.47c29.06,0,52.63-23.6,52.63-52.76V29.67H13.1ZM112.24,118.79c.9-1.63,1.11-4.69,.62-9.23,.81-.1,1.59-.58,2.29-1.4,.4,4.51-.56,8.05-2.91,10.62Zm-19.12,13.22c2.98-.72,7.51-.4,13.5,.96-3.63,3.34-8.11,5.51-13.47,6.52,.76-2.73,.76-5.24-.03-7.49Zm13.28-17.75c1.5-.49,3.37-1.74,5.63-3.74,.84,5.3-.58,9.45-4.27,12.45-.13-3.83-.59-6.73-1.36-8.71Zm2.6-15.74c1.23,1.27,2.02,4.28,2.35,9.03-4.35,2.19-7.87,6.03-10.62,11.53-1.19-4.69-.72-8.79,1.42-12.34,.98,2.33,2.07,3.88,3.28,4.63-.49-4.76,.71-9.05,3.58-12.85Zm-1.61,26.5c1.59-1.07,3.38-2.95,5.4-5.61,.64,4.83-1.24,8.87-5.63,12.1,.6-2.41,.68-4.57,.22-6.49Zm-2.03-83.28l1.75-5.43,1.77,5.43h5.7l-4.61,3.35,1.76,5.44-4.62-3.39-4.59,3.39,1.76-5.44-4.63-3.35h5.71Zm0,24.81l1.75-5.43,1.77,5.43h5.7l-4.61,3.36,1.76,5.43-4.62-3.35-4.59,3.35,1.76-5.43-4.63-3.36h5.71Zm-.93,50.5c2.04,3.53,2.32,7.54,.85,12.03-2.25,.86-4.14,1.15-5.69,.88-.09-2.73,1.55-7.06,4.84-12.91Zm-5.92,12.39c-1.72,.62-3.08,.85-4.04,.65,.48-3.04,1.42-5.66,2.81-7.88,1.16,.89,1.59,3.29,1.24,7.23Zm-13.24-87.7l1.76-5.43,1.78,5.43h5.69l-4.62,3.35,1.76,5.44-4.61-3.39-4.61,3.39,1.76-5.44-4.6-3.35h5.68Zm-20.06,0l1.76-5.43,1.75,5.43h5.69l-4.6,3.35,1.75,5.44-4.6-3.39-4.62,3.39,1.76-5.44-4.6-3.35h5.7Zm-20.09,0l1.75-5.43,1.78,5.43h5.7l-4.61,3.35,1.74,5.44-4.6-3.39-4.61,3.39,1.76-5.44-4.6-3.35h5.7Zm-5.87,14.2h55.38l-.02,52.2c0,15.33-12.39,27.76-27.67,27.76s-27.69-12.43-27.69-27.76V55.93Zm50.77,86.49c-1.2-.97-3.23-1.45-6.05-1.5,1.55-3.99,3.95-7.45,7.23-10.37,2.52,4.63,2.12,8.59-1.19,11.87Zm-39.35-2.31c-2.93-.56-5.14-.41-6.59,.49-1.53-2.17-2.14-4.55-1.87-7.14,3.37,.47,6.19,2.68,8.46,6.65Zm-7.3-9.55c-1.77,.24-3.02,.63-3.78,1.14-1.77-2.4-2.82-5.1-3.15-8.14,3.03,.59,5.34,2.9,6.94,6.99Zm-15.48-8.07c-.72,2.09-.79,4.62-.23,7.56-4.18-3.4-6.77-6.89-7.77-10.45,3.43,.59,6.1,1.56,8,2.89Zm-4.02-11.47c1.62,.2,3.71,1.19,6.28,2.98-.07-3.57,.86-6.46,2.75-8.7,1.06,1.86,1.3,5.39,.72,10.55-1.17-.47-2.28-.71-3.33-.71-.8,.39-1.67,2.21-2.64,5.43-2.17-3.02-3.42-6.2-3.77-9.54Zm15.45,21.31c-.27,2.07,.21,4.4,1.47,6.99-5.76-1.17-10.41-3.78-13.95-7.81,2.47-.49,6.62-.22,12.49,.82Zm-7.75-2.98c-1.44-4.84-1.72-9.09-.83-12.72,2.39,3.3,4.05,7.64,4.92,13.03-1.71-.33-3.08-.43-4.09-.31Zm-6.53-87.61l1.78-5.43,1.75,5.43h5.68l-4.6,3.35,1.77,5.44-4.6-3.39-4.62,3.39,1.75-5.44-4.6-3.35h5.69Zm0,24.81l1.78-5.43,1.75,5.43h5.68l-4.6,3.36,1.77,5.43-4.6-3.35-4.62,3.35,1.75-5.43-4.6-3.36h5.69Zm-5.72,37.14c1.57,.41,3.15,1.59,4.78,3.56,.12-4.18,.63-6.82,1.56-7.91,2.54,2.64,3.66,6.47,3.37,11.53-2.74-1.17-4.74-1.75-5.92-1.74-1.32,1.55-1.95,3.72-2.01,6.52-3-3.16-3.59-7.14-1.77-11.97Zm11.82,35.5c3.26-.06,6.24,.73,8.93,2.39-1.55,.56-2.6,1.61-3.19,3.16-3.22-1.98-5.14-3.85-5.74-5.55Zm21.73,4.94c-1.31,.81-2.14,1.52-2.49,2.13-4.69,1.52-8.91,1.21-12.65-.92,4.26-3.16,9.29-3.56,15.14-1.21Zm22.53,6.45c-.97-.08-2.42,.25-4.35,.94,1.33,.31,2.82,1.22,4.42,2.72-.75,.35-1.52,.97-2.33,1.88-1.66-1.71-4.05-2.8-5.91-3.31-2.42,1.14-3.9,2.55-5.7,4.29-1.02-.46-2.15-.77-3.42-.91,.62-1.05,2.63-2.65,6.09-4.81-.58-.26-1.56-.39-2.95-.39-6.36,3.06-12.01,2.5-16.93-1.67,2.98-1.42,7.17-1.73,12.6-.95-3.05-2.92-4.62-6.33-4.74-10.2,5.18,1.73,8.46,5.25,9.82,11.16,2.24-.14,3.57,.42,5.24,1.04,1.76-.8,4.91-1.66,7.48-1.96,1.56-5.69,4.28-9.2,8.1-10.55,1.1,2.88,.22,6.46-2.62,10.75,5.04,.32,8.26,1.69,9.65,4.08-5.27,2.02-10.08,1.33-14.45-2.09Zm7.84-2.37l.36-4.82c4.3,.04,8.04,1.15,11.17,3.34-2.08,1.36-5.92,1.85-11.53,1.48Zm7.96-5.73c3.23-2.74,7.25-3.98,12.1-3.71-.74,3.33-2.89,5.91-6.47,7.74-.89-1.37-2.78-2.71-5.63-4.03Z"/><path class="cls-1" d="M60.88,76.11h12.79c2.85-4.35,.07-6,.52-8.44-1.64,.54-1.75,2.74-2.73,3.8-2.44-3.51,1.91-9.32-.99-12.83,.12,3.39-3.1,4.79-4.04,9.58-1.03-2.97,1.25-5.72-.89-8.68-.43,2.73-3.49,4.69-3.05,9.37-1.22-1.06-1.76-3.33-2.91-3.38,.88,2.69-2.62,6.59,1.28,10.59"/><path class="cls-1" d="M73.03,58.93c.68,2.13,.68,4.55-.06,7.22,2.34-2.42,2.36-4.83,.06-7.22"/><polygon class="cls-1" points="62.47 79.68 61.85 80.96 72.67 80.96 72.05 79.68 62.47 79.68"/><polygon class="cls-1" points="73.23 84 61.3 84 60.67 85.28 73.86 85.28 73.23 84"/><polygon class="cls-1" points="70.75 93.67 72.11 87.9 62.42 87.9 63.79 93.67 70.75 93.67"/><path class="cls-1" d="M59.58,98.43c.29,0,.55-.12,.74-.32h13.87c.21,.21,.45,.32,.76,.32,.55,0,1-.46,1-1.01s-.45-1.02-1-1.02c-.3,0-.55,.13-.76,.32h-13.87c-.19-.19-.45-.32-.74-.32-.56,0-1,.46-1,1.02s.44,1.01,1,1.01"/><path class="cls-1" d="M67.26,101.41c-1.89,0-3.42,1.54-3.42,3.43l2.89,25.84c-.4,.18-.7,.62-.7,1.09,0,.69,.54,1.24,1.23,1.24s1.23-.54,1.23-1.24c0-.46-.3-.86-.69-1.05l2.9-25.87c0-1.89-1.53-3.43-3.43-3.43"/><path class="cls-2" d="M152.93,53.5h-5.41v20.99c0,3.87-1.5,6.08-5.12,6.08-2.49,0-4.55-1.95-4.55-6.38v-20.69h-5.41v21.13c.06,3.19,.6,5.77,1.97,7.72,2.27,3.16,5.75,3.86,8.09,3.86,6.42,0,10.43-3.59,10.43-11.97v-20.74Z"/><path class="cls-2" d="M172.6,69.02c0-5.19-2.86-7.89-6.55-7.89s-4.98,2.65-5.66,4.08h-.08v-3.47h-4.74v23.61h4.96v-13.54c0-3.59,1.7-5.46,3.9-5.46,3.14,0,3.21,2.92,3.21,4.65v14.35h4.96v-16.34Z"/><path class="cls-2" d="M175.32,85.36h4.96v-23.61h-4.96v23.61Zm4.96-32.18h-4.96v5.77h4.96v-5.77Z"/><polygon class="cls-2" points="201.36 61.75 196.08 61.75 192.08 79.15 192.01 79.15 188.12 61.75 182.59 61.75 189.35 85.36 194.56 85.36 201.36 61.75"/><path class="cls-2" d="M213.59,78.44c-.38,1.69-1.81,2.58-3.17,2.58-4.01,0-4.29-3.99-4.43-5.78h12.92v-1.1c0-10.77-5.14-13-8.87-13-8.24,0-9.02,9.09-9.02,11.93,0,9.73,4.08,12.92,9.4,12.92,3.21,0,6.98-1.87,8.28-7.55h-5.11Zm-7.46-7.22c.28-3.11,1.52-4.99,3.85-4.99,1.6,0,3.56,1.17,3.82,4.99h-7.68Z"/><path class="cls-2" d="M220.92,85.36h4.97v-12.3c0-2.61,.71-5.64,4.56-5.64,.46,0,.99,0,1.42,.09v-6.3c-.33-.05-.64-.08-.96-.08-3.01,0-4.15,2.31-5.18,4.7h-.07v-4.09h-4.74v23.61Z"/><path class="cls-2" d="M249.1,68.95c-.4-6.67-4.78-7.82-8.47-7.82-5.88,0-7.63,4.44-7.63,7.91,0,8.82,11.69,5.86,11.69,9.8,0,.89-.59,2.44-3.16,2.44-3.1,0-4.1-1.47-4.1-3.46h-5.08c.12,6.3,4.78,8.17,9.03,8.17,2.97,0,8.29-1.25,8.29-8.13,0-8.7-11.82-5.99-11.82-9.72,0-1.02,.36-2.31,3.06-2.31s3.11,1.6,3.33,3.11h4.85Z"/><path class="cls-2" d="M251.44,85.36h4.94v-23.61h-4.94v23.61Zm4.94-32.18h-4.94v5.77h4.94v-5.77Z"/><path class="cls-2" d="M276.65,53.5h-4.95v11.31h-.07c-.77-1.5-2.27-3.67-5.46-3.67-4.16,0-7.82,3.98-7.82,12.16,0,6.48,2.33,12.7,7.91,12.7,2.08,0,4.27-.94,5.47-3.59h.07v2.97h4.85v-31.86Zm-13.19,20.23c0-3.72,1.05-7.24,4.19-7.24,3.41,0,4.26,3.83,4.26,7.6,0,3.49-1.23,6.78-4.37,6.78s-4.08-4.34-4.08-7.14"/><path class="cls-2" d="M295.04,67.97c0-5.82-4.84-6.84-7.49-6.84-3.87,0-7.87,1.01-8.43,8.25h4.78c.15-1.37,.58-3.3,3.05-3.3,1.27,0,3.26,.13,3.26,2.75,0,1.34-.96,1.75-1.75,1.88l-4.45,.84c-3.16,.58-5.5,2.93-5.5,7.54,0,4.88,2.93,6.88,5.73,6.88,3.38,0,4.97-1.95,6.09-3.42,.12,1.33,.17,1.69,.48,2.8h5.35v-.92c-.63-.28-1.12-.89-1.12-3.68v-12.79Zm-4.84,8.91c0,2.89-2.23,4.67-4.44,4.67-.95,0-2.28-.67-2.28-2.84,0-2.58,1.5-3.15,3.36-3.56,2.04-.39,2.87-.8,3.36-1.28v3.02Z"/><path class="cls-2" d="M314.71,53.5h-4.97v11.31h-.07c-.77-1.5-2.26-3.67-5.44-3.67-4.16,0-7.84,3.98-7.84,12.16,0,6.48,2.34,12.7,7.92,12.7,2.06,0,4.27-.94,5.47-3.59h.07v2.97h4.86v-31.86Zm-13.22,20.23c0-3.72,1.06-7.24,4.21-7.24,3.39,0,4.26,3.83,4.26,7.6,0,3.49-1.24,6.78-4.39,6.78s-4.08-4.34-4.08-7.14"/><path class="cls-2" d="M150.75,93.32h-4.97v11.32h-.06c-.79-1.5-2.27-3.67-5.45-3.67-4.16,0-7.83,3.99-7.83,12.16,0,6.48,2.31,12.69,7.93,12.69,2.06,0,4.25-.93,5.44-3.6h.09v2.98h4.84v-31.89Zm-13.22,20.25c0-3.72,1.07-7.24,4.21-7.24,3.41,0,4.27,3.84,4.27,7.6,0,3.51-1.25,6.78-4.41,6.78s-4.07-4.35-4.07-7.15"/><path class="cls-2" d="M164.2,118.29c-.4,1.69-1.8,2.57-3.16,2.57-4.02,0-4.3-4.01-4.44-5.78h12.92v-1.1c0-10.79-5.12-13-8.85-13-8.27,0-9.04,9.08-9.04,11.93,0,9.73,4.09,12.92,9.4,12.92,3.22,0,6.97-1.86,8.27-7.54h-5.11Zm-7.46-7.25c.28-3.11,1.52-4.97,3.85-4.97,1.58,0,3.56,1.15,3.84,4.97h-7.69Z"/><path class="cls-2" d="M197.64,103.76c-.3-4.69-3.37-11.27-10.99-11.27-6.54,0-11.68,5.68-11.68,16.81s4.84,16.74,11.62,16.74c6.35,0,9.97-4.83,11.04-11.76h-5.32c-.64,3.9-2.68,6-5.63,6-4.5,0-6.3-5.15-6.3-10.88,0-9.02,3.75-11.14,6.3-11.14,4.4,0,5.21,3.6,5.63,5.5h5.32Z"/><path class="cls-2" d="M218.39,113.41c0-8.52-4.59-12.43-9.64-12.43s-9.62,3.9-9.62,12.43,4.55,12.42,9.62,12.42,9.64-3.9,9.64-12.42m-5.1,0c0,3.01-.72,7.18-4.55,7.18s-4.53-4.18-4.53-7.18,.72-7.2,4.53-7.2,4.55,4.18,4.55,7.2"/><path class="cls-2" d="M236.84,108.86c0-5.18-2.87-7.9-6.54-7.9s-5.01,2.68-5.67,4.08h-.07v-3.46h-4.73v23.62h4.94v-13.54c0-3.6,1.7-5.46,3.9-5.46,3.15,0,3.21,2.93,3.21,4.65v14.35h4.96v-16.35Z"/><path class="cls-2" d="M250.97,116.59c0,1.1-.85,4.13-3.37,4.13-3.74,0-3.81-5.1-3.81-7.68,0-2.91,.79-6.83,3.91-6.83,2.31-.18,3.09,2.25,3.29,3.81h5.05c-.47-7.36-5.37-9.06-8.34-9.06-6.37,0-9.02,5.46-9.02,13.1,0,4.98,1.61,11.76,8.71,11.76s8.42-6.79,8.6-9.23h-5.03Z"/><path class="cls-2" d="M269.68,118.29c-.38,1.69-1.79,2.57-3.17,2.57-4,0-4.3-4.01-4.45-5.78h12.95v-1.1c0-10.79-5.16-13-8.85-13-8.28,0-9.03,9.08-9.03,11.93,0,9.73,4.07,12.92,9.39,12.92,3.21,0,6.98-1.86,8.29-7.54h-5.12Zm-7.47-7.25c.3-3.11,1.53-4.97,3.87-4.97,1.6,0,3.53,1.15,3.82,4.97h-7.69Z"/><path class="cls-2" d="M281.68,113.93c0-3.76,.82-7.6,4.22-7.6,3.15,0,4.23,3.52,4.23,7.24,0,2.8-.88,7.15-4.08,7.15s-4.37-3.28-4.37-6.78m0-12.35h-4.74v32.85h4.97v-12.25h.07c.59,1.28,1.83,3.63,5.32,3.63,5.6,0,7.92-6.21,7.92-12.69,0-8.17-3.67-12.16-7.84-12.16-3.31,0-4.69,2.17-5.62,4.03h-.08v-3.42Z"/><path class="cls-2" d="M308.59,116.59c0,1.1-.86,4.13-3.36,4.13-3.77,0-3.84-5.1-3.84-7.68,0-2.91,.82-6.83,3.94-6.83,2.31-.18,3.06,2.25,3.29,3.81h5.02c-.45-7.36-5.35-9.06-8.32-9.06-6.38,0-9.04,5.46-9.04,13.1,0,4.98,1.65,11.76,8.71,11.76s8.43-6.79,8.61-9.23h-5.02Z"/><path class="cls-2" d="M315.23,125.21h4.97v-23.62h-4.97v23.62Zm4.97-32.19h-4.97v5.77h4.97v-5.77Z"/><path class="cls-2" d="M338.47,91.92h-5.46l-3.33,6.47h3.58l5.21-6.47Zm2.93,21.49c0-8.52-4.56-12.43-9.64-12.43s-9.64,3.9-9.64,12.43,4.58,12.42,9.64,12.42,9.64-3.9,9.64-12.42m-5.07,0c0,3.01-.71,7.18-4.56,7.18s-4.53-4.18-4.53-7.18,.71-7.2,4.53-7.2,4.56,4.18,4.56,7.2"/><path class="cls-2" d="M360.26,108.86c0-5.18-2.87-7.9-6.56-7.9s-5.01,2.68-5.67,4.08h-.07v-3.46h-4.74v23.62h4.95v-13.54c0-3.6,1.7-5.46,3.9-5.46,3.15,0,3.21,2.93,3.21,4.65v14.35h4.97v-16.35Z"/></svg>